<svg xmlns="http://www.w3.org/2000/svg" width="2in" height="2in" viewBox="0 0 144 144"><path fill="none" stroke="#D8D3AD" stroke-miterlimit="10" stroke-width="6" d="M53.7 70.3a18.7 18.7 0 0 0 9.2-8.1A22.8 22.8 0 0 0 66 50.5a24.4 24.4 0 0 0-1.4-7.9 21.3 21.3 0 0 0-3.9-6.9 19.7 19.7 0 0 0-6.1-5 16.7 16.7 0 0 0-8.1-1.9H.9V114h41.2a36.2 36.2 0 0 0 10.6-1.4 29.9 29.9 0 0 0 8.8-4.2 19.8 19.8 0 0 0 8.1-16.3c0-5.6-1.4-10.3-4.3-14a21.7 21.7 0 0 0-11.6-7.8zm8.4-10.8zM17.5 42.9h22.8a9 9 0 0 1 6.7 2.9 10.9 10.9 0 0 1 2.7 7.8 10.7 10.7 0 0 1-3 8 9.6 9.6 0 0 1-7.1 2.8H17.5zm34.6 50.4a14.1 14.1 0 0 1-2.3 3.5 9.8 9.8 0 0 1-3.4 2.3 10.7 10.7 0 0 1-4.3.9H17.5V77.5h25.4a8.7 8.7 0 0 1 4 .9 9.3 9.3 0 0 1 3.1 2.5 11.2 11.2 0 0 1 2.1 3.7 12.2 12.2 0 0 1 0 8.7zm39.4-64.2h37.3v11.73H91.5zm49.4 41a32 32 0 0 0-6.5-10.4 31.3 31.3 0 0 0-10.3-7 34 34 0 0 0-13.8-2.7 34.8 34.8 0 0 0-13.9 2.7 30.9 30.9 0 0 0-10.5 7.1 30.2 30.2 0 0 0-6.6 10.5A34.8 34.8 0 0 0 77 82.9a32.2 32.2 0 0 0 2.4 12.4 29.6 29.6 0 0 0 6.7 10.3 31 31 0 0 0 10.4 7.1 35.6 35.6 0 0 0 13.7 2.5c7 0 13.1-1.5 18.2-4.6a27.9 27.9 0 0 0 11.1-11.8l-13.8-3.9a12.4 12.4 0 0 1-5.8 6.2 18.5 18.5 0 0 1-9.1 2.4 16.1 16.1 0 0 1-14.9-9.2 16.9 16.9 0 0 1-1.8-6.6h48.6a7.8 7.8 0 0 0 .3-2.4 28.1 28.1 0 0 0 .1-3 33.8 33.8 0 0 0-2.2-12.2zm-47 7.2a16.8 16.8 0 0 1 1.6-6.4A17.5 17.5 0 0 1 99 66a16.4 16.4 0 0 1 5-3.2 17.4 17.4 0 0 1 6.1-1.1 16.1 16.1 0 0 1 11.2 4.2 16.9 16.9 0 0 1 5.2 11.4z"/></svg>
