<svg xmlns="http://www.w3.org/2000/svg" width="2in" height="2in" viewBox="0 0 144 144"><path fill="none" stroke="#D8D3AD" stroke-miterlimit="10" stroke-width="6" d="M33.3 7.7s13.5.3 22.3 9.2c17.2-7.6 38.1-1.2 39.8-1.2 8.2-4.9 14.3-8 22.1-8 5.7 11.3 2.4 18.1 1.4 21.6 8.3 6.2 21.2 56.1-28 60.5 9.2 9.2 4.7 25 6.6 40.8.2 6.1-41.6 8.5-41.6 1.2.4-13.8-.3-19.5-.3-19.5s-13.6 3.3-21.4-2.9S29.3 96.7 20.8 91s.9-4.9.9-4.9c9.4.1 12.4 15.5 20.3 16.2 11.6 1 13.8-1.4 13.8-1.4s1.7-8 4.8-10.8c-24.1.9-49.9-29-27.8-60.8a45.6 45.6 0 0 1 .5-21.6z"/></svg>
