<svg height="22in" viewBox="0 0 2304 1584" width="32in" xmlns="http://www.w3.org/2000/svg"><path d="m200.5 374.8-28.2-.3v72.5l28.2-.2z" fill="#08164c"/><path d="m173 466a38 38 0 0 0 27.5 29v-29.1z" fill="#08164c"/><path d="m282.5 465.6-63 .2v30.4h66.7v-26.9z" fill="#08164c"/><path d="m200.5 275h-28.2v80.4l28.2.4z" fill="#08164c"/><path d="m381.5 275h-76.3v150.3l102.8-102.8-23.9-41.6s-1.1-2.3-2.6-5.9z" fill="#08164c"/><path d="m495 136.2h-285a37.9 37.9 0 0 0 -37.7 37.8v58.9h199.3c2.6-40 35.8-71.5 76.1-70.9s72.8 33.3 74.1 73.6a76.6 76.6 0 0 1 -13.4 45.9l-28.9 51.9-.4 162.8h15.9a37.9 37.9 0 0 0 37.8-37.8v-284.4a37.9 37.9 0 0 0 -37.8-37.8z" fill="#08164c"/><path d="m305.2 452.3v3.6 40.3h108.7l.4-153z" fill="#08164c"/><path d="m219.5 446.8 64.5-.3h2.2v-171.5h-66.7z" fill="#08164c"/><path d="m477.9 336.3-11.1 19.9.6 140h11.7l.4-162.8z" fill="#233591"/><path d="m415.8 336-7.8-13.5-102.8 102.8v-150.3h76.3c-3.7-8.8-10.1-25.7-10.1-36.9 0-1.8.1-3.5.2-5.2h-199.3v42.1h28.2v80.8l-28.2-.4v19.1l28.2.3v72l-28.2.2v11.4a37.7 37.7 0 0 0 .7 7.6h27.5v29a36.9 36.9 0 0 0 9.5 1.2h9.5v-30.4l63-.2 3.7 3.7v26.9h19v-43.9l109.1-109.1-.4 153h13.5l-.6-141zm-129.6 110.5h-2.2l-64.5.3v-171.8h66.7z" fill="#233591"/><path d="m466.1 357.6a21.7 21.7 0 0 1 -37.7.2l-1.6-2.6.6 141h40l-.6-140z" fill="#ff397f"/><path d="m447.5 213.2c21.5 0 38.9 17 38.9 38a37.4 37.4 0 0 1 -6.7 21.3l-.2 60.9 28.9-51.9a76.6 76.6 0 0 0 13.4-45.9c-1.3-40.3-34.1-73-74.1-73.6s-73.5 30.9-76.1 70.9h41.7a39.4 39.4 0 0 1 34.2-19.7z" fill="#fff"/><path d="m414.5 275h-33c1.5 3.6 2.6 5.9 2.6 5.9l23.9 41.6 6.4-6.3z" fill="#fff"/><path d="m381.5 275h33v41.2l-6.4 6.3 7.8 13.5 11 19.2v-45.4a20 20 0 0 1 19.9-20.1h.1a20.1 20.1 0 0 1 20 20v46.5l11.1-19.9 1.6-2.9.2-60.9a39.2 39.2 0 0 1 -32.2 16.6c-21.5 0-39-17-39-37.9a37.5 37.5 0 0 1 4.8-18.3h-41.8c-.1 1.7-.2 3.4-.2 5.2 0 11.2 6.4 28.1 10.1 36.9z" fill="#fff"/><path d="m446.7 289.7h-.1a20 20 0 0 0 -19.9 20.1v45.4l1.6 2.6a21.7 21.7 0 0 0 37.7-.2l.7-1.4v-46.5a20.1 20.1 0 0 0 -20-20z" fill="#fff"/><path d="m447.5 213.2a39.4 39.4 0 0 0 -34.2 19.7h29.1v4.2h37.4v35.4a37.4 37.4 0 0 0 6.7-21.3c-.1-21-17.5-38-39-38z" fill="#ff397f"/><path d="m442.4 237.1v-4.2h-29.1a37.5 37.5 0 0 0 -4.8 18.3c0 20.9 17.5 37.9 39 37.9a39.2 39.2 0 0 0 32.2-16.6v-35.4z" fill="#ff397f"/><path d="m685.2 374.8-28.2-.3v72.5l28.2-.2z" fill="#fff"/><path d="m657.7 466a38 38 0 0 0 27.5 29v-29.1z" fill="#fff"/><path d="m767.2 465.6-63 .2v30.4h66.7v-26.9z" fill="#fff"/><path d="m685.2 275h-28.2v80.4l28.2.4z" fill="#fff"/><path d="m866.2 275h-76.3v150.3l102.8-102.8-23.9-41.6s-1.1-2.3-2.6-5.9z" fill="#fff"/><path d="m979.7 136.2h-285a37.9 37.9 0 0 0 -37.7 37.8v58.9h199.3c2.6-40 35.8-71.5 76.1-70.9s72.8 33.3 74.1 73.6a76.6 76.6 0 0 1 -13.4 45.9l-28.9 51.9-.4 162.8h15.9a37.9 37.9 0 0 0 37.8-37.8v-284.4a37.9 37.9 0 0 0 -37.8-37.8z" fill="#fff"/><path d="m789.9 452.3v3.6 40.3h108.7l.4-153z" fill="#fff"/><path d="m704.2 446.8 64.5-.3h2.2v-171.5h-66.7z" fill="#fff"/><path d="m962.6 336.3-11.1 19.9.5 140h11.8l.4-162.8z" fill="#231f20"/><path d="m900.5 336-7.8-13.5-102.8 102.8v-150.3h76.3c-3.7-8.8-10.1-25.7-10.1-36.9 0-1.8.1-3.5.2-5.2h-199.3v42.1h28.2v80.8l-28.2-.4v19.1l28.2.3v72l-28.2.2v11.4a37.7 37.7 0 0 0 .7 7.6h27.5v29a36.9 36.9 0 0 0 9.5 1.2h9.5v-30.4l63-.2 3.7 3.7v26.9h19v-43.9l109.1-109.1-.4 153h13.4l-.5-141zm-129.6 110.5h-2.2l-64.5.3v-171.8h66.7z" fill="#231f20"/><path d="m950.8 357.6a21.7 21.7 0 0 1 -37.7.2l-1.6-2.6.5 141h40l-.5-140z" fill="#fff"/><path d="m1006.5 235.6c-1.3-40.3-34.2-73-74.1-73.6s-73.5 31-76.1 70.9c-.1 1.7-.2 3.4-.2 5.2 0 11.2 6.4 28.1 10.1 36.9 1.5 3.6 2.6 5.9 2.6 5.9l23.9 41.6 7.8 13.5 11 19.2 1.6 2.7a21.7 21.7 0 0 0 37.7-.3l.7-1.4 11.1-19.9 1.6-2.9 28.9-51.9a76.6 76.6 0 0 0 13.4-45.9zm-42.1 36.9a39.2 39.2 0 0 1 -32.2 16.6c-21.5 0-39-17-39-37.9a37.5 37.5 0 0 1 4.8-18.3 39.4 39.4 0 0 1 34.2-19.7c21.5 0 38.9 17 38.9 38a37.4 37.4 0 0 1 -6.7 21.3z" fill="#231f20"/><path d="m971.1 251.2a37.4 37.4 0 0 1 -6.7 21.3 39.2 39.2 0 0 1 -32.2 16.6c-21.5 0-39-17-39-37.9a37.5 37.5 0 0 1 4.8-18.3 39.4 39.4 0 0 1 34.2-19.7c21.5 0 38.9 17 38.9 38z" fill="#fff"/><path d="m1167.6 374.8-28.2-.3v72.5l28.2-.2z" fill="#231f20"/><path d="m1140.2 466a37.9 37.9 0 0 0 27.4 29v-29.1z" fill="#231f20"/><path d="m1249.6 465.6-62.9.2v30.4h66.6v-26.9z" fill="#231f20"/><path d="m1167.6 275h-28.2v80.4l28.2.4z" fill="#231f20"/><path d="m1348.6 275h-76.2v150.3l102.8-102.8-24-41.6s-1.1-2.3-2.6-5.9z" fill="#231f20"/><path d="m1462.2 136.2h-285a37.9 37.9 0 0 0 -37.8 37.8v58.9h199.3c2.7-40 35.9-71.5 76.2-70.9s72.8 33.3 74.1 73.6a76.7 76.7 0 0 1 -13.5 45.9l-28.8 51.9-.5 162.8h16a37.9 37.9 0 0 0 37.7-37.8v-284.4a37.9 37.9 0 0 0 -37.7-37.8z" fill="#231f20"/><path d="m1272.4 452.3v3.6 40.3h108.7l.4-153z" fill="#231f20"/><path d="m1186.7 446.8 64.5-.3h2.1v-171.5h-66.6z" fill="#231f20"/><path d="m1445.1 336.3-11.1 19.9.5 140h11.7l.5-162.8z" fill="#fff"/><path d="m1382.9 336-7.7-13.5-102.8 102.8v-150.3h76.2c-3.7-8.8-10.1-25.7-10.1-36.9 0-1.8.1-3.5.2-5.2h-199.3v42.1h28.2v80.8l-28.2-.4v19.1l28.2.3v72l-28.2.2v11.4a37.7 37.7 0 0 0 .8 7.6h27.4v29a38.3 38.3 0 0 0 9.6 1.2h9.5v-30.4l62.9-.2 3.7 3.7v26.9h19.1v-43.9l109.1-109.1-.4 153h13.4l-.5-141zm-129.6 110.5h-2.1l-64.5.3v-171.8h66.6z" fill="#fff"/><path d="m1433.2 357.6a21.7 21.7 0 0 1 -37.7.2l-1.5-2.6.5 141h40l-.5-140z" fill="#231f20"/><path d="m1489 235.6c-1.3-40.3-34.2-73-74.1-73.6s-73.5 31-76.2 70.9c-.1 1.7-.2 3.4-.2 5.2 0 11.2 6.4 28.1 10.1 36.9l2.6 5.9 24 41.6 7.7 13.5 11.1 19.2 1.5 2.7a21.7 21.7 0 0 0 37.7-.3l.8-1.4 11.1-19.9 1.6-2.9 28.8-51.9a76 76 0 0 0 13.5-45.9zm-42.2 36.9a39.2 39.2 0 0 1 -32.2 16.6c-21.5 0-38.9-17-38.9-37.9a36.5 36.5 0 0 1 4.8-18.3 39.1 39.1 0 0 1 34.1-19.7c21.5 0 38.9 17 38.9 38a36.7 36.7 0 0 1 -6.7 21.3z" fill="#fff"/><path d="m1453.5 251.2a36.7 36.7 0 0 1 -6.7 21.3 39.2 39.2 0 0 1 -32.2 16.6c-21.5 0-38.9-17-38.9-37.9a36.5 36.5 0 0 1 4.8-18.3 39.1 39.1 0 0 1 34.1-19.7c21.5 0 38.9 17 38.9 38z" fill="#231f20"/><path d="m177.8 952.7-1.2.3h-.6l-3.7.4v94.6a92.1 92.1 0 0 1 53 2.7l3.6 1.3v-90.5s-7.4-6.3-10.3-7.8c-12.3-6.5-27.4-4.6-40.8-1z" fill="#fff"/><path d="m289.3 960c-15-4.3-31 .4-46.1 4.7l-5 1.5v90.5h.1a117.7 117.7 0 0 1 56.5-3.9v-91.2zm-11.9 34.9v27.1l-6.8 5.9-6.7-5.9v-27.7a16.2 16.2 0 1 1 13.5.6z" fill="#fff"/><path d="m525.9 944.9h133.5a10 10 0 0 0 0-20h-133.5a10 10 0 0 0 0 20z" fill="#fff"/><path d="m659.4 976.9h-133.5a10 10 0 0 0 0 20h133.5a10 10 0 0 0 0-20z" fill="#fff"/><path d="m659.4 1028.9h-133.5a10 10 0 0 0 0 20h133.5a10 10 0 1 0 0-20z" fill="#fff"/><path d="m1833.3 136.7h-68.5a33.7 33.7 0 0 0 -33.6 33.6v137.8h135.6v-137.8a33.6 33.6 0 0 0 -33.5-33.6zm-8.3 126.3a4.6 4.6 0 0 1 -8.5 2.5l-13.7-20.5a4.6 4.6 0 0 0 -6.6-1.1l-25.5 18.9c-4.2 3.1-9.5-1.9-6.7-6.2l21-32.1 31.5-46a4.7 4.7 0 0 1 8.5 2.6z" fill="#08164c"/><path d="m1816.5 178.5-31.5 46-21 32.1c-2.8 4.3 2.5 9.3 6.7 6.2l25.5-18.9a4.6 4.6 0 0 1 6.6 1.1l13.7 20.5a4.6 4.6 0 0 0 8.5-2.5v-81.9a4.7 4.7 0 0 0 -8.5-2.6z" fill="#ff397f"/><path d="m1811.8 387.7.7 2.8 1.6 5.8-1.6-5.8z" fill="#08164c"/><path d="m1782.1 414.8-1-2.9-.9-2.8.9 2.8z" fill="#08164c"/><path d="m1731.2 319.1v137.8a33.6 33.6 0 0 0 33.6 33.5h68.5a33.5 33.5 0 0 0 33.5-33.5v-137.8zm119 83.1-31.1 10.7-2.9-5.3 4.2 7.8 7.7 13.9a2 2 0 0 1 -2.6 2.7l-14.4-7-9.5 32.6a2.5 2.5 0 0 1 -2.3 1.8h-.1a2.6 2.6 0 0 1 -2.4-1.7l-11.6-33.8-14.5 8a2 2 0 0 1 -2.7-2.6l7.9-16.1.6-1.1-30.7-8.2a2.2 2.2 0 0 1 -1.7-2.2 2.3 2.3 0 0 1 1.7-2.2l31.7-8.9-.6-1-8.9-15.2a2 2 0 0 1 2.6-2.7l15.1 8.6-1.9 7.4 1.9-7.4 9.3-36a2.6 2.6 0 0 1 2.4-1.9 2.6 2.6 0 0 1 2.4 1.9l9.8 35.5 14.6-8.5a1.9 1.9 0 0 1 2.7 2.6l-7.7 13.4-5.1 9 4.2-7.3 31.8 8.9a2.3 2.3 0 0 1 .1 4.3z" fill="#08164c"/><path d="m1781.1 411.9-.9-2.8-.5-1.2-.4-1.3c-.9 1.9-2.8 5.6-2.8 5.6l-.6 1.1-7.9 16.1a2 2 0 0 0 2.7 2.6l14.5-8-3.1-9.1z" fill="#ff397f"/><path d="m1811.8 387.7.7 2.8 1.6 5.8 5.1-9 7.7-13.4a1.9 1.9 0 0 0 -2.7-2.6l-14.6 8.5 1.4 5.1z" fill="#ff397f"/><path d="m1781.6 396 .7-2.7.7-2.8.8-2.8 1.9-7.4-15.1-8.6a2 2 0 0 0 -2.6 2.7l8.9 15.2.6 1h.1z" fill="#ff397f"/><path d="m1814.5 413.5-.9 3-2 7-.5 1.5 14.4 7a2 2 0 0 0 2.6-2.7l-7.7-13.9-4.2-7.8-.9 3z" fill="#ff397f"/><path d="m1850.1 397.9-31.8-8.9-4.2 7.3 2.4 8.8a1.6 1.6 0 0 1 .1 1 .8.8 0 0 1 -.1.4l-.3 1.1 2.9 5.3 31.1-10.7a2.3 2.3 0 0 0 -.1-4.3z" fill="#fff"/><path d="m1815.1 404.8-1.5-7.5.5-1-1.6-5.8-.7-2.8-.8-2.8-1.4-5.1-9.8-35.5a2.6 2.6 0 0 0 -2.4-1.9 2.6 2.6 0 0 0 -2.4 1.9l-9.3 36-1.9 7.4-.8 2.8-.7 2.8-.7 2.7h.1s-2 9.2-1.9 9.4a4.2 4.2 0 0 1 -.5 1l.4 1.3.5 1.2.9 2.8 1 2.9 3.1 9.1 11.6 33.8a2.6 2.6 0 0 0 2.4 1.7h.1a2.5 2.5 0 0 0 2.3-1.8l9.5-32.6 2-7 .9-2.9.8-3 1.2-4.1a.6.6 0 0 0 .1-.4h.1l-1.1-2a2.1 2.1 0 0 0 0-.6zm-8.5 7.6-4.3 14.8-1.1 3.8-1.2 4.2a1.6 1.6 0 0 1 -1.5 1.1 1.5 1.5 0 0 1 -1.5-1.1l-1.5-4.3-1.1-3.2-5.2-15.2a1.4 1.4 0 0 1 0-.9 1.6 1.6 0 0 1 1.5-1.2h14.4a1.6 1.6 0 0 1 1.5 1.2 1.1 1.1 0 0 1 0 .8zm-5.2-12.6 1.1 4h-9.2l1-4h-5.2l6.4-24.7a2.3 2.3 0 0 1 4.4 0l6.8 24.7z" fill="#fff"/><path d="m1782.3 393.3.7-2.8.8-2.8-.8 2.8z" fill="#fff"/><path d="m1816 407.9-1.2 4.1-.8 3-.9 2.9-2 7 .5-1.5 2-7 .9-3 .8-2.9.9-3h-.1a.6.6 0 0 1 -.1.4z" fill="#fff"/><path d="m1816.6 406.1a1.6 1.6 0 0 0 -.1-1l-2.4-8.8-.5 1 1.5 7.5a2.1 2.1 0 0 1 0 .8l1.1 2 .3-1.1a.8.8 0 0 0 .1-.4z" fill="#fff"/><path d="m1793.3 403.8h9.2l-1.1-4h-7.1z" fill="#fff"/><path d="m1779.2 406.4v-.2a1.8 1.8 0 0 1 .1-1l2-8-3.8-6.5-31.7 8.9a2.3 2.3 0 0 0 -1.7 2.2 2.2 2.2 0 0 0 1.7 2.2l30.7 8.2 2.7-5.7z" fill="#fff"/><path d="m1779.3 406.5a.1.1 0 0 0 -.1-.1l-2.7 5.7s1.9-3.7 2.8-5.6z" fill="#fff"/><path d="m1781.6 396-4-5.4h-.1l3.8 6.5z" fill="#fff"/><path d="m1781.3 397.1-2 8a1.8 1.8 0 0 0 -.1 1v.2a.1.1 0 0 1 .1.1 4.2 4.2 0 0 0 .5-1c-.1-.2 1.9-9.4 1.9-9.4h-.1z" fill="#fff"/><path d="m1779.3 406.5a.1.1 0 0 0 -.1-.1.1.1 0 0 1 .1.1z" fill="#fff"/><path d="m1795.5 375.1-6.4 24.7h5.2l2.3-8.9a1.2 1.2 0 0 1 2.3-.1l2.5 9h5.3l-6.8-24.7a2.3 2.3 0 0 0 -4.4 0z" fill="#ff397f"/><path d="m1796.6 390.9-2.3 8.9h7.1l-2.5-9a1.2 1.2 0 0 0 -2.3.1z" fill="#ff397f"/><path d="m1806.6 411.5a1.6 1.6 0 0 0 -1.5-1.2h-14.4a1.6 1.6 0 0 0 -1.5 1.2 1.4 1.4 0 0 0 0 .9l5.2 15.2 1.1 3.2 1.5 4.3a1.5 1.5 0 0 0 1.5 1.1 1.6 1.6 0 0 0 1.5-1.1l1.2-4.2 1.1-3.8 4.3-14.8a1.1 1.1 0 0 0 0-.8z" fill="#08164c"/><g fill="#fff"><path d="m2113.6 729.4c0 4.5-3.4 7.4-7.9 7.4h-12.2v-14.8h12.2c4.5 0 7.9 3 7.9 7.4z"/><path d="m2098.7 674.8a57.9 57.9 0 1 0 57.8 57.8 57.8 57.8 0 0 0 -57.8-57.8zm8.5 71.8h-13.7v19.3h-11.4v-53.7h25.1c11.7 0 18 7.9 18 17.3s-6.4 17.1-18 17.1z"/><path d="m1780.9 944.7a57.9 57.9 0 1 0 57.8 57.8 57.8 57.8 0 0 0 -57.8-57.8zm24.7 87.1h-11.5v-22.5h-25.4v22.5h-11.4v-53.7h11.4v21.1h25.4v-21.1h11.5z"/><path d="m1461.8 1180a33 33 0 0 0 -56.4 23.4v33.5l-8.1-9 .8-20.9a5 5 0 0 0 4.2-4.9v-9.5a10.3 10.3 0 0 0 -4.9-8.7l8.9-8.9a3.6 3.6 0 0 0 0-4.9 4.8 4.8 0 0 0 -6 0l-11.5 11.4-.6.9h-.1v21a3.6 3.6 0 0 0 2 3.2l-.9 26 16.2 16v13.8a6.5 6.5 0 0 0 6.6 6.6h52.1a6.5 6.5 0 0 0 6.5-6.5l.9-59.2a33 33 0 0 0 -9.7-23.3zm-4 22.5a6.9 6.9 0 0 1 -6.9 6.9h-24a6.9 6.9 0 0 1 -6.9-6.9v-3.9a14.7 14.7 0 0 1 14.6-14.7h8.5a15.3 15.3 0 0 1 5.7 1.2l1.3.6.6.4 1.2.8a4.1 4.1 0 0 1 1 .9h.1l.9.9a9.2 9.2 0 0 1 1.7 2.2 11.4 11.4 0 0 1 1 1.9 6.9 6.9 0 0 1 .5 1.3 16.2 16.2 0 0 1 .7 4.4z"/><path d="m1455.6 1191a9.2 9.2 0 0 0 -1.7-2.2 9.2 9.2 0 0 1 1.7 2.2z"/><path d="m1388.1 1182.5v.3z"/><path d="m1388.1 1182.6v-.2z"/><path d="m1388.1 1185.4v-2.7a3.2 3.2 0 0 0 0 2.7z"/><path d="m1790.9 1189.6a39.7 39.7 0 0 1 39.7 39.7v23.4a0 0 0 0 1 0 0h-79.4a0 0 0 0 1 0 0v-23.4a39.7 39.7 0 0 1 39.7-39.7z" transform="matrix(-1 0 0 -1 3581.9 2442.2)"/><path d="m1827.1 1234.3h-.6a3.6 3.6 0 0 1 -3.4-3.6 3.5 3.5 0 0 1 3.5-3.4h.1c6.9.2 12.7-5 12.9-11.5s-5.3-12.1-12.1-12.3a3.5 3.5 0 0 1 -3.4-3.6 3.5 3.5 0 0 1 3.6-3.4c10.7.3 19.2 9.1 18.9 19.5s-9 18.3-19.5 18.3z"/><path d="m1813.5 1268.6h-44a3.5 3.5 0 0 1 -3.5-3.5 3.4 3.4 0 0 1 3.5-3.5h44a3.5 3.5 0 0 1 3.5 3.5 3.5 3.5 0 0 1 -3.5 3.5z"/><path d="m2126 1263.3h-57.5a7.2 7.2 0 0 1 -7.2-7.5l2.4-52.6a7.2 7.2 0 0 1 7.2-6.9h52a7.3 7.3 0 0 1 7.2 6.8l3.1 52.6a7.2 7.2 0 0 1 -7.2 7.6z"/><path d="m2113.9 1201.4h-.1a3.5 3.5 0 0 1 -3.4-3.6c.3-8-5.8-15.8-12.5-16s-13.2 8-13.4 15.2a3.5 3.5 0 0 1 -3.6 3.4 3.4 3.4 0 0 1 -3.4-3.6c.4-13.3 11.1-22.2 20.6-22s19.7 9.9 19.3 23.2a3.5 3.5 0 0 1 -3.5 3.4z"/><path d="m2100.6 944a57.9 57.9 0 1 0 57.9 57.8 57.8 57.8 0 0 0 -57.9-57.8zm-1.6 54.6c-1.6 1.5-5.9 2.3-6.5 2.3v29.2c0 3.5.6 6.3-2.6 6.3s-2.5-2.8-2.5-6.3l.2-29.2a11.9 11.9 0 0 1 -9-5.7c-2-3.2-1.4-21.5-1.4-21.5 0-3.6-.6-6.5 2.9-6.5s2.2 2.9 2.2 6.5v15.9s-.2 4.9 5.3 4.9l-.2-17c0-8.8-1-11.5 2.5-11.5s2.6 2.9 2.6 11.5v16.9c2.7-.5 4.7-1.9 4.7-5.9v-15.4c0-3.5-1-6.4 2.5-6.4s2.6 2.9 2.6 6.4v11.7c0 3.7 1.2 9.3-3.3 13.8zm17.6 7.2c-1.6.4-1.9.5-2 .4v27.5c0 2.9-.2 4.2-3.1 4.2s-3.1-1.3-3.1-4.2v-62.3c0-2.6.9-5.1 3.6-5.1s1.9 2.4 2.5 5l6 28.3a5.1 5.1 0 0 1 -3.9 6.2z"/><path d="m298.8 708.8a55.9 55.9 0 0 1 -10 31.9l-6.7-6.6a10.2 10.2 0 0 0 -12.6-1.3 35.6 35.6 0 0 0 9.3-24 36 36 0 1 0 -12.1 26.9 9.9 9.9 0 0 0 1.3 12.6l6.6 6.5a56 56 0 1 1 24.2-46z"/><path d="m288.8 740.7a57.6 57.6 0 0 1 -14.2 14.1l37.8 37.5a10.2 10.2 0 0 0 7.1 2.9 10 10 0 0 0 7-17.1z"/><path d="m269.5 732.8a38.3 38.3 0 0 1 -2.8 2.9 6.1 6.1 0 0 1 1.2-1.6z"/><path d="m288.8 740.7-6.7-6.6a10.2 10.2 0 0 0 -12.6-1.3 38.3 38.3 0 0 1 -2.8 2.9 9.9 9.9 0 0 0 1.3 12.6l6.6 6.5a57.6 57.6 0 0 0 14.2-14.1z"/><path d="m658.4 696a9.9 9.9 0 0 0 -8.8 10.9c0 .2 1.8 19.5-8.9 31.4-5.8 6.4-14.8 9.7-26.8 9.7s-21.4-3.3-27.4-10c-10.7-11.7-9.1-30.8-9-31.1a10 10 0 0 0 -19.9-2.1c-.1 1.2-2.8 28 13.9 46.5 8.1 9 18.9 14.4 32.4 16.1v-7.4a10 10 0 0 1 20 0v7.4c13.2-1.7 23.9-7.1 31.8-15.9 16.6-18.5 13.9-45.6 13.7-46.7a9.9 9.9 0 0 0 -11-8.8z"/><path d="m603.9 767.4v12.7h20v-12.7a79.1 79.1 0 0 1 -10 .6 81.4 81.4 0 0 1 -10-.6z"/><path d="m613.9 750a10 10 0 0 0 -10 10v7.4a81.4 81.4 0 0 0 10 .6 79.1 79.1 0 0 0 10-.6v-7.4a9.9 9.9 0 0 0 -10-10z"/><path d="m613.9 791.5a10 10 0 0 1 -10-10v-1.4h-7.4a10 10 0 0 0 0 20h33.2a10 10 0 0 0 0-20h-5.8v1.4a10 10 0 0 1 -10 10z"/><path d="m603.9 781.5a10 10 0 0 0 20 0v-1.4h-20z"/><path d="m613.7 735.7a23.4 23.4 0 0 0 23.4-23.4v-33a23.5 23.5 0 0 0 -46.9 0v33a23.5 23.5 0 0 0 23.5 23.4z"/><path d="m944 686.1h71v-1.9c0-6.7-1-12.9 2.5-18.1h-73.5a10 10 0 0 0 0 20z"/><path d="m1070.5 718.3h-126.5a10 10 0 0 0 0 20h126.5a10 10 0 0 0 0-20z"/><path d="m1070.5 770.4h-126.5a10 10 0 0 0 0 20h126.5a10 10 0 0 0 0-20z"/><path d="m1087.5 677.4a30.2 30.2 0 0 0 -4.6-13.2 32.3 32.3 0 0 0 -59.9 17v1.9a32.4 32.4 0 0 0 64.8-1.9 23.4 23.4 0 0 0 -.3-3.8zm-14.9-.5-4.9 6.2-12.4 16a6.8 6.8 0 0 1 -5 2.5h-.1a6.2 6.2 0 0 1 -4.9-2.3l-8.6-9.8a6.3 6.3 0 0 1 -1.2-6.4 6.1 6.1 0 0 1 1.8-2.8 6.5 6.5 0 0 1 9.2.7l1.9 2.1 1.5 1.8 1.4-1.8 11.1-14.2a6.5 6.5 0 0 1 10.2 8z"/><path d="m1422 930.4a76.5 76.5 0 1 0 76.5 76.4 76.5 76.5 0 0 0 -76.5-76.4zm0 132.9a56.5 56.5 0 1 1 56.5-56.5 56.5 56.5 0 0 1 -56.5 56.5z"/><path d="m1422 965.3a41.6 41.6 0 1 0 41.5 41.5 41.5 41.5 0 0 0 -41.5-41.5zm20.8 37.7-17 17.4a5.1 5.1 0 0 1 -3.6 1.5 3.9 3.9 0 0 1 -1.8-.4 4.8 4.8 0 0 1 -3.2-4.5l-.5-31.4a5 5 0 0 1 5-5.1 4.9 4.9 0 0 1 5 4.9l.3 19.4 8.7-8.8a4.9 4.9 0 0 1 7-.1 5 5 0 0 1 .1 7.1z"/><path d="m930.4 1003.6h60.3v-24.8h-10.8l-17.7 17.8-17-18.1-17-.2v26.5a2.7 2.7 0 0 1 2.2-1.2z"/><path d="m930.7 1038.3h42v-29.8h-42.3a2.7 2.7 0 0 1 -2.2-1.2v33.4a2.6 2.6 0 0 1 2.5-2.4z"/><path d="m977.7 1008.6v45.9l-22.5 21.8a2.2 2.2 0 0 1 -1.7.7 2.4 2.4 0 0 1 -1.8-.7 2.5 2.5 0 0 1 .1-3.6l20.9-20.4v-9h-42a2.5 2.5 0 0 1 -2.5-2.5v37.9l63 .9-.4-71z"/><path d="m1027.5 984.6 1.5-1.5-.9.8.8-.8h.1l39-39a2.5 2.5 0 0 1 3.5 3.5l-37.5 37.5 35.6 13.9a2.6 2.6 0 0 1 1.5 3.3 2.6 2.6 0 0 1 -3.3 1.4l-37.6-14.8-2.7 2.8v37.4l2.4 1.7h39.3a2.5 2.5 0 0 1 2.5 2.5 2.5 2.5 0 0 1 -2.5 2.5h-40.9l-.8-.5v21l45.1.4v-120.4l-45.3-.5z"/><path d="m1012 1000.2.5-.6 13.2-13.3v-49.6l-33 42.1.2 25.2 9 6.5z"/><path d="m1025.7 1027.8v-34.3l-19.7 20z"/><path d="m993.5 1079.8 32.2-22.5v-23.3l-32.7-23.8z"/><path d="m988.3 931.5a17.8 17.8 0 0 0 -22.9 3.6h-.1a15.1 15.1 0 0 0 -1.8 2.6 1 1 0 0 1 -1.6 0 18.8 18.8 0 0 0 -2.7-3.6l-.3-.2a18.1 18.1 0 0 0 -25.4 25.9l28.4 28.2a.9.9 0 0 0 1.3 0l28.4-28.5a17.9 17.9 0 0 0 -3.3-28zm-40.9 26.7a8.3 8.3 0 1 1 8.3-8.3 8.3 8.3 0 0 1 -8.3 8.3z"/><path d="m927.9 1006.1a2.8 2.8 0 0 0 .3 1.3v-2.6a2.8 2.8 0 0 0 -.3 1.3z"/><path d="m1027.5 984.6-1.8 1.7z"/><path d="m1012 1000.2 13.7-13.9-13.2 13.3z"/><path d="m1028.1 983.9.9-.8h-.1z"/><path d="m1025.7 993.4v.1l1.8-1.8z"/><path d="m1027.5 991.7 2.7-2.8z"/><path d="m947.4 941.6a8.3 8.3 0 1 0 8.3 8.3 8.3 8.3 0 0 0 -8.3-8.3z"/><path d="m219.8 1370.8-9.4 16h44.6l-9.5-16z"/><path d="m244.7 1427.4a5.1 5.1 0 0 0 5 5h.1a5 5 0 0 0 4.9-5v-7.2h-10z"/><path d="m209.8 1427.4a5 5 0 0 0 5 5 5 5 0 0 0 5-5v-7.2h-10z"/><path d="m265.5 1392.9v21.2a6.1 6.1 0 0 1 -6.1 6.1h-4.7v-10a4.9 4.9 0 0 0 -1.8-3.8 4 4 0 0 0 -3.2-6.3 3.9 3.9 0 0 0 -3.2 6.3 4.9 4.9 0 0 0 -1.8 3.8v10h-24.9v-10a4.9 4.9 0 0 0 -2-4 4.7 4.7 0 0 0 .6-2.1 4 4 0 0 0 -4-4 3.9 3.9 0 0 0 -3.9 4 3.8 3.8 0 0 0 .9 2.5 4.8 4.8 0 0 0 -1.6 3.6v10h-3.2a6.1 6.1 0 0 1 -6.1-6.1v-21.2a6.2 6.2 0 0 1 4.6-5.9 7 7 0 0 0 .8 4.5 7.1 7.1 0 0 0 6.1 3.6h41.3a6.9 6.9 0 0 0 6.1-3.6 7.4 7.4 0 0 0 .9-4.6 6.1 6.1 0 0 1 5.2 6z"/><path d="m210.3 1387a2 2 0 0 0 0 2 2.1 2.1 0 0 0 1.7 1.1h41.3a2.1 2.1 0 0 0 1.8-1.1 2 2 0 0 0 0-2v-.2h-44.7z"/><path d="m254.7 1420.2h-10v-10a4.9 4.9 0 0 1 1.8-3.8 4 4 0 0 0 6.4 0 4.9 4.9 0 0 1 1.8 3.8z"/><path d="m219.8 1420.2h-10v-10a4.8 4.8 0 0 1 1.6-3.6 3.7 3.7 0 0 0 3 1.4 4 4 0 0 0 3.4-1.8 4.9 4.9 0 0 1 2 4z"/><path d="m210.4 1386.8 9.4-16h25.7l9.5 16h5.3a9.9 9.9 0 0 0 -.9-2.4l-11-18.7h-31.4l-11 18.7a6.3 6.3 0 0 0 -.9 2.5l1.5-.2z"/><path d="m205.9 1391.5a7.1 7.1 0 0 0 6.1 3.6h41.3a6.9 6.9 0 0 0 6.1-3.6 7.4 7.4 0 0 0 .9-4.6h-5.3v.2a2 2 0 0 1 0 2 2.1 2.1 0 0 1 -1.8 1.1h-41.2a2.1 2.1 0 0 1 -1.7-1.1 2 2 0 0 1 0-2v-.2h-3.8l-1.5.2a7 7 0 0 0 .9 4.4z"/><path d="m612.7 1430.8h-35.3a2.5 2.5 0 1 0 0 5h35.3a2.5 2.5 0 0 0 0-5z"/><path d="m623.7 1394.9a27 27 0 0 0 -27.1-26.9h-4.8a27 27 0 0 0 -26.9 27.1v23.9a5.6 5.6 0 0 0 5.6 5.5l47.7-.2a5.6 5.6 0 0 0 5.5-5.6zm-45.1 20.9a5.6 5.6 0 1 1 5.6-5.7 5.7 5.7 0 0 1 -5.6 5.7zm32.7-.2a5.7 5.7 0 0 1 -5.7-5.6 5.6 5.6 0 1 1 11.2 0 5.5 5.5 0 0 1 -5.5 5.6z"/><path d="m990.6 1386a2.5 2.5 0 0 1 1.3 3.2l-.6 1.2h2.5a9.8 9.8 0 0 0 6.7-3.8 8.5 8.5 0 0 0 1.8-6.7 9.8 9.8 0 0 0 -11-8.1 10.4 10.4 0 0 0 -6.8 3.8 9.3 9.3 0 0 0 -1.8 6.8 9.8 9.8 0 0 0 3.9 6.3l.7-1.5a2.5 2.5 0 0 1 3.3-1.2z"/><path d="m988.2 1393.8 1.4.7 1.7-4.1a11.1 11.1 0 0 1 -4.7-1.7l-1.8 4.3h.1a2.5 2.5 0 0 1 3.3.8z"/><path d="m981.5 1400.4-2.8 6.5a.9.9 0 0 0 -.1.5 2.4 2.4 0 0 1 2.8-.8l2.5 1 3.7-8.6-1.9-.9z"/><path d="m991.9 1389.2a2.5 2.5 0 0 0 -1.3-3.2 2.5 2.5 0 0 0 -3.3 1.2l-.7 1.5a11.1 11.1 0 0 0 4.7 1.7z"/><path d="m981 1410.4a1.8 1.8 0 0 1 -1-.2 2.4 2.4 0 0 1 -1.4-2.8 1 1 0 0 0 -.4.7 2.4 2.4 0 0 0 1.4 3.2l2.5.9 2-2.3a2.5 2.5 0 0 1 3.5-.3 2.3 2.3 0 0 1 .8 1.4 2.6 2.6 0 0 1 1.8-.9h1l-7.3-2.6-.6 1.3a2.4 2.4 0 0 1 -2.3 1.6z"/><path d="m987.1 1414.1.9.3-.1-1.3z"/><path d="m978.6 1407.4a2.4 2.4 0 0 0 1.4 2.8 1.8 1.8 0 0 0 1 .2 2.4 2.4 0 0 0 2.3-1.5l.6-1.3-2.5-1a2.4 2.4 0 0 0 -2.8.8z"/><path d="m990.4 1415.1a1.5 1.5 0 0 1 -.9-.2l-1.5-.5.6 12.3a2.5 2.5 0 0 0 2.5 2.3h.1a2.4 2.4 0 0 0 2.4-2.6l-.7-13.9a4.4 4.4 0 0 1 -.2 1 2.5 2.5 0 0 1 -2.3 1.6z"/><path d="m988.4 1411a2.3 2.3 0 0 1 -.5 2.1v1.3l1.5.5a1.5 1.5 0 0 0 .9.2 2.5 2.5 0 0 0 2.3-1.6 4.4 4.4 0 0 0 .2-1h-.1v-.7a.3.3 0 0 0 -.1-.2l-.2-.3-.3-.3-.4-.3h-.2l-.3-.2h-1a2.6 2.6 0 0 0 -1.8.5z"/><path d="m991.2 1410.3.3.2z"/><path d="m991.7 1410.5.4.3z"/><path d="m973.1 1423a2.5 2.5 0 0 0 1.9 4.1 2.5 2.5 0 0 0 1.9-.9l10.2-12.1-5-1.9z"/><path d="m987.9 1412.7a2.6 2.6 0 0 1 .5-1.7 2.3 2.3 0 0 0 -.8-1.4 2.5 2.5 0 0 0 -3.5.3l-2 2.3 5 1.9.8-1z"/><path d="m987.9 1413.1a2.3 2.3 0 0 0 .5-2.1 2.6 2.6 0 0 0 -.5 1.7z"/><path d="m994.5 1398.5 1-1.2-5.9-2.8-2 4.5 7 3.5 1.1.2h.7a2.7 2.7 0 0 1 -1.6-.6 2.5 2.5 0 0 1 -.3-3.6z"/><path d="m988.2 1393.8h.1a2.6 2.6 0 0 1 -1 3.4l-1.6.8 1.9.9 2-4.5z"/><path d="m998.8 1393.3-3.3 4 1.3.7a2.4 2.4 0 0 1 1.2 3.3 2.6 2.6 0 0 1 -1.6 1.3 2.5 2.5 0 0 0 2-.9l4.3-5.2a2.5 2.5 0 0 0 -3.9-3.2z"/><path d="m998 1401.3a2.4 2.4 0 0 0 -1.2-3.3l-1.3-.7-1 1.2a2.5 2.5 0 0 0 .3 3.5 2.7 2.7 0 0 0 1.6.6 2.6 2.6 0 0 0 1.6-1.3z"/><path d="m983.9 1394.5a1.6 1.6 0 0 1 .6-.8l.3-.7-13.5 7.4a2.4 2.4 0 0 0 -1 3.3 2.4 2.4 0 0 0 2.2 1.3 2.7 2.7 0 0 0 1.2-.3l7.8-4.3 2.1-4.8a2 2 0 0 1 .3-1.1z"/><path d="m987.2 1393.3 1 .5a2.5 2.5 0 0 0 -3.3-.9h-.1l-.3.7a2.4 2.4 0 0 1 2.7-.3z"/><path d="m985 1397.8a2.8 2.8 0 0 1 -1.4-2.2l-2.1 4.8 4.2-2.3z"/><path d="m983.9 1394.5a2 2 0 0 0 -.3 1.1l.9-1.9a1.6 1.6 0 0 0 -.6.8z"/><path d="m984.5 1393.7-.9 1.9a2.8 2.8 0 0 0 1.4 2.2l.7.3 1.6-.8a2.6 2.6 0 0 0 1-3.4h-.1l-1-.5a2.4 2.4 0 0 0 -2.7.3z"/><path d="m1422.2 1398.1.3-.5 1.4-1.3-3.7-3.7-1.7 1.8z"/><path d="m1422.5 1401.2a2.6 2.6 0 0 1 -.3-3.1l-3.7-3.7-1.8 1.7 5.1 5.2a2.6 2.6 0 0 0 1.8.7h.7a3.1 3.1 0 0 1 -1.8-.8z"/><path d="m1419.9 1380.4a6 6 0 1 1 6 6h-.1a2.4 2.4 0 0 1 -.7 1.3l-1 1 1.8.2a8.5 8.5 0 1 0 -8.5-8.5 8.3 8.3 0 0 0 2.2 5.7l1.8-1.7a6.4 6.4 0 0 1 -1.5-4z"/><path d="m1431.9 1380.4a6 6 0 0 0 -12 0 6.4 6.4 0 0 0 1.5 4l.2-.2a2.4 2.4 0 0 1 3.5 0 2.3 2.3 0 0 1 .7 2.2h.1a6 6 0 0 0 6-6z"/><path d="m1415.7 1395.1a2.5 2.5 0 0 1 3.5-3.5l1 1 3.9-3.9a8.3 8.3 0 0 1 -4.5-2.6l-14.1 14.2a1.5 1.5 0 0 0 -.6.9 2.5 2.5 0 0 1 1.8-.8h5.8l4.2-4.3z"/><path d="m1415.7 1391.6a2.4 2.4 0 0 0 0 3.5l1 1 1.8-1.7-1.1-1.1 1.1 1.1 1.7-1.8-1-1a2.4 2.4 0 0 0 -3.5 0z"/><path d="m1425.1 1387.7a2.4 2.4 0 0 0 .7-1.3 6.1 6.1 0 0 1 -4.4-2l-1.8 1.7a8.3 8.3 0 0 0 4.5 2.6z"/><path d="m1425.1 1384.2a2.4 2.4 0 0 0 -3.5 0l-.2.2a6.1 6.1 0 0 0 4.4 2 2.3 2.3 0 0 0 -.7-2.2z"/><path d="m1407.3 1404.5a2.4 2.4 0 0 1 -1.8-.7 2.5 2.5 0 0 1 -.6-2.6 2.4 2.4 0 0 0 -.7 1.7 2.5 2.5 0 0 0 2.5 2.5h8.7v-2a2.5 2.5 0 0 1 2.5-2.5 2.8 2.8 0 0 1 1.6.6 2.4 2.4 0 0 0 -2.1-1.1h-4.9l-3.5 3.4a2.3 2.3 0 0 1 -1.7.7z"/><path d="m1404.9 1401.2a2.5 2.5 0 0 0 .6 2.6 2.4 2.4 0 0 0 1.8.7 2.3 2.3 0 0 0 1.7-.7l3.5-3.4h-5.8a2.5 2.5 0 0 0 -1.8.8z"/><path d="m1417.4 1405.4h-2v11.1a2.5 2.5 0 0 0 5 0v-13.1a2.5 2.5 0 0 0 -.9-1.9 2.3 2.3 0 0 1 .4 1.4 2.5 2.5 0 0 1 -2.5 2.5z"/><path d="m1415.4 1403.4v2h2a2.5 2.5 0 0 0 2.5-2.5 2.3 2.3 0 0 0 -.4-1.4 2.8 2.8 0 0 0 -1.6-.6 2.5 2.5 0 0 0 -2.5 2.5z"/><path d="m1425.4 1401.3a2.7 2.7 0 0 1 -1 .6 2.8 2.8 0 0 0 1.7-.7l4-4.1a2.5 2.5 0 0 0 -3.5-3.5l-2.7 2.7 1.5 1.4a2.5 2.5 0 0 1 0 3.6z"/><path d="m1422.2 1398.1 1.4 1.4-1.4-1.4a2.6 2.6 0 0 0 .3 3.1 3.1 3.1 0 0 0 1.8.7h.1a2.7 2.7 0 0 0 1-.6 2.5 2.5 0 0 0 0-3.6l-1.5-1.4-1.4 1.3z"/><circle cx="1433.9" cy="1417.5" r="11.9"/><circle cx="1395.1" cy="1417.5" r="11.9"/><path d="m1801.4 1398.1h-5.1a15.2 15.2 0 0 0 -12.4-12.4v-5a20.2 20.2 0 0 1 17.5 17.4z"/><path d="m1801.4 1403.1a20.2 20.2 0 0 1 -17.5 17.4v-5a15.2 15.2 0 0 0 12.4-12.4z"/><path d="m1778.9 1415.5v5a20.2 20.2 0 0 1 -17.4-17.4h5.1a15.1 15.1 0 0 0 12.3 12.4z"/><path d="m1778.9 1380.7v5a15.1 15.1 0 0 0 -12.3 12.4h-5.1a20.2 20.2 0 0 1 17.4-17.4z"/><path d="m1783.9 1403.1v12.4l-2.5.2-2.5-.2v-12.4z"/><path d="m1783.9 1385.7v12.4h-5v-12.4l2.5-.2z"/><path d="m1778.9 1420.5v4.1a2.5 2.5 0 0 0 2.5 2.5 2.5 2.5 0 0 0 2.5-2.5v-4.1l-2.5.2z"/><path d="m1783.9 1380.7v-4.1a2.5 2.5 0 0 0 -2.5-2.5 2.5 2.5 0 0 0 -2.5 2.5v4.1l2.5-.2z"/><path d="m1781.4 1415.7-2.5-.2v5l2.5.2 2.5-.2v-5z"/><path d="m1781.4 1385.5 2.5.2v-5l-2.5-.2-2.5.2v5z"/><path d="m1805.2 1398.1h-3.8a20.1 20.1 0 0 1 .1 2.5 20.9 20.9 0 0 1 -.1 2.5h3.8a2.5 2.5 0 1 0 0-5z"/><path d="m1761.5 1398.1h-3.8a2.5 2.5 0 0 0 0 5h3.8a20.9 20.9 0 0 1 -.1-2.5 20.1 20.1 0 0 1 .1-2.5z"/><path d="m1796.5 1400.6a21.1 21.1 0 0 1 -.2 2.5h-12.4v-5h12.4a19.5 19.5 0 0 1 .2 2.5z"/><path d="m1778.9 1398.1v5h-12.3a10.6 10.6 0 0 1 -.2-2.5 10.1 10.1 0 0 1 .2-2.5z"/><path d="m1801.4 1398.1h-5.1a19.5 19.5 0 0 1 .2 2.5 21.1 21.1 0 0 1 -.2 2.5h5.1a20.9 20.9 0 0 0 .1-2.5 20.1 20.1 0 0 0 -.1-2.5z"/><path d="m1766.4 1400.6a10.1 10.1 0 0 1 .2-2.5h-5.1a20.1 20.1 0 0 0 -.1 2.5 20.9 20.9 0 0 0 .1 2.5h5.1a10.6 10.6 0 0 1 -.2-2.5z"/><path d="m1778.9 1398.1h5v5h-5z"/><path d="m241.4 1214.3v27.9l-8 8.2-7.7-8.2v-28.1a15 15 0 0 0 5 2.2v23.9l2.8 3 2.9-3v-23.8a14.8 14.8 0 0 0 5-2.1z"/><path d="m247.3 1203a13.7 13.7 0 0 1 -5.9 11.3 14.8 14.8 0 0 1 -5 2.1l-2.7.2a14.5 14.5 0 0 1 -3-.3 15 15 0 0 1 -5-2.2 13.7 13.7 0 1 1 21.6-11.1z"/><path d="m567.7 1210.2c2 1.4 6.5.6 11.7-1a62.1 62.1 0 0 1 8.7-20.2 30.2 30.2 0 0 0 -18.3 13.6 29.3 29.3 0 0 0 -2.9 6.5 2.9 2.9 0 0 0 .8 1.1z"/><path d="m585 1207.3 5.8-2.1c5-1.9 10.1-3.8 14.9-5.1a65.6 65.6 0 0 0 -6.5-11.8l-4.3-.2-1 1.5a57.3 57.3 0 0 0 -8.2 15.7 15.9 15.9 0 0 0 -.7 2z"/><path d="m618 1198.3a29.9 29.9 0 0 0 -6.9-5.8 35.8 35.8 0 0 0 -4.8-2.4 65.6 65.6 0 0 1 4.3 8.8 33 33 0 0 1 7.4-.6z"/><path d="m578.2 1219.5a40.3 40.3 0 0 1 .3-4.9 30.2 30.2 0 0 1 -7.8 1.3 11.2 11.2 0 0 1 -5-1.1 29.2 29.2 0 0 0 2.5 15.7c2.4.5 6.4-.3 11-1.7a41.4 41.4 0 0 1 -1-9.3z"/><path d="m571.1 1235.6a30.1 30.1 0 0 0 8.8 8.2 30.8 30.8 0 0 0 7.5 3.2 48.8 48.8 0 0 1 -6.9-13.4 43 43 0 0 1 -9.4 2z"/><path d="m594.1 1228.8-8.9 3.3a50.5 50.5 0 0 0 9.3 16 30.9 30.9 0 0 0 4.3-.1c6.4-7.7 10-16 10.9-24.6-5 1.4-10.6 3.5-15.6 5.4z"/><path d="m592.6 1209.8c-3.1 1.2-6.1 2.3-8.9 3.2a42.2 42.2 0 0 0 .2 14.2l8.5-3.1a182.6 182.6 0 0 1 17.5-6 47.7 47.7 0 0 0 -2.2-12.6 1.9 1.9 0 0 1 -.2-.7c-4.8 1.3-10 3.2-14.9 5z"/><path d="m622.2 1222.7c-1.5-1-4.2-1.1-7.5-.5a47.5 47.5 0 0 1 -8.3 23.9 29.5 29.5 0 0 0 14.7-12.4 28.8 28.8 0 0 0 2.8-5.9 2.8 2.8 0 0 1 -.1-.9c0-3.1-1.2-3.9-1.6-4.2z"/><path d="m625 1212.9v-.2a31.1 31.1 0 0 0 -2.6-7.8l-.4-.3c-2.2-1.5-5.6-1.6-9.6-1v.3a48.4 48.4 0 0 1 2.4 13.2c4.2-.6 7.7-.3 10.3 1.5l.4.3a43.6 43.6 0 0 0 -.3-5.1 2.9 2.9 0 0 1 -.2-.9z"/><path d="m1015.9 1232.8a20.8 20.8 0 0 0 -2.9-9.4c-2.2-3-17.4 0-20.6 7.9-.4.9.6 3.7.8 4.6a18.2 18.2 0 0 1 -15.2-5.8c-4.1-4.5-5.7-10.8-5.2-17.5a55.2 55.2 0 0 0 7.1 1c6.4 0 9.4-19.8 6.8-23-1.3-1.5-7.3-2.5-9.3-2.8h-1.4c-6.4 0-11.5 5.7-11.5 12.7a16.6 16.6 0 0 0 .3 3.2c-4.2 11.6-2.2 25.6 6.4 34.9s20 8.5 28 5.4a14.4 14.4 0 0 0 11.3.5c6-2.4 5.4-11.7 5.4-11.7zm-8.4 1.4a3.6 3.6 0 1 1 3.6-3.6 3.6 3.6 0 0 1 -3.6 3.6z"/></g><path d="m2097.7 200.7h-1.3a19.5 19.5 0 1 0 1.3.1zm-.8 28.4a10.2 10.2 0 1 1 10.2-10.2 10.2 10.2 0 0 1 -10.2 10.2z" fill="#08164c"/><path d="m2129.7 135.4h-68.5a33.5 33.5 0 0 0 -33.5 33.5v137.8h135.5v-137.8a33.5 33.5 0 0 0 -33.5-33.5zm16.3 89.5h-21.2a29.2 29.2 0 0 1 -22.4 22.6v21.5a5.3 5.3 0 0 1 -10.5 0v-21.3a29.1 29.1 0 0 1 -23.8-22.8h-20.2a5.2 5.2 0 0 1 0-10.4h20a29.1 29.1 0 0 1 24-24v-19.6a5.3 5.3 0 0 1 10.5 0v19.9a29 29 0 0 1 22.6 23.7h21a5.2 5.2 0 0 1 0 10.4z" fill="#08164c"/><path d="m2027.7 317.8v137.8a33.5 33.5 0 0 0 33.5 33.5h68.5a33.5 33.5 0 0 0 33.5-33.5v-137.8zm78.4 129.9h-5.8l-13.3-18.7v18.7h-5.9v-27.9h6.1l12.9 18.1v-18.1h6zm18.5-37.8-26.1-15.7a7 7 0 0 0 -7.1 0l-26 15.7a2.6 2.6 0 0 1 -3.5-3.5l14.1-24.4 16.8-29.1a2.5 2.5 0 0 1 4.4 0l16.8 29.1 14.1 24.4a2.6 2.6 0 0 1 -3.5 3.5z" fill="#08164c"/><path d="m2146 214.5h-21a29 29 0 0 0 -22.6-23.7v-19.9a5.3 5.3 0 0 0 -10.5 0v19.6a29.1 29.1 0 0 0 -24 24h-20a5.2 5.2 0 0 0 0 10.4h20.2a29.1 29.1 0 0 0 23.8 22.8v21.3a5.3 5.3 0 0 0 10.5 0v-21.5a29.2 29.2 0 0 0 22.4-22.6h21.2a5.2 5.2 0 0 0 0-10.4zm-49.5 23.1a18.5 18.5 0 0 1 -.1-37h1.3a18.5 18.5 0 0 1 -1.2 36.9z" fill="#fff"/><path d="m2096.9 208.7a10.2 10.2 0 1 0 10.2 10.2 10.2 10.2 0 0 0 -10.2-10.2z" fill="#ff397f"/><path d="m2065.4 409.9 26-15.7a7 7 0 0 1 7.1 0l26.1 15.7a2.6 2.6 0 0 0 3.5-3.5l-14.1-24.4-16.8-29.1a2.5 2.5 0 0 0 -4.4 0l-16.8 29.1-14.1 24.4a2.6 2.6 0 0 0 3.5 3.5z" fill="#ff397f"/><path d="m2100.1 437.9-12.9-18.1h-6.1v27.9h5.9v-18.7l13.3 18.7h5.8v-27.9h-6z" fill="#fff"/><path d="m1394.3 693.4a41.8 41.8 0 1 0 41.8 41.8 41.8 41.8 0 0 0 -41.8-41.8zm0 78.6a36.8 36.8 0 1 1 36.8-36.8 36.8 36.8 0 0 1 -36.8 36.8z" fill="#fff"/><path d="m1394.3 698.4a36.8 36.8 0 1 0 36.8 36.8 36.8 36.8 0 0 0 -36.8-36.8zm0 68.6a31.8 31.8 0 1 1 31.8-31.8 31.8 31.8 0 0 1 -31.8 31.8z" fill="#fff"/><path d="m1394.3 716.9a18.3 18.3 0 1 0 18.3 18.3 18.3 18.3 0 0 0 -18.3-18.3zm0 35.1a16.8 16.8 0 1 1 16.8-16.8 16.8 16.8 0 0 1 -16.8 16.8z" fill="#fff"/><circle cx="1394.3" cy="735.2" fill="#fff" r="16.8"/><path d="m1446.8 682.8-14 3.8-8.2 2.2a2.6 2.6 0 0 0 .1 5l10.3 2.3a2.5 2.5 0 0 1 1.9 2l2.1 9.7a2.6 2.6 0 0 0 5.1.1l2.1-7.9 3.8-14a2.6 2.6 0 0 0 -3.2-3.2z" fill="#fff"/><path d="m1768.7 780.2-6.6 3.4a3.2 3.2 0 0 1 -2.7 0l-5.8-3.2a2.9 2.9 0 0 0 -3.8 4l8.7 15.2a3.1 3.1 0 0 0 5.4 0l8.6-15.5a2.8 2.8 0 0 0 -3.8-3.9z" fill="#fff"/><path d="m1761.4 661.2c-31.4 0-57 25-57 55.7s25.6 55.7 57 55.7 57.1-25 57.1-55.7-25.6-55.7-57.1-55.7zm0 106.4c-28.7 0-52-22.7-52-50.7s23.3-50.7 52-50.7 52.1 22.7 52.1 50.7-23.3 50.7-52.1 50.7z" fill="#fff"/><path d="m1761.4 666.2c-28.7 0-52 22.7-52 50.7s23.3 50.7 52 50.7 52.1-22.7 52.1-50.7-23.3-50.7-52.1-50.7zm0 96.4c-25.9 0-47-20.5-47-45.7s21.1-45.7 47-45.7 47.1 20.5 47.1 45.7-21.1 45.7-47.1 45.7z" fill="#fff"/><circle cx="1761.4" cy="717.5" fill="#fff" r="32" transform="matrix(.09931975 -.99505557 .99505557 .09931975 873.8 2399.7)"/><path d="m2114.7 1384.4a14.3 14.3 0 0 0 -20.1 0l-.7.8a12.6 12.6 0 0 0 -2.1 3.2 14.8 14.8 0 0 0 -2.8-3.9c-.1-.1-.1-.2-.2-.2a14.4 14.4 0 0 0 -20.1 20.5l23 22.7 23-23a14.3 14.3 0 0 0 0-20.1zm-9.9 17.5a5.8 5.8 0 1 1 0-11.5 5.8 5.8 0 0 1 0 11.5z" fill="#fff"/></svg>