<svg xmlns="http://www.w3.org/2000/svg" width="1300" height="422" viewBox="0 0 1300 422"><path fill="#fff" d="M31.8 53.8a4 4 0 0 0 .7 2 4.2 4.2 0 0 0 3.5 1.3 5.3 5.3 0 0 0 2.6-.7 2.1 2.1 0 0 0 1.2-2 1.9 1.9 0 0 0-1-1.5 6.9 6.9 0 0 0-2.2-.7l-2.2-.6a11.2 11.2 0 0 1-3-1.1 3.4 3.4 0 0 1-1.7-2.9 4.4 4.4 0 0 1 1.6-3.6 6.3 6.3 0 0 1 4.4-1.4c2.4 0 4.1.7 5.2 2.1a4.1 4.1 0 0 1 .9 2.8h-2.5a2.5 2.5 0 0 0-.6-1.6 4.1 4.1 0 0 0-3.2-1 3.7 3.7 0 0 0-2.3.5 1.7 1.7 0 0 0-.8 1.5 1.9 1.9 0 0 0 1 1.7l1.8.6 1.7.4a11.5 11.5 0 0 1 3.9 1.4 3.5 3.5 0 0 1 1.6 3.1 5.1 5.1 0 0 1-1.7 3.7c-1 1-2.7 1.5-4.9 1.5s-4-.5-5-1.6a6.2 6.2 0 0 1-1.6-3.9zm21.8-4.6a1.4 1.4 0 0 0 1.2-.8c.2-.2.2-.5.2-1a2.4 2.4 0 0 0-.9-2 5.5 5.5 0 0 0-2.8-.6 3.3 3.3 0 0 0-2.9 1.2 3.8 3.8 0 0 0-.6 1.8h-2.5c.1-1.9.7-3.3 1.9-4a7.4 7.4 0 0 1 4.2-1.2 8.8 8.8 0 0 1 4.5 1.1 3.6 3.6 0 0 1 1.7 3.2V56c0 .3 0 .5.1.6a1 1 0 0 0 .8.3h.8v2l-.9.2h-.9a2.3 2.3 0 0 1-2-.9 5.4 5.4 0 0 1-.4-1.5 7.1 7.1 0 0 1-2.3 1.8 6.6 6.6 0 0 1-3.4.8 4.8 4.8 0 0 1-3.5-1.3 4.2 4.2 0 0 1-1.4-3.3 4.2 4.2 0 0 1 1.3-3.4 6.9 6.9 0 0 1 3.6-1.5zm-5.5 7.1a3.2 3.2 0 0 0 1.9.7 5 5 0 0 0 2.7-.7 3.6 3.6 0 0 0 2.2-3.5v-2.1a3.3 3.3 0 0 1-1.2.5 4 4 0 0 1-1.5.3l-1.6.2a4.8 4.8 0 0 0-2.1.6 2.3 2.3 0 0 0-1.3 2.2 2 2 0 0 0 .9 1.8zM61.9 43h2.5v2.2a6.4 6.4 0 0 1 2.4-2 6 6 0 0 1 2.7-.6q3.4 0 4.5 2.4a7 7 0 0 1 .7 3.6v10.1H72v-9.9a5 5 0 0 0-.4-2.3A2.6 2.6 0 0 0 69 45l-1.5.2a3.5 3.5 0 0 0-1.9 1.3 5.1 5.1 0 0 0-.9 1.6 12.5 12.5 0 0 0-.2 2.4v8.2h-2.6zm26.2-4.8c.7-.9 1.9-1.3 3.6-1.3h1.1v2.4h-.9q-1.2 0-1.5.6a17.3 17.3 0 0 0-.2 3.2h2.6v2h-2.6v13.6h-2.6V45.1h-2.2v-2h2.2v-2.5a4.8 4.8 0 0 1 .5-2.4zm7.2 4.8h2.5v2.7a5.5 5.5 0 0 1 1.5-1.9 3.9 3.9 0 0 1 2.8-1.2h.9v2.8h-.9a4.1 4.1 0 0 0-3.1 1.3 4.5 4.5 0 0 0-1 3v9h-2.7zm18.4 6.2a1.4 1.4 0 0 0 1.2-.8 2.5 2.5 0 0 0 .1-1 2.4 2.4 0 0 0-.9-2 5.5 5.5 0 0 0-2.8-.6 3.4 3.4 0 0 0-2.9 1.2 3.8 3.8 0 0 0-.6 1.8h-2.5c.1-1.9.7-3.3 1.9-4a7.4 7.4 0 0 1 4.2-1.2 8.8 8.8 0 0 1 4.5 1.1 3.6 3.6 0 0 1 1.7 3.2V56a.8.8 0 0 0 .2.6c.1.2.3.3.7.3h.9v2l-1 .2h-.9a2.1 2.1 0 0 1-1.9-.9 3.3 3.3 0 0 1-.5-1.5 7.5 7.5 0 0 1-5.6 2.6 4.8 4.8 0 0 1-3.6-1.3 4.5 4.5 0 0 1-1.4-3.3 4.3 4.3 0 0 1 1.4-3.4 6.6 6.6 0 0 1 3.5-1.5zm-5.6 7.1a3.5 3.5 0 0 0 2 .7 5.4 5.4 0 0 0 2.7-.7 3.7 3.7 0 0 0 2.2-3.5v-2.1l-1.3.5a4 4 0 0 1-1.5.3l-1.6.2a5.3 5.3 0 0 0-2.1.6 2.4 2.4 0 0 0-1.2 2.2 1.9 1.9 0 0 0 .8 1.8zM121.9 43h2.5v2.2a8.5 8.5 0 0 1 2.4-2 6.1 6.1 0 0 1 2.8-.6q3.3 0 4.5 2.4a8.4 8.4 0 0 1 .6 3.6v10.1H132v-9.9a5 5 0 0 0-.4-2.3 2.6 2.6 0 0 0-2.5-1.5l-1.6.2a3.8 3.8 0 0 0-1.9 1.3 3.5 3.5 0 0 0-.8 1.6 7.6 7.6 0 0 0-.2 2.4v8.2h-2.7zm27.1.8a6.3 6.3 0 0 1 2 4.5h-2.6a3.8 3.8 0 0 0-1.1-2.4 3 3 0 0 0-2.6-1 3.6 3.6 0 0 0-3.6 2.5 8.8 8.8 0 0 0-.7 3.9 7.2 7.2 0 0 0 1 4 3.5 3.5 0 0 0 3.1 1.6 3.8 3.8 0 0 0 2.6-1 5.6 5.6 0 0 0 1.3-2.8h2.6a6.9 6.9 0 0 1-2.2 4.6 6.7 6.7 0 0 1-4.5 1.4 5.9 5.9 0 0 1-4.9-2.2 8.8 8.8 0 0 1-1.9-5.6 9.4 9.4 0 0 1 2.1-6.5 6.5 6.5 0 0 1 5.1-2.3 7.3 7.3 0 0 1 4.3 1.3zm4.6-6.6h2.7v3h-2.7zm0 5.9h2.7v15.6h-2.7zm8.2 10.7a4 4 0 0 0 .7 2 4.5 4.5 0 0 0 3.5 1.3 6 6 0 0 0 2.7-.7 2.2 2.2 0 0 0 1.1-2 1.8 1.8 0 0 0-.9-1.5 7.8 7.8 0 0 0-2.3-.7l-2.1-.6a9 9 0 0 1-3-1.1 3.2 3.2 0 0 1-1.7-2.9 4.4 4.4 0 0 1 1.6-3.6 6 6 0 0 1 4.3-1.4c2.4 0 4.2.7 5.2 2.1a4.2 4.2 0 0 1 1 2.8h-2.5a3.1 3.1 0 0 0-.6-1.6 4.4 4.4 0 0 0-3.3-1 3.7 3.7 0 0 0-2.3.5 1.9 1.9 0 0 0-.8 1.5 2 2 0 0 0 1.1 1.7l1.7.6 1.8.4a13.6 13.6 0 0 1 3.9 1.4 3.4 3.4 0 0 1 1.5 3.1 5 5 0 0 1-1.6 3.7 7 7 0 0 1-4.9 1.5c-2.4 0-4-.5-5-1.6a6.2 6.2 0 0 1-1.6-3.9zm23.8-10c1.2.9 1.8 2.4 2 4.5h-2.5a4.5 4.5 0 0 0-1.1-2.4 3.1 3.1 0 0 0-2.7-1 3.6 3.6 0 0 0-3.6 2.5 10.5 10.5 0 0 0-.7 3.9 8.2 8.2 0 0 0 1 4 3.6 3.6 0 0 0 3.2 1.6 4 4 0 0 0 2.6-1 6.6 6.6 0 0 0 1.3-2.8h2.5a6.9 6.9 0 0 1-2.2 4.6 6.4 6.4 0 0 1-4.5 1.4 6.1 6.1 0 0 1-4.9-2.2 8.7 8.7 0 0 1-1.8-5.6 9.9 9.9 0 0 1 2-6.5 6.8 6.8 0 0 1 5.1-2.3 7.1 7.1 0 0 1 4.3 1.3zm16 .8c1.4 1.3 2.1 3.3 2.1 5.9a10.7 10.7 0 0 1-1.8 6.3q-1.8 2.4-5.7 2.4a6.6 6.6 0 0 1-5.1-2.1 8.7 8.7 0 0 1-1.9-5.9 9.3 9.3 0 0 1 2-6.3 7.1 7.1 0 0 1 10.4-.3zM200 55a9.2 9.2 0 0 0 1-4.4 8.8 8.8 0 0 0-.7-3.6 4.1 4.1 0 0 0-3.8-2.2 3.8 3.8 0 0 0-3.5 1.9 8.7 8.7 0 0 0-1.1 4.4 7.7 7.7 0 0 0 1.1 4.2 3.9 3.9 0 0 0 3.5 1.7 3.5 3.5 0 0 0 3.5-2zM73 115.8a14.7 14.7 0 0 1 6.6 5.2 13.2 13.2 0 0 1 2.7 6.1 79.3 79.3 0 0 1 .5 10.3v31.3H68.6v-32.4a14.3 14.3 0 0 0-1.5-7c-1.2-2.4-3.6-3.7-7.2-3.7s-6.4 1.2-8.3 3.7-2.8 6-2.8 10.5v28.9H34.9V97h13.9v25.3a16.9 16.9 0 0 1 7-6.4 19.8 19.8 0 0 1 8.3-1.9 21.1 21.1 0 0 1 8.9 1.8zm57.5.7a21.3 21.3 0 0 1 9.2 7.9 26.7 26.7 0 0 1 4.3 11 63.5 63.5 0 0 1 .4 10.6h-38.7c.2 5.3 2 9.1 5.5 11.2a14.7 14.7 0 0 0 7.7 2 11.6 11.6 0 0 0 7.7-2.4 11.1 11.1 0 0 0 2.9-3.7h14.2q-.6 4.8-5.1 9.6-7.2 7.8-20.1 7.8a28.7 28.7 0 0 1-18.7-6.6q-8.1-6.5-8.1-21.3c0-9.2 2.4-16.3 7.3-21.2s11.2-7.4 19-7.4a31 31 0 0 1 12.5 2.5zm-20.8 12.1a14.5 14.5 0 0 0-3.7 8.2h24c-.3-3.7-1.5-6.5-3.7-8.4a12.3 12.3 0 0 0-8.3-2.9c-3.5 0-6.3 1-8.3 3.1zm62.9 7.7a20.8 20.8 0 0 0 5.5-1.2c2-.9 3-2.2 3-4a4.8 4.8 0 0 0-2.3-4.5 14.9 14.9 0 0 0-6.7-1.2c-3.4 0-5.7.8-7.1 2.4a9.6 9.6 0 0 0-2 4.9h-13.4a20.5 20.5 0 0 1 3.9-11.5c3.7-4.7 10-7 19-7a32.6 32.6 0 0 1 15.6 3.5c4.6 2.3 6.8 6.6 6.8 13v24.5c0 1.6.1 3.7.1 6.1a7 7 0 0 0 .9 3.7 4.1 4.1 0 0 0 2 1.6v2.1h-15.1a24.3 24.3 0 0 1-.9-3 29.8 29.8 0 0 1-.4-3.3 29.4 29.4 0 0 1-6.7 5.4 20.3 20.3 0 0 1-10.2 2.5c-4.8 0-8.8-1.3-12-4.1s-4.7-6.6-4.7-11.7 2.5-11.3 7.6-14.2c2.8-1.6 6.9-2.7 12.3-3.4zm8.5 6.5a11.1 11.1 0 0 1-2.7 1.3 18.5 18.5 0 0 1-3.8 1l-3.1.6a18.8 18.8 0 0 0-6.4 1.9 6.3 6.3 0 0 0-3.3 5.9c0 2.4.6 4.1 2 5.1a7.4 7.4 0 0 0 4.9 1.6 14.4 14.4 0 0 0 8.4-2.6c2.5-1.8 3.9-5 4-9.6zm54.2-26.5a16.4 16.4 0 0 1 6.1 5.9V96.8h14.1v71.9H242v-7.4a18.7 18.7 0 0 1-6.8 6.9 19.4 19.4 0 0 1-9.5 2.1c-6.2 0-11.4-2.5-15.7-7.5s-6.3-11.5-6.3-19.4 2.1-16.2 6.2-21.4 9.8-7.8 16.8-7.8a17.4 17.4 0 0 1 8.6 2.1zm3.4 37.9c2.1-2.9 3.1-6.7 3.1-11.3 0-6.6-1.6-11.2-4.9-14a10.7 10.7 0 0 0-7.1-2.6 9.8 9.8 0 0 0-8.9 4.7 21.2 21.2 0 0 0-2.9 11.4c0 4.9 1 8.9 2.9 11.8s4.9 4.4 8.8 4.4 7-1.4 9-4.4zm43.8-45.1h-14.1V96.3h14.1zm-14.1 6.4h14.1v53.2h-14.1zm70.5 3c3.5 2.9 5.2 7.7 5.2 14.3v35.9h-14.3v-32.4c0-2.8-.3-4.9-1.1-6.4s-3.9-4.1-7.7-4.1-7.9 2-9.7 6a20.8 20.8 0 0 0-1.3 8.1v28.8h-13.9v-53.1h13.4v7.7a24.2 24.2 0 0 1 5.1-5.9 17.7 17.7 0 0 1 10.8-3.2c5.5 0 10 1.4 13.5 4.3zm44.5-3.1a16.9 16.9 0 0 1 8.2 7.7v-7.6h13.5v50.4c0 6.9-1.1 12.1-3.4 15.6-4 6-11.6 9-22.9 9-6.8 0-12.3-1.4-16.6-4a15.1 15.1 0 0 1-7.2-12h15.2a6.2 6.2 0 0 0 1.9 3.5c1.5 1.3 4 1.9 7.5 1.9 5.1 0 8.4-1.7 10.1-5s1.7-5.8 1.7-10.9v-3.4a19.5 19.5 0 0 1-4.3 5.2c-2.8 2.1-6.4 3.1-10.8 3.1-6.9 0-12.3-2.4-16.4-7.2s-6.1-11.3-6.1-19.5 1.9-14.5 5.9-19.9 9.5-8.1 16.7-8.1a18.6 18.6 0 0 1 7 1.2zm4.7 38.2c2.2-2.5 3.4-6.4 3.4-11.8s-1.1-8.9-3.2-11.5a10.6 10.6 0 0 0-8.6-4c-4.8 0-8.2 2.3-10 6.9a24.4 24.4 0 0 0-1.5 9.1 19.4 19.4 0 0 0 1.6 8.2c1.9 4.5 5.2 6.8 10.1 6.8a10.9 10.9 0 0 0 8.2-3.7zm102.2 8.6c-4.5 5.5-11.3 8.3-20.5 8.3s-15.9-2.8-20.4-8.3a32.8 32.8 0 0 1 0-40q6.8-8.4 20.4-8.4c9.2 0 16 2.8 20.5 8.4a30.9 30.9 0 0 1 6.7 19.9c0 7.9-2.2 14.5-6.7 20.1zm-11.1-7.7c2.1-2.9 3.2-7 3.2-12.4s-1.1-9.4-3.2-12.3a12.4 12.4 0 0 0-18.8 0q-3.3 4.3-3.3 12.3c0 5.4 1.1 9.5 3.3 12.4s5.3 4.3 9.4 4.3 7.2-1.4 9.4-4.3zm70.7-36c3.5 2.9 5.2 7.7 5.2 14.3v35.9h-14.2v-32.4a15.3 15.3 0 0 0-1.1-6.4c-1.4-2.8-4-4.1-7.8-4.1s-7.9 2-9.6 6a20.7 20.7 0 0 0-1.4 8.1v28.8h-13.9v-53.1h13.5v7.7a22.2 22.2 0 0 1 5-5.9 18.1 18.1 0 0 1 10.9-3.2c5.4 0 9.9 1.4 13.4 4.3zm52.9-2a22.5 22.5 0 0 1 9.2 7.9 28.1 28.1 0 0 1 4.2 11 73.8 73.8 0 0 1 .5 10.6h-38.8c.2 5.3 2.1 9.1 5.6 11.2a14.1 14.1 0 0 0 7.6 2 12.1 12.1 0 0 0 7.8-2.4 12.4 12.4 0 0 0 2.8-3.7h14.2c-.3 3.2-2.1 6.4-5.1 9.6q-7.2 7.8-20.1 7.8a28.9 28.9 0 0 1-18.7-6.6q-8.1-6.5-8.1-21.3c0-9.2 2.4-16.3 7.3-21.2s11.2-7.4 19-7.4a31.8 31.8 0 0 1 12.6 2.5zm-20.9 12.1a14.5 14.5 0 0 0-3.7 8.2h24a11.4 11.4 0 0 0-3.7-8.4 12.3 12.3 0 0 0-8.3-2.9c-3.5 0-6.3 1-8.3 3.1zM33.4 211.1h7.1v21.4a16.6 16.6 0 0 1 4.5-4.4 14.8 14.8 0 0 1 8.4-2.3c6.1 0 10.2 2.2 12.4 6.4 1.2 2.3 1.7 5.5 1.7 9.6v26.9h-7.2v-26.4c0-3.1-.4-5.3-1.2-6.7s-3.6-3.5-7.1-3.5a12.1 12.1 0 0 0-8 3c-2.3 2-3.5 5.8-3.5 11.4v22.2h-7.1zm70.4 16.9a16.8 16.8 0 0 1 6.3 5.4 19.3 19.3 0 0 1 2.8 7.4 50 50 0 0 1 .6 9.2H83.1c.1 4.3 1.1 7.7 3 10.3s4.7 3.8 8.6 3.8a11 11 0 0 0 8.7-3.6 13.7 13.7 0 0 0 2.6-4.9h6.9a15.7 15.7 0 0 1-1.8 5.1 19 19 0 0 1-3.4 4.6 16 16 0 0 1-7.9 4.2 20.2 20.2 0 0 1-5.7.7 17.5 17.5 0 0 1-13.2-5.7q-5.4-5.7-5.4-15.9c0-6.8 1.9-12.2 5.5-16.4a17.7 17.7 0 0 1 14.2-6.3 19.1 19.1 0 0 1 8.6 2.1zm2.5 16.4a19.3 19.3 0 0 0-2-7.3q-2.8-5.1-9.6-5.1a10.6 10.6 0 0 0-8 3.5 13.7 13.7 0 0 0-3.5 8.9zm38.5-1a3.8 3.8 0 0 0 3.3-2.1 6.2 6.2 0 0 0 .5-2.7 5.7 5.7 0 0 0-2.6-5.2c-1.7-1.1-4.1-1.6-7.3-1.6s-6.3 1-7.8 3a9.7 9.7 0 0 0-1.7 4.9h-6.5c.1-5.2 1.8-8.8 5-10.8a19.7 19.7 0 0 1 11.1-3.1c5 0 9 1 12 2.8s4.6 4.8 4.6 8.8v24.1a3.4 3.4 0 0 0 .4 1.8 2.4 2.4 0 0 0 1.9.6h1.1l1.2-.2v5.2l-2.5.6h-2.3a5.9 5.9 0 0 1-5.3-2.6 9 9 0 0 1-1.2-3.9 17.5 17.5 0 0 1-6.2 4.9 18.4 18.4 0 0 1-8.8 2.1 13.2 13.2 0 0 1-9.5-3.5 11.7 11.7 0 0 1-3.7-8.9q0-5.8 3.6-9a17.5 17.5 0 0 1 9.5-3.9zm-14.8 19a8.8 8.8 0 0 0 5.3 1.7 16.5 16.5 0 0 0 7.2-1.7 9.7 9.7 0 0 0 5.9-9.3v-5.7a12 12 0 0 1-3.4 1.4 27 27 0 0 1-3.9.8l-4.3.5a18.8 18.8 0 0 0-5.7 1.6 6.2 6.2 0 0 0-3.3 5.9 6.1 6.1 0 0 0 2.2 4.8zm59.9-34.3a19.7 19.7 0 0 1 4.2 4.1v-21.1h6.8v57.6h-6.3v-5.8a15.9 15.9 0 0 1-5.8 5.5 16.2 16.2 0 0 1-7.7 1.8c-4.6 0-8.7-2-12.1-5.9s-5.1-9.1-5.1-15.7a27 27 0 0 1 4.7-15.8c3.1-4.5 7.5-6.7 13.3-6.7a15.3 15.3 0 0 1 8 2zm-15.7 31.4c1.9 3 4.9 4.5 9.1 4.5a9.7 9.7 0 0 0 8-4.2c2.1-2.8 3.1-6.8 3.1-12s-1.1-9.2-3.2-11.8a10.6 10.6 0 0 0-16.5.3q-3.3 4-3.3 12a20.7 20.7 0 0 0 2.8 11.2zm37.2-48.2h7.2v8h-7.2zm0 15.7h7.2v41.7h-7.2zm17.8-.2h6.7v6a17.8 17.8 0 0 1 6.2-5.3 16.7 16.7 0 0 1 7.4-1.6c6 0 10 2.1 12.1 6.2 1.1 2.3 1.7 5.5 1.7 9.7v26.9h-7.2v-26.4a14.1 14.1 0 0 0-1.1-6.2c-1.2-2.6-3.5-3.9-6.8-3.9a15.3 15.3 0 0 0-4.1.5 11.5 11.5 0 0 0-5.1 3.5 12 12 0 0 0-2.3 4.3 31.7 31.7 0 0 0-.5 6.3v21.9h-7zm67.7 1.7a19.1 19.1 0 0 1 4.1 4v-5.3h6.5v38.1q0 7.9-2.4 12.6c-2.9 5.6-8.4 8.5-16.4 8.5a19.8 19.8 0 0 1-11.4-3.1c-3-2-4.7-5.1-5.1-9.4h7.1a7.6 7.6 0 0 0 2.1 4.3c1.5 1.6 4 2.4 7.4 2.4q8.1 0 10.5-5.7c1-2.3 1.5-6.3 1.4-12a13.4 13.4 0 0 1-5.1 4.7c-1.9 1.1-4.5 1.6-7.8 1.6a16.6 16.6 0 0 1-11.8-4.8c-3.4-3.3-5.1-8.6-5.1-16s1.7-12.5 5.1-16.4a15.9 15.9 0 0 1 12.4-5.9 15.1 15.1 0 0 1 8.5 2.4zm.9 7.6a10.1 10.1 0 0 0-8.1-3.8c-5 0-8.3 2.3-10.1 7a26 26 0 0 0-1.5 9.7c0 4.7 1 8.3 2.9 10.8a9.2 9.2 0 0 0 7.7 3.6 10.7 10.7 0 0 0 10.6-6.8 22.9 22.9 0 0 0 1.7-9c0-5.2-1.1-9-3.2-11.5zm44-20.9h7.1v11.6h6.7v5.8h-6.7v27.3a2.9 2.9 0 0 0 1.5 2.9 5.6 5.6 0 0 0 2.7.5h2.5v5.6l-2.5.5h-2.9c-3.2 0-5.5-.8-6.6-2.5a10.9 10.9 0 0 1-1.8-6.5v-27.8h-5.7v-5.8h5.7zm24.1 11.6l8 33 8.2-33h7.9l8.2 32.8 8.5-32.8h7.1l-12.2 41.9h-7.3l-8.5-32.4-8.2 32.4h-7.3l-12.1-41.9zm84.8 4.2c3.7 3.6 5.5 8.9 5.5 15.9s-1.6 12.3-4.8 16.7-8.4 6.6-15.2 6.6-10.3-2-13.6-5.9-5.1-9.1-5.1-15.6 1.8-12.7 5.4-16.8 8.3-6.3 14.2-6.3a18.7 18.7 0 0 1 13.6 5.4zm-4.4 27.8a26.4 26.4 0 0 0 2.6-11.7 22.2 22.2 0 0 0-1.8-9.6q-3-5.7-10.2-5.7c-4.2 0-7.3 1.6-9.2 4.9a22.2 22.2 0 0 0-2.9 11.8c0 4.5.9 8.2 2.9 11.2s5 4.4 9.2 4.4 7.7-1.8 9.4-5.3zM31.5 302.7h4.4v13.4a12.2 12.2 0 0 1 2.8-2.8 9.7 9.7 0 0 1 5.3-1.4c3.8 0 6.4 1.3 7.7 4a12.4 12.4 0 0 1 1.1 6v16.8h-4.5v-16.5a9.1 9.1 0 0 0-.7-4.2c-.8-1.5-2.3-2.2-4.5-2.2a8 8 0 0 0-5 1.9c-1.5 1.3-2.2 3.6-2.2 7.1v13.9h-4.4zm44 10.6a9.8 9.8 0 0 1 3.9 3.3 12.3 12.3 0 0 1 1.8 4.6 38 38 0 0 1 .4 5.8H62.5a11 11 0 0 0 1.9 6.4 6.3 6.3 0 0 0 5.4 2.4 6.8 6.8 0 0 0 5.5-2.3 9.6 9.6 0 0 0 1.6-3h4.3a10.1 10.1 0 0 1-1.1 3.2 13.8 13.8 0 0 1-2.2 2.9 9.7 9.7 0 0 1-4.9 2.6 13.7 13.7 0 0 1-3.6.4 11 11 0 0 1-8.2-3.5c-2.3-2.4-3.4-5.7-3.4-10a15.3 15.3 0 0 1 3.4-10.2 11.3 11.3 0 0 1 8.9-4 12.1 12.1 0 0 1 5.4 1.4zm1.5 10.2a10.5 10.5 0 0 0-1.2-4.5c-1.2-2.2-3.2-3.2-6-3.2a6.3 6.3 0 0 0-5 2.2 8.1 8.1 0 0 0-2.2 5.5zm24.1-.6a2.9 2.9 0 0 0 2.1-1.3 4 4 0 0 0 .3-1.7 3.8 3.8 0 0 0-1.6-3.3 8.5 8.5 0 0 0-4.6-1c-2.3 0-3.9.6-4.9 1.9a5.9 5.9 0 0 0-1 3h-4.1c0-3.2 1.1-5.4 3.1-6.7a12.5 12.5 0 0 1 7-1.9 13.9 13.9 0 0 1 7.5 1.8 5.8 5.8 0 0 1 2.8 5.4v15.1a2 2 0 0 0 .3 1.1c.2.3.6.4 1.2.4h1.4v3.2l-1.5.4h-1.5a3.6 3.6 0 0 1-3.3-1.6 5.6 5.6 0 0 1-.8-2.4 10.1 10.1 0 0 1-3.8 3.1 12.7 12.7 0 0 1-5.5 1.3 8.5 8.5 0 0 1-6-2.2 7.7 7.7 0 0 1-2.3-5.6 7.1 7.1 0 0 1 2.3-5.6 11 11 0 0 1 5.9-2.5zm-9.2 11.8a4.7 4.7 0 0 0 3.3 1.1 10.5 10.5 0 0 0 4.5-1 6.2 6.2 0 0 0 3.6-5.9v-3.5a7.6 7.6 0 0 1-2 .8 12.3 12.3 0 0 1-2.5.5l-2.7.4a9.2 9.2 0 0 0-3.6 1 3.9 3.9 0 0 0-2 3.6 3.6 3.6 0 0 0 1.4 3zm37.4-21.4a10.6 10.6 0 0 1 2.6 2.6v-13.2h4.3v36h-4V335a8.6 8.6 0 0 1-3.6 3.5 10 10 0 0 1-12.3-2.6c-2.2-2.4-3.2-5.7-3.2-9.7a16.1 16.1 0 0 1 2.9-9.9 9.4 9.4 0 0 1 8.3-4.2 9.7 9.7 0 0 1 5 1.2zm-9.8 19.6a6.3 6.3 0 0 0 5.7 2.9 6.1 6.1 0 0 0 5-2.6c1.3-1.8 1.9-4.3 1.9-7.6s-.7-5.7-2-7.3a6.2 6.2 0 0 0-5-2.4 6.6 6.6 0 0 0-5.3 2.5q-2.1 2.6-2.1 7.5a12.5 12.5 0 0 0 1.8 7zm23.2-30.1h4.5v5h-4.5zm0 9.9h4.5v26h-4.5zm11.1-.2h4.2v3.7a14.3 14.3 0 0 1 3.9-3.3 12 12 0 0 1 4.7-1q5.6 0 7.5 3.9a14.1 14.1 0 0 1 1.1 6.1v16.8h-4.5v-16.5a8.8 8.8 0 0 0-.7-3.9 4.4 4.4 0 0 0-4.3-2.4 8.5 8.5 0 0 0-2.5.3 6.9 6.9 0 0 0-3.2 2.2 6 6 0 0 0-1.4 2.6 14.5 14.5 0 0 0-.4 4v13.7h-4.4zm42.4 1.1a11.8 11.8 0 0 1 2.5 2.5v-3.3h4.1v23.8a16.9 16.9 0 0 1-1.5 7.8c-1.8 3.6-5.2 5.3-10.3 5.3a12.3 12.3 0 0 1-7.1-1.9c-1.9-1.2-2.9-3.2-3.2-5.9h4.5a4.3 4.3 0 0 0 1.3 2.7c.9 1 2.5 1.5 4.6 1.5s5.6-1.2 6.6-3.6.9-3.9.8-7.5a7.4 7.4 0 0 1-3.1 3 9.9 9.9 0 0 1-4.9 1 10.4 10.4 0 0 1-7.4-3c-2.1-2-3.2-5.4-3.2-10s1.1-7.8 3.2-10.2a9.7 9.7 0 0 1 7.7-3.7 9.5 9.5 0 0 1 5.4 1.5zm.5 4.7a6.2 6.2 0 0 0-5.1-2.3 6.3 6.3 0 0 0-6.3 4.3 17.1 17.1 0 0 0-.9 6.1c0 2.9.6 5.2 1.8 6.7a5.9 5.9 0 0 0 4.8 2.3 6.5 6.5 0 0 0 6.6-4.3 12.5 12.5 0 0 0 1.1-5.6c0-3.2-.6-5.6-2-7.2zm27.5-13.1h4.5v7.3h4.1v3.6h-4.1v17.1a1.8 1.8 0 0 0 .9 1.8 3.4 3.4 0 0 0 1.7.3h1.5v3.5l-1.5.3h-1.8c-2 0-3.4-.5-4.2-1.6a7.1 7.1 0 0 1-1.1-4.1v-17.3h-3.5v-3.6h3.5zm13-2.5h4.4v13.4a14.5 14.5 0 0 1 2.8-2.8 10 10 0 0 1 5.3-1.4c3.8 0 6.4 1.3 7.8 4a13.7 13.7 0 0 1 1.1 6v16.8H254v-16.5a9.1 9.1 0 0 0-.7-4.2c-.8-1.5-2.3-2.2-4.5-2.2a7.5 7.5 0 0 0-4.9 1.9c-1.5 1.3-2.3 3.6-2.3 7.1v13.9h-4.4zm28 9.8h4.1v4.6a10.7 10.7 0 0 1 2.6-3.3 6.6 6.6 0 0 1 4.6-1.9h1.4v4.6h-1.4a6.4 6.4 0 0 0-5.2 2.1 7.9 7.9 0 0 0-1.7 4.9v15.1h-4.4zm32.7.8a9.8 9.8 0 0 1 3.9 3.3 12.3 12.3 0 0 1 1.8 4.6 41 41 0 0 1 .3 5.8h-19a11 11 0 0 0 1.9 6.4 6.3 6.3 0 0 0 5.4 2.4 6.5 6.5 0 0 0 5.4-2.3 8.1 8.1 0 0 0 1.7-3h4.3a8.5 8.5 0 0 1-1.2 3.2 10.8 10.8 0 0 1-2.1 2.9 9.7 9.7 0 0 1-4.9 2.6 13.7 13.7 0 0 1-3.6.4 11 11 0 0 1-8.2-3.5c-2.3-2.4-3.4-5.7-3.4-10s1.1-7.6 3.4-10.2a11.3 11.3 0 0 1 8.9-4 12.1 12.1 0 0 1 5.4 1.4zm1.5 10.2a12.2 12.2 0 0 0-1.2-4.5c-1.2-2.2-3.2-3.2-6-3.2a6.3 6.3 0 0 0-5 2.2 8.1 8.1 0 0 0-2.2 5.5zm26.3-10.2a9.8 9.8 0 0 1 3.9 3.3 12.3 12.3 0 0 1 1.8 4.6 41 41 0 0 1 .3 5.8h-19a11 11 0 0 0 1.9 6.4 6.3 6.3 0 0 0 5.4 2.4 6.5 6.5 0 0 0 5.4-2.3 8.1 8.1 0 0 0 1.7-3h4.3a8.5 8.5 0 0 1-1.2 3.2 10.8 10.8 0 0 1-2.1 2.9 9.7 9.7 0 0 1-4.9 2.6 13.7 13.7 0 0 1-3.6.4 11 11 0 0 1-8.2-3.5c-2.3-2.4-3.4-5.7-3.4-10s1.1-7.6 3.4-10.2a11.3 11.3 0 0 1 8.9-4 12.1 12.1 0 0 1 5.4 1.4zm1.5 10.2a10.5 10.5 0 0 0-1.2-4.5c-1.2-2.2-3.2-3.2-6-3.2a6.3 6.3 0 0 0-5 2.2 8.1 8.1 0 0 0-2.2 5.5zM30.6 359.9H34v10.4a8.3 8.3 0 0 1 2.7-2.3 8.5 8.5 0 0 1 3.5-.8 8.1 8.1 0 0 1 6.4 2.7c1.6 1.8 2.4 4.4 2.4 7.9a13.8 13.8 0 0 1-2.4 8.3 7.7 7.7 0 0 1-6.7 3.2 6.7 6.7 0 0 1-4-1.1 15.2 15.2 0 0 1-2.1-2.2v2.7h-3.2zM44 384a10.7 10.7 0 0 0 1.4-6 9.6 9.6 0 0 0-1.4-5.5 4.6 4.6 0 0 0-4.2-2.1 6.1 6.1 0 0 0-4.2 1.7c-1.2 1.2-1.8 3.2-1.8 5.9a12.8 12.8 0 0 0 .7 4.8 5.2 5.2 0 0 0 5.2 3.4A4.7 4.7 0 0 0 44 384zm24.3-14.1c1.8 1.7 2.7 4.4 2.7 7.9a13.8 13.8 0 0 1-2.4 8.3c-1.6 2.2-4.2 3.3-7.6 3.3a8.4 8.4 0 0 1-6.8-2.9c-1.7-1.9-2.5-4.5-2.5-7.8a13 13 0 0 1 2.6-8.4 9 9 0 0 1 7.2-3.1 9.6 9.6 0 0 1 6.8 2.7zm-2.2 13.9a14.5 14.5 0 0 0 1.3-5.9 9.5 9.5 0 0 0-1-4.8 5.1 5.1 0 0 0-5-2.9 5.1 5.1 0 0 0-4.7 2.5 12 12 0 0 0-1.4 5.9 10.8 10.8 0 0 0 1.4 5.6 5.1 5.1 0 0 0 4.6 2.2 5 5 0 0 0 4.8-2.6zm20.7-15.4a8.4 8.4 0 0 1 2.2 2.1v-10.6h3.3v28.8h-3.1v-2.9a7.7 7.7 0 0 1-2.9 2.8 9.3 9.3 0 0 1-3.9.8 7.9 7.9 0 0 1-6-2.9 11.6 11.6 0 0 1-2.5-7.8 13.5 13.5 0 0 1 2.3-8 7.6 7.6 0 0 1 6.6-3.3 7 7 0 0 1 4 1zM79 384.1a5 5 0 0 0 4.5 2.3 4.6 4.6 0 0 0 4-2.1c1.1-1.4 1.6-3.5 1.6-6.1s-.5-4.6-1.6-5.8a5 5 0 0 0-4-1.9 5.1 5.1 0 0 0-4.3 2c-1.1 1.3-1.6 3.3-1.6 6a10.8 10.8 0 0 0 1.4 5.6zm31.7-16.3h3.9l-3.3 9.1-3.2 8.8c-2.1 5.4-3.5 8.6-4.3 9.8a5 5 0 0 1-4.3 1.8h-1.2l-1-.2v-3.2l1.4.3h.7a2.6 2.6 0 0 0 1.4-.4 2 2 0 0 0 .8-.8 9.9 9.9 0 0 0 .7-1.6l.9-2.1-7.8-21.5h4l5.6 17z"/></svg>