<svg id="Layer_1" data-name="Layer 1" xmlns="http://www.w3.org/2000/svg" width="1070" height="422" viewBox="0 0 1070 422"><title>makinthru-type</title><path d="M81.8,61.8a4,4,0,0,0,.7,2A4.2,4.2,0,0,0,86,65.1a5.3,5.3,0,0,0,2.6-.7,2.1,2.1,0,0,0,1.2-2,1.8,1.8,0,0,0-.9-1.5,9.1,9.1,0,0,0-2.3-.7l-2.2-.6a11.2,11.2,0,0,1-3-1.1,3.4,3.4,0,0,1-1.7-2.9A4.4,4.4,0,0,1,81.3,52a6.3,6.3,0,0,1,4.4-1.4c2.4,0,4.1.7,5.2,2.1a4.1,4.1,0,0,1,.9,2.8H89.4a3.3,3.3,0,0,0-.7-1.6,4.1,4.1,0,0,0-3.2-1,3.7,3.7,0,0,0-2.3.5,1.7,1.7,0,0,0-.8,1.5,1.9,1.9,0,0,0,1,1.7l1.8.6,1.7.4A11.5,11.5,0,0,1,90.8,59a3.3,3.3,0,0,1,1.6,3.1,5.4,5.4,0,0,1-1.6,3.7,7,7,0,0,1-4.9,1.5c-2.4,0-4.1-.5-5.1-1.6a6.1,6.1,0,0,1-1.5-3.9Z" fill="#fff"/><path d="M103.6,57.2a1.4,1.4,0,0,0,1.2-.8c.2-.2.2-.5.2-1a2.4,2.4,0,0,0-.9-2,5.5,5.5,0,0,0-2.8-.6A3.4,3.4,0,0,0,98.4,54a3.8,3.8,0,0,0-.6,1.8H95.3c.1-1.9.7-3.3,1.9-4a7.4,7.4,0,0,1,4.2-1.2,8.8,8.8,0,0,1,4.5,1.1,3.6,3.6,0,0,1,1.7,3.2V64c0,.3,0,.5.2.6s.3.3.7.3h.8v2l-.9.2h-.9a2.3,2.3,0,0,1-2-.9,5.4,5.4,0,0,1-.4-1.5,7.1,7.1,0,0,1-2.3,1.8,6.3,6.3,0,0,1-3.4.8,4.8,4.8,0,0,1-3.5-1.3,4.5,4.5,0,0,1-1.4-3.3,4,4,0,0,1,1.4-3.4,6.6,6.6,0,0,1,3.5-1.5Zm-5.5,7.1a3.2,3.2,0,0,0,2,.7,5.4,5.4,0,0,0,2.7-.7,3.7,3.7,0,0,0,2.2-3.5V58.7l-1.3.5a4,4,0,0,1-1.5.3l-1.6.2a5.3,5.3,0,0,0-2.1.6,2.5,2.5,0,0,0-1.3,2.2A2,2,0,0,0,98.1,64.3Z" fill="#fff"/><path d="M111.9,51h2.5v2.2a7.3,7.3,0,0,1,2.4-2,6,6,0,0,1,2.7-.6c2.3,0,3.8.8,4.6,2.4a8.4,8.4,0,0,1,.6,3.6V66.7H122V56.8a5,5,0,0,0-.4-2.3A2.6,2.6,0,0,0,119,53l-1.5.2a3.5,3.5,0,0,0-1.9,1.3,5.1,5.1,0,0,0-.9,1.6,12.5,12.5,0,0,0-.2,2.4v8.2h-2.6Z" fill="#fff"/><path d="M138.2,46.2c.6-.9,1.8-1.3,3.5-1.3h1.1v2.4h-.9q-1.2,0-1.5.6a17.3,17.3,0,0,0-.2,3.2h2.6v2h-2.6V66.7h-2.6V53.1h-2.2v-2h2.2V48.6A3.8,3.8,0,0,1,138.2,46.2Z" fill="#fff"/><path d="M145.3,51h2.5v2.7a5,5,0,0,1,1.6-1.9,3.7,3.7,0,0,1,2.7-1.2h.9v2.8h-.9a4.2,4.2,0,0,0-3.1,1.3,4.5,4.5,0,0,0-1,3v9h-2.7Z" fill="#fff"/><path d="M163.7,57.2a1.4,1.4,0,0,0,1.2-.8,2.2,2.2,0,0,0,.2-1,2.5,2.5,0,0,0-1-2,5.1,5.1,0,0,0-2.7-.6,3.5,3.5,0,0,0-3,1.2,3.8,3.8,0,0,0-.6,1.8h-2.5c.1-1.9.7-3.3,1.9-4a7.4,7.4,0,0,1,4.2-1.2,8.3,8.3,0,0,1,4.5,1.1,3.6,3.6,0,0,1,1.7,3.2V64a.8.8,0,0,0,.2.6c.1.2.3.3.7.3h.9v2l-1,.2h-.9a2.1,2.1,0,0,1-1.9-.9,5.3,5.3,0,0,1-.5-1.5,7.5,7.5,0,0,1-5.6,2.6,4.8,4.8,0,0,1-3.6-1.3,4.5,4.5,0,0,1-1.4-3.3,4.3,4.3,0,0,1,1.4-3.4,6.6,6.6,0,0,1,3.6-1.5Zm-5.6,7.1a3.5,3.5,0,0,0,2,.7,5.4,5.4,0,0,0,2.7-.7,3.7,3.7,0,0,0,2.2-3.5V58.7l-1.3.5a4,4,0,0,1-1.5.3l-1.5.2a5.3,5.3,0,0,0-2.2.6,2.4,2.4,0,0,0-1.2,2.2A2.2,2.2,0,0,0,158.1,64.3Z" fill="#fff"/><path d="M171.9,51h2.5v2.2a8.5,8.5,0,0,1,2.4-2,6.4,6.4,0,0,1,2.8-.6q3.3,0,4.5,2.4a8.4,8.4,0,0,1,.6,3.6V66.7H182V56.8a5,5,0,0,0-.4-2.3,2.5,2.5,0,0,0-2.5-1.5l-1.6.2a3.8,3.8,0,0,0-1.9,1.3,3.5,3.5,0,0,0-.8,1.6,7.6,7.6,0,0,0-.2,2.4v8.2h-2.7Z" fill="#fff"/><path d="M190.2,61.8a4,4,0,0,0,.7,2,4.2,4.2,0,0,0,3.5,1.3,5.3,5.3,0,0,0,2.6-.7,2.1,2.1,0,0,0,1.2-2,1.8,1.8,0,0,0-.9-1.5,9.1,9.1,0,0,0-2.3-.7l-2.2-.6a11.2,11.2,0,0,1-3-1.1,3.4,3.4,0,0,1-1.7-2.9,4.4,4.4,0,0,1,1.6-3.6,6.3,6.3,0,0,1,4.4-1.4c2.4,0,4.1.7,5.2,2.1a4.1,4.1,0,0,1,.9,2.8h-2.5a2.5,2.5,0,0,0-.6-1.6,4.1,4.1,0,0,0-3.2-1,3.7,3.7,0,0,0-2.3.5,1.7,1.7,0,0,0-.8,1.5,1.9,1.9,0,0,0,1,1.7l1.8.6,1.7.4a11.5,11.5,0,0,1,3.9,1.4,3.3,3.3,0,0,1,1.6,3.1,5.4,5.4,0,0,1-1.6,3.7,7,7,0,0,1-4.9,1.5c-2.4,0-4.1-.5-5.1-1.6a6.1,6.1,0,0,1-1.5-3.9Z" fill="#fff"/><path d="M214,51.8a6.3,6.3,0,0,1,2,4.5h-2.6a4.4,4.4,0,0,0-1-2.4,3.3,3.3,0,0,0-2.7-1,3.6,3.6,0,0,0-3.6,2.5,8.8,8.8,0,0,0-.7,3.9,7.2,7.2,0,0,0,1,4,3.5,3.5,0,0,0,3.1,1.6,3.6,3.6,0,0,0,2.6-1,5.6,5.6,0,0,0,1.3-2.8H216a6.9,6.9,0,0,1-2.2,4.6,6.7,6.7,0,0,1-4.5,1.4,5.9,5.9,0,0,1-4.9-2.2,8.7,8.7,0,0,1-1.8-5.6c0-2.8.6-4.9,2-6.5a6.5,6.5,0,0,1,5.1-2.3A7.3,7.3,0,0,1,214,51.8Z" fill="#fff"/><path d="M218.6,45.2h2.7v3h-2.7Zm0,5.9h2.7V66.7h-2.7Z" fill="#fff"/><path d="M226.9,61.8a3.9,3.9,0,0,0,.6,2,4.6,4.6,0,0,0,3.6,1.3,5.6,5.6,0,0,0,2.6-.7,2.2,2.2,0,0,0,1.1-2,1.8,1.8,0,0,0-.9-1.5,7.8,7.8,0,0,0-2.3-.7l-2.1-.6a9,9,0,0,1-3-1.1,3.2,3.2,0,0,1-1.7-2.9,4.4,4.4,0,0,1,1.6-3.6,6.1,6.1,0,0,1,4.4-1.4q3.6,0,5.1,2.1a4.2,4.2,0,0,1,1,2.8h-2.5a3.1,3.1,0,0,0-.6-1.6,4.4,4.4,0,0,0-3.3-1,3.9,3.9,0,0,0-2.3.5,1.9,1.9,0,0,0-.8,1.5,2,2,0,0,0,1.1,1.7l1.7.6,1.8.4a13.6,13.6,0,0,1,3.9,1.4,3.4,3.4,0,0,1,1.5,3.1,5,5,0,0,1-1.6,3.7,7,7,0,0,1-4.9,1.5c-2.3,0-4-.5-5-1.6a6.2,6.2,0,0,1-1.6-3.9Z" fill="#fff"/><path d="M250.7,51.8c1.1.9,1.7,2.4,2,4.5h-2.6a4.5,4.5,0,0,0-1.1-2.4,3.1,3.1,0,0,0-2.7-1,3.8,3.8,0,0,0-3.6,2.5,10.5,10.5,0,0,0-.7,3.9,8.2,8.2,0,0,0,1,4,3.6,3.6,0,0,0,3.2,1.6,3.8,3.8,0,0,0,2.6-1,6.6,6.6,0,0,0,1.3-2.8h2.6a7.4,7.4,0,0,1-2.2,4.6,6.7,6.7,0,0,1-4.5,1.4,6.2,6.2,0,0,1-5-2.2,8.7,8.7,0,0,1-1.8-5.6,9.9,9.9,0,0,1,2-6.5,6.8,6.8,0,0,1,5.1-2.3A7.6,7.6,0,0,1,250.7,51.8Z" fill="#fff"/><path d="M266.7,52.6a8.1,8.1,0,0,1,2,5.9,10.7,10.7,0,0,1-1.8,6.3q-1.8,2.4-5.7,2.4a6.6,6.6,0,0,1-5.1-2.1,8.7,8.7,0,0,1-1.9-5.9,9.3,9.3,0,0,1,2-6.3,6.6,6.6,0,0,1,5.4-2.4A6.9,6.9,0,0,1,266.7,52.6ZM265,63a9.2,9.2,0,0,0,1-4.4,8.8,8.8,0,0,0-.7-3.6,4,4,0,0,0-3.8-2.2,3.8,3.8,0,0,0-3.5,1.9,8.7,8.7,0,0,0-1.1,4.4,7.7,7.7,0,0,0,1.1,4.2,3.9,3.9,0,0,0,3.5,1.7A3.5,3.5,0,0,0,265,63Z" fill="#fff"/><path d="M104.3,76.7a25.8,25.8,0,0,1,11.2,8.9A24,24,0,0,1,120.1,96a139.9,139.9,0,0,1,.8,17.5v53.2H96.8V111.6a24.9,24.9,0,0,0-2.5-11.8c-2.2-4.2-6.2-6.3-12.2-6.3S71.2,95.6,68,99.7s-4.9,10.2-4.9,18v49H39.5V44.7H63.1V87.9c3.5-5.2,7.4-8.9,11.9-11a33,33,0,0,1,14.2-3.1A38.7,38.7,0,0,1,104.3,76.7Z" fill="#fff"/><path d="M202.1,78a38.1,38.1,0,0,1,15.7,13.4,44.6,44.6,0,0,1,7.2,18.7,112.8,112.8,0,0,1,.7,18H159.8c.4,9.1,3.6,15.4,9.5,19.1a24.8,24.8,0,0,0,13.1,3.4c5.3,0,9.7-1.4,13.1-4.2a19.8,19.8,0,0,0,4.9-6.2h24.1c-.6,5.4-3.5,10.8-8.8,16.4-8.1,8.8-19.4,13.2-34,13.2a49.7,49.7,0,0,1-31.9-11.2c-9.2-7.4-13.8-19.5-13.8-36.2s4.2-27.7,12.5-36.1,19.1-12.5,32.3-12.5A51.9,51.9,0,0,1,202.1,78ZM166.7,98.5c-3.3,3.4-5.4,8.1-6.3,14h40.8c-.4-6.3-2.5-11.1-6.3-14.3a20.6,20.6,0,0,0-14-4.9C174.8,93.3,170.1,95,166.7,98.5Z" fill="#fff"/><path d="M273.5,111.6a37.7,37.7,0,0,0,9.5-2c3.4-1.5,5.1-3.7,5.1-6.8s-1.3-6.2-3.9-7.6-6.5-2.1-11.5-2.1-9.7,1.3-12,4.1a17.5,17.5,0,0,0-3.4,8.3H234.5q.8-11.9,6.6-19.5,9.5-12,32.4-12A58.1,58.1,0,0,1,300,79.9c7.7,4,11.6,11.4,11.6,22.3v41.5c0,2.9,0,6.4.2,10.4s.6,5.2,1.4,6.4a7.6,7.6,0,0,0,3.5,2.7v3.5H290.9a29.7,29.7,0,0,1-1.5-5.2,40.4,40.4,0,0,1-.6-5.4,50.3,50.3,0,0,1-11.4,9,34.6,34.6,0,0,1-17.4,4.4c-8.2,0-15-2.3-20.4-7s-8-11.3-8-19.9c0-11.1,4.3-19.2,12.9-24.1,4.8-2.8,11.7-4.7,20.9-5.9ZM288,122.7a28.2,28.2,0,0,1-4.6,2.3,35.4,35.4,0,0,1-6.3,1.6l-5.4,1c-5.1.9-8.7,1.9-10.9,3.2a10.9,10.9,0,0,0-5.6,10.1c0,4,1.2,6.9,3.4,8.7a13.1,13.1,0,0,0,8.3,2.7,24.5,24.5,0,0,0,14.3-4.5c4.4-2.9,6.6-8.4,6.8-16.3Z" fill="#fff"/><path d="M380.2,77.7a27.7,27.7,0,0,1,10.4,10V44.5h24V166.7h-23V154.1c-3.4,5.4-7.2,9.3-11.5,11.8s-9.7,3.6-16.1,3.6c-10.6,0-19.5-4.3-26.7-12.8s-10.9-19.5-10.9-32.9c0-15.5,3.6-27.6,10.7-36.5S353.7,74,365.6,74A28.1,28.1,0,0,1,380.2,77.7Zm5.8,64.4c3.5-5,5.3-11.4,5.3-19.3,0-11.1-2.8-19-8.4-23.8a18.4,18.4,0,0,0-12-4.3c-6.9,0-12,2.6-15.2,7.9s-4.9,11.7-4.9,19.4,1.7,15.1,5,20.1,8.3,7.5,15,7.5S382.6,147.1,386,142.1Z" fill="#fff"/><path d="M460.4,65.4h-24V43.6h24Zm-24,10.8h24v90.5h-24Z" fill="#fff"/><path d="M556.3,81.4c5.9,4.9,8.9,13,8.9,24.4v60.9H540.9V111.6c0-4.7-.6-8.4-1.9-10.9-2.3-4.7-6.7-7-13.1-7-8,0-13.5,3.4-16.4,10.2-1.6,3.6-2.3,8.2-2.3,13.8v49H483.5V76.4h22.9V89.6A39.9,39.9,0,0,1,515,79.5c4.9-3.6,11-5.5,18.4-5.5C542.7,74,550.4,76.5,556.3,81.4Z" fill="#fff"/><path d="M631.9,76.1c5.8,2.4,10.4,6.8,14,13.1v-13h23V162c0,11.7-1.9,20.5-5.9,26.4-6.7,10.2-19.7,15.3-38.8,15.3-11.6,0-21-2.3-28.3-6.8s-11.4-11.3-12.1-20.3h25.7c.7,2.7,1.7,4.7,3.2,5.9s6.9,3.3,12.9,3.3c8.5,0,14.2-2.9,17.1-8.6,1.9-3.6,2.8-9.8,2.8-18.4V153a27.1,27.1,0,0,1-7.3,8.7q-7.1,5.4-18.3,5.4c-11.6,0-20.9-4.1-27.9-12.2s-10.4-19.3-10.4-33.2,3.4-24.8,10-33.9S607.8,74,620.1,74A30.3,30.3,0,0,1,631.9,76.1ZM640,141c3.8-4.2,5.7-10.8,5.7-20s-1.8-15.1-5.4-19.6a17.9,17.9,0,0,0-14.5-6.7q-12.4,0-17.1,11.7c-1.7,4.2-2.5,9.3-2.5,15.4a36.4,36.4,0,0,0,2.6,14c3.2,7.6,9,11.5,17.2,11.5A18.2,18.2,0,0,0,640,141Z" fill="#fff"/><path d="M813.7,155.6c-7.6,9.4-19.2,14.2-34.8,14.2s-27.1-4.8-34.8-14.2-11.4-20.8-11.4-34,3.8-24.4,11.4-34,19.3-14.3,34.8-14.3,27.2,4.8,34.8,14.3,11.5,20.9,11.5,34S821.3,146.2,813.7,155.6Zm-18.9-13.1c3.7-4.9,5.5-11.9,5.5-20.9s-1.8-16.1-5.5-21-9-7.3-16-7.3-12.2,2.4-15.9,7.3-5.6,11.9-5.6,21,1.8,16,5.6,20.9,9,7.4,15.9,7.4S791.1,147.5,794.8,142.5Z" fill="#fff"/><path d="M915,81.4c6,4.9,8.9,13,8.9,24.4v60.9H899.7V111.6c0-4.7-.6-8.4-1.9-10.9-2.3-4.7-6.7-7-13.2-7s-13.4,3.4-16.4,10.2a36.1,36.1,0,0,0-2.3,13.8v49H842.3V76.4h22.9V89.6a39.9,39.9,0,0,1,8.6-10.1c4.8-3.6,11-5.5,18.4-5.5C901.5,74,909.1,76.5,915,81.4Z" fill="#fff"/><path d="M1004.9,78a37.2,37.2,0,0,1,15.6,13.4,44.6,44.6,0,0,1,7.2,18.7c.7,4.2.9,10.2.8,18H962.6c.4,9.1,3.5,15.4,9.5,19.1a24.4,24.4,0,0,0,13,3.4q8.1,0,13.2-4.2a19.6,19.6,0,0,0,4.8-6.2h24.2c-.7,5.4-3.6,10.8-8.8,16.4-8.1,8.8-19.4,13.2-34,13.2a49.5,49.5,0,0,1-31.9-11.2c-9.2-7.4-13.8-19.5-13.8-36.2s4.1-27.7,12.5-36.1,19.1-12.5,32.3-12.5A51.9,51.9,0,0,1,1004.9,78ZM969.5,98.5c-3.3,3.4-5.4,8.1-6.3,14H1004c-.5-6.3-2.6-11.1-6.3-14.3a20.7,20.7,0,0,0-14.1-4.9C977.5,93.3,972.8,95,969.5,98.5Z" fill="#fff"/><path d="M34.7,194.7h8.8v26.8a26.5,26.5,0,0,1,5.6-5.6,18.8,18.8,0,0,1,10.6-2.8c7.6,0,12.8,2.7,15.5,8,1.4,2.9,2.2,6.9,2.2,12v33.6H68.3v-33c0-3.8-.5-6.6-1.4-8.4s-4.6-4.3-9-4.3a14.7,14.7,0,0,0-9.9,3.7c-3,2.5-4.5,7.3-4.5,14.2v27.8H34.7Z" fill="#fff"/><path d="M122.6,215.8a20.7,20.7,0,0,1,8,6.8,22.6,22.6,0,0,1,3.4,9.2c.6,2.4.8,6.3.8,11.5h-38c.1,5.4,1.4,9.6,3.7,12.8s5.9,4.9,10.8,4.9a14,14,0,0,0,10.9-4.6,15.6,15.6,0,0,0,3.2-6.1h8.7a17.8,17.8,0,0,1-2.3,6.4,22.4,22.4,0,0,1-4.3,5.8,20.8,20.8,0,0,1-9.8,5.3,31.1,31.1,0,0,1-7.1.7,21.7,21.7,0,0,1-16.5-7.1c-4.5-4.7-6.7-11.3-6.7-19.9s2.2-15.2,6.8-20.4,10.4-7.9,17.7-7.9A23.8,23.8,0,0,1,122.6,215.8Zm3.2,20.6a24,24,0,0,0-2.5-9.2c-2.4-4.2-6.4-6.3-11.9-6.3a13,13,0,0,0-10.1,4.4A16.3,16.3,0,0,0,97,236.4Z" fill="#fff"/><path d="M174,235a4.5,4.5,0,0,0,4-2.5,7.7,7.7,0,0,0,.6-3.4c0-3-1-5.2-3.2-6.5s-5.1-2.1-9.1-2.1-7.8,1.3-9.8,3.8a12.5,12.5,0,0,0-2,6.1h-8.3q.3-9.7,6.3-13.5a26,26,0,0,1,14-3.8c6.1,0,11.1,1.2,15,3.5s5.7,6,5.7,11v30.1a4.8,4.8,0,0,0,.5,2.2,3,3,0,0,0,2.4.8h1.3l1.6-.3v6.5l-3.1.8h-3a7.4,7.4,0,0,1-6.6-3.2,13.6,13.6,0,0,1-1.5-4.8,23.4,23.4,0,0,1-7.7,6.1,23.9,23.9,0,0,1-11.1,2.5c-4.8,0-8.8-1.4-11.9-4.4a14.8,14.8,0,0,1-4.6-11c0-4.9,1.5-8.6,4.6-11.3s7-4.3,11.9-4.9Zm-18.5,23.8a10.5,10.5,0,0,0,6.6,2.2,19.3,19.3,0,0,0,9-2.2,12,12,0,0,0,7.3-11.6v-7.1a13.6,13.6,0,0,1-4.2,1.7,30.5,30.5,0,0,1-4.9,1l-5.3.7a20.2,20.2,0,0,0-7.2,2,7.7,7.7,0,0,0-4.1,7.3A7.2,7.2,0,0,0,155.5,258.8Z" fill="#fff"/><path d="M230.3,216a24.4,24.4,0,0,1,5.3,5.1V194.7h8.5v72h-8v-7.3a18.5,18.5,0,0,1-7.2,7,21.2,21.2,0,0,1-9.6,2.1c-5.8,0-10.8-2.4-15.1-7.3s-6.3-11.4-6.3-19.6,1.9-14.2,5.8-19.8,9.4-8.3,16.6-8.3A18.3,18.3,0,0,1,230.3,216Zm-19.6,39.2q3.5,5.7,11.4,5.7c4,0,7.3-1.8,9.9-5.3s3.9-8.5,3.9-15-1.3-11.5-4-14.7a12.5,12.5,0,0,0-9.9-4.8,13.4,13.4,0,0,0-10.8,5.1c-2.7,3.4-4.1,8.4-4.1,14.9S208.3,251.4,210.7,255.2Z" fill="#fff"/><path d="M257.2,195h8.9v9.9h-8.9Zm0,19.6h8.9v52.1h-8.9Z" fill="#fff"/><path d="M279.4,214.4h8.4v7.4a22.6,22.6,0,0,1,7.8-6.6,21.7,21.7,0,0,1,9.2-2c7.5,0,12.5,2.6,15.1,7.8,1.4,2.8,2.1,6.9,2.1,12.1v33.6h-8.9v-33a18.6,18.6,0,0,0-1.4-7.7c-1.6-3.2-4.4-4.9-8.5-4.9a14.6,14.6,0,0,0-5.1.7,12.4,12.4,0,0,0-6.4,4.3,11.9,11.9,0,0,0-2.8,5.3,32.2,32.2,0,0,0-.7,7.9v27.4h-8.8Z" fill="#fff"/><path d="M364.1,216.5a26.2,26.2,0,0,1,5.1,5v-6.6h8.1v47.5c0,6.7-1,11.9-3,15.8-3.6,7.1-10.5,10.6-20.5,10.6-5.7,0-10.4-1.3-14.2-3.8s-6-6.5-6.4-11.8h8.9a10.5,10.5,0,0,0,2.5,5.4c2,1.9,5.1,2.9,9.3,2.9,6.8,0,11.1-2.4,13.2-7.1,1.2-2.8,1.8-7.8,1.7-15a16.4,16.4,0,0,1-6.3,6c-2.5,1.3-5.7,1.9-9.8,1.9a20.9,20.9,0,0,1-14.8-6c-4.2-4-6.3-10.7-6.3-20s2.1-15.6,6.3-20.5a19.9,19.9,0,0,1,15.5-7.3A19.1,19.1,0,0,1,364.1,216.5Zm1.1,9.4a13,13,0,0,0-10.2-4.7c-6.1,0-10.4,2.9-12.6,8.7a34.5,34.5,0,0,0-1.8,12.2c0,5.9,1.2,10.3,3.6,13.4a11.2,11.2,0,0,0,9.6,4.6c6.2,0,10.7-2.8,13.2-8.5a28.1,28.1,0,0,0,2.2-11.3C369.2,233.8,367.8,229,365.2,225.9Z" fill="#fff"/><path d="M420.2,199.8h8.9v14.6h8.3v7.2h-8.3v34.1a3.9,3.9,0,0,0,1.8,3.7,9,9,0,0,0,3.4.5h1.4l1.7-.2v7a15.5,15.5,0,0,1-3.1.6l-3.6.2c-4.1,0-6.9-1-8.3-3.1a13.9,13.9,0,0,1-2.2-8.2V221.6h-7.1v-7.2h7.1Z" fill="#fff"/><path d="M450.3,214.4l10,41.2,10.2-41.2h9.9l10.3,41,10.7-41h8.7L495,266.7h-9.2l-10.6-40.5-10.3,40.5h-9.2l-15-52.3Z" fill="#fff"/><path d="M556.3,219.6q6.9,6.8,6.9,19.8c0,8.4-2,15.4-6.1,20.9s-10.4,8.2-18.9,8.2-12.8-2.4-17-7.3-6.3-11.3-6.3-19.5,2.2-15.8,6.6-21,10.4-7.8,17.8-7.8A23.4,23.4,0,0,1,556.3,219.6Zm-5.4,34.8a33.7,33.7,0,0,0,3.2-14.7c0-4.9-.8-8.9-2.4-11.9-2.4-4.9-6.6-7.3-12.6-7.3s-9.2,2.1-11.6,6.2a28.7,28.7,0,0,0-3.6,14.8c0,5.6,1.2,10.2,3.6,13.9s6.3,5.6,11.5,5.6S548.7,258.8,550.9,254.4Z" fill="#fff"/><path d="M31.5,300.7h4.4v13.4a12.2,12.2,0,0,1,2.8-2.8,9.7,9.7,0,0,1,5.3-1.4c3.8,0,6.4,1.3,7.7,4a12.4,12.4,0,0,1,1.1,6v16.8H48.3V320.2a9.1,9.1,0,0,0-.7-4.2c-.8-1.5-2.3-2.2-4.5-2.2a8,8,0,0,0-5,1.9c-1.5,1.3-2.2,3.6-2.2,7.1v13.9H31.5Z" fill="#fff"/><path d="M75.5,311.3a9.8,9.8,0,0,1,3.9,3.3,12.3,12.3,0,0,1,1.8,4.6,38,38,0,0,1,.4,5.8H62.5a11,11,0,0,0,1.9,6.4,6.3,6.3,0,0,0,5.4,2.4,6.8,6.8,0,0,0,5.5-2.3,9.6,9.6,0,0,0,1.6-3h4.3a10.1,10.1,0,0,1-1.1,3.2,13.8,13.8,0,0,1-2.2,2.9,9.7,9.7,0,0,1-4.9,2.6,13.7,13.7,0,0,1-3.6.4,11,11,0,0,1-8.2-3.5c-2.3-2.4-3.4-5.7-3.4-10a15.3,15.3,0,0,1,3.4-10.2,11.3,11.3,0,0,1,8.9-4A12.1,12.1,0,0,1,75.5,311.3ZM77,321.5a10.5,10.5,0,0,0-1.2-4.5c-1.2-2.2-3.2-3.2-6-3.2a6.3,6.3,0,0,0-5,2.2,8.1,8.1,0,0,0-2.2,5.5Z" fill="#fff"/><path d="M101.1,320.9a2.9,2.9,0,0,0,2.1-1.3,4,4,0,0,0,.3-1.7,3.8,3.8,0,0,0-1.6-3.3,8.5,8.5,0,0,0-4.6-1c-2.3,0-3.9.6-4.9,1.9a5.9,5.9,0,0,0-1,3H87.3c0-3.2,1.1-5.4,3.1-6.7a12.5,12.5,0,0,1,7-1.9,13.9,13.9,0,0,1,7.5,1.8,5.8,5.8,0,0,1,2.8,5.4v15.1a2,2,0,0,0,.3,1.1c.2.3.6.4,1.2.4h1.4v3.2l-1.5.4h-1.5a3.6,3.6,0,0,1-3.3-1.6,5.6,5.6,0,0,1-.8-2.4,10.1,10.1,0,0,1-3.8,3.1,12.7,12.7,0,0,1-5.5,1.3,8.5,8.5,0,0,1-6-2.2,7.7,7.7,0,0,1-2.3-5.6,7.1,7.1,0,0,1,2.3-5.6,11,11,0,0,1,5.9-2.5Zm-9.2,11.8a4.7,4.7,0,0,0,3.3,1.1,10.5,10.5,0,0,0,4.5-1,6.2,6.2,0,0,0,3.6-5.9v-3.5a7.6,7.6,0,0,1-2,.8,12.3,12.3,0,0,1-2.5.5l-2.7.4a9.2,9.2,0,0,0-3.6,1,3.9,3.9,0,0,0-2,3.6A3.6,3.6,0,0,0,91.9,332.7Z" fill="#fff"/><path d="M129.3,311.3a10.6,10.6,0,0,1,2.6,2.6V300.7h4.3v36h-4V333a8.6,8.6,0,0,1-3.6,3.5,10,10,0,0,1-12.3-2.6c-2.2-2.4-3.2-5.7-3.2-9.7a16.1,16.1,0,0,1,2.9-9.9,9.4,9.4,0,0,1,8.3-4.2A9.7,9.7,0,0,1,129.3,311.3Zm-9.8,19.6a6.3,6.3,0,0,0,5.7,2.9,6.1,6.1,0,0,0,5-2.6c1.3-1.8,1.9-4.3,1.9-7.6s-.7-5.7-2-7.3a6.2,6.2,0,0,0-5-2.4,6.6,6.6,0,0,0-5.3,2.5q-2.1,2.6-2.1,7.5A12.5,12.5,0,0,0,119.5,330.9Z" fill="#fff"/><path d="M142.7,300.8h4.5v5h-4.5Zm0,9.9h4.5v26h-4.5Z" fill="#fff"/><path d="M153.8,310.5H158v3.7a14.3,14.3,0,0,1,3.9-3.3,12,12,0,0,1,4.7-1q5.6,0,7.5,3.9a14.1,14.1,0,0,1,1.1,6.1v16.8h-4.5V320.2a8.8,8.8,0,0,0-.7-3.9,4.4,4.4,0,0,0-4.3-2.4,8.5,8.5,0,0,0-2.5.3,6.9,6.9,0,0,0-3.2,2.2,6,6,0,0,0-1.4,2.6,14.5,14.5,0,0,0-.4,4v13.7h-4.4Z" fill="#fff"/><path d="M196.2,311.6a11.8,11.8,0,0,1,2.5,2.5v-3.3h4.1v23.8a16.9,16.9,0,0,1-1.5,7.8c-1.8,3.6-5.2,5.3-10.3,5.3a12.3,12.3,0,0,1-7.1-1.9c-1.9-1.2-2.9-3.2-3.2-5.9h4.5a4.3,4.3,0,0,0,1.3,2.7c.9,1,2.5,1.5,4.6,1.5s5.6-1.2,6.6-3.6.9-3.9.8-7.5a7.4,7.4,0,0,1-3.1,3,9.9,9.9,0,0,1-4.9,1,10.4,10.4,0,0,1-7.4-3c-2.1-2-3.2-5.4-3.2-10s1.1-7.8,3.2-10.2a9.7,9.7,0,0,1,7.7-3.7A9.5,9.5,0,0,1,196.2,311.6Zm.5,4.7a6.2,6.2,0,0,0-5.1-2.3,6.3,6.3,0,0,0-6.3,4.3,17.1,17.1,0,0,0-.9,6.1c0,2.9.6,5.2,1.8,6.7a5.9,5.9,0,0,0,4.8,2.3,6.5,6.5,0,0,0,6.6-4.3,12.5,12.5,0,0,0,1.1-5.6C198.7,320.3,198.1,317.9,196.7,316.3Z" fill="#fff"/><path d="M224.2,303.2h4.5v7.3h4.1v3.6h-4.1v17.1a1.8,1.8,0,0,0,.9,1.8,3.4,3.4,0,0,0,1.7.3h1.5v3.5l-1.5.3h-1.8c-2,0-3.4-.5-4.2-1.6a7.1,7.1,0,0,1-1.1-4.1V314.1h-3.5v-3.6h3.5Z" fill="#fff"/><path d="M237.2,300.7h4.4v13.4a14.5,14.5,0,0,1,2.8-2.8,10,10,0,0,1,5.3-1.4c3.8,0,6.4,1.3,7.8,4a13.7,13.7,0,0,1,1.1,6v16.8H254V320.2a9.1,9.1,0,0,0-.7-4.2c-.8-1.5-2.3-2.2-4.5-2.2a7.5,7.5,0,0,0-4.9,1.9c-1.5,1.3-2.3,3.6-2.3,7.1v13.9h-4.4Z" fill="#fff"/><path d="M265.2,310.5h4.1v4.6a10.7,10.7,0,0,1,2.6-3.3,6.6,6.6,0,0,1,4.6-1.9h1.4v4.6h-1.4a6.4,6.4,0,0,0-5.2,2.1,7.9,7.9,0,0,0-1.7,4.9v15.1h-4.4Z" fill="#fff"/><path d="M297.9,311.3a9.8,9.8,0,0,1,3.9,3.3,12.3,12.3,0,0,1,1.8,4.6,41,41,0,0,1,.3,5.8h-19a11,11,0,0,0,1.9,6.4,6.3,6.3,0,0,0,5.4,2.4,6.5,6.5,0,0,0,5.4-2.3,8.1,8.1,0,0,0,1.7-3h4.3a8.5,8.5,0,0,1-1.2,3.2,10.8,10.8,0,0,1-2.1,2.9,9.7,9.7,0,0,1-4.9,2.6,13.7,13.7,0,0,1-3.6.4,11,11,0,0,1-8.2-3.5c-2.3-2.4-3.4-5.7-3.4-10s1.1-7.6,3.4-10.2a11.3,11.3,0,0,1,8.9-4A12.1,12.1,0,0,1,297.9,311.3Zm1.5,10.2a12.2,12.2,0,0,0-1.2-4.5c-1.2-2.2-3.2-3.2-6-3.2a6.3,6.3,0,0,0-5,2.2,8.1,8.1,0,0,0-2.2,5.5Z" fill="#fff"/><path d="M325.7,311.3a9.8,9.8,0,0,1,3.9,3.3,12.3,12.3,0,0,1,1.8,4.6,41,41,0,0,1,.3,5.8h-19a11,11,0,0,0,1.9,6.4,6.3,6.3,0,0,0,5.4,2.4,6.5,6.5,0,0,0,5.4-2.3,8.1,8.1,0,0,0,1.7-3h4.3a8.5,8.5,0,0,1-1.2,3.2,10.8,10.8,0,0,1-2.1,2.9,9.7,9.7,0,0,1-4.9,2.6,13.7,13.7,0,0,1-3.6.4,11,11,0,0,1-8.2-3.5c-2.3-2.4-3.4-5.7-3.4-10s1.1-7.6,3.4-10.2a11.3,11.3,0,0,1,8.9-4A12.1,12.1,0,0,1,325.7,311.3Zm1.5,10.2A10.5,10.5,0,0,0,326,317c-1.2-2.2-3.2-3.2-6-3.2a6.3,6.3,0,0,0-5,2.2,8.1,8.1,0,0,0-2.2,5.5Z" fill="#fff"/><path d="M30.6,357.9H34v10.4a8.3,8.3,0,0,1,2.7-2.3,8.5,8.5,0,0,1,3.5-.8,8.1,8.1,0,0,1,6.4,2.7c1.6,1.8,2.4,4.4,2.4,7.9a13.8,13.8,0,0,1-2.4,8.3,7.7,7.7,0,0,1-6.7,3.2,6.7,6.7,0,0,1-4-1.1,15.2,15.2,0,0,1-2.1-2.2v2.7H30.6ZM44,382a10.7,10.7,0,0,0,1.4-6,9.6,9.6,0,0,0-1.4-5.5,4.6,4.6,0,0,0-4.2-2.1,6.1,6.1,0,0,0-4.2,1.7c-1.2,1.2-1.8,3.2-1.8,5.9a12.8,12.8,0,0,0,.7,4.8,5.2,5.2,0,0,0,5.2,3.4A4.7,4.7,0,0,0,44,382Z" fill="#fff"/><path d="M68.3,367.9c1.8,1.7,2.7,4.4,2.7,7.9a13.8,13.8,0,0,1-2.4,8.3c-1.6,2.2-4.2,3.3-7.6,3.3a8.4,8.4,0,0,1-6.8-2.9c-1.7-1.9-2.5-4.5-2.5-7.8a13,13,0,0,1,2.6-8.4,9,9,0,0,1,7.2-3.1A9.6,9.6,0,0,1,68.3,367.9Zm-2.2,13.9a14.5,14.5,0,0,0,1.3-5.9,9.5,9.5,0,0,0-1-4.8,5.1,5.1,0,0,0-5-2.9,5.1,5.1,0,0,0-4.7,2.5,12,12,0,0,0-1.4,5.9,10.8,10.8,0,0,0,1.4,5.6,5.1,5.1,0,0,0,4.6,2.2A5,5,0,0,0,66.1,381.8Z" fill="#fff"/><path d="M86.8,366.4a8.4,8.4,0,0,1,2.2,2.1V357.9h3.3v28.8H89.2v-2.9a7.7,7.7,0,0,1-2.9,2.8,9.3,9.3,0,0,1-3.9.8,7.9,7.9,0,0,1-6-2.9,11.6,11.6,0,0,1-2.5-7.8,13.5,13.5,0,0,1,2.3-8,7.6,7.6,0,0,1,6.6-3.3A7,7,0,0,1,86.8,366.4ZM79,382.1a5,5,0,0,0,4.5,2.3,4.6,4.6,0,0,0,4-2.1c1.1-1.4,1.6-3.5,1.6-6.1s-.5-4.6-1.6-5.8a5,5,0,0,0-4-1.9,5.1,5.1,0,0,0-4.3,2c-1.1,1.3-1.6,3.3-1.6,6A10.8,10.8,0,0,0,79,382.1Z" fill="#fff"/><path d="M110.7,365.8h3.9l-3.3,9.1-3.2,8.8c-2.1,5.4-3.5,8.6-4.3,9.8a5,5,0,0,1-4.3,1.8H98.3l-1-.2v-3.2l1.4.3h.7a2.6,2.6,0,0,0,1.4-.4,2,2,0,0,0,.8-.8,9.9,9.9,0,0,0,.7-1.6l.9-2.1-7.8-21.5h4l5.6,17Z" fill="#fff"/></svg>