<svg id="Layer_1" data-name="Layer 1" xmlns="http://www.w3.org/2000/svg" width="1300" height="546" viewBox="0 0 1300 546"><title>makinthru-colour</title><path d="M41.5,60a6.6,6.6,0,0,1-3.2-.8,5.4,5.4,0,0,1-2.2-2.3v9.2h-4V44h3.5v2.7a5.8,5.8,0,0,1,2.2-2.2,6.9,6.9,0,0,1,3.2-.8,7.3,7.3,0,0,1,3,.6,8,8,0,0,1,2.3,1.8,9.3,9.3,0,0,1,1.5,2.6,7.8,7.8,0,0,1,.6,3.1,11.3,11.3,0,0,1-.5,3.2,9.3,9.3,0,0,1-1.5,2.6,6.5,6.5,0,0,1-2.2,1.8A6,6,0,0,1,41.5,60Zm-1.3-3.4a4.2,4.2,0,0,0,1.6-.4,3.5,3.5,0,0,0,1.3-1.1,3.8,3.8,0,0,0,.9-1.5,5.7,5.7,0,0,0,.3-1.8,4.1,4.1,0,0,0-.4-1.9,4.2,4.2,0,0,0-.9-1.4,2.8,2.8,0,0,0-1.4-1,3.3,3.3,0,0,0-1.7-.4l-1.2.2a3,3,0,0,0-1.1.6l-.9.8a2.4,2.4,0,0,0-.6,1.1v3.6a5.5,5.5,0,0,0,1.7,2.3A3.6,3.6,0,0,0,40.2,56.6Z" fill="#fff"/><path d="M60.4,47.4a11.4,11.4,0,0,0-3.3.7,4.5,4.5,0,0,0-2,2.1v9.5H51V44h3.7v3.3a9.2,9.2,0,0,1,2.1-2.6,5,5,0,0,1,2.8-1h.8Z" fill="#fff"/><path d="M62.7,41.8v-4h4v4Zm0,17.9V44h4V59.7Z" fill="#fff"/><path d="M94.7,59.7H90.6V50.9a5.1,5.1,0,0,0-.6-2.8,2.3,2.3,0,0,0-1.8-.9,3.3,3.3,0,0,0-2.2.9,6.1,6.1,0,0,0-1.5,2.4v9.2H80.4V50.9a5.1,5.1,0,0,0-.6-2.8,2,2,0,0,0-1.8-.9,3.3,3.3,0,0,0-2.2.9,4.9,4.9,0,0,0-1.5,2.4v9.2H70.2V44h3.7v2.9a6.2,6.2,0,0,1,2.4-2.4,7.4,7.4,0,0,1,3.4-.8,4.3,4.3,0,0,1,3.1,1A4.9,4.9,0,0,1,84.2,47a6.4,6.4,0,0,1,2.4-2.5,7.4,7.4,0,0,1,3.4-.8,5.2,5.2,0,0,1,2.3.5,6.7,6.7,0,0,1,1.5,1.4,11.8,11.8,0,0,1,.7,2,17.9,17.9,0,0,1,.2,2.3Z" fill="#fff"/><path d="M102.4,60a5.2,5.2,0,0,1-2.1-.4,4.8,4.8,0,0,1-1.7-1A4.2,4.2,0,0,1,97.5,57a4.5,4.5,0,0,1-.4-2,4.1,4.1,0,0,1,.5-2.1,4.8,4.8,0,0,1,1.3-1.6,9,9,0,0,1,2.2-1,11,11,0,0,1,2.7-.4l2,.2,1.8.5v-.9a3.2,3.2,0,0,0-.9-2.4,4,4,0,0,0-2.6-.8,6.9,6.9,0,0,0-2.5.4,10,10,0,0,0-2.4,1.4l-1.3-2.6a11.9,11.9,0,0,1,6.6-2,7.1,7.1,0,0,1,5.2,1.7,5.9,5.9,0,0,1,1.9,4.8v4.9a1.2,1.2,0,0,0,.3.9l.8.3v3.4h-1.9a3,3,0,0,1-1.8-.5,2.3,2.3,0,0,1-.7-1.4v-.8a7.5,7.5,0,0,1-2.6,2.1A8.3,8.3,0,0,1,102.4,60Zm1.2-3a6.3,6.3,0,0,0,1.9-.3,3.9,3.9,0,0,0,1.4-1,1.3,1.3,0,0,0,.7-1.1V52.8l-1.6-.5h-1.6a3.9,3.9,0,0,0-2.5.7,2.1,2.1,0,0,0-1,1.8,2.2,2.2,0,0,0,.7,1.7A3.4,3.4,0,0,0,103.6,57Z" fill="#fff"/><path d="M124.8,47.4a11.4,11.4,0,0,0-3.3.7,4.5,4.5,0,0,0-2,2.1v9.5h-4.1V44h3.7v3.3a8,8,0,0,1,2.2-2.6,4.5,4.5,0,0,1,2.7-1h.8Z" fill="#fff"/><path d="M127.3,62.7l1,.3h1.4l.6-.5.6-1a16.2,16.2,0,0,0,.6-1.7L125.3,44h4.1l4.3,12.2L137.5,44h3.7l-6.6,18.8a5.3,5.3,0,0,1-5.2,3.8,7.8,7.8,0,0,1-2.1-.4Z" fill="#fff"/><path d="M148.8,51.8a8.1,8.1,0,0,1,.6-3.1,7.3,7.3,0,0,1,1.7-2.6,6.9,6.9,0,0,1,2.6-1.7,7.4,7.4,0,0,1,3.4-.7,8.7,8.7,0,0,1,4.4,1.1,6.9,6.9,0,0,1,2.7,2.9l-3.9,1.2a2.9,2.9,0,0,0-1.4-1.3,3.5,3.5,0,0,0-1.8-.5,2.9,2.9,0,0,0-1.6.4,3,3,0,0,0-1.3.9,3.8,3.8,0,0,0-.9,1.5,5.8,5.8,0,0,0-.3,1.9,5.4,5.4,0,0,0,.3,1.9,3.8,3.8,0,0,0,.9,1.5,3.1,3.1,0,0,0,1.3,1,4.2,4.2,0,0,0,1.6.4,3.6,3.6,0,0,0,2-.6,3.3,3.3,0,0,0,1.3-1.3l3.9,1.2a6.3,6.3,0,0,1-2.7,2.9,7.9,7.9,0,0,1-4.5,1.2,7.7,7.7,0,0,1-3.4-.7,6.8,6.8,0,0,1-2.6-1.8,7.8,7.8,0,0,1-1.7-2.6A8.1,8.1,0,0,1,148.8,51.8Z" fill="#fff"/><path d="M173.8,60a7.4,7.4,0,0,1-3.4-.7,6.8,6.8,0,0,1-2.6-1.8,7.8,7.8,0,0,1-1.7-2.6,9.9,9.9,0,0,1-.5-3,11.3,11.3,0,0,1,.5-3.2,10.6,10.6,0,0,1,1.7-2.6,7.8,7.8,0,0,1,2.6-1.7,7.4,7.4,0,0,1,3.4-.7,7.8,7.8,0,0,1,3.5.7,7.4,7.4,0,0,1,2.5,1.7,8.3,8.3,0,0,1,1.7,2.6,8.6,8.6,0,0,1,.5,3.2,7.9,7.9,0,0,1-2.1,5.6,6.8,6.8,0,0,1-2.6,1.8A7.8,7.8,0,0,1,173.8,60Zm-4.1-8.1a5.8,5.8,0,0,0,.3,1.9,4.2,4.2,0,0,0,.9,1.4,3.1,3.1,0,0,0,1.3,1,3.4,3.4,0,0,0,3.2,0,3.3,3.3,0,0,0,1.4-1,5.3,5.3,0,0,0,.8-1.5,5.4,5.4,0,0,0,.3-1.9,5.8,5.8,0,0,0-.3-1.9,10.9,10.9,0,0,0-.8-1.5,4.2,4.2,0,0,0-1.4-.9,3.4,3.4,0,0,0-3.2,0,3.1,3.1,0,0,0-1.3,1A3.8,3.8,0,0,0,170,50,5.4,5.4,0,0,0,169.7,51.9Z" fill="#fff"/><path d="M184.7,37.8h4V54.5c0,1.2.5,1.8,1.6,1.8h.8l.8-.3.6,3.2a6,6,0,0,1-1.9.6,7.5,7.5,0,0,1-2,.2,3.9,3.9,0,0,1-2.9-1,3.7,3.7,0,0,1-1-2.8Z" fill="#fff"/><path d="M201.4,60a7.8,7.8,0,0,1-3.5-.7,6.8,6.8,0,0,1-2.6-1.8,8.7,8.7,0,0,1-2.2-5.6,8.7,8.7,0,0,1,.6-3.2,10.1,10.1,0,0,1,1.6-2.6,8.8,8.8,0,0,1,6.1-2.4,7.7,7.7,0,0,1,3.4.7,7.8,7.8,0,0,1,2.6,1.7,10.1,10.1,0,0,1,1.6,2.6,8.7,8.7,0,0,1,.6,3.2,8.7,8.7,0,0,1-2.2,5.6,6.8,6.8,0,0,1-2.6,1.8A7.7,7.7,0,0,1,201.4,60Zm-4.1-8.1a5.8,5.8,0,0,0,.3,1.9,6.4,6.4,0,0,0,.8,1.4,3.1,3.1,0,0,0,1.3,1,3.6,3.6,0,0,0,3.3,0,3.1,3.1,0,0,0,1.3-1,3.8,3.8,0,0,0,.9-1.5,5.4,5.4,0,0,0,.3-1.9,5.8,5.8,0,0,0-.3-1.9,6,6,0,0,0-.9-1.5,3.8,3.8,0,0,0-1.3-.9,3.2,3.2,0,0,0-1.6-.4,3.3,3.3,0,0,0-1.7.4,3.1,3.1,0,0,0-1.3,1,5.3,5.3,0,0,0-.8,1.5A5.4,5.4,0,0,0,197.3,51.9Z" fill="#fff"/><path d="M217,60a4.4,4.4,0,0,1-3.7-1.6,7.4,7.4,0,0,1-1.2-4.6V44h4v8.9c0,2.5.9,3.7,2.6,3.7a4.8,4.8,0,0,0,2.3-.7,5.8,5.8,0,0,0,1.8-2.2V44h4V55.1a2,2,0,0,0,.2.9l.9.3v3.4h-2a3.1,3.1,0,0,1-1.7-.5,2.1,2.1,0,0,1-.7-1.4V56.7a7.2,7.2,0,0,1-2.7,2.5A8.7,8.7,0,0,1,217,60Z" fill="#fff"/><path d="M240.2,47.4a10.1,10.1,0,0,0-3.2.7,4.3,4.3,0,0,0-2.1,2.1v9.5h-4V44h3.7v3.3a6.7,6.7,0,0,1,2.1-2.6,5,5,0,0,1,2.7-1h.8Z" fill="#fff"/><path d="M248.6,60l-1.9-.2-2.1-.4-1.9-.6-1.6-.9,1.7-2.7a10.5,10.5,0,0,0,5.8,1.9,3.4,3.4,0,0,0,1.9-.4,1.6,1.6,0,0,0,.8-1.3,1.4,1.4,0,0,0-.9-1.3,20.9,20.9,0,0,0-2.9-.9l-2.6-.7-1.7-.9a2.8,2.8,0,0,1-1-1.2,3.3,3.3,0,0,1-.3-1.5,4.7,4.7,0,0,1,1.8-3.8,7,7,0,0,1,2.1-1.1,10.9,10.9,0,0,1,5.8.2,12.3,12.3,0,0,1,3.1,1.4l-1.6,2.5a9.3,9.3,0,0,0-2.5-1.2,6.7,6.7,0,0,0-2.4-.4,4.8,4.8,0,0,0-1.8.4,1.5,1.5,0,0,0-.7,1.4,1.3,1.3,0,0,0,.7,1.2l2.5.8a17.1,17.1,0,0,1,2.9.8,8.5,8.5,0,0,1,1.9,1,2.5,2.5,0,0,1,1.1,1.2,4.3,4.3,0,0,1,.4,1.7,4.6,4.6,0,0,1-.5,2.1,4.7,4.7,0,0,1-1.3,1.5,5.1,5.1,0,0,1-2.1,1A7.7,7.7,0,0,1,248.6,60Z" fill="#fff"/><path d="M36.4,324a4.6,4.6,0,0,1-2.1-.4,4,4,0,0,1-1.7-1,6.1,6.1,0,0,1-1.2-1.6,6.5,6.5,0,0,1-.4-2,5.4,5.4,0,0,1,.5-2.1,7,7,0,0,1,1.4-1.6,10.2,10.2,0,0,1,2.1-1,11,11,0,0,1,2.7-.4l2.1.2,1.8.5v-.9a3.2,3.2,0,0,0-.9-2.4,4,4,0,0,0-2.6-.8,6.9,6.9,0,0,0-2.5.4,12.8,12.8,0,0,0-2.5,1.4l-1.2-2.6a11.8,11.8,0,0,1,6.5-2c2.3,0,4.1.5,5.3,1.7a5.9,5.9,0,0,1,1.9,4.8v4.9a2,2,0,0,0,.2.9l.9.3v3.4h-2a2.9,2.9,0,0,1-1.7-.5,2.3,2.3,0,0,1-.7-1.4v-.8a7.5,7.5,0,0,1-2.6,2.1A8.8,8.8,0,0,1,36.4,324Zm1.1-3a6.4,6.4,0,0,0,2-.3,3.9,3.9,0,0,0,1.4-1,1.5,1.5,0,0,0,.7-1.1v-1.8l-1.6-.5H38.4a4.2,4.2,0,0,0-2.6.7,2.4,2.4,0,0,0-1,1.8,2.3,2.3,0,0,0,.8,1.7A3.1,3.1,0,0,0,37.5,321Z" fill="#fff"/><path d="M48.5,315.8a10.6,10.6,0,0,1,.5-3.1,9,9,0,0,1,1.7-2.6,7.8,7.8,0,0,1,2.6-1.7,7.7,7.7,0,0,1,3.4-.7,8.4,8.4,0,0,1,4.4,1.1,7.1,7.1,0,0,1,2.8,2.9l-4,1.2a3.3,3.3,0,0,0-1.3-1.3,4.1,4.1,0,0,0-1.9-.5,2.9,2.9,0,0,0-1.6.4,3.8,3.8,0,0,0-1.3.9,3.8,3.8,0,0,0-.9,1.5,5.8,5.8,0,0,0-.3,1.9,4.8,4.8,0,0,0,1.2,3.4,3.1,3.1,0,0,0,1.3,1,4.7,4.7,0,0,0,1.6.4,3.6,3.6,0,0,0,2-.6,3.3,3.3,0,0,0,1.3-1.3l3.9,1.2a5.8,5.8,0,0,1-2.7,2.9,8.9,8.9,0,0,1-7.9.5,6.8,6.8,0,0,1-2.6-1.8,7.8,7.8,0,0,1-1.7-2.6A10.6,10.6,0,0,1,48.5,315.8Z" fill="#fff"/><path d="M65.4,315.8a8.1,8.1,0,0,1,.6-3.1,7.1,7.1,0,0,1,1.6-2.6,8.8,8.8,0,0,1,6.1-2.4,9,9,0,0,1,4.4,1.1,6.9,6.9,0,0,1,2.7,2.9l-4,1.2a2.7,2.7,0,0,0-1.3-1.3,4.1,4.1,0,0,0-1.9-.5,3.2,3.2,0,0,0-1.6.4,3.8,3.8,0,0,0-1.3.9,3.8,3.8,0,0,0-.9,1.5,5.8,5.8,0,0,0-.3,1.9,3.8,3.8,0,0,0,.4,1.9,5.3,5.3,0,0,0,.8,1.5,3.1,3.1,0,0,0,1.3,1,4.7,4.7,0,0,0,1.6.4,3.4,3.4,0,0,0,2-.6,2.7,2.7,0,0,0,1.3-1.3l3.9,1.2a6.1,6.1,0,0,1-2.6,2.9,8.4,8.4,0,0,1-4.5,1.2,8.1,8.1,0,0,1-3.5-.7,7.6,7.6,0,0,1-4.2-4.4A8.1,8.1,0,0,1,65.4,315.8Z" fill="#fff"/><path d="M90.6,324a7.4,7.4,0,0,1-3.4-.7,6.9,6.9,0,0,1-2.6-1.7,7.3,7.3,0,0,1-1.7-2.6,8.1,8.1,0,0,1-.6-3.1,8.7,8.7,0,0,1,.6-3.2,8,8,0,0,1,1.6-2.6,7.8,7.8,0,0,1,2.6-1.7,8.1,8.1,0,0,1,3.5-.7,7.4,7.4,0,0,1,3.4.7,6.9,6.9,0,0,1,2.6,1.7,7.1,7.1,0,0,1,1.6,2.6,8.1,8.1,0,0,1,.6,3.1v.7c0,.3,0,.5-.1.6H86.6a4.7,4.7,0,0,0,.4,1.7,12.5,12.5,0,0,0,.9,1.2l1.3.8a3.9,3.9,0,0,0,1.5.2,5.9,5.9,0,0,0,2.3-.5,3.3,3.3,0,0,0,1.5-1.6l3.4,1a6.5,6.5,0,0,1-2.8,2.9A8.2,8.2,0,0,1,90.6,324Zm4.1-9.5a4.3,4.3,0,0,0-1.3-2.8,4.3,4.3,0,0,0-2.8-1.1,3.8,3.8,0,0,0-2.8,1.1,2.7,2.7,0,0,0-.9,1.2,4.2,4.2,0,0,0-.4,1.6Z" fill="#fff"/><path d="M115.9,323.7h-4v-8.8a5,5,0,0,0-.7-2.8,2.1,2.1,0,0,0-1.8-.9l-1.3.3-1.2.6-1,1.1a3.1,3.1,0,0,0-.6,1.3v9.2h-4V308h3.6v2.9a6.4,6.4,0,0,1,2.5-2.4,9.1,9.1,0,0,1,3.7-.8,5.4,5.4,0,0,1,2.4.5,6.7,6.7,0,0,1,1.5,1.4,11.8,11.8,0,0,1,.7,2,17.9,17.9,0,0,1,.2,2.3Z" fill="#fff"/><path d="M128.7,322.9l-2,.7a10.1,10.1,0,0,1-2.5.4,4,4,0,0,1-1.5-.3,2.6,2.6,0,0,1-1.3-.6,2.7,2.7,0,0,1-.9-1.2,4.8,4.8,0,0,1-.3-1.8v-9h-2.1V308h2.1v-5.1h4V308h3.3v3.1h-3.3v7.6c0,.6.1,1,.4,1.2a2.1,2.1,0,0,0,1.1.4l1.2-.2,1-.4Z" fill="#fff"/><path d="M136.9,315.8a8.1,8.1,0,0,1,.6-3.1,8.7,8.7,0,0,1,1.6-2.6,8.3,8.3,0,0,1,2.7-1.7,7.4,7.4,0,0,1,3.4-.7,8.7,8.7,0,0,1,4.4,1.1,6.9,6.9,0,0,1,2.7,2.9l-3.9,1.2a4,4,0,0,0-3.2-1.8,2.9,2.9,0,0,0-1.6.4,3,3,0,0,0-1.3.9,3.8,3.8,0,0,0-.9,1.5,5.8,5.8,0,0,0-.3,1.9,5.4,5.4,0,0,0,.3,1.9,3.8,3.8,0,0,0,.9,1.5,3.1,3.1,0,0,0,1.3,1,4.2,4.2,0,0,0,1.6.4,3.6,3.6,0,0,0,2-.6,2.5,2.5,0,0,0,1.2-1.3l4,1.2a6.9,6.9,0,0,1-2.7,2.9,7.9,7.9,0,0,1-4.5,1.2,7.7,7.7,0,0,1-3.4-.7,6.8,6.8,0,0,1-2.6-1.8,7.8,7.8,0,0,1-1.7-2.6A8.1,8.1,0,0,1,136.9,315.8Z" fill="#fff"/><path d="M161.9,324a7.4,7.4,0,0,1-3.4-.7,6.1,6.1,0,0,1-2.6-1.8,7.8,7.8,0,0,1-1.7-2.6,9.9,9.9,0,0,1-.5-3,11.3,11.3,0,0,1,.5-3.2,10.6,10.6,0,0,1,1.7-2.6,6.9,6.9,0,0,1,2.6-1.7,7.4,7.4,0,0,1,3.4-.7,8.1,8.1,0,0,1,3.5.7,7.4,7.4,0,0,1,2.5,1.7,10.6,10.6,0,0,1,1.7,2.6,11.3,11.3,0,0,1,.5,3.2,9.9,9.9,0,0,1-.5,3,7.8,7.8,0,0,1-1.7,2.6,6.4,6.4,0,0,1-2.5,1.8A8.1,8.1,0,0,1,161.9,324Zm-4.1-8.1a5.8,5.8,0,0,0,.3,1.9,4.2,4.2,0,0,0,.9,1.4,3.1,3.1,0,0,0,1.3,1,3.4,3.4,0,0,0,3.2,0,2.6,2.6,0,0,0,1.3-1,3.8,3.8,0,0,0,.9-1.5,5.4,5.4,0,0,0,.3-1.9,5.8,5.8,0,0,0-.3-1.9,6,6,0,0,0-.9-1.5,3,3,0,0,0-1.3-.9,3.4,3.4,0,0,0-3.2,0,3.1,3.1,0,0,0-1.3,1,3.8,3.8,0,0,0-.9,1.5A5.4,5.4,0,0,0,157.8,315.9Z" fill="#fff"/><path d="M172.7,301.8h4.1v16.7c0,1.2.5,1.8,1.6,1.8h.8l.8-.3.5,3.2a4.8,4.8,0,0,1-1.8.6,7.5,7.5,0,0,1-2,.2,3.6,3.6,0,0,1-4-3.8Z" fill="#fff"/><path d="M189.5,324a7.8,7.8,0,0,1-3.5-.7,6.8,6.8,0,0,1-2.6-1.8,8.7,8.7,0,0,1-2.2-5.6,8.7,8.7,0,0,1,.6-3.2,10.1,10.1,0,0,1,1.6-2.6,8.8,8.8,0,0,1,6.1-2.4,7.7,7.7,0,0,1,3.4.7,7.8,7.8,0,0,1,2.6,1.7,10.1,10.1,0,0,1,1.6,2.6,8.7,8.7,0,0,1,.6,3.2,8.7,8.7,0,0,1-2.2,5.6,6.8,6.8,0,0,1-2.6,1.8A7.7,7.7,0,0,1,189.5,324Zm-4.2-8.1a5.8,5.8,0,0,0,.4,1.9,6.4,6.4,0,0,0,.8,1.4,3.1,3.1,0,0,0,1.3,1,3.6,3.6,0,0,0,3.3,0,3.1,3.1,0,0,0,1.3-1,4.8,4.8,0,0,0,1.2-3.4,5.8,5.8,0,0,0-.3-1.9,11.9,11.9,0,0,0-.9-1.5,3.8,3.8,0,0,0-1.3-.9,3.2,3.2,0,0,0-1.6-.4,3.3,3.3,0,0,0-1.7.4,3.1,3.1,0,0,0-1.3,1,6.5,6.5,0,0,0-1.2,3.4Z" fill="#fff"/><path d="M205.1,324a4.4,4.4,0,0,1-3.7-1.6,7.4,7.4,0,0,1-1.2-4.6V308h4v8.9c0,2.5.9,3.7,2.6,3.7a4.8,4.8,0,0,0,2.3-.7,5.8,5.8,0,0,0,1.8-2.2V308h4v11.1a2,2,0,0,0,.2.9l.9.3v3.4h-2a2.9,2.9,0,0,1-1.7-.5,2.1,2.1,0,0,1-.7-1.4v-1.3a7.2,7.2,0,0,1-2.7,2.5A8.7,8.7,0,0,1,205.1,324Z" fill="#fff"/><path d="M228.3,311.4a10.1,10.1,0,0,0-3.2.7,4.3,4.3,0,0,0-2.1,2.1v9.5h-4V308h3.7v3.3a6.7,6.7,0,0,1,2.1-2.6,5,5,0,0,1,2.7-1h.8Z" fill="#fff"/><polygon points="86.6 424.6 93.8 424.6 95.7 416.3 88.5 416.3 86.6 424.6" fill="#ff397f"/><path d="M208.8,416.7a7.4,7.4,0,0,0-2.5-1.7,6,6,0,0,0-3-.7,7.3,7.3,0,0,0-3,.6,6.4,6.4,0,0,0-2.5,1.8,7.7,7.7,0,0,0-2.3,5.6,8.1,8.1,0,0,0,.6,3.1,10.1,10.1,0,0,0,1.7,2.5,7.2,7.2,0,0,0,2.5,1.6,7.3,7.3,0,0,0,3,.6,8.1,8.1,0,0,0,5.6-2.2,9.6,9.6,0,0,0,1.6-2.5,6.7,6.7,0,0,0,.7-3.1,8.3,8.3,0,0,0-2.4-5.6Z" fill="#ff397f"/><path d="M131.1,406.4a3.1,3.1,0,0,0-2,.5,3,3,0,0,0-1.3,1.2,5.1,5.1,0,0,0-.7,1.7,6.9,6.9,0,0,0-.3,2V414h7.7v-3.9c0-.3.1-.7.1-1.1s.1-.7.2-1a3.1,3.1,0,0,0,.2-.8,6,6,0,0,0-1.9-.6A7.5,7.5,0,0,0,131.1,406.4Z" fill="#ff397f"/><path d="M31,341V505H1269V341Zm79.9,75.3h-8.7l-2,8.3H108v6H98.7L96,441.8H89.5l2.8-11.2H85.1l-2.7,11.2H75.9l2.8-11.2H72v-6h8.1l2-8.3H74.8v-5.6h8.7l2.8-11.5h6.5l-2.9,11.5h7.2l2.8-11.5h6.5l-2.9,11.5h7.4Zm40.6-11-1.9-.8a8.8,8.8,0,0,0-2.4-.3,4.2,4.2,0,0,0-3.6,1.7,7.1,7.1,0,0,0-1.1,3.9V414h8.3v6.2h-8.3v21.6h-8V420.2h-7.7v21.6h-8V420.2h-4.1V414h4.1v-1.9a16.3,16.3,0,0,1,.7-5,13.9,13.9,0,0,1,2.1-4,9.3,9.3,0,0,1,3.3-2.6,11.5,11.5,0,0,1,4.6-1,17.4,17.4,0,0,1,3.9.5,24.3,24.3,0,0,1,3.8,1.3,10.9,10.9,0,0,1,3.5-2.9,10.5,10.5,0,0,1,4.9-1,13.1,13.1,0,0,1,4.1.6l3.5,1.2Zm31,38.1a12,12,0,0,1-3.2,3.9,14,14,0,0,1-4.9,2.4,21.5,21.5,0,0,1-6.4.9,21,21,0,0,1-8.2-1.5,14.4,14.4,0,0,1-5.7-4.3l4.5-5.7a10.8,10.8,0,0,0,3.7,3.1,12,12,0,0,0,5.4,1.1,9.1,9.1,0,0,0,5.6-1.5,5,5,0,0,0,1.9-4.4,5.5,5.5,0,0,0-2.2-4.8c-1.5-1.1-3.7-1.7-6.7-1.7h-1.7v-6h1.9a9,9,0,0,0,5.7-1.6,5.4,5.4,0,0,0,2-4.3,4.1,4.1,0,0,0-1.6-3.6,7.4,7.4,0,0,0-4.4-1.2,9.9,9.9,0,0,0-4.9,1.2,10.3,10.3,0,0,0-3.6,3.6l-5-5.7a11.2,11.2,0,0,1,2.4-2.5,25.9,25.9,0,0,1,3.3-1.9,25.8,25.8,0,0,1,4.2-1.2,22.2,22.2,0,0,1,4.5-.5,19.4,19.4,0,0,1,5.6.8,11.7,11.7,0,0,1,4.3,2.2,9.9,9.9,0,0,1,2.8,3.3,8.8,8.8,0,0,1,1,4.3,13.4,13.4,0,0,1-.5,3.5,11.8,11.8,0,0,1-1.6,2.9,10,10,0,0,1-2.4,2.2,9.1,9.1,0,0,1-3.1,1.2,9.9,9.9,0,0,1,6.1,3.6,11.2,11.2,0,0,1,2.3,7.1A11.9,11.9,0,0,1,182.5,443.4Zm35.4-6a25.8,25.8,0,0,1-3.3,7.5,16.2,16.2,0,0,1-5.2,4.6,15.5,15.5,0,0,1-6.9,1.5,17.1,17.1,0,0,1-7.4-1.7,16.3,16.3,0,0,1-5.8-5l4.7-5a9.6,9.6,0,0,0,3.7,3.5,10.6,10.6,0,0,0,5,1.3,7.5,7.5,0,0,0,6.3-3.2c1.6-2.1,2.5-5.1,2.5-9a8.2,8.2,0,0,1-3.5,3.4,12,12,0,0,1-5.4,1.3,16.3,16.3,0,0,1-5.9-1.1,14.5,14.5,0,0,1-4.7-3,14.9,14.9,0,0,1-3.1-4.6,14.7,14.7,0,0,1-1.1-5.6,14.3,14.3,0,0,1,1.2-5.8,17,17,0,0,1,3.2-4.7,15.1,15.1,0,0,1,5-3.1,15.4,15.4,0,0,1,6.1-1.2,16.7,16.7,0,0,1,6.5,1.3,13.6,13.6,0,0,1,5,3.9,18.5,18.5,0,0,1,3.1,6.1,26.5,26.5,0,0,1,1.1,8.3A45.2,45.2,0,0,1,217.9,437.4Zm16,12h-9l17.5-35.3H223.1v-7.3h32Zm43.6-44.1a10.2,10.2,0,0,0-2.1-.8l-2.2-.3c-2.8,0-4.2,1.8-4.2,5.6V414h7.6v6.2H269v21.6h-8.1V420.2h-4.1V414h4.1v-3.9a14.2,14.2,0,0,1,2.9-9.3,9.3,9.3,0,0,1,7.6-3.4,18.5,18.5,0,0,1,7.8,1.8Z" fill="#ff397f"/><path d="M707.6,159.7a7.4,7.4,0,0,0-2.5-1.7,6,6,0,0,0-3-.7,7.3,7.3,0,0,0-3,.6,6.4,6.4,0,0,0-2.5,1.8,7.7,7.7,0,0,0-2.3,5.6,8.1,8.1,0,0,0,.6,3.1,10.1,10.1,0,0,0,1.7,2.5,7.2,7.2,0,0,0,2.5,1.6,7.3,7.3,0,0,0,3,.6,8.1,8.1,0,0,0,5.6-2.2,9.6,9.6,0,0,0,1.6-2.5,6.7,6.7,0,0,0,.7-3.1,8.3,8.3,0,0,0-2.4-5.6Z" fill="#233591"/><path d="M467,85V249H832V85Zm80.9,74.3h-8.7l-2,8.3H545v6h-9.3L533,184.8h-6.5l2.8-11.2h-7.2l-2.7,11.2h-6.5l2.8-11.2H509v-6h8.1l2-8.3h-7.3v-5.6h8.7l2.8-11.5h6.5l-2.9,11.5h7.2l2.8-11.5h6.5l-2.9,11.5h7.4Zm33.6,25.5H552.6a24.3,24.3,0,0,1,.4-4.9,14.4,14.4,0,0,1,1.5-4.1,13.1,13.1,0,0,1,2.9-3.4,21.7,21.7,0,0,1,4.6-3.2l4.3-2.3,3.2-1.9a6.4,6.4,0,0,0,1.9-1.7,2.7,2.7,0,0,0,.7-2,4.3,4.3,0,0,0-1.4-3.1,6.6,6.6,0,0,0-4.2-1.3,10.9,10.9,0,0,0-2.6.4,9.7,9.7,0,0,0-2.3,1.1,13.3,13.3,0,0,0-1.9,1.4l-1.6,1.8-5.1-6a11.1,11.1,0,0,1,2.2-1.8,17.9,17.9,0,0,1,3.4-1.9,24.1,24.1,0,0,1,4.3-1.4,21,21,0,0,1,5.1-.6,18,18,0,0,1,5.4.8,12.2,12.2,0,0,1,4.1,2.1A9.6,9.6,0,0,1,580,156a9.5,9.5,0,0,1,.9,4.1,8.4,8.4,0,0,1-.8,3.7,10,10,0,0,1-2,2.9,13.2,13.2,0,0,1-2.6,2.2l-2.7,1.7-2.4,1.3-2.4,1.6-2.2,1.9a10.1,10.1,0,0,0-1.5,2.1h17.2Zm32.9,1.6a11.6,11.6,0,0,1-3.1,3.9,14.9,14.9,0,0,1-4.9,2.4,22.2,22.2,0,0,1-6.5.9,20.5,20.5,0,0,1-8.1-1.5,14.7,14.7,0,0,1-5.8-4.3l4.6-5.7a9.2,9.2,0,0,0,3.7,3.1,11.9,11.9,0,0,0,5.3,1.1,8.9,8.9,0,0,0,5.6-1.5,5,5,0,0,0,2-4.4,5.5,5.5,0,0,0-2.2-4.8c-1.5-1.1-3.7-1.7-6.7-1.7h-1.7v-6h1.8c2.5,0,4.4-.5,5.7-1.6a5.2,5.2,0,0,0,2.1-4.3,4.2,4.2,0,0,0-1.7-3.6,7.1,7.1,0,0,0-4.3-1.2,10.3,10.3,0,0,0-5,1.2,11,11,0,0,0-3.5,3.6l-5.1-5.7a11.2,11.2,0,0,1,2.4-2.5,21.7,21.7,0,0,1,3.4-1.9,24.5,24.5,0,0,1,4.1-1.2,23.1,23.1,0,0,1,4.6-.5,19.9,19.9,0,0,1,5.6.8,12.5,12.5,0,0,1,4.3,2.2,9.9,9.9,0,0,1,2.8,3.3,10.1,10.1,0,0,1,1,4.3,10.3,10.3,0,0,1-.6,3.5,11.4,11.4,0,0,1-1.5,2.9,8.8,8.8,0,0,1-2.5,2.2,7.7,7.7,0,0,1-3.1,1.2,9.4,9.4,0,0,1,6.1,3.6,12.2,12.2,0,0,1,1.2,12.2Zm33.6,0a12,12,0,0,1-3.2,3.9,14,14,0,0,1-4.9,2.4,21.5,21.5,0,0,1-6.4.9,21,21,0,0,1-8.2-1.5,14.4,14.4,0,0,1-5.7-4.3l4.5-5.7a10.8,10.8,0,0,0,3.7,3.1,12,12,0,0,0,5.4,1.1,9.1,9.1,0,0,0,5.6-1.5,5,5,0,0,0,1.9-4.4,5.5,5.5,0,0,0-2.2-4.8c-1.5-1.1-3.7-1.7-6.7-1.7h-1.7v-6H632a9,9,0,0,0,5.7-1.6,5.4,5.4,0,0,0,2-4.3,4.1,4.1,0,0,0-1.6-3.6,7.4,7.4,0,0,0-4.4-1.2,9.9,9.9,0,0,0-4.9,1.2,10.3,10.3,0,0,0-3.6,3.6l-5-5.7a11.2,11.2,0,0,1,2.4-2.5,16.8,16.8,0,0,1,7.5-3.1,22.2,22.2,0,0,1,4.5-.5,19.4,19.4,0,0,1,5.6.8,11.7,11.7,0,0,1,4.3,2.2,9.9,9.9,0,0,1,2.8,3.3,8.8,8.8,0,0,1,1,4.3,13.4,13.4,0,0,1-.5,3.5,11.8,11.8,0,0,1-1.6,2.9,10,10,0,0,1-2.4,2.2,9.1,9.1,0,0,1-3.1,1.2,9.9,9.9,0,0,1,6.1,3.6,11.2,11.2,0,0,1,2.3,7.1A11.9,11.9,0,0,1,648,186.4Zm33.5-1.2a12.5,12.5,0,0,1-3.3,4.5,14.4,14.4,0,0,1-4.9,3,18.5,18.5,0,0,1-6.3,1,16.8,16.8,0,0,1-8.4-2,13.9,13.9,0,0,1-5.6-5.4l4.7-4.8a12.8,12.8,0,0,0,4.2,3.8,10.6,10.6,0,0,0,5.2,1.3,7.5,7.5,0,0,0,5.3-1.9,6.7,6.7,0,0,0,2.1-5.2,6.5,6.5,0,0,0-2-5,6.6,6.6,0,0,0-4.9-2,7.8,7.8,0,0,0-6.5,3.4h-7a12,12,0,0,1,.3-1.4q.1-1,.6-3c.2-1.2.5-2.5.7-4l.9-4.6c.8-3.7,1.6-7.8,2.4-12.4h21v7.3H664.9l-1.7,9.6a5.4,5.4,0,0,1,2.1-1.3,10.6,10.6,0,0,1,3.4-.5,16.9,16.9,0,0,1,5.6,1,13.3,13.3,0,0,1,4.4,2.8,12.8,12.8,0,0,1,3,4.3,14.7,14.7,0,0,1,1,5.6A14.1,14.1,0,0,1,681.5,185.2Zm35.2-4.8a25.8,25.8,0,0,1-3.3,7.5,16.2,16.2,0,0,1-5.2,4.6,15.5,15.5,0,0,1-6.9,1.5,17.1,17.1,0,0,1-7.4-1.7,16.3,16.3,0,0,1-5.8-5l4.7-5a9.6,9.6,0,0,0,3.7,3.5,10.6,10.6,0,0,0,5,1.3,7.5,7.5,0,0,0,6.3-3.2c1.6-2.1,2.5-5.1,2.5-9a8.2,8.2,0,0,1-3.5,3.4,12,12,0,0,1-5.4,1.3,16.3,16.3,0,0,1-5.9-1.1,14.5,14.5,0,0,1-4.7-3,14.9,14.9,0,0,1-3.1-4.6,14.7,14.7,0,0,1-1.1-5.6,14.3,14.3,0,0,1,1.2-5.8,17,17,0,0,1,3.2-4.7,15.1,15.1,0,0,1,5-3.1,15.4,15.4,0,0,1,6.1-1.2,16.7,16.7,0,0,1,6.5,1.3,13.6,13.6,0,0,1,5,3.9,18.5,18.5,0,0,1,3.1,6.1,26.5,26.5,0,0,1,1.1,8.3A45.2,45.2,0,0,1,716.7,180.4Zm31.4,4.4H723.8v-7.3h8.5V159.3a6.5,6.5,0,0,1-1.7,1.5,14.8,14.8,0,0,1-2.5,1.4,14.5,14.5,0,0,1-2.9,1.1,9.2,9.2,0,0,1-2.6.4v-7.5a6,6,0,0,0,2.6-.7,18.2,18.2,0,0,0,3.1-1.6l2.6-1.9a4.5,4.5,0,0,0,1.4-1.5h8.2v27h7.6Z" fill="#233591"/><polygon points="523.6 167.6 530.8 167.6 532.7 159.3 525.5 159.3 523.6 167.6" fill="#233591"/><path d="M1046,158a6.6,6.6,0,0,0,1.9.9,5.2,5.2,0,0,0,2.1.4,5.4,5.4,0,0,0,2.2-.4,5.6,5.6,0,0,0,1.9-.9,7.5,7.5,0,0,0,1.5-1.6,5.1,5.1,0,0,0,.5-2.2,4.3,4.3,0,0,0-1.8-3.6,7.5,7.5,0,0,0-4.3-1.3,6.8,6.8,0,0,0-4.2,1.4,4.2,4.2,0,0,0-1.8,3.5,3.8,3.8,0,0,0,.6,2.2A3.6,3.6,0,0,0,1046,158Z" fill="#7989e2"/><path d="M1091.2,159.7a8.5,8.5,0,0,0-2.5-1.7,6,6,0,0,0-3-.7,8.1,8.1,0,0,0-3.1.6,6.9,6.9,0,0,0-2.4,1.8,8.8,8.8,0,0,0-1.8,2.5,8.5,8.5,0,0,0-.6,3.1,8.1,8.1,0,0,0,.6,3.1,13.8,13.8,0,0,0,1.7,2.5,8.1,8.1,0,0,0,5.6,2.2,7.3,7.3,0,0,0,3-.6,7.2,7.2,0,0,0,2.5-1.6,10.1,10.1,0,0,0,1.7-2.5,8.1,8.1,0,0,0,.6-3.1,7.7,7.7,0,0,0-2.3-5.6Z" fill="#7989e2"/><path d="M1055.1,167a5.5,5.5,0,0,0-2.4-1.2,7.6,7.6,0,0,0-2.7-.5,8.6,8.6,0,0,0-2.7.5,7,7,0,0,0-2.4,1.3,6.4,6.4,0,0,0-1.6,2,5.9,5.9,0,0,0,0,5.2,6.7,6.7,0,0,0,1.7,2,7,7,0,0,0,2.4,1.3,8.6,8.6,0,0,0,2.7.5,7.6,7.6,0,0,0,2.7-.5,7.3,7.3,0,0,0,2.3-1.3,6.8,6.8,0,0,0,1.7-2.1,5.1,5.1,0,0,0,.6-2.5,6,6,0,0,0-.7-2.7A5.3,5.3,0,0,0,1055.1,167Z" fill="#7989e2"/><polygon points="935.6 167.6 942.8 167.6 944.7 159.3 937.5 159.3 935.6 167.6" fill="#7989e2"/><path d="M1019.6,159.7a10.1,10.1,0,0,0-2.5-1.7,6.7,6.7,0,0,0-3.1-.7,7.7,7.7,0,0,0-3,.6,7.2,7.2,0,0,0-2.5,1.8,7.7,7.7,0,0,0-2.3,5.6,8.1,8.1,0,0,0,.6,3.1,10.1,10.1,0,0,0,1.7,2.5,7.2,7.2,0,0,0,2.5,1.6,7.7,7.7,0,0,0,3,.6,8.1,8.1,0,0,0,3.1-.6,7.2,7.2,0,0,0,2.5-1.6,13.8,13.8,0,0,0,1.7-2.5,8.1,8.1,0,0,0,.6-3.1,8.5,8.5,0,0,0-.6-3.1A11,11,0,0,0,1019.6,159.7Z" fill="#7989e2"/><path d="M878,85V249h391V85Zm81.9,74.3h-8.7l-2,8.3H957v6h-9.3L945,184.8h-6.5l2.8-11.2h-7.2l-2.7,11.2h-6.5l2.8-11.2H921v-6h8.1l2-8.3h-7.3v-5.6h8.7l2.8-11.5h6.5l-2.9,11.5h7.2l2.8-11.5h6.5l-2.9,11.5h7.4Zm15.3,33.1h-9l17.5-35.3H964.4v-7.3h32Zm53.4-12a25.8,25.8,0,0,1-3.3,7.5,13.9,13.9,0,0,1-12,6.1,17.2,17.2,0,0,1-7.5-1.7,15.2,15.2,0,0,1-5.7-5l4.6-5a9.6,9.6,0,0,0,3.7,3.5,10.6,10.6,0,0,0,5,1.3,7.6,7.6,0,0,0,6.4-3.2c1.5-2.1,2.4-5.1,2.5-9a8.5,8.5,0,0,1-3.6,3.4,11.3,11.3,0,0,1-5.4,1.3,16.3,16.3,0,0,1-5.9-1.1,13.1,13.1,0,0,1-4.6-3,13.6,13.6,0,0,1-3.2-4.6,14.7,14.7,0,0,1-1.1-5.6,14.3,14.3,0,0,1,1.2-5.8,15.4,15.4,0,0,1,3.3-4.7,13.7,13.7,0,0,1,4.9-3.1,15.4,15.4,0,0,1,6.1-1.2,16.7,16.7,0,0,1,6.5,1.3,13.6,13.6,0,0,1,5,3.9,16.7,16.7,0,0,1,3.1,6.1,26.4,26.4,0,0,1,1.2,8.3A39.9,39.9,0,0,1,1028.6,180.4Zm35.7-2.8a12.3,12.3,0,0,1-3.4,4.1,13.7,13.7,0,0,1-4.9,2.7,19.8,19.8,0,0,1-6,.9,17.2,17.2,0,0,1-6-1,13.9,13.9,0,0,1-4.9-2.8,13.4,13.4,0,0,1-3.3-4.2,12.5,12.5,0,0,1-1.2-5.4,9.7,9.7,0,0,1,.6-3.4,11.7,11.7,0,0,1,1.5-2.7,16.1,16.1,0,0,1,2.2-2.3l2.4-1.5a10.2,10.2,0,0,1-3.9-3.3,8,8,0,0,1-1.5-4.7,9.7,9.7,0,0,1,1.3-5.1,11.6,11.6,0,0,1,3.3-3.7,15,15,0,0,1,4.6-2.2,14,14,0,0,1,4.9-.8,17.3,17.3,0,0,1,5,.7,15.3,15.3,0,0,1,4.6,2.3,12,12,0,0,1,3.4,3.7,10,10,0,0,1,1.3,5,8.1,8.1,0,0,1-1.6,4.8,10.2,10.2,0,0,1-3.9,3.3,17.5,17.5,0,0,1,2.5,1.6,15.1,15.1,0,0,1,2.1,2.3,8,8,0,0,1,1.5,2.9,9,9,0,0,1,.6,3.4A11.9,11.9,0,0,1,1064.3,177.6Zm35.9,2.8a25.8,25.8,0,0,1-3.3,7.5,14.3,14.3,0,0,1-5.2,4.6,15.1,15.1,0,0,1-6.8,1.5,15.9,15.9,0,0,1-13.2-6.7l4.6-5a10.3,10.3,0,0,0,3.7,3.5,10.9,10.9,0,0,0,5,1.3,7.6,7.6,0,0,0,6.4-3.2c1.6-2.1,2.4-5.1,2.5-9a8.8,8.8,0,0,1-3.5,3.4,12,12,0,0,1-5.4,1.3,15.9,15.9,0,0,1-5.9-1.1,13.5,13.5,0,0,1-4.7-3,13.3,13.3,0,0,1-3.1-4.6,13.1,13.1,0,0,1-1.2-5.6,14.3,14.3,0,0,1,1.2-5.8,15.4,15.4,0,0,1,3.3-4.7,14.6,14.6,0,0,1,4.9-3.1,15.9,15.9,0,0,1,6.2-1.2,17.1,17.1,0,0,1,6.5,1.3,13.3,13.3,0,0,1,4.9,3.9,18.6,18.6,0,0,1,3.2,6.1,29.8,29.8,0,0,1,1.1,8.3A39.9,39.9,0,0,1,1100.2,180.4Zm38-10c0,.5-.1.9-.1,1.2h-24.3a8,8,0,0,0,.9,3.3,7.6,7.6,0,0,0,1.8,2.5,8.7,8.7,0,0,0,2.6,1.6,10.5,10.5,0,0,0,3,.5,8.9,8.9,0,0,0,4.5-1.2,6.2,6.2,0,0,0,2.9-3.1l6.9,2a14.1,14.1,0,0,1-5.5,5.9,17.8,17.8,0,0,1-9.1,2.3,18.3,18.3,0,0,1-6.8-1.3,14.9,14.9,0,0,1-8.6-8.7,15.9,15.9,0,0,1-1.2-6.2,16.8,16.8,0,0,1,1.2-6.3,13.6,13.6,0,0,1,3.3-5.2,16.1,16.1,0,0,1,5.2-3.6,17.5,17.5,0,0,1,7-1.3,16.5,16.5,0,0,1,6.8,1.3,16.1,16.1,0,0,1,5.2,3.6,14.2,14.2,0,0,1,3.2,5.1,16.1,16.1,0,0,1,1.1,6.1Zm32.7,14.4H1142a34.7,34.7,0,0,1,.4-4.9,14.4,14.4,0,0,1,1.5-4.1,15.4,15.4,0,0,1,2.9-3.4,24.6,24.6,0,0,1,4.6-3.2l4.3-2.3,3.2-1.9a6.9,6.9,0,0,0,2-1.7,3.2,3.2,0,0,0,.6-2,4.3,4.3,0,0,0-1.4-3.1,6.6,6.6,0,0,0-4.2-1.3,10.9,10.9,0,0,0-2.6.4,9.7,9.7,0,0,0-2.3,1.1,13.3,13.3,0,0,0-1.9,1.4l-1.6,1.8-5.1-6a11.1,11.1,0,0,1,2.2-1.8,21.7,21.7,0,0,1,3.4-1.9,24.1,24.1,0,0,1,4.3-1.4,21,21,0,0,1,5.1-.6,18,18,0,0,1,5.4.8,12.2,12.2,0,0,1,4.1,2.1,9.6,9.6,0,0,1,2.5,3.2,9.5,9.5,0,0,1,.9,4.1,8.4,8.4,0,0,1-.8,3.7,10,10,0,0,1-2,2.9,13.2,13.2,0,0,1-2.6,2.2l-2.7,1.7-2.3,1.3-2.5,1.6-2.2,1.9a10.1,10.1,0,0,0-1.5,2.1h17.2Z" fill="#7989e2"/><path d="M1121.7,158.6a7.7,7.7,0,0,0-3,.6,8.2,8.2,0,0,0-2.5,1.6,10.8,10.8,0,0,0-1.8,2.4,11.6,11.6,0,0,0-.8,3.2H1130a8.1,8.1,0,0,0-2.7-5.6A7.6,7.6,0,0,0,1121.7,158.6Z" fill="#7989e2"/><path d="M164.1,158a6.6,6.6,0,0,0,1.9.9,5.4,5.4,0,0,0,2.2.4,5.2,5.2,0,0,0,2.1-.4,7.2,7.2,0,0,0,2-.9,10.7,10.7,0,0,0,1.4-1.6,5.1,5.1,0,0,0,.5-2.2,4.3,4.3,0,0,0-1.8-3.6,7.5,7.5,0,0,0-4.2-1.3,6.9,6.9,0,0,0-4.3,1.4,4.1,4.1,0,0,0-1.7,3.5,3.8,3.8,0,0,0,.5,2.2A4.4,4.4,0,0,0,164.1,158Z" fill="#08164c"/><path d="M173.2,167a5.7,5.7,0,0,0-2.3-1.2,8.6,8.6,0,0,0-2.7-.5,8.7,8.7,0,0,0-2.8.5,5.8,5.8,0,0,0-2.3,1.3,5.6,5.6,0,0,0-2.3,4.6,4.6,4.6,0,0,0,.7,2.6,5.3,5.3,0,0,0,1.6,2,7,7,0,0,0,2.4,1.3,8.6,8.6,0,0,0,2.7.5,7.6,7.6,0,0,0,2.7-.5,9.2,9.2,0,0,0,2.4-1.3,8.3,8.3,0,0,0,1.6-2.1,5.1,5.1,0,0,0,.6-2.5,5,5,0,0,0-.7-2.7A5.3,5.3,0,0,0,173.2,167Z" fill="#08164c"/><path d="M136.9,159.3a6.9,6.9,0,0,0-2.3-2.2,6,6,0,0,0-6,0,6.4,6.4,0,0,0-2.4,2.2,9.3,9.3,0,0,0-1.5,3.5,16.4,16.4,0,0,0,0,8.8,9.5,9.5,0,0,0,1.5,3.4,5.6,5.6,0,0,0,2.4,2.2,6,6,0,0,0,6,0,6,6,0,0,0,2.3-2.2,11.9,11.9,0,0,0,1.6-3.4,19.6,19.6,0,0,0,0-8.8A11.3,11.3,0,0,0,136.9,159.3Z" fill="#08164c"/><path d="M239.9,165a7.2,7.2,0,0,0-2.5-1.6,8.1,8.1,0,0,0-3.1-.6,7.7,7.7,0,0,0-3,.6,7.2,7.2,0,0,0-2.5,1.6,10.1,10.1,0,0,0-1.7,2.5,8.1,8.1,0,0,0-.6,3.1,7.9,7.9,0,0,0,4.8,7.3,6.3,6.3,0,0,0,3,.7,8.1,8.1,0,0,0,3.1-.6,10.5,10.5,0,0,0,2.5-1.8,11,11,0,0,0,1.7-2.5,8.5,8.5,0,0,0,.6-3.1,8.1,8.1,0,0,0-.6-3.1A13.8,13.8,0,0,0,239.9,165Z" fill="#08164c"/><polygon points="86.6 167.6 93.8 167.6 95.7 159.3 88.5 159.3 86.6 167.6" fill="#08164c"/><path d="M30,85V249H421V85Zm80.9,74.3h-8.7l-2,8.3H108v6H98.7L96,184.8H89.5l2.8-11.2H85.1l-2.7,11.2H75.9l2.8-11.2H72v-6h8.1l2-8.3H74.8v-5.6h8.7l2.8-11.5h6.5l-2.9,11.5h7.2l2.8-11.5h6.5l-2.9,11.5h7.4Zm35,15.2a17.6,17.6,0,0,1-3.2,5.7,13.8,13.8,0,0,1-4.9,3.8,14.4,14.4,0,0,1-12.4,0,13.8,13.8,0,0,1-4.9-3.8,17.8,17.8,0,0,1-3.3-5.7,24.8,24.8,0,0,1,0-14.6,17.8,17.8,0,0,1,3.3-5.7,15.4,15.4,0,0,1,4.9-3.9,15.4,15.4,0,0,1,12.4,0,15.4,15.4,0,0,1,4.9,3.9,17.6,17.6,0,0,1,3.2,5.7,22.8,22.8,0,0,1,0,14.6Zm36.5,3.1a11.2,11.2,0,0,1-3.4,4.1,13.7,13.7,0,0,1-4.9,2.7,19.8,19.8,0,0,1-6,.9,17.2,17.2,0,0,1-6-1,14.9,14.9,0,0,1-4.9-2.8,13.4,13.4,0,0,1-3.3-4.2,12.5,12.5,0,0,1-1.2-5.4,9.7,9.7,0,0,1,.6-3.4,11.7,11.7,0,0,1,1.5-2.7,16.1,16.1,0,0,1,2.2-2.3l2.4-1.5a9.2,9.2,0,0,1-3.8-3.3A7.4,7.4,0,0,1,154,154a9.7,9.7,0,0,1,1.3-5.1,12.9,12.9,0,0,1,3.3-3.7,15,15,0,0,1,4.6-2.2,14.5,14.5,0,0,1,5-.8,16.6,16.6,0,0,1,4.9.7,15.3,15.3,0,0,1,4.6,2.3,12,12,0,0,1,3.4,3.7,10,10,0,0,1,1.3,5,8.1,8.1,0,0,1-1.6,4.8,10.2,10.2,0,0,1-3.9,3.3,13.2,13.2,0,0,1,2.5,1.6,23.9,23.9,0,0,1,2.2,2.3,13.2,13.2,0,0,1,1.5,2.9,11.6,11.6,0,0,1,.5,3.4A11.9,11.9,0,0,1,182.4,177.6Zm32.1,7.2H190.1v-7.3h8.5V159.3a5.9,5.9,0,0,1-1.6,1.5,15.9,15.9,0,0,1-2.6,1.4,13.6,13.6,0,0,1-2.8,1.1,9.3,9.3,0,0,1-2.7.4v-7.5a6.7,6.7,0,0,0,2.7-.7,21.9,21.9,0,0,0,3-1.6l2.7-1.9a4,4,0,0,0,1.3-1.5h8.3v27h7.6Zm34.2-8.4a14.3,14.3,0,0,1-3.3,4.7,14.6,14.6,0,0,1-4.9,3.1,15.9,15.9,0,0,1-6.2,1.2,17.1,17.1,0,0,1-6.5-1.3,13.3,13.3,0,0,1-4.9-3.9,18.6,18.6,0,0,1-3.2-6.1,29.8,29.8,0,0,1-1.1-8.3,39.9,39.9,0,0,1,1.2-10.3,25.8,25.8,0,0,1,3.3-7.5,14.3,14.3,0,0,1,5.2-4.6,15.1,15.1,0,0,1,6.8-1.5,17.2,17.2,0,0,1,7.5,1.7,16,16,0,0,1,5.7,5l-4.6,5a10.3,10.3,0,0,0-3.7-3.5,10.6,10.6,0,0,0-5-1.3,7.6,7.6,0,0,0-6.4,3.2c-1.6,2.1-2.4,5.1-2.5,9a8.5,8.5,0,0,1,3.6-3.4,11.3,11.3,0,0,1,5.4-1.3,16.2,16.2,0,0,1,5.8,1.1,13.5,13.5,0,0,1,4.7,3,14.4,14.4,0,0,1,4.3,10.2A14.3,14.3,0,0,1,248.7,176.4Zm35.7,7.1h-5.3v8.9h-8v-8.9H253.5v-7.2l20.1-25.8h5.5v25.8h5.3Zm29-.4a16.8,16.8,0,0,1-8.9,2.3,18.4,18.4,0,0,1-6.9-1.3,15.1,15.1,0,0,1-5.2-3.6,16.1,16.1,0,0,1-3.4-5.2,18.3,18.3,0,0,1,0-12.5,16,16,0,0,1,8.5-8.7,17.3,17.3,0,0,1,6.9-1.3,16.2,16.2,0,0,1,8.8,2.2,14.3,14.3,0,0,1,5.4,5.8l-7.8,2.4a7.5,7.5,0,0,0-2.7-2.6,6.9,6.9,0,0,0-3.7-1,8.8,8.8,0,0,0-3.3.7,8.3,8.3,0,0,0-2.6,1.9,11.1,11.1,0,0,0-1.7,3,10,10,0,0,0-.7,3.9,11.7,11.7,0,0,0,.7,3.8,7.5,7.5,0,0,0,1.8,3,7,7,0,0,0,2.6,1.9,6.8,6.8,0,0,0,3.2.7,7.6,7.6,0,0,0,3.9-1,6.1,6.1,0,0,0,2.6-2.7l7.9,2.4A13.3,13.3,0,0,1,313.4,183.1Z" fill="#08164c"/><polygon points="272 176.3 272 162.7 261.6 176.3 272 176.3" fill="#08164c"/></svg>