<svg id="Layer_1" data-name="Layer 1" xmlns="http://www.w3.org/2000/svg" width="1300" height="546" viewBox="0 0 1300 546"><title>parkbot-colour</title><path d="M38.5,60a6.6,6.6,0,0,1-3.2-.8,5.4,5.4,0,0,1-2.2-2.3v9.2h-4V44h3.5v2.7a5.8,5.8,0,0,1,2.2-2.2,6.9,6.9,0,0,1,3.2-.8,7.3,7.3,0,0,1,3,.6,8,8,0,0,1,2.3,1.8,9.3,9.3,0,0,1,1.5,2.6,7.8,7.8,0,0,1,.6,3.1,11.3,11.3,0,0,1-.5,3.2,9.3,9.3,0,0,1-1.5,2.6,6.5,6.5,0,0,1-2.2,1.8A6,6,0,0,1,38.5,60Zm-1.3-3.4a4.2,4.2,0,0,0,1.6-.4,3.5,3.5,0,0,0,1.3-1.1,3.8,3.8,0,0,0,.9-1.5,5.7,5.7,0,0,0,.3-1.8,4.1,4.1,0,0,0-.4-1.9,4.2,4.2,0,0,0-.9-1.4,2.8,2.8,0,0,0-1.4-1,3.3,3.3,0,0,0-1.7-.4l-1.2.2a3,3,0,0,0-1.1.6l-.9.8a2.4,2.4,0,0,0-.6,1.1v3.6a5.5,5.5,0,0,0,1.7,2.3A3.6,3.6,0,0,0,37.2,56.6Z" fill="#fff"/><path d="M57.4,47.4a11.4,11.4,0,0,0-3.3.7,4.5,4.5,0,0,0-2,2.1v9.5H48V44h3.7v3.3a9.2,9.2,0,0,1,2.1-2.6,5,5,0,0,1,2.8-1h.8Z" fill="#fff"/><path d="M59.7,41.8v-4h4v4Zm0,17.9V44h4V59.7Z" fill="#fff"/><path d="M91.7,59.7H87.6V50.9a5.1,5.1,0,0,0-.6-2.8,2.3,2.3,0,0,0-1.8-.9,3.3,3.3,0,0,0-2.2.9,6.1,6.1,0,0,0-1.5,2.4v9.2H77.4V50.9a5.1,5.1,0,0,0-.6-2.8,2,2,0,0,0-1.8-.9,3.3,3.3,0,0,0-2.2.9,4.9,4.9,0,0,0-1.5,2.4v9.2H67.2V44h3.7v2.9a6.2,6.2,0,0,1,2.4-2.4,7.4,7.4,0,0,1,3.4-.8,4.3,4.3,0,0,1,3.1,1A4.9,4.9,0,0,1,81.2,47a6.4,6.4,0,0,1,2.4-2.5,7.4,7.4,0,0,1,3.4-.8,5.2,5.2,0,0,1,2.3.5,6.7,6.7,0,0,1,1.5,1.4,11.8,11.8,0,0,1,.7,2,17.9,17.9,0,0,1,.2,2.3Z" fill="#fff"/><path d="M99.4,60a5.2,5.2,0,0,1-2.1-.4,4.8,4.8,0,0,1-1.7-1A4.2,4.2,0,0,1,94.5,57a4.5,4.5,0,0,1-.4-2,4.1,4.1,0,0,1,.5-2.1,4.8,4.8,0,0,1,1.3-1.6,9,9,0,0,1,2.2-1,11,11,0,0,1,2.7-.4l2,.2,1.8.5v-.9a3.2,3.2,0,0,0-.9-2.4,4,4,0,0,0-2.6-.8,6.9,6.9,0,0,0-2.5.4,10,10,0,0,0-2.4,1.4l-1.3-2.6a11.9,11.9,0,0,1,6.6-2,7.1,7.1,0,0,1,5.2,1.7,5.9,5.9,0,0,1,1.9,4.8v4.9a1.2,1.2,0,0,0,.3.9l.8.3v3.4h-1.9a3,3,0,0,1-1.8-.5,2.3,2.3,0,0,1-.7-1.4v-.8a7.5,7.5,0,0,1-2.6,2.1A8.3,8.3,0,0,1,99.4,60Zm1.2-3a6.3,6.3,0,0,0,1.9-.3,3.9,3.9,0,0,0,1.4-1,1.3,1.3,0,0,0,.7-1.1V52.8l-1.6-.5h-1.6a3.9,3.9,0,0,0-2.5.7,2.1,2.1,0,0,0-1,1.8,2.2,2.2,0,0,0,.7,1.7A3.4,3.4,0,0,0,100.6,57Z" fill="#fff"/><path d="M121.8,47.4a11.4,11.4,0,0,0-3.3.7,4.5,4.5,0,0,0-2,2.1v9.5h-4.1V44h3.7v3.3a8,8,0,0,1,2.2-2.6,4.5,4.5,0,0,1,2.7-1h.8Z" fill="#fff"/><path d="M124.3,62.7l1,.3h1.4l.6-.5.6-1a16.2,16.2,0,0,0,.6-1.7L122.3,44h4.1l4.3,12.2L134.5,44h3.7l-6.6,18.8a5.3,5.3,0,0,1-5.2,3.8,7.8,7.8,0,0,1-2.1-.4Z" fill="#fff"/><path d="M145.8,51.8a8.1,8.1,0,0,1,.6-3.1,7.3,7.3,0,0,1,1.7-2.6,6.9,6.9,0,0,1,2.6-1.7,7.4,7.4,0,0,1,3.4-.7,8.7,8.7,0,0,1,4.4,1.1,6.9,6.9,0,0,1,2.7,2.9l-3.9,1.2a2.9,2.9,0,0,0-1.4-1.3,3.5,3.5,0,0,0-1.8-.5,2.9,2.9,0,0,0-1.6.4,3,3,0,0,0-1.3.9,3.8,3.8,0,0,0-.9,1.5,5.8,5.8,0,0,0-.3,1.9,5.4,5.4,0,0,0,.3,1.9,3.8,3.8,0,0,0,.9,1.5,3.1,3.1,0,0,0,1.3,1,4.2,4.2,0,0,0,1.6.4,3.6,3.6,0,0,0,2-.6,3.3,3.3,0,0,0,1.3-1.3l3.9,1.2a6.3,6.3,0,0,1-2.7,2.9,7.9,7.9,0,0,1-4.5,1.2,7.7,7.7,0,0,1-3.4-.7,6.8,6.8,0,0,1-2.6-1.8,7.8,7.8,0,0,1-1.7-2.6A8.1,8.1,0,0,1,145.8,51.8Z" fill="#fff"/><path d="M170.8,60a7.4,7.4,0,0,1-3.4-.7,6.8,6.8,0,0,1-2.6-1.8,7.8,7.8,0,0,1-1.7-2.6,9.9,9.9,0,0,1-.5-3,11.3,11.3,0,0,1,.5-3.2,10.6,10.6,0,0,1,1.7-2.6,7.8,7.8,0,0,1,2.6-1.7,7.4,7.4,0,0,1,3.4-.7,7.8,7.8,0,0,1,3.5.7,7.4,7.4,0,0,1,2.5,1.7,8.3,8.3,0,0,1,1.7,2.6,8.6,8.6,0,0,1,.5,3.2,7.9,7.9,0,0,1-2.1,5.6,6.8,6.8,0,0,1-2.6,1.8A7.8,7.8,0,0,1,170.8,60Zm-4.1-8.1a5.8,5.8,0,0,0,.3,1.9,4.2,4.2,0,0,0,.9,1.4,3.1,3.1,0,0,0,1.3,1,3.4,3.4,0,0,0,3.2,0,3.3,3.3,0,0,0,1.4-1,5.3,5.3,0,0,0,.8-1.5,5.4,5.4,0,0,0,.3-1.9,5.8,5.8,0,0,0-.3-1.9,10.9,10.9,0,0,0-.8-1.5,4.2,4.2,0,0,0-1.4-.9,3.4,3.4,0,0,0-3.2,0,3.1,3.1,0,0,0-1.3,1A3.8,3.8,0,0,0,167,50,5.4,5.4,0,0,0,166.7,51.9Z" fill="#fff"/><path d="M181.7,37.8h4V54.5c0,1.2.5,1.8,1.6,1.8h.8l.8-.3.6,3.2a6,6,0,0,1-1.9.6,7.5,7.5,0,0,1-2,.2,3.9,3.9,0,0,1-2.9-1,3.7,3.7,0,0,1-1-2.8Z" fill="#fff"/><path d="M198.4,60a7.8,7.8,0,0,1-3.5-.7,6.8,6.8,0,0,1-2.6-1.8,8.7,8.7,0,0,1-2.2-5.6,8.7,8.7,0,0,1,.6-3.2,10.1,10.1,0,0,1,1.6-2.6,8.8,8.8,0,0,1,6.1-2.4,7.7,7.7,0,0,1,3.4.7,7.8,7.8,0,0,1,2.6,1.7,10.1,10.1,0,0,1,1.6,2.6,8.7,8.7,0,0,1,.6,3.2,8.7,8.7,0,0,1-2.2,5.6,6.8,6.8,0,0,1-2.6,1.8A7.7,7.7,0,0,1,198.4,60Zm-4.1-8.1a5.8,5.8,0,0,0,.3,1.9,6.4,6.4,0,0,0,.8,1.4,3.1,3.1,0,0,0,1.3,1,3.6,3.6,0,0,0,3.3,0,3.1,3.1,0,0,0,1.3-1,3.8,3.8,0,0,0,.9-1.5,5.4,5.4,0,0,0,.3-1.9,5.8,5.8,0,0,0-.3-1.9,6,6,0,0,0-.9-1.5,3.8,3.8,0,0,0-1.3-.9,3.2,3.2,0,0,0-1.6-.4,3.3,3.3,0,0,0-1.7.4,3.1,3.1,0,0,0-1.3,1,5.3,5.3,0,0,0-.8,1.5A5.4,5.4,0,0,0,194.3,51.9Z" fill="#fff"/><path d="M214,60a4.4,4.4,0,0,1-3.7-1.6,7.4,7.4,0,0,1-1.2-4.6V44h4v8.9c0,2.5.9,3.7,2.6,3.7a4.8,4.8,0,0,0,2.3-.7,5.8,5.8,0,0,0,1.8-2.2V44h4V55.1a2,2,0,0,0,.2.9l.9.3v3.4h-2a3.1,3.1,0,0,1-1.7-.5,2.1,2.1,0,0,1-.7-1.4V56.7a7.2,7.2,0,0,1-2.7,2.5A8.7,8.7,0,0,1,214,60Z" fill="#fff"/><path d="M237.2,47.4a10.1,10.1,0,0,0-3.2.7,4.3,4.3,0,0,0-2.1,2.1v9.5h-4V44h3.7v3.3a6.7,6.7,0,0,1,2.1-2.6,5,5,0,0,1,2.7-1h.8Z" fill="#fff"/><path d="M245.6,60l-1.9-.2-2.1-.4-1.9-.6-1.6-.9,1.7-2.7a10.5,10.5,0,0,0,5.8,1.9,3.4,3.4,0,0,0,1.9-.4,1.6,1.6,0,0,0,.8-1.3,1.4,1.4,0,0,0-.9-1.3,20.9,20.9,0,0,0-2.9-.9l-2.6-.7-1.7-.9a2.8,2.8,0,0,1-1-1.2,3.3,3.3,0,0,1-.3-1.5,4.7,4.7,0,0,1,1.8-3.8,7,7,0,0,1,2.1-1.1,10.9,10.9,0,0,1,5.8.2,12.3,12.3,0,0,1,3.1,1.4l-1.6,2.5a9.3,9.3,0,0,0-2.5-1.2,6.7,6.7,0,0,0-2.4-.4,4.8,4.8,0,0,0-1.8.4,1.5,1.5,0,0,0-.7,1.4,1.3,1.3,0,0,0,.7,1.2l2.5.8a17.1,17.1,0,0,1,2.9.8,8.5,8.5,0,0,1,1.9,1,2.5,2.5,0,0,1,1.1,1.2,4.3,4.3,0,0,1,.4,1.7,4.6,4.6,0,0,1-.5,2.1,4.7,4.7,0,0,1-1.3,1.5,5.1,5.1,0,0,1-2.1,1A7.7,7.7,0,0,1,245.6,60Z" fill="#fff"/><path d="M33.4,324a4.6,4.6,0,0,1-2.1-.4,4,4,0,0,1-1.7-1,6.1,6.1,0,0,1-1.2-1.6,6.5,6.5,0,0,1-.4-2,5.4,5.4,0,0,1,.5-2.1,7,7,0,0,1,1.4-1.6,10.2,10.2,0,0,1,2.1-1,11,11,0,0,1,2.7-.4l2.1.2,1.8.5v-.9a3.2,3.2,0,0,0-.9-2.4,4,4,0,0,0-2.6-.8,6.9,6.9,0,0,0-2.5.4,12.8,12.8,0,0,0-2.5,1.4l-1.2-2.6a11.8,11.8,0,0,1,6.5-2c2.3,0,4.1.5,5.3,1.7a5.9,5.9,0,0,1,1.9,4.8v4.9a2,2,0,0,0,.2.9l.9.3v3.4h-2a2.9,2.9,0,0,1-1.7-.5,2.3,2.3,0,0,1-.7-1.4v-.8a7.5,7.5,0,0,1-2.6,2.1A8.8,8.8,0,0,1,33.4,324Zm1.1-3a6.4,6.4,0,0,0,2-.3,3.9,3.9,0,0,0,1.4-1,1.5,1.5,0,0,0,.7-1.1v-1.8l-1.6-.5H35.4a4.2,4.2,0,0,0-2.6.7,2.4,2.4,0,0,0-1,1.8,2.3,2.3,0,0,0,.8,1.7A3.1,3.1,0,0,0,34.5,321Z" fill="#fff"/><path d="M45.5,315.8a10.6,10.6,0,0,1,.5-3.1,9,9,0,0,1,1.7-2.6,7.8,7.8,0,0,1,2.6-1.7,7.7,7.7,0,0,1,3.4-.7,8.4,8.4,0,0,1,4.4,1.1,7.1,7.1,0,0,1,2.8,2.9l-4,1.2a3.3,3.3,0,0,0-1.3-1.3,4.1,4.1,0,0,0-1.9-.5,2.9,2.9,0,0,0-1.6.4,3.8,3.8,0,0,0-1.3.9,3.8,3.8,0,0,0-.9,1.5,5.8,5.8,0,0,0-.3,1.9,4.8,4.8,0,0,0,1.2,3.4,3.1,3.1,0,0,0,1.3,1,4.7,4.7,0,0,0,1.6.4,3.6,3.6,0,0,0,2-.6,3.3,3.3,0,0,0,1.3-1.3l3.9,1.2a5.8,5.8,0,0,1-2.7,2.9,8.9,8.9,0,0,1-7.9.5,6.8,6.8,0,0,1-2.6-1.8,7.8,7.8,0,0,1-1.7-2.6A10.6,10.6,0,0,1,45.5,315.8Z" fill="#fff"/><path d="M62.4,315.8a8.1,8.1,0,0,1,.6-3.1,7.1,7.1,0,0,1,1.6-2.6,8.8,8.8,0,0,1,6.1-2.4,9,9,0,0,1,4.4,1.1,6.9,6.9,0,0,1,2.7,2.9l-4,1.2a2.7,2.7,0,0,0-1.3-1.3,4.1,4.1,0,0,0-1.9-.5,3.2,3.2,0,0,0-1.6.4,3.8,3.8,0,0,0-1.3.9,3.8,3.8,0,0,0-.9,1.5,5.8,5.8,0,0,0-.3,1.9,3.8,3.8,0,0,0,.4,1.9,5.3,5.3,0,0,0,.8,1.5,3.1,3.1,0,0,0,1.3,1,4.7,4.7,0,0,0,1.6.4,3.4,3.4,0,0,0,2-.6,2.7,2.7,0,0,0,1.3-1.3l3.9,1.2a6.1,6.1,0,0,1-2.6,2.9,8.4,8.4,0,0,1-4.5,1.2,8.1,8.1,0,0,1-3.5-.7,7.6,7.6,0,0,1-4.2-4.4A8.1,8.1,0,0,1,62.4,315.8Z" fill="#fff"/><path d="M87.6,324a7.4,7.4,0,0,1-3.4-.7,6.9,6.9,0,0,1-2.6-1.7,7.3,7.3,0,0,1-1.7-2.6,8.1,8.1,0,0,1-.6-3.1,8.7,8.7,0,0,1,.6-3.2,8,8,0,0,1,1.6-2.6,7.8,7.8,0,0,1,2.6-1.7,8.1,8.1,0,0,1,3.5-.7,7.4,7.4,0,0,1,3.4.7,6.9,6.9,0,0,1,2.6,1.7,7.1,7.1,0,0,1,1.6,2.6,8.1,8.1,0,0,1,.6,3.1v.7c0,.3,0,.5-.1.6H83.6a4.7,4.7,0,0,0,.4,1.7,12.5,12.5,0,0,0,.9,1.2l1.3.8a3.9,3.9,0,0,0,1.5.2,5.9,5.9,0,0,0,2.3-.5,3.3,3.3,0,0,0,1.5-1.6l3.4,1a6.5,6.5,0,0,1-2.8,2.9A8.2,8.2,0,0,1,87.6,324Zm4.1-9.5a4.3,4.3,0,0,0-1.3-2.8,4.3,4.3,0,0,0-2.8-1.1,3.8,3.8,0,0,0-2.8,1.1,2.7,2.7,0,0,0-.9,1.2,4.2,4.2,0,0,0-.4,1.6Z" fill="#fff"/><path d="M112.9,323.7h-4v-8.8a5,5,0,0,0-.7-2.8,2.1,2.1,0,0,0-1.8-.9l-1.3.3-1.2.6-1,1.1a3.1,3.1,0,0,0-.6,1.3v9.2h-4V308h3.6v2.9a6.4,6.4,0,0,1,2.5-2.4,9.1,9.1,0,0,1,3.7-.8,5.4,5.4,0,0,1,2.4.5,6.7,6.7,0,0,1,1.5,1.4,11.8,11.8,0,0,1,.7,2,17.9,17.9,0,0,1,.2,2.3Z" fill="#fff"/><path d="M125.7,322.9l-2,.7a10.1,10.1,0,0,1-2.5.4,4,4,0,0,1-1.5-.3,2.6,2.6,0,0,1-1.3-.6,2.7,2.7,0,0,1-.9-1.2,4.8,4.8,0,0,1-.3-1.8v-9h-2.1V308h2.1v-5.1h4V308h3.3v3.1h-3.3v7.6c0,.6.1,1,.4,1.2a2.1,2.1,0,0,0,1.1.4l1.2-.2,1-.4Z" fill="#fff"/><path d="M133.9,315.8a8.1,8.1,0,0,1,.6-3.1,8.7,8.7,0,0,1,1.6-2.6,8.3,8.3,0,0,1,2.7-1.7,7.4,7.4,0,0,1,3.4-.7,8.7,8.7,0,0,1,4.4,1.1,6.9,6.9,0,0,1,2.7,2.9l-3.9,1.2a4,4,0,0,0-3.2-1.8,2.9,2.9,0,0,0-1.6.4,3,3,0,0,0-1.3.9,3.8,3.8,0,0,0-.9,1.5,5.8,5.8,0,0,0-.3,1.9,5.4,5.4,0,0,0,.3,1.9,3.8,3.8,0,0,0,.9,1.5,3.1,3.1,0,0,0,1.3,1,4.2,4.2,0,0,0,1.6.4,3.6,3.6,0,0,0,2-.6,2.5,2.5,0,0,0,1.2-1.3l4,1.2a6.9,6.9,0,0,1-2.7,2.9,7.9,7.9,0,0,1-4.5,1.2,7.7,7.7,0,0,1-3.4-.7,6.8,6.8,0,0,1-2.6-1.8,7.8,7.8,0,0,1-1.7-2.6A8.1,8.1,0,0,1,133.9,315.8Z" fill="#fff"/><path d="M158.9,324a7.4,7.4,0,0,1-3.4-.7,6.1,6.1,0,0,1-2.6-1.8,7.8,7.8,0,0,1-1.7-2.6,9.9,9.9,0,0,1-.5-3,11.3,11.3,0,0,1,.5-3.2,10.6,10.6,0,0,1,1.7-2.6,6.9,6.9,0,0,1,2.6-1.7,7.4,7.4,0,0,1,3.4-.7,8.1,8.1,0,0,1,3.5.7,7.4,7.4,0,0,1,2.5,1.7,10.6,10.6,0,0,1,1.7,2.6,11.3,11.3,0,0,1,.5,3.2,9.9,9.9,0,0,1-.5,3,7.8,7.8,0,0,1-1.7,2.6,6.4,6.4,0,0,1-2.5,1.8A8.1,8.1,0,0,1,158.9,324Zm-4.1-8.1a5.8,5.8,0,0,0,.3,1.9,4.2,4.2,0,0,0,.9,1.4,3.1,3.1,0,0,0,1.3,1,3.4,3.4,0,0,0,3.2,0,2.6,2.6,0,0,0,1.3-1,3.8,3.8,0,0,0,.9-1.5,5.4,5.4,0,0,0,.3-1.9,5.8,5.8,0,0,0-.3-1.9,6,6,0,0,0-.9-1.5,3,3,0,0,0-1.3-.9,3.4,3.4,0,0,0-3.2,0,3.1,3.1,0,0,0-1.3,1,3.8,3.8,0,0,0-.9,1.5A5.4,5.4,0,0,0,154.8,315.9Z" fill="#fff"/><path d="M169.7,301.8h4.1v16.7c0,1.2.5,1.8,1.6,1.8h.8l.8-.3.5,3.2a4.8,4.8,0,0,1-1.8.6,7.5,7.5,0,0,1-2,.2,3.6,3.6,0,0,1-4-3.8Z" fill="#fff"/><path d="M186.5,324a7.8,7.8,0,0,1-3.5-.7,6.8,6.8,0,0,1-2.6-1.8,8.7,8.7,0,0,1-2.2-5.6,8.7,8.7,0,0,1,.6-3.2,10.1,10.1,0,0,1,1.6-2.6,8.8,8.8,0,0,1,6.1-2.4,7.7,7.7,0,0,1,3.4.7,7.8,7.8,0,0,1,2.6,1.7,10.1,10.1,0,0,1,1.6,2.6,8.7,8.7,0,0,1,.6,3.2,8.7,8.7,0,0,1-2.2,5.6,6.8,6.8,0,0,1-2.6,1.8A7.7,7.7,0,0,1,186.5,324Zm-4.2-8.1a5.8,5.8,0,0,0,.4,1.9,6.4,6.4,0,0,0,.8,1.4,3.1,3.1,0,0,0,1.3,1,3.6,3.6,0,0,0,3.3,0,3.1,3.1,0,0,0,1.3-1,4.8,4.8,0,0,0,1.2-3.4,5.8,5.8,0,0,0-.3-1.9,11.9,11.9,0,0,0-.9-1.5,3.8,3.8,0,0,0-1.3-.9,3.2,3.2,0,0,0-1.6-.4,3.3,3.3,0,0,0-1.7.4,3.1,3.1,0,0,0-1.3,1,6.5,6.5,0,0,0-1.2,3.4Z" fill="#fff"/><path d="M202.1,324a4.4,4.4,0,0,1-3.7-1.6,7.4,7.4,0,0,1-1.2-4.6V308h4v8.9c0,2.5.9,3.7,2.6,3.7a4.8,4.8,0,0,0,2.3-.7,5.8,5.8,0,0,0,1.8-2.2V308h4v11.1a2,2,0,0,0,.2.9l.9.3v3.4h-2a2.9,2.9,0,0,1-1.7-.5,2.1,2.1,0,0,1-.7-1.4v-1.3a7.2,7.2,0,0,1-2.7,2.5A8.7,8.7,0,0,1,202.1,324Z" fill="#fff"/><path d="M225.3,311.4a10.1,10.1,0,0,0-3.2.7,4.3,4.3,0,0,0-2.1,2.1v9.5h-4V308h3.7v3.3a6.7,6.7,0,0,1,2.1-2.6,5,5,0,0,1,2.7-1h.8Z" fill="#fff"/><path d="M132.3,158.6a7.3,7.3,0,0,0-3,.6,7.2,7.2,0,0,0-2.5,1.6,10.8,10.8,0,0,0-1.8,2.4,11.6,11.6,0,0,0-.8,3.2h16.3a8,8,0,0,0-2.6-5.6A7.6,7.6,0,0,0,132.3,158.6Z" fill="#ee9714"/><path d="M173.1,159.7a7.4,7.4,0,0,0-2.5-1.7,6,6,0,0,0-3-.7,7.3,7.3,0,0,0-3,.6,6.4,6.4,0,0,0-2.5,1.8,8.5,8.5,0,0,0-1.7,2.5,7,7,0,0,0-.7,3.1,6.7,6.7,0,0,0,.7,3.1,9.6,9.6,0,0,0,1.6,2.5,8.3,8.3,0,0,0,8.7,1.6,7.8,7.8,0,0,0,2.4-1.6,10.1,10.1,0,0,0,1.7-2.5,8.2,8.2,0,0,0,.7-3.1,8.7,8.7,0,0,0-.7-3.1A8.5,8.5,0,0,0,173.1,159.7Z" fill="#ee9714"/><polygon points="51.6 167.6 58.8 167.6 60.7 159.3 53.5 159.3 51.6 167.6" fill="#ee9714"/><path d="M96.3,158.6a7.3,7.3,0,0,0-3,.6,7.2,7.2,0,0,0-2.5,1.6,10.8,10.8,0,0,0-1.8,2.4,11.6,11.6,0,0,0-.8,3.2h16.3a8,8,0,0,0-2.6-5.6A7.6,7.6,0,0,0,96.3,158.6Z" fill="#ee9714"/><polygon points="268.8 176.3 268.8 162.7 258.4 176.3 268.8 176.3" fill="#ee9714"/><path d="M26,84V248H317V84Zm49.9,75.3H67.2l-2,8.3H73v6H63.7L61,184.8H54.5l2.8-11.2H50.1l-2.7,11.2H40.9l2.8-11.2H37v-6h8.1l2-8.3H39.8v-5.6h8.7l2.8-11.5h6.5l-2.9,11.5h7.2l2.8-11.5h6.5l-2.9,11.5h7.4Zm36.9,11.1a3.7,3.7,0,0,1-.2,1.2H88.3a13.1,13.1,0,0,0,.9,3.3,7.9,7.9,0,0,0,1.9,2.5,8.7,8.7,0,0,0,2.6,1.6,9.4,9.4,0,0,0,3,.5,8.9,8.9,0,0,0,4.5-1.2,6.2,6.2,0,0,0,2.9-3.1l6.9,2a14.1,14.1,0,0,1-5.5,5.9,17.8,17.8,0,0,1-9.1,2.3,19.3,19.3,0,0,1-6.9-1.3,17,17,0,0,1-5.2-3.5,16.5,16.5,0,0,1-3.3-5.2,15.9,15.9,0,0,1-1.2-6.2,16.8,16.8,0,0,1,1.2-6.3,13.6,13.6,0,0,1,3.3-5.2,15.1,15.1,0,0,1,5.2-3.6,17.3,17.3,0,0,1,6.9-1.3,16.7,16.7,0,0,1,6.9,1.3,17.3,17.3,0,0,1,5.2,3.6,14.2,14.2,0,0,1,3.2,5.1,18.3,18.3,0,0,1,1.1,6.1Zm36,0a3.7,3.7,0,0,1-.2,1.2H124.3a13.1,13.1,0,0,0,.9,3.3,7.9,7.9,0,0,0,1.9,2.5,8.7,8.7,0,0,0,2.6,1.6,9.4,9.4,0,0,0,3,.5,8.9,8.9,0,0,0,4.5-1.2,6.2,6.2,0,0,0,2.9-3.1l6.9,2a14.1,14.1,0,0,1-5.5,5.9,17.8,17.8,0,0,1-9.1,2.3,19.3,19.3,0,0,1-6.9-1.3,17,17,0,0,1-5.2-3.5,16.5,16.5,0,0,1-3.3-5.2,15.9,15.9,0,0,1-1.2-6.2,16.8,16.8,0,0,1,1.2-6.3,13.6,13.6,0,0,1,3.3-5.2,15.1,15.1,0,0,1,5.2-3.6,17.3,17.3,0,0,1,6.9-1.3,16.7,16.7,0,0,1,6.9,1.3,17.3,17.3,0,0,1,5.2,3.6,14.2,14.2,0,0,1,3.2,5.1,18.3,18.3,0,0,1,1.1,6.1Zm33.3,10a21.4,21.4,0,0,1-3.3,7.5,14.9,14.9,0,0,1-5.1,4.6,15.8,15.8,0,0,1-6.9,1.5,16.8,16.8,0,0,1-7.4-1.7,16.3,16.3,0,0,1-5.8-5l4.6-5a9.8,9.8,0,0,0,3.8,3.5,10.2,10.2,0,0,0,4.9,1.3,7.6,7.6,0,0,0,6.4-3.2c1.6-2.1,2.4-5.1,2.5-9a8.8,8.8,0,0,1-3.5,3.4,12,12,0,0,1-5.4,1.3,16.3,16.3,0,0,1-5.9-1.1,13.5,13.5,0,0,1-4.7-3,14.9,14.9,0,0,1-3.1-4.6,13,13,0,0,1-1.1-5.6,14.3,14.3,0,0,1,1.2-5.8,15.1,15.1,0,0,1,3.2-4.7,14.6,14.6,0,0,1,4.9-3.1,15.9,15.9,0,0,1,6.2-1.2,16.7,16.7,0,0,1,6.5,1.3,14.5,14.5,0,0,1,5,3.9,18.5,18.5,0,0,1,3.1,6.1,29.8,29.8,0,0,1,1.1,8.3A39.9,39.9,0,0,1,182.1,180.4Zm16.1,12h-9.1l17.6-35.3H187.3v-7.3h32.1Zm49.5-7.6H223.3v-7.3h8.6V159.3a8.6,8.6,0,0,1-1.7,1.5,20.1,20.1,0,0,1-2.5,1.4,17.2,17.2,0,0,1-2.9,1.1,9.3,9.3,0,0,1-2.7.4v-7.5a6.3,6.3,0,0,0,2.7-.7,21.9,21.9,0,0,0,3-1.6l2.7-1.9a6,6,0,0,0,1.4-1.5h8.2v27h7.6Zm33.5-1.3h-5.3v8.9h-8v-8.9H250.3v-7.2l20.1-25.8h5.5v25.8h5.3Z" fill="#ee9714"/><path d="M128.1,406.4a3.1,3.1,0,0,0-2,.5,3,3,0,0,0-1.3,1.2,5.1,5.1,0,0,0-.7,1.7,6.9,6.9,0,0,0-.3,2V414h7.7v-3.9c0-.3.1-.7.1-1.1s.1-.7.2-1a3.1,3.1,0,0,0,.2-.8,6,6,0,0,0-1.9-.6A7.5,7.5,0,0,0,128.1,406.4Z" fill="#ffc200"/><path d="M241.1,416.3a8.3,8.3,0,0,0-2.4-2.2,5.7,5.7,0,0,0-2.9-.8,6.5,6.5,0,0,0-3.1.8,8.3,8.3,0,0,0-2.4,2.2,14.2,14.2,0,0,0-1.5,3.5,19.6,19.6,0,0,0,0,8.8,15.2,15.2,0,0,0,1.5,3.4,7.1,7.1,0,0,0,2.4,2.2,6.5,6.5,0,0,0,3.1.8,5.7,5.7,0,0,0,2.9-.8,7.1,7.1,0,0,0,2.4-2.2,11.7,11.7,0,0,0,1.5-3.4,16.4,16.4,0,0,0,0-8.8A11.2,11.2,0,0,0,241.1,416.3Z" fill="#ffc200"/><path d="M278,416.3a8.3,8.3,0,0,0-2.4-2.2,5.7,5.7,0,0,0-2.9-.8,6.5,6.5,0,0,0-3.1.8,8.3,8.3,0,0,0-2.4,2.2,14.2,14.2,0,0,0-1.5,3.5,19.6,19.6,0,0,0,0,8.8,15.2,15.2,0,0,0,1.5,3.4,7.1,7.1,0,0,0,2.4,2.2,6.5,6.5,0,0,0,3.1.8,5.7,5.7,0,0,0,2.9-.8A7.1,7.1,0,0,0,278,432a11.7,11.7,0,0,0,1.5-3.4,16.4,16.4,0,0,0,0-8.8A11.2,11.2,0,0,0,278,416.3Z" fill="#ffc200"/><polygon points="83.6 424.6 90.8 424.6 92.7 416.3 85.5 416.3 83.6 424.6" fill="#ffc200"/><path d="M26,341V505H1268V341Zm81.9,75.3H99.2l-2,8.3H105v6H95.7L93,441.8H86.5l2.8-11.2H82.1l-2.7,11.2H72.9l2.8-11.2H69v-6h8.1l2-8.3H71.8v-5.6h8.7l2.8-11.5h6.5l-2.9,11.5h7.2l2.8-11.5h6.5l-2.9,11.5h7.4Zm40.6-11-1.9-.8a8.8,8.8,0,0,0-2.4-.3,4.2,4.2,0,0,0-3.6,1.7,7.1,7.1,0,0,0-1.1,3.9V414h8.3v6.2h-8.3v21.6h-8V420.2h-7.7v21.6h-8V420.2h-4.1V414h4.1v-1.9a16.3,16.3,0,0,1,.7-5,13.9,13.9,0,0,1,2.1-4,9.3,9.3,0,0,1,3.3-2.6,11.5,11.5,0,0,1,4.6-1,17.4,17.4,0,0,1,3.9.5,24.3,24.3,0,0,1,3.8,1.3,10.9,10.9,0,0,1,3.5-2.9,10.5,10.5,0,0,1,4.9-1,13.1,13.1,0,0,1,4.1.6l3.5,1.2Zm28.1,34.8a17.2,17.2,0,0,1-9,2.3,19.3,19.3,0,0,1-6.9-1.3,16.1,16.1,0,0,1-5.2-3.6,15.8,15.8,0,0,1-3.3-5.2,16.7,16.7,0,0,1-1.2-6.2,19,19,0,0,1,1.1-6.3,16,16,0,0,1,3.3-5.1,16.5,16.5,0,0,1,12.2-4.9,16.1,16.1,0,0,1,8.7,2.2,13.9,13.9,0,0,1,5.5,5.8l-7.9,2.4a7.5,7.5,0,0,0-2.7-2.6,6.6,6.6,0,0,0-3.7-1,8.3,8.3,0,0,0-3.2.7,10.1,10.1,0,0,0-2.7,1.9,11.1,11.1,0,0,0-1.7,3,12.3,12.3,0,0,0-.6,3.9,11.6,11.6,0,0,0,.6,3.8,10.9,10.9,0,0,0,1.8,3,7,7,0,0,0,2.6,1.9,7.1,7.1,0,0,0,3.2.7,7.9,7.9,0,0,0,4-1,5.8,5.8,0,0,0,2.5-2.7l7.9,2.4A13.7,13.7,0,0,1,176.6,440.1Zm37.9,1.7H185.6a34.7,34.7,0,0,1,.4-4.9,14.4,14.4,0,0,1,1.5-4.1,15.4,15.4,0,0,1,2.9-3.4,24.6,24.6,0,0,1,4.6-3.2l4.3-2.3,3.2-1.9a6.9,6.9,0,0,0,2-1.7,3.2,3.2,0,0,0,.6-2,4.3,4.3,0,0,0-1.4-3.1,6.6,6.6,0,0,0-4.2-1.3,10.9,10.9,0,0,0-2.6.4,9.7,9.7,0,0,0-2.3,1.1,13.3,13.3,0,0,0-1.9,1.4l-1.6,1.8-5.1-6a11.1,11.1,0,0,1,2.2-1.8,21.7,21.7,0,0,1,3.4-1.9,24.1,24.1,0,0,1,4.3-1.4,21,21,0,0,1,5.1-.6,18,18,0,0,1,5.4.8,12.2,12.2,0,0,1,4.1,2.1A9.6,9.6,0,0,1,213,413a9.5,9.5,0,0,1,.9,4.1,8.4,8.4,0,0,1-.8,3.7,10,10,0,0,1-2,2.9,13.2,13.2,0,0,1-2.6,2.2l-2.7,1.7-2.3,1.3-2.5,1.6-2.2,1.9a10.1,10.1,0,0,0-1.5,2.1h17.2Zm35.6-10.3a17.8,17.8,0,0,1-3.3,5.7,13,13,0,0,1-4.9,3.8,14.2,14.2,0,0,1-12.3,0,14.2,14.2,0,0,1-5-3.8,19.6,19.6,0,0,1-3.2-5.7,22.8,22.8,0,0,1,0-14.6,19.6,19.6,0,0,1,3.2-5.7,15.8,15.8,0,0,1,5-3.9,15.2,15.2,0,0,1,12.3,0,14.4,14.4,0,0,1,4.9,3.9,17.8,17.8,0,0,1,3.3,5.7,22.8,22.8,0,0,1,0,14.6Zm36.9,0a17.8,17.8,0,0,1-3.3,5.7,13,13,0,0,1-4.9,3.8,14.2,14.2,0,0,1-12.3,0,14.2,14.2,0,0,1-5-3.8,19.6,19.6,0,0,1-3.2-5.7,22.8,22.8,0,0,1,0-14.6,19.6,19.6,0,0,1,3.2-5.7,15.8,15.8,0,0,1,5-3.9,15.2,15.2,0,0,1,12.3,0,14.4,14.4,0,0,1,4.9,3.9,17.8,17.8,0,0,1,3.3,5.7,22.8,22.8,0,0,1,0,14.6Z" fill="#ffc200"/><polygon points="387.6 167.6 394.8 167.6 396.7 159.3 389.5 159.3 387.6 167.6" fill="#717171"/><path d="M359,84V248H626V84Zm52.9,75.3h-8.7l-2,8.3H409v6h-9.3L397,184.8h-6.5l2.8-11.2h-7.2l-2.7,11.2h-6.5l2.8-11.2H373v-6h8.1l2-8.3h-7.3v-5.6h8.7l2.8-11.5h6.5l-2.9,11.5h7.2l2.8-11.5h6.5l-2.9,11.5h7.4Zm15.3,33.1h-9l17.5-35.3H416.4v-7.3h32Zm49.5-7.6H452.4v-7.3h8.5V159.3a6.5,6.5,0,0,1-1.7,1.5,20.1,20.1,0,0,1-2.5,1.4,14.5,14.5,0,0,1-2.9,1.1,9.2,9.2,0,0,1-2.6.4v-7.5a6,6,0,0,0,2.6-.7,22.9,22.9,0,0,0,3.1-1.6l2.6-1.9a4.5,4.5,0,0,0,1.4-1.5h8.2v27h7.6Zm14.2,7.6h-9l17.6-35.3H480.1v-7.3h32Zm49.5-7.6H516.1v-7.3h8.5V159.3a6.5,6.5,0,0,1-1.7,1.5,14.8,14.8,0,0,1-2.5,1.4,14.5,14.5,0,0,1-2.9,1.1,9.2,9.2,0,0,1-2.6.4v-7.5a6,6,0,0,0,2.6-.7,18.2,18.2,0,0,0,3.1-1.6l2.6-1.9a4.5,4.5,0,0,0,1.4-1.5h8.2v27h7.6Zm14.3,7.6h-9.1l17.6-35.3H543.8v-7.3h32Zm49.5-7.6H579.8v-7.3h8.5V159.3a5.2,5.2,0,0,1-1.7,1.5,14.8,14.8,0,0,1-2.5,1.4,14.5,14.5,0,0,1-2.9,1.1,8.7,8.7,0,0,1-2.6.4v-7.5a6,6,0,0,0,2.6-.7,18.2,18.2,0,0,0,3.1-1.6l2.6-1.9c.8-.6,1.3-1.1,1.4-1.5h8.2v27h7.7Z" fill="#717171"/><polygon points="700.6 167.6 707.8 167.6 709.7 159.3 702.5 159.3 700.6 167.6" fill="#212121"/><path d="M666,84V248H939V84Zm58.9,75.3h-8.7l-2,8.3H722v6h-9.3L710,184.8h-6.5l2.8-11.2h-7.2l-2.7,11.2h-6.5l2.8-11.2H686v-6h8.1l2-8.3h-7.3v-5.6h8.7l2.8-11.5h6.5l-2.9,11.5h7.2l2.8-11.5h6.5l-2.9,11.5h7.4Zm33.6,25.5H729.6a24.3,24.3,0,0,1,.4-4.9,14.4,14.4,0,0,1,1.5-4.1,13.1,13.1,0,0,1,2.9-3.4,21.7,21.7,0,0,1,4.6-3.2l4.3-2.3,3.2-1.9a6.4,6.4,0,0,0,1.9-1.7,2.7,2.7,0,0,0,.7-2,4.3,4.3,0,0,0-1.4-3.1,6.6,6.6,0,0,0-4.2-1.3,10.9,10.9,0,0,0-2.6.4,9.7,9.7,0,0,0-2.3,1.1,13.3,13.3,0,0,0-1.9,1.4l-1.6,1.8-5.1-6a11.1,11.1,0,0,1,2.2-1.8,17.9,17.9,0,0,1,3.4-1.9,24.1,24.1,0,0,1,4.3-1.4,21,21,0,0,1,5.1-.6,18,18,0,0,1,5.4.8,12.2,12.2,0,0,1,4.1,2.1A9.6,9.6,0,0,1,757,156a9.5,9.5,0,0,1,.9,4.1,8.4,8.4,0,0,1-.8,3.7,10,10,0,0,1-2,2.9,13.2,13.2,0,0,1-2.6,2.2l-2.7,1.7-2.4,1.3-2.4,1.6-2.2,1.9a10.1,10.1,0,0,0-1.5,2.1h17.2Zm30.9,0H765.1v-7.3h8.5V159.3a6.5,6.5,0,0,1-1.7,1.5,20.1,20.1,0,0,1-2.5,1.4,14.5,14.5,0,0,1-2.9,1.1,9.2,9.2,0,0,1-2.6.4v-7.5a6,6,0,0,0,2.6-.7,22.9,22.9,0,0,0,3.1-1.6l2.6-1.9a4.5,4.5,0,0,0,1.4-1.5h8.2v27h7.6Zm32.8,0H793.3a24.3,24.3,0,0,1,.4-4.9,14.4,14.4,0,0,1,1.5-4.1,13.1,13.1,0,0,1,2.9-3.4,21.7,21.7,0,0,1,4.6-3.2l4.3-2.3a35.4,35.4,0,0,0,3.1-1.9,5.8,5.8,0,0,0,2-1.7,3.2,3.2,0,0,0,.7-2,4,4,0,0,0-1.5-3.1,6.1,6.1,0,0,0-4.1-1.3,11,11,0,0,0-2.7.4,9.1,9.1,0,0,0-2.2,1.1,9.4,9.4,0,0,0-1.9,1.4l-1.6,1.8-5.2-6a15.2,15.2,0,0,1,2.2-1.8,21.7,21.7,0,0,1,3.4-1.9,27.1,27.1,0,0,1,4.3-1.4,21,21,0,0,1,5.1-.6,18.2,18.2,0,0,1,5.5.8,11.7,11.7,0,0,1,4,2.1,8.5,8.5,0,0,1,2.5,3.2,9.5,9.5,0,0,1,.9,4.1,7.2,7.2,0,0,1-.8,3.7,9.7,9.7,0,0,1-1.9,2.9,11.3,11.3,0,0,1-2.7,2.2l-2.7,1.7-2.3,1.3-2.4,1.6a13.7,13.7,0,0,0-2.2,1.9,5.8,5.8,0,0,0-1.5,2.1h17.2Zm30.9,0H828.7v-7.3h8.5V159.3a5.9,5.9,0,0,1-1.6,1.5,15.9,15.9,0,0,1-2.6,1.4,13.6,13.6,0,0,1-2.8,1.1,9.3,9.3,0,0,1-2.7.4v-7.5a6.7,6.7,0,0,0,2.7-.7,21.9,21.9,0,0,0,3-1.6l2.7-1.9a4,4,0,0,0,1.3-1.5h8.3v27h7.6Zm32.7,0H856.9a34.7,34.7,0,0,1,.4-4.9,14.4,14.4,0,0,1,1.5-4.1,15.4,15.4,0,0,1,2.9-3.4,24.6,24.6,0,0,1,4.6-3.2l4.3-2.3,3.2-1.9a6.9,6.9,0,0,0,2-1.7,3.2,3.2,0,0,0,.6-2,4.3,4.3,0,0,0-1.4-3.1,6.6,6.6,0,0,0-4.2-1.3,10.9,10.9,0,0,0-2.6.4,9.7,9.7,0,0,0-2.3,1.1,13.3,13.3,0,0,0-1.9,1.4l-1.6,1.8-5.1-6a11.1,11.1,0,0,1,2.2-1.8,21.7,21.7,0,0,1,3.4-1.9,24.1,24.1,0,0,1,4.3-1.4,21,21,0,0,1,5.1-.6,18,18,0,0,1,5.4.8,12.2,12.2,0,0,1,4.1,2.1,9.6,9.6,0,0,1,2.5,3.2,9.5,9.5,0,0,1,.9,4.1,8.4,8.4,0,0,1-.8,3.7,10,10,0,0,1-2,2.9,13.2,13.2,0,0,1-2.6,2.2l-2.7,1.7-2.3,1.3-2.5,1.6-2.2,1.9a10.1,10.1,0,0,0-1.5,2.1h17.2Zm30.9,0H892.4v-7.3h8.5V159.3a6.5,6.5,0,0,1-1.7,1.5,14.8,14.8,0,0,1-2.5,1.4,14.5,14.5,0,0,1-2.9,1.1,9.2,9.2,0,0,1-2.6.4v-7.5a6,6,0,0,0,2.6-.7,18.2,18.2,0,0,0,3.1-1.6l2.6-1.9a4.5,4.5,0,0,0,1.4-1.5h8.2v27h7.6Z" fill="#212121"/><polygon points="1022.6 167.6 1029.8 167.6 1031.7 159.3 1024.5 159.3 1022.6 167.6" fill="#f2f2f2"/><path d="M979,84V248h289.5V84Zm67.9,75.3h-8.7l-2,8.3h7.8v6h-9.3l-2.7,11.2h-6.5l2.8-11.2h-7.2l-2.7,11.2h-6.5l2.8-11.2H1008v-6h8.1l2-8.3h-7.3v-5.6h8.7l2.8-11.5h6.5l-2.9,11.5h7.2l2.8-11.5h6.5l-2.9,11.5h7.4Zm24.5-11a10.2,10.2,0,0,0-2.1-.8l-2.3-.3c-2.8,0-4.2,1.8-4.2,5.6V157h7.7v6.2h-7.7v21.6h-8V163.2h-4.1V157h4.1v-3.9c0-3.9.9-7,2.8-9.3a9.5,9.5,0,0,1,7.7-3.4,18.4,18.4,0,0,1,7.7,1.8Zm32,36.5h-28.9a24.3,24.3,0,0,1,.4-4.9,14.4,14.4,0,0,1,1.5-4.1,13.1,13.1,0,0,1,2.9-3.4,21.7,21.7,0,0,1,4.6-3.2l4.3-2.3a35.4,35.4,0,0,0,3.1-1.9,5.8,5.8,0,0,0,2-1.7,3.2,3.2,0,0,0,.7-2,4,4,0,0,0-1.5-3.1,6.1,6.1,0,0,0-4.1-1.3,11,11,0,0,0-2.7.4,9.1,9.1,0,0,0-2.2,1.1,9.4,9.4,0,0,0-1.9,1.4l-1.6,1.8-5.2-6a15.2,15.2,0,0,1,2.2-1.8,21.7,21.7,0,0,1,3.4-1.9,27.1,27.1,0,0,1,4.3-1.4,21,21,0,0,1,5.1-.6,18.2,18.2,0,0,1,5.5.8,11.7,11.7,0,0,1,4,2.1,8.5,8.5,0,0,1,2.5,3.2,9.5,9.5,0,0,1,.9,4.1,7.2,7.2,0,0,1-.8,3.7,9.7,9.7,0,0,1-1.9,2.9,11.3,11.3,0,0,1-2.7,2.2l-2.7,1.7-2.3,1.3-2.4,1.6a13.7,13.7,0,0,0-2.2,1.9,5.8,5.8,0,0,0-1.5,2.1h17.2Zm25-36.5a10.2,10.2,0,0,0-2.1-.8l-2.3-.3c-2.8,0-4.2,1.8-4.2,5.6V157h7.7v6.2h-7.7v21.6h-8V163.2h-4.1V157h4.1v-3.9c0-3.9.9-7,2.8-9.3a9.5,9.5,0,0,1,7.7-3.4,18.4,18.4,0,0,1,7.7,1.8Zm32,36.5h-28.9a24.3,24.3,0,0,1,.4-4.9,14.4,14.4,0,0,1,1.5-4.1,13.1,13.1,0,0,1,2.9-3.4,21.7,21.7,0,0,1,4.6-3.2l4.3-2.3a35.4,35.4,0,0,0,3.1-1.9,5.8,5.8,0,0,0,2-1.7,3.2,3.2,0,0,0,.7-2,4,4,0,0,0-1.5-3.1,6.1,6.1,0,0,0-4.1-1.3,11,11,0,0,0-2.7.4,9.1,9.1,0,0,0-2.2,1.1,9.4,9.4,0,0,0-1.9,1.4l-1.6,1.8-5.2-6a15.2,15.2,0,0,1,2.2-1.8,21.7,21.7,0,0,1,3.4-1.9,27.1,27.1,0,0,1,4.3-1.4,21,21,0,0,1,5.1-.6,18.2,18.2,0,0,1,5.5.8,11.7,11.7,0,0,1,4,2.1,8.5,8.5,0,0,1,2.5,3.2,9.5,9.5,0,0,1,.9,4.1,7.2,7.2,0,0,1-.8,3.7,9.7,9.7,0,0,1-1.9,2.9,11.3,11.3,0,0,1-2.7,2.2l-2.7,1.7-2.3,1.3-2.4,1.6a13.7,13.7,0,0,0-2.2,1.9,5.8,5.8,0,0,0-1.5,2.1h17.2Zm25-36.5a10.2,10.2,0,0,0-2.1-.8l-2.3-.3c-2.8,0-4.2,1.8-4.2,5.6V157h7.7v6.2h-7.7v21.6h-8V163.2h-4.1V157h4.1v-3.9c0-3.9.9-7,2.8-9.3a9.5,9.5,0,0,1,7.7-3.4,18.4,18.4,0,0,1,7.7,1.8Zm32,36.5h-28.9a24.3,24.3,0,0,1,.4-4.9,14.4,14.4,0,0,1,1.5-4.1,13.1,13.1,0,0,1,2.9-3.4,21.7,21.7,0,0,1,4.6-3.2l4.3-2.3a35.4,35.4,0,0,0,3.1-1.9,5.8,5.8,0,0,0,2-1.7,3.2,3.2,0,0,0,.7-2,4,4,0,0,0-1.5-3.1,6.1,6.1,0,0,0-4.1-1.3,11,11,0,0,0-2.7.4,9.1,9.1,0,0,0-2.2,1.1,9.4,9.4,0,0,0-1.9,1.4l-1.6,1.8-5.2-6a15.2,15.2,0,0,1,2.2-1.8,21.7,21.7,0,0,1,3.4-1.9,27.1,27.1,0,0,1,4.3-1.4,21,21,0,0,1,5.1-.6,18.2,18.2,0,0,1,5.5.8,11.7,11.7,0,0,1,4,2.1,8.5,8.5,0,0,1,2.5,3.2,9.5,9.5,0,0,1,.9,4.1,7.2,7.2,0,0,1-.8,3.7,9.7,9.7,0,0,1-1.9,2.9,11.3,11.3,0,0,1-2.7,2.2l-2.7,1.7-2.3,1.3-2.4,1.6a13.7,13.7,0,0,0-2.2,1.9,5.8,5.8,0,0,0-1.5,2.1h17.2Z" fill="#f2f2f2"/></svg>