<svg height="10in" viewBox="0 0 1368 720" width="19in" xmlns="http://www.w3.org/2000/svg"><path d="m357.6 594.2a6.5 6.5 0 0 1 -2-.4l-7.8-3.2a5.5 5.5 0 0 1 -2.8-2.8 5.5 5.5 0 0 1 0-4l1.8-4.3a38.5 38.5 0 0 1 -8.4-8.7l-4.9 2a4.7 4.7 0 0 1 -4 0 5.5 5.5 0 0 1 -2.8-2.8l-3.2-7.7a5.3 5.3 0 0 1 2.8-6.8l5.1-2.1a49.1 49.1 0 0 1 -.4-5.3 40.2 40.2 0 0 1 .6-6.9l-5.1-2.1a5.1 5.1 0 0 1 -2.8-6.8l3.2-7.7a4.8 4.8 0 0 1 2.8-2.8 5.3 5.3 0 0 1 3.9 0l5.6 2.3a40.4 40.4 0 0 1 8.2-7.8l-2.4-5.9a5.1 5.1 0 0 1 2.8-6.7l7.7-3.2a5.2 5.2 0 0 1 6.8 2.7l2.5 6.1a40.5 40.5 0 0 1 11 0l2.5-6.1a5.3 5.3 0 0 1 6.8-2.8l7.7 3.2a5.2 5.2 0 0 1 2.8 6.8l-2.4 6a36.2 36.2 0 0 1 8.1 8l5.5-2.3a5.2 5.2 0 0 1 6.8 2.8l3.2 7.7a5.1 5.1 0 0 1 -2.8 6.8l-5.2 2.2a46.2 46.2 0 0 1 .5 6.5 40.3 40.3 0 0 1 -.3 4.9l5.2 2.1a4.8 4.8 0 0 1 2.8 2.8 5.5 5.5 0 0 1 0 4l-3.2 7.7a5.2 5.2 0 0 1 -6.8 2.8l-4.7-2a37.4 37.4 0 0 1 -8.5 8.8l1.9 4.6a5.1 5.1 0 0 1 -2.8 6.7l-7.7 3.3a5.5 5.5 0 0 1 -4 0 5.5 5.5 0 0 1 -2.8-2.8l-1.8-4.3a37.5 37.5 0 0 1 -12.5 0l-1.8 4.3a5.1 5.1 0 0 1 -2.8 2.8 6.5 6.5 0 0 1 -1.9.4zm-17.6-28.9 1.1 1.5a33.1 33.1 0 0 0 9.7 10l1.5 1-3.1 7.7q-.1.4 0 .6t.3.3l7.8 3.2a.4.4 0 0 0 .5 0 .5.5 0 0 0 .4-.3l3.2-7.7 1.8.4a34.5 34.5 0 0 0 14.3 0l1.8-.4 3.2 7.6c.1.3.3.4.4.4a.4.4 0 0 0 .5 0l7.8-3.2a.8.8 0 0 0 .4-.9l-3.3-7.8 1.5-1.1a34.6 34.6 0 0 0 9.7-10.1l1-1.6 8.2 3.4a.8.8 0 0 0 1-.4l3.2-7.7a1.1 1.1 0 0 0 0-.6c-.1-.1-.2-.3-.4-.4l-8.5-3.5.3-1.7a28.8 28.8 0 0 0 .6-5.9 36.5 36.5 0 0 0 -.8-7.4l-.4-1.8 8.6-3.6a.7.7 0 0 0 .4-1l-3.2-7.7a.7.7 0 0 0 -.9-.4l-8.8 3.7-1.1-1.5a32.4 32.4 0 0 0 -9.5-9.3l-1.6-1.1 3.9-9.3a.6.6 0 0 0 -.4-.9l-7.7-3.2a.6.6 0 0 0 -.9.3l-3.9 9.5-1.8-.4a35.5 35.5 0 0 0 -13 0l-1.8.3-3.9-9.3a.6.6 0 0 0 -.9-.4l-7.7 3.2a.6.6 0 0 0 -.4.9l3.8 9.2-1.5 1a36.6 36.6 0 0 0 -9.6 9.2l-1 1.5-8.9-3.7c-.2-.1-.4 0-.5 0l-.4.4-3.2 7.7a.7.7 0 0 0 .4 1l8.6 3.5-.4 1.9a33.1 33.1 0 0 0 -.9 7.7 33.6 33.6 0 0 0 .6 6.3l.3 1.8-8.4 3.4a.8.8 0 0 0 -.3 1l3.2 7.7c.1.3.3.4.4.4h.5zm30.2 10.7a26.3 26.3 0 0 1 -4.9-.5 28.1 28.1 0 0 1 -11.4-4.8 28.4 28.4 0 0 1 -11.3-18.4 29.7 29.7 0 0 1 -.3-4.2 33.1 33.1 0 0 1 .5-5.5 27.6 27.6 0 0 1 5.1-11.3 25.5 25.5 0 0 1 6.5-6.2 26.8 26.8 0 0 1 11.5-4.6 26 26 0 0 1 8.8 0 28.5 28.5 0 0 1 11.4 4.7 25.9 25.9 0 0 1 6.5 6.3 28 28 0 0 1 5.5 16.6 25.3 25.3 0 0 1 -.3 3.8 26.9 26.9 0 0 1 -4.4 11.6 26.2 26.2 0 0 1 -6.7 7 28.4 28.4 0 0 1 -11.4 5h-.2a27.2 27.2 0 0 1 -4.9.5zm0-51.4a21 21 0 0 0 -3.6.3 23.2 23.2 0 0 0 -9.7 3.8 22.6 22.6 0 0 0 -5.4 5.3 23.7 23.7 0 0 0 -4.3 9.4 24.2 24.2 0 0 0 -.4 4.7 20 20 0 0 0 .2 3.5 23.2 23.2 0 0 0 3.8 9.7 26.1 26.1 0 0 0 5.7 5.8 24.6 24.6 0 0 0 9.6 4 23.7 23.7 0 0 0 8.4 0h.2a23.9 23.9 0 0 0 15-10 22.5 22.5 0 0 0 3.7-9.7c.1-1.1.2-2.2.2-3.2a21.2 21.2 0 0 0 -.4-4.4 22.6 22.6 0 0 0 -4.2-9.5 23.1 23.1 0 0 0 -5.4-5.4 24.2 24.2 0 0 0 -9.7-3.9 23.1 23.1 0 0 0 -3.7-.4z" fill="#fff"/><path d="m370.2 562.4a14.3 14.3 0 1 1 14.3-14.3 14.3 14.3 0 0 1 -14.3 14.3zm0-22.6a8.3 8.3 0 1 0 8.3 8.3 8.3 8.3 0 0 0 -8.3-8.3z" fill="#fff"/><path d="m262.8 174.9v78.7a36.9 36.9 0 0 1 -36.9 36.9h-78.7a37 37 0 0 1 -36.8-36.9v-78.7a36.8 36.8 0 0 1 36.8-36.8h78.7a37 37 0 0 1 36.9 36.8z" fill="#ffc200"/><path d="m461.2 174.9v78.7a36.9 36.9 0 0 1 -36.8 36.9h-78.7a36.8 36.8 0 0 1 -36.8-36.9v-78.7a36.8 36.8 0 0 1 36.8-36.8h78.7a36.6 36.6 0 0 1 31 17.1 36.1 36.1 0 0 1 5.8 19.7z"/><g fill="#fff"><path d="m660.5 174.9v78.7a36.9 36.9 0 0 1 -36.9 36.9h-78.7a37 37 0 0 1 -36.8-36.9v-78.7a36.8 36.8 0 0 1 36.8-36.8h78.7a37 37 0 0 1 36.9 36.8z"/><path d="m597.3 529h-27.5v-11.2a9.6 9.6 0 1 0 -6 0v11.2h-29.5a27 27 0 1 0 0 54h63a27 27 0 0 0 0-54zm-34.1-20.4a3.6 3.6 0 0 1 3.6-3.6 3.7 3.7 0 0 1 3.7 3.6 3.8 3.8 0 0 1 -3.7 3.7 3.7 3.7 0 0 1 -3.6-3.7zm34.1 68.4h-63a21 21 0 0 1 0-42h63a21 21 0 0 1 0 42z"/><path d="m533.3 571a15 15 0 1 1 15-15 15 15 0 0 1 -15 15zm0-24a9 9 0 0 0 0 18 9 9 0 0 0 0-18z"/><path d="m537.3 556a4 4 0 0 1 -8 0h4v-4a4 4 0 0 1 4 4z"/><path d="m599.5 571a15 15 0 1 1 15-15 15 15 0 0 1 -15 15zm0-24a9 9 0 1 0 9 9 9 9 0 0 0 -9-9z"/><path d="m603.5 556a4 4 0 0 1 -8 0h4v-4a4 4 0 0 1 4 4z"/><rect height="6" rx="1.3" width="6" x="555.3" y="567"/><rect height="6" rx="1.3" width="6" x="572.3" y="567"/><rect height="6" rx="1.3" width="6" x="563.8" y="568.7"/><path d="m705.5 408a4.1 4.1 0 1 0 0 8.1 4.1 4.1 0 1 0 0-8.1zm0 5.9a1.8 1.8 0 0 1 -1.8-1.8h1.8v-1.8a1.8 1.8 0 0 1 0 3.6z"/><path d="m690.7 392.2a1.6 1.6 0 0 0 1.6-1.6 1.7 1.7 0 0 0 -1.6-1.7 1.8 1.8 0 0 0 -1.7 1.7 1.7 1.7 0 0 0 1.7 1.6z"/><path d="m675.5 408a4.1 4.1 0 1 0 0 8.1 4.1 4.1 0 1 0 0-8.1zm0 5.9a1.8 1.8 0 0 1 -1.8-1.8h1.8v-1.8a1.8 1.8 0 0 1 0 3.6z"/><path d="m690.2 375.5a33.8 33.8 0 1 0 33.8 33.8 33.8 33.8 0 0 0 -33.8-33.8zm14.3 48.8h-28.5a12.3 12.3 0 1 1 0-24.5h13.3v-5.1a4.3 4.3 0 0 1 -3-4.1 4.4 4.4 0 1 1 8.8 0 4.3 4.3 0 0 1 -3.1 4.1v5.1h12.5a12.3 12.3 0 0 1 0 24.5z"/><path d="m704.5 402.6h-28.5a9.5 9.5 0 0 0 0 19h28.5a9.5 9.5 0 0 0 0-19zm-29 16.3a6.8 6.8 0 1 1 0-13.6 6.8 6.8 0 0 1 0 13.6zm12.7-.4a1.3 1.3 0 0 1 -1.3 1.3h-.2a1.2 1.2 0 0 1 -1.2-1.3v-.2a1.2 1.2 0 0 1 1.2-1.3h.2a1.3 1.3 0 0 1 1.3 1.3zm3.8.7a1.2 1.2 0 0 1 -1.2 1.3h-.2a1.3 1.3 0 0 1 -1.3-1.3 1.3 1.3 0 0 1 1.3-1.3h.2a1.2 1.2 0 0 1 1.2 1.3zm3.9-.7a1.3 1.3 0 0 1 -1.3 1.3h-.2a1.2 1.2 0 0 1 -1.2-1.3v-.2a1.2 1.2 0 0 1 1.2-1.3h.2a1.3 1.3 0 0 1 1.3 1.3zm9.6.4a6.8 6.8 0 1 1 6.8-6.8 6.8 6.8 0 0 1 -6.8 6.8z"/><path d="m587.5 439-9.4-35.4a3.1 3.1 0 0 0 -2.9-2.2h-35.5v-15.5h22.4v-6h-22.4v-18.3a13 13 0 1 0 -6 0v42.8a3 3 0 0 0 3 3h36.2l9.4 35.4a3.1 3.1 0 0 0 2.9 2.2h13.1v-6zm-57.8-90a7 7 0 0 1 14 0 7 7 0 0 1 -14 0z"/><path d="m533.9 447a35.1 35.1 0 0 1 -4.6-69.9l.8 6a29.1 29.1 0 1 0 32.9 28.8v-.5h6v.6a35.2 35.2 0 0 1 -35.1 35z"/><path d="m533.9 429.3a17.4 17.4 0 0 1 -17.4-17.4 17.2 17.2 0 0 1 12.3-16.6l1.8 5.7a11.3 11.3 0 0 0 -8.1 10.9 11.4 11.4 0 1 0 22.8 0h6a17.4 17.4 0 0 1 -17.4 17.4z"/><path d="m802.7 480.1h-24.4a19.3 19.3 0 0 0 -19.4 19.3v16.1a42.4 42.4 0 0 0 12.6 30l9.7 9.5a13.4 13.4 0 0 0 6.3 3.4v33h6v-33a13.4 13.4 0 0 0 6.3-3.4l9.7-9.5a42.4 42.4 0 0 0 12.6-30v-16.1a19.3 19.3 0 0 0 -19.4-19.3zm13.4 35.4a36.4 36.4 0 0 1 -10.8 25.7l-9.7 9.5a7.4 7.4 0 0 1 -10.2 0l-9.7-9.5a36.4 36.4 0 0 1 -10.8-25.7v-16.1a13.4 13.4 0 0 1 13.4-13.3h24.4a13.4 13.4 0 0 1 13.4 13.3z"/><path d="m790.5 542.1a11.2 11.2 0 1 1 11.2-11.2 11.2 11.2 0 0 1 -11.2 11.2zm0-16.4a5.2 5.2 0 0 0 -5.2 5.2 5.2 5.2 0 1 0 10.4 0 5.2 5.2 0 0 0 -5.2-5.2z"/><path d="m803.8 514.2h-24.3a7.2 7.2 0 0 1 -7.2-7.2v-6.1a7.2 7.2 0 0 1 7.2-7.2h24.3a7.2 7.2 0 0 1 7.1 7.2v6.1a7.1 7.1 0 0 1 -7.1 7.2zm-24.3-14.5a1.2 1.2 0 0 0 -1.2 1.2v6.1a1.2 1.2 0 0 0 1.2 1.2h24.3a1.1 1.1 0 0 0 1.1-1.2v-6.1a1.2 1.2 0 0 0 -1.1-1.2z"/></g><rect fill="#ee9714" height="35.91" rx="14.9" width="44.3" x="974.9" y="223.1"/><path d="m980.5 191.1a6.4 6.4 0 1 1 -6.4-6.4 6.4 6.4 0 0 1 6.4 6.4z" fill="#ffad00"/><path d="m1020 184.7a6.4 6.4 0 1 0 6.3 6.4 6.4 6.4 0 0 0 -6.3-6.4zm0 0a6.4 6.4 0 1 0 6.3 6.4 6.4 6.4 0 0 0 -6.3-6.4zm0 0a6.4 6.4 0 1 0 6.3 6.4 6.4 6.4 0 0 0 -6.3-6.4zm0 0a6.4 6.4 0 1 0 6.3 6.4 6.4 6.4 0 0 0 -6.3-6.4zm0 0a6.4 6.4 0 1 0 6.3 6.4 6.4 6.4 0 0 0 -6.3-6.4zm0 0a6.4 6.4 0 1 0 6.3 6.4 6.4 6.4 0 0 0 -6.3-6.4zm0 0a6.4 6.4 0 1 0 6.3 6.4 6.4 6.4 0 0 0 -6.3-6.4zm0 0a6.4 6.4 0 1 0 6.3 6.4 6.4 6.4 0 0 0 -6.3-6.4zm0 0a6.4 6.4 0 1 0 6.3 6.4 6.4 6.4 0 0 0 -6.3-6.4zm0 0a6.4 6.4 0 1 0 6.3 6.4 6.4 6.4 0 0 0 -6.3-6.4zm0 0a6.4 6.4 0 1 0 6.3 6.4 6.4 6.4 0 0 0 -6.3-6.4zm0 0a6.4 6.4 0 1 0 6.3 6.4 6.4 6.4 0 0 0 -6.3-6.4zm-1.5-8.3h-43.7a14.7 14.7 0 0 0 0 29.3h43.7a14.7 14.7 0 0 0 0-29.3zm-44.4 25a10.4 10.4 0 1 1 10.4-10.3 10.4 10.4 0 0 1 -10.4 10.3zm45.9 0a10.4 10.4 0 1 1 10.3-10.3 10.3 10.3 0 0 1 -10.3 10.3zm0-16.7a6.4 6.4 0 1 0 6.3 6.4 6.4 6.4 0 0 0 -6.3-6.4zm0 0a6.4 6.4 0 1 0 6.3 6.4 6.4 6.4 0 0 0 -6.3-6.4zm0 0a6.4 6.4 0 1 0 6.3 6.4 6.4 6.4 0 0 0 -6.3-6.4zm0 0a6.4 6.4 0 1 0 6.3 6.4 6.4 6.4 0 0 0 -6.3-6.4zm0 0a6.4 6.4 0 1 0 6.3 6.4 6.4 6.4 0 0 0 -6.3-6.4zm0 0a6.4 6.4 0 1 0 6.3 6.4 6.4 6.4 0 0 0 -6.3-6.4zm0 0a6.4 6.4 0 1 0 6.3 6.4 6.4 6.4 0 0 0 -6.3-6.4zm0 0a6.4 6.4 0 1 0 6.3 6.4 6.4 6.4 0 0 0 -6.3-6.4zm0 0a6.4 6.4 0 1 0 6.3 6.4 6.4 6.4 0 0 0 -6.3-6.4zm0 0a6.4 6.4 0 1 0 6.3 6.4 6.4 6.4 0 0 0 -6.3-6.4zm0 0a6.4 6.4 0 1 0 6.3 6.4 6.4 6.4 0 0 0 -6.3-6.4z" fill="#ee9714"/><path d="m974.1 180.7a10.4 10.4 0 1 0 10.4 10.4 10.4 10.4 0 0 0 -10.4-10.4zm0 16.7a6.4 6.4 0 1 1 6.4-6.3 6.4 6.4 0 0 1 -6.4 6.3z" fill="#212121"/><path d="m980.5 191.1a6.4 6.4 0 1 1 -6.4-6.4 6.4 6.4 0 0 1 6.4 6.4z" fill="#fafafa"/><path d="m976.9 191.6a2.8 2.8 0 0 1 -2.3 2.2 2.8 2.8 0 0 1 -3.2-2.2.5.5 0 0 1 .4-.5h2.3v-2.3a.6.6 0 0 1 .6-.5 2.9 2.9 0 0 1 2.2 3.3z" fill="#212121"/><circle cx="1020" cy="191.1" fill="#f2f2f2" r="6.3"/><path d="m1022.7 191.6a2.8 2.8 0 0 1 -2.2 2.2 2.7 2.7 0 0 1 -3.2-2.2c-.1-.3.1-.5.4-.5h2.3v-2.3a.5.5 0 0 1 .5-.5 2.9 2.9 0 0 1 2.2 3.3z" fill="#212121"/><rect fill="#212121" height="4.16" rx="1.3" width="4.2" x="989.4" y="198.7"/><rect fill="#212121" height="4.16" rx="1.3" width="4.2" x="1001.2" y="198.7"/><rect fill="#212121" height="4.16" rx="1.3" width="4.2" x="985.2" y="232.5"/><rect fill="#212121" height="4.16" rx="1.3" width="4.2" x="991.5" y="232.5"/><rect fill="#212121" height="4.16" rx="1.3" width="4.2" x="985.2" y="239"/><rect fill="#212121" height="4.16" rx="1.3" width="4.2" x="991.5" y="239"/><rect fill="#212121" height="8.08" rx="1.3" transform="matrix(-1 0 0 -1 2008.4 473.2)" width="10.2" x="999.1" y="232.5"/><rect fill="#212121" height="3.75" rx="1.3" transform="matrix(-1 0 0 -1 2008.4 491.9)" width="10.2" x="999.1" y="244.1"/><rect fill="#212121" height="4.16" rx="1.3" width="4.2" x="995.3" y="199.8"/><path d="m1006.9 316.5a2.6 2.6 0 0 1 -2.6 2.6 2.6 2.6 0 0 1 -2.6-2.6 2.6 2.6 0 0 1 2.6-2.6 2.5 2.5 0 0 1 2.6 2.6z" fill="#ee9714"/><path d="m993.4 316.5a2.6 2.6 0 0 1 -2.6 2.6 2.6 2.6 0 0 1 -2.6-2.6 2.6 2.6 0 0 1 2.6-2.6 2.5 2.5 0 0 1 2.6 2.6z" fill="#ee9714"/><path d="m1041.3 279.5a2.6 2.6 0 0 1 -2.6 2.6 2.6 2.6 0 0 1 0-5.2 2.6 2.6 0 0 1 2.6 2.6z" fill="#ffad00"/><path d="m940.6 211.4a2.6 2.6 0 0 1 -2.6-2.6 2.6 2.6 0 0 1 2.6-2.6 2.5 2.5 0 0 1 2.6 2.6 2.6 2.6 0 0 1 -2.6 2.6zm34.2-5.7a14.7 14.7 0 0 1 0-29.3h43.7a14.7 14.7 0 0 1 0 29.3zm18.6 110.8a2.6 2.6 0 0 1 -2.6 2.6 2.6 2.6 0 0 1 -2.6-2.6 2.6 2.6 0 0 1 2.6-2.6 2.5 2.5 0 0 1 2.6 2.6zm10.9 2.6a2.6 2.6 0 0 1 -2.6-2.6 2.6 2.6 0 0 1 2.6-2.6 2.5 2.5 0 0 1 2.6 2.6 2.6 2.6 0 0 1 -2.6 2.6zm14.9-75a14.9 14.9 0 0 1 -14.9 14.9h-14.5a14.9 14.9 0 0 1 -14.9-14.9v-6.1a14.9 14.9 0 0 1 14.9-14.9h14.5a14.9 14.9 0 0 1 14.9 14.9zm19.5 38a2.6 2.6 0 0 1 0-5.2 2.6 2.6 0 0 1 0 5.2zm2-8.9c-.2-15.6-3.5-26.1-9.6-31.2a14 14 0 0 0 -7.9-3v-1a18.9 18.9 0 0 0 -18.9-18.9h-5.6v-9.4h19.8a18.7 18.7 0 0 0 0-37.3h-19.2v-7.9a6.6 6.6 0 0 0 4.7-6.3 6.7 6.7 0 0 0 -13.3 0 6.6 6.6 0 0 0 4.6 6.3v7.9h-20.5a18.7 18.7 0 0 0 0 37.3h19.9v9.4h-4.9a19 19 0 0 0 -18.9 18.5c-10.8-1-18.8-4.4-23.5-10a20.3 20.3 0 0 1 -4.8-12.5 6.6 6.6 0 1 0 -8.6-6.3 6.7 6.7 0 0 0 4.6 6.3 24 24 0 0 0 5.6 15c5.6 6.6 14.5 10.4 26.7 11.5v2.5a19 19 0 0 0 16.9 18.8v47.7a6.6 6.6 0 0 0 3 12.5 6.6 6.6 0 0 0 6.6-6.6 6.7 6.7 0 0 0 -5.6-6.6v-46.9h10.5v47.2a6.5 6.5 0 0 0 -4.6 6.3 6.6 6.6 0 0 0 13.2 0 6.5 6.5 0 0 0 -4.6-6.3v-47.3a18.9 18.9 0 0 0 16.9-18.8v-1.1a9.5 9.5 0 0 1 5.3 2.1c3.7 3 8 10.3 8.2 28.1a6.6 6.6 0 0 0 2 12.9 6.6 6.6 0 0 0 6.6-6.6 6.5 6.5 0 0 0 -4.6-6.3zm-46-115a2.7 2.7 0 0 1 5.3 0 2.7 2.7 0 0 1 -5.3 0z"/><circle cx="997.3" cy="158.2" fill="#ee9714" r="2.6"/><path d="m943.2 208.8a2.6 2.6 0 0 1 -2.6 2.6 2.6 2.6 0 0 1 -2.6-2.6 2.6 2.6 0 0 1 2.6-2.6 2.5 2.5 0 0 1 2.6 2.6z" fill="#ee9714"/><path d="m1020 180.7a10.4 10.4 0 1 0 10.3 10.4 10.4 10.4 0 0 0 -10.3-10.4zm0 16.7a6.4 6.4 0 1 1 6.3-6.3 6.3 6.3 0 0 1 -6.3 6.3z" fill="#212121"/><path d="m775.7 177.9a10.3 10.3 0 1 0 10.3 10.3 10.4 10.4 0 0 0 -10.3-10.3zm0 16.6a6.3 6.3 0 1 1 6.3-6.3 6.4 6.4 0 0 1 -6.3 6.3z" fill="#212121"/><path d="m778.4 188.2a2.8 2.8 0 1 1 -5.5 0h2.8v-2.8a2.8 2.8 0 0 1 2.7 2.8z" fill="#212121"/><path d="m821.5 177.9a10.3 10.3 0 1 0 10.3 10.3 10.3 10.3 0 0 0 -10.3-10.3zm0 16.6a6.3 6.3 0 1 1 6.3-6.3 6.3 6.3 0 0 1 -6.3 6.3z" fill="#212121"/><path d="m824.3 188.2a2.8 2.8 0 1 1 -5.6 0h2.8v-2.8a2.9 2.9 0 0 1 2.8 2.8z" fill="#212121"/><path d="m795 197.1v1.6a1.2 1.2 0 0 1 -1.2 1.3h-1.7a1.2 1.2 0 0 1 -1.2-1.3v-1.6a1.2 1.2 0 0 1 1.2-1.3h1.7a1.2 1.2 0 0 1 1.2 1.3z" fill="#212121"/><rect fill="#212121" height="4.16" rx="1.3" width="4.2" x="802.7" y="195.8"/><rect fill="#212121" height="4.16" rx="1.3" width="4.2" x="786.7" y="229.7"/><path d="m797.1 230.9v1.7a1.2 1.2 0 0 1 -1.3 1.2h-1.6a1.2 1.2 0 0 1 -1.2-1.2v-1.7a1.2 1.2 0 0 1 1.2-1.2h1.6a1.2 1.2 0 0 1 1.3 1.2z" fill="#212121"/><path d="m790.9 237.4v1.6a1.3 1.3 0 0 1 -1.3 1.3h-1.6a1.3 1.3 0 0 1 -1.3-1.3v-1.6a1.3 1.3 0 0 1 1.3-1.3h1.6a1.3 1.3 0 0 1 1.3 1.3z" fill="#212121"/><path d="m797.1 237.4v1.6a1.3 1.3 0 0 1 -1.3 1.3h-1.6a1.2 1.2 0 0 1 -1.2-1.3v-1.6a1.2 1.2 0 0 1 1.2-1.3h1.6a1.3 1.3 0 0 1 1.3 1.3z" fill="#212121"/><rect fill="#212121" height="8.08" rx="1.3" width="10.2" x="800.6" y="229.8"/><path d="m810.8 242.5v1.2a1.3 1.3 0 0 1 -1.3 1.3h-7.7a1.2 1.2 0 0 1 -1.2-1.3v-1.2a1.2 1.2 0 0 1 1.2-1.3h7.7a1.3 1.3 0 0 1 1.3 1.3z" fill="#212121"/><rect fill="#212121" height="4.16" rx="1.3" width="4.2" x="796.8" y="196.9"/><path d="m796.2 155.3a2.7 2.7 0 0 1 5.3 0 2.7 2.7 0 1 1 -5.3 0zm-1.2 158.3a2.7 2.7 0 0 1 -5.3 0 2.7 2.7 0 0 1 5.3 0zm13.4 0a2.5 2.5 0 0 1 -2.6 2.6 2.6 2.6 0 0 1 -2.6-2.6 2.6 2.6 0 0 1 2.6-2.6 2.6 2.6 0 0 1 2.6 2.6zm12.3-72.4a14.9 14.9 0 0 1 -14.9 14.9h-14.5a14.9 14.9 0 0 1 -14.9-14.9v-6.1a14.9 14.9 0 0 1 14.9-14.9h14.5a14.9 14.9 0 0 1 14.9 14.9zm19.5 38a2.6 2.6 0 0 1 -2.6-2.6 2.6 2.6 0 0 1 2.6-2.6 2.6 2.6 0 0 1 2.6 2.6 2.5 2.5 0 0 1 -2.6 2.6zm2-8.9c-.2-15.6-3.4-26.1-9.6-31.1a12.6 12.6 0 0 0 -7.9-3v-1.1a18.9 18.9 0 0 0 -18.9-18.9h-5.6v-9.4h19.8a18.6 18.6 0 1 0 0-37.2h-19.1v-8a6.6 6.6 0 0 0 -2-12.9 6.7 6.7 0 0 0 -6.7 6.6 6.6 6.6 0 0 0 4.7 6.3v8h-20.6a18.6 18.6 0 1 0 0 37.2h19.9v9.4h-4.9a18.9 18.9 0 0 0 -18.9 18.9v1.1a12.6 12.6 0 0 0 -8.5 3c-6.2 5-9.4 15.5-9.6 31.1a6.8 6.8 0 0 0 -4.7 6.3 6.7 6.7 0 0 0 13.3 0 6.8 6.8 0 0 0 -4.6-6.3c.2-17.7 4.5-24.9 8-27.9a8.5 8.5 0 0 1 6.1-2.2v1a19 19 0 0 0 16.9 18.8v47.7a6.7 6.7 0 0 0 -3.6 5.9 6.7 6.7 0 1 0 7.6-6.5v-47h10.5v47.2a6.8 6.8 0 0 0 -4.6 6.3 6.6 6.6 0 0 0 13.2 0 6.7 6.7 0 0 0 -4.6-6.3v-47.3a18.9 18.9 0 0 0 16.9-18.8v-1a8.3 8.3 0 0 1 5.5 2.2c3.5 3 7.8 10.2 8 27.9a6.7 6.7 0 0 0 -4.6 6.3 6.6 6.6 0 1 0 13.2 0 6.7 6.7 0 0 0 -4.6-6.3zm-65.9-67.5a14.6 14.6 0 1 1 0-29.2h43.7a14.6 14.6 0 1 1 0 29.2z"/><path d="m758.9 276.6a2.7 2.7 0 0 1 -5.3 0 2.7 2.7 0 0 1 5.3 0z" fill="#ee9714"/><path d="m801.5 155.3a2.7 2.7 0 1 1 -5.3 0 2.7 2.7 0 0 1 5.3 0z" fill="#ee9714"/><circle cx="792.3" cy="313.6" fill="#ee9714" r="2.6"/><path d="m808.4 313.6a2.5 2.5 0 0 1 -2.6 2.6 2.6 2.6 0 0 1 -2.6-2.6 2.6 2.6 0 0 1 2.6-2.6 2.6 2.6 0 0 1 2.6 2.6z" fill="#ee9714"/><path d="m842.8 276.6a2.5 2.5 0 0 1 -2.6 2.6 2.6 2.6 0 0 1 -2.6-2.6 2.6 2.6 0 0 1 2.6-2.6 2.6 2.6 0 0 1 2.6 2.6z" fill="#ee9714"/><path d="m805.8 220.2h-14.5a14.9 14.9 0 0 0 -14.9 14.9v6.1a14.9 14.9 0 0 0 14.9 14.9h14.5a14.9 14.9 0 0 0 14.9-14.9v-6.1a14.9 14.9 0 0 0 -14.9-14.9zm-14.9 18.8a1.3 1.3 0 0 1 -1.3 1.3h-1.6a1.3 1.3 0 0 1 -1.3-1.3v-1.6a1.3 1.3 0 0 1 1.3-1.3h1.6a1.3 1.3 0 0 1 1.3 1.3zm0-6.4a1.2 1.2 0 0 1 -1.3 1.2h-1.6a1.2 1.2 0 0 1 -1.3-1.2v-1.7a1.2 1.2 0 0 1 1.3-1.2h1.6a1.2 1.2 0 0 1 1.3 1.2zm6.2 6.4a1.3 1.3 0 0 1 -1.3 1.3h-1.6a1.2 1.2 0 0 1 -1.2-1.3v-1.6a1.2 1.2 0 0 1 1.2-1.3h1.6a1.3 1.3 0 0 1 1.3 1.3zm0-6.4a1.2 1.2 0 0 1 -1.3 1.2h-1.6a1.2 1.2 0 0 1 -1.2-1.2v-1.7a1.2 1.2 0 0 1 1.2-1.2h1.6a1.2 1.2 0 0 1 1.3 1.2zm13.7 11.1a1.3 1.3 0 0 1 -1.3 1.3h-7.7a1.2 1.2 0 0 1 -1.2-1.3v-1.2a1.2 1.2 0 0 1 1.2-1.3h7.7a1.3 1.3 0 0 1 1.3 1.3zm0-7.1a1.3 1.3 0 0 1 -1.3 1.3h-7.7a1.2 1.2 0 0 1 -1.2-1.3v-5.5a1.2 1.2 0 0 1 1.2-1.3h7.7a1.3 1.3 0 0 1 1.3 1.3z" fill="#ee9714"/><path d="m820 173.6h-43.7a14.6 14.6 0 1 0 0 29.2h43.7a14.6 14.6 0 1 0 0-29.2zm-44.3 24.9a10.3 10.3 0 1 1 10.3-10.3 10.4 10.4 0 0 1 -10.3 10.3zm19.3.2a1.2 1.2 0 0 1 -1.2 1.3h-1.6a1.3 1.3 0 0 1 -1.3-1.3v-1.6a1.3 1.3 0 0 1 1.3-1.3h1.6a1.2 1.2 0 0 1 1.2 1.3zm5.9 1.1a1.2 1.2 0 0 1 -1.2 1.3h-1.7a1.2 1.2 0 0 1 -1.2-1.3v-1.6a1.2 1.2 0 0 1 1.2-1.3h1.7a1.2 1.2 0 0 1 1.2 1.3zm5.9-1.1a1.2 1.2 0 0 1 -1.2 1.3h-1.7a1.2 1.2 0 0 1 -1.2-1.3v-1.6a1.2 1.2 0 0 1 1.2-1.3h1.7a1.2 1.2 0 0 1 1.2 1.3zm14.7-.2a10.3 10.3 0 1 1 10.3-10.3 10.3 10.3 0 0 1 -10.3 10.3z" fill="#ee9714"/><path d="m821.5 181.9a6.3 6.3 0 1 0 6.3 6.3 6.3 6.3 0 0 0 -6.3-6.3zm0 9.1a2.9 2.9 0 0 1 -2.8-2.8h2.8v-2.8a2.8 2.8 0 0 1 0 5.6z" fill="#fafafa"/><path d="m775.7 181.9a6.3 6.3 0 1 0 6.3 6.3 6.4 6.4 0 0 0 -6.3-6.3zm0 9.1a2.8 2.8 0 0 1 -2.8-2.8h2.8v-2.8a2.8 2.8 0 0 1 0 5.6z" fill="#fafafa"/><path d="m1210.5 192.2a2.8 2.8 0 1 1 -5.5 0h2.8v-2.7a2.7 2.7 0 0 1 2.7 2.7z" fill="#212121"/><path d="m1161.9 181.9a10.3 10.3 0 1 0 10.3 10.3 10.3 10.3 0 0 0 -10.3-10.3zm0 16.6a6.3 6.3 0 0 1 -6.3-6.3 6.4 6.4 0 0 1 6.3-6.3 6.3 6.3 0 0 1 6.3 6.3 6.3 6.3 0 0 1 -6.3 6.3z" fill="#212121"/><path d="m1164.7 192.2a2.8 2.8 0 1 1 -5.5 0h2.7v-2.7a2.7 2.7 0 0 1 2.8 2.7z" fill="#212121"/><path d="m1207.8 181.9a10.3 10.3 0 1 0 10.3 10.3 10.3 10.3 0 0 0 -10.3-10.3zm0 16.6a6.3 6.3 0 0 1 -6.3-6.3 6.3 6.3 0 1 1 12.6 0 6.3 6.3 0 0 1 -6.3 6.3z" fill="#212121"/><path d="m1207.8 185.9a6.3 6.3 0 0 0 -6.3 6.3 6.3 6.3 0 1 0 12.6 0 6.3 6.3 0 0 0 -6.3-6.3zm0 9.1a2.7 2.7 0 0 1 -2.8-2.8h2.8v-2.7a2.8 2.8 0 0 1 0 5.5z" fill="#f2f2f2"/><path d="m1210.5 192.2a2.8 2.8 0 1 1 -5.5 0h2.8v-2.7a2.7 2.7 0 0 1 2.7 2.7z" fill="#212121"/><path d="m1181.3 201.1v1.6a1.2 1.2 0 0 1 -1.2 1.3h-1.7a1.2 1.2 0 0 1 -1.2-1.3v-1.6a1.2 1.2 0 0 1 1.2-1.2h1.7a1.2 1.2 0 0 1 1.2 1.2z" fill="#212121"/><rect fill="#212121" height="4.16" rx="1.3" width="4.2" x="1188.9" y="199.9"/><rect fill="#212121" height="4.16" rx="1.3" width="4.2" x="1173" y="233.7"/><path d="m1183.4 235v1.6a1.3 1.3 0 0 1 -1.3 1.3h-1.6a1.2 1.2 0 0 1 -1.2-1.3v-1.6a1.2 1.2 0 0 1 1.2-1.3h1.6a1.3 1.3 0 0 1 1.3 1.3z" fill="#212121"/><path d="m1177.2 241.4v1.7a1.2 1.2 0 0 1 -1.3 1.2h-1.6a1.2 1.2 0 0 1 -1.3-1.2v-1.7a1.2 1.2 0 0 1 1.3-1.2h1.6a1.2 1.2 0 0 1 1.3 1.2z" fill="#212121"/><path d="m1183.4 241.4v1.7a1.2 1.2 0 0 1 -1.3 1.2h-1.6a1.2 1.2 0 0 1 -1.2-1.2v-1.7a1.2 1.2 0 0 1 1.2-1.2h1.6a1.2 1.2 0 0 1 1.3 1.2z" fill="#212121"/><rect fill="#212121" height="8.08" rx="1.3" width="10.2" x="1186.9" y="233.8"/><path d="m1197.1 246.5v1.3a1.2 1.2 0 0 1 -1.3 1.2h-7.7a1.2 1.2 0 0 1 -1.2-1.2v-1.3a1.2 1.2 0 0 1 1.2-1.2h7.7a1.2 1.2 0 0 1 1.3 1.2z" fill="#212121"/><rect fill="#212121" height="4.16" rx="1.3" width="4.2" x="1183.1" y="201"/><path d="m1228.5 274.4c-.2-15.7-3.5-26.1-9.6-31.2a12.6 12.6 0 0 0 -7.9-3v-1a18.9 18.9 0 0 0 -18.9-18.9h-5.7v-9.4h19.9a18.7 18.7 0 0 0 0-37.3h-19.2v-7.9a6.8 6.8 0 0 0 4.7-6.3 6.7 6.7 0 0 0 -13.3 0 6.8 6.8 0 0 0 4.6 6.3v7.9h-20.5a18.7 18.7 0 0 0 0 37.3h19.8v9.4h-4.8a18.9 18.9 0 0 0 -18.9 18.9v1a12.5 12.5 0 0 0 -8.5 3q-9.3 7.7-9.6 31.2a6.6 6.6 0 0 0 -4.7 6.3 6.7 6.7 0 1 0 8.7-6.3c.2-17.7 4.4-25 8-28a9 9 0 0 1 6.1-2.2v1.1a19 19 0 0 0 16.9 18.8v47.7a6.6 6.6 0 0 0 3 12.5 6.6 6.6 0 0 0 6.6-6.6 6.7 6.7 0 0 0 -5.6-6.6v-46.9h10.5v47.2a6.5 6.5 0 0 0 -4.6 6.3 6.6 6.6 0 0 0 13.2 0 6.5 6.5 0 0 0 -4.6-6.3v-47.3a19 19 0 0 0 16.9-18.8v-1.1a8.7 8.7 0 0 1 5.4 2.2c3.6 3 7.8 10.3 8.1 28a6.5 6.5 0 0 0 -4.6 6.3 6.6 6.6 0 1 0 13.2 0 6.5 6.5 0 0 0 -4.6-6.3zm-46-115a2.7 2.7 0 0 1 5.3 0 2.7 2.7 0 0 1 -5.3 0zm-19.9 47.5a14.7 14.7 0 0 1 0-29.3h43.7a14.7 14.7 0 0 1 0 29.3zm18.6 110.8a2.6 2.6 0 0 1 -2.6 2.6 2.7 2.7 0 0 1 0-5.3 2.6 2.6 0 0 1 2.6 2.7zm13.5 0a2.6 2.6 0 0 1 -2.6 2.6 2.7 2.7 0 0 1 0-5.3 2.6 2.6 0 0 1 2.6 2.7zm12.3-72.4a14.9 14.9 0 0 1 -14.9 14.9h-14.5a14.9 14.9 0 0 1 -14.9-14.9v-6.1a14.9 14.9 0 0 1 14.9-14.9h14.5a14.9 14.9 0 0 1 14.9 14.9zm19.5 38a2.6 2.6 0 0 1 -2.6-2.6 2.6 2.6 0 1 1 5.2 0 2.6 2.6 0 0 1 -2.6 2.6z"/><path d="m1145.2 280.7a2.7 2.7 0 0 1 -5.3 0 2.7 2.7 0 0 1 5.3 0z" fill="#ee9714"/><path d="m1187.8 159.4a2.7 2.7 0 0 1 -5.3 0 2.7 2.7 0 0 1 5.3 0z" fill="#ee9714"/><circle cx="1178.6" cy="317.7" fill="#ee9714" r="2.6"/><path d="m1194.7 317.7a2.6 2.6 0 0 1 -2.6 2.6 2.7 2.7 0 0 1 0-5.3 2.6 2.6 0 0 1 2.6 2.7z" fill="#ee9714"/><path d="m1229.1 280.7a2.6 2.6 0 1 1 -5.2 0 2.6 2.6 0 1 1 5.2 0z" fill="#ee9714"/><path d="m1192.1 224.3h-14.5a14.9 14.9 0 0 0 -14.9 14.9v6.1a14.9 14.9 0 0 0 14.9 14.9h14.5a14.9 14.9 0 0 0 14.9-14.9v-6.1a14.9 14.9 0 0 0 -14.9-14.9zm-14.9 18.8a1.2 1.2 0 0 1 -1.3 1.2h-1.6a1.2 1.2 0 0 1 -1.3-1.2v-1.7a1.2 1.2 0 0 1 1.3-1.2h1.6a1.2 1.2 0 0 1 1.3 1.2zm0-6.5a1.3 1.3 0 0 1 -1.3 1.3h-1.6a1.3 1.3 0 0 1 -1.3-1.3v-1.6a1.3 1.3 0 0 1 1.3-1.3h1.6a1.3 1.3 0 0 1 1.3 1.3zm6.2 6.5a1.2 1.2 0 0 1 -1.3 1.2h-1.6a1.2 1.2 0 0 1 -1.2-1.2v-1.7a1.2 1.2 0 0 1 1.2-1.2h1.6a1.2 1.2 0 0 1 1.3 1.2zm0-6.5a1.3 1.3 0 0 1 -1.3 1.3h-1.6a1.2 1.2 0 0 1 -1.2-1.3v-1.6a1.2 1.2 0 0 1 1.2-1.3h1.6a1.3 1.3 0 0 1 1.3 1.3zm13.7 11.2a1.2 1.2 0 0 1 -1.3 1.2h-7.7a1.2 1.2 0 0 1 -1.2-1.2v-1.3a1.2 1.2 0 0 1 1.2-1.2h7.7a1.2 1.2 0 0 1 1.3 1.2zm0-7.1a1.2 1.2 0 0 1 -1.3 1.2h-7.7a1.2 1.2 0 0 1 -1.2-1.2v-5.6a1.2 1.2 0 0 1 1.2-1.3h7.7a1.3 1.3 0 0 1 1.3 1.3z" fill="#ee9714"/><path d="m1206.3 177.6h-43.7a14.7 14.7 0 0 0 0 29.3h43.7a14.7 14.7 0 0 0 0-29.3zm-44.4 24.9a10.3 10.3 0 1 1 10.3-10.3 10.3 10.3 0 0 1 -10.3 10.3zm19.4.2a1.2 1.2 0 0 1 -1.2 1.3h-1.7a1.2 1.2 0 0 1 -1.2-1.3v-1.6a1.2 1.2 0 0 1 1.2-1.2h1.7a1.2 1.2 0 0 1 1.2 1.2zm5.9 1.2a1.3 1.3 0 0 1 -1.3 1.3h-1.6a1.2 1.2 0 0 1 -1.2-1.3v-1.6a1.2 1.2 0 0 1 1.2-1.3h1.6a1.3 1.3 0 0 1 1.3 1.3zm5.9-1.2a1.3 1.3 0 0 1 -1.3 1.3h-1.6a1.3 1.3 0 0 1 -1.3-1.3v-1.6a1.2 1.2 0 0 1 1.3-1.2h1.6a1.2 1.2 0 0 1 1.3 1.2zm14.7-.2a10.3 10.3 0 1 1 10.3-10.3 10.3 10.3 0 0 1 -10.3 10.3z" fill="#ee9714"/><path d="m1161.9 185.9a6.4 6.4 0 0 0 -6.3 6.3 6.3 6.3 0 0 0 6.3 6.3 6.3 6.3 0 0 0 6.3-6.3 6.3 6.3 0 0 0 -6.3-6.3zm0 9.1a2.7 2.7 0 0 1 -2.7-2.8h2.7v-2.7a2.8 2.8 0 1 1 0 5.5z" fill="#f2f2f2"/><path d="m1185.1 146.2a2 2 0 0 1 -2-2v-8.9a2 2 0 1 1 4 0v8.9a2 2 0 0 1 -2 2z" fill="#212121"/><path d="m1196.5 150.8 5-5"/><path d="m1196.5 152.8a2 2 0 0 1 -1.5-.6 2.1 2.1 0 0 1 0-2.8l5-5a2.1 2.1 0 0 1 2.9 0 1.9 1.9 0 0 1 0 2.8l-5 5a2 2 0 0 1 -1.4.6z" fill="#212121"/><path d="m1174.6 150.6-5.3-5.3"/><path d="m1174.6 152.6a2 2 0 0 1 -1.5-.6l-5.2-5.3a2 2 0 0 1 2.8-2.8l5.3 5.2a2.3 2.3 0 0 1 0 2.9 2 2 0 0 1 -1.4.6z" fill="#212121"/><rect fill="#ee9714" height="35.91" rx="14.9" width="44.3" x="1166" y="491.1"/><path d="m1171.5 459a6.3 6.3 0 1 1 -12.6 0 6.3 6.3 0 1 1 12.6 0z" fill="#ffad00"/><path d="m1211.1 452.7a6.3 6.3 0 0 0 -6.3 6.3 6.3 6.3 0 0 0 6.3 6.3 6.3 6.3 0 0 0 6.3-6.3 6.4 6.4 0 0 0 -6.3-6.3zm0 0a6.3 6.3 0 0 0 -6.3 6.3 6.3 6.3 0 0 0 6.3 6.3 6.3 6.3 0 0 0 6.3-6.3 6.4 6.4 0 0 0 -6.3-6.3zm0 0a6.3 6.3 0 0 0 -6.3 6.3 6.3 6.3 0 0 0 6.3 6.3 6.3 6.3 0 0 0 6.3-6.3 6.4 6.4 0 0 0 -6.3-6.3zm0 0a6.3 6.3 0 0 0 -6.3 6.3 6.3 6.3 0 0 0 6.3 6.3 6.3 6.3 0 0 0 6.3-6.3 6.4 6.4 0 0 0 -6.3-6.3zm0 0a6.3 6.3 0 0 0 -6.3 6.3 6.3 6.3 0 0 0 6.3 6.3 6.3 6.3 0 0 0 6.3-6.3 6.4 6.4 0 0 0 -6.3-6.3zm0 0a6.3 6.3 0 0 0 -6.3 6.3 6.3 6.3 0 0 0 6.3 6.3 6.3 6.3 0 0 0 6.3-6.3 6.4 6.4 0 0 0 -6.3-6.3zm0 0a6.3 6.3 0 0 0 -6.3 6.3 6.3 6.3 0 0 0 6.3 6.3 6.3 6.3 0 0 0 6.3-6.3 6.4 6.4 0 0 0 -6.3-6.3zm0 0a6.3 6.3 0 0 0 -6.3 6.3 6.3 6.3 0 0 0 6.3 6.3 6.3 6.3 0 0 0 6.3-6.3 6.4 6.4 0 0 0 -6.3-6.3zm0 0a6.3 6.3 0 0 0 -6.3 6.3 6.3 6.3 0 0 0 6.3 6.3 6.3 6.3 0 0 0 6.3-6.3 6.4 6.4 0 0 0 -6.3-6.3zm0 0a6.3 6.3 0 0 0 -6.3 6.3 6.3 6.3 0 0 0 6.3 6.3 6.3 6.3 0 0 0 6.3-6.3 6.4 6.4 0 0 0 -6.3-6.3zm0 0a6.3 6.3 0 0 0 -6.3 6.3 6.3 6.3 0 0 0 6.3 6.3 6.3 6.3 0 0 0 6.3-6.3 6.4 6.4 0 0 0 -6.3-6.3zm0 0a6.3 6.3 0 0 0 -6.3 6.3 6.3 6.3 0 0 0 6.3 6.3 6.3 6.3 0 0 0 6.3-6.3 6.4 6.4 0 0 0 -6.3-6.3zm-1.5-8.3h-43.7a14.7 14.7 0 0 0 0 29.3h43.7a14.7 14.7 0 0 0 0-29.3zm-44.4 24.9a10.3 10.3 0 1 1 10.3-10.3 10.3 10.3 0 0 1 -10.3 10.3zm45.9 0a10.3 10.3 0 1 1 10.3-10.3 10.3 10.3 0 0 1 -10.3 10.3zm0-16.6a6.3 6.3 0 0 0 -6.3 6.3 6.3 6.3 0 0 0 6.3 6.3 6.3 6.3 0 0 0 6.3-6.3 6.4 6.4 0 0 0 -6.3-6.3zm0 0a6.3 6.3 0 0 0 -6.3 6.3 6.3 6.3 0 0 0 6.3 6.3 6.3 6.3 0 0 0 6.3-6.3 6.4 6.4 0 0 0 -6.3-6.3zm0 0a6.3 6.3 0 0 0 -6.3 6.3 6.3 6.3 0 0 0 6.3 6.3 6.3 6.3 0 0 0 6.3-6.3 6.4 6.4 0 0 0 -6.3-6.3zm0 0a6.3 6.3 0 0 0 -6.3 6.3 6.3 6.3 0 0 0 6.3 6.3 6.3 6.3 0 0 0 6.3-6.3 6.4 6.4 0 0 0 -6.3-6.3zm0 0a6.3 6.3 0 0 0 -6.3 6.3 6.3 6.3 0 0 0 6.3 6.3 6.3 6.3 0 0 0 6.3-6.3 6.4 6.4 0 0 0 -6.3-6.3zm0 0a6.3 6.3 0 0 0 -6.3 6.3 6.3 6.3 0 0 0 6.3 6.3 6.3 6.3 0 0 0 6.3-6.3 6.4 6.4 0 0 0 -6.3-6.3zm0 0a6.3 6.3 0 0 0 -6.3 6.3 6.3 6.3 0 0 0 6.3 6.3 6.3 6.3 0 0 0 6.3-6.3 6.4 6.4 0 0 0 -6.3-6.3zm0 0a6.3 6.3 0 0 0 -6.3 6.3 6.3 6.3 0 0 0 6.3 6.3 6.3 6.3 0 0 0 6.3-6.3 6.4 6.4 0 0 0 -6.3-6.3zm0 0a6.3 6.3 0 0 0 -6.3 6.3 6.3 6.3 0 0 0 6.3 6.3 6.3 6.3 0 0 0 6.3-6.3 6.4 6.4 0 0 0 -6.3-6.3zm0 0a6.3 6.3 0 0 0 -6.3 6.3 6.3 6.3 0 0 0 6.3 6.3 6.3 6.3 0 0 0 6.3-6.3 6.4 6.4 0 0 0 -6.3-6.3zm0 0a6.3 6.3 0 0 0 -6.3 6.3 6.3 6.3 0 0 0 6.3 6.3 6.3 6.3 0 0 0 6.3-6.3 6.4 6.4 0 0 0 -6.3-6.3z" fill="#ee9714"/><path d="m1165.2 448.7a10.3 10.3 0 1 0 10.3 10.3 10.3 10.3 0 0 0 -10.3-10.3zm0 16.6a6.3 6.3 0 0 1 -6.3-6.3 6.3 6.3 0 1 1 12.6 0 6.3 6.3 0 0 1 -6.3 6.3z" fill="#212121"/><path d="m1171.5 459a6.3 6.3 0 1 1 -12.6 0 6.3 6.3 0 1 1 12.6 0z" fill="#fafafa"/><path d="m1167.9 459.5a2.7 2.7 0 0 1 -5.4.1.4.4 0 0 1 .4-.6h2.3v-2.3c0-.2.3-.4.5-.4a2.7 2.7 0 0 1 2.2 3.2z" fill="#212121"/><circle cx="1211.1" cy="459" fill="#f2f2f2" r="6.3"/><path d="m1213.8 459.5a2.9 2.9 0 0 1 -2.2 2.3 2.9 2.9 0 0 1 -3.3-2.2.6.6 0 0 1 .5-.6h2.3v-2.3a.5.5 0 0 1 .5-.4 2.8 2.8 0 0 1 2.2 3.2z" fill="#212121"/><rect fill="#212121" height="4.16" rx="1.3" width="4.2" x="1180.5" y="466.7"/><rect fill="#212121" height="4.16" rx="1.3" width="4.2" x="1192.2" y="466.7"/><rect fill="#212121" height="4.16" rx="1.3" width="4.2" x="1176.3" y="500.5"/><rect fill="#212121" height="4.16" rx="1.3" width="4.2" x="1182.5" y="500.5"/><rect fill="#212121" height="4.16" rx="1.3" width="4.2" x="1176.3" y="507"/><rect fill="#212121" height="4.16" rx="1.3" width="4.2" x="1182.5" y="507"/><rect fill="#212121" height="8.08" rx="1.3" transform="matrix(-1 0 0 -1 2390.5 1009.1)" width="10.2" x="1190.2" y="500.5"/><rect fill="#212121" height="3.75" rx="1.3" transform="matrix(-1 0 0 -1 2390.5 1027.9)" width="10.2" x="1190.2" y="512.1"/><rect fill="#212121" height="4.16" rx="1.3" width="4.2" x="1186.3" y="467.8"/><circle cx="1188.4" cy="426.2" fill="#ffad00" r="2.6"/><path d="m1198 584.5a2.6 2.6 0 1 1 -2.6-2.7 2.6 2.6 0 0 1 2.6 2.7z" fill="#ffad00"/><path d="m1184.5 584.5a2.6 2.6 0 0 1 -2.6 2.6 2.7 2.7 0 0 1 0-5.3 2.6 2.6 0 0 1 2.6 2.7z" fill="#ee9714"/><path d="m1232.4 547.5a2.6 2.6 0 0 1 -2.6 2.6 2.6 2.6 0 0 1 -2.6-2.6 2.5 2.5 0 0 1 2.6-2.6 2.6 2.6 0 0 1 2.6 2.6z" fill="#ffad00"/><path d="m1231.8 541.2c-.2-15.7-3.5-26.1-9.7-31.2a12.2 12.2 0 0 0 -7.8-3v-1a18.9 18.9 0 0 0 -18.9-18.9h-5.7v-9.4h19.9a18.7 18.7 0 0 0 0-37.3h-19.2v-7.9a6.7 6.7 0 0 0 4.6-6.3 6.6 6.6 0 1 0 -13.2 0 6.8 6.8 0 0 0 4.6 6.3v7.9h-20.5a18.7 18.7 0 0 0 0 37.3h19.8v9.4h-4.8a18.9 18.9 0 0 0 -18.9 18.4c-10.9-1-18.8-4.3-23.6-9.9a20 20 0 0 1 -4.7-12.5 6.8 6.8 0 0 0 4.6-6.3 6.6 6.6 0 1 0 -13.2 0 6.5 6.5 0 0 0 4.6 6.2 24.1 24.1 0 0 0 5.6 15.1c5.5 6.5 14.5 10.4 26.7 11.4v2.6a19 19 0 0 0 16.9 18.8v47.7a6.6 6.6 0 0 0 3 12.5 6.6 6.6 0 0 0 6.6-6.6 6.7 6.7 0 0 0 -5.6-6.6v-46.9h10.5v47.2a6.5 6.5 0 0 0 -4.6 6.3 6.6 6.6 0 1 0 13.2 0 6.5 6.5 0 0 0 -4.6-6.3v-47.3a19 19 0 0 0 16.9-18.8v-1.1a8.8 8.8 0 0 1 5.3 2.1c3.6 3 7.9 10.2 8.2 28.1a6.5 6.5 0 0 0 -4.6 6.3 6.6 6.6 0 0 0 13.2 0 6.5 6.5 0 0 0 -4.6-6.3zm-100.1-61.8a2.7 2.7 0 0 1 0-5.3 2.7 2.7 0 0 1 0 5.3zm54.1-53.2a2.6 2.6 0 0 1 2.6-2.6 2.5 2.5 0 0 1 2.6 2.6 2.6 2.6 0 0 1 -2.6 2.6 2.6 2.6 0 0 1 -2.6-2.6zm-19.9 47.5a14.7 14.7 0 0 1 0-29.3h43.7a14.7 14.7 0 0 1 0 29.3zm18.6 110.8a2.6 2.6 0 0 1 -2.6 2.6 2.7 2.7 0 0 1 0-5.3 2.6 2.6 0 0 1 2.6 2.7zm10.9 2.6a2.7 2.7 0 1 1 2.6-2.6 2.6 2.6 0 0 1 -2.6 2.6zm14.9-75a14.9 14.9 0 0 1 -14.9 14.9h-14.5a14.9 14.9 0 0 1 -14.9-14.9v-6.1a14.9 14.9 0 0 1 14.9-14.9h14.5a14.9 14.9 0 0 1 14.9 14.9zm19.5 38a2.6 2.6 0 0 1 -2.6-2.6 2.5 2.5 0 0 1 2.6-2.6 2.6 2.6 0 0 1 2.6 2.6 2.6 2.6 0 0 1 -2.6 2.6z"/><path d="m1134.3 476.8a2.6 2.6 0 0 1 -2.6 2.6 2.7 2.7 0 0 1 0-5.3 2.7 2.7 0 0 1 2.6 2.7z" fill="#ee9714"/><path d="m1211.1 448.7a10.3 10.3 0 1 0 10.3 10.3 10.3 10.3 0 0 0 -10.3-10.3zm0 16.6a6.3 6.3 0 0 1 -6.3-6.3 6.3 6.3 0 0 1 6.3-6.3 6.4 6.4 0 0 1 6.3 6.3 6.3 6.3 0 0 1 -6.3 6.3z" fill="#212121"/><path d="m1188.5 411.3a2 2 0 0 1 -2-2v-9a2 2 0 1 1 4 0v9a2 2 0 0 1 -2 2z" fill="#212121"/><path d="m1199.8 415.8 5-5"/><path d="m1199.8 417.8a2 2 0 0 1 -1.4-.6 1.9 1.9 0 0 1 0-2.8l5-5a2.1 2.1 0 0 1 2.9 0 2.1 2.1 0 0 1 0 2.8l-5 5a2 2 0 0 1 -1.5.6z" fill="#212121"/><path d="m1177.9 415.6-5.3-5.3"/><path d="m1177.9 417.6a2 2 0 0 1 -1.4-.6l-5.3-5.3a2.1 2.1 0 0 1 0-2.8 2.1 2.1 0 0 1 2.9 0l5.2 5.3a1.9 1.9 0 0 1 0 2.8 1.8 1.8 0 0 1 -1.4.6z" fill="#212121"/><rect fill="#ee9714" height="35.91" rx="14.9" width="44.3" x="978.9" y="490.3"/><path d="m984.5 458.2a6.4 6.4 0 1 1 -6.4-6.3 6.4 6.4 0 0 1 6.4 6.3z" fill="#ffad00"/><path d="m1024 451.9a6.3 6.3 0 1 0 6.3 6.3 6.3 6.3 0 0 0 -6.3-6.3zm0 0a6.3 6.3 0 1 0 6.3 6.3 6.3 6.3 0 0 0 -6.3-6.3zm0 0a6.3 6.3 0 1 0 6.3 6.3 6.3 6.3 0 0 0 -6.3-6.3zm0 0a6.3 6.3 0 1 0 6.3 6.3 6.3 6.3 0 0 0 -6.3-6.3zm0 0a6.3 6.3 0 1 0 6.3 6.3 6.3 6.3 0 0 0 -6.3-6.3zm0 0a6.3 6.3 0 1 0 6.3 6.3 6.3 6.3 0 0 0 -6.3-6.3zm0 0a6.3 6.3 0 1 0 6.3 6.3 6.3 6.3 0 0 0 -6.3-6.3zm0 0a6.3 6.3 0 1 0 6.3 6.3 6.3 6.3 0 0 0 -6.3-6.3zm0 0a6.3 6.3 0 1 0 6.3 6.3 6.3 6.3 0 0 0 -6.3-6.3zm0 0a6.3 6.3 0 1 0 6.3 6.3 6.3 6.3 0 0 0 -6.3-6.3zm0 0a6.3 6.3 0 1 0 6.3 6.3 6.3 6.3 0 0 0 -6.3-6.3zm0 0a6.3 6.3 0 1 0 6.3 6.3 6.3 6.3 0 0 0 -6.3-6.3zm-1.5-8.3h-43.7a14.6 14.6 0 1 0 0 29.2h43.7a14.6 14.6 0 0 0 0-29.2zm-44.4 24.9a10.3 10.3 0 1 1 10.4-10.3 10.3 10.3 0 0 1 -10.4 10.3zm45.9 0a10.3 10.3 0 1 1 10.3-10.3 10.3 10.3 0 0 1 -10.3 10.3zm0-16.6a6.3 6.3 0 1 0 6.3 6.3 6.3 6.3 0 0 0 -6.3-6.3zm0 0a6.3 6.3 0 1 0 6.3 6.3 6.3 6.3 0 0 0 -6.3-6.3zm0 0a6.3 6.3 0 1 0 6.3 6.3 6.3 6.3 0 0 0 -6.3-6.3zm0 0a6.3 6.3 0 1 0 6.3 6.3 6.3 6.3 0 0 0 -6.3-6.3zm0 0a6.3 6.3 0 1 0 6.3 6.3 6.3 6.3 0 0 0 -6.3-6.3zm0 0a6.3 6.3 0 1 0 6.3 6.3 6.3 6.3 0 0 0 -6.3-6.3zm0 0a6.3 6.3 0 1 0 6.3 6.3 6.3 6.3 0 0 0 -6.3-6.3zm0 0a6.3 6.3 0 1 0 6.3 6.3 6.3 6.3 0 0 0 -6.3-6.3zm0 0a6.3 6.3 0 1 0 6.3 6.3 6.3 6.3 0 0 0 -6.3-6.3zm0 0a6.3 6.3 0 1 0 6.3 6.3 6.3 6.3 0 0 0 -6.3-6.3zm0 0a6.3 6.3 0 1 0 6.3 6.3 6.3 6.3 0 0 0 -6.3-6.3z" fill="#ee9714"/><path d="m978.1 447.9a10.3 10.3 0 1 0 10.4 10.3 10.3 10.3 0 0 0 -10.4-10.3zm0 16.6a6.3 6.3 0 1 1 6.4-6.3 6.3 6.3 0 0 1 -6.4 6.3z" fill="#212121"/><path d="m984.5 458.2a6.4 6.4 0 1 1 -6.4-6.3 6.4 6.4 0 0 1 6.4 6.3z" fill="#f2f2f2"/><path d="m980.9 458.7a2.7 2.7 0 0 1 -2.3 2.2 2.7 2.7 0 0 1 -3.2-2.2c0-.2.2-.5.4-.5h2.3v-2.3a.4.4 0 0 1 .6-.4 2.9 2.9 0 0 1 2.2 3.2z" fill="#212121"/><circle cx="1024" cy="458.2" fill="#f2f2f2" r="6.3"/><path d="m1026.7 458.7a2.7 2.7 0 0 1 -5.4 0c-.1-.2.1-.5.4-.5h2.3v-2.3c0-.3.2-.5.5-.4a2.8 2.8 0 0 1 2.2 3.2z" fill="#212121"/><rect fill="#212121" height="4.16" rx="1.3" width="4.2" x="993.4" y="465.8"/><rect fill="#212121" height="4.16" rx="1.3" width="4.2" x="1005.2" y="465.8"/><rect fill="#212121" height="4.16" rx="1.3" width="4.2" x="989.2" y="499.7"/><rect fill="#212121" height="4.16" rx="1.3" width="4.2" x="995.5" y="499.7"/><rect fill="#212121" height="4.16" rx="1.3" width="4.2" x="989.2" y="506.1"/><rect fill="#212121" height="4.16" rx="1.3" width="4.2" x="995.5" y="506.1"/><rect fill="#212121" height="8.08" rx="1.3" transform="matrix(-1 0 0 -1 2016.4 1007.5)" width="10.2" x="1003.1" y="499.7"/><rect fill="#212121" height="3.75" rx="1.3" transform="matrix(-1 0 0 -1 2016.4 1026.3)" width="10.2" x="1003.1" y="511.3"/><rect fill="#212121" height="4.16" rx="1.3" width="4.2" x="999.3" y="467"/><circle cx="1001.3" cy="425.4" fill="#ffad00" r="2.6"/><path d="m1010.9 583.7a2.6 2.6 0 0 1 -2.6 2.6 2.7 2.7 0 0 1 0-5.3 2.6 2.6 0 0 1 2.6 2.7z" fill="#ffad00"/><path d="m997.4 583.7a2.6 2.6 0 0 1 -2.6 2.6 2.7 2.7 0 0 1 0-5.3 2.6 2.6 0 0 1 2.6 2.7z" fill="#ee9714"/><path d="m947.2 475.9a2.6 2.6 0 0 1 -2.6 2.7 2.7 2.7 0 0 1 0-5.3 2.6 2.6 0 0 1 2.6 2.6z" fill="#ee9714"/><path d="m1024 447.9a10.3 10.3 0 1 0 10.3 10.3 10.3 10.3 0 0 0 -10.3-10.3zm0 16.6a6.3 6.3 0 1 1 6.3-6.3 6.3 6.3 0 0 1 -6.3 6.3z" fill="#212121"/><path d="m1001.1 410.6a2 2 0 0 1 -2-2v-9a2 2 0 0 1 4 0v9a2 2 0 0 1 -2 2z" fill="#212121"/><path d="m1012.4 415.2 5-5"/><path d="m1012.4 417.2a2 2 0 0 1 -1.4-.6 2.1 2.1 0 0 1 0-2.9l5-5a2.1 2.1 0 1 1 2.9 2.9l-5 5a2 2 0 0 1 -1.5.6z" fill="#212121"/><path d="m990.5 414.9-5.3-5.3"/><path d="m990.5 416.9a2 2 0 0 1 -1.4-.6l-5.3-5.3a2.1 2.1 0 0 1 0-2.8 2.1 2.1 0 0 1 2.9 0l5.3 5.3a2.1 2.1 0 0 1 0 2.8 2.2 2.2 0 0 1 -1.5.6z" fill="#212121"/><path d="m1037.1 458.2a14.6 14.6 0 0 1 -14.6 14.6h-43.7a14.6 14.6 0 1 1 0-29.2h43.7a14.7 14.7 0 0 1 14.6 14.6z" fill="none"/><path d="m997.4 583.7a2.6 2.6 0 0 1 -2.6 2.6 2.7 2.7 0 0 1 0-5.3 2.6 2.6 0 0 1 2.6 2.7z" fill="none"/><path d="m1010.9 583.7a2.6 2.6 0 0 1 -2.6 2.6 2.7 2.7 0 0 1 0-5.3 2.6 2.6 0 0 1 2.6 2.7z" fill="none"/><circle cx="1001.3" cy="425.4" fill="none" r="2.6"/><path d="m947.2 475.9a2.6 2.6 0 0 1 -2.6 2.7 2.7 2.7 0 0 1 0-5.3 2.6 2.6 0 0 1 2.6 2.6z" fill="none"/><rect fill="none" height="35.91" rx="14.9" width="44.3" x="978.9" y="490.3"/><path d="m1060.2 475.9a2.7 2.7 0 1 1 -2.6-2.6 2.7 2.7 0 0 1 2.6 2.6z" fill="#ee9714"/><path d="m1027.2 504c-.1-.6-.1-1.2-.2-1.8v.6a9.9 9.9 0 0 1 .2 1.7z"/><path d="m1057.6 469.3a6.7 6.7 0 0 0 -6.7 6.6 6.8 6.8 0 0 0 4.7 6.4 20.5 20.5 0 0 1 -4.8 12.4c-4.8 5.7-12.7 9-23.6 10v-.2a9.9 9.9 0 0 0 -.2-1.7v-.2a18.8 18.8 0 0 0 -18.7-16.3h-5.6v-9.5h19.8a18.6 18.6 0 0 0 0-37.2h-19.2v-7.9a6.8 6.8 0 0 0 4.7-6.3 6.7 6.7 0 0 0 -13.3 0 6.8 6.8 0 0 0 4.6 6.3v7.9h-20.5a18.6 18.6 0 1 0 0 37.2h19.9v9.5h-4.9a19 19 0 0 0 -18.4 14.7c-.1.4-.1.8-.2 1.2l-.3 2.5c-10.8-1-18.8-4.3-23.5-10a19.9 19.9 0 0 1 -4.8-12.4 6.7 6.7 0 0 0 4.6-6.4 6.6 6.6 0 0 0 -13.2 0 6.5 6.5 0 0 0 4.6 6.3 24.1 24.1 0 0 0 5.6 15.1c5.6 6.5 14.5 10.4 26.7 11.4v2.6c0 .6.1 1.1.1 1.7a19.1 19.1 0 0 0 16.8 17v47.7a6.6 6.6 0 0 0 3 12.5 6.6 6.6 0 0 0 1-13.2v-46.8h10.5v47.1a6.7 6.7 0 0 0 2 13 6.6 6.6 0 0 0 6.6-6.6 6.7 6.7 0 0 0 -4.6-6.4v-47.2a19 19 0 0 0 16.8-17c0-.3.1-.6.1-.9v-.5-2.9c12.2-1 21.1-4.9 26.6-11.4a25 25 0 0 0 5.7-15.1 6.5 6.5 0 0 0 4.6-6.3 6.7 6.7 0 0 0 -6.5-6.7zm-113 9.3a2.7 2.7 0 0 1 0-5.3 2.7 2.7 0 0 1 0 5.3zm54.1-53.2a2.7 2.7 0 0 1 5.3 0 2.7 2.7 0 0 1 -5.3 0zm-19.9 47.4a14.6 14.6 0 1 1 0-29.2h43.7a14.6 14.6 0 0 1 0 29.2zm18.6 110.9a2.6 2.6 0 0 1 -2.6 2.6 2.7 2.7 0 0 1 0-5.3 2.6 2.6 0 0 1 2.6 2.7zm13.5 0a2.6 2.6 0 0 1 -2.6 2.6 2.7 2.7 0 0 1 0-5.3 2.6 2.6 0 0 1 2.6 2.7zm12.3-72.4a14.9 14.9 0 0 1 -14.9 14.9h-14.5a14.9 14.9 0 0 1 -14.9-14.9v-6.1a14.9 14.9 0 0 1 14.9-14.9h14.5a14.9 14.9 0 0 1 14.9 14.9zm34.4-32.7a2.7 2.7 0 1 1 0-5.3 2.7 2.7 0 0 1 0 5.3z"/><path d="m975.4 501c-.1.4-.1.8-.2 1.2s.1-.9.2-1.2z"/><path d="m153.6 594.8a12.8 12.8 0 1 1 12.9-12.8 12.8 12.8 0 0 1 -12.9 12.8zm0-21.6a8.8 8.8 0 1 0 8.9 8.8 8.8 8.8 0 0 0 -8.9-8.8z" fill="#fff"/><path d="m207.4 594.8a12.8 12.8 0 1 1 12.8-12.8 12.8 12.8 0 0 1 -12.8 12.8zm0-21.6a8.8 8.8 0 1 0 8.8 8.8 8.8 8.8 0 0 0 -8.8-8.8z" fill="#fff"/><path d="m190.3 584h-19.5l-2-2a15.2 15.2 0 0 0 -15.2-15.2 15 15 0 0 0 -13.9 9.4 4.2 4.2 0 0 1 -2.9 2.4 4.2 4.2 0 0 1 -3.6-.8 26.4 26.4 0 0 1 -9.2-19.9c0-11 6.1-20.3 15.6-24.2.7-14.5 12.9-26.5 27.2-26.5h15.6c14.5 0 26 10.6 27 24.4l4.1.2a26.1 26.1 0 0 1 26.1 26.1 25.8 25.8 0 0 1 -11.6 21.6 3.8 3.8 0 0 1 -3.6.5 4.2 4.2 0 0 1 -2.6-2.6 15.1 15.1 0 0 0 -29.5 4.6zm-17.6-4h15.7a19.1 19.1 0 0 1 37.2-3.8h.2a22.1 22.1 0 0 0 -12.4-40.4l-6.1-.3-1.9-2c0-12.5-10.1-22.3-23-22.3h-15.6c-12.6 0-23.2 10.9-23.2 23.9l-1.4 1.9c-8.6 2.9-14.2 11.1-14.2 20.9a22.1 22.1 0 0 0 7.8 16.8h.2a19.1 19.1 0 0 1 36.7 5.4z" fill="#fff"/><rect fill="none" height="27.79" rx="11.5" width="34.3" x="344.1" y="392.8"/><path d="m348.4 368a4.9 4.9 0 0 1 -9.8 0 4.9 4.9 0 0 1 9.8 0z" fill="none"/><path d="m379 363.1a4.9 4.9 0 0 0 -4.9 4.9 4.8 4.8 0 0 0 4.9 4.8 4.7 4.7 0 0 0 4.8-4.8 4.8 4.8 0 0 0 -4.8-4.9zm0 0a4.9 4.9 0 0 0 -4.9 4.9 4.8 4.8 0 0 0 4.9 4.8 4.7 4.7 0 0 0 4.8-4.8 4.8 4.8 0 0 0 -4.8-4.9zm0 0a4.9 4.9 0 0 0 -4.9 4.9 4.8 4.8 0 0 0 4.9 4.8 4.7 4.7 0 0 0 4.8-4.8 4.8 4.8 0 0 0 -4.8-4.9zm0 0a4.9 4.9 0 0 0 -4.9 4.9 4.8 4.8 0 0 0 4.9 4.8 4.7 4.7 0 0 0 4.8-4.8 4.8 4.8 0 0 0 -4.8-4.9zm0 0a4.9 4.9 0 0 0 -4.9 4.9 4.8 4.8 0 0 0 4.9 4.8 4.7 4.7 0 0 0 4.8-4.8 4.8 4.8 0 0 0 -4.8-4.9zm0 0a4.9 4.9 0 0 0 -4.9 4.9 4.8 4.8 0 0 0 4.9 4.8 4.7 4.7 0 0 0 4.8-4.8 4.8 4.8 0 0 0 -4.8-4.9zm0 0a4.9 4.9 0 0 0 -4.9 4.9 4.8 4.8 0 0 0 4.9 4.8 4.7 4.7 0 0 0 4.8-4.8 4.8 4.8 0 0 0 -4.8-4.9zm0 0a4.9 4.9 0 0 0 -4.9 4.9 4.8 4.8 0 0 0 4.9 4.8 4.7 4.7 0 0 0 4.8-4.8 4.8 4.8 0 0 0 -4.8-4.9zm0 0a4.9 4.9 0 0 0 -4.9 4.9 4.8 4.8 0 0 0 4.9 4.8 4.7 4.7 0 0 0 4.8-4.8 4.8 4.8 0 0 0 -4.8-4.9zm0 0a4.9 4.9 0 0 0 -4.9 4.9 4.8 4.8 0 0 0 4.9 4.8 4.7 4.7 0 0 0 4.8-4.8 4.8 4.8 0 0 0 -4.8-4.9zm0 0a4.9 4.9 0 0 0 -4.9 4.9 4.8 4.8 0 0 0 4.9 4.8 4.7 4.7 0 0 0 4.8-4.8 4.8 4.8 0 0 0 -4.8-4.9zm0 0a4.9 4.9 0 0 0 -4.9 4.9 4.8 4.8 0 0 0 4.9 4.8 4.7 4.7 0 0 0 4.8-4.8 4.8 4.8 0 0 0 -4.8-4.9zm-1.2-6.5h-33.8a11.4 11.4 0 0 0 0 22.7h33.8a11.4 11.4 0 0 0 0-22.7zm-34.3 19.3a7.9 7.9 0 0 1 -8-7.9 8 8 0 0 1 16 0 7.9 7.9 0 0 1 -8 7.9zm35.5 0a7.9 7.9 0 0 1 -8-7.9 8 8 0 0 1 8-8 7.9 7.9 0 0 1 7.9 8 7.9 7.9 0 0 1 -7.9 7.9zm0-12.8a4.9 4.9 0 0 0 -4.9 4.9 4.8 4.8 0 0 0 4.9 4.8 4.7 4.7 0 0 0 4.8-4.8 4.8 4.8 0 0 0 -4.8-4.9zm0 0a4.9 4.9 0 0 0 -4.9 4.9 4.8 4.8 0 0 0 4.9 4.8 4.7 4.7 0 0 0 4.8-4.8 4.8 4.8 0 0 0 -4.8-4.9zm0 0a4.9 4.9 0 0 0 -4.9 4.9 4.8 4.8 0 0 0 4.9 4.8 4.7 4.7 0 0 0 4.8-4.8 4.8 4.8 0 0 0 -4.8-4.9zm0 0a4.9 4.9 0 0 0 -4.9 4.9 4.8 4.8 0 0 0 4.9 4.8 4.7 4.7 0 0 0 4.8-4.8 4.8 4.8 0 0 0 -4.8-4.9zm0 0a4.9 4.9 0 0 0 -4.9 4.9 4.8 4.8 0 0 0 4.9 4.8 4.7 4.7 0 0 0 4.8-4.8 4.8 4.8 0 0 0 -4.8-4.9zm0 0a4.9 4.9 0 0 0 -4.9 4.9 4.8 4.8 0 0 0 4.9 4.8 4.7 4.7 0 0 0 4.8-4.8 4.8 4.8 0 0 0 -4.8-4.9zm0 0a4.9 4.9 0 0 0 -4.9 4.9 4.8 4.8 0 0 0 4.9 4.8 4.7 4.7 0 0 0 4.8-4.8 4.8 4.8 0 0 0 -4.8-4.9zm0 0a4.9 4.9 0 0 0 -4.9 4.9 4.8 4.8 0 0 0 4.9 4.8 4.7 4.7 0 0 0 4.8-4.8 4.8 4.8 0 0 0 -4.8-4.9zm0 0a4.9 4.9 0 0 0 -4.9 4.9 4.8 4.8 0 0 0 4.9 4.8 4.7 4.7 0 0 0 4.8-4.8 4.8 4.8 0 0 0 -4.8-4.9zm0 0a4.9 4.9 0 0 0 -4.9 4.9 4.8 4.8 0 0 0 4.9 4.8 4.7 4.7 0 0 0 4.8-4.8 4.8 4.8 0 0 0 -4.8-4.9zm0 0a4.9 4.9 0 0 0 -4.9 4.9 4.8 4.8 0 0 0 4.9 4.8 4.7 4.7 0 0 0 4.8-4.8 4.8 4.8 0 0 0 -4.8-4.9z" fill="none"/><path d="m343.5 360a8 8 0 0 0 -8 8 8 8 0 0 0 16 0 8 8 0 0 0 -8-8zm0 12.8a4.8 4.8 0 0 1 -4.9-4.8 4.9 4.9 0 0 1 9.8 0 4.8 4.8 0 0 1 -4.9 4.8z" fill="#fff"/><path d="m348.4 368a4.9 4.9 0 0 1 -9.8 0 4.9 4.9 0 0 1 9.8 0z" fill="none"/><path d="m345.6 368.4a2.4 2.4 0 0 1 -1.7 1.7 2.2 2.2 0 0 1 -2.5-1.7c-.1-.2.1-.4.3-.4h1.8v-1.8c0-.2.2-.4.4-.3a2.1 2.1 0 0 1 1.7 2.5z" fill="#fff"/><circle cx="379" cy="368" fill="none" r="4.9"/><path d="m381.1 368.4a2.4 2.4 0 0 1 -1.8 1.7 2.2 2.2 0 0 1 -2.5-1.7.4.4 0 0 1 .4-.4h1.8v-1.8c0-.2.2-.4.4-.3a2.1 2.1 0 0 1 1.7 2.5z" fill="#fff"/><rect fill="#fff" height="3.22" rx="1.3" width="3.2" x="355.3" y="373.9"/><rect fill="#fff" height="3.22" rx="1.3" width="3.2" x="364.4" y="373.9"/><rect fill="#fff" height="3.22" rx="1.3" width="3.2" x="352.1" y="400.1"/><rect fill="#fff" height="3.22" rx="1.3" width="3.2" x="356.9" y="400.1"/><rect fill="#fff" height="3.22" rx="1.3" width="3.2" x="352.1" y="405.1"/><rect fill="#fff" height="3.22" rx="1.3" width="3.2" x="356.9" y="405.1"/><rect fill="#fff" height="6.26" rx="1.3" transform="matrix(-1 0 0 -1 733.5 806.4)" width="7.9" x="362.8" y="400.1"/><rect fill="#fff" height="2.9" rx="1.3" transform="matrix(-1 0 0 -1 733.5 820.9)" width="7.9" x="362.8" y="409"/><rect fill="#fff" height="3.22" rx="1.3" width="3.2" x="359.8" y="374.7"/><path d="m363.4 342a2.1 2.1 0 0 1 -2 2.6 2 2 0 0 1 -2-2.1 2.1 2.1 0 0 1 2.7-1.9 2.3 2.3 0 0 1 1.3 1.4z" fill="none"/><path d="m395.5 436.4a2 2 0 0 1 -2 2 2 2 0 1 1 0-4 2 2 0 0 1 2 2z" fill="none"/><path d="m395 431.5c-.2-12.1-2.7-20.2-7.5-24.1a9.5 9.5 0 0 0 -6-2.3v-.8a14.6 14.6 0 0 0 -14.7-14.6h-4.3v-7.3h15.3a14.5 14.5 0 0 0 0-28.9h-14.8v-6.1a5.1 5.1 0 0 0 3.6-4.9 5.2 5.2 0 0 0 -10.3 0 5.1 5.1 0 0 0 3.6 4.9v6.1h-15.9a14.5 14.5 0 0 0 0 28.9h15.4v7.3h-3.8a14.6 14.6 0 0 0 -14.6 14.2c-8.4-.7-14.6-3.3-18.2-7.7a15.3 15.3 0 0 1 -3.7-9.6 5.3 5.3 0 0 0 3.6-4.9 5.2 5.2 0 0 0 -10.3 0 5 5 0 0 0 3.6 4.8 18.7 18.7 0 0 0 4.3 11.7c4.3 5.1 11.3 8 20.7 8.9v1.9a14.6 14.6 0 0 0 13.1 14.6v36.9a4.9 4.9 0 0 0 -2.8 4.5 5.1 5.1 0 0 0 10.2 0 5.1 5.1 0 0 0 -4.3-5v-36.4h8.1v36.5a5.2 5.2 0 1 0 3.1 0v-36.5a14.7 14.7 0 0 0 13.1-14.6v-.8a7.1 7.1 0 0 1 4.1 1.6c2.8 2.3 6.1 7.9 6.3 21.7a5.2 5.2 0 1 0 3.1 0zm-77.5-47.8a2 2 0 0 1 -2-2 2.1 2.1 0 1 1 4.1 0 2 2 0 0 1 -2.1 2zm41.9-41.2a2 2 0 0 1 2-2 2 2 0 0 1 2.1 2 2.1 2.1 0 0 1 -2.1 2.1 2 2 0 0 1 -2-2.1zm-15.4 36.8a11.4 11.4 0 0 1 0-22.7h33.8a11.4 11.4 0 0 1 0 22.7zm14.4 85.7a2 2 0 1 1 -2-2 2 2 0 0 1 2 2zm8.4 2a2 2 0 1 1 0-4 2 2 0 1 1 0 4zm11.6-58a11.6 11.6 0 0 1 -11.6 11.6h-11.2a11.6 11.6 0 0 1 -11.5-11.6v-4.7a11.5 11.5 0 0 1 11.5-11.5h11.2a11.5 11.5 0 0 1 11.6 11.5zm15.1 29.4a2 2 0 1 1 0-4 2 2 0 0 1 0 4z" fill="#fff"/><path d="m319.6 381.7a2 2 0 0 1 -2.1 2 2 2 0 0 1 -2-2 2.1 2.1 0 1 1 4.1 0z" fill="none"/><path d="m379 360a8 8 0 0 0 -8 8 7.9 7.9 0 0 0 8 7.9 7.9 7.9 0 0 0 7.9-7.9 7.9 7.9 0 0 0 -7.9-8zm0 12.8a4.8 4.8 0 0 1 -4.9-4.8 4.9 4.9 0 0 1 4.9-4.9 4.8 4.8 0 0 1 4.8 4.9 4.7 4.7 0 0 1 -4.8 4.8z" fill="#fff"/><path d="m361.5 331a1.6 1.6 0 0 1 -1.5-1.6v-6.9a1.5 1.5 0 0 1 1.5-1.5 1.6 1.6 0 0 1 1.6 1.5v6.9a1.6 1.6 0 0 1 -1.6 1.6z" fill="#fff"/><path d="m370.3 334.5 3.8-3.8" fill="#fff"/><path d="m370.3 336.1a1.6 1.6 0 0 1 -1.1-.5 1.6 1.6 0 0 1 0-2.2l3.8-3.8a1.6 1.6 0 0 1 2.2 2.2l-3.8 3.8a1.6 1.6 0 0 1 -1.1.5z" fill="#fff"/><path d="m353.3 334.3-4.1-4.1" fill="#fff"/><path d="m353.3 335.9a1.6 1.6 0 0 1 -1.1-.5l-4.1-4.1a1.6 1.6 0 0 1 2.2-2.2l4.1 4.1a1.6 1.6 0 0 1 0 2.2 1.6 1.6 0 0 1 -1.1.5z" fill="#fff"/><path d="m227.4 391.3h-100.7a2 2 0 1 1 0-4h100.7a2 2 0 1 1 0 4z" fill="#fff"/><path d="m205.3 432.5a2 2 0 0 1 -2-2v-81.2a2 2 0 0 1 2-2 1.9 1.9 0 0 1 2 2v81.2a1.9 1.9 0 0 1 -2 2z" fill="#fff"/><path d="m177.4 432.5a2 2 0 0 1 -2-2v-81.2a2 2 0 0 1 4 0v81.2a2 2 0 0 1 -2 2z" fill="#fff"/><path d="m149.1 432.5a2 2 0 0 1 -2-2v-81.2a2 2 0 0 1 4 0v81.2a2 2 0 0 1 -2 2z" fill="#fff"/><path d="m841.3 409.2a33.8 33.8 0 1 0 33.8-33.8 33.8 33.8 0 0 0 -33.8 33.8zm47.2 2v11.4h-11.4v-4h7.4v-7.4zm-22.9 0v7.4h7.5v4h-11.5v-11.4zm22.9-15.5v11.5h-4v-7.5h-7.4v-4zm-15.4 0v4h-7.5v7.5h-4v-11.5z" fill="#fff"/><path d="m819.9 408.8a33.8 33.8 0 1 0 -33.8 33.8 33.7 33.7 0 0 0 33.8-33.8zm-48.2-2.5v-4h7.4v-7.4h4v11.4zm17.4 0v-11.4h4v7.4h7.5v4zm-10 16.5v-7.5h-7.4v-4h11.4v11.5zm10 0v-11.5h11.5v4h-7.5v7.5z" fill="#fff"/><path d="m222 208.4a15.8 15.8 0 1 0 15.7 15.7 15.7 15.7 0 0 0 -15.7-15.7zm0 25.2a9.5 9.5 0 1 1 9.5-9.5 9.6 9.6 0 0 1 -9.5 9.5z" fill="#212121"/><path d="m222 214.6a9.5 9.5 0 1 0 9.5 9.5 9.6 9.6 0 0 0 -9.5-9.5zm0 13.7a4.2 4.2 0 0 1 -4.2-4.2h4.2v-4.2a4.2 4.2 0 0 1 0 8.4z" fill="#f2f2f2"/><path d="m222 228.3a4.2 4.2 0 0 1 -4.2-4.2h4.2v-4.2a4.2 4.2 0 0 1 0 8.4z" fill="#212121"/><path d="m152.4 208.4a15.8 15.8 0 1 0 15.8 15.7 15.7 15.7 0 0 0 -15.8-15.7zm0 25.2a9.5 9.5 0 1 1 9.5-9.5 9.5 9.5 0 0 1 -9.5 9.5z" fill="#212121"/><path d="m152.4 214.6a9.5 9.5 0 1 0 9.5 9.5 9.5 9.5 0 0 0 -9.5-9.5zm0 13.7a4.2 4.2 0 0 1 -4.2-4.2h4.2v-4.2a4.2 4.2 0 1 1 0 8.4z" fill="#f2f2f2"/><path d="m156.7 224.1a4.3 4.3 0 0 1 -8.5 0h4.2v-4.2a4.2 4.2 0 0 1 4.3 4.2z" fill="#212121"/><path d="m226.2 224.1a4.2 4.2 0 0 1 -8.4 0h4.2v-4.2a4.2 4.2 0 0 1 4.2 4.2z" fill="#212121"/><rect fill="#212121" height="6.3" rx="1.3" width="6.3" x="175.6" y="235.7"/><path d="m199.7 236.9v3.8a1.2 1.2 0 0 1 -1.2 1.3h-3.8a1.3 1.3 0 0 1 -1.3-1.3v-3.8a1.2 1.2 0 0 1 1.3-1.2h3.8a1.2 1.2 0 0 1 1.2 1.2z" fill="#212121"/><path d="m190.8 238.7v3.7a1.3 1.3 0 0 1 -1.3 1.3h-3.7a1.3 1.3 0 0 1 -1.3-1.3v-3.7a1.3 1.3 0 0 1 1.3-1.3h3.7a1.3 1.3 0 0 1 1.3 1.3z" fill="#212121"/><path d="m219.7 246.2h-66.2a22.1 22.1 0 1 1 0-44.2h66.2a22.1 22.1 0 1 1 0 44.2zm0-50.4h-28.9v-11.9a10 10 0 0 0 7-9.6 10.2 10.2 0 1 0 -13.3 9.6v11.9h-31a28.4 28.4 0 0 0 0 56.7h66.2a28.4 28.4 0 1 0 0-56.7zm-32-17.7a3.9 3.9 0 1 1 3.8-3.8 3.8 3.8 0 0 1 -3.8 3.8z" fill="#212121"/><path d="m191.5 174.3a3.9 3.9 0 0 1 -7.7 0 3.9 3.9 0 1 1 7.7 0z" fill="#ee9714"/><path d="m219.7 202h-66.2a22.1 22.1 0 1 0 0 44.2h66.2a22.1 22.1 0 1 0 0-44.2zm-67.3 37.9a15.8 15.8 0 1 1 15.8-15.8 15.8 15.8 0 0 1 -15.8 15.8zm29.5.8a1.3 1.3 0 0 1 -1.3 1.3h-3.8a1.2 1.2 0 0 1 -1.2-1.3v-3.8a1.2 1.2 0 0 1 1.2-1.2h3.8a1.2 1.2 0 0 1 1.3 1.2zm8.9 1.7a1.3 1.3 0 0 1 -1.3 1.3h-3.7a1.3 1.3 0 0 1 -1.3-1.3v-3.7a1.3 1.3 0 0 1 1.3-1.3h3.7a1.3 1.3 0 0 1 1.3 1.3zm8.9-1.7a1.2 1.2 0 0 1 -1.2 1.3h-3.8a1.3 1.3 0 0 1 -1.3-1.3v-3.8a1.2 1.2 0 0 1 1.3-1.2h3.8a1.2 1.2 0 0 1 1.2 1.2zm22.3-.8a15.8 15.8 0 1 1 15.7-15.8 15.7 15.7 0 0 1 -15.7 15.8z" fill="#ee9714"/><path d="m420.4 208.4a15.8 15.8 0 1 0 15.8 15.7 15.7 15.7 0 0 0 -15.8-15.7zm0 25.2a9.5 9.5 0 1 1 9.5-9.5 9.6 9.6 0 0 1 -9.5 9.5z" fill="#fff"/><path d="m420.4 214.6a9.5 9.5 0 1 0 9.5 9.5 9.6 9.6 0 0 0 -9.5-9.5zm0 13.7a4.2 4.2 0 0 1 -4.2-4.2h4.2v-4.2a4.2 4.2 0 1 1 0 8.4z"/><path d="m420.4 228.3a4.2 4.2 0 0 1 -4.2-4.2h4.2v-4.2a4.2 4.2 0 1 1 0 8.4z" fill="#212121"/><path d="m350.9 208.4a15.8 15.8 0 1 0 15.7 15.7 15.7 15.7 0 0 0 -15.7-15.7zm0 25.2a9.5 9.5 0 1 1 9.5-9.5 9.6 9.6 0 0 1 -9.5 9.5z" fill="#fff"/><path d="m350.9 214.6a9.5 9.5 0 1 0 9.5 9.5 9.6 9.6 0 0 0 -9.5-9.5zm0 13.7a4.2 4.2 0 0 1 -4.2-4.2h4.2v-4.2a4.2 4.2 0 1 1 0 8.4z"/><path d="m355.1 224.1a4.2 4.2 0 0 1 -8.4 0h4.2v-4.2a4.2 4.2 0 0 1 4.2 4.2z" fill="#fff"/><path d="m424.6 224.1a4.2 4.2 0 0 1 -8.4 0h4.2v-4.2a4.2 4.2 0 0 1 4.2 4.2z" fill="#fff"/><path d="m380.3 236.9v3.8a1.3 1.3 0 0 1 -1.3 1.3h-3.7a1.3 1.3 0 0 1 -1.3-1.3v-3.8a1.2 1.2 0 0 1 1.3-1.2h3.7a1.2 1.2 0 0 1 1.3 1.2z" fill="#fff"/><path d="m398.2 236.9v3.8a1.3 1.3 0 0 1 -1.3 1.3h-3.8a1.2 1.2 0 0 1 -1.2-1.3v-3.8a1.2 1.2 0 0 1 1.2-1.2h3.8a1.2 1.2 0 0 1 1.3 1.2z" fill="#fff"/><path d="m389.2 238.7v3.7a1.2 1.2 0 0 1 -1.2 1.3h-3.8a1.3 1.3 0 0 1 -1.3-1.3v-3.7a1.3 1.3 0 0 1 1.3-1.3h3.8a1.2 1.2 0 0 1 1.2 1.3z" fill="#fff"/><path d="m418.1 246.2h-66.2a22.1 22.1 0 1 1 0-44.2h66.2a22.1 22.1 0 0 1 0 44.2zm0-50.4h-28.9v-11.9a10 10 0 0 0 7-9.6 10.1 10.1 0 1 0 -20.2 0 10 10 0 0 0 7 9.6v11.9h-31.1a28.4 28.4 0 0 0 0 56.7h66.2a28.4 28.4 0 1 0 0-56.7zm-32-17.7a3.9 3.9 0 1 1 0-7.7 3.9 3.9 0 1 1 0 7.7z" fill="#fff"/><path d="m390 174.3a3.9 3.9 0 0 1 -3.9 3.8 3.9 3.9 0 1 1 0-7.7 3.9 3.9 0 0 1 3.9 3.9z"/><path d="m418.1 202h-66.2a22.1 22.1 0 1 0 0 44.2h66.2a22.1 22.1 0 0 0 0-44.2zm-67.2 37.9a15.8 15.8 0 1 1 0-31.5 15.8 15.8 0 0 1 0 31.5zm29.4.8a1.3 1.3 0 0 1 -1.3 1.3h-3.7a1.3 1.3 0 0 1 -1.3-1.3v-3.8a1.2 1.2 0 0 1 1.3-1.2h3.7a1.2 1.2 0 0 1 1.3 1.2zm8.9 1.7a1.2 1.2 0 0 1 -1.2 1.3h-3.8a1.3 1.3 0 0 1 -1.3-1.3v-3.7a1.3 1.3 0 0 1 1.3-1.3h3.8a1.2 1.2 0 0 1 1.2 1.3zm9-1.7a1.3 1.3 0 0 1 -1.3 1.3h-3.8a1.2 1.2 0 0 1 -1.2-1.3v-3.8a1.2 1.2 0 0 1 1.2-1.2h3.8a1.2 1.2 0 0 1 1.3 1.2zm22.2-.8a15.8 15.8 0 1 1 15.8-15.8 15.8 15.8 0 0 1 -15.8 15.8z"/><path d="m619.7 208.4a15.8 15.8 0 1 0 15.7 15.7 15.7 15.7 0 0 0 -15.7-15.7zm0 25.2a9.5 9.5 0 1 1 9.5-9.5 9.6 9.6 0 0 1 -9.5 9.5z"/><path d="m619.7 214.6a9.5 9.5 0 1 0 9.5 9.5 9.6 9.6 0 0 0 -9.5-9.5zm0 13.7a4.2 4.2 0 0 1 -4.2-4.2h4.2v-4.2a4.2 4.2 0 0 1 0 8.4z" fill="#f2f2f2"/><path d="m619.7 228.3a4.2 4.2 0 0 1 -4.2-4.2h4.2v-4.2a4.2 4.2 0 0 1 0 8.4z" fill="#212121"/><path d="m550.1 208.4a15.8 15.8 0 1 0 15.8 15.7 15.7 15.7 0 0 0 -15.8-15.7zm0 25.2a9.5 9.5 0 1 1 9.5-9.5 9.5 9.5 0 0 1 -9.5 9.5z"/><path d="m550.1 214.6a9.5 9.5 0 1 0 9.5 9.5 9.5 9.5 0 0 0 -9.5-9.5zm0 13.7a4.2 4.2 0 0 1 -4.2-4.2h4.2v-4.2a4.2 4.2 0 0 1 0 8.4z" fill="#f2f2f2"/><path d="m554.3 224.1a4.2 4.2 0 0 1 -4.2 4.2 4.2 4.2 0 0 1 -4.2-4.2h4.2v-4.2a4.2 4.2 0 0 1 4.2 4.2z"/><path d="m623.9 224.1a4.2 4.2 0 1 1 -8.4 0h4.2v-4.2a4.2 4.2 0 0 1 4.2 4.2z"/><path d="m579.6 236.9v3.8a1.3 1.3 0 0 1 -1.3 1.3h-3.8a1.2 1.2 0 0 1 -1.2-1.3v-3.8a1.2 1.2 0 0 1 1.2-1.2h3.8a1.2 1.2 0 0 1 1.3 1.2z"/><path d="m597.4 236.9v3.8a1.2 1.2 0 0 1 -1.2 1.3h-3.8a1.3 1.3 0 0 1 -1.3-1.3v-3.8a1.2 1.2 0 0 1 1.3-1.2h3.8a1.2 1.2 0 0 1 1.2 1.2z"/><path d="m588.5 238.7v3.7a1.3 1.3 0 0 1 -1.3 1.3h-3.7a1.3 1.3 0 0 1 -1.3-1.3v-3.7a1.3 1.3 0 0 1 1.3-1.3h3.7a1.3 1.3 0 0 1 1.3 1.3z"/><path d="m617.4 246.2h-66.2a22.1 22.1 0 0 1 0-44.2h66.2a22.1 22.1 0 1 1 0 44.2zm0-50.4h-28.9v-11.9a10.2 10.2 0 1 0 -6.3 0v11.9h-31a28.4 28.4 0 1 0 0 56.7h66.2a28.4 28.4 0 0 0 0-56.7zm-32.1-17.7a3.9 3.9 0 0 1 0-7.7 3.9 3.9 0 1 1 0 7.7z"/><path d="m589.2 174.3a3.9 3.9 0 1 1 -3.9-3.9 3.8 3.8 0 0 1 3.9 3.9z" fill="#fff"/><path d="m617.4 202h-66.2a22.1 22.1 0 0 0 0 44.2h66.2a22.1 22.1 0 1 0 0-44.2zm-67.3 37.9a15.8 15.8 0 1 1 15.8-15.8 15.8 15.8 0 0 1 -15.8 15.8zm29.5.8a1.3 1.3 0 0 1 -1.3 1.3h-3.8a1.2 1.2 0 0 1 -1.2-1.3v-3.8a1.2 1.2 0 0 1 1.2-1.2h3.8a1.2 1.2 0 0 1 1.3 1.2zm8.9 1.7a1.3 1.3 0 0 1 -1.3 1.3h-3.7a1.3 1.3 0 0 1 -1.3-1.3v-3.7a1.3 1.3 0 0 1 1.3-1.3h3.7a1.3 1.3 0 0 1 1.3 1.3zm8.9-1.7a1.2 1.2 0 0 1 -1.2 1.3h-3.8a1.3 1.3 0 0 1 -1.3-1.3v-3.8a1.2 1.2 0 0 1 1.3-1.2h3.8a1.2 1.2 0 0 1 1.2 1.2zm22.3-.8a15.8 15.8 0 1 1 0-31.5 15.8 15.8 0 0 1 0 31.5z" fill="#fff"/></svg>