<svg xmlns="http://www.w3.org/2000/svg" width="1300" height="422" viewBox="0 0 1300 422"><path fill="#fff" d="M40 45.3h-1.3a3.7 3.7 0 0 0-3.7 2.1v11.3h-2.7V42.8H35v1.9a4.2 4.2 0 0 1 3.8-2.2l1.2.2zm1.5 5.3a9.9 9.9 0 0 1 .9-4.2 7.1 7.1 0 0 1 2.5-2.9 8 8 0 0 1 3.8-1 6.7 6.7 0 0 1 5.2 2.3 8.8 8.8 0 0 1 2 5.9v.2a9.3 9.3 0 0 1-.9 4.2 6.2 6.2 0 0 1-2.5 2.8 7 7 0 0 1-3.8 1.1 6.5 6.5 0 0 1-5.2-2.3 8.1 8.1 0 0 1-2-5.9zm2.7.3a7.1 7.1 0 0 0 1.2 4.3 4.1 4.1 0 0 0 3.3 1.6 3.9 3.9 0 0 0 3.3-1.7 7.1 7.1 0 0 0 1.2-4.5 7 7 0 0 0-1.2-4.2 4.1 4.1 0 0 0-3.3-1.6 3.8 3.8 0 0 0-3.3 1.6 7.3 7.3 0 0 0-1.2 4.5zm28.5 0a9 9 0 0 1-1.7 5.9 5.4 5.4 0 0 1-4.4 2.2 5.7 5.7 0 0 1-4.7-2.1v1.8h-2.6V36.2H62v8.4a5.4 5.4 0 0 1 4.5-2.1 5.6 5.6 0 0 1 4.6 2.2 9.9 9.9 0 0 1 1.6 6zm-2.7-.3a7.1 7.1 0 0 0-1.1-4.3 3.4 3.4 0 0 0-3-1.5 4.1 4.1 0 0 0-3.9 2.5v6.9a4.1 4.1 0 0 0 3.9 2.5 3.4 3.4 0 0 0 3-1.5 8.2 8.2 0 0 0 1.1-4.6zm5.4 0a9.9 9.9 0 0 1 .9-4.2 7.3 7.3 0 0 1 2.6-2.9 7.6 7.6 0 0 1 3.7-1 6.5 6.5 0 0 1 5.2 2.3 8.3 8.3 0 0 1 2 5.9v.2a10.8 10.8 0 0 1-.8 4.2 6.4 6.4 0 0 1-2.6 2.8 6.8 6.8 0 0 1-3.8 1.1 6.7 6.7 0 0 1-5.2-2.3 8.6 8.6 0 0 1-2-5.9zm2.7.3a6.5 6.5 0 0 0 1.3 4.3 4 4 0 0 0 3.2 1.6 3.9 3.9 0 0 0 3.3-1.7 7.1 7.1 0 0 0 1.2-4.5 7 7 0 0 0-1.2-4.2 3.8 3.8 0 0 0-3.3-1.6 3.8 3.8 0 0 0-3.2 1.6 6.7 6.7 0 0 0-1.3 4.5zM96.9 39v3.8h3v2.1h-3v9.9a2 2 0 0 0 .4 1.4 1.8 1.8 0 0 0 1.4.5l1.2-.2v2.2l-2 .3a3.6 3.6 0 0 1-2.8-1.1 5 5 0 0 1-.9-3.1v-9.9h-2.9v-2.1h2.9V39zm5.1 11.6a9.9 9.9 0 0 1 .9-4.2 8.1 8.1 0 0 1 2.6-2.9 7.6 7.6 0 0 1 3.7-1 6.9 6.9 0 0 1 5.3 2.3 8.8 8.8 0 0 1 2 5.9v.2a9.3 9.3 0 0 1-.9 4.2 6.4 6.4 0 0 1-2.6 2.8 6.7 6.7 0 0 1-3.7 1.1 6.9 6.9 0 0 1-5.3-2.3 8.6 8.6 0 0 1-2-5.9zm2.8.3a7.1 7.1 0 0 0 1.2 4.3 4.1 4.1 0 0 0 3.3 1.6 3.9 3.9 0 0 0 3.2-1.7 7.1 7.1 0 0 0 1.2-4.5 7 7 0 0 0-1.2-4.2 3.8 3.8 0 0 0-3.3-1.6 3.8 3.8 0 0 0-3.2 1.6 7.3 7.3 0 0 0-1.2 4.5zm-58.6 71.3a19.1 19.1 0 0 1 15.6-7.3c11.1 0 16.8 6.3 16.9 18.9v34.9h-9.1v-35c0-3.8-.9-6.6-2.6-8.4s-4.3-2.8-8-2.8a12.8 12.8 0 0 0-7.7 2.4 15.2 15.2 0 0 0-5.1 6.1v37.7h-9.1v-75h9.1zm67.9 47.5c-7.1 0-13-2.4-17.5-7.1s-6.7-11-6.7-18.9v-1.6a32.1 32.1 0 0 1 3-14.1 23.1 23.1 0 0 1 8.4-9.6 20.6 20.6 0 0 1 11.7-3.5c6.9 0 12.2 2.2 16 6.8s5.7 11 5.7 19.4v3.8H98.9c.2 5.2 1.7 9.4 4.6 12.6a14.3 14.3 0 0 0 11.1 4.8 15.7 15.7 0 0 0 8.1-2 20.1 20.1 0 0 0 5.8-5.1l5.5 4.3c-4.4 6.8-11 10.2-19.9 10.2zm-1.1-47.4a12.1 12.1 0 0 0-9.2 4c-2.5 2.6-4 6.3-4.6 11.1h26.5v-.7c-.3-4.5-1.5-8.1-3.7-10.6a11.4 11.4 0 0 0-9-3.8zm64.8 46.4a19.1 19.1 0 0 1-1.3-5.6 20 20 0 0 1-15 6.6c-5.2 0-9.5-1.5-12.8-4.5a13.9 13.9 0 0 1-5-11.2 15.1 15.1 0 0 1 6.2-12.8q6.3-4.5 17.7-4.5h8.8v-4.2a9.9 9.9 0 0 0-2.9-7.5c-1.8-1.9-4.6-2.9-8.3-2.9a13.5 13.5 0 0 0-8.1 2.5 7.1 7.1 0 0 0-3.3 5.9h-9.1a12.7 12.7 0 0 1 2.8-7.6 20.1 20.1 0 0 1 7.7-5.9 25.9 25.9 0 0 1 10.5-2.1c6.1 0 10.9 1.5 14.3 4.5s5.3 7.3 5.4 12.6v24.3c0 4.9.6 8.7 1.9 11.6v.8zm-15-6.9a15.9 15.9 0 0 0 8.1-2.2 14.3 14.3 0 0 0 5.5-5.7V143h-7.1c-11.1 0-16.6 3.3-16.6 9.8a8.1 8.1 0 0 0 2.8 6.6 10.9 10.9 0 0 0 7.3 2.4zm34.6-20q0-12.2 5.7-19.5a18.2 18.2 0 0 1 15.1-7.4q9.3 0 14.7 6.3V93.7h9.1v75h-8.3l-.5-5.7c-3.6 4.4-8.6 6.7-15.1 6.7a17.7 17.7 0 0 1-14.9-7.6c-3.9-5-5.8-11.5-5.8-19.6zm9 1.1c0 5.9 1.2 10.6 3.7 14a12 12 0 0 0 10.3 5.1 13.2 13.2 0 0 0 12.5-7.7V130c-2.7-5-6.8-7.5-12.4-7.5a11.9 11.9 0 0 0-10.4 5.2c-2.5 3.4-3.7 8.4-3.7 15.2zm49.6-41.1a5.5 5.5 0 0 1 1.4-3.7 5 5 0 0 1 3.9-1.5 5 5 0 0 1 5.4 5.2 4.9 4.9 0 0 1-1.4 3.7 5.1 5.1 0 0 1-4 1.5 5 5 0 0 1-3.9-1.5 5.3 5.3 0 0 1-1.4-3.7zm9.8 66.9h-9.1v-52.9h9.1zm23-52.9l.3 6.7a19.1 19.1 0 0 1 15.8-7.6c11.2 0 16.8 6.3 16.9 18.9v34.9h-9v-35q-.2-5.7-2.7-8.4c-1.7-1.8-4.3-2.8-7.9-2.8a13.1 13.1 0 0 0-7.8 2.4 15.2 15.2 0 0 0-5.1 6.1v37.7h-9.1v-52.9zm44.5 26c0-8.2 1.9-14.8 5.7-19.6a18.1 18.1 0 0 1 15.1-7.3c6.5 0 11.5 2.3 15.1 6.8l.4-5.9h8.3v51.6c0 6.8-2 12.2-6.1 16.2s-9.5 5.9-16.3 5.9a26.1 26.1 0 0 1-11.2-2.5 19.4 19.4 0 0 1-8.4-6.6l4.7-5.5c3.9 4.8 8.6 7.2 14.2 7.2s7.9-1.2 10.3-3.7 3.7-6 3.7-10.5v-4.5c-3.6 4.2-8.5 6.3-14.8 6.3a17.9 17.9 0 0 1-15-7.5q-5.7-7.5-5.7-20.4zm9 1.1c0 5.9 1.3 10.6 3.7 14a11.9 11.9 0 0 0 10.3 5.1c5.7 0 9.8-2.6 12.5-7.8v-24.1c-2.8-5-6.9-7.6-12.4-7.6a11.8 11.8 0 0 0-10.3 5.2c-2.5 3.4-3.8 8.4-3.8 15.2zm71.6-1.1a31.6 31.6 0 0 1 3-14 24.1 24.1 0 0 1 8.5-9.6 23.7 23.7 0 0 1 12.4-3.3c7.2 0 13.1 2.5 17.5 7.4s6.7 11.6 6.7 19.9v.7a31.1 31.1 0 0 1-3 13.8 22.3 22.3 0 0 1-8.4 9.5 23.5 23.5 0 0 1-12.7 3.5 22.3 22.3 0 0 1-17.4-7.5q-6.6-7.5-6.6-19.8zm9.1 1.1c0 5.8 1.3 10.5 4 14.1a13.3 13.3 0 0 0 10.9 5.3 13.1 13.1 0 0 0 11-5.4c2.7-3.6 4-8.6 4-15.1s-1.3-10.5-4.1-14.1a13.7 13.7 0 0 0-21.7-.1c-2.8 3.6-4.1 8.6-4.1 15.3zm58.8-27.1l.3 6.7a19.3 19.3 0 0 1 15.9-7.6c11.1 0 16.8 6.3 16.9 18.9v34.9h-9.1v-35c0-3.8-.9-6.6-2.6-8.4s-4.4-2.8-8-2.8a12.8 12.8 0 0 0-7.7 2.4 16.3 16.3 0 0 0-5.2 6.1v37.7h-9v-52.9zm68.6 53.9c-7.2 0-13-2.4-17.5-7.1s-6.7-11-6.7-18.9v-1.6a32.1 32.1 0 0 1 3-14.1 23.1 23.1 0 0 1 8.4-9.6 20.6 20.6 0 0 1 11.7-3.5c6.8 0 12.2 2.2 16 6.8s5.7 11 5.7 19.4v3.8h-35.8a18.7 18.7 0 0 0 4.6 12.6 14.3 14.3 0 0 0 11.1 4.8 15.7 15.7 0 0 0 8.1-2 21.5 21.5 0 0 0 5.8-5.1l5.5 4.3c-4.4 6.8-11 10.2-19.9 10.2zm-1.1-47.4a11.9 11.9 0 0 0-9.2 4c-2.5 2.6-4 6.3-4.6 11.1H562v-.7c-.3-4.5-1.5-8.1-3.7-10.6a11.6 11.6 0 0 0-9-3.8zM45.6 231a14.2 14.2 0 0 1 11.3-5.4c9.2 0 13.8 5.4 14 16v27.1H59.6v-26.8c0-2.4-.5-4.2-1.6-5.3s-2.8-1.8-5.2-1.8a7.8 7.8 0 0 0-7.2 3.8v30.1H34.3v-60h11.3zm53.2 38.5c-6.2 0-11.2-1.9-15.1-5.7s-5.8-8.9-5.8-15.2v-1.1a25.8 25.8 0 0 1 2.4-11.4 19 19 0 0 1 7-7.8 19.5 19.5 0 0 1 10.3-2.7c5.8 0 10.3 1.9 13.6 5.5s5 8.8 5 15.5v4.6H89.3a11 11 0 0 0 3.3 6.7 10.3 10.3 0 0 0 7 2.5 12.3 12.3 0 0 0 10.2-4.8l5.5 6.2a17.7 17.7 0 0 1-6.9 5.7 22.6 22.6 0 0 1-9.6 2zm-1.3-34.8a7.1 7.1 0 0 0-5.4 2.3 11.8 11.8 0 0 0-2.7 6.5h15.7v-.9a8.2 8.2 0 0 0-2-5.8 7.3 7.3 0 0 0-5.6-2.1zm49.6 34a12.2 12.2 0 0 1-1.1-3.8 14 14 0 0 1-10.7 4.6 15 15 0 0 1-10.3-3.6 11.6 11.6 0 0 1-4.1-9.1 12 12 0 0 1 5-10.3q4.9-3.6 14.4-3.6h5.2v-2.5a6.7 6.7 0 0 0-1.5-4.6 5.8 5.8 0 0 0-4.7-1.8 6.9 6.9 0 0 0-4.5 1.4 4.4 4.4 0 0 0-1.6 3.7h-11.3a11.5 11.5 0 0 1 2.2-6.8 15.6 15.6 0 0 1 6.5-4.9 22.7 22.7 0 0 1 9.3-1.8c5.2 0 9.3 1.3 12.4 4s4.5 6.3 4.5 11v18.3c.1 4 .6 7.1 1.7 9.1v.7zm-9.3-7.9a9.2 9.2 0 0 0 4.6-1.1 6.9 6.9 0 0 0 3.1-3v-7.2h-4.2c-5.7 0-8.7 1.9-9 5.8v.7a4.5 4.5 0 0 0 1.5 3.5 5.9 5.9 0 0 0 4 1.3zm26-13.6c0-6.6 1.4-11.8 4.4-15.7a14.4 14.4 0 0 1 12.1-5.9 13.2 13.2 0 0 1 10.2 4.6v-21.5h11.3v60h-10.2l-.5-4.5a13.3 13.3 0 0 1-10.9 5.3 14.4 14.4 0 0 1-11.9-5.9c-3-3.9-4.5-9.4-4.5-16.4zm11.2.9c0 3.9.7 7 2.1 9.1a6.8 6.8 0 0 0 6 3.2 7.5 7.5 0 0 0 7.4-4.5v-16.7a7.5 7.5 0 0 0-7.3-4.4c-5.4 0-8.2 4.4-8.2 13.3zm35.5-32.6a5.7 5.7 0 0 1 1.7-4.2 6.3 6.3 0 0 1 4.6-1.6 6.5 6.5 0 0 1 4.7 1.6 5.7 5.7 0 0 1 1.7 4.2 5.4 5.4 0 0 1-1.8 4.2 6.3 6.3 0 0 1-4.6 1.6 6.1 6.1 0 0 1-4.5-1.6 5.4 5.4 0 0 1-1.8-4.2zm12 53.2h-11.3v-42.3h11.3zm19.7-42.3l.3 4.9a14.9 14.9 0 0 1 12.2-5.7c4.5 0 7.8 1.4 10 4s3.3 6.5 3.4 11.8v27.3h-11.3v-27a7.8 7.8 0 0 0-1.6-5.3c-1-1-2.8-1.6-5.2-1.6a7.6 7.6 0 0 0-7.1 4.1v29.8h-11.3v-42.3zm32.8 20.8c0-6.4 1.5-11.7 4.6-15.6a14.9 14.9 0 0 1 12.5-6q6.9 0 10.8 4.8l.5-4h10.2v40.9a17.6 17.6 0 0 1-2.5 9.6 16.7 16.7 0 0 1-7.1 6.3 25.5 25.5 0 0 1-10.7 2.1 24.2 24.2 0 0 1-9.1-1.8 18.3 18.3 0 0 1-6.7-4.8l5-6.9a13.3 13.3 0 0 0 10.3 4.7 9.8 9.8 0 0 0 7-2.4 9.1 9.1 0 0 0 2.5-6.8V265a13.1 13.1 0 0 1-10.3 4.5 14.8 14.8 0 0 1-12.3-6c-3.2-4-4.7-9.2-4.7-15.8zm11.3.9c0 3.8.7 6.8 2.3 9a7.2 7.2 0 0 0 6.3 3.3c3.4 0 5.9-1.3 7.4-3.9v-17.8a7.9 7.9 0 0 0-7.3-3.9 7.4 7.4 0 0 0-6.4 3.3c-1.6 2.3-2.3 5.6-2.3 10zm69.4-32.1v10.4h7.2v8.3h-7.2v21.1a5.1 5.1 0 0 0 .9 3.4 4.9 4.9 0 0 0 3.4 1 17.2 17.2 0 0 0 3.4-.3v8.5a22.6 22.6 0 0 1-6.9 1.1c-7.9 0-11.9-4-12.1-12v-22.8h-6.2v-8.3h6.2V216zm50.3 37.3l5.5-26.9h10.9l-10.8 42.3h-9.4l-8-26.6-8 26.6h-9.4L366 226.4h10.9l5.5 26.9 7.7-26.9h8.2zm20.3-6.1a25.7 25.7 0 0 1 2.4-11.3 17.7 17.7 0 0 1 7-7.6 20 20 0 0 1 10.5-2.7c5.7 0 10.4 1.8 14 5.3s5.6 8.2 6 14.2v2.9q0 9.8-5.4 15.6c-3.7 3.9-8.5 5.9-14.6 5.9s-11-2-14.6-5.9-5.4-9.2-5.4-15.9zm11.2.8c0 4 .8 7 2.3 9.2a8.1 8.1 0 0 0 12.9 0c1.5-2.1 2.3-5.4 2.3-10.1s-.8-7-2.3-9.1a8 8 0 0 0-12.9 0c-1.5 2.1-2.3 5.4-2.3 10zM39.9 315.1a8.7 8.7 0 0 1 7-3.3c5.8 0 8.7 3.3 8.7 10v16.9h-7V322a4.6 4.6 0 0 0-1-3.4 4.1 4.1 0 0 0-3.2-1.1 4.7 4.7 0 0 0-4.5 2.4v18.8h-7.1v-37.5h7.1zm33.2 24.1a12.8 12.8 0 0 1-9.4-3.6 12.4 12.4 0 0 1-3.7-9.5v-.7a15.1 15.1 0 0 1 1.6-7.1 10.6 10.6 0 0 1 4.3-4.8 11.6 11.6 0 0 1 6.4-1.7c3.7 0 6.5 1.1 8.6 3.4s3.1 5.5 3.1 9.7v2.9H67.2a6.4 6.4 0 0 0 2 4.1 6.1 6.1 0 0 0 4.4 1.6 7.7 7.7 0 0 0 6.4-3l3.4 3.9a10 10 0 0 1-4.3 3.5 13.2 13.2 0 0 1-6 1.3zm-.8-21.7a4.2 4.2 0 0 0-3.4 1.4 7.4 7.4 0 0 0-1.7 4.1h9.9v-.6a5.4 5.4 0 0 0-1.3-3.6 4.5 4.5 0 0 0-3.5-1.3zm31 21.2a7.6 7.6 0 0 1-.7-2.4 8.6 8.6 0 0 1-6.7 2.9 9.3 9.3 0 0 1-6.4-2.3 7.3 7.3 0 0 1-2.6-5.6 7.6 7.6 0 0 1 3.2-6.5c2-1.5 5-2.2 9-2.3h3.2V321a4.4 4.4 0 0 0-.9-2.9 4.7 4.7 0 0 0-5.8-.2 2.6 2.6 0 0 0-1 2.3h-7.1a7.3 7.3 0 0 1 1.4-4.2 9.3 9.3 0 0 1 4.1-3.1 13.4 13.4 0 0 1 5.8-1.1 11.6 11.6 0 0 1 7.7 2.4 8.8 8.8 0 0 1 2.9 6.9v11.5a12.4 12.4 0 0 0 1 5.7v.4zm-5.8-4.9a6.4 6.4 0 0 0 2.8-.7 4.6 4.6 0 0 0 2-1.9v-4.5h-2.6c-3.6 0-5.4 1.2-5.7 3.6v.4a2.8 2.8 0 0 0 .9 2.2 3.6 3.6 0 0 0 2.6.9zm16.2-8.5c0-4.1.9-7.4 2.8-9.9a8.9 8.9 0 0 1 7.6-3.6 7.7 7.7 0 0 1 6.3 2.9v-13.5h7.1v37.5h-6.4l-.3-2.8a8.3 8.3 0 0 1-6.8 3.3 9.2 9.2 0 0 1-7.5-3.7c-1.9-2.5-2.8-5.9-2.8-10.2zm7.1.5a10 10 0 0 0 1.3 5.7 4.2 4.2 0 0 0 3.7 2 4.6 4.6 0 0 0 4.6-2.8v-10.4a4.6 4.6 0 0 0-4.5-2.8c-3.4 0-5.1 2.8-5.1 8.3zm22.1-20.4a3.6 3.6 0 0 1 1.1-2.6 3.9 3.9 0 0 1 2.9-1 4.1 4.1 0 0 1 2.9 1 3.5 3.5 0 0 1 1 2.6 3.6 3.6 0 0 1-1 2.7 4.1 4.1 0 0 1-2.9 1 3.9 3.9 0 0 1-2.9-1 3.7 3.7 0 0 1-1.1-2.7zm7.5 33.3h-7.1v-26.4h7.1zm12.3-26.4l.2 3a9.5 9.5 0 0 1 7.6-3.5q4.2 0 6.3 2.4c1.4 1.7 2.1 4.1 2.1 7.4v17.1h-7.1v-16.9a3.5 3.5 0 0 0-4.2-4.3 4.9 4.9 0 0 0-4.5 2.6v18.6h-7v-26.4zm20.5 13a15.6 15.6 0 0 1 2.9-9.8 9.2 9.2 0 0 1 7.8-3.7 8.3 8.3 0 0 1 6.8 3l.3-2.5h6.4v25.5a11.7 11.7 0 0 1-1.6 6 10.4 10.4 0 0 1-4.4 3.9 16 16 0 0 1-6.7 1.4 13.9 13.9 0 0 1-5.7-1.2 10.3 10.3 0 0 1-4.2-3l3.1-4.3a8.3 8.3 0 0 0 6.4 3 6 6 0 0 0 4.4-1.5 5.4 5.4 0 0 0 1.6-4.3v-1.4a8.1 8.1 0 0 1-6.4 2.8 9.3 9.3 0 0 1-7.7-3.8c-2-2.4-3-5.7-3-9.8zm7.1.5c0 2.4.4 4.3 1.4 5.6a4.6 4.6 0 0 0 4 2.1 5 5 0 0 0 4.6-2.4v-11.2a5 5 0 0 0-4.6-2.4 4.6 4.6 0 0 0-4 2.1 11.4 11.4 0 0 0-1.4 6.2zm43.4-20v6.5h4.5v5.1h-4.5v13.2a3.6 3.6 0 0 0 .5 2.1 3 3 0 0 0 2.2.7l2.1-.2v5.3a12.5 12.5 0 0 1-4.3.7c-5 0-7.5-2.5-7.6-7.5v-14.3h-3.8v-5.1h3.8v-6.5zm15.3 9.3a8.9 8.9 0 0 1 7.1-3.3c5.7 0 8.6 3.3 8.7 10v16.9h-7.1V322a4.6 4.6 0 0 0-1-3.4 4.1 4.1 0 0 0-3.2-1.1 4.7 4.7 0 0 0-4.5 2.4v18.8h-7v-37.5h7zm35.9 3.8l-2.5-.2c-2.7 0-4.4.9-5.2 2.7v17.3h-7.1v-26.4h6.7l.2 3.1a6.4 6.4 0 0 1 5.8-3.6 7.3 7.3 0 0 1 2.2.3zm15.6 20.3a13.1 13.1 0 0 1-9.5-3.6 12.7 12.7 0 0 1-3.6-9.5v-.7a16.4 16.4 0 0 1 1.5-7.1 10.8 10.8 0 0 1 4.4-4.8 11.6 11.6 0 0 1 6.4-1.7c3.6 0 6.5 1.1 8.5 3.4s3.2 5.5 3.2 9.7v2.9h-16.9a7 7 0 0 0 2.1 4.1 6 6 0 0 0 4.4 1.6 7.4 7.4 0 0 0 6.3-3l3.5 3.9a10.6 10.6 0 0 1-4.3 3.5 13.2 13.2 0 0 1-6 1.3zm-.8-21.7a4.2 4.2 0 0 0-3.4 1.4 7.4 7.4 0 0 0-1.7 4.1h9.8v-.6a4.9 4.9 0 0 0-1.2-3.6 4.6 4.6 0 0 0-3.5-1.3zm27.8 21.7a12.7 12.7 0 0 1-9.4-3.6 12.4 12.4 0 0 1-3.7-9.5v-.7a15.1 15.1 0 0 1 1.6-7.1 10.6 10.6 0 0 1 4.3-4.8 11.6 11.6 0 0 1 6.4-1.7c3.7 0 6.5 1.1 8.6 3.4s3.1 5.5 3.1 9.7v2.9h-16.8a6.4 6.4 0 0 0 2 4.1 6.1 6.1 0 0 0 4.4 1.6 7.7 7.7 0 0 0 6.4-3l3.4 3.9a10 10 0 0 1-4.3 3.5 13.2 13.2 0 0 1-6 1.3zm-.8-21.7a4.2 4.2 0 0 0-3.4 1.4 7.4 7.4 0 0 0-1.7 4.1h9.9v-.6a5.4 5.4 0 0 0-1.3-3.6 4.5 4.5 0 0 0-3.5-1.3zM50.9 378.3c0 3.3-.7 5.9-2.2 7.8a7.1 7.1 0 0 1-6 3 7.4 7.4 0 0 1-6.2-2.9l-.2 2.5H33v-30h3.6v11.2a7.5 7.5 0 0 1 6.1-2.7 7 7 0 0 1 6 2.9c1.5 1.9 2.2 4.6 2.2 7.9zm-3.6-.4a10.4 10.4 0 0 0-1.4-5.7 5 5 0 0 0-4.1-2 5.4 5.4 0 0 0-5.2 3.3v9.2a5.5 5.5 0 0 0 5.2 3.3 4.7 4.7 0 0 0 4-2c1-1.3 1.5-3.4 1.5-6.1zm7.2 0a12.8 12.8 0 0 1 1.2-5.6 9.7 9.7 0 0 1 3.4-3.8 9.3 9.3 0 0 1 5-1.3 9.2 9.2 0 0 1 7 2.9 12 12 0 0 1 2.6 8v.2a14 14 0 0 1-1.1 5.6 9.7 9.7 0 0 1-3.4 3.8 9.8 9.8 0 0 1-5.1 1.4 8.7 8.7 0 0 1-6.9-3 11.3 11.3 0 0 1-2.7-7.9zm3.6.4a9 9 0 0 0 1.7 5.7 5.2 5.2 0 0 0 4.3 2.1 5.2 5.2 0 0 0 4.4-2.1 10 10 0 0 0 1.6-6.1 8.9 8.9 0 0 0-1.6-5.6 5.2 5.2 0 0 0-4.4-2.2 5 5 0 0 0-4.3 2.2 9.5 9.5 0 0 0-1.7 6zm19.3-.4a12.7 12.7 0 0 1 2.3-7.8 7 7 0 0 1 6-2.9 7.2 7.2 0 0 1 5.9 2.5v-11h3.6v30h-3.3l-.2-2.3a7.7 7.7 0 0 1-12-.3 13 13 0 0 1-2.3-7.9zm3.6.4a9.6 9.6 0 0 0 1.5 5.7 4.8 4.8 0 0 0 4.1 2 5.1 5.1 0 0 0 5-3.1v-9.7a5.3 5.3 0 0 0-5-3 4.8 4.8 0 0 0-4.1 2.1c-1 1.3-1.5 3.4-1.5 6zm26.7 5.1l5-15.9h3.8l-8.5 24.4c-1.3 3.6-3.4 5.3-6.2 5.3h-.7l-1.4-.3V394h1a5 5 0 0 0 2.9-.8 5.7 5.7 0 0 0 1.7-2.7l.8-2.2-7.6-20.9h4z"/></svg>