<svg id="Layer_1" data-name="Layer 1" xmlns="http://www.w3.org/2000/svg" width="1070" height="422" viewBox="0 0 1070 422"><title>parkbot-type</title><path d="M74.1,45.3H72.8a3.5,3.5,0,0,0-3.6,2.2V58.7H66.5V42.8h2.6v1.9a4.2,4.2,0,0,1,3.8-2.2,2.9,2.9,0,0,1,1.2.2Z" fill="#fff"/><path d="M75.6,50.6a9.9,9.9,0,0,1,.9-4.2,7.3,7.3,0,0,1,2.6-2.9,7.6,7.6,0,0,1,3.7-1A6.5,6.5,0,0,1,88,44.8a8.3,8.3,0,0,1,2,5.9v.2a9.3,9.3,0,0,1-.9,4.2,5.7,5.7,0,0,1-2.5,2.8A6.8,6.8,0,0,1,82.8,59a6.7,6.7,0,0,1-5.2-2.3,8.6,8.6,0,0,1-2-5.9Zm2.7.3a6.5,6.5,0,0,0,1.3,4.3,4,4,0,0,0,3.2,1.6,3.9,3.9,0,0,0,3.3-1.7,7.1,7.1,0,0,0,1.2-4.5,7,7,0,0,0-1.2-4.2,3.8,3.8,0,0,0-3.3-1.6,3.8,3.8,0,0,0-3.2,1.6A6.7,6.7,0,0,0,78.3,50.9Z" fill="#fff"/><path d="M106.9,50.9a9.6,9.6,0,0,1-1.7,5.9,5.5,5.5,0,0,1-4.5,2.2,5.4,5.4,0,0,1-4.6-2.1l-.2,1.8H93.4V36.2h2.7v8.4a5.9,5.9,0,0,1,9.1.1,9.9,9.9,0,0,1,1.7,6Zm-2.8-.3a7.8,7.8,0,0,0-1-4.3,3.6,3.6,0,0,0-3.1-1.5,4.1,4.1,0,0,0-3.9,2.5v6.9a4.4,4.4,0,0,0,3.9,2.5,3.7,3.7,0,0,0,3.1-1.5A8.3,8.3,0,0,0,104.1,50.6Z" fill="#fff"/><path d="M109.5,50.6a10,10,0,0,1,1-4.2,7.1,7.1,0,0,1,2.5-2.9,7.6,7.6,0,0,1,3.7-1,6.9,6.9,0,0,1,5.3,2.3,8.8,8.8,0,0,1,2,5.9v.2a9.3,9.3,0,0,1-.9,4.2,6.2,6.2,0,0,1-2.5,2.8,7,7,0,0,1-3.8,1.1,6.9,6.9,0,0,1-5.3-2.3,8.6,8.6,0,0,1-2-5.9Zm2.8.3a7.1,7.1,0,0,0,1.2,4.3,4.1,4.1,0,0,0,3.3,1.6,3.9,3.9,0,0,0,3.2-1.7,6.5,6.5,0,0,0,1.3-4.5,6.4,6.4,0,0,0-1.3-4.2,3.8,3.8,0,0,0-3.3-1.6,3.8,3.8,0,0,0-3.2,1.6A7.3,7.3,0,0,0,112.3,50.9Z" fill="#fff"/><path d="M131.1,39v3.8H134v2.1h-2.9v9.9a2.6,2.6,0,0,0,.3,1.4,2,2,0,0,0,1.4.5l1.3-.2v2.2a7.6,7.6,0,0,1-2.1.3,3.4,3.4,0,0,1-2.7-1.1,4.5,4.5,0,0,1-1-3.1V44.9h-2.8V42.8h2.8V39Z" fill="#fff"/><path d="M136.2,50.6a9.9,9.9,0,0,1,.9-4.2,7.1,7.1,0,0,1,2.5-2.9,8,8,0,0,1,3.8-1,6.7,6.7,0,0,1,5.2,2.3,8.8,8.8,0,0,1,2,5.9v.2a9.3,9.3,0,0,1-.9,4.2,6.2,6.2,0,0,1-2.5,2.8,7,7,0,0,1-3.8,1.1,6.5,6.5,0,0,1-5.2-2.3,8.1,8.1,0,0,1-2-5.9Zm2.7.3a7.1,7.1,0,0,0,1.2,4.3,4.1,4.1,0,0,0,3.3,1.6,3.9,3.9,0,0,0,3.3-1.7,7.1,7.1,0,0,0,1.2-4.5,6.4,6.4,0,0,0-1.3-4.2,3.8,3.8,0,0,0-3.2-1.6,3.8,3.8,0,0,0-3.3,1.6A7.3,7.3,0,0,0,138.9,50.9Z" fill="#fff"/><path d="M54.3,89.7A32.7,32.7,0,0,1,80.8,77.2q28.5,0,28.7,32.1v59.4H94.2V109.2c-.1-6.4-1.6-11.2-4.5-14.3s-7.4-4.7-13.5-4.7a22.3,22.3,0,0,0-13.1,4,27.3,27.3,0,0,0-8.8,10.5v64H38.9V41.2H54.3Z" fill="#fff"/><path d="M169.8,170.3q-18.3,0-29.7-12c-7.6-7.9-11.5-18.6-11.5-32v-2.9a53.7,53.7,0,0,1,5.1-23.8A40.4,40.4,0,0,1,148,83.1a36.4,36.4,0,0,1,19.9-5.9c11.7,0,20.7,3.9,27.2,11.5s9.7,18.8,9.7,33.1v6.4H144c.2,8.8,2.8,16,7.8,21.4a24.1,24.1,0,0,0,18.8,8.2q8.3,0,13.8-3.3a34.5,34.5,0,0,0,9.9-8.8l9.4,7.3C196.1,164.6,184.9,170.3,169.8,170.3Zm-1.9-80.5a20.5,20.5,0,0,0-15.6,6.8c-4.2,4.5-6.8,10.8-7.8,19h45v-1.2c-.5-7.8-2.6-13.9-6.3-18.1S174.3,89.8,167.9,89.8Z" fill="#fff"/><path d="M278,168.7a33.9,33.9,0,0,1-2.1-9.5,34.3,34.3,0,0,1-25.6,11.1c-8.8,0-16.1-2.5-21.8-7.5a24.4,24.4,0,0,1-8.5-19c0-9.4,3.6-16.6,10.7-21.8s17.1-7.8,30-7.8h14.9v-7q0-8.1-4.8-12.9c-3.2-3.1-7.9-4.7-14.2-4.7a22.7,22.7,0,0,0-13.7,4.1c-3.8,2.8-5.6,6.1-5.6,10.1H221.9a21,21,0,0,1,4.7-13,32,32,0,0,1,13-9.9,42.2,42.2,0,0,1,17.9-3.7c10.4,0,18.5,2.6,24.4,7.8s8.9,12.3,9.1,21.3v41.4c0,8.2,1,14.8,3.2,19.7v1.3ZM252.6,157a27.2,27.2,0,0,0,13.7-3.8,21.7,21.7,0,0,0,9.3-9.7V125.1h-12q-28.2,0-28.2,16.5c0,4.8,1.6,8.6,4.8,11.3S247.5,157,252.6,157Z" fill="#fff"/><path d="M311.3,123c0-13.8,3.3-24.8,9.8-33.2s15.1-12.6,25.7-12.6,18.8,3.6,25,10.8V41.2h15.3V168.7H373l-.7-9.6c-6.2,7.5-14.7,11.2-25.7,11.2s-18.9-4.2-25.4-12.7-9.9-19.7-9.9-33.4Zm15.4,1.8c0,10.2,2.1,18.1,6.3,23.9s10,8.6,17.4,8.6c9.8,0,16.9-4.4,21.4-13.1V102.9c-4.6-8.4-11.7-12.7-21.2-12.7-7.5,0-13.4,2.9-17.6,8.8S326.7,113.4,326.7,124.8Z" fill="#fff"/><path d="M411,55a9.6,9.6,0,0,1,2.3-6.3c1.5-1.7,3.8-2.5,6.8-2.5s5.2.8,6.8,2.5a9.6,9.6,0,0,1,2.3,6.3,8.3,8.3,0,0,1-9.1,8.8,9,9,0,0,1-6.8-2.5A9.2,9.2,0,0,1,411,55Zm16.6,113.7H412.3V78.9h15.3Z" fill="#fff"/><path d="M466.7,78.9l.5,11.3a32.6,32.6,0,0,1,26.9-13q28.5,0,28.7,32.1v59.4H507.5V109.2c-.1-6.4-1.6-11.2-4.5-14.3s-7.4-4.7-13.5-4.7a22.3,22.3,0,0,0-13.1,4,27.3,27.3,0,0,0-8.8,10.5v64H452.2V78.9Z" fill="#fff"/><path d="M542.3,123c0-14,3.3-25.1,9.8-33.4s15-12.4,25.7-12.4,19.5,3.9,25.6,11.6l.8-9.9h14v87.6c0,11.6-3.4,20.8-10.3,27.5s-16.2,10-27.8,10a45.5,45.5,0,0,1-19-4.1,33.3,33.3,0,0,1-14.2-11.4l8-9.2c6.6,8.1,14.6,12.2,24.1,12.2,7.5,0,13.3-2.1,17.5-6.3s6.3-10.1,6.3-17.8v-7.7c-6.2,7.1-14.6,10.6-25.2,10.6s-19-4.2-25.5-12.7S542.3,137.6,542.3,123Zm15.5,1.8c0,10.1,2.1,18.1,6.2,23.8s10,8.7,17.4,8.7c9.7,0,16.8-4.4,21.4-13.2v-41c-4.7-8.6-11.8-12.9-21.2-12.9-7.5,0-13.3,2.9-17.5,8.8S557.8,113.4,557.8,124.8Z" fill="#fff"/><path d="M679.4,122.9a52.2,52.2,0,0,1,5.2-23.7,37.9,37.9,0,0,1,35.5-22c12.3,0,22.2,4.2,29.7,12.7s11.4,19.7,11.4,33.8v1.1a52.7,52.7,0,0,1-5.1,23.5,37.6,37.6,0,0,1-14.3,16.2,39.8,39.8,0,0,1-21.5,5.8c-12.2,0-22-4.2-29.6-12.7S679.4,138,679.4,124Zm15.4,1.9c0,9.9,2.3,17.9,7,24a22.2,22.2,0,0,0,18.5,9c7.8,0,14-3,18.6-9.2s6.9-14.6,6.9-25.7-2.3-17.8-7-23.9a22.4,22.4,0,0,0-18.7-9.2,22,22,0,0,0-18.3,9.1C697.2,104.9,694.8,113.5,694.8,124.8Z" fill="#fff"/><path d="M794.9,78.9l.5,11.3a32.7,32.7,0,0,1,26.9-13q28.5,0,28.8,32.1v59.4H835.7V109.2c-.1-6.4-1.5-11.2-4.4-14.3s-7.5-4.7-13.6-4.7a22.3,22.3,0,0,0-13.1,4,27.3,27.3,0,0,0-8.8,10.5v64H780.4V78.9Z" fill="#fff"/><path d="M911.5,170.3q-18.3,0-29.7-12c-7.7-7.9-11.5-18.6-11.5-32v-2.9a53.7,53.7,0,0,1,5.1-23.8,40.4,40.4,0,0,1,14.3-16.5,36.2,36.2,0,0,1,19.9-5.9c11.6,0,20.7,3.9,27.2,11.5s9.7,18.8,9.7,33.1v6.4H885.7c.2,8.8,2.8,16,7.7,21.4a24.4,24.4,0,0,0,18.9,8.2,27.1,27.1,0,0,0,13.8-3.3,35.9,35.9,0,0,0,9.9-8.8l9.3,7.3C937.8,164.6,926.5,170.3,911.5,170.3Zm-1.9-80.5A20.5,20.5,0,0,0,894,96.6c-4.2,4.5-6.8,10.8-7.8,19h45v-1.2c-.5-7.8-2.6-13.9-6.4-18.1S916,89.8,909.6,89.8Z" fill="#fff"/><path d="M46.5,221.6a17.4,17.4,0,0,1,14.1-6.7c11.4,0,17.3,6.6,17.4,19.9v33.9H63.9V235.2c0-3-.6-5.2-2-6.7s-3.4-2.2-6.4-2.2-7.2,1.6-9,4.8v37.6H32.4v-75H46.5Z" fill="#fff"/><path d="M113,269.7q-11.7,0-18.9-7.2c-4.9-4.7-7.3-11.1-7.3-19v-1.3a33,33,0,0,1,3-14.3,23.2,23.2,0,0,1,8.7-9.6,24.4,24.4,0,0,1,12.9-3.4c7.2,0,12.9,2.3,17.1,6.8s6.2,11,6.2,19.4v5.8H101.1a12.3,12.3,0,0,0,12.8,11.4c5.4,0,9.7-2,12.7-5.9l7,7.7a20.5,20.5,0,0,1-8.6,7A27.8,27.8,0,0,1,113,269.7Zm-1.6-43.5a8.8,8.8,0,0,0-6.8,2.9c-1.8,1.9-2.9,4.6-3.4,8.1h19.6v-1.1a10.4,10.4,0,0,0-2.5-7.3A9,9,0,0,0,111.4,226.2Z" fill="#fff"/><path d="M173.3,268.7a18.3,18.3,0,0,1-1.4-4.8,16.9,16.9,0,0,1-13.3,5.8,18.8,18.8,0,0,1-12.9-4.5,14.5,14.5,0,0,1-5.1-11.4c0-5.6,2.1-9.9,6.2-12.9s10.2-4.5,18-4.5h6.5v-3a8.5,8.5,0,0,0-1.9-5.9c-1.2-1.4-3.2-2.2-5.9-2.2a8.7,8.7,0,0,0-5.6,1.7,6,6,0,0,0-2,4.7H141.8a14.2,14.2,0,0,1,2.8-8.5,19.2,19.2,0,0,1,8-6.1,28.9,28.9,0,0,1,11.6-2.2c6.6,0,11.7,1.6,15.5,4.9s5.8,7.9,5.8,13.8v22.9q0,7.5,2.1,11.4v.8Zm-11.6-9.8a12.3,12.3,0,0,0,5.7-1.4,9,9,0,0,0,3.9-3.8v-9h-5.2c-7.1,0-10.9,2.4-11.3,7.3v.8a5.6,5.6,0,0,0,1.9,4.4A7.3,7.3,0,0,0,161.7,258.9Z" fill="#fff"/><path d="M194.1,241.9c0-8.3,1.9-14.8,5.6-19.7s8.7-7.3,15.1-7.3a16.4,16.4,0,0,1,12.8,5.7V193.7h14.1v75H229l-.7-5.6a16.5,16.5,0,0,1-13.6,6.6,17.8,17.8,0,0,1-14.9-7.4Q194.1,254.9,194.1,241.9Zm14.1,1c0,5,.9,8.8,2.6,11.4a8.5,8.5,0,0,0,7.5,4c4.4,0,7.5-1.9,9.3-5.5V231.9c-1.8-3.7-4.8-5.6-9.2-5.6C211.6,226.3,208.2,231.9,208.2,242.9Z" fill="#fff"/><path d="M252.6,202.2a6.9,6.9,0,0,1,2.1-5.2,7.8,7.8,0,0,1,5.8-2.1,7.7,7.7,0,0,1,5.7,2.1,6.6,6.6,0,0,1,2.2,5.2,6.9,6.9,0,0,1-2.2,5.3,8.1,8.1,0,0,1-5.7,2,8.5,8.5,0,0,1-5.8-2A7.2,7.2,0,0,1,252.6,202.2Zm15,66.5H253.4V215.8h14.2Z" fill="#fff"/><path d="M292.2,215.8l.4,6.2c3.8-4.8,8.9-7.1,15.2-7.1s9.8,1.6,12.5,4.9,4.1,8.2,4.2,14.8v34.1H310.4V234.9c0-3-.7-5.2-2-6.5s-3.4-2.1-6.5-2.1a9.7,9.7,0,0,0-8.9,5.1v37.3H278.9V215.8Z" fill="#fff"/><path d="M333.1,241.9c0-8.1,2-14.7,5.8-19.6s9.1-7.4,15.6-7.4,10.3,2,13.6,5.9l.5-5h12.8v51.1a22.7,22.7,0,0,1-3.1,12.1,20.5,20.5,0,0,1-8.9,7.8,30.8,30.8,0,0,1-13.4,2.7,30,30,0,0,1-11.3-2.3,20.7,20.7,0,0,1-8.3-6l6.2-8.6a16.7,16.7,0,0,0,12.8,5.9c3.7,0,6.7-1,8.7-3s3.2-4.8,3.2-8.5v-2.9a16.5,16.5,0,0,1-12.9,5.6,18.7,18.7,0,0,1-15.4-7.5c-3.9-5-5.9-11.5-5.9-19.7Zm14.2,1c0,4.8.9,8.6,2.8,11.3a9.4,9.4,0,0,0,7.9,4.1c4.3,0,7.4-1.6,9.3-4.9V231.2c-1.9-3.2-5-4.9-9.2-4.9a9.1,9.1,0,0,0-7.9,4.2C348.2,233.3,347.3,237.4,347.3,242.9Z" fill="#fff"/><path d="M434.1,202.9v12.9h9v10.4h-9v26.4c0,1.9.3,3.3,1.1,4.2s2.2,1.2,4.3,1.2a24.6,24.6,0,0,0,4.1-.3v10.7a30.2,30.2,0,0,1-8.5,1.3c-9.9,0-14.9-5-15.1-15V226.2h-7.8V215.8H420V202.9Z" fill="#fff"/><path d="M496.9,249.5l6.9-33.7h13.7L504,268.7H492.2l-10-33.3-10,33.3H460.4l-13.5-52.9h13.6l6.9,33.6,9.7-33.6h10.2Z" fill="#fff"/><path d="M522.3,241.8a31.3,31.3,0,0,1,3-14,22.5,22.5,0,0,1,8.7-9.6,25.9,25.9,0,0,1,13.2-3.3c7.1,0,13,2.2,17.5,6.5s7,10.3,7.5,17.8v3.6c0,8.1-2.3,14.6-6.8,19.5s-10.6,7.4-18.2,7.4-13.7-2.5-18.2-7.4-6.8-11.5-6.8-19.9Zm14.1,1c0,5,.9,8.8,2.8,11.5a10.1,10.1,0,0,0,16.1,0c1.9-2.6,2.9-6.8,2.9-12.5s-1-8.8-2.9-11.5a10,10,0,0,0-16.1,0C537.3,233,536.4,237.1,536.4,242.8Z" fill="#fff"/><path d="M36.9,315.1a8.7,8.7,0,0,1,7-3.3c5.8,0,8.7,3.3,8.7,10v16.9h-7V322a4.6,4.6,0,0,0-1-3.4,4.1,4.1,0,0,0-3.2-1.1,4.7,4.7,0,0,0-4.5,2.4v18.8H29.8V301.2h7.1Z" fill="#fff"/><path d="M70.1,339.2a12.8,12.8,0,0,1-9.4-3.6,12.4,12.4,0,0,1-3.7-9.5v-.7a15.1,15.1,0,0,1,1.6-7.1,10.6,10.6,0,0,1,4.3-4.8,11.6,11.6,0,0,1,6.4-1.7c3.7,0,6.5,1.1,8.6,3.4s3.1,5.5,3.1,9.7v2.9H64.2a6.4,6.4,0,0,0,2,4.1,6.1,6.1,0,0,0,4.4,1.6,7.7,7.7,0,0,0,6.4-3l3.4,3.9a10,10,0,0,1-4.3,3.5A13.2,13.2,0,0,1,70.1,339.2Zm-.8-21.7a4.2,4.2,0,0,0-3.4,1.4,7.4,7.4,0,0,0-1.7,4.1h9.9v-.6a5.4,5.4,0,0,0-1.3-3.6A4.5,4.5,0,0,0,69.3,317.5Z" fill="#fff"/><path d="M100.3,338.7a7.6,7.6,0,0,1-.7-2.4,8.6,8.6,0,0,1-6.7,2.9,9.3,9.3,0,0,1-6.4-2.3,7.3,7.3,0,0,1-2.6-5.6,7.6,7.6,0,0,1,3.2-6.5c2-1.5,5-2.2,9-2.3h3.2V321a4.4,4.4,0,0,0-.9-2.9,4.7,4.7,0,0,0-5.8-.2,2.6,2.6,0,0,0-1,2.3H84.5a7.3,7.3,0,0,1,1.4-4.2,9.3,9.3,0,0,1,4.1-3.1,13.4,13.4,0,0,1,5.8-1.1,11.6,11.6,0,0,1,7.7,2.4,8.8,8.8,0,0,1,2.9,6.9v11.5a12.4,12.4,0,0,0,1,5.7v.4Zm-5.8-4.9a6.4,6.4,0,0,0,2.8-.7,4.6,4.6,0,0,0,2-1.9v-4.5H96.7c-3.6,0-5.4,1.2-5.7,3.6v.4a2.8,2.8,0,0,0,.9,2.2A3.6,3.6,0,0,0,94.5,333.8Z" fill="#fff"/><path d="M110.7,325.3c0-4.1.9-7.4,2.8-9.9a8.9,8.9,0,0,1,7.6-3.6,7.7,7.7,0,0,1,6.3,2.9V301.2h7.1v37.5h-6.4l-.3-2.8a8.3,8.3,0,0,1-6.8,3.3,9.2,9.2,0,0,1-7.5-3.7C111.6,333,110.7,329.6,110.7,325.3Zm7.1.5a10,10,0,0,0,1.3,5.7,4.2,4.2,0,0,0,3.7,2,4.6,4.6,0,0,0,4.6-2.8V320.3a4.6,4.6,0,0,0-4.5-2.8C119.5,317.5,117.8,320.3,117.8,325.8Z" fill="#fff"/><path d="M139.9,305.4a3.6,3.6,0,0,1,1.1-2.6,3.9,3.9,0,0,1,2.9-1,4.1,4.1,0,0,1,2.9,1,3.5,3.5,0,0,1,1,2.6,3.6,3.6,0,0,1-1,2.7,4.1,4.1,0,0,1-2.9,1,3.9,3.9,0,0,1-2.9-1A3.7,3.7,0,0,1,139.9,305.4Zm7.5,33.3h-7.1V312.3h7.1Z" fill="#fff"/><path d="M159.7,312.3l.2,3a9.5,9.5,0,0,1,7.6-3.5q4.2,0,6.3,2.4c1.4,1.7,2.1,4.1,2.1,7.4v17.1h-7.1V321.8a3.5,3.5,0,0,0-4.2-4.3,4.9,4.9,0,0,0-4.5,2.6v18.6h-7V312.3Z" fill="#fff"/><path d="M180.2,325.3a15.6,15.6,0,0,1,2.9-9.8,9.2,9.2,0,0,1,7.8-3.7,8.3,8.3,0,0,1,6.8,3l.3-2.5h6.4v25.5a11.7,11.7,0,0,1-1.6,6,10.4,10.4,0,0,1-4.4,3.9,16,16,0,0,1-6.7,1.4,13.9,13.9,0,0,1-5.7-1.2,10.3,10.3,0,0,1-4.2-3l3.1-4.3a8.3,8.3,0,0,0,6.4,3,6,6,0,0,0,4.4-1.5,5.4,5.4,0,0,0,1.6-4.3v-1.4a8.1,8.1,0,0,1-6.4,2.8,9.3,9.3,0,0,1-7.7-3.8c-2-2.4-3-5.7-3-9.8Zm7.1.5c0,2.4.4,4.3,1.4,5.6a4.6,4.6,0,0,0,4,2.1,5,5,0,0,0,4.6-2.4V319.9a5,5,0,0,0-4.6-2.4,4.6,4.6,0,0,0-4,2.1A11.4,11.4,0,0,0,187.3,325.8Z" fill="#fff"/><path d="M230.7,305.8v6.5h4.5v5.1h-4.5v13.2a3.6,3.6,0,0,0,.5,2.1,3,3,0,0,0,2.2.7l2.1-.2v5.3a12.5,12.5,0,0,1-4.3.7c-5,0-7.5-2.5-7.6-7.5V317.4h-3.8v-5.1h3.8v-6.5Z" fill="#fff"/><path d="M246,315.1a8.9,8.9,0,0,1,7.1-3.3c5.7,0,8.6,3.3,8.7,10v16.9h-7.1V322a4.6,4.6,0,0,0-1-3.4,4.1,4.1,0,0,0-3.2-1.1,4.7,4.7,0,0,0-4.5,2.4v18.8h-7V301.2h7Z" fill="#fff"/><path d="M281.9,318.9l-2.5-.2c-2.7,0-4.4.9-5.2,2.7v17.3h-7.1V312.3h6.7l.2,3.1a6.4,6.4,0,0,1,5.8-3.6,7.3,7.3,0,0,1,2.2.3Z" fill="#fff"/><path d="M297.5,339.2a13.1,13.1,0,0,1-9.5-3.6,12.7,12.7,0,0,1-3.6-9.5v-.7a16.4,16.4,0,0,1,1.5-7.1,10.8,10.8,0,0,1,4.4-4.8,11.6,11.6,0,0,1,6.4-1.7c3.6,0,6.5,1.1,8.5,3.4s3.2,5.5,3.2,9.7v2.9H291.5a7,7,0,0,0,2.1,4.1,6,6,0,0,0,4.4,1.6,7.4,7.4,0,0,0,6.3-3l3.5,3.9a10.6,10.6,0,0,1-4.3,3.5A13.2,13.2,0,0,1,297.5,339.2Zm-.8-21.7a4.2,4.2,0,0,0-3.4,1.4,7.4,7.4,0,0,0-1.7,4.1h9.8v-.6a4.9,4.9,0,0,0-1.2-3.6A4.6,4.6,0,0,0,296.7,317.5Z" fill="#fff"/><path d="M324.5,339.2a12.7,12.7,0,0,1-9.4-3.6,12.4,12.4,0,0,1-3.7-9.5v-.7a15.1,15.1,0,0,1,1.6-7.1,10.6,10.6,0,0,1,4.3-4.8,11.6,11.6,0,0,1,6.4-1.7c3.7,0,6.5,1.1,8.6,3.4s3.1,5.5,3.1,9.7v2.9H318.6a6.4,6.4,0,0,0,2,4.1,6.1,6.1,0,0,0,4.4,1.6,7.7,7.7,0,0,0,6.4-3l3.4,3.9a10,10,0,0,1-4.3,3.5A13.2,13.2,0,0,1,324.5,339.2Zm-.8-21.7a4.2,4.2,0,0,0-3.4,1.4,7.4,7.4,0,0,0-1.7,4.1h9.9v-.6a5.4,5.4,0,0,0-1.3-3.6A4.5,4.5,0,0,0,323.7,317.5Z" fill="#fff"/><path d="M47.9,378.3c0,3.3-.7,5.9-2.2,7.8a7.1,7.1,0,0,1-6,3,7.4,7.4,0,0,1-6.2-2.9l-.2,2.5H30v-30h3.6v11.2a7.5,7.5,0,0,1,6.1-2.7,7,7,0,0,1,6,2.9c1.5,1.9,2.2,4.6,2.2,7.9Zm-3.6-.4a10.4,10.4,0,0,0-1.4-5.7,5,5,0,0,0-4.1-2,5.4,5.4,0,0,0-5.2,3.3v9.2a5.5,5.5,0,0,0,5.2,3.3,4.7,4.7,0,0,0,4-2C43.8,382.7,44.3,380.6,44.3,377.9Z" fill="#fff"/><path d="M51.5,377.9a12.8,12.8,0,0,1,1.2-5.6,9.7,9.7,0,0,1,3.4-3.8,9.3,9.3,0,0,1,5-1.3,9.2,9.2,0,0,1,7,2.9,12,12,0,0,1,2.6,8v.2a14,14,0,0,1-1.1,5.6,9.7,9.7,0,0,1-3.4,3.8,9.8,9.8,0,0,1-5.1,1.4,8.7,8.7,0,0,1-6.9-3,11.3,11.3,0,0,1-2.7-7.9Zm3.6.4a9,9,0,0,0,1.7,5.7,5.2,5.2,0,0,0,4.3,2.1,5.2,5.2,0,0,0,4.4-2.1,10,10,0,0,0,1.6-6.1,8.9,8.9,0,0,0-1.6-5.6,5.2,5.2,0,0,0-4.4-2.2,5,5,0,0,0-4.3,2.2A9.5,9.5,0,0,0,55.1,378.3Z" fill="#fff"/><path d="M74.4,377.9a12.7,12.7,0,0,1,2.3-7.8,7,7,0,0,1,6-2.9,7.2,7.2,0,0,1,5.9,2.5v-11h3.6v30H88.9l-.2-2.3a7.7,7.7,0,0,1-12-.3,13,13,0,0,1-2.3-7.9Zm3.6.4a9.6,9.6,0,0,0,1.5,5.7,4.8,4.8,0,0,0,4.1,2,5.1,5.1,0,0,0,5-3.1v-9.7a5.3,5.3,0,0,0-5-3,4.8,4.8,0,0,0-4.1,2.1C78.5,373.6,78,375.7,78,378.3Z" fill="#fff"/><path d="M104.7,383.4l5-15.9h3.8L105,391.9c-1.3,3.6-3.4,5.3-6.2,5.3h-.7l-1.4-.3V394h1a5,5,0,0,0,2.9-.8,5.7,5.7,0,0,0,1.7-2.7l.8-2.2-7.6-20.9h4Z" fill="#fff"/></svg>