<svg xmlns="http://www.w3.org/2000/svg" width="1300" height="422" viewBox="0 0 1300 422"><path fill="#fff" d="M31.1 57l1.3-1.6a6.3 6.3 0 0 0 4.2 1.7c2 0 2.9-1 2.9-2.3s-1.7-2.1-3.3-2.7-4.4-1.8-4.4-4.2 1.9-4.2 5.1-4.2a7.3 7.3 0 0 1 4.5 1.7L40.2 47a5.1 5.1 0 0 0-3.3-1.3c-1.8 0-2.7 1-2.7 2.1s1.6 1.9 3.3 2.5 4.4 1.6 4.4 4.4S40 59 36.6 59a8.6 8.6 0 0 1-5.5-2zm13.1-5.6c0-4.9 3.2-7.7 6.8-7.7s6.7 2.8 6.7 7.7S54.6 59 51 59s-6.8-2.7-6.8-7.6zm11 0c0-3.3-1.7-5.6-4.2-5.6s-4.2 2.3-4.2 5.6S48.5 57 51 57s4.2-2.2 4.2-5.6zm6.2 1.9v-9.2h2.5V53c0 2.7.8 3.9 2.7 3.9s2.5-.7 3.9-2.4V44.1H73v14.6h-2.1l-.2-2.3h-.1a6 6 0 0 1-4.8 2.6c-3.1 0-4.4-1.9-4.4-5.7zm16.5-9.2h2l.2 2.6h.1c1-1.8 2.5-3 4.2-3a3.3 3.3 0 0 1 1.5.3l-.4 2.2L84 46c-1.2 0-2.7.9-3.6 3.3v9.4h-2.5zm9 7.3c0-4.9 3.3-7.7 7-7.7a5.7 5.7 0 0 1 4.3 1.8l-1.3 1.6a3.9 3.9 0 0 0-2.9-1.3c-2.6 0-4.5 2.3-4.5 5.6S91.3 57 94 57a5.3 5.3 0 0 0 3.4-1.5l1.1 1.7a7.1 7.1 0 0 1-4.7 1.8c-3.9 0-6.9-2.7-6.9-7.6zm13.1 0c0-4.7 3.2-7.7 6.5-7.7s5.8 2.7 5.8 6.9a6.1 6.1 0 0 1-.1 1.4h-9.8c.2 3.1 2.1 5.1 4.9 5.1a6.7 6.7 0 0 0 3.6-1.2l.9 1.6A8.3 8.3 0 0 1 107 59c-3.9 0-7-2.8-7-7.6zm10.2-1.2c0-2.9-1.4-4.5-3.6-4.5s-3.9 1.6-4.2 4.5zm10.1 6.8l1.2-1.6a6.8 6.8 0 0 0 4.3 1.7c2 0 2.9-1 2.9-2.3s-1.7-2.1-3.3-2.7-4.4-1.8-4.4-4.2 1.9-4.2 5-4.2a7.3 7.3 0 0 1 4.6 1.7l-1.2 1.6a5.1 5.1 0 0 0-3.3-1.3c-1.9 0-2.7 1-2.7 2.1s1.6 1.9 3.2 2.5 4.5 1.6 4.5 4.4-1.9 4.3-5.4 4.3a8.5 8.5 0 0 1-5.4-2zm13.3-2.1c0-3.2 2.7-4.8 8.9-5.5 0-1.8-.6-3.6-3-3.6a8.5 8.5 0 0 0-4.3 1.5l-1-1.7a11.7 11.7 0 0 1 5.8-1.9c3.5 0 5 2.4 5 6v9h-2l-.2-1.8h-.1a7.5 7.5 0 0 1-4.8 2.1c-2.5 0-4.3-1.5-4.3-4.1zm8.9.2v-4c-4.8.6-6.5 1.8-6.5 3.6s1.1 2.4 2.6 2.4 2.5-.7 3.9-2zm7.1-11h2.1l.2 2.1h.1a6.5 6.5 0 0 1 4.8-2.5c3.1 0 4.5 2 4.5 5.7v9.3h-2.5v-8.9c0-2.8-.8-3.9-2.7-3.9s-2.6.8-4 2.2v10.6h-2.5zM164.4 57l1.2-1.6a6.8 6.8 0 0 0 4.3 1.7c1.9 0 2.9-1 2.9-2.3s-1.7-2.1-3.3-2.7-4.4-1.8-4.4-4.2 1.9-4.2 5-4.2a7.3 7.3 0 0 1 4.6 1.7l-1.2 1.6a5.1 5.1 0 0 0-3.3-1.3c-1.9 0-2.7 1-2.7 2.1s1.6 1.9 3.2 2.5 4.5 1.6 4.5 4.4-1.9 4.3-5.4 4.3a8.5 8.5 0 0 1-5.4-2zm20.2-12.9h2l.2 1.7h.1a8 8 0 0 1 4.7-2.1c3.7 0 5.7 3 5.7 7.5S194.4 59 191 59a6.8 6.8 0 0 1-4-1.6v7.4h-2.5zm10.2 7.1c0-3.2-1.1-5.4-3.8-5.4s-2.5.7-3.9 2v7.6a5.4 5.4 0 0 0 3.5 1.6c2.4 0 4.2-2.2 4.2-5.8zm6.4-7.1h2.1l.2 2.6h.1c1-1.8 2.5-3 4.1-3a3.8 3.8 0 0 1 1.6.3l-.5 2.2-1.4-.2c-1.2 0-2.7.9-3.7 3.3v9.4h-2.5zm9.1 7.3c0-4.9 3.2-7.7 6.7-7.7s6.8 2.8 6.8 7.7-3.2 7.6-6.8 7.6-6.7-2.7-6.7-7.6zm10.9 0c0-3.3-1.7-5.6-4.2-5.6s-4.2 2.3-4.2 5.6 1.7 5.6 4.2 5.6 4.2-2.2 4.2-5.6zM36.8 98.6h14.7v17.2l-.7 8.9c3.7-3.3 8.6-6.8 15.3-6.8 10.8 0 15.4 7.6 15.4 20v30.8H66.8v-28.9c0-7.2-1.9-9.4-6.1-9.4s-6 1.7-9.2 4.8v33.5H36.8zM91 143.9c0-16.1 11.5-26 23.4-26 14.1 0 21.1 10.3 21.1 23.8a32.5 32.5 0 0 1-.6 6.5h-29.7c1.3 7.2 6.3 10.5 12.9 10.5a20 20 0 0 0 10.7-3.3l4.9 8.9a32.4 32.4 0 0 1-17.6 5.6c-14.2 0-25.1-9.6-25.1-26zm32-5.4c0-5.5-2.4-9.4-8.3-9.4s-8.6 3.1-9.6 9.4zm19.3 16.4c0-10.4 8.3-16.1 27.9-18.1-.3-4.4-2.4-7.2-7.8-7.2s-8.3 1.7-13.1 4.5l-5.3-9.7c6.3-3.8 13.4-6.5 21.2-6.5 12.7 0 19.7 7.2 19.7 22.4v28.4h-12l-1-5.1h-.4c-4.2 3.7-8.8 6.3-14.4 6.3-9.1 0-14.8-6.6-14.8-15zm27.9-.6v-8.7c-10.4 1.4-13.8 4.4-13.8 8.2s2.2 4.7 5.7 4.7 5.5-1.6 8.1-4.2zm24.5-10.4c0-16.2 10.1-26 20.6-26 5.5 0 8.8 2 12.2 5.2l-.6-7.6V98.6h14.7v70.1h-12l-1-4.9h-.4c-3.5 3.5-8.4 6.1-13.2 6.1-12.3 0-20.3-9.8-20.3-26zm32.2 9.5v-20.3a11.7 11.7 0 0 0-8.2-3.2c-4.7 0-8.9 4.4-8.9 13.8s3.3 14.2 9 14.2c3.2 0 5.7-1.2 8.1-4.5zm26.5-49.3c0-4.5 3.6-7.6 8.5-7.6s8.5 3.1 8.5 7.6-3.5 7.7-8.5 7.7-8.5-3.2-8.5-7.7zm1.2 15h14.7v49.6h-14.7zm27.6 0h12l1 6.3h.4c4.2-4 9.2-7.5 15.9-7.5 10.8 0 15.4 7.6 15.4 20v30.8h-14.7v-28.9c0-7.2-1.9-9.4-6.1-9.4s-6 1.7-9.2 4.8v33.5h-14.7zm54.1 58.1c0-4.1 2.5-7.4 7.1-10v-.4a9.5 9.5 0 0 1-4.6-8.4c0-3.6 2.4-7.1 5.6-9.3v-.4a15.9 15.9 0 0 1-6.7-12.9c0-11.9 9.8-17.9 20.5-17.9a23 23 0 0 1 7.7 1.2H384v10.7h-7.9a13.2 13.2 0 0 1 1.6 6.5c0 11.4-8.6 16.7-19.5 16.7a19.8 19.8 0 0 1-6-1 4.2 4.2 0 0 0-1.8 3.7c0 2.5 2 3.7 7.5 3.7h8c12.2 0 18.9 3.7 18.9 12.6s-10.7 17.8-27.7 17.8c-11.6 0-20.8-3.8-20.8-12.6zm34.5-2.7c0-3.1-2.7-3.9-7.6-3.9h-5.1a28.9 28.9 0 0 1-7-.6c-1.8 1.6-2.7 3.1-2.7 4.9 0 3.7 4.4 5.7 11 5.7s11.4-2.7 11.4-6.1zm-5.8-38.7c0-5.2-2.9-8-6.8-8s-6.8 2.7-6.8 8 2.9 8.3 6.8 8.3 6.8-2.8 6.8-8.3zm44.9 8.1c0-16.5 11.6-26 24.2-26s24.1 9.5 24.1 26-11.6 26-24.1 26-24.2-9.5-24.2-26zm33.3 0c0-8.6-3.1-14.1-9.1-14.1s-9.1 5.5-9.1 14.1 3 14.1 9.1 14.1 9.1-5.5 9.1-14.1zm25.1-24.8h12l1 6.3h.4c4.2-4 9.2-7.5 15.9-7.5 10.8 0 15.4 7.6 15.4 20v30.8h-14.7v-28.9c0-7.2-1.9-9.4-6.1-9.4s-6 1.7-9.2 4.8v33.5h-14.7zm54.3 24.8c0-16.1 11.5-26 23.4-26 14.1 0 21.1 10.3 21.1 23.8a32.5 32.5 0 0 1-.6 6.5h-29.7c1.3 7.2 6.3 10.5 12.9 10.5a20 20 0 0 0 10.7-3.3l4.9 8.9a32.4 32.4 0 0 1-17.6 5.6c-14.2 0-25.1-9.6-25.1-26zm32-5.4c0-5.5-2.4-9.4-8.3-9.4s-8.6 3.1-9.6 9.4zM36.8 211.7h6.6v15.5l-.2 8c3.6-3.5 7.6-6.4 12.9-6.4 8.2 0 11.9 5.3 11.9 15.2v24.7h-6.6v-23.8c0-7.3-2.2-10.4-7.4-10.4s-6.7 2.1-10.6 6v28.2h-6.6zm40.7 37.6c0-12.7 8.5-20.5 17.4-20.5s15.5 7.2 15.5 18.3a20.6 20.6 0 0 1-.2 3.7H84c.4 8.3 5.5 13.6 12.9 13.6a17.2 17.2 0 0 0 9.7-3.1l2.3 4.3a22.6 22.6 0 0 1-12.8 4c-10.4 0-18.6-7.6-18.6-20.3zm27.2-3.2c0-7.8-3.5-12.1-9.6-12.1s-10.4 4.4-11.2 12.1zm11.8 12.5c0-8.5 7.3-12.7 23.9-14.6 0-4.9-1.6-9.7-8-9.7-4.5 0-8.6 2.1-11.6 4.1l-2.6-4.5c3.6-2.3 9-5.1 15.3-5.1 9.5 0 13.5 6.4 13.5 16v23.9h-5.4l-.6-4.7h-.2c-3.7 3.1-8 5.6-12.9 5.6-6.5 0-11.4-4-11.4-11zm23.9.6v-10.8c-13 1.6-17.5 4.8-17.5 9.7s3.1 6.3 6.9 6.3 6.8-1.9 10.6-5.2zm16-9.9c0-12.6 8-20.5 16.9-20.5 4.5 0 7.5 1.7 10.9 4.5l-.3-6.6v-15h6.6v57h-5.4l-.6-4.6h-.2c-3.1 3-7.2 5.5-11.8 5.5-9.7 0-16.1-7.3-16.1-20.3zm27.5 9.5v-20.4c-3.3-2.9-6.3-4-9.5-4-6.2 0-11.2 6-11.2 14.8s4 14.9 10.8 14.9c3.6 0 6.7-1.7 9.9-5.3zm18.5-41.2a4.6 4.6 0 1 1 4.6 4.2 4.3 4.3 0 0 1-4.6-4.2zm1.2 12.2h6.6v38.9h-6.6zm19.7 0h5.5l.5 5.6h.3c3.6-3.7 7.6-6.6 13-6.6 8.2 0 11.8 5.3 11.8 15.2v24.7h-6.5v-23.8c0-7.3-2.3-10.4-7.4-10.4s-6.7 2.1-10.6 6v28.2h-6.6zm40.8 46.3c0-3.3 2.2-6.4 5.7-8.8v-.3a7.2 7.2 0 0 1-3.4-6.3 8.9 8.9 0 0 1 4.2-7.2v-.3a13.8 13.8 0 0 1-5-10.5c0-8.5 6.7-13.9 14.6-13.9a14.2 14.2 0 0 1 5.5 1h13.5v5h-8a11.2 11.2 0 0 1 3.2 8c0 8.4-6.3 13.6-14.2 13.6a13 13 0 0 1-5.8-1.4c-1.4 1.2-2.5 2.5-2.5 4.6s1.6 4.3 6.9 4.3h7.5c9 0 13.6 2.8 13.6 9.3s-7.6 13.4-19.7 13.4c-9.5 0-16.1-3.8-16.1-10.5zm29.4-2c0-3.6-2.8-4.8-7.9-4.8h-6.7a17.9 17.9 0 0 1-5-.6c-2.8 2-4 4.3-4 6.5 0 4.2 4.2 6.8 11.3 6.8s12.3-3.8 12.3-7.9zm-5.1-31.4c0-5.7-3.6-9.1-8.2-9.1s-8.2 3.4-8.2 9.1 3.7 9.3 8.2 9.3 8.2-3.6 8.2-9.3zm36.1 14v-21.5h-5.7v-5l6-.4.8-10.9h5.6v10.9h10.4v5.4h-10.4v21.6c0 4.8 1.5 7.5 6 7.5a14.2 14.2 0 0 0 4.4-1.1l1.2 5a24.2 24.2 0 0 1-7.2 1.4c-8.3 0-11.1-5.2-11.1-12.9zm21.3-26.9h6.7l5.8 22.5c.9 3.7 1.6 7.2 2.3 10.8h.3c.9-3.6 1.7-7.2 2.7-10.8l6-22.5h6.4l6 22.5c1 3.7 1.9 7.2 2.8 10.8h.3c.9-3.6 1.6-7.1 2.4-10.8l5.7-22.5h6.2L389 268.7h-8l-5.6-20.9c-1-3.7-1.7-7.3-2.6-11.2h-.4c-.8 3.9-1.6 7.6-2.7 11.3l-5.4 20.8h-7.7zm58.9 19.5c0-13 8.5-20.5 18-20.5s18 7.5 18 20.5-8.5 20.3-18 20.3-18-7.4-18-20.3zm29.2 0c0-8.9-4.5-15-11.2-15s-11.2 6.1-11.2 15 4.5 14.9 11.2 14.9 11.2-6 11.2-14.9zM33.5 303.6h7.4v8.6l-.4 4.5a11.3 11.3 0 0 1 7.7-3.4c5.4 0 7.7 3.8 7.7 10v15.4h-7.4v-14.5c0-3.6-.9-4.7-3-4.7s-3 .9-4.6 2.4v16.8h-7.4zm27.1 22.7c0-8.1 5.8-13 11.7-13s10.6 5.1 10.6 11.9a20.4 20.4 0 0 1-.3 3.2H67.7a6.1 6.1 0 0 0 6.5 5.3 10 10 0 0 0 5.3-1.7l2.5 4.5a16.9 16.9 0 0 1-8.8 2.8c-7.1 0-12.6-4.8-12.6-13zm16-2.7c0-2.8-1.2-4.7-4.1-4.7s-4.3 1.5-4.8 4.7zm9.7 8.2c0-5.2 4.1-8.1 13.9-9.1-.1-2.2-1.2-3.6-3.9-3.6s-4.1.9-6.5 2.3l-2.7-4.9a20.6 20.6 0 0 1 10.6-3.2c6.4 0 9.9 3.6 9.9 11.2v14.2h-6l-.5-2.6h-.2a10.6 10.6 0 0 1-7.2 3.2c-4.6 0-7.4-3.3-7.4-7.5zm13.9-.3v-4.4c-5.2.7-6.9 2.2-6.9 4.1s1.1 2.4 2.9 2.4 2.7-.8 4-2.1zm12.3-5.2c0-8.1 5-13 10.3-13a8.2 8.2 0 0 1 6.1 2.6l-.3-3.8v-8.5h7.3v35.1h-6l-.5-2.5h-.2a9.6 9.6 0 0 1-6.6 3.1c-6.1 0-10.1-4.9-10.1-13zm16.1 4.7v-10.1a6 6 0 0 0-4.1-1.6c-2.4 0-4.5 2.2-4.5 6.9s1.7 7.1 4.5 7.1a4.7 4.7 0 0 0 4.1-2.3zm13.2-24.6c0-2.3 1.8-3.8 4.3-3.8s4.2 1.5 4.2 3.8-1.7 3.8-4.2 3.8-4.3-1.6-4.3-3.8zm.6 7.5h7.4v24.8h-7.4zm13.8 0h6l.5 3.1h.2c2.1-2 4.6-3.7 8-3.7 5.4 0 7.7 3.8 7.7 10v15.4h-7.4v-14.5c0-3.6-.9-4.7-3-4.7s-3 .9-4.6 2.4v16.8h-7.4zm27.1 29c0-2 1.2-3.7 3.5-5v-.2a4.6 4.6 0 0 1-2.3-4.2 5.9 5.9 0 0 1 2.8-4.6v-.2a8.1 8.1 0 0 1-3.3-6.5c0-5.9 4.9-8.9 10.2-8.9a11.8 11.8 0 0 1 3.9.6h9v5.3h-3.9a7.6 7.6 0 0 1 .8 3.3c0 5.7-4.3 8.3-9.8 8.3a8.6 8.6 0 0 1-3-.5 2.3 2.3 0 0 0-.9 1.9c0 1.2 1 1.8 3.8 1.8h4c6.1 0 9.4 1.9 9.4 6.3s-5.3 8.9-13.8 8.9c-5.8 0-10.4-1.9-10.4-6.3zm17.2-1.3c0-1.6-1.3-2-3.8-2h-2.5a14.4 14.4 0 0 1-3.5-.3 3.4 3.4 0 0 0-1.4 2.5c0 1.8 2.2 2.8 5.5 2.8s5.7-1.3 5.7-3zm-2.9-19.4c0-2.6-1.4-4-3.4-4s-3.4 1.4-3.4 4 1.5 4.2 3.4 4.2 3.4-1.4 3.4-4.2zm24.9 7.5v-10.1h-3.4v-5.4l3.8-.3.9-6.6h6.1v6.6h5.9v5.7h-5.9v10c0 2.8 1.2 3.9 3.2 3.9a5.6 5.6 0 0 0 2.3-.5l1.2 5.4a17.9 17.9 0 0 1-5.5.9c-6.2 0-8.6-3.9-8.6-9.6zm18.2-26.1h7.3v8.6l-.3 4.5a11 11 0 0 1 7.6-3.4c5.4 0 7.7 3.8 7.7 10v15.4h-7.3v-14.5c0-3.6-1-4.7-3.1-4.7s-3 .9-4.6 2.4v16.8h-7.3zm28.5 10.3h6l.5 4.3h.2c1.8-3.3 4.5-4.9 7.1-4.9a6.9 6.9 0 0 1 2.9.5l-1.2 6.3a11 11 0 0 0-2.7-.4c-1.8 0-4.1 1.2-5.4 4.6v14.4h-7.4zm18 12.4c0-8.1 5.7-13 11.7-13s10.5 5.1 10.5 11.9a12.7 12.7 0 0 1-.3 3.2h-14.8c.6 3.6 3.1 5.3 6.4 5.3a10.1 10.1 0 0 0 5.4-1.7l2.4 4.5a16.4 16.4 0 0 1-8.8 2.8c-7.1 0-12.5-4.8-12.5-13zm16-2.7c0-2.8-1.2-4.7-4.2-4.7s-4.3 1.5-4.8 4.7zm9.9 2.7c0-8.1 5.7-13 11.7-13s10.5 5.1 10.5 11.9a12.7 12.7 0 0 1-.3 3.2h-14.8c.6 3.6 3.1 5.3 6.4 5.3a10.1 10.1 0 0 0 5.4-1.7l2.4 4.5a16.4 16.4 0 0 1-8.8 2.8c-7.1 0-12.5-4.8-12.5-13zm16-2.7c0-2.8-1.2-4.7-4.2-4.7s-4.3 1.5-4.8 4.7zM36.6 386.7h-.1l-.3 2h-2.6v-28.5h3.2v11.3a9.2 9.2 0 0 1 6-2.7c5.1 0 7.8 3.8 7.8 9.8s-4 10.6-8.4 10.6a9.1 9.1 0 0 1-5.6-2.5zm10.6-8c0-4.3-1.5-7.2-5.2-7.2-1.6 0-3.3.9-5.2 2.7v10.2a8.2 8.2 0 0 0 4.8 2c3.2 0 5.6-2.9 5.6-7.7zm7 .3c0-6.5 4.3-10.2 9-10.2s9 3.7 9 10.2-4.2 10.2-9 10.2-9-3.8-9-10.2zm14.6 0c0-4.5-2.2-7.5-5.6-7.5s-5.6 3-5.6 7.5 2.3 7.4 5.6 7.4 5.6-3 5.6-7.4zm7.2 0c0-6.3 4-10.2 8.4-10.2a7.9 7.9 0 0 1 5.4 2.2v-10.8H93v28.5h-2.7l-.3-2.3h-.1a8.7 8.7 0 0 1-5.9 2.8c-4.9 0-8-3.7-8-10.2zm13.7 4.7v-10.1a6.8 6.8 0 0 0-4.7-2.1c-3.2 0-5.6 3-5.6 7.5s1.9 7.4 5.3 7.4c1.8 0 3.4-.9 5-2.7zm7.9 12.9l.6-2.6a3.7 3.7 0 0 0 1.5.3c2.2 0 3.6-1.7 4.4-4.1l.5-1.5-7.8-19.5h3.4l3.9 10.8 1.9 5.5h.2l1.6-5.5 3.5-10.8h3.2l-7.3 21.1c-1.4 3.8-3.4 6.7-7.3 6.7a5.3 5.3 0 0 1-2.3-.4z"/></svg>