<svg xmlns="http://www.w3.org/2000/svg" width="53.6in" height="24.6in" viewBox="0 0 3861.5 1770.2">
  <circle cx="689.5" cy="1059.5" r="9.2" fill="#ffa600"/>
  <circle cx="638" cy="1027.8" r="9.2" fill="#ff8900"/>
  <circle cx="624" cy="969.2" r="9.2" fill="#ff5000"/>
  <circle cx="655.4" cy="917.7" r="9.2" fill="#fe2b09"/>
  <circle cx="713.5" cy="903.4" r="9.2" fill="#e1001e"/>
  <circle cx="635.9" cy="1070.8" r="13.8" fill="#ffa600"/>
  <circle cx="594.7" cy="1011.2" r="13.8" fill="#ff8900"/>
  <circle cx="605" cy="926.7" r="13.8" fill="#ff5000"/>
  <circle cx="671.5" cy="874.6" r="13.8" fill="#fe2b09"/>
  <circle cx="756.2" cy="884.8" r="13.8" fill="#e1001e"/>
  <circle cx="561.2" cy="1078.6" r="27.6" fill="#ffa600"/>
  <circle cx="533.3" cy="951.2" r="27.6" fill="#ff8900"/>
  <circle cx="604.5" cy="840.9" r="27.6" fill="#ff5000"/>
  <circle cx="732.2" cy="813.5" r="27.6" fill="#fe2b09"/>
  <circle cx="842.3" cy="884.2" r="27.6" fill="#e1001e"/>
  <path fill="#ccc" d="M1749.9 307.9c-102 0-185 82.9-185 185s83 185 185 185 185-83 185-185-82.9-185-185-185zm0 360c-96.5 0-175-78.6-175-175s78.5-175 175-175 175 78.5 175 175-78.5 175-175 175z"/>
  <path fill="#ccc" d="M1749.9 352.9c-77.2 0-140 62.8-140 140s62.8 140 140 140 140-62.8 140-140-62.8-140-140-140zm0 270c-71.6 0-130-58.4-130-130s58.4-130 130-130a130.1 130.1 0 0 1 130 130c0 71.6-58.3 130-130 130z"/>
  <path fill="#ccc" d="M1749.9 397.9a95 95 0 1 0 95 95 95.2 95.2 0 0 0-95-95zm0 180a85 85 0 1 1 85-85 85.2 85.2 0 0 1-85 85z"/>
  <path fill="#ccc" d="M1749.9 424.9a68 68 0 1 0 68 68 68.1 68.1 0 0 0-68-68zm0 126a58 58 0 1 1 58-58 58.2 58.2 0 0 1-58 58z"/>
  <path fill="none" stroke="#e5e5e5" stroke-miterlimit="10" stroke-width="6" d="M1588.9 335.6l326 326m-326 0l326-326m-163-67.5v461m-230.5-230.5h461"/>
  <path fill="none" stroke="#e5e5e5" stroke-miterlimit="10" d="M1539.7 588.7l424.4-180.2m-122.2 302.3l-180.1-424.4m-123.6 125.8l427.4 172.7m-300.1 127.4l172.7-427.4"/>
  <path fill="none" stroke="#e5e5e5" stroke-miterlimit="10" stroke-width="6" d="M1086.9 335.6l326 326m-326 0l326-326m-163-67.5v461m-230.5-230.5h461"/>
  <path fill="none" stroke="#e5e5e5" stroke-miterlimit="10" d="M1037.7 588.7l424.4-180.2m-122.2 302.3l-180.1-424.4m-123.6 125.8l427.4 172.7m-300.1 127.4l172.7-427.4"/>
  <circle cx="2162.9" cy="668.9" r="9" fill="#ccc"/>
  <circle cx="2162.9" cy="629.7" r="13.5" fill="#ccc"/>
  <circle cx="2162.9" cy="570.8" r="27" fill="#ccc"/>
  <circle cx="1740.7" cy="570.6" r="9.1" fill="#ffa600"/>
  <circle cx="1690.9" cy="542.2" r="9.1" fill="#ff8900"/>
  <circle cx="1673" cy="487.3" r="9.1" fill="#ff5000"/>
  <circle cx="1702.1" cy="432.5" r="9.1" fill="#fe2b09"/>
  <circle cx="1763.5" cy="416.3" r="9.1" fill="#e1001e"/>
  <circle cx="1689.8" cy="583.7" r="13.7" fill="#ffa600"/>
  <circle cx="1644.1" cy="514.8" r="13.7" fill="#ff8900"/>
  <circle cx="1661.2" cy="430.4" r="13.7" fill="#ff5000"/>
  <circle cx="1735.9" cy="385.8" r="13.7" fill="#fe2b09"/>
  <circle cx="1818.1" cy="408.9" r="13.7" fill="#e1001e"/>
  <circle cx="1616" cy="592.4" r="27.3" fill="#ffa600"/>
  <circle cx="1584.4" cy="468.6" r="27.3" fill="#ff8900"/>
  <circle cx="1652.8" cy="356.7" r="27.3" fill="#ff5000"/>
  <circle cx="1781.8" cy="329.4" r="27.3" fill="#fe2b09"/>
  <circle cx="1890.8" cy="402.4" r="27.3" fill="#e1001e"/>
  <path fill="none" stroke="#999" stroke-linecap="round" stroke-miterlimit="10" d="M2160 543.7h59.9v54.2H2160m.1 18.5h59.8v26.8h-59.8m-.1 17h59.9v18H2160"/>
  <path fill="#999" d="M2228.8 597.5a.7.7 0 0 1 1.4 0 .7.7 0 1 1-1.4 0zm7.4-7.2v.7l-3.3 7.1h-1.1l3.3-6.9h-3.8v-.9zm5.8.9h-3l-.3 2h.7a2.7 2.7 0 0 1 1.6.4 2.2 2.2 0 0 1 1.2 2 2.8 2.8 0 0 1-3 2.7 4.3 4.3 0 0 1-1.9-.5l.3-.8a3.1 3.1 0 0 0 1.6.4 1.7 1.7 0 0 0 1.9-1.7c0-1-.7-1.7-2.3-1.7h-1l.5-3.8h3.7zm5.6-.5c0 .4-.3.6-.7.6s-.7-.2-.7-.6a.7.7 0 0 1 1.4 0zm-1.2 7.4v-5.8h1v5.8zm2.8-4.2a8.1 8.1 0 0 0-.1-1.6h1v1h.1a1.9 1.9 0 0 1 1.9-1.1c.8 0 2 .5 2 2.5v3.4h-1v-3.3c0-1-.4-1.7-1.4-1.7a1.5 1.5 0 0 0-1.4 1 4.3 4.3 0 0 1-.1.5v3.5h-1zm-208.7 69.5l-1.4.7-.2-.8 1.7-.9h.9v7.8h-1zm4 6.2a.7.7 0 1 1 1.4 0 .7.7 0 0 1-.7.7.6.6 0 0 1-.7-.7zm7.4-7.2v.7l-3.4 7.1h-1.1l3.4-6.9h-3.8v-.9zm5.8.9h-3l-.3 2h.6a3.4 3.4 0 0 1 1.7.5 2.2 2.2 0 0 1 1.1 2 2.7 2.7 0 0 1-2.9 2.6 3.1 3.1 0 0 1-1.9-.5l.2-.8a3.8 3.8 0 0 0 1.7.5 1.8 1.8 0 0 0 1.9-1.7c-.1-1-.7-1.7-2.3-1.7h-1.1l.5-3.7h3.8zm5.5-.5c0 .3-.2.6-.7.6a.6.6 0 0 1-.6-.6.7.7 0 0 1 .7-.7c.4 0 .6.3.6.7zm-1.2 7.4v-5.8h1.1v5.8zm2.9-4.2c0-.6-.1-1.1-.1-1.6h.9v.9a2.2 2.2 0 0 1 1.9-1c.8 0 2.1.4 2.1 2.4v3.5h-1.1v-3.4c0-.9-.3-1.7-1.3-1.7a1.5 1.5 0 0 0-1.4 1.1.7.7 0 0 0-.1.5v3.5h-1zm-56.5-40.8v-.6l.9-.8c1.9-1.9 2.8-2.9 2.9-4.1a1.4 1.4 0 0 0-1.6-1.5 2.4 2.4 0 0 0-1.6.6l-.4-.7a3.3 3.3 0 0 1 2.2-.8 2.2 2.2 0 0 1 2.4 2.3c0 1.4-1 2.6-2.7 4.1l-.6.6h3.5v.9zm6.3-.6a.7.7 0 1 1 1.4 0 .7.7 0 1 1-1.4 0zm7-6.3h-3l-.3 2h.7a3.3 3.3 0 0 1 1.7.4 2.2 2.2 0 0 1 1.1 2 2.7 2.7 0 0 1-2.9 2.6 4.6 4.6 0 0 1-2-.4l.3-.8a3.5 3.5 0 0 0 1.7.4 1.7 1.7 0 0 0 1.8-1.7c0-1-.7-1.7-2.2-1.7h-1.1l.5-3.8h3.7zm5.6-.5a.7.7 0 0 1-.7.6.6.6 0 0 1-.6-.6c0-.4.2-.7.6-.7a.7.7 0 0 1 .7.7zm-1.2 7.4v-5.8h1.1v5.8zm2.8-4.2v-1.6h.9v1a2 2 0 0 1 1.9-1.1c.8 0 2 .5 2 2.4v3.5h-1v-3.3c0-1-.4-1.7-1.4-1.7a1.5 1.5 0 0 0-1.4 1v4h-1.1zm-62.5-42.1a3.5 3.5 0 0 0 1.8.5 1.5 1.5 0 0 0 1.7-1.5c0-1.1-1-1.6-2-1.6h-.6v-.8h.6c.8 0 1.7-.4 1.7-1.3a1.2 1.2 0 0 0-1.3-1.2 3 3 0 0 0-1.6.5l-.3-.7a3.7 3.7 0 0 1 2.1-.6c1.5 0 2.2.9 2.2 1.8a2.1 2.1 0 0 1-1.4 1.9 2 2 0 0 1 1.7 2c0 1.2-1 2.3-2.8 2.3a4.9 4.9 0 0 1-2.1-.5zm6 .6a.7.7 0 0 1 .7-.8c.5 0 .7.3.7.8a.6.6 0 0 1-.7.7.7.7 0 0 1-.7-.7zm7.5-7.2v.7l-3.4 7.1h-1.1l3.4-6.9h-3.8v-.9zm5.7.9h-3l-.3 2h.7a3.4 3.4 0 0 1 1.7.5 2.2 2.2 0 0 1 1.1 2 2.7 2.7 0 0 1-2.9 2.6 3.4 3.4 0 0 1-2-.5l.3-.8a3.4 3.4 0 0 0 1.7.5 1.7 1.7 0 0 0 1.8-1.7c0-1-.7-1.8-2.2-1.8h-1.1l.5-3.7h3.7zm5.6-.5a.7.7 0 0 1-.7.6.6.6 0 0 1-.6-.6c0-.4.2-.7.6-.7a.7.7 0 0 1 .7.7zm-1.2 7.4v-5.8h1.1v5.8zm2.8-4.2v-1.6h.9v.9a2.1 2.1 0 0 1 1.9-1c.8 0 2.1.4 2.1 2.4v3.5h-1.1v-3.4c0-.9-.3-1.7-1.3-1.7a1.6 1.6 0 0 0-1.5 1.1v4h-1.1zm-42.7-29.5h-3l-.3 2h.6a3.3 3.3 0 0 1 1.7.4 2.3 2.3 0 0 1 1.1 2 2.7 2.7 0 0 1-2.9 2.7 4.3 4.3 0 0 1-1.9-.5l.3-.8a3.1 3.1 0 0 0 1.6.4 1.7 1.7 0 0 0 1.9-1.7c0-1-.7-1.7-2.3-1.7h-1.1l.5-3.8h3.8zm5.5-.5a.5.5 0 0 1-.6.6c-.4 0-.7-.2-.7-.6a.7.7 0 0 1 .7-.7c.4 0 .6.3.6.7zm-1.1 7.4v-5.8h1v5.8zm2.8-4.2a8.1 8.1 0 0 0-.1-1.6h1v1a2.2 2.2 0 0 1 2-1.1c.8 0 2 .5 2 2.5v3.4h-1V550c0-.9-.4-1.7-1.4-1.7a1.5 1.5 0 0 0-1.4 1.1.6.6 0 0 0-.1.4v3.5h-1zm271.5 93.8a.7.7 0 1 1 1.4 0 .7.7 0 1 1-1.4 0zm2.6-.6a3.5 3.5 0 0 0 1.8.5 1.5 1.5 0 0 0 1.7-1.5c0-1.1-1-1.6-2-1.6h-.6v-.7h.6c.8 0 1.8-.4 1.8-1.4s-.4-1.1-1.4-1.1a2.8 2.8 0 0 0-1.6.5l-.2-.8a3.6 3.6 0 0 1 2-.6 1.9 1.9 0 0 1 2.2 1.9 1.9 1.9 0 0 1-1.4 1.8 2 2 0 0 1 1.7 2c0 1.3-1 2.4-2.8 2.4a3.2 3.2 0 0 1-2-.6zm11-6.6v.7l-3.4 7.1h-1.1l3.4-6.9h-3.8v-.9zm5.8.9h-3l-.3 2h.6a3.3 3.3 0 0 1 1.7.4 2.2 2.2 0 0 1 1.1 2 2.7 2.7 0 0 1-2.9 2.7 4 4 0 0 1-1.9-.5l.2-.8a3.9 3.9 0 0 0 1.7.4 1.7 1.7 0 0 0 1.8-1.7c0-1-.6-1.7-2.2-1.7h-1.1l.5-3.8h3.8zm5.5-.5c0 .4-.2.6-.7.6a.6.6 0 0 1-.6-.6.7.7 0 0 1 .7-.7c.4 0 .6.3.6.7zm-1.2 7.4v-5.8h1.1v5.8zm2.8-4.2v-1.6h.9v1a2.1 2.1 0 0 1 1.9-1.1c.8 0 2.1.5 2.1 2.5v3.4h-1.1v-3.3c0-.9-.3-1.7-1.3-1.7a1.4 1.4 0 0 0-1.4 1.1.6.6 0 0 0-.1.4v3.5h-1.1zm-26.5 38.5a.7.7 0 1 1 1.4 0 .7.7 0 1 1-1.4 0zm2.4.6v-.7l.8-.8c2-1.9 2.9-2.9 2.9-4a1.4 1.4 0 0 0-1.5-1.6 2.9 2.9 0 0 0-1.7.7l-.3-.7a3.1 3.1 0 0 1 2.2-.8 2.2 2.2 0 0 1 2.4 2.2c0 1.5-1.1 2.6-2.7 4.2l-.6.6h3.5v.9zm10.8-6.9h-3l-.3 2h.7a2.8 2.8 0 0 1 1.6.5 2.2 2.2 0 0 1 1.2 2 2.8 2.8 0 0 1-3 2.6 3.3 3.3 0 0 1-1.9-.5l.3-.8a3 3 0 0 0 1.6.5 1.8 1.8 0 0 0 1.9-1.7c0-1-.7-1.7-2.3-1.7h-1l.5-3.7h3.7zm5.6-.5a.7.7 0 0 1-1.4 0 .7.7 0 0 1 1.4 0zm-1.2 7.4v-5.8h1v5.8zm2.8-4.2a8.1 8.1 0 0 0-.1-1.6h1v.9h.1a2 2 0 0 1 1.9-1c.8 0 2 .4 2 2.4v3.5h-1V675c0-.9-.4-1.7-1.4-1.7a1.5 1.5 0 0 0-1.4 1.1 4.3 4.3 0 0 0-.1.5v3.5h-1z"/>
  <path fill="none" stroke="#999" stroke-linecap="round" stroke-miterlimit="10" d="M1749.8 308.1h329.8v370.3h-329.8"/>
  <path fill="none" stroke="#999" stroke-linecap="round" stroke-miterlimit="10" d="M1748.6 352.6H2043v280h-294.4"/>
  <path fill="none" stroke="#999" stroke-linecap="round" stroke-miterlimit="10" d="M1749.8 397.1h257v191.5h-257"/>
  <path fill="none" stroke="#999" stroke-linecap="round" stroke-miterlimit="10" d="M1749.7 424.9h221.1v136.5h-221.1"/>
  <circle cx="1415" cy="1255.3" r="9.2" fill="#ffa600"/>
  <circle cx="1363.5" cy="1223.6" r="9.2" fill="#ff8900"/>
  <circle cx="1349.5" cy="1165" r="9.2" fill="#ff5000"/>
  <circle cx="1380.9" cy="1113.6" r="9.2" fill="#fe2b09"/>
  <circle cx="1439" cy="1099.2" r="9.2" fill="#e1001e"/>
  <circle cx="1361.4" cy="1266.6" r="13.8" fill="#ffa600"/>
  <circle cx="1320.2" cy="1207" r="13.8" fill="#ff8900"/>
  <circle cx="1330.5" cy="1122.6" r="13.8" fill="#ff5000"/>
  <circle cx="1397" cy="1070.4" r="13.8" fill="#fe2b09"/>
  <circle cx="1481.7" cy="1080.6" r="13.8" fill="#e1001e"/>
  <circle cx="1286.7" cy="1274.4" r="27.6" fill="#ffa600"/>
  <circle cx="1258.8" cy="1147" r="27.6" fill="#ff8900"/>
  <circle cx="1330" cy="1036.7" r="27.6" fill="#ff5000"/>
  <circle cx="1457.7" cy="1009.3" r="27.6" fill="#fe2b09"/>
  <circle cx="1567.8" cy="1080.1" r="27.6" fill="#e1001e"/>
  <path fill="#ffffff" d="M1459.8 1356.1l27.7-33.4c15.5 13.2 35.3 22.5 53.1 22.5 20.2 0 30.1-7.9 30.1-20.8s-12.2-17.8-31.1-25.8l-28-11.8c-22.1-8.9-43.2-27.4-43.2-58.8 0-35.6 31.6-64 76.5-64 24.8 0 50.8 9.9 69.3 28.4l-24.7 30.7c-14.2-10.9-27.4-17.2-44.6-17.2s-27.4 7.3-27.4 19.5 14.2 17.8 32.7 25.4l27.7 11.2c26.1 10.6 42.6 28.1 42.6 58.4 0 35.7-29.7 66.7-81.2 66.7-28 0-57.7-10.6-79.5-31zm177.5-188.1h48.5v174.2h85.2v40.9h-133.7zm149.8 1.9c0-14.8 11.9-25 28.1-25s28 10.2 28 25-11.5 25.4-28 25.4-28.1-10.5-28.1-25.4zm4 49.5h48.5v163.7h-48.5zm75.2-51.4h60.8c65.6 0 107.9 32.6 107.9 106.5s-42.3 108.6-105.3 108.6h-63.4zm57.8 175.9c36.6 0 61-17.9 61-69.4s-24.4-67.3-61-67.3h-9.3v136.7zm132-175.9h134.6v40.9h-86.1v43.2h73.3v40.6h-73.3v49.5h89.4v40.9h-137.9zm-592 283.5l3.6-4.3a10.9 10.9 0 0 0 6.7 2.9c2.6 0 3.9-1 3.9-2.7s-1.6-2.2-4-3.3l-3.6-1.5c-2.8-1.1-5.5-3.5-5.5-7.4s4.1-8.2 9.8-8.2a12.8 12.8 0 0 1 8.8 3.6l-3.1 3.9a9.1 9.1 0 0 0-5.7-2.2c-2.2 0-3.5 1-3.5 2.5s1.8 2.3 4.2 3.3l3.5 1.4c3.3 1.3 5.4 3.6 5.4 7.4s-3.8 8.5-10.3 8.5a15.2 15.2 0 0 1-10.2-3.9zm22.6-7c0-6.8 4.8-10.9 9.8-10.9s8.9 4.3 8.9 10a9.6 9.6 0 0 1-.3 2.7h-12.4c.5 3 2.6 4.4 5.4 4.4a8.8 8.8 0 0 0 4.5-1.4l2 3.8a14 14 0 0 1-7.4 2.3c-5.9 0-10.5-4-10.5-10.9zm13.4-2.3c0-2.3-1-3.9-3.4-3.9s-3.7 1.3-4.1 3.9zm8.7-8.1h5.1l.4 3.6h.2c1.5-2.8 3.7-4.1 5.9-4.1a5.4 5.4 0 0 1 2.5.4l-1 5.3a8.5 8.5 0 0 0-2.3-.3c-1.6 0-3.5 1-4.6 3.8v12.1h-6.2zm15.7 0h6.2l2.7 9.8c.5 2.1 1.1 4.2 1.6 6.4h.2c.5-2.2 1-4.3 1.6-6.4l2.7-9.8h5.9l-6.8 20.8h-7.1zm22.8-6.3c0-1.9 1.5-3.2 3.6-3.2a3.2 3.2 0 1 1 0 6.4c-2.1 0-3.6-1.3-3.6-3.2zm.5 6.3h6.2v20.8h-6.2zm9.5 10.4c0-7 5.1-10.9 10.9-10.9a9.4 9.4 0 0 1 6.1 2.2l-2.9 4a4 4 0 0 0-2.8-1.2c-3 0-4.9 2.3-4.9 5.9s2 5.9 4.6 5.9a6.7 6.7 0 0 0 3.8-1.5l2.4 4a10.3 10.3 0 0 1-6.9 2.5c-5.8 0-10.3-4-10.3-10.9zm17.6 0c0-6.8 4.9-10.9 9.9-10.9s8.8 4.3 8.8 10a17.6 17.6 0 0 1-.2 2.7h-12.5a5 5 0 0 0 5.4 4.4 8.5 8.5 0 0 0 4.5-1.4l2.1 3.8a14.3 14.3 0 0 1-7.4 2.3c-6 0-10.6-4-10.6-10.9zm13.5-2.3c0-2.3-1-3.9-3.5-3.9s-3.6 1.3-4 3.9zm18.4-14.7h6.2v22.2h10.8v5.2h-17zm18.6 17c0-6.8 4.9-10.9 9.9-10.9s8.8 4.3 8.8 10a17.6 17.6 0 0 1-.2 2.7h-12.5c.5 3 2.6 4.4 5.4 4.4a8.5 8.5 0 0 0 4.5-1.4l2.1 3.8a14.6 14.6 0 0 1-7.4 2.3c-6 0-10.6-4-10.6-10.9zm13.5-2.3c0-2.3-1-3.9-3.5-3.9s-3.6 1.3-4.1 3.9zm7.2 6.9c0-4.4 3.5-6.8 11.7-7.6a2.8 2.8 0 0 0-3.2-3 10.7 10.7 0 0 0-5.5 1.9l-2.3-4.1a17.5 17.5 0 0 1 8.9-2.7c5.4 0 8.3 3 8.3 9.4v11.9h-5l-.4-2.1h-.2a9.4 9.4 0 0 1-6.1 2.6 6 6 0 0 1-6.2-6.3zm11.7-.3v-3.6c-4.3.6-5.8 1.8-5.8 3.4s1 2 2.4 2a4.5 4.5 0 0 0 3.4-1.8zm9.7-14.7h5.1l.4 3.6h.2c1.5-2.8 3.8-4.1 5.9-4.1a5.4 5.4 0 0 1 2.5.4l-1 5.3a8.5 8.5 0 0 0-2.3-.3c-1.6 0-3.5 1-4.6 3.8v12.1h-6.2zm15.9 0h5.1l.4 2.6h.2a9.2 9.2 0 0 1 6.6-3.1c4.6 0 6.5 3.2 6.5 8.4v12.9h-6.2v-12.1c0-3.1-.8-4-2.5-4s-2.6.7-3.9 2v14.1h-6.2zm21.9-6.3a3.2 3.2 0 0 1 3.5-3.2c2.1 0 3.6 1.3 3.6 3.2s-1.5 3.2-3.6 3.2a3.2 3.2 0 0 1-3.5-3.2zm.5 6.3h6.1v20.8h-6.1zm10.7 0h5.1l.4 2.6h.1a9.6 9.6 0 0 1 6.7-3.1c4.6 0 6.5 3.2 6.5 8.4v12.9h-6.2v-12.1c0-3.1-.8-4-2.5-4s-2.6.7-3.9 2v14.1h-6.2zm21.9 24.4c0-1.8 1-3.1 3-4.2v-.2a4 4 0 0 1-2-3.5 5.2 5.2 0 0 1 2.4-3.9v-.2a6.6 6.6 0 0 1-2.8-5.4c0-5 4.1-7.5 8.6-7.5a8 8 0 0 1 3.2.5h7.6v4.5h-3.3a5.1 5.1 0 0 1 .7 2.7c0 4.8-3.6 7-8.2 7a7.7 7.7 0 0 1-2.5-.4 1.6 1.6 0 0 0-.8 1.5c0 1.1.9 1.6 3.2 1.6h3.3c5.2 0 8 1.5 8 5.3s-4.5 7.5-11.7 7.5c-4.8 0-8.7-1.6-8.7-5.3zm14.5-1.2c0-1.3-1.1-1.6-3.2-1.6h-2.1a10.5 10.5 0 0 1-3-.3 2.9 2.9 0 0 0-1.1 2.1c0 1.6 1.8 2.4 4.6 2.4s4.8-1.1 4.8-2.6zm-2.4-16.2c0-2.2-1.3-3.4-2.9-3.4s-2.9 1.2-2.9 3.4 1.3 3.5 2.9 3.5 2.9-1.2 2.9-3.5zm19.5-13.3c0-1.9 1.5-3.2 3.6-3.2s3.6 1.3 3.6 3.2-1.5 3.2-3.6 3.2-3.6-1.3-3.6-3.2zm.5 6.3h6.2v20.8h-6.2zm9.9 0h5.1l.4 2.6h.2a9.2 9.2 0 0 1 6.6-3.1c4.6 0 6.5 3.2 6.5 8.4v12.9h-6.2v-12.1c0-3.1-.8-4-2.5-4s-2.5.7-3.9 2v14.1h-6.2zm33-6.6h7.7c8.4 0 13.7 4.2 13.7 13.6s-5.3 13.8-13.4 13.8h-8zm7.3 22.4c4.7 0 7.8-2.3 7.8-8.8s-3.1-8.6-7.8-8.6h-1.2v17.4zm16.8-5.4c0-6.8 4.8-10.9 9.8-10.9s8.9 4.3 8.9 10a15.7 15.7 0 0 1-.3 2.7h-12.5a5.1 5.1 0 0 0 5.5 4.4 9.1 9.1 0 0 0 4.5-1.4l2 3.8a14 14 0 0 1-7.4 2.3c-5.9 0-10.5-4-10.5-10.9zm13.4-2.3c0-2.3-1-3.9-3.5-3.9s-3.6 1.3-4 3.9zm6.9 10.3l2.7-3.9a8.6 8.6 0 0 0 5.4 2.2c1.9 0 2.7-.6 2.7-1.7s-2.1-2.1-4.3-2.9-5.5-2.7-5.5-6.1 3.2-6.5 8-6.5a12 12 0 0 1 7.3 2.6l-2.7 3.7a7.8 7.8 0 0 0-4.4-1.8c-1.6 0-2.4.6-2.4 1.7s1.9 1.8 4.1 2.6 5.6 2.5 5.6 6.3-3 6.7-8.6 6.7a13.4 13.4 0 0 1-7.9-2.9zm19.1-24.7a3.2 3.2 0 0 1 3.5-3.2c2.1 0 3.6 1.3 3.6 3.2s-1.5 3.2-3.6 3.2a3.2 3.2 0 0 1-3.5-3.2zm.5 6.3h6.1v20.8h-6.1zm9.4 24.4c0-1.8 1.1-3.1 3-4.2v-.2a3.9 3.9 0 0 1-1.9-3.5 5.1 5.1 0 0 1 2.3-3.9v-.2a6.9 6.9 0 0 1-2.8-5.4c0-5 4.1-7.5 8.6-7.5a8.8 8.8 0 0 1 3.3.5h7.6v4.5h-3.4a5.1 5.1 0 0 1 .7 2.7c0 4.8-3.6 7-8.2 7a8.1 8.1 0 0 1-2.5-.4 1.8 1.8 0 0 0-.8 1.5c0 1.1.9 1.6 3.2 1.6h3.4c5.1 0 7.9 1.5 7.9 5.3s-4.5 7.5-11.6 7.5c-4.9 0-8.8-1.6-8.8-5.3zm14.5-1.2c0-1.3-1.1-1.6-3.2-1.6h-2.1a11 11 0 0 1-3-.3 2.9 2.9 0 0 0-1.1 2.1c0 1.6 1.9 2.4 4.6 2.4s4.8-1.1 4.8-2.6zm-2.4-16.2c0-2.2-1.2-3.4-2.9-3.4s-2.8 1.2-2.8 3.4 1.2 3.5 2.8 3.5 2.9-1.2 2.9-3.5zm11.7-7h5l.4 2.6h.2a9.2 9.2 0 0 1 6.7-3.1c4.5 0 6.4 3.2 6.4 8.4v12.9h-6.1v-12.1c0-3.1-.8-4-2.6-4s-2.5.7-3.9 2v14.1h-6.1zm29 13.5c0-3.8 2.3-6 5-7.7a13.6 13.6 0 0 1-1.7-5.7 7.1 7.1 0 0 1 7.5-7.2c4.1 0 6.7 2.4 6.7 6.2s-2.9 5.9-5.7 7.8a33.1 33.1 0 0 0 5.5 5 16.8 16.8 0 0 0 3.1-6.6h5.7a29.9 29.9 0 0 1-4.6 9.3 15 15 0 0 0 4.7 1.7l-1.4 5a24.4 24.4 0 0 1-7.1-2.8 13.5 13.5 0 0 1-8.6 2.8c-5.9 0-9.1-3.6-9.1-7.8zm13.4 2a34.2 34.2 0 0 1-5.7-5.7 4.6 4.6 0 0 0-1.8 3.3c0 2.1 1.6 3.5 4 3.5a6.8 6.8 0 0 0 3.5-1.1zm-4.1-12.2c2-1.2 3.5-2.3 3.5-4.2s-.6-2.1-1.9-2.1-2.5 1.2-2.5 3a8.2 8.2 0 0 0 .9 3.3zm26.8-9.9h17.1v5.2h-10.9v5.5h9.3v5.2h-9.3v6.3h11.4v5.2h-17.6zm20.8 6.6h5.1l.4 2.6h.2a9.2 9.2 0 0 1 6.6-3.1c4.6 0 6.5 3.2 6.5 8.4v12.9h-6.2v-12.1c0-3.1-.8-4-2.5-4s-2.6.7-3.9 2v14.1h-6.2zm21.9 24.4c0-1.8 1.1-3.1 3-4.2v-.2a3.9 3.9 0 0 1-1.9-3.5 5.1 5.1 0 0 1 2.3-3.9v-.2a6.6 6.6 0 0 1-2.8-5.4c0-5 4.1-7.5 8.6-7.5a8 8 0 0 1 3.2.5h7.6v4.5h-3.3a5.1 5.1 0 0 1 .7 2.7c0 4.8-3.6 7-8.2 7a8.1 8.1 0 0 1-2.5-.4 1.6 1.6 0 0 0-.8 1.5c0 1.1.9 1.6 3.2 1.6h3.3c5.2 0 8 1.5 8 5.3s-4.5 7.5-11.7 7.5c-4.8 0-8.7-1.6-8.7-5.3zm14.5-1.2c0-1.3-1.1-1.6-3.2-1.6h-2.1a10.5 10.5 0 0 1-3-.3 2.9 2.9 0 0 0-1.1 2.1c0 1.6 1.8 2.4 4.6 2.4s4.8-1.1 4.8-2.6zm-2.4-16.2c0-2.2-1.3-3.4-2.9-3.4s-2.8 1.2-2.8 3.4 1.2 3.5 2.8 3.5 2.9-1.2 2.9-3.5zm11.1-13.3c0-1.9 1.5-3.2 3.6-3.2s3.6 1.3 3.6 3.2-1.5 3.2-3.6 3.2-3.6-1.3-3.6-3.2zm.5 6.3h6.2v20.8h-6.2zm10.8 0h5l.4 2.6h.2a9.6 9.6 0 0 1 6.7-3.1c4.5 0 6.5 3.2 6.5 8.4v12.9h-6.2v-12.1c0-3.1-.8-4-2.6-4s-2.5.7-3.8 2v14.1h-6.2zm22 10.4c0-6.8 4.8-10.9 9.8-10.9s8.8 4.3 8.8 10a17.6 17.6 0 0 1-.2 2.7h-12.5a5.1 5.1 0 0 0 5.4 4.4 8.5 8.5 0 0 0 4.5-1.4l2.1 3.8a14.3 14.3 0 0 1-7.4 2.3c-6 0-10.5-4-10.5-10.9zm13.4-2.3c0-2.3-1-3.9-3.5-3.9s-3.6 1.3-4 3.9zm8.3 2.3c0-6.8 4.8-10.9 9.8-10.9s8.9 4.3 8.9 10a17.6 17.6 0 0 1-.2 2.7h-12.5c.5 3 2.6 4.4 5.4 4.4a8.8 8.8 0 0 0 4.5-1.4l2 3.8a14 14 0 0 1-7.3 2.3c-6 0-10.6-4-10.6-10.9zm13.5-2.3c0-2.3-1.1-3.9-3.5-3.9s-3.6 1.3-4.1 3.9zm9.5-8.1h5l.4 3.6h.2c1.5-2.8 3.8-4.1 5.9-4.1a5.4 5.4 0 0 1 2.5.4l-1 5.3a8.5 8.5 0 0 0-2.3-.3c-1.5 0-3.5 1-4.5 3.8v12.1h-6.2zm16.2-6.3c0-1.9 1.5-3.2 3.6-3.2a3.2 3.2 0 1 1 0 6.4c-2.1 0-3.6-1.3-3.6-3.2zm.5 6.3h6.2v20.8h-6.2zm10.7 0h5.1l.4 2.6h.2a9.2 9.2 0 0 1 6.7-3.1c4.5 0 6.4 3.2 6.4 8.4v12.9h-6.1v-12.1c0-3.1-.8-4-2.6-4s-2.5.7-3.9 2v14.1h-6.2zm21.9 24.4c0-1.8 1.1-3.1 3-4.2v-.2a3.9 3.9 0 0 1-1.9-3.5 5.1 5.1 0 0 1 2.3-3.9v-.2a6.9 6.9 0 0 1-2.8-5.4c0-5 4.1-7.5 8.6-7.5a8.8 8.8 0 0 1 3.3.5h7.6v4.5h-3.4a5.1 5.1 0 0 1 .7 2.7c0 4.8-3.6 7-8.2 7a8.1 8.1 0 0 1-2.5-.4 1.7 1.7 0 0 0-.7 1.5c0 1.1.8 1.6 3.1 1.6h3.4c5.1 0 7.9 1.5 7.9 5.3s-4.5 7.5-11.6 7.5c-4.9 0-8.8-1.6-8.8-5.3zm14.5-1.2c0-1.3-1.1-1.6-3.2-1.6h-2.1a11 11 0 0 1-3-.3 2.9 2.9 0 0 0-1.1 2.1c0 1.6 1.9 2.4 4.6 2.4s4.8-1.1 4.8-2.6zm-2.4-16.2c0-2.2-1.2-3.4-2.9-3.4s-2.8 1.2-2.8 3.4 1.2 3.5 2.8 3.5 2.9-1.2 2.9-3.5z"/>
  <path fill="none" stroke="#999" stroke-linecap="round" stroke-miterlimit="10" d="M1632 1386.9h59.8v36.8H1632"/>
  <path fill="#999" d="M1694.6 1421.6a1.2 1.2 0 0 1 1.2-1.3 1.2 1.2 0 0 1 1.2 1.3 1.2 1.2 0 0 1-1.2 1.2 1.2 1.2 0 0 1-1.2-1.2zm4.2-.5l.8-1.1a4.3 4.3 0 0 0 3.2 1.5 2.8 2.8 0 0 0 2.8-3 2.6 2.6 0 0 0-2.7-2.8 3.7 3.7 0 0 0-2.2.8l-.9-.5.5-6.2h6.3v1.4h-4.9l-.3 3.8a3.8 3.8 0 0 1 1.9-.5 3.7 3.7 0 0 1 4 4 4.1 4.1 0 0 1-4.3 4.3 5.5 5.5 0 0 1-4.2-1.7zm14.8-11.3a1.1 1.1 0 0 1 1.1-1.1 1.1 1.1 0 1 1 0 2.2 1.1 1.1 0 0 1-1.1-1.1zm.3 3.1h1.6v9.7h-1.6zm4.9 0h1.4v1.4h.1a4.3 4.3 0 0 1 3.2-1.7c2.1 0 3 1.3 3 3.8v6.2h-1.7v-6c0-1.8-.5-2.6-1.8-2.6s-1.7.6-2.7 1.5v7.1h-1.6z"/>
  <path fill="none" stroke="#999" stroke-linecap="round" stroke-miterlimit="10" d="M1835.6 1108.4h59.9v36.9h-59.9"/><path fill="#999" d="M1898.2 1143.1a1.2 1.2 0 0 1 1.2-1.2 1.2 1.2 0 0 1 1.2 1.2 1.2 1.2 0 0 1-1.2 1.3 1.2 1.2 0 0 1-1.2-1.3zm4.2-.5l.8-1a4.6 4.6 0 0 0 3.2 1.4 2.7 2.7 0 0 0 2.8-2.9 2.5 2.5 0 0 0-2.7-2.8 3.7 3.7 0 0 0-2.2.8l-.8-.6.4-6.1h6.4v1.4h-5l-.3 3.8a4.1 4.1 0 0 1 1.9-.5 3.7 3.7 0 0 1 4 4 4.2 4.2 0 0 1-4.3 4.3 5.7 5.7 0 0 1-4.2-1.8zm14.8-11.2a1 1 0 0 1 1.1-1.1 1.1 1.1 0 0 1 1.2 1.1c0 .6-.5 1-1.2 1a1 1 0 0 1-1.1-1zm.3 3h1.6v9.7h-1.6zm4.9 0h1.4v1.4h.1a4.5 4.5 0 0 1 3.2-1.6c2.1 0 3 1.3 3 3.8v6.1h-1.6v-5.9c0-1.8-.6-2.6-1.9-2.6a3.4 3.4 0 0 0-2.6 1.5v7h-1.7z"/>
  <path fill="#666" d="M1424.3 1387.3h206v36h-206z"/>
  <path fill="#666" d="M1460.7 1127.5v295.4h-36v-295.4z"/>
  <path fill="#666" d="M1424.7 1108.9h410.2v36h-410.2z"/>
  <path fill="#ffffff" d="M320.7 1353.4l27.7-33.3c15.5 13.2 35.3 22.4 53.2 22.4 20.1 0 30-7.9 30-20.7s-12.2-17.9-31-25.8l-28.1-11.9c-22.1-8.9-43.2-27.4-43.2-58.7 0-35.6 31.7-64 76.6-64 24.7 0 50.8 9.9 69.3 28.4l-24.8 30.6c-14.2-10.8-27.4-17.1-44.5-17.1s-27.4 7.2-27.4 19.5 14.2 17.8 32.6 25.4l27.8 11.2c26 10.5 42.5 28 42.5 58.4 0 35.6-29.7 66.7-81.2 66.7-28 0-57.7-10.6-79.5-31.1zm177.6-188.1h48.5v174.3h85.1v40.9H498.3zm149.8 2c0-14.8 11.8-25.1 28-25.1s28.1 10.3 28.1 25.1-11.6 25.4-28.1 25.4-28-10.5-28-25.4zm3.9 49.5h48.5v163.7H652zm75.3-51.5H788c65.7 0 107.9 32.7 107.9 106.6s-42.2 108.6-105.3 108.6h-63.3zm57.7 175.9c36.6 0 61.1-17.8 61.1-69.3s-24.5-67.3-61.1-67.3h-9.2v136.6zm132-175.9h134.7v41h-86.2v43.2h73.3v40.6h-73.3v49.5h89.5v40.9H917zm-591.9 283.5l3.5-4.2a11 11 0 0 0 6.8 2.8c2.5 0 3.8-1 3.8-2.6s-1.6-2.3-4-3.3l-3.5-1.5c-2.8-1.1-5.5-3.5-5.5-7.5s4-8.1 9.7-8.1a12.2 12.2 0 0 1 8.8 3.6l-3.1 3.9a8.9 8.9 0 0 0-5.7-2.2c-2.1 0-3.5.9-3.5 2.5s1.8 2.3 4.2 3.2l3.5 1.5c3.3 1.3 5.4 3.5 5.4 7.4s-3.7 8.5-10.3 8.5a14.8 14.8 0 0 1-10.1-4zm22.5-6.9c0-6.8 4.9-11 9.9-11s8.8 4.4 8.8 10a18 18 0 0 1-.2 2.8h-12.5c.5 3 2.6 4.4 5.4 4.4a8.5 8.5 0 0 0 4.5-1.4l2.1 3.7a13.6 13.6 0 0 1-7.4 2.4c-6 0-10.6-4.1-10.6-10.9zm13.5-2.3c0-2.3-1-4-3.5-4s-3.6 1.3-4 4zm8.7-8.2h5l.4 3.7h.2c1.5-2.8 3.8-4.2 5.9-4.2a5.2 5.2 0 0 1 2.5.5l-1 5.3a8.5 8.5 0 0 0-2.3-.3c-1.5 0-3.5 1-4.6 3.8v12.1h-6.1zm15.6 0h6.2l2.7 9.9c.5 2 1.1 4.2 1.6 6.4h.2c.5-2.2 1.1-4.4 1.6-6.4l2.7-9.9h5.9l-6.8 20.9h-7.1zm22.8-6.3c0-1.9 1.5-3.2 3.6-3.2s3.6 1.3 3.6 3.2a3.6 3.6 0 0 1-7.2 0zm.5 6.3h6.2v20.9h-6.2zm9.6 10.5c0-7 5.1-11 10.8-11a9.3 9.3 0 0 1 6.1 2.3l-2.9 4a4 4 0 0 0-2.8-1.3c-3 0-4.9 2.3-4.9 6s2 5.9 4.7 5.9a6.7 6.7 0 0 0 3.7-1.5l2.5 4a10.7 10.7 0 0 1-6.9 2.5c-5.8 0-10.3-4-10.3-10.9zm17.6 0c0-6.8 4.8-11 9.8-11s8.9 4.4 8.9 10a15.8 15.8 0 0 1-.3 2.8h-12.5a5.1 5.1 0 0 0 5.5 4.4 8.4 8.4 0 0 0 4.4-1.4l2.1 3.7a13.3 13.3 0 0 1-7.4 2.4c-5.9 0-10.5-4.1-10.5-10.9zm13.4-2.3c0-2.3-1-4-3.5-4s-3.6 1.3-4 4zm18.4-14.7h6.2v22.2h10.9v5.2h-17.1zm18.7 17c0-6.8 4.8-11 9.8-11s8.8 4.4 8.8 10a18 18 0 0 1-.2 2.8h-12.5a5.1 5.1 0 0 0 5.4 4.4 8.5 8.5 0 0 0 4.5-1.4l2.1 3.7a13.6 13.6 0 0 1-7.4 2.4c-6 0-10.5-4.1-10.5-10.9zm13.4-2.3c0-2.3-1-4-3.5-4s-3.6 1.3-4 4zm7.3 6.9c0-4.4 3.4-6.8 11.7-7.6-.1-1.9-1-3-3.3-3a11.5 11.5 0 0 0-5.5 1.8l-2.2-4a17 17 0 0 1 8.9-2.8c5.3 0 8.3 3.1 8.3 9.4v12h-5.1l-.4-2.2h-.2a8.8 8.8 0 0 1-6 2.7 6 6 0 0 1-6.2-6.3zm11.7-.3v-3.6c-4.4.6-5.8 1.8-5.8 3.4s.9 2 2.4 2 2.3-.7 3.4-1.8zm9.7-14.8h5l.4 3.7h.2c1.5-2.8 3.8-4.2 5.9-4.2a5.2 5.2 0 0 1 2.5.5l-1 5.3a8.5 8.5 0 0 0-2.3-.3c-1.5 0-3.5 1-4.5 3.8v12.1h-6.2zm15.9 0h5l.4 2.7h.2a9.3 9.3 0 0 1 6.7-3.2c4.5 0 6.4 3.2 6.4 8.4v13H557v-12.2c0-3-.8-3.9-2.6-3.9s-2.5.7-3.9 2v14.1h-6.1zm21.8-6.3c0-1.9 1.5-3.2 3.6-3.2a3.2 3.2 0 0 1 3.5 3.2 3.3 3.3 0 0 1-3.5 3.3 3.3 3.3 0 0 1-3.6-3.3zm.5 6.3h6.2v20.9h-6.2zm10.7 0h5.1l.4 2.7h.2a9.3 9.3 0 0 1 6.7-3.2c4.5 0 6.4 3.2 6.4 8.4v13h-6.1v-12.2c0-3-.8-3.9-2.6-3.9s-2.5.7-3.9 2v14.1h-6.2zm21.9 24.4c0-1.7 1.1-3.1 3-4.2a3.9 3.9 0 0 1-1.9-3.5 5.2 5.2 0 0 1 2.3-4 6.9 6.9 0 0 1-2.8-5.4c0-5 4.1-7.6 8.6-7.6a11.4 11.4 0 0 1 3.3.5h7.6v4.5h-3.3a7.3 7.3 0 0 1 .6 2.8c0 4.8-3.6 7-8.2 7a8.1 8.1 0 0 1-2.5-.4 1.7 1.7 0 0 0-.7 1.5c0 1.1.8 1.6 3.1 1.6h3.4c5.1 0 7.9 1.5 7.9 5.3s-4.5 7.4-11.6 7.4c-4.9-.2-8.8-1.8-8.8-5.5zm14.5-1.1c0-1.3-1.1-1.6-3.2-1.6h-2.1a11 11 0 0 1-3-.3 2.9 2.9 0 0 0-1.1 2.1c0 1.5 1.9 2.4 4.6 2.4s4.8-1.2 4.8-2.6zm-2.4-16.2c0-2.2-1.2-3.4-2.9-3.4s-2.8 1.1-2.8 3.4 1.2 3.4 2.8 3.4 2.9-1.1 2.9-3.4zm19.6-13.4a3.2 3.2 0 0 1 3.5-3.2c2.1 0 3.6 1.3 3.6 3.2a3.6 3.6 0 0 1-7.1 0zm.5 6.3h6.1v20.9h-6.1zm9.9 0h5l.4 2.7h.2c1.8-1.7 3.9-3.2 6.7-3.2 4.5 0 6.4 3.2 6.4 8.4v13H654v-12.2c0-3-.8-3.9-2.6-3.9s-2.5.7-3.9 2v14.1h-6.1zm32.9-6.5h7.7c8.4 0 13.8 4.1 13.8 13.6s-5.4 13.8-13.4 13.8h-8.1zm7.4 22.4c4.6 0 7.7-2.3 7.7-8.8s-3.1-8.6-7.7-8.6h-1.2v17.4zm16.7-5.4c0-6.8 4.8-11 9.8-11s8.9 4.4 8.9 10a9.9 9.9 0 0 1-.3 2.8h-12.4c.5 3 2.6 4.4 5.4 4.4a8.8 8.8 0 0 0 4.5-1.4l2 3.7a13.2 13.2 0 0 1-7.3 2.4c-6 0-10.6-4.1-10.6-10.9zm13.4-2.3c0-2.3-1-4-3.4-4s-3.6 1.3-4.1 4zm6.9 10.3l2.8-3.9a9.2 9.2 0 0 0 5.3 2.2c1.9 0 2.7-.7 2.7-1.8s-2.1-2-4.3-2.8-5.5-2.7-5.5-6.2 3.2-6.5 8-6.5a11.8 11.8 0 0 1 7.4 2.7l-2.8 3.7a7.6 7.6 0 0 0-4.4-1.8c-1.6 0-2.4.6-2.4 1.7s2 1.8 4.1 2.6 5.6 2.4 5.6 6.3-2.9 6.7-8.5 6.7a13.5 13.5 0 0 1-8-2.9zm19.1-24.8c0-1.9 1.5-3.2 3.6-3.2a3.2 3.2 0 0 1 3.5 3.2 3.3 3.3 0 0 1-3.5 3.3 3.3 3.3 0 0 1-3.6-3.3zm.5 6.3h6.2v20.9h-6.2zm9.5 24.4c0-1.7 1-3.1 2.9-4.2a3.9 3.9 0 0 1-1.9-3.5 5.1 5.1 0 0 1 2.4-4 6.7 6.7 0 0 1-2.9-5.4c0-5 4.2-7.6 8.7-7.6a10.7 10.7 0 0 1 3.2.5h7.6v4.5h-3.3a5.8 5.8 0 0 1 .6 2.8c0 4.8-3.6 7-8.1 7a8.7 8.7 0 0 1-2.6-.4 1.7 1.7 0 0 0-.7 1.5c0 1.1.8 1.6 3.1 1.6h3.4c5.1 0 7.9 1.5 7.9 5.3s-4.5 7.4-11.6 7.4c-4.9-.2-8.7-1.8-8.7-5.5zm14.4-1.1c0-1.3-1.1-1.6-3.1-1.6h-2.2a9.7 9.7 0 0 1-2.9-.3 2.7 2.7 0 0 0-1.2 2.1c0 1.5 1.9 2.4 4.7 2.4s4.7-1.2 4.7-2.6zm-2.4-16.2c0-2.2-1.2-3.4-2.8-3.4s-2.9 1.1-2.9 3.4 1.2 3.4 2.9 3.4 2.8-1.1 2.8-3.4zm11.7-7.1h5l.4 2.7h.2c1.8-1.7 3.9-3.2 6.7-3.2 4.5 0 6.5 3.2 6.5 8.4v13h-6.2v-12.2c0-3-.8-3.9-2.6-3.9s-2.5.7-3.8 2v14.1h-6.2zm29 13.6c0-3.9 2.4-6 5-7.8a12.6 12.6 0 0 1-1.6-5.6 7 7 0 0 1 7.4-7.2c4.1 0 6.7 2.4 6.7 6.2s-2.8 5.8-5.7 7.8a37.6 37.6 0 0 0 5.5 5 18.5 18.5 0 0 0 3.2-6.6h5.6a31.1 31.1 0 0 1-4.6 9.3 18.6 18.6 0 0 0 4.8 1.7l-1.5 5a22.8 22.8 0 0 1-7-2.8 14.3 14.3 0 0 1-8.6 2.8c-6 0-9.2-3.6-9.2-7.8zm13.4 2a38.4 38.4 0 0 1-5.7-5.7 4.4 4.4 0 0 0-1.8 3.3c0 2 1.6 3.5 4.1 3.5a6.5 6.5 0 0 0 3.4-1.1zm-4.1-12.2c2-1.2 3.5-2.4 3.5-4.2s-.6-2.1-1.9-2.1-2.4 1.1-2.4 3a8.4 8.4 0 0 0 .8 3.3zm26.8-9.9h17.2v5.2h-11v5.5h9.3v5.2h-9.3v6.3h11.4v5.2h-17.6zm20.9 6.5h5l.4 2.7h.2c1.8-1.7 3.9-3.2 6.7-3.2 4.5 0 6.4 3.2 6.4 8.4v13h-6.1v-12.2c0-3-.8-3.9-2.6-3.9s-2.5.7-3.9 2v14.1h-6.1zm21.8 24.4c0-1.7 1.1-3.1 3-4.2a3.9 3.9 0 0 1-1.9-3.5 5.2 5.2 0 0 1 2.3-4 6.9 6.9 0 0 1-2.8-5.4c0-5 4.1-7.6 8.6-7.6a11.4 11.4 0 0 1 3.3.5h7.6v4.5h-3.3a7.3 7.3 0 0 1 .6 2.8c0 4.8-3.6 7-8.2 7a8.1 8.1 0 0 1-2.5-.4 1.7 1.7 0 0 0-.7 1.5c0 1.1.8 1.6 3.1 1.6h3.4c5.1 0 7.9 1.5 7.9 5.3s-4.5 7.4-11.6 7.4c-4.9-.2-8.8-1.8-8.8-5.5zm14.5-1.1c0-1.3-1.1-1.6-3.2-1.6h-2.1a9.7 9.7 0 0 1-2.9-.3 2.7 2.7 0 0 0-1.2 2.1c0 1.5 1.9 2.4 4.6 2.4s4.8-1.2 4.8-2.6zm-2.4-16.2c0-2.2-1.2-3.4-2.9-3.4s-2.8 1.1-2.8 3.4 1.2 3.4 2.8 3.4 2.9-1.1 2.9-3.4zm11.2-13.4a3.2 3.2 0 0 1 3.5-3.2c2.1 0 3.6 1.3 3.6 3.2a3.6 3.6 0 0 1-7.1 0zm.5 6.3h6.1v20.9h-6.1zm10.7 0h5.1l.4 2.7h.1c1.8-1.7 3.9-3.2 6.7-3.2 4.6 0 6.5 3.2 6.5 8.4v13h-6.2v-12.2c0-3-.8-3.9-2.5-3.9s-2.6.7-3.9 2v14.1h-6.2zm22 10.5c0-6.8 4.8-11 9.8-11s8.9 4.4 8.9 10a9.9 9.9 0 0 1-.3 2.8h-12.4c.5 3 2.6 4.4 5.4 4.4a8.8 8.8 0 0 0 4.5-1.4l2 3.7a13.3 13.3 0 0 1-7.4 2.4c-5.9 0-10.5-4.1-10.5-10.9zm13.4-2.3c0-2.3-1-4-3.5-4s-3.6 1.3-4 4zm8.3 2.3c0-6.8 4.9-11 9.9-11s8.8 4.4 8.8 10a18 18 0 0 1-.2 2.8h-12.5a5.1 5.1 0 0 0 5.4 4.4 8.5 8.5 0 0 0 4.5-1.4l2.1 3.7a13.6 13.6 0 0 1-7.4 2.4c-6 0-10.6-4.1-10.6-10.9zm13.5-2.3c0-2.3-1-4-3.5-4s-3.6 1.3-4 4zm9.5-8.2h5.1l.4 3.7h.1c1.6-2.8 3.8-4.2 6-4.2a4.8 4.8 0 0 1 2.4.5l-1 5.3a7.3 7.3 0 0 0-2.2-.3c-1.6 0-3.5 1-4.6 3.8v12.1h-6.2zm16.2-6.3c0-1.9 1.5-3.2 3.6-3.2s3.6 1.3 3.6 3.2a3.6 3.6 0 0 1-7.2 0zm.5 6.3h6.2v20.9h-6.2zm10.8 0h5l.4 2.7h.2c1.8-1.7 3.9-3.2 6.7-3.2 4.5 0 6.5 3.2 6.5 8.4v13h-6.2v-12.2c0-3-.8-3.9-2.6-3.9s-2.5.7-3.8 2v14.1h-6.2zm21.9 24.4c0-1.7 1-3.1 2.9-4.2a4.1 4.1 0 0 1-1.9-3.5 5.1 5.1 0 0 1 2.4-4 6.6 6.6 0 0 1-2.8-5.4c0-5 4.1-7.6 8.6-7.6a10.7 10.7 0 0 1 3.2.5h7.6v4.5h-3.3a5.8 5.8 0 0 1 .7 2.8c0 4.8-3.7 7-8.2 7a8.7 8.7 0 0 1-2.6-.4 1.7 1.7 0 0 0-.7 1.5c0 1.1.8 1.6 3.1 1.6h3.4c5.1 0 7.9 1.5 7.9 5.3s-4.5 7.4-11.6 7.4c-4.9-.2-8.7-1.8-8.7-5.5zm14.5-1.1c0-1.3-1.2-1.6-3.2-1.6h-2.2a10.2 10.2 0 0 1-2.9-.3 2.7 2.7 0 0 0-1.2 2.1c0 1.5 1.9 2.4 4.7 2.4s4.8-1.2 4.8-2.6zm-2.5-16.2c0-2.2-1.2-3.4-2.8-3.4s-2.9 1.1-2.9 3.4 1.2 3.4 2.9 3.4 2.8-1.1 2.8-3.4z"/><path fill="none" stroke="#999" stroke-linecap="round" stroke-miterlimit="10" d="M492.9 1384.2h59.9v36.9h-59.9"/><path fill="#999" d="M555.6 1419a1.2 1.2 0 0 1 1.2-1.3 1.2 1.2 0 0 1 1.1 1.3 1.1 1.1 0 0 1-1.1 1.2 1.2 1.2 0 0 1-1.2-1.2zm4.1-.5l.8-1.1a4.8 4.8 0 0 0 3.3 1.4 2.8 2.8 0 0 0 2.8-2.9 2.6 2.6 0 0 0-2.8-2.8 3.4 3.4 0 0 0-2.1.8l-.9-.6.4-6.1h6.4v1.4h-5l-.3 3.8a4.2 4.2 0 0 1 2-.5 3.6 3.6 0 0 1 3.9 4 4.2 4.2 0 0 1-4.3 4.3 6.1 6.1 0 0 1-4.2-1.7zm14.8-11.3a1.1 1.1 0 0 1 1.2-1.1 1 1 0 0 1 1.1 1.1 1 1 0 0 1-1.1 1c-.7 0-1.2-.4-1.2-1zm.3 3h1.7v9.8h-1.7zm4.9 0h1.4v1.4h.1a4.6 4.6 0 0 1 3.3-1.6c2 0 2.9 1.3 2.9 3.8v6.2h-1.6v-6c0-1.8-.6-2.6-1.9-2.6s-1.6.5-2.6 1.5v7.1h-1.7z"/>
  <path fill="none" stroke="#999" stroke-linecap="round" stroke-miterlimit="10" d="M698.4 1105.8h59.8v36.9h-59.8"/>
  <path fill="#999" d="M761 1140.5a1.3 1.3 0 0 1 1.2-1.3 1.3 1.3 0 0 1 0 2.6 1.3 1.3 0 0 1-1.2-1.3zm4.2-.5l.8-1.1a4.3 4.3 0 0 0 3.2 1.5 2.7 2.7 0 0 0 2.8-2.9 2.5 2.5 0 0 0-2.7-2.8 3.7 3.7 0 0 0-2.2.8l-.8-.6.4-6.1h6.4v1.4h-5l-.3 3.8a3.3 3.3 0 0 1 1.9-.6 3.7 3.7 0 0 1 4 4 4.2 4.2 0 0 1-4.3 4.4 5.7 5.7 0 0 1-4.2-1.8zm14.8-11.3a1 1 0 0 1 1.1-1c.7 0 1.2.4 1.2 1a1.1 1.1 0 0 1-1.2 1.1 1 1 0 0 1-1.1-1.1zm.3 3.1h1.6v9.7h-1.6zm4.9 0h1.4v1.4h.1a4.5 4.5 0 0 1 3.2-1.6c2.1 0 3 1.3 3 3.8v6.1h-1.6v-5.9c0-1.8-.6-2.6-1.9-2.6a3.4 3.4 0 0 0-2.6 1.5v7h-1.7z"/>
  <path fill="#666" d="M285.2 1384.7h206v36h-206z"/>
  <path fill="#666" d="M321.7 1125v295.4h-36V1125z"/>
  <path fill="#666" d="M285.7 1106.2h410.2v36H285.7z"/>
  <circle cx="2724.6" cy="1090.6" r="9.2" fill="#ffa600"/>
  <circle cx="2673.2" cy="1058.8" r="9.2" fill="#ff8900"/>
  <circle cx="2659.1" cy="1000.2" r="9.2" fill="#ff5000"/>
  <circle cx="2690.6" cy="948.8" r="9.2" fill="#fe2b09"/>
  <circle cx="2748.7" cy="934.5" r="9.2" fill="#e1001e"/>
  <circle cx="2671.1" cy="1101.9" r="13.8" fill="#ffa600"/>
  <circle cx="2629.9" cy="1042.2" r="13.8" fill="#ff8900"/>
  <circle cx="2640.1" cy="957.8" r="13.8" fill="#ff5000"/>
  <circle cx="2706.6" cy="905.6" r="13.8" fill="#fe2b09"/>
  <circle cx="2791.3" cy="915.9" r="13.8" fill="#e1001e"/>
  <circle cx="2596.4" cy="1109.7" r="27.6" fill="#ffa600"/>
  <circle cx="2568.5" cy="982.2" r="27.6" fill="#ff8900"/>
  <circle cx="2639.6" cy="871.9" r="27.6" fill="#ff5000"/>
  <circle cx="2767.3" cy="844.6" r="27.6" fill="#fe2b09"/>
  <circle cx="2877.4" cy="915.3" r="27.6" fill="#e1001e"/>
  <path fill="#ffffff" d="M2768.5 1190.6l27.7-33.4c15.5 13.2 35.3 22.5 53.2 22.5 20.1 0 30-8 30-20.8s-12.2-17.8-31-25.8l-28.1-11.8c-22.1-9-43.2-27.4-43.2-58.8 0-35.6 31.7-64 76.5-64 24.8 0 50.9 9.9 69.3 28.4l-24.7 30.7c-14.2-10.9-27.4-17.2-44.6-17.2s-27.3 7.3-27.3 19.5 14.1 17.8 32.6 25.4l27.7 11.2c26.1 10.6 42.6 28.1 42.6 58.4 0 35.7-29.7 66.7-81.2 66.7-28 0-57.7-10.6-79.5-31zm177.5-188.1h48.6v174.2h85.1v40.9H2946zm149.9 1.9c0-14.8 11.8-25 28-25s28.1 10.2 28.1 25-11.6 25.4-28.1 25.4-28-10.5-28-25.4zm3.9 49.5h48.5v163.7h-48.5zm75.3-51.4h60.7c65.6 0 107.9 32.6 107.9 106.5s-42.3 108.6-105.3 108.6h-63.3zm57.7 175.8c36.6 0 61.1-17.8 61.1-69.3s-24.5-67.3-61.1-67.3h-9.2v136.6zm132-175.8h134.6v40.9h-86.1v43.2h73.3v40.6h-73.3v49.5h89.4v40.9h-137.9zM2772.9 1286l3.5-4.3a11.1 11.1 0 0 0 6.8 2.9c2.5 0 3.8-1 3.8-2.7s-1.6-2.2-4-3.3l-3.5-1.5c-2.9-1.1-5.5-3.5-5.5-7.4s4-8.2 9.7-8.2a12.7 12.7 0 0 1 8.8 3.6l-3.1 3.9a8.9 8.9 0 0 0-5.7-2.2c-2.1 0-3.5 1-3.5 2.5s1.8 2.3 4.2 3.3l3.5 1.4c3.3 1.3 5.4 3.6 5.4 7.4s-3.8 8.5-10.3 8.5a14.7 14.7 0 0 1-10.1-3.9zm22.5-7c0-6.8 4.9-10.9 9.9-10.9s8.8 4.3 8.8 10a17.6 17.6 0 0 1-.2 2.7h-12.5c.5 3 2.6 4.4 5.4 4.4a8.5 8.5 0 0 0 4.5-1.4l2.1 3.7a13.8 13.8 0 0 1-7.4 2.4c-6 0-10.6-4-10.6-10.9zm13.5-2.3c0-2.3-1-3.9-3.5-3.9s-3.6 1.3-4.1 3.9zm8.7-8.1h5l.4 3.6h.2c1.5-2.8 3.8-4.1 5.9-4.1a5.4 5.4 0 0 1 2.5.4l-1 5.3a8.5 8.5 0 0 0-2.3-.3c-1.5 0-3.5 1-4.6 3.8v12.1h-6.1zm15.6 0h6.2l2.7 9.8c.5 2 1.1 4.2 1.6 6.4h.2c.5-2.2 1-4.4 1.6-6.4l2.7-9.8h5.9l-6.8 20.8h-7.1zm22.8-6.3c0-1.9 1.5-3.2 3.6-3.2s3.6 1.3 3.6 3.2-1.5 3.2-3.6 3.2-3.6-1.3-3.6-3.2zm.5 6.3h6.2v20.8h-6.2zm9.6 10.4c0-7 5-10.9 10.8-10.9a9.2 9.2 0 0 1 6.1 2.2l-2.9 4a4 4 0 0 0-2.8-1.2c-3 0-4.9 2.3-4.9 5.9s2 5.9 4.7 5.9a6.7 6.7 0 0 0 3.7-1.5l2.4 4a10.3 10.3 0 0 1-6.8 2.5c-5.8 0-10.3-4-10.3-10.9zm17.6 0c0-6.8 4.8-10.9 9.8-10.9s8.9 4.3 8.9 10a15.7 15.7 0 0 1-.3 2.7h-12.5a5.1 5.1 0 0 0 5.4 4.4 8.5 8.5 0 0 0 4.5-1.4l2.1 3.7a13.3 13.3 0 0 1-7.4 2.4c-6 0-10.5-4-10.5-10.9zm13.4-2.3c0-2.3-1-3.9-3.5-3.9s-3.6 1.3-4 3.9zm18.4-14.7h6.2v22.2h10.9v5.2h-17.1zm18.6 17c0-6.8 4.9-10.9 9.9-10.9s8.8 4.3 8.8 10a17.6 17.6 0 0 1-.2 2.7h-12.5a5.1 5.1 0 0 0 5.4 4.4 8.5 8.5 0 0 0 4.5-1.4l2.1 3.7a13.6 13.6 0 0 1-7.4 2.4c-6 0-10.6-4-10.6-10.9zm13.5-2.3c0-2.3-1-3.9-3.5-3.9s-3.6 1.3-4 3.9zm7.2 6.9c0-4.4 3.5-6.8 11.8-7.6-.2-1.9-1-3-3.3-3a10.7 10.7 0 0 0-5.5 1.9l-2.2-4.1a16.9 16.9 0 0 1 8.9-2.7c5.3 0 8.2 3 8.2 9.4v11.9h-5l-.4-2.1h-.2a9.1 9.1 0 0 1-6 2.6 6 6 0 0 1-6.3-6.3zm11.8-.3v-3.6c-4.4.6-5.8 1.8-5.8 3.4s.9 2 2.4 2 2.3-.7 3.4-1.8zm9.7-14.7h5l.4 3.6h.2c1.5-2.8 3.8-4.1 5.9-4.1a5.4 5.4 0 0 1 2.5.4l-1 5.3a8.5 8.5 0 0 0-2.3-.3c-1.5 0-3.5 1-4.6 3.8v12.1h-6.1zm15.8 0h5.1l.4 2.6h.2a9.2 9.2 0 0 1 6.7-3.1c4.5 0 6.4 3.1 6.4 8.4v12.9h-6.2v-12.1c0-3.1-.8-4-2.5-4s-2.5.7-3.9 2v14.1h-6.2zm21.9-6.3c0-1.9 1.5-3.2 3.6-3.2a3.2 3.2 0 1 1 0 6.4c-2.1 0-3.6-1.3-3.6-3.2zm.5 6.3h6.2v20.8h-6.2zm10.7 0h5.1l.4 2.6h.2a9.2 9.2 0 0 1 6.6-3.1c4.6 0 6.5 3.1 6.5 8.4v12.9h-6.2v-12.1c0-3.1-.8-4-2.5-4s-2.5.7-3.9 2v14.1h-6.2zm21.9 24.4c0-1.8 1.1-3.1 3-4.2v-.2a3.9 3.9 0 0 1-1.9-3.5 5.1 5.1 0 0 1 2.3-3.9v-.2a6.9 6.9 0 0 1-2.8-5.4c0-5 4.1-7.5 8.6-7.5a8.8 8.8 0 0 1 3.3.5h7.6v4.5h-3.4a5.1 5.1 0 0 1 .7 2.7c0 4.8-3.6 7-8.2 7a8.1 8.1 0 0 1-2.5-.4 1.8 1.8 0 0 0-.8 1.5c0 1.1.9 1.6 3.2 1.6h3.4c5.1 0 7.9 1.5 7.9 5.3s-4.5 7.5-11.6 7.5c-4.9 0-8.8-1.6-8.8-5.3zm14.5-1.2c0-1.3-1.1-1.6-3.2-1.6h-2.1a10.5 10.5 0 0 1-3-.3 2.9 2.9 0 0 0-1.1 2.1c0 1.6 1.9 2.4 4.6 2.4s4.8-1.1 4.8-2.6zm-2.4-16.2c0-2.2-1.2-3.4-2.9-3.4s-2.8 1.1-2.8 3.4 1.2 3.5 2.8 3.5 2.9-1.2 2.9-3.5zm19.5-13.3a3.3 3.3 0 0 1 3.6-3.2c2.1 0 3.6 1.3 3.6 3.2s-1.5 3.2-3.6 3.2a3.3 3.3 0 0 1-3.6-3.2zm.6 6.3h6.1v20.8h-6.1zm9.9 0h5l.4 2.6h.2a9.6 9.6 0 0 1 6.7-3.1c4.5 0 6.4 3.1 6.4 8.4v12.9h-6.1v-12.1c0-3.1-.8-4-2.6-4s-2.5.7-3.9 2v14.1h-6.1zm32.9-6.6h7.7c8.4 0 13.8 4.2 13.8 13.6s-5.4 13.8-13.4 13.8h-8.1zm7.3 22.4c4.7 0 7.8-2.3 7.8-8.8s-3.1-8.6-7.8-8.6h-1.1v17.4zm16.8-5.4c0-6.8 4.8-10.9 9.8-10.9s8.9 4.3 8.9 10a9.6 9.6 0 0 1-.3 2.7h-12.4c.5 3 2.6 4.4 5.4 4.4a8.8 8.8 0 0 0 4.5-1.4l2 3.7a13.3 13.3 0 0 1-7.4 2.4c-5.9 0-10.5-4-10.5-10.9zm13.4-2.3c0-2.3-1-3.9-3.4-3.9s-3.7 1.3-4.1 3.9zm6.9 10.3l2.8-3.9a8.3 8.3 0 0 0 5.3 2.2c1.9 0 2.7-.7 2.7-1.7s-2.1-2.1-4.3-2.9-5.5-2.7-5.5-6.1 3.2-6.5 8-6.5a12.4 12.4 0 0 1 7.4 2.6l-2.8 3.7a7.6 7.6 0 0 0-4.4-1.8c-1.6 0-2.4.6-2.4 1.7s2 1.8 4.1 2.6 5.6 2.5 5.6 6.3-2.9 6.7-8.5 6.7a13.5 13.5 0 0 1-8-2.9zm19.1-24.7c0-1.9 1.5-3.2 3.6-3.2a3.2 3.2 0 1 1 0 6.4c-2.1 0-3.6-1.3-3.6-3.2zm.5 6.3h6.2v20.8h-6.2zm9.4 24.4c0-1.8 1.1-3.1 3-4.2v-.2a3.9 3.9 0 0 1-1.9-3.5 5.1 5.1 0 0 1 2.3-3.9v-.2a6.9 6.9 0 0 1-2.8-5.4c0-5 4.2-7.5 8.6-7.5a8.5 8.5 0 0 1 3.3.5h7.6v4.5h-3.3a6.3 6.3 0 0 1 .6 2.7c0 4.8-3.6 7-8.2 7a8.1 8.1 0 0 1-2.5-.4 1.7 1.7 0 0 0-.7 1.5c0 1.1.8 1.6 3.1 1.6h3.4c5.1 0 7.9 1.5 7.9 5.3s-4.5 7.5-11.6 7.5c-4.9 0-8.8-1.6-8.8-5.3zm14.5-1.2c0-1.3-1.1-1.6-3.2-1.6h-2.1a9.7 9.7 0 0 1-2.9-.3 2.7 2.7 0 0 0-1.2 2.1c0 1.6 1.9 2.4 4.6 2.4s4.8-1.1 4.8-2.6zm-2.4-16.2c0-2.2-1.2-3.4-2.9-3.4s-2.8 1.1-2.8 3.4 1.2 3.5 2.8 3.5 2.9-1.2 2.9-3.5zm11.7-7h5l.4 2.6h.2a9.6 9.6 0 0 1 6.7-3.1c4.5 0 6.5 3.1 6.5 8.4v12.9h-6.2v-12.1c0-3.1-.8-4-2.6-4s-2.5.7-3.8 2v14.1h-6.2zm29 13.5c0-3.8 2.3-6 5-7.7a13.4 13.4 0 0 1-1.6-5.7 7 7 0 0 1 7.4-7.2c4.1 0 6.7 2.4 6.7 6.2s-2.8 5.9-5.7 7.8a37.6 37.6 0 0 0 5.5 5 18.5 18.5 0 0 0 3.2-6.6h5.6a29.9 29.9 0 0 1-4.6 9.3 15.5 15.5 0 0 0 4.8 1.7l-1.5 5a22.8 22.8 0 0 1-7-2.8 13.7 13.7 0 0 1-8.6 2.8c-6 0-9.2-3.6-9.2-7.8zm13.4 2a38.4 38.4 0 0 1-5.7-5.7 4.4 4.4 0 0 0-1.8 3.3c0 2.1 1.6 3.5 4.1 3.5a6.5 6.5 0 0 0 3.4-1.1zm-4.1-12.2c2-1.2 3.5-2.3 3.5-4.2s-.6-2.1-1.9-2.1-2.5 1.2-2.5 3a8.2 8.2 0 0 0 .9 3.3zm26.8-9.9h17.2v5.2h-11v5.5h9.3v5.2h-9.3v6.3h11.4v5.2h-17.6zm20.8 6.6h5.1l.4 2.6h.2a9.2 9.2 0 0 1 6.7-3.1c4.5 0 6.4 3.1 6.4 8.4v12.9h-6.2v-12.1c0-3.1-.7-4-2.5-4s-2.5.7-3.9 2v14.1h-6.2zm21.9 24.4c0-1.8 1.1-3.1 3-4.2v-.2a3.9 3.9 0 0 1-1.9-3.5 5.1 5.1 0 0 1 2.3-3.9v-.2a6.9 6.9 0 0 1-2.8-5.4c0-5 4.1-7.5 8.6-7.5a8.8 8.8 0 0 1 3.3.5h7.6v4.5h-3.4a5.1 5.1 0 0 1 .7 2.7c0 4.8-3.6 7-8.2 7a8.1 8.1 0 0 1-2.5-.4 1.7 1.7 0 0 0-.7 1.5c0 1.1.8 1.6 3.1 1.6h3.4c5.1 0 7.9 1.5 7.9 5.3s-4.5 7.5-11.6 7.5c-4.9 0-8.8-1.6-8.8-5.3zm14.5-1.2c0-1.3-1.1-1.6-3.2-1.6h-2.1a11 11 0 0 1-3-.3 2.9 2.9 0 0 0-1.1 2.1c0 1.6 1.9 2.4 4.6 2.4s4.8-1.1 4.8-2.6zm-2.4-16.2c0-2.2-1.2-3.4-2.9-3.4s-2.8 1.1-2.8 3.4 1.2 3.5 2.8 3.5 2.9-1.2 2.9-3.5zm11.2-13.3a3.2 3.2 0 0 1 3.5-3.2c2.1 0 3.6 1.3 3.6 3.2s-1.5 3.2-3.6 3.2a3.2 3.2 0 0 1-3.5-3.2zm.5 6.3h6.1v20.8h-6.1zm10.7 0h5.1l.4 2.6h.1a9.6 9.6 0 0 1 6.7-3.1c4.6 0 6.5 3.1 6.5 8.4v12.9h-6.2v-12.1c0-3.1-.8-4-2.5-4s-2.6.7-3.9 2v14.1h-6.2zm22 10.4c0-6.8 4.8-10.9 9.8-10.9s8.9 4.3 8.9 10a15.7 15.7 0 0 1-.3 2.7h-12.5a5.1 5.1 0 0 0 5.5 4.4 9.1 9.1 0 0 0 4.5-1.4l2 3.7a13.3 13.3 0 0 1-7.4 2.4c-5.9 0-10.5-4-10.5-10.9zm13.4-2.3c0-2.3-1-3.9-3.5-3.9s-3.6 1.3-4 3.9zm8.3 2.3c0-6.8 4.9-10.9 9.9-10.9s8.8 4.3 8.8 10a17.6 17.6 0 0 1-.2 2.7h-12.5c.5 3 2.6 4.4 5.4 4.4a8.5 8.5 0 0 0 4.5-1.4l2.1 3.7a13.6 13.6 0 0 1-7.4 2.4c-6 0-10.6-4-10.6-10.9zm13.5-2.3c0-2.3-1-3.9-3.5-3.9s-3.6 1.3-4 3.9zm9.5-8.1h5l.5 3.6h.1c1.5-2.8 3.8-4.1 6-4.1a5.2 5.2 0 0 1 2.4.4l-1 5.3a7.8 7.8 0 0 0-2.2-.3c-1.6 0-3.5 1-4.6 3.8v12.1h-6.2zm16.2-6.3c0-1.9 1.5-3.2 3.6-3.2s3.6 1.3 3.6 3.2-1.5 3.2-3.6 3.2-3.6-1.3-3.6-3.2zm.5 6.3h6.2v20.8h-6.2zm10.8 0h5l.4 2.6h.2a9.6 9.6 0 0 1 6.7-3.1c4.5 0 6.4 3.1 6.4 8.4v12.9h-6.1v-12.1c0-3.1-.8-4-2.6-4s-2.5.7-3.9 2v14.1h-6.1zm21.9 24.4c0-1.8 1-3.1 2.9-4.2v-.2a3.9 3.9 0 0 1-1.9-3.5 4.9 4.9 0 0 1 2.4-3.9v-.2a6.7 6.7 0 0 1-2.9-5.4c0-5 4.2-7.5 8.7-7.5a8.3 8.3 0 0 1 3.2.5h7.6v4.5h-3.3a6.3 6.3 0 0 1 .6 2.7c0 4.8-3.6 7-8.1 7a8.7 8.7 0 0 1-2.6-.4 1.7 1.7 0 0 0-.7 1.5c0 1.1.8 1.6 3.1 1.6h3.4c5.1 0 7.9 1.5 7.9 5.3s-4.5 7.5-11.6 7.5c-4.9 0-8.7-1.6-8.7-5.3zm14.4-1.2c0-1.3-1.1-1.6-3.1-1.6h-2.2a9.7 9.7 0 0 1-2.9-.3 2.7 2.7 0 0 0-1.2 2.1c0 1.6 1.9 2.4 4.7 2.4s4.7-1.1 4.7-2.6zm-2.4-16.2c0-2.2-1.2-3.4-2.8-3.4s-2.9 1.1-2.9 3.4 1.2 3.5 2.9 3.5 2.8-1.2 2.8-3.5z"/>
  <path fill="#666" d="M3099.8 1053.9h49.1v164.33h-49.1z"/>
  <path fill="#666" d="M3454.3 652.9h48.5v163.68h-48.5zm211.7 596.3v48.5h-163.68v-48.5zm-1125.7 48.1h48.5v163.68h-48.5zm-163.1-431.7v-48.5h163.68v48.5z"/><path fill="none" stroke="#ccc" stroke-miterlimit="10" d="M2540.3 816.9h962v480.99h-962z"/>
  <path fill="none" stroke="#ccc" stroke-miterlimit="10" d="M2377.2 653.8h1289.3v807.21H2377.2z"/></svg>
