<svg id="Layer_1" data-name="Layer 1" xmlns="http://www.w3.org/2000/svg" width="1070" height="422" viewBox="0 0 1070 422"><title>slide-type</title><path d="M75.1,65l1.3-1.6a6.3,6.3,0,0,0,4.2,1.7c2,0,2.9-1,2.9-2.3s-1.7-2.1-3.3-2.7-4.4-1.8-4.4-4.2,1.9-4.2,5.1-4.2a7.3,7.3,0,0,1,4.5,1.7L84.2,55a5.1,5.1,0,0,0-3.3-1.3c-1.8,0-2.7,1-2.7,2.1s1.6,1.9,3.3,2.5,4.4,1.6,4.4,4.4S84,67,80.6,67A8.6,8.6,0,0,1,75.1,65Z" fill="#fff"/><path d="M88.2,59.4c0-4.9,3.2-7.7,6.8-7.7s6.7,2.8,6.7,7.7S98.6,67,95,67,88.2,64.3,88.2,59.4Zm11,0c0-3.3-1.7-5.6-4.2-5.6s-4.2,2.3-4.2,5.6S92.5,65,95,65,99.2,62.8,99.2,59.4Z" fill="#fff"/><path d="M105.4,61.3V52.1h2.4V61c0,2.7.9,3.9,2.8,3.9s2.5-.7,3.9-2.4V52.1H117V66.7h-2.1l-.2-2.3h-.1a6,6,0,0,1-4.8,2.6C106.7,67,105.4,65.1,105.4,61.3Z" fill="#fff"/><path d="M121.9,52.1h2l.2,2.6h.1c1-1.8,2.5-3,4.2-3a3.7,3.7,0,0,1,1.5.3l-.5,2.2L128,54c-1.2,0-2.7.9-3.7,3.3v9.4h-2.4Z" fill="#fff"/><path d="M130.9,59.4c0-4.9,3.3-7.7,7-7.7a5.7,5.7,0,0,1,4.3,1.8l-1.3,1.6a3.9,3.9,0,0,0-2.9-1.3c-2.6,0-4.5,2.3-4.5,5.6S135.3,65,138,65a5.3,5.3,0,0,0,3.4-1.5l1.1,1.7a7.1,7.1,0,0,1-4.7,1.8C133.9,67,130.9,64.3,130.9,59.4Z" fill="#fff"/><path d="M144,59.4c0-4.7,3.2-7.7,6.5-7.7s5.8,2.7,5.8,6.9a6.1,6.1,0,0,1-.1,1.4h-9.8c.2,3.1,2.1,5.1,4.9,5.1a6.7,6.7,0,0,0,3.6-1.2l.9,1.6A8.3,8.3,0,0,1,151,67C147.1,67,144,64.2,144,59.4Zm10.2-1.2c0-2.9-1.4-4.5-3.6-4.5s-3.9,1.6-4.2,4.5Z" fill="#fff"/><path d="M164.3,65l1.2-1.6a6.8,6.8,0,0,0,4.3,1.7c1.9,0,2.9-1,2.9-2.3s-1.7-2.1-3.3-2.7-4.4-1.8-4.4-4.2,1.9-4.2,5-4.2a7.3,7.3,0,0,1,4.6,1.7L173.4,55a5.1,5.1,0,0,0-3.3-1.3c-1.9,0-2.7,1-2.7,2.1s1.6,1.9,3.2,2.5,4.5,1.6,4.5,4.4-1.9,4.3-5.4,4.3A8.5,8.5,0,0,1,164.3,65Z" fill="#fff"/><path d="M177.6,62.9c0-3.2,2.7-4.8,8.9-5.5,0-1.8-.6-3.6-3-3.6a8.5,8.5,0,0,0-4.3,1.5l-1-1.7a11.7,11.7,0,0,1,5.8-1.9c3.5,0,5,2.4,5,6v9h-2l-.2-1.8h-.1a7.5,7.5,0,0,1-4.8,2.1C179.4,67,177.6,65.5,177.6,62.9Zm8.9.2v-4c-4.8.6-6.5,1.8-6.5,3.6s1.1,2.4,2.6,2.4S185.1,64.4,186.5,63.1Z" fill="#fff"/><path d="M193.6,52.1h2.1l.2,2.1h.1a6.5,6.5,0,0,1,4.8-2.5c3.1,0,4.5,2,4.5,5.7v9.3h-2.5V57.8c0-2.8-.8-3.9-2.7-3.9s-2.6.8-4,2.2V66.7h-2.5Z" fill="#fff"/><path d="M208.4,65l1.2-1.6a6.8,6.8,0,0,0,4.3,1.7c1.9,0,2.9-1,2.9-2.3s-1.7-2.1-3.3-2.7-4.4-1.8-4.4-4.2,1.9-4.2,5-4.2a7.3,7.3,0,0,1,4.6,1.7L217.5,55a5.1,5.1,0,0,0-3.3-1.3c-1.9,0-2.7,1-2.7,2.1s1.6,1.9,3.2,2.5,4.5,1.6,4.5,4.4-1.9,4.3-5.4,4.3A8.5,8.5,0,0,1,208.4,65Z" fill="#fff"/><path d="M228.6,52.1h2l.2,1.7h.1a8,8,0,0,1,4.7-2.1c3.7,0,5.7,3,5.7,7.5S238.4,67,235,67a6.8,6.8,0,0,1-4-1.6v7.4h-2.5Zm10.2,7.1c0-3.2-1.1-5.4-3.8-5.4s-2.5.7-3.9,2v7.6a5.4,5.4,0,0,0,3.5,1.6C237,65,238.8,62.8,238.8,59.2Z" fill="#fff"/><path d="M245.2,52.1h2.1l.2,2.6h.1c1-1.8,2.5-3,4.1-3a3.8,3.8,0,0,1,1.6.3l-.5,2.2-1.4-.2c-1.2,0-2.7.9-3.7,3.3v9.4h-2.5Z" fill="#fff"/><path d="M254.3,59.4c0-4.9,3.2-7.7,6.7-7.7s6.8,2.8,6.8,7.7S264.6,67,261,67,254.3,64.3,254.3,59.4Zm10.9,0c0-3.3-1.7-5.6-4.2-5.6s-4.2,2.3-4.2,5.6S258.5,65,261,65,265.2,62.8,265.2,59.4Z" fill="#fff"/><path d="M43.3,47.5h25V76.8L67.1,91.9c6.3-5.6,14.7-11.6,26-11.6,18.4,0,26.2,12.9,26.2,34v52.4h-25V117.6c0-12.3-3.2-16-10.3-16s-10.2,2.9-15.7,8.1v57h-25Z" fill="#fff"/><path d="M135.5,124.5c0-27.3,19.5-44.2,39.7-44.2,24,0,35.9,17.5,35.9,40.5a55.6,55.6,0,0,1-1,11H159.6c2.2,12.3,10.7,17.9,21.9,17.9,6.3,0,12.1-1.9,18.2-5.6l8.4,15.1a54.9,54.9,0,0,1-30,9.5C154,168.7,135.5,152.4,135.5,124.5Zm54.4-9.2c0-9.3-4.1-15.9-14.1-15.9-7.9,0-14.7,5.2-16.4,15.9Z" fill="#fff"/><path d="M222.7,143.2c0-17.7,14.1-27.3,47.4-30.7-.5-7.5-4.1-12.3-13.2-12.3-7.2,0-14.2,2.9-22.3,7.7l-9-16.5c10.7-6.5,22.8-11.1,36-11.1,21.6,0,33.5,12.3,33.5,38.1v48.3H274.7L273,158h-.7c-7.1,6.3-14.9,10.7-24.5,10.7C232.4,168.7,222.7,157.5,222.7,143.2Zm47.4-1V127.4c-17.7,2.4-23.4,7.5-23.4,14s3.7,7.9,9.6,7.9S265.7,146.6,270.1,142.2Z" fill="#fff"/><path d="M311.8,124.5c0-27.5,17.1-44.2,35-44.2,9.3,0,14.9,3.4,20.7,8.9l-1-13V47.5h25V166.7H371.1l-1.7-8.3h-.7c-5.9,5.9-14.3,10.3-22.4,10.3C325.4,168.7,311.8,152.1,311.8,124.5Zm54.7,16.2V106.2a19.8,19.8,0,0,0-13.9-5.5c-8,0-15.2,7.5-15.2,23.5s5.6,24.1,15.3,24.1C358.2,148.3,362.4,146.3,366.5,140.7Z" fill="#fff"/><path d="M411.5,56.9c0-7.7,6.2-13,14.5-13s14.4,5.3,14.4,13S434.5,70,426,70,411.5,64.5,411.5,56.9Zm2.1,25.5h25v84.3h-25Z" fill="#fff"/><path d="M460.5,82.4h20.4l1.7,10.7h.7c7.1-6.8,15.6-12.8,27-12.8,18.4,0,26.2,12.9,26.2,34v52.4h-25V117.6c0-12.3-3.2-16-10.4-16s-10.2,2.9-15.6,8.1v57h-25Z" fill="#fff"/><path d="M552.5,181.1c0-6.9,4.2-12.5,12-17v-.6a16.3,16.3,0,0,1-7.8-14.3c0-6.1,4.1-12.1,9.5-15.8v-.7a27.1,27.1,0,0,1-11.3-21.9c0-20.3,16.6-30.5,34.8-30.5a37.9,37.9,0,0,1,13.1,2.1h30.8v18.2H620.1a21.5,21.5,0,0,1,2.8,11c0,19.4-14.7,28.4-33.2,28.4a32.9,32.9,0,0,1-10.2-1.7c-2.2,1.9-3.1,3.4-3.1,6.3s3.4,6.3,12.8,6.3h13.6c20.7,0,32.1,6.3,32.1,21.4,0,17.5-18.2,30.3-47.1,30.3C568.1,202.6,552.5,196.1,552.5,181.1Zm58.6-4.6c0-5.2-4.6-6.6-12.9-6.6h-8.7c-5.7,0-9.1-.3-11.9-1-3,2.7-4.6,5.3-4.6,8.3,0,6.3,7.5,9.7,18.7,9.7S611.1,182.3,611.1,176.5Zm-9.8-65.7c0-8.9-5-13.6-11.6-13.6s-11.6,4.5-11.6,13.6,5,14.1,11.6,14.1S601.3,120.1,601.3,110.8Z" fill="#fff"/><path d="M677.6,124.5c0-28,19.7-44.2,41.1-44.2s41,16.2,41,44.2-19.7,44.2-41,44.2S677.6,152.6,677.6,124.5Zm56.6,0c0-14.6-5.3-23.9-15.5-23.9s-15.4,9.3-15.4,23.9,5.1,24,15.4,24S734.2,139.1,734.2,124.5Z" fill="#fff"/><path d="M776.9,82.4h20.4L799,93.1h.7c7.1-6.8,15.6-12.8,27-12.8,18.3,0,26.2,12.9,26.2,34v52.4h-25V117.6c0-12.3-3.3-16-10.4-16s-10.2,2.9-15.6,8.1v57h-25Z" fill="#fff"/><path d="M869.2,124.5c0-27.3,19.5-44.2,39.8-44.2,23.9,0,35.8,17.5,35.8,40.5a55.6,55.6,0,0,1-1,11H893.3c2.2,12.3,10.7,17.9,22,17.9,6.2,0,12-1.9,18.1-5.6l8.4,15.1a54.8,54.8,0,0,1-29.9,9.5C887.7,168.7,869.2,152.4,869.2,124.5Zm54.4-9.2c0-9.3-4.1-15.9-14.1-15.9-7.8,0-14.6,5.2-16.3,15.9Z" fill="#fff"/><path d="M40.5,195.5h8.2v19.4l-.3,10c4.6-4.4,9.5-8,16.2-8,10.2,0,14.8,6.6,14.8,19v30.8H71.2V237c0-9.1-2.8-13-9.2-13s-8.4,2.6-13.3,7.5v35.2H40.5Z" fill="#fff"/><path d="M91.3,242.5c0-15.9,10.7-25.6,21.8-25.6s19.4,8.9,19.4,22.8a31.8,31.8,0,0,1-.3,4.7H99.4c.6,10.3,6.9,16.9,16.2,16.9a22,22,0,0,0,12.1-3.8l2.9,5.4a28.9,28.9,0,0,1-16,5C101.6,267.9,91.3,258.4,91.3,242.5Zm34-4c0-9.8-4.4-15.1-12-15.1s-13,5.5-14,15.1Z" fill="#fff"/><path d="M140.1,254.1c0-10.6,9.1-15.9,29.8-18.2,0-6.2-2-12.2-10-12.2-5.6,0-10.7,2.6-14.5,5.2l-3.2-5.7c4.5-2.9,11.3-6.3,19.1-6.3,11.9,0,16.9,7.9,16.9,20v29.8h-6.8l-.7-5.8h-.3c-4.6,3.8-10,7-16.1,7C146.2,267.9,140.1,262.8,140.1,254.1Zm29.8.7V241.3c-16.2,2-21.8,6-21.8,12.2s3.8,7.8,8.6,7.8S165.2,259,169.9,254.8Z" fill="#fff"/><path d="M190,242.5c0-15.8,10-25.6,21.1-25.6,5.6,0,9.3,2.1,13.6,5.6l-.4-8.3V195.5h8.3v71.2h-6.8l-.7-5.7h-.3c-3.8,3.7-9,6.9-14.7,6.9C197.9,267.9,190,258.7,190,242.5Zm34.3,11.8V228.9c-4.1-3.7-7.8-5.1-11.8-5.1-7.8,0-14,7.5-14,18.6s4.9,18.6,13.4,18.6C216.4,261,220.3,258.8,224.3,254.3Z" fill="#fff"/><path d="M247.5,202.8c0-3.2,2.5-5.3,5.7-5.3s5.7,2.1,5.7,5.3-2.5,5.3-5.7,5.3S247.5,205.9,247.5,202.8Zm1.5,15.3h8.2v48.6H249Z" fill="#fff"/><path d="M273.6,218.1h6.8l.7,7h.3c4.6-4.6,9.6-8.2,16.3-8.2,10.2,0,14.8,6.6,14.8,19v30.8h-8.2V237c0-9.1-2.8-13-9.2-13s-8.4,2.6-13.3,7.5v35.2h-8.2Z" fill="#fff"/><path d="M324.6,276c0-4.1,2.7-8,7.1-11v-.4a9,9,0,0,1-4.3-7.9c0-4.1,2.8-7.3,5.3-9v-.4a17.2,17.2,0,0,1-6.3-13.1c0-10.6,8.4-17.3,18.3-17.3a19.4,19.4,0,0,1,6.9,1.2h16.9v6.3h-10a14.1,14.1,0,0,1,4,10c0,10.4-7.9,16.9-17.8,16.9a17,17,0,0,1-7.3-1.7c-1.7,1.5-3.1,3.1-3.1,5.8s2,5.3,8.6,5.3h9.4c11.3,0,17,3.5,17,11.6s-9.5,16.8-24.6,16.8C332.8,289.1,324.6,284.4,324.6,276Zm36.7-2.5c0-4.5-3.5-6-9.8-6h-8.4a23.7,23.7,0,0,1-6.3-.8c-3.5,2.5-5,5.4-5,8.2,0,5.2,5.3,8.5,14.1,8.5S361.3,278.6,361.3,273.5ZM355,234.2c0-7.1-4.6-11.3-10.3-11.3s-10.3,4.2-10.3,11.3,4.7,11.6,10.3,11.6S355,241.3,355,234.2Z" fill="#fff"/><path d="M400.1,251.7V224.8h-7.2v-6.2l7.6-.5,1-13.6h6.9v13.6h13.1v6.7H408.4v27c0,6,1.9,9.4,7.5,9.4a17.7,17.7,0,0,0,5.5-1.3l1.6,6.2a30,30,0,0,1-9,1.8C403.6,267.9,400.1,261.3,400.1,251.7Z" fill="#fff"/><path d="M426.7,218.1h8.4l7.2,28.1c1.1,4.6,2,9,2.9,13.5h.4c1.1-4.5,2.1-9,3.3-13.5l7.5-28.1h8l7.6,28.1c1.2,4.6,2.3,9,3.4,13.5h.4c1.1-4.5,2-8.9,3-13.5l7.1-28.1h7.8l-13,48.6h-10l-7-26.1c-1.2-4.6-2.1-9.1-3.3-14H460c-1.1,4.9-2.1,9.5-3.4,14.1l-6.8,26h-9.6Z" fill="#fff"/><path d="M500.3,242.5c0-16.3,10.6-25.6,22.5-25.6s22.5,9.3,22.5,25.6-10.6,25.4-22.5,25.4S500.3,258.6,500.3,242.5Zm36.5,0c0-11.2-5.6-18.8-14-18.8s-14,7.6-14,18.8,5.7,18.6,14,18.6S536.8,253.6,536.8,242.5Z" fill="#fff"/><path d="M35.5,301.6h7.4v8.6l-.4,4.5a11.3,11.3,0,0,1,7.7-3.4c5.4,0,7.7,3.8,7.7,10v15.4H50.5V322.2c0-3.6-.9-4.7-3-4.7s-3,.9-4.6,2.4v16.8H35.5Z" fill="#fff"/><path d="M62.6,324.3c0-8.1,5.8-13,11.7-13s10.6,5.1,10.6,11.9a20.4,20.4,0,0,1-.3,3.2H69.7a6.1,6.1,0,0,0,6.5,5.3,10,10,0,0,0,5.3-1.7l2.5,4.5a16.9,16.9,0,0,1-8.8,2.8C68.1,337.3,62.6,332.5,62.6,324.3Zm16-2.7c0-2.8-1.2-4.7-4.1-4.7s-4.3,1.5-4.8,4.7Z" fill="#fff"/><path d="M88.3,329.8c0-5.2,4.1-8.1,13.9-9.1-.1-2.2-1.2-3.6-3.9-3.6s-4.1.9-6.5,2.3l-2.7-4.9a20.6,20.6,0,0,1,10.6-3.2c6.4,0,9.9,3.6,9.9,11.2v14.2h-6l-.5-2.6h-.2a10.6,10.6,0,0,1-7.2,3.2C91.1,337.3,88.3,334,88.3,329.8Zm13.9-.3v-4.4c-5.2.7-6.9,2.2-6.9,4.1s1.1,2.4,2.9,2.4S100.9,330.8,102.2,329.5Z" fill="#fff"/><path d="M114.5,324.3c0-8.1,5-13,10.3-13a8.2,8.2,0,0,1,6.1,2.6l-.3-3.8v-8.5h7.3v35.1h-6l-.5-2.5h-.2a9.6,9.6,0,0,1-6.6,3.1C118.5,337.3,114.5,332.4,114.5,324.3Zm16.1,4.7V318.9a6,6,0,0,0-4.1-1.6c-2.4,0-4.5,2.2-4.5,6.9s1.7,7.1,4.5,7.1A4.7,4.7,0,0,0,130.6,329Z" fill="#fff"/><path d="M143.8,304.4c0-2.3,1.8-3.8,4.3-3.8s4.2,1.5,4.2,3.8-1.7,3.8-4.2,3.8S143.8,306.6,143.8,304.4Zm.6,7.5h7.4v24.8h-7.4Z" fill="#fff"/><path d="M158.2,311.9h6l.5,3.1h.2c2.1-2,4.6-3.7,8-3.7,5.4,0,7.7,3.8,7.7,10v15.4h-7.4V322.2c0-3.6-.9-4.7-3-4.7s-3,.9-4.6,2.4v16.8h-7.4Z" fill="#fff"/><path d="M185.3,340.9c0-2,1.2-3.7,3.5-5v-.2a4.6,4.6,0,0,1-2.3-4.2,5.9,5.9,0,0,1,2.8-4.6v-.2a8.1,8.1,0,0,1-3.3-6.5c0-5.9,4.9-8.9,10.2-8.9a11.8,11.8,0,0,1,3.9.6h9v5.3h-3.9a7.6,7.6,0,0,1,.8,3.3c0,5.7-4.3,8.3-9.8,8.3a8.6,8.6,0,0,1-3-.5,2.3,2.3,0,0,0-.9,1.9c0,1.2,1,1.8,3.8,1.8h4c6.1,0,9.4,1.9,9.4,6.3s-5.3,8.9-13.8,8.9C189.9,347.2,185.3,345.3,185.3,340.9Zm17.2-1.3c0-1.6-1.3-2-3.8-2h-2.5a14.4,14.4,0,0,1-3.5-.3,3.4,3.4,0,0,0-1.4,2.5c0,1.8,2.2,2.8,5.5,2.8S202.5,341.3,202.5,339.6Zm-2.9-19.4c0-2.6-1.4-4-3.4-4s-3.4,1.4-3.4,4,1.5,4.2,3.4,4.2S199.6,323,199.6,320.2Z" fill="#fff"/><path d="M224.5,327.7V317.6h-3.4v-5.4l3.8-.3.9-6.6h6.1v6.6h5.9v5.7h-5.9v10c0,2.8,1.2,3.9,3.2,3.9a5.6,5.6,0,0,0,2.3-.5l1.2,5.4a17.9,17.9,0,0,1-5.5.9C226.9,337.3,224.5,333.4,224.5,327.7Z" fill="#fff"/><path d="M242.7,301.6H250v8.6l-.3,4.5a11,11,0,0,1,7.6-3.4c5.4,0,7.7,3.8,7.7,10v15.4h-7.3V322.2c0-3.6-1-4.7-3.1-4.7s-3,.9-4.6,2.4v16.8h-7.3Z" fill="#fff"/><path d="M271.2,311.9h6l.5,4.3h.2c1.8-3.3,4.5-4.9,7.1-4.9a6.9,6.9,0,0,1,2.9.5l-1.2,6.3a11,11,0,0,0-2.7-.4c-1.8,0-4.1,1.2-5.4,4.6v14.4h-7.4Z" fill="#fff"/><path d="M289.2,324.3c0-8.1,5.7-13,11.7-13s10.5,5.1,10.5,11.9a12.7,12.7,0,0,1-.3,3.2H296.3c.6,3.6,3.1,5.3,6.4,5.3a10.1,10.1,0,0,0,5.4-1.7l2.4,4.5a16.4,16.4,0,0,1-8.8,2.8C294.6,337.3,289.2,332.5,289.2,324.3Zm16-2.7c0-2.8-1.2-4.7-4.2-4.7s-4.3,1.5-4.8,4.7Z" fill="#fff"/><path d="M315.1,324.3c0-8.1,5.7-13,11.7-13s10.5,5.1,10.5,11.9a12.7,12.7,0,0,1-.3,3.2H322.2c.6,3.6,3.1,5.3,6.4,5.3A10.1,10.1,0,0,0,334,330l2.4,4.5a16.4,16.4,0,0,1-8.8,2.8C320.5,337.3,315.1,332.5,315.1,324.3Zm16-2.7c0-2.8-1.2-4.7-4.2-4.7s-4.3,1.5-4.8,4.7Z" fill="#fff"/><path d="M38.6,384.7h-.1l-.3,2H35.6V358.2h3.2v11.3a9.2,9.2,0,0,1,6-2.7c5.1,0,7.8,3.8,7.8,9.8s-4,10.6-8.4,10.6A9.1,9.1,0,0,1,38.6,384.7Zm10.6-8c0-4.3-1.5-7.2-5.2-7.2-1.6,0-3.3.9-5.2,2.7v10.2a8.2,8.2,0,0,0,4.8,2C46.8,384.4,49.2,381.5,49.2,376.7Z" fill="#fff"/><path d="M56.2,377c0-6.5,4.3-10.2,9-10.2s9,3.7,9,10.2-4.2,10.2-9,10.2S56.2,383.4,56.2,377Zm14.6,0c0-4.5-2.2-7.5-5.6-7.5s-5.6,3-5.6,7.5,2.3,7.4,5.6,7.4S70.8,381.4,70.8,377Z" fill="#fff"/><path d="M78,377c0-6.3,4-10.2,8.4-10.2a7.9,7.9,0,0,1,5.4,2.2V358.2H95v28.5H92.3l-.3-2.3h-.1a8.7,8.7,0,0,1-5.9,2.8C81.1,387.2,78,383.5,78,377Zm13.7,4.7V371.6a6.8,6.8,0,0,0-4.7-2.1c-3.2,0-5.6,3-5.6,7.5s1.9,7.4,5.3,7.4C88.5,384.4,90.1,383.5,91.7,381.7Z" fill="#fff"/><path d="M99.6,394.6l.6-2.6a3.7,3.7,0,0,0,1.5.3c2.2,0,3.6-1.7,4.4-4.1l.5-1.5-7.8-19.5h3.4l3.9,10.8,1.9,5.5h.2l1.6-5.5,3.5-10.8h3.2l-7.3,21.1c-1.4,3.8-3.4,6.7-7.3,6.7A5.3,5.3,0,0,1,99.6,394.6Z" fill="#fff"/></svg>