<svg xmlns="http://www.w3.org/2000/svg" width="1968" height="11.6in" viewBox="0 0 1475.2 833.3"><path fill="#eaeaea" d="M199.4 220.4H699v172.84H199.4z"/><path fill="#edece8" d="M543.6 164.9a8.7 8.7 0 0 1-8.6 8.7 8.8 8.8 0 0 1-3.3-.6 17.4 17.4 0 0 1-33.4 4.9 9.5 9.5 0 0 1-7.9 4.4 9.3 9.3 0 0 1-9.3-9.3v-.8a10.5 10.5 0 0 1-5.3 1.4 11 11 0 0 1 0-22h.9a21.8 21.8 0 1 1 42.6-8.1l2-.2a11 11 0 0 1 11 11 9 9 0 0 1-.2 2.4 8.8 8.8 0 0 1 2.9-.4 8.6 8.6 0 0 1 8.6 8.6zm-179.5 11.3a7.5 7.5 0 0 1-7.5 7.4 6.6 6.6 0 0 1-2.8-.5 15.1 15.1 0 0 1-28.9 4.3 7.9 7.9 0 0 1-6.8 3.8 8 8 0 0 1-8-8.1v-.6a10.6 10.6 0 0 1-4.7 1.2 9.6 9.6 0 0 1 0-19.1h.8a20.1 20.1 0 0 1-.7-5 18.9 18.9 0 0 1 37.6-2h1.7a9.5 9.5 0 0 1 9.6 9.5 7.6 7.6 0 0 1-.3 2.1 6.9 6.9 0 0 1 2.5-.4 7.5 7.5 0 0 1 7.5 7.4z"/><path fill="#dad8d1" d="M574.2 271.2h-86.3l-1.1-52h86.4l1 52zm-225.6-52h44.2v51.99h-44.2zm90 0h44.1v51.99h-44.1zM414.9 96.3h3.4v24.98h-3.4zm5.2-.1h28.5v15.96h-28.5zM267 219.2h76.8v51.99H267zm167.9-51.5v103.6h-38.12V167.7zm-39-3.1l15.3-41.3h10.9l15.4 41.3h-41.6z"/><path fill="#c4bfb6" d="M198.9 170h64.2v135.04h-64.2zm434.7-1.1h64.2v173.74h-64.2zm-70 20.3h64.2v153.75h-64.2zm-69 37.1h64.2v116.99h-64.2z"/><circle cx="316.8" cy="270.4" r="60.8" fill="#a39c94"/><path fill="#b5afa6" d="M347.6 288.2L321.4 318v75.1h-8.1v-90.9l-29.1-25.6a3.6 3.6 0 0 1-.3-5.1 3.6 3.6 0 0 1 2.7-1.2 3.7 3.7 0 0 1 2.4.8l24.3 21.5V267a4 4 0 0 1 4.1-4 4.1 4.1 0 0 1 4 4v40.1l20.8-23.6a3.4 3.4 0 0 1 5-.3 3.5 3.5 0 0 1 .4 5z"/><circle cx="262.8" cy="283.1" r="54.2" fill="#a39c94"/><path fill="#b5afa6" d="M290.2 299l-23.3 26.5v67h-7.2v-81.1l-26-22.8a3.3 3.3 0 0 1-.3-4.5 3.2 3.2 0 0 1 2.4-1.1 3 3 0 0 1 2.2.8l21.7 19.1v-22.8a3.6 3.6 0 0 1 3.6-3.6 3.6 3.6 0 0 1 2.6 1.1 3.6 3.6 0 0 1 1 2.5v35.7l18.5-21a3.2 3.2 0 0 1 4.8 4.2z"/><circle cx="293.2" cy="321.7" r="35.1" fill="#a39c94"/><path fill="#b5afa6" d="M311 332l-15.1 17.2v43.3h-4.7v-52.4l-16.8-14.8a2.2 2.2 0 0 1-.1-3 2.1 2.1 0 0 1 1.5-.7 2 2 0 0 1 1.4.6l14 12.3v-14.7a2.4 2.4 0 0 1 2.4-2.4 2.4 2.4 0 0 1 1.6.7 2.2 2.2 0 0 1 .7 1.7v23.1l12-13.6a2.1 2.1 0 1 1 3.1 2.7z"/><circle cx="663" cy="321.7" r="35.1" fill="#a39c94"/><path fill="#b5afa6" d="M680.8 332l-15.1 17.2v43.3h-4.6v-52.4l-16.8-14.8a2.1 2.1 0 0 1-.2-3 2.3 2.3 0 0 1 1.5-.7 2 2 0 0 1 1.4.6l14.1 12.3v-14.7a2.3 2.3 0 0 1 2.3-2.4 2.8 2.8 0 0 1 1.7.7 2.5 2.5 0 0 1 .6 1.7v23.1l12-13.6a2.1 2.1 0 1 1 3.1 2.7z"/><circle cx="573.2" cy="283.1" r="54.2" fill="#a39c94"/><path fill="#b5afa6" d="M600.6 299l-23.3 26.5v67h-7.2v-81.1l-26-22.8a3.3 3.3 0 0 1-.3-4.5 3 3 0 0 1 2.4-1.1 3.2 3.2 0 0 1 2.2.8l21.7 19.1v-22.8a3.6 3.6 0 0 1 3.6-3.6 3.6 3.6 0 0 1 2.6 1.1 3.6 3.6 0 0 1 1 2.5v35.7l18.5-21a3.2 3.2 0 0 1 4.8 4.2z"/><path fill="#7e7570" d="M447.6 173.4a36.8 36.8 0 0 1-.6 6.6 21.7 21.7 0 0 0-3.6-.2h-4.2a22.7 22.7 0 0 0 .9-6.5c0-16.6-11.9-33.8-31.8-33.8-29.6 0-32.7 24.3-32.7 34.7a22.7 22.7 0 0 0 10.9 19.8 3.7 3.7 0 0 1 1.7 5 3.8 3.8 0 0 1-5.1 1.7 30.3 30.3 0 0 1-15.1-26.4c0-5.1.8-15 5.7-24s14.4-18.2 34.6-18.2a37.6 37.6 0 0 1 29 13.2 43.6 43.6 0 0 1 10.3 28.1zm-56.3 46.7a3.8 3.8 0 0 1-3.8 3.7c-4.6 0-44.6 2.5-45.8 87.4h33.8c-.4 1.2-.7 2.5-1.1 3.8s-.6 2.4-.8 3.7h-35.7a3.7 3.7 0 0 1-3.7-3.7c0-95.9 47.9-98.7 53.3-98.7a3.8 3.8 0 0 1 3.8 3.8z"/><path fill="#ff8c0b" d="M395.1 207.5a4.2 4.2 0 0 0 4.2-4.2 4.1 4.1 0 0 0-4.2-4.1 4.1 4.1 0 0 0-4.1 4.1 4.1 4.1 0 0 0 4.1 4.2zm-8.4 31.6a21.3 21.3 0 0 0 0 42.6 22 22 0 0 0 3.6-.4 63.7 63.7 0 0 1 6.8-6.9l1.3-1a47 47 0 0 1 8-5.2 20.5 20.5 0 0 0 1.6-7.8 21.3 21.3 0 0 0-21.3-21.3zm0 35a13.8 13.8 0 1 1 13.7-13.7 13.7 13.7 0 0 1-13.7 13.7z"/><path fill="#7e7570" d="M568.8 315.4a3.7 3.7 0 0 1-3.7 3.3c-22 .3-37.6.4-51 .4h-1.6c-.3-1.2-.7-2.5-1-3.8s-.8-2.5-1.3-3.7c13.6 0 29.2-.1 51.4-.4 2.7-32.6-8.7-57.9-19.5-70s-26-18.4-44.8-18.4a3.7 3.7 0 0 1-3.8-3.7v-13.7a3.8 3.8 0 0 1 3.8-3.8c12.9 0 31-10.7 31-28.2s-11.9-33.8-31.9-33.8c-29.5 0-32.7 24.3-32.7 34.7a22.7 22.7 0 0 0 11 19.8 3.6 3.6 0 0 1 1.8 4.6 44.9 44.9 0 0 0-4-5.7 41.3 41.3 0 0 0-10.6-8.6 39.6 39.6 0 0 0-4.7-2.1 33 33 0 0 1-1-8c0-5.1.8-15 5.7-24s14.4-18.2 34.5-18.2a37.7 37.7 0 0 1 29.1 13.2 43.6 43.6 0 0 1 10.3 28.1c0 9.9-4.6 19.2-12.9 26.1a42.1 42.1 0 0 1-21.8 9.4v6.5c19.2.8 34.9 7.8 46.6 20.8 19.5 21.8 23.6 56.3 21.1 79.2z"/><path fill="#ff4900" d="M483.3 207.5a4.2 4.2 0 0 0 4.2-4.2 4.1 4.1 0 0 0-4.2-4.1 4.1 4.1 0 0 0-4.1 4.1v.7a12.2 12.2 0 0 1 .7 1.7 4.2 4.2 0 0 0 3.4 1.8zm12.8 52.9a21.2 21.2 0 0 1-8.4 16.9l-3.1-2.4-3.5-2.3a13.8 13.8 0 0 0-6.2-26 13.1 13.1 0 0 0-6.3 1.6l1.2-1a46.2 46.2 0 0 0 4.5-4.3 32.7 32.7 0 0 0 2.8-3.7 21.3 21.3 0 0 1 19 21.2z"/><path fill="#beb9b0" d="M464.5 241.8l-.3.3h-.1z"/><path fill="#ff4900" d="M461.1 260.4a13.8 13.8 0 0 0 .8 4.5l-4.1-.8-3.9-.5a17.3 17.3 0 0 1-.3-3.2 20.1 20.1 0 0 1 .6-5l4.4-1.6 3.1-1.4a7 7 0 0 1 .9 1.7 14.6 14.6 0 0 0-1.5 6.3z"/><path fill="#beb9b0" d="M464.2 242.1l-3.1 2.1a33 33 0 0 1 3-2.2zm1.4 8.1l-.4.4h-.1z"/><path fill="#beb9b0" d="M465.2 250.6a15.2 15.2 0 0 0-2.6 3.5 7 7 0 0 0-.9-1.7l3.4-1.9z"/><path fill="#7e7570" d="M512.5 319.1c-.3-1.2-.7-2.5-1-3.8s-.8-2.5-1.3-3.7c-3.4-10.2-8.4-19.8-15.6-27.7a53.8 53.8 0 0 0-6.9-6.6l-3.1-2.4-3.5-2.3c-1.3-.8-2.6-1.6-4-2.3l-4.5-2a36.1 36.1 0 0 0-4.6-1.7 42.4 42.4 0 0 0-6.1-1.7l-4.1-.8-3.9-.5a58.7 58.7 0 0 0-5.9-.5v-6.5a45.2 45.2 0 0 0 6.2-1.2l4.4-1.6 3.1-1.4 3.4-1.9.5-.3a15.1 15.1 0 0 1 2.6-1.8.5.5 0 0 1 .4-.2l1.2-1a46.2 46.2 0 0 0 4.5-4.3 32.7 32.7 0 0 0 2.8-3.7 31.8 31.8 0 0 0 5.7-18.1 42.9 42.9 0 0 0-2.9-15.4 5.1 5.1 0 0 1-.7-1.7 52.8 52.8 0 0 0-2.7-5.3 44.9 44.9 0 0 0-4-5.7 41.3 41.3 0 0 0-10.6-8.6 39.6 39.6 0 0 0-4.7-2.1A35.2 35.2 0 0 0 447 180a21.7 21.7 0 0 0-3.6-.2h-4.2c-17.3 1.3-26.1 10.4-30.3 18.1a43.9 43.9 0 0 0-2.1 4.4 41.4 41.4 0 0 0-1.5 4.1 56.5 56.5 0 0 0-2.1 15.5 29.9 29.9 0 0 0 15 26.4 3.7 3.7 0 0 0 5.1-1.6 3.9 3.9 0 0 0-1.6-5.1 22.3 22.3 0 0 1-11-18.8v-.8c0-.9 0-1.9.1-2.9a42.1 42.1 0 0 1 3-14.1 24.9 24.9 0 0 1 2.2-4.3c3.6-5.9 9.5-10.9 19.3-12.7a35 35 0 0 1 4.8-.6h4.3c17.4.6 28.5 14.3 30.5 29a24.3 24.3 0 0 1 .3 3.8v1a24.4 24.4 0 0 1-.1 2.7c-.9 7.5-5.1 13.6-10.6 18l-.3.3-3.1 2.1a27.9 27.9 0 0 1-3.4 1.8 33 33 0 0 1-13.5 3.3 3.6 3.6 0 0 0-2.6 1.1l-.3.3-.8 1.7v14.4a3.7 3.7 0 0 0 3.7 3.7 72.9 72.9 0 0 1 12.6 1.1 47.8 47.8 0 0 1 5.7 1.2 52.9 52.9 0 0 1 8.2 2.9l4.3 2 .2.2c1.4.8 2.8 1.6 4.1 2.5l.8.6a47.6 47.6 0 0 1 8.9 7.9c4.7 5.2 9.5 12.9 13.2 22.7.5 1.2.9 2.4 1.3 3.7a27.8 27.8 0 0 1 1.2 3.8 110.7 110.7 0 0 1 3.9 39.8c-39 .5-57.4.4-80.5.2l-51.3-.2c.3-16.1 1.9-29.3 4.4-40l.9-3.8c.4-1.3.8-2.5 1.1-3.7 11.8-38.4 35.9-39.9 39.5-39.9a3.8 3.8 0 0 0 0-7.5 38.2 38.2 0 0 0-16.3 4.2 47 47 0 0 0-8 5.2l-1.3 1a63.7 63.7 0 0 0-6.8 6.9c-5.7 6.9-11 16.6-14.8 30-.4 1.2-.7 2.5-1.1 3.8s-.6 2.4-.8 3.7c-2.7 11.9-4.3 26.3-4.3 43.8a3.8 3.8 0 0 0 3.8 3.8l55 .2 33 .2c13.3 0 29-.1 51-.4a3.8 3.8 0 0 0 3.6-3.4 125.5 125.5 0 0 0-3.2-44zm-45.8-74.2l-.4.3zm-3.5 2.4z"/><path fill="#beb9b0" d="M441.3 250.7l-.8 1.7a3.8 3.8 0 0 1 .8-1.7zm38.6-45a5.1 5.1 0 0 1-.7-1.7 12.2 12.2 0 0 1 .7 1.7zm-11.3 42.5a.5.5 0 0 0-.4.2.5.5 0 0 1 .4-.2zm-.4.2l-2.6 1.8a15.1 15.1 0 0 1 2.6-1.8zm-1.5-3.5l-.4.3z"/><path fill="#ffad0f" d="M434.4 251a4.2 4.2 0 0 1-3 4l-1.1.2a4.2 4.2 0 0 1-4.2-4.2 4.1 4.1 0 0 1 4.2-4.1 4.1 4.1 0 0 1 3.6 2.1 4.6 4.6 0 0 1 .5 2zm-3.2 38a19.2 19.2 0 0 0-3.6-1.4 22 22 0 0 0-3.7-.7h-2.1a21.3 21.3 0 0 0-21.3 21.3c0 1.1.2 2.3.3 3.4a26.6 26.6 0 0 0 1 3.8 25.3 25.3 0 0 0 1.8 3.7 21.2 21.2 0 0 0 18.2 10.3 21.4 21.4 0 0 0 18.2-10.3c.1-.1.1-.2.2-.4a17.7 17.7 0 0 0 1.6-3.4c0-.1.1-.2.1-.3a20 20 0 0 0 .9-3.5v-.3a16.3 16.3 0 0 0 .3-3.1 21.4 21.4 0 0 0-11.9-19.1zm4 22.2c0 .1-.1.2-.1.4a14.3 14.3 0 0 1-1.4 3.4l-.2.3a14.1 14.1 0 0 1-3 3.4l-.5.4a13.8 13.8 0 0 1-16.4 0 14.2 14.2 0 0 1-3.5-3.8 14.5 14.5 0 0 1-1.6-3.8 12.7 12.7 0 0 1-.4-3.4 13.7 13.7 0 0 1 13.7-13.8h1.4a11.8 11.8 0 0 1 3.7.9 13.1 13.1 0 0 1 3.6 2.1 13.8 13.8 0 0 1 5.1 10.7 16.5 16.5 0 0 1-.4 3.2z"/><path fill="#edece8" d="M587.7 510.5v107.9h144.9V510.5zm68.5 99.9h-60.4v-42h60.4zm0-50h-60.4v-41.9h60.4zm68.4 50h-60.4v-42h60.4zm0-50h-60.4v-41.9h60.4zm75.4-48.9v108h144.9v-108zm68.5 99.9H808v-41.9h60.5zm0-49.9H808v-41.9h60.5zm68.4 49.9h-60.4v-41.9h60.4zm0-49.9h-60.4v-41.9h60.4z"/><path fill="#eaeaea" d="M486.5 684h502.1v97.37H486.5z"/><path fill="#c4bfb6" d="M985.7 669.7v111.6h-21.6v-92.8H504.4v92.8h-19.8V669.7h501.1z"/><path fill="#edece8" d="M546.3 635.9h29.9v33.58h-29.9z"/><rect width="149" height="94.35" x="494.5" y="557.8" fill="#c4bfb6" rx="20.8"/><path fill="#edece8" d="M713.6 635.9h29.9v33.58h-29.9z"/><rect width="149" height="94.35" x="661.7" y="557.8" fill="#c4bfb6" rx="20.8"/><path fill="#edece8" d="M881.9 635.9h29.9v33.58h-29.9z"/><rect width="149" height="94.35" x="830.1" y="557.8" fill="#c4bfb6" rx="20.8"/><rect width="62.8" height="62.83" x="525.3" y="551" fill="#a39c94" rx="23.7"/><path fill="#a39c94" d="M547.6 619.3h18.9a29.1 29.1 0 0 1 29.1 29.1v48h-77.1v-48a29.1 29.1 0 0 1 29.1-29.1z"/><rect width="62.8" height="62.83" x="700.7" y="551" fill="#a39c94" rx="23.7"/><path fill="#a39c94" d="M723 619.3h18.9a29.1 29.1 0 0 1 29.1 29.1v48h-77.1v-48a29.1 29.1 0 0 1 29.1-29.1z"/><rect width="62.8" height="62.83" x="876.1" y="551" fill="#a39c94" rx="23.7"/><path fill="#a39c94" d="M898.4 619.3h18.9a29.1 29.1 0 0 1 29.1 29.1v48h-77.1v-48a29.1 29.1 0 0 1 29.1-29.1zM576.5 738.9h8.3v41.63h-8.3zm-52.1 0h8.3v41.63h-8.3z"/><rect width="98.4" height="91.52" x="507" y="651.4" fill="#b5afa6" rx="34.6"/><path fill="#a39c94" d="M754.2 738.9h8.3v41.63h-8.3zm-52.1 0h8.3v41.63h-8.3z"/><rect width="98.4" height="91.52" x="684.7" y="651.4" fill="#b5afa6" rx="34.6"/><path fill="#a39c94" d="M927.5 738.9h8.3v41.63h-8.3zm-52.2 0h8.3v41.63h-8.3z"/><rect width="98.4" height="91.52" x="857.9" y="651.4" fill="#b5afa6" rx="34.6"/><path fill="#7e7570" d="M760 546.9a18.8 18.8 0 0 1-6.7 2.1l16.5 41.6a19.9 19.9 0 0 1 10.8 17.7 18.4 18.4 0 0 1-1.2 6.6l28.2 70.9a19.2 19.2 0 0 1 6.2-3.2zm-12 76.6a22.1 22.1 0 0 1-4.6-5.5L729 635.5l-17.5-11.8 10.2-22.3 19.4 3.7a19.9 19.9 0 0 1 2.4-6.7l-18.8-3.5 21.2-46.4a18 18 0 0 1-6.4-3l-21.9 48-52.5-9.9a18.1 18.1 0 0 1-1.4 6.9l50.9 9.6-9 19.7-42.3-28.4a19.7 19.7 0 0 1-4.1 5.8l43.4 29.1-11.9 26a3.6 3.6 0 0 0 1.8 4.7 3.4 3.4 0 0 0 4.6-1.8l11.4-25 16 10.7-46.6 56.3 8-17.6a3.5 3.5 0 0 0-1.8-4.6 3.5 3.5 0 0 0-4.6 1.7l-10.4 23a19.9 19.9 0 0 1 10 7.1l51.2-62 71.6 48a20.6 20.6 0 0 1 4.1-5.7l-71.2-47.7z"/><path fill="#ff4900" d="M750.9 509.4a19.9 19.9 0 0 0-11.4 36.1 18 18 0 0 0 6.4 3 20.8 20.8 0 0 0 5 .7l2.4-.2a18.8 18.8 0 0 0 6.7-2.1 19.8 19.8 0 0 0-9.1-37.5zm-.3 32.7h-1.8a12.1 12.1 0 0 1-6.3-3.1 12.6 12.6 0 0 1-4.4-9.6 12.9 12.9 0 0 1 25.7 0 13 13 0 0 1-6.4 11.1 12.9 12.9 0 0 1-6.5 1.7z"/><path fill="none" d="M763.8 529.3a13 13 0 0 1-6.4 11.1 12.9 12.9 0 0 1-6.5 1.7h-2.1a12.1 12.1 0 0 1-6.3-3.1 12.6 12.6 0 0 1-4.4-9.6 12.9 12.9 0 0 1 25.7 0z"/><path fill="#ff8c0b" d="M819.7 681.6a19.7 19.7 0 0 0-5.9 1 19.2 19.2 0 0 0-6.2 3.2l-1.6 1.3a20.6 20.6 0 0 0-4.1 5.7 19.5 19.5 0 0 0-2 8.7 19.9 19.9 0 1 0 19.8-19.9zm0 32.7a12.8 12.8 0 0 1-12.8-12.8 11.9 11.9 0 0 1 .9-4.7 13 13 0 0 1 8.6-7.7 12.4 12.4 0 0 1 3.3-.4 12.8 12.8 0 1 1 0 25.6z"/><path fill="none" d="M832.6 701.5a12.9 12.9 0 0 1-25.7 0 11.9 11.9 0 0 1 .9-4.7 13 13 0 0 1 8.6-7.7 12.4 12.4 0 0 1 3.3-.4 12.8 12.8 0 0 1 12.9 12.8z"/><path fill="#ff4900" d="M679.1 706.8a19.9 19.9 0 0 0-10-7.1 19.2 19.2 0 0 0-5.9-.9 19.9 19.9 0 1 0 19.9 19.9 19.6 19.6 0 0 0-4-11.9zm-15.9 24.7a12.9 12.9 0 0 1 0-25.7 9.2 9.2 0 0 1 2.9.4 12.6 12.6 0 0 1 8.3 6.2 13.4 13.4 0 0 1 1.6 6.3 12.8 12.8 0 0 1-12.8 12.8z"/><path fill="none" d="M676 718.7a12.8 12.8 0 1 1-12.8-12.9 9.2 9.2 0 0 1 2.9.4 12.6 12.6 0 0 1 8.3 6.2 13.4 13.4 0 0 1 1.6 6.3z"/><path fill="#ff8c0b" d="M645.3 563.2a19.8 19.8 0 1 0 18 28.2l.4-.9a18.1 18.1 0 0 0 1.4-6.9 1.3 1.3 0 0 0 .1-.6 19.9 19.9 0 0 0-19.9-19.8zm12.8 19.8a12.7 12.7 0 0 1-4.9 10.1 12.1 12.1 0 0 1-7.9 2.8 12.9 12.9 0 1 1 12.8-13.6z"/><path fill="none" d="M658.1 583a12.7 12.7 0 0 1-4.9 10.1 12.1 12.1 0 0 1-7.9 2.8 12.9 12.9 0 1 1 12.8-13.6z"/><path fill="#ffad0f" d="M769.8 590.6a19.9 19.9 0 0 0-28.7 14.5c-.1 1.1-.2 2.1-.2 3.2a20 20 0 0 0 2.5 9.7 22.1 22.1 0 0 0 4.6 5.5 19.8 19.8 0 0 0 31.4-8.6 18.4 18.4 0 0 0 1.2-6.6 19.9 19.9 0 0 0-10.8-17.7zm-9.1 30.5a13.1 13.1 0 0 1-8.2-3 12.4 12.4 0 0 1-4-6.2 10.9 10.9 0 0 1-.6-3.6 11.1 11.1 0 0 1 .2-1.9 11.9 11.9 0 0 1 3-6.5 12.4 12.4 0 0 1 9.6-4.5 12.9 12.9 0 1 1 0 25.7z"/><path fill="none" d="M773.6 608.3a12.9 12.9 0 0 1-12.9 12.8 13.1 13.1 0 0 1-8.2-3 12.4 12.4 0 0 1-4-6.2 10.9 10.9 0 0 1-.6-3.6 11.1 11.1 0 0 1 .2-1.9 11.9 11.9 0 0 1 3-6.5 12.4 12.4 0 0 1 9.6-4.5 12.9 12.9 0 0 1 12.9 12.9z"/><circle cx="688.1" cy="666.1" r="4.2" fill="#ffad0f"/><path fill="#eaeaea" d="M794.2 295.5h499.5v97.37H794.2z"/><path fill="#edece8" d="M1101.3 129.5h98.6v122.9h-98.6z"/><path fill="#c4bfb6" d="M1108.6 138h16.8v16.76h-16.8zm22.2 0h16.8v16.76h-16.8zm21.8 0h16.8v16.76h-16.8zm-44 23.6h16.8v16.76h-16.8zm22.2 0h16.8v16.76h-16.8zm21.8 0h16.8v16.76h-16.8zm-44 22h16.8v16.76h-16.8zm22.2 0h16.8v16.76h-16.8zm21.8 0h16.8v16.76h-16.8zm-44 22h16.8v16.76h-16.8zm22.2 0h16.8v16.76h-16.8zm21.8 0h16.8v16.76h-16.8zm21-22h16.8v16.76h-16.8zm0 22h16.8v16.76h-16.8zm0-67.3h16.8v16.76h-16.8zm0 23.6h16.8v16.76h-16.8zm-65 64.8h16.8v16.76h-16.8zm22.2 0h16.8v16.76h-16.8zm21.8 0h16.8v16.76h-16.8zm21 0h16.8v16.76h-16.8z"/><circle cx="1117.6" cy="152.2" r="1.2" fill="#eaeaea"/><circle cx="1114.6" cy="152.2" r="1.2" fill="#eaeaea"/><circle cx="1111.6" cy="152.2" r="1.2" fill="#eaeaea"/><circle cx="1123.2" cy="140.4" r="1.2" fill="#eaeaea"/><circle cx="1166.9" cy="176.1" r="1.2" fill="#eaeaea"/><circle cx="1163.9" cy="176.1" r="1.2" fill="#eaeaea"/><circle cx="1161" cy="176.1" r="1.2" fill="#eaeaea"/><circle cx="1155.1" cy="176.5" r="1.2" fill="#eaeaea"/><circle cx="1139.6" cy="152.5" r="1.2" fill="#eaeaea"/><circle cx="1187.5" cy="219.8" r="1.2" fill="#eaeaea"/><circle cx="1139.8" cy="149.2" r="1.2" fill="#eaeaea"/><circle cx="1139.2" cy="197.7" r="1.2" fill="#eaeaea"/><circle cx="1187.8" cy="152.1" r="1.2" fill="#eaeaea"/><circle cx="1155.6" cy="219.6" r="1.2" fill="#eaeaea"/><circle cx="1145.4" cy="229.1" r="1.2" fill="#eaeaea"/><circle cx="1167.6" cy="219.9" r="1.2" fill="#eaeaea"/><circle cx="1133.5" cy="176.3" r="1.2" fill="#eaeaea"/><path fill="#edece8" d="M849.6 128.8h209.5v122.9H849.6z"/><path fill="#eaeaea" d="M965.5 185.9a14.3 14.3 0 0 0-10.8-10.9 2 2 0 0 1-1.4-1.9v-32.6a1.8 1.8 0 0 0-1.8-1.8 1.8 1.8 0 0 0-1.9 1.8v32.6a1.8 1.8 0 0 1-1.4 1.8 14.6 14.6 0 0 0-10.9 11 2 2 0 0 1-1.9 1.4h-65.1a1.9 1.9 0 0 0-1.9 1.9 1.9 1.9 0 0 0 1.9 1.9h65.2a1.7 1.7 0 0 1 1.8 1.4 14.4 14.4 0 0 0 10.9 10.6 2 2 0 0 1 1.4 1.9v32.8a1.8 1.8 0 0 0 1.9 1.9 1.8 1.8 0 0 0 1.8-1.9v-32.9a1.9 1.9 0 0 1 1.4-1.8 14.4 14.4 0 0 0 10.7-10.6 1.8 1.8 0 0 1 1.8-1.4h76.2a2 2 0 0 0 1.9-1.9 2 2 0 0 0-1.9-1.9h-76.1a1.9 1.9 0 0 1-1.8-1.4zm-3.6 5.2a10.6 10.6 0 0 1-8.6 8.5l-1.9.2-1.8-.2a10.6 10.6 0 0 1-8.7-8.5 7.5 7.5 0 0 1-.2-2.1 10.3 10.3 0 0 1 .1-1.7 10.6 10.6 0 0 1 8.8-8.8l1.8-.2 1.9.2a10.7 10.7 0 0 1 8.7 8.8 10.3 10.3 0 0 1 .1 1.7 14.9 14.9 0 0 1-.2 2.1z"/><circle cx="951.3" cy="184.9" r="2.3" fill="#eaeaea"/><path fill="#eaeaea" d="M950.3 189.3h1.9a2.9 2.9 0 0 1 2.9 2.9v3.2h-7.7v-3.2a2.9 2.9 0 0 1 2.9-2.9z"/><path fill="#c4bfb6" d="M869.6 141.7h16.8v16.76h-16.8zm22.1 0h16.8v16.76h-16.8zm21.8 0h16.8v16.76h-16.8zm-43.9 20.8h16.8v16.76h-16.8zm22.1 0h16.8v16.76h-16.8zM869.6 197h16.8v16.76h-16.8zm22.1 0h16.8v16.76h-16.8zm0 20.8h16.8v16.76h-16.8zm80.7-20.8h16.8v16.76h-16.8zm22.1 0h16.8v16.76h-16.8zm0 20.8h16.8v16.76h-16.8zm-81-55.3h16.8v16.76h-16.8zm58.3.6h16.8v16.76h-16.8zm21-21h16.8v16.76h-16.8zm-21.3-.4h16.8v16.76h-16.8z"/><path fill="#edece8" d="M1218.2 330.1h8.3v62.14h-8.3zm-52.2 0h8.3v62.14h-8.3z"/><rect width="98.4" height="70.79" x="1148.6" y="263.1" fill="#edece8" rx="26.7"/><path fill="#b5afa6" d="M1293.3 281.2V300h-.1v92.7h-21.5V300H811.9v92.7h-19.8V281.2h501.2z"/><rect width="134.4" height="99.3" x="1158.9" y="163.8" fill="#b5afa6" rx="20.3"/><path fill="#a39c94" d="M1219.2 246h31.4v35.34h-31.4zm-330.1-19.3l-10.6-10.6-9.2 9.2a39.2 39.2 0 0 0-15.8-6.6v-15.5h-14.9v15.5a40.2 40.2 0 0 0-15.9 6.6L812 214.5l-10.6 10.6 10.8 10.7a41.7 41.7 0 0 0-6.6 15.9H792v14.9h13.6a40.7 40.7 0 0 0 6.6 15.8l-9.2 9.2 10.6 10.6 9.1-9.2a41.7 41.7 0 0 0 15.9 6.6v12.2h14.9v-12.2a40.7 40.7 0 0 0 15.8-6.6l8.5 8.4 10.6-10.5-8.5-8.5a40.7 40.7 0 0 0 6.6-15.8h13.6v-14.9h-13.6a41.7 41.7 0 0 0-6.6-15.9zm-20 20a30.7 30.7 0 0 1 2 5 27 27 0 0 1 0 14.9 30.7 30.7 0 0 1-2 5 25.9 25.9 0 0 1-4.6 6 21.5 21.5 0 0 1-6 4.5 24.1 24.1 0 0 1-5 2.1 27 27 0 0 1-14.9 0 24.1 24.1 0 0 1-5-2.1 21.5 21.5 0 0 1-6-4.5 25.9 25.9 0 0 1-4.6-6 30.7 30.7 0 0 1-2-5 25.2 25.2 0 0 1 0-14.9 30.7 30.7 0 0 1 2-5 26.4 26.4 0 0 1 4.6-6.1 26.2 26.2 0 0 1 6-4.5 30.7 30.7 0 0 1 5-2 25.2 25.2 0 0 1 14.9 0 30.7 30.7 0 0 1 5 2 26.2 26.2 0 0 1 6 4.5 26.4 26.4 0 0 1 4.6 6.1zm106.6 4.2l-8.1-8-7 7a30.1 30.1 0 0 0-12-5v-11.8h-11.4v11.8a30.1 30.1 0 0 0-12 5l-8.2-8.2-8.1 8.1 8.2 8.1a32.1 32.1 0 0 0-5 12.1h-10.4v11.4h10.4a32.3 32.3 0 0 0 5 12l-7 7 8.1 8.1 7-7a31.6 31.6 0 0 0 12 5v9.3h11.4v-9.3a31.6 31.6 0 0 0 12-5l6.5 6.4 8-8.1-6.4-6.4a32.3 32.3 0 0 0 5-12h10.4V270h-10.4a32.1 32.1 0 0 0-5-12.1zm-15.3 15.3a18 18 0 0 1 1.6 3.8 20.1 20.1 0 0 1 0 11.4 17.3 17.3 0 0 1-1.6 3.7 19.4 19.4 0 0 1-3.4 4.7 21 21 0 0 1-4.6 3.4 18 18 0 0 1-3.8 1.6 20.1 20.1 0 0 1-11.4 0 18 18 0 0 1-3.8-1.6 21 21 0 0 1-4.6-3.4 19.4 19.4 0 0 1-3.4-4.7 17.3 17.3 0 0 1-1.6-3.7 20.1 20.1 0 0 1 0-11.4 18 18 0 0 1 1.6-3.8 19.3 19.3 0 0 1 8-8 18 18 0 0 1 3.8-1.6 20.1 20.1 0 0 1 11.4 0 18 18 0 0 1 3.8 1.6 19.3 19.3 0 0 1 8 8z"/><path fill="#a39c94" d="M934.8 316.9l-8.8-10.2-8.8 7.6a36.6 36.6 0 0 0-13.8-6.9l1.1-13.9-13.4-1-1.1 13.9a36 36 0 0 0-14.6 4.8l-8.9-10.4-10.2 8.8 8.9 10.3a36.9 36.9 0 0 0-6.9 13.7l-12.3-.9-1 13.4 12.3.9a37.3 37.3 0 0 0 4.7 14.7l-8.8 7.6 8.7 10.2 8.9-7.6a36.9 36.9 0 0 0 13.7 6.9l-.8 11 13.4 1 .8-11a36.3 36.3 0 0 0 14.6-4.7l7 8.1 10.2-8.8-7-8.1a35.7 35.7 0 0 0 7-13.7l12.2.9 1-13.4-12.2-.9a35 35 0 0 0-4.8-14.6zm-19.4 16.7a18.3 18.3 0 0 1 1.5 4.5 23.5 23.5 0 0 1-1 13.4 24.9 24.9 0 0 1-2.2 4.3 23.8 23.8 0 0 1-4.4 5.1 21.1 21.1 0 0 1-5.8 3.7 33.9 33.9 0 0 1-4.5 1.5 23.5 23.5 0 0 1-13.4-1.1 21.4 21.4 0 0 1-4.3-2.1 24.4 24.4 0 0 1-5.2-4.5 24.8 24.8 0 0 1-3.6-5.7 41.1 41.1 0 0 1-1.5-4.6 24.5 24.5 0 0 1 1-13.4 24.9 24.9 0 0 1 2.2-4.3 21.7 21.7 0 0 1 4.5-5.1 23.2 23.2 0 0 1 5.7-3.7 35.3 35.3 0 0 1 4.6-1.5 23.6 23.6 0 0 1 13.4 1.1 24.4 24.4 0 0 1 4.3 2.1 21.7 21.7 0 0 1 5.1 4.5 23.4 23.4 0 0 1 3.6 5.8z"/><path fill="#7e7570" d="M1048 348.5a3.8 3.8 0 0 1-3.8-3.8V341h-20.8a19.3 19.3 0 0 1-10.7-2.8 9.4 9.4 0 0 1-4.4-7.7c0-4.8 4.2-9.6 12.1-9.6h24.6c8.3 0 12-2 13.1-2.9-1-.7-3.9-2-10.1-2h-32.1c-9.3 0-14.1-5.2-14.1-10.3a9.4 9.4 0 0 1 4.4-7.7 19.1 19.1 0 0 1 10.4-2.7h41v-33.4a3.8 3.8 0 0 1 3.8-3.8c19.4 0 31.6-11.5 38.5-21.2 9-12.8 14.2-30.2 14.2-47.9s-5.6-35.7-15.8-48c-11.6-14.1-29-21.6-50.3-21.6-34.7 0-58.9 15.7-68.1 44.1-9.9 30.5.1 70.6 21.2 85.9a3.8 3.8 0 1 1-4.4 6.2c-11.2-8.1-20.3-22.9-24.9-40.6s-4.5-37.4.8-53.9c6-18.4 23.7-49.3 75.4-49.3 23.6 0 43 8.4 56.2 24.3 11.3 13.7 17.5 32.5 17.5 52.9s-5.7 38.3-15.6 52.3-24.8 23.1-40.9 24.2v33.6a3.8 3.8 0 0 1-3.8 3.8h-44.8a11.6 11.6 0 0 0-6.2 1.4c-.6.5-1 1-1 1.4s2 2.7 6.5 2.7h32.1c5 0 9.1.7 12.2 2.1 5.2 2.4 5.7 6 5.7 7.5 0 4.8-5.5 10.5-20.9 10.5h-24.6c-3 0-4.5 1.2-4.5 2a2.3 2.3 0 0 0 1.1 1.5c.8.5 2.7 1.4 6.4 1.4h24.6a3.8 3.8 0 0 1 3.8 3.8v7.5a3.8 3.8 0 0 1-3.8 3.8z"/><circle cx="1013.4" cy="263.7" r="5" fill="#ffad0f"/><path fill="#ffad0f" d="M1041.6 218.4a21.5 21.5 0 1 1 21.5-21.5 21.5 21.5 0 0 1-21.5 21.5zm0-35.4a13.9 13.9 0 1 0 13.9 13.9 13.9 13.9 0 0 0-13.9-13.9z"/><path fill="none" d="M198.7 85.3h499.6v308.06H198.7zm288.6 388h499.6v308.06H487.3zM793.8 85.1h499.6v308.06H793.8z"/><circle cx="611" cy="321.7" r="35.1" fill="#a39c94"/><path fill="#b5afa6" d="M628.8 332l-15.1 17.2v43.3H609v-52.4l-16.8-14.8a2.1 2.1 0 0 1-.2-3 2.4 2.4 0 0 1 1.6-.7 1.9 1.9 0 0 1 1.3.6l14.1 12.3v-14.7a2.3 2.3 0 0 1 2.3-2.4 2.4 2.4 0 0 1 1.7.7 2.6 2.6 0 0 1 .7 1.7v23.1l11.9-13.6a2.1 2.1 0 0 1 3-.2 2.2 2.2 0 0 1 .2 2.9z"/></svg>
