<svg id="Layer_1" data-name="Layer 1" xmlns="http://www.w3.org/2000/svg" width="1300" height="546" viewBox="0 0 1300 546"><title>slide-colour</title><path d="M44.5,60a6.6,6.6,0,0,1-3.2-.8,5.4,5.4,0,0,1-2.2-2.3v9.2h-4V44h3.5v2.7a5.8,5.8,0,0,1,2.2-2.2,6.9,6.9,0,0,1,3.2-.8,7.3,7.3,0,0,1,3,.6,8,8,0,0,1,2.3,1.8,9.3,9.3,0,0,1,1.5,2.6,7.8,7.8,0,0,1,.6,3.1,11.3,11.3,0,0,1-.5,3.2,9.3,9.3,0,0,1-1.5,2.6,6.5,6.5,0,0,1-2.2,1.8A6,6,0,0,1,44.5,60Zm-1.3-3.4a4.2,4.2,0,0,0,1.6-.4,3.5,3.5,0,0,0,1.3-1.1,3.8,3.8,0,0,0,.9-1.5,5.7,5.7,0,0,0,.3-1.8,4.1,4.1,0,0,0-.4-1.9,4.2,4.2,0,0,0-.9-1.4,2.8,2.8,0,0,0-1.4-1,3.3,3.3,0,0,0-1.7-.4l-1.2.2a3,3,0,0,0-1.1.6l-.9.8a2.4,2.4,0,0,0-.6,1.1v3.6a5.5,5.5,0,0,0,1.7,2.3A3.6,3.6,0,0,0,43.2,56.6Z" fill="#fff"/><path d="M63.4,47.4a11.4,11.4,0,0,0-3.3.7,4.5,4.5,0,0,0-2,2.1v9.5H54V44h3.7v3.3a9.2,9.2,0,0,1,2.1-2.6,5,5,0,0,1,2.8-1h.8Z" fill="#fff"/><path d="M65.7,41.8v-4h4v4Zm0,17.9V44h4V59.7Z" fill="#fff"/><path d="M97.7,59.7H93.6V50.9a5.1,5.1,0,0,0-.6-2.8,2.3,2.3,0,0,0-1.8-.9,3.3,3.3,0,0,0-2.2.9,6.1,6.1,0,0,0-1.5,2.4v9.2H83.4V50.9a5.1,5.1,0,0,0-.6-2.8,2,2,0,0,0-1.8-.9,3.3,3.3,0,0,0-2.2.9,4.9,4.9,0,0,0-1.5,2.4v9.2H73.2V44h3.7v2.9a6.2,6.2,0,0,1,2.4-2.4,7.4,7.4,0,0,1,3.4-.8,4.3,4.3,0,0,1,3.1,1A4.9,4.9,0,0,1,87.2,47a6.4,6.4,0,0,1,2.4-2.5,7.4,7.4,0,0,1,3.4-.8,5.2,5.2,0,0,1,2.3.5,6.7,6.7,0,0,1,1.5,1.4,11.8,11.8,0,0,1,.7,2,17.9,17.9,0,0,1,.2,2.3Z" fill="#fff"/><path d="M105.4,60a5.2,5.2,0,0,1-2.1-.4,4.8,4.8,0,0,1-1.7-1,4.2,4.2,0,0,1-1.1-1.6,4.5,4.5,0,0,1-.4-2,4.1,4.1,0,0,1,.5-2.1,4.8,4.8,0,0,1,1.3-1.6,9,9,0,0,1,2.2-1,11,11,0,0,1,2.7-.4l2,.2,1.8.5v-.9a3.2,3.2,0,0,0-.9-2.4,4,4,0,0,0-2.6-.8,6.9,6.9,0,0,0-2.5.4,10,10,0,0,0-2.4,1.4l-1.3-2.6a11.9,11.9,0,0,1,6.6-2,7.1,7.1,0,0,1,5.2,1.7,5.9,5.9,0,0,1,1.9,4.8v4.9a2,2,0,0,0,.2.9l.9.3v3.4h-1.9a3,3,0,0,1-1.8-.5,2.3,2.3,0,0,1-.7-1.4v-.8a7.5,7.5,0,0,1-2.6,2.1A8.3,8.3,0,0,1,105.4,60Zm1.2-3a6.3,6.3,0,0,0,1.9-.3,3.9,3.9,0,0,0,1.4-1,1.3,1.3,0,0,0,.7-1.1V52.8l-1.6-.5h-1.6a3.9,3.9,0,0,0-2.5.7,2.1,2.1,0,0,0-1,1.8,2,2,0,0,0,.8,1.7A2.9,2.9,0,0,0,106.6,57Z" fill="#fff"/><path d="M127.8,47.4a11.4,11.4,0,0,0-3.3.7,4.5,4.5,0,0,0-2,2.1v9.5h-4.1V44h3.7v3.3a8,8,0,0,1,2.2-2.6,4.5,4.5,0,0,1,2.7-1h.8Z" fill="#fff"/><path d="M130.3,62.7l1,.3h1.4l.6-.5.6-1a16.2,16.2,0,0,0,.6-1.7L128.3,44h4.1l4.3,12.2L140.5,44h3.7l-6.6,18.8a5.3,5.3,0,0,1-5.2,3.8,7.8,7.8,0,0,1-2.1-.4Z" fill="#fff"/><path d="M151.8,51.8a8.1,8.1,0,0,1,.6-3.1,7.3,7.3,0,0,1,1.7-2.6,6.9,6.9,0,0,1,2.6-1.7,7.4,7.4,0,0,1,3.4-.7,8.7,8.7,0,0,1,4.4,1.1,6.9,6.9,0,0,1,2.7,2.9l-3.9,1.2a2.9,2.9,0,0,0-1.4-1.3,3.5,3.5,0,0,0-1.8-.5,2.9,2.9,0,0,0-1.6.4,3,3,0,0,0-1.3.9,3.8,3.8,0,0,0-.9,1.5,5.8,5.8,0,0,0-.3,1.9,5.4,5.4,0,0,0,.3,1.9,3.8,3.8,0,0,0,.9,1.5,3.1,3.1,0,0,0,1.3,1,4.2,4.2,0,0,0,1.6.4,3.6,3.6,0,0,0,2-.6,3.3,3.3,0,0,0,1.3-1.3l3.9,1.2a5.8,5.8,0,0,1-2.7,2.9,7.9,7.9,0,0,1-4.5,1.2,7.7,7.7,0,0,1-3.4-.7,6.8,6.8,0,0,1-2.6-1.8,7.8,7.8,0,0,1-1.7-2.6A8.1,8.1,0,0,1,151.8,51.8Z" fill="#fff"/><path d="M176.8,60a7.4,7.4,0,0,1-3.4-.7,6.8,6.8,0,0,1-2.6-1.8,7.8,7.8,0,0,1-1.7-2.6,9.9,9.9,0,0,1-.5-3,11.3,11.3,0,0,1,.5-3.2,10.6,10.6,0,0,1,1.7-2.6,7.8,7.8,0,0,1,2.6-1.7,7.4,7.4,0,0,1,3.4-.7,7.8,7.8,0,0,1,3.5.7,7.4,7.4,0,0,1,2.5,1.7,8.3,8.3,0,0,1,1.7,2.6,8.6,8.6,0,0,1,.5,3.2,7.9,7.9,0,0,1-2.1,5.6,6.8,6.8,0,0,1-2.6,1.8A7.8,7.8,0,0,1,176.8,60Zm-4.1-8.1a5.8,5.8,0,0,0,.3,1.9,4.2,4.2,0,0,0,.9,1.4,3.1,3.1,0,0,0,1.3,1,3.4,3.4,0,0,0,3.2,0,3.3,3.3,0,0,0,1.4-1,5.3,5.3,0,0,0,.8-1.5,5.4,5.4,0,0,0,.3-1.9,5.8,5.8,0,0,0-.3-1.9,10.9,10.9,0,0,0-.8-1.5,4.2,4.2,0,0,0-1.4-.9,3.4,3.4,0,0,0-3.2,0,3.1,3.1,0,0,0-1.3,1A3.8,3.8,0,0,0,173,50,5.4,5.4,0,0,0,172.7,51.9Z" fill="#fff"/><path d="M187.7,37.8h4V54.5c0,1.2.5,1.8,1.6,1.8h.8l.8-.3.6,3.2a6,6,0,0,1-1.9.6,7.5,7.5,0,0,1-2,.2,3.9,3.9,0,0,1-2.9-1,3.7,3.7,0,0,1-1-2.8Z" fill="#fff"/><path d="M204.4,60a7.8,7.8,0,0,1-3.5-.7,6.8,6.8,0,0,1-2.6-1.8,8.7,8.7,0,0,1-2.2-5.6,8.7,8.7,0,0,1,.6-3.2,10.1,10.1,0,0,1,1.6-2.6,8.8,8.8,0,0,1,6.1-2.4,7.7,7.7,0,0,1,3.4.7,7.8,7.8,0,0,1,2.6,1.7,10.1,10.1,0,0,1,1.6,2.6,8.7,8.7,0,0,1,.6,3.2,8.7,8.7,0,0,1-2.2,5.6,6.8,6.8,0,0,1-2.6,1.8A7.7,7.7,0,0,1,204.4,60Zm-4.1-8.1a5.8,5.8,0,0,0,.3,1.9,6.4,6.4,0,0,0,.8,1.4,3.1,3.1,0,0,0,1.3,1,3.6,3.6,0,0,0,3.3,0,3.1,3.1,0,0,0,1.3-1,3.8,3.8,0,0,0,.9-1.5,5.4,5.4,0,0,0,.3-1.9,5.8,5.8,0,0,0-.3-1.9,6,6,0,0,0-.9-1.5,3.8,3.8,0,0,0-1.3-.9,3.2,3.2,0,0,0-1.6-.4,3.3,3.3,0,0,0-1.7.4,3.1,3.1,0,0,0-1.3,1,5.3,5.3,0,0,0-.8,1.5A5.4,5.4,0,0,0,200.3,51.9Z" fill="#fff"/><path d="M220,60a4.4,4.4,0,0,1-3.7-1.6,7.4,7.4,0,0,1-1.2-4.6V44h4v8.9c0,2.5.9,3.7,2.6,3.7a4.8,4.8,0,0,0,2.3-.7,5.8,5.8,0,0,0,1.8-2.2V44h4V55.1a2,2,0,0,0,.2.9l.9.3v3.4h-2a3.1,3.1,0,0,1-1.7-.5,2.1,2.1,0,0,1-.7-1.4V56.7a7.2,7.2,0,0,1-2.7,2.5A8.7,8.7,0,0,1,220,60Z" fill="#fff"/><path d="M243.2,47.4a10.1,10.1,0,0,0-3.2.7,4.3,4.3,0,0,0-2.1,2.1v9.5h-4V44h3.7v3.3a6.7,6.7,0,0,1,2.1-2.6,5,5,0,0,1,2.7-1h.8Z" fill="#fff"/><path d="M251.6,60l-1.9-.2-2.1-.4-1.9-.6-1.6-.9,1.7-2.7a10.5,10.5,0,0,0,5.8,1.9,3.4,3.4,0,0,0,1.9-.4,1.6,1.6,0,0,0,.8-1.3,1.4,1.4,0,0,0-.9-1.3,20.9,20.9,0,0,0-2.9-.9l-2.6-.7-1.7-.9a2.8,2.8,0,0,1-1-1.2,3.3,3.3,0,0,1-.3-1.5,4.7,4.7,0,0,1,1.8-3.8,7,7,0,0,1,2.1-1.1,10.9,10.9,0,0,1,5.8.2,12.3,12.3,0,0,1,3.1,1.4l-1.6,2.5a9.3,9.3,0,0,0-2.5-1.2,6.7,6.7,0,0,0-2.4-.4,4.8,4.8,0,0,0-1.8.4,1.5,1.5,0,0,0-.7,1.4,1.3,1.3,0,0,0,.7,1.2l2.5.8a17.1,17.1,0,0,1,2.9.8,8.5,8.5,0,0,1,1.9,1,2.5,2.5,0,0,1,1.1,1.2,4.3,4.3,0,0,1,.4,1.7,4.6,4.6,0,0,1-.5,2.1,4.7,4.7,0,0,1-1.3,1.5,5.1,5.1,0,0,1-2.1,1A7.7,7.7,0,0,1,251.6,60Z" fill="#fff"/><path d="M39.4,324a4.6,4.6,0,0,1-2.1-.4,4,4,0,0,1-1.7-1,6.1,6.1,0,0,1-1.2-1.6,6.5,6.5,0,0,1-.4-2,5.4,5.4,0,0,1,.5-2.1,7,7,0,0,1,1.4-1.6,10.2,10.2,0,0,1,2.1-1,11,11,0,0,1,2.7-.4l2.1.2,1.8.5v-.9a3.2,3.2,0,0,0-.9-2.4,4,4,0,0,0-2.6-.8,6.9,6.9,0,0,0-2.5.4,12.8,12.8,0,0,0-2.5,1.4l-1.2-2.6a11.8,11.8,0,0,1,6.5-2c2.3,0,4.1.5,5.3,1.7a5.9,5.9,0,0,1,1.9,4.8v4.9a2,2,0,0,0,.2.9l.9.3v3.4h-2a2.9,2.9,0,0,1-1.7-.5,2.3,2.3,0,0,1-.7-1.4v-.8a7.5,7.5,0,0,1-2.6,2.1A8.8,8.8,0,0,1,39.4,324Zm1.1-3a6.4,6.4,0,0,0,2-.3,3.9,3.9,0,0,0,1.4-1,1.5,1.5,0,0,0,.7-1.1v-1.8l-1.6-.5H41.4a4.2,4.2,0,0,0-2.6.7,2.4,2.4,0,0,0-1,1.8,2.3,2.3,0,0,0,.8,1.7A3.1,3.1,0,0,0,40.5,321Z" fill="#fff"/><path d="M51.5,315.8a10.6,10.6,0,0,1,.5-3.1,9,9,0,0,1,1.7-2.6,7.8,7.8,0,0,1,2.6-1.7,7.7,7.7,0,0,1,3.4-.7,8.4,8.4,0,0,1,4.4,1.1,7.1,7.1,0,0,1,2.8,2.9l-4,1.2a3.3,3.3,0,0,0-1.3-1.3,4.1,4.1,0,0,0-1.9-.5,2.9,2.9,0,0,0-1.6.4,3.8,3.8,0,0,0-1.3.9,3.8,3.8,0,0,0-.9,1.5,5.8,5.8,0,0,0-.3,1.9,4.8,4.8,0,0,0,1.2,3.4,3.1,3.1,0,0,0,1.3,1,4.7,4.7,0,0,0,1.6.4,3.6,3.6,0,0,0,2-.6,3.3,3.3,0,0,0,1.3-1.3l3.9,1.2a5.8,5.8,0,0,1-2.7,2.9,8.9,8.9,0,0,1-7.9.5,6.8,6.8,0,0,1-2.6-1.8,7.8,7.8,0,0,1-1.7-2.6A10.6,10.6,0,0,1,51.5,315.8Z" fill="#fff"/><path d="M68.4,315.8a8.1,8.1,0,0,1,.6-3.1,7.1,7.1,0,0,1,1.6-2.6,8.8,8.8,0,0,1,6.1-2.4,9,9,0,0,1,4.4,1.1,6.9,6.9,0,0,1,2.7,2.9l-4,1.2a2.7,2.7,0,0,0-1.3-1.3,4.1,4.1,0,0,0-1.9-.5,3.2,3.2,0,0,0-1.6.4,3.8,3.8,0,0,0-1.3.9,3.8,3.8,0,0,0-.9,1.5,5.8,5.8,0,0,0-.3,1.9,3.8,3.8,0,0,0,.4,1.9,5.3,5.3,0,0,0,.8,1.5,3.1,3.1,0,0,0,1.3,1,4.7,4.7,0,0,0,1.6.4,3.4,3.4,0,0,0,2-.6,2.7,2.7,0,0,0,1.3-1.3l3.9,1.2a6.1,6.1,0,0,1-2.6,2.9,8.4,8.4,0,0,1-4.5,1.2,8.1,8.1,0,0,1-3.5-.7,7.6,7.6,0,0,1-4.2-4.4A8.1,8.1,0,0,1,68.4,315.8Z" fill="#fff"/><path d="M93.6,324a7.4,7.4,0,0,1-3.4-.7,6.9,6.9,0,0,1-2.6-1.7,7.3,7.3,0,0,1-1.7-2.6,8.1,8.1,0,0,1-.6-3.1,8.7,8.7,0,0,1,.6-3.2,8,8,0,0,1,1.6-2.6,7.8,7.8,0,0,1,2.6-1.7,8.1,8.1,0,0,1,3.5-.7,7.4,7.4,0,0,1,3.4.7,6.9,6.9,0,0,1,2.6,1.7,7.1,7.1,0,0,1,1.6,2.6,8.1,8.1,0,0,1,.6,3.1v.7c0,.3,0,.5-.1.6H89.6a4.7,4.7,0,0,0,.4,1.7,5.4,5.4,0,0,0,.9,1.2l1.3.8a3.9,3.9,0,0,0,1.5.2,5.9,5.9,0,0,0,2.3-.5,3.3,3.3,0,0,0,1.5-1.6l3.4,1a6.5,6.5,0,0,1-2.8,2.9A8.2,8.2,0,0,1,93.6,324Zm4.1-9.5a4.3,4.3,0,0,0-1.3-2.8,4.2,4.2,0,0,0-4.4-.8,4.2,4.2,0,0,0-1.2.8,2.7,2.7,0,0,0-.9,1.2,4.2,4.2,0,0,0-.4,1.6Z" fill="#fff"/><path d="M118.9,323.7h-4v-8.8a5,5,0,0,0-.7-2.8,2.1,2.1,0,0,0-1.8-.9l-1.3.3-1.2.6-1,1.1a3.1,3.1,0,0,0-.6,1.3v9.2h-4V308h3.6v2.9a6.4,6.4,0,0,1,2.5-2.4,9.1,9.1,0,0,1,3.7-.8,5.4,5.4,0,0,1,2.4.5,5.1,5.1,0,0,1,1.5,1.4,11.8,11.8,0,0,1,.7,2,17.9,17.9,0,0,1,.2,2.3Z" fill="#fff"/><path d="M131.7,322.9l-2,.7a10.1,10.1,0,0,1-2.5.4,4,4,0,0,1-1.5-.3,2.6,2.6,0,0,1-1.3-.6,2.7,2.7,0,0,1-.9-1.2,4.8,4.8,0,0,1-.3-1.8v-9h-2.1V308h2.1v-5.1h4V308h3.3v3.1h-3.3v7.6c0,.6.1,1,.4,1.2a2.1,2.1,0,0,0,1.1.4l1.2-.2,1-.4Z" fill="#fff"/><path d="M139.9,315.8a8.1,8.1,0,0,1,.6-3.1,7.3,7.3,0,0,1,1.7-2.6,6.9,6.9,0,0,1,2.6-1.7,7.4,7.4,0,0,1,3.4-.7,8.7,8.7,0,0,1,4.4,1.1,6.9,6.9,0,0,1,2.7,2.9l-3.9,1.2a4,4,0,0,0-3.2-1.8,2.9,2.9,0,0,0-1.6.4,3,3,0,0,0-1.3.9,3.8,3.8,0,0,0-.9,1.5,5.8,5.8,0,0,0-.3,1.9,5.4,5.4,0,0,0,.3,1.9,3.8,3.8,0,0,0,.9,1.5,3.1,3.1,0,0,0,1.3,1,4.2,4.2,0,0,0,1.6.4,3.6,3.6,0,0,0,2-.6,2.5,2.5,0,0,0,1.2-1.3l4,1.2a6.9,6.9,0,0,1-2.7,2.9,7.9,7.9,0,0,1-4.5,1.2,7.7,7.7,0,0,1-3.4-.7,6.8,6.8,0,0,1-2.6-1.8,7.8,7.8,0,0,1-1.7-2.6A8.1,8.1,0,0,1,139.9,315.8Z" fill="#fff"/><path d="M164.9,324a7.4,7.4,0,0,1-3.4-.7,6.1,6.1,0,0,1-2.6-1.8,7.8,7.8,0,0,1-1.7-2.6,9.9,9.9,0,0,1-.5-3,11.3,11.3,0,0,1,.5-3.2,10.6,10.6,0,0,1,1.7-2.6,6.9,6.9,0,0,1,2.6-1.7,7.4,7.4,0,0,1,3.4-.7,8.1,8.1,0,0,1,3.5.7,7.4,7.4,0,0,1,2.5,1.7,10.6,10.6,0,0,1,1.7,2.6,11.3,11.3,0,0,1,.5,3.2,9.9,9.9,0,0,1-.5,3,7.8,7.8,0,0,1-1.7,2.6,6.4,6.4,0,0,1-2.5,1.8A8.1,8.1,0,0,1,164.9,324Zm-4.1-8.1a5.8,5.8,0,0,0,.3,1.9,4.2,4.2,0,0,0,.9,1.4,3.1,3.1,0,0,0,1.3,1,3.4,3.4,0,0,0,3.2,0,2.6,2.6,0,0,0,1.3-1,3.8,3.8,0,0,0,.9-1.5,5.4,5.4,0,0,0,.3-1.9,5.8,5.8,0,0,0-.3-1.9,6,6,0,0,0-.9-1.5,3,3,0,0,0-1.3-.9,3.4,3.4,0,0,0-3.2,0,3.1,3.1,0,0,0-1.3,1,3.8,3.8,0,0,0-.9,1.5A5.4,5.4,0,0,0,160.8,315.9Z" fill="#fff"/><path d="M175.8,301.8h4v16.7c0,1.2.5,1.8,1.6,1.8h.8l.8-.3.5,3.2a4.8,4.8,0,0,1-1.8.6,7.5,7.5,0,0,1-2,.2,3.8,3.8,0,0,1-2.9-1,3.7,3.7,0,0,1-1-2.8Z" fill="#fff"/><path d="M192.5,324a7.8,7.8,0,0,1-3.5-.7,6.8,6.8,0,0,1-2.6-1.8,8.7,8.7,0,0,1-2.2-5.6,8.7,8.7,0,0,1,.6-3.2,10.1,10.1,0,0,1,1.6-2.6,8.8,8.8,0,0,1,6.1-2.4,7.7,7.7,0,0,1,3.4.7,7.8,7.8,0,0,1,2.6,1.7,10.1,10.1,0,0,1,1.6,2.6,8.7,8.7,0,0,1,.6,3.2,8.7,8.7,0,0,1-2.2,5.6,6.8,6.8,0,0,1-2.6,1.8A7.7,7.7,0,0,1,192.5,324Zm-4.2-8.1a5.8,5.8,0,0,0,.4,1.9,6.4,6.4,0,0,0,.8,1.4,3.1,3.1,0,0,0,1.3,1,3.6,3.6,0,0,0,3.3,0,3.1,3.1,0,0,0,1.3-1,4.8,4.8,0,0,0,1.2-3.4,5.8,5.8,0,0,0-.3-1.9,11.9,11.9,0,0,0-.9-1.5,3.8,3.8,0,0,0-1.3-.9,3.2,3.2,0,0,0-1.6-.4,3.3,3.3,0,0,0-1.7.4,3.1,3.1,0,0,0-1.3,1,6.5,6.5,0,0,0-1.2,3.4Z" fill="#fff"/><path d="M208.1,324a4.4,4.4,0,0,1-3.7-1.6,7.4,7.4,0,0,1-1.2-4.6V308h4v8.9c0,2.5.9,3.7,2.6,3.7a4.8,4.8,0,0,0,2.3-.7,5.8,5.8,0,0,0,1.8-2.2V308h4v11.1a2,2,0,0,0,.2.9l.9.3v3.4h-2a2.9,2.9,0,0,1-1.7-.5,2.1,2.1,0,0,1-.7-1.4v-1.3a7.2,7.2,0,0,1-2.7,2.5A8.7,8.7,0,0,1,208.1,324Z" fill="#fff"/><path d="M231.3,311.4a10.1,10.1,0,0,0-3.2.7,4.3,4.3,0,0,0-2.1,2.1v9.5h-4V308h3.7v3.3a6.7,6.7,0,0,1,2.1-2.6,5,5,0,0,1,2.7-1h.8Z" fill="#fff"/><path d="M234.8,419.5a8.6,8.6,0,0,0-2.6-2.1,7.3,7.3,0,0,0-3.3-.8,7.6,7.6,0,0,0-4.9,1.8,10.9,10.9,0,0,0-3.2,4.4v7.5a7.2,7.2,0,0,0,1.2,2.1,9.6,9.6,0,0,0,1.8,1.7l2.3,1.1a9.1,9.1,0,0,0,2.3.3,8.1,8.1,0,0,0,3.5-.7,9.5,9.5,0,0,0,2.8-2,12.6,12.6,0,0,0,1.8-3,10.5,10.5,0,0,0,.6-3.6,10.9,10.9,0,0,0-.6-3.6A10.3,10.3,0,0,0,234.8,419.5Z" fill="#fe2b09"/><path d="M157.2,415.6a8.1,8.1,0,0,0-3.1.6,7.8,7.8,0,0,0-2.4,1.6,6.9,6.9,0,0,0-1.8,2.4,8.9,8.9,0,0,0-.8,3.2h16.3a8.4,8.4,0,0,0-2.6-5.6A7.8,7.8,0,0,0,157.2,415.6Z" fill="#fe2b09"/><path d="M270.9,416.3a8,8,0,0,0-2.3-2.2,6.1,6.1,0,0,0-3-.8,6.8,6.8,0,0,0-3.1.8,6.9,6.9,0,0,0-2.3,2.2,11.3,11.3,0,0,0-1.6,3.5,19.6,19.6,0,0,0,0,8.8,11.9,11.9,0,0,0,1.6,3.4,6,6,0,0,0,2.3,2.2,6.8,6.8,0,0,0,3.1.8,6.1,6.1,0,0,0,3-.8,6.8,6.8,0,0,0,2.3-2.2,9.5,9.5,0,0,0,1.5-3.4,16.4,16.4,0,0,0,0-8.8A9.3,9.3,0,0,0,270.9,416.3Z" fill="#fe2b09"/><path d="M32,341V505H626V341Zm81.9,75.3h-8.7l-2,8.3H111v6h-9.3L99,441.8H92.5l2.8-11.2H88.1l-2.7,11.2H78.9l2.8-11.2H75v-6h8.1l2-8.3H77.8v-5.6h8.7l2.8-11.5h6.5l-2.9,11.5h7.2l2.8-11.5h6.5l-2.9,11.5h7.4Zm24.5-11a10.2,10.2,0,0,0-2.1-.8l-2.3-.3c-2.8,0-4.2,1.8-4.2,5.6V414h7.7v6.2h-7.7v21.6h-8V420.2h-4.1V414h4.1v-3.9c0-3.9.9-7,2.8-9.3a9.5,9.5,0,0,1,7.7-3.4,18.4,18.4,0,0,1,7.7,1.8Zm35.2,22.1a4.1,4.1,0,0,1-.1,1.2H149.2a8,8,0,0,0,.9,3.3,7.9,7.9,0,0,0,1.9,2.5,8.2,8.2,0,0,0,2.5,1.6,10.5,10.5,0,0,0,3,.5,9.6,9.6,0,0,0,4.6-1.2,6.2,6.2,0,0,0,2.9-3.1l6.9,2a14.4,14.4,0,0,1-5.6,5.9,17.3,17.3,0,0,1-9.1,2.3,18.3,18.3,0,0,1-6.8-1.3,15.9,15.9,0,0,1-5.2-3.5,15.1,15.1,0,0,1-3.4-5.2,18,18,0,0,1-1.1-6.2,19,19,0,0,1,1.1-6.3,15.5,15.5,0,0,1,8.6-8.8,16.7,16.7,0,0,1,6.9-1.3,17,17,0,0,1,6.9,1.3,15.7,15.7,0,0,1,5.1,3.6,16,16,0,0,1,3.3,5.1,18.3,18.3,0,0,1,1.1,6.1A6.6,6.6,0,0,1,173.6,427.4Zm32.8,14.4H177.5a24.3,24.3,0,0,1,.4-4.9,14.4,14.4,0,0,1,1.5-4.1,13.1,13.1,0,0,1,2.9-3.4,21.7,21.7,0,0,1,4.6-3.2l4.3-2.3a35.4,35.4,0,0,0,3.1-1.9,5.8,5.8,0,0,0,2-1.7,3.2,3.2,0,0,0,.7-2,4,4,0,0,0-1.5-3.1,6.1,6.1,0,0,0-4.1-1.3,11,11,0,0,0-2.7.4,9.1,9.1,0,0,0-2.2,1.1,9.4,9.4,0,0,0-1.9,1.4l-1.6,1.8-5.2-6a15.2,15.2,0,0,1,2.2-1.8,21.7,21.7,0,0,1,3.4-1.9,27.1,27.1,0,0,1,4.3-1.4,21,21,0,0,1,5.1-.6,18.2,18.2,0,0,1,5.5.8,11.7,11.7,0,0,1,4,2.1,8.5,8.5,0,0,1,2.5,3.2,9.5,9.5,0,0,1,.9,4.1,7.2,7.2,0,0,1-.8,3.7,9.7,9.7,0,0,1-1.9,2.9,11.3,11.3,0,0,1-2.7,2.2l-2.7,1.7-2.3,1.3-2.4,1.6a13.7,13.7,0,0,0-2.2,1.9,5.8,5.8,0,0,0-1.5,2.1h17.2Zm37.8-9.3a16,16,0,0,1-3.1,5.2,14.5,14.5,0,0,1-4.7,3.4,12.7,12.7,0,0,1-5.8,1.3,13.5,13.5,0,0,1-6.4-1.6,11.2,11.2,0,0,1-4.4-4.5v5.5h-7.1V398h8.1v17.9a11.2,11.2,0,0,1,4.4-4.5,11.8,11.8,0,0,1,6.3-1.6,11.6,11.6,0,0,1,5.6,1.3,13.9,13.9,0,0,1,4.4,3.6,14.4,14.4,0,0,1,2.8,5.2,18.9,18.9,0,0,1,1,6.3A18.1,18.1,0,0,1,244.2,432.5Zm35.7-1a19.6,19.6,0,0,1-3.2,5.7,14.2,14.2,0,0,1-5,3.8,14,14,0,0,1-6.1,1.4,14.4,14.4,0,0,1-6.2-1.4,13,13,0,0,1-4.9-3.8,17.8,17.8,0,0,1-3.3-5.7,24.8,24.8,0,0,1,0-14.6,17.8,17.8,0,0,1,3.3-5.7,13.7,13.7,0,0,1,11.1-5.2,13.9,13.9,0,0,1,6.1,1.3,15.8,15.8,0,0,1,5,3.9,19.6,19.6,0,0,1,3.2,5.7,22.8,22.8,0,0,1,0,14.6Zm36.1,5.9a25.8,25.8,0,0,1-3.3,7.5,14.3,14.3,0,0,1-5.2,4.6,15.1,15.1,0,0,1-6.8,1.5,15.9,15.9,0,0,1-13.2-6.7l4.6-5a10.3,10.3,0,0,0,3.7,3.5,10.9,10.9,0,0,0,5,1.3,7.6,7.6,0,0,0,6.4-3.2c1.6-2.1,2.4-5.1,2.5-9a8.8,8.8,0,0,1-3.5,3.4,12,12,0,0,1-5.4,1.3,15.9,15.9,0,0,1-5.9-1.1,13.5,13.5,0,0,1-4.7-3,13.3,13.3,0,0,1-3.1-4.6,13.1,13.1,0,0,1-1.2-5.6,14.3,14.3,0,0,1,1.2-5.8,15.4,15.4,0,0,1,3.3-4.7,14.6,14.6,0,0,1,4.9-3.1,15.9,15.9,0,0,1,6.2-1.2,17.1,17.1,0,0,1,6.5,1.3,13.3,13.3,0,0,1,4.9,3.9,18.6,18.6,0,0,1,3.2,6.1,29.8,29.8,0,0,1,1.1,8.3A39.9,39.9,0,0,1,316,437.4Z" fill="#fe2b09"/><polygon points="89.6 424.6 96.8 424.6 98.7 416.3 91.5 416.3 89.6 424.6" fill="#fe2b09"/><path d="M307,416.7a8.5,8.5,0,0,0-2.5-1.7,6,6,0,0,0-3-.7,8.1,8.1,0,0,0-3.1.6,6.9,6.9,0,0,0-2.4,1.8,8.8,8.8,0,0,0-1.8,2.5,8.5,8.5,0,0,0-.6,3.1,8.1,8.1,0,0,0,.6,3.1,13.8,13.8,0,0,0,1.7,2.5,8.1,8.1,0,0,0,5.6,2.2,7.3,7.3,0,0,0,3-.6,7.2,7.2,0,0,0,2.5-1.6,10.1,10.1,0,0,0,1.7-2.5,8.1,8.1,0,0,0,.6-3.1,7.7,7.7,0,0,0-2.3-5.6Z" fill="#fe2b09"/><polygon points="726.6 424.6 733.8 424.6 735.7 416.3 728.5 416.3 726.6 424.6" fill="#ff8900"/><path d="M806.4,415a6.6,6.6,0,0,0,1.9.9,5.2,5.2,0,0,0,2.1.4,5.4,5.4,0,0,0,2.2-.4,5.6,5.6,0,0,0,1.9-.9,7.5,7.5,0,0,0,1.5-1.6,5.1,5.1,0,0,0,.5-2.2,4.3,4.3,0,0,0-1.8-3.6,7.5,7.5,0,0,0-4.3-1.3,6.8,6.8,0,0,0-4.2,1.4,4.2,4.2,0,0,0-1.8,3.5,3.8,3.8,0,0,0,.6,2.2A3.6,3.6,0,0,0,806.4,415Z" fill="#ff8900"/><path d="M815.5,424a5.5,5.5,0,0,0-2.4-1.2,7.6,7.6,0,0,0-2.7-.5,8.6,8.6,0,0,0-2.7.5,7,7,0,0,0-2.4,1.3,6.4,6.4,0,0,0-1.6,2,5.9,5.9,0,0,0,0,5.2,6.7,6.7,0,0,0,1.7,2,7,7,0,0,0,2.4,1.3,8.6,8.6,0,0,0,2.7.5,7.6,7.6,0,0,0,2.7-.5,7.3,7.3,0,0,0,2.3-1.3,6.8,6.8,0,0,0,1.7-2.1,5.1,5.1,0,0,0,.6-2.5,6,6,0,0,0-.7-2.7A5.3,5.3,0,0,0,815.5,424Z" fill="#ff8900"/><path d="M771.1,406.4a3.1,3.1,0,0,0-2,.5,3,3,0,0,0-1.3,1.2,5.1,5.1,0,0,0-.7,1.7,6.9,6.9,0,0,0-.3,2V414h7.7v-3.9c0-.3.1-.7.1-1.1s.1-.7.2-1a3.1,3.1,0,0,0,.2-.8,6,6,0,0,0-1.9-.6A7.5,7.5,0,0,0,771.1,406.4Z" fill="#ff8900"/><path d="M851.6,416.7a8.5,8.5,0,0,0-2.5-1.7,6,6,0,0,0-3-.7,8.1,8.1,0,0,0-3.1.6,6.9,6.9,0,0,0-2.4,1.8,8.8,8.8,0,0,0-1.8,2.5,8.5,8.5,0,0,0-.6,3.1,8.1,8.1,0,0,0,.6,3.1,13.8,13.8,0,0,0,1.7,2.5,8.1,8.1,0,0,0,5.6,2.2,7.3,7.3,0,0,0,3-.6,7.2,7.2,0,0,0,2.5-1.6,10.1,10.1,0,0,0,1.7-2.5,8.1,8.1,0,0,0,.6-3.1,7.7,7.7,0,0,0-2.3-5.6Z" fill="#ff8900"/><path d="M670,341V505h603V341Zm80.9,75.3h-8.7l-2,8.3H748v6h-9.3L736,441.8h-6.5l2.8-11.2h-7.2l-2.7,11.2h-6.5l2.8-11.2H712v-6h8.1l2-8.3h-7.3v-5.6h8.7l2.8-11.5h6.5l-2.9,11.5h7.2l2.8-11.5h6.5l-2.9,11.5h7.4Zm40.6-11-1.9-.8a8.8,8.8,0,0,0-2.4-.3,4.2,4.2,0,0,0-3.6,1.7,7.1,7.1,0,0,0-1.1,3.9V414h8.3v6.2h-8.3v21.6h-8V420.2h-7.7v21.6h-8V420.2h-4.1V414h4.1v-1.9a16.3,16.3,0,0,1,.7-5,13.9,13.9,0,0,1,2.1-4,9.3,9.3,0,0,1,3.3-2.6,11.5,11.5,0,0,1,4.6-1,17.4,17.4,0,0,1,3.9.5,24.3,24.3,0,0,1,3.8,1.3,10.9,10.9,0,0,1,3.5-2.9,10.5,10.5,0,0,1,4.9-1,13.1,13.1,0,0,1,4.1.6l3.5,1.2Zm33.2,29.3a12.3,12.3,0,0,1-3.4,4.1,13.7,13.7,0,0,1-4.9,2.7,19.8,19.8,0,0,1-6,.9,17.2,17.2,0,0,1-6-1,13.9,13.9,0,0,1-4.9-2.8,13.4,13.4,0,0,1-3.3-4.2,12.5,12.5,0,0,1-1.2-5.4,9.7,9.7,0,0,1,.6-3.4,11.7,11.7,0,0,1,1.5-2.7,16.1,16.1,0,0,1,2.2-2.3,15.8,15.8,0,0,1,2.4-1.5,10.2,10.2,0,0,1-3.9-3.3,8,8,0,0,1-1.5-4.7,9.7,9.7,0,0,1,1.3-5.1,11.6,11.6,0,0,1,3.3-3.7,15,15,0,0,1,4.6-2.2,14,14,0,0,1,4.9-.8,17.3,17.3,0,0,1,5,.7,15.3,15.3,0,0,1,4.6,2.3,12,12,0,0,1,3.4,3.7,10,10,0,0,1,1.3,5,8.1,8.1,0,0,1-1.6,4.8,10.2,10.2,0,0,1-3.9,3.3,17.5,17.5,0,0,1,2.5,1.6,15.1,15.1,0,0,1,2.1,2.3,8,8,0,0,1,1.5,2.9,9,9,0,0,1,.6,3.4A11.9,11.9,0,0,1,824.7,434.6Zm35.9,2.8a25.8,25.8,0,0,1-3.3,7.5,14.3,14.3,0,0,1-5.2,4.6,15.1,15.1,0,0,1-6.8,1.5,15.9,15.9,0,0,1-13.2-6.7l4.6-5a10.3,10.3,0,0,0,3.7,3.5,10.9,10.9,0,0,0,5,1.3,7.6,7.6,0,0,0,6.4-3.2c1.6-2.1,2.4-5.1,2.5-9a8.8,8.8,0,0,1-3.5,3.4,12,12,0,0,1-5.4,1.3,15.9,15.9,0,0,1-5.9-1.1,13.5,13.5,0,0,1-4.7-3,13.3,13.3,0,0,1-3.1-4.6,13.1,13.1,0,0,1-1.2-5.6,14.3,14.3,0,0,1,1.2-5.8,15.4,15.4,0,0,1,3.3-4.7,14.6,14.6,0,0,1,4.9-3.1,15.9,15.9,0,0,1,6.2-1.2,17.1,17.1,0,0,1,6.5,1.3,13.3,13.3,0,0,1,4.9,3.9,18.6,18.6,0,0,1,3.2,6.1,29.8,29.8,0,0,1,1.1,8.3A39.9,39.9,0,0,1,860.6,437.4Zm36.1-5.9a15.9,15.9,0,0,1-3.2,5.7,13.8,13.8,0,0,1-4.9,3.8,14.4,14.4,0,0,1-12.4,0,13.8,13.8,0,0,1-4.9-3.8,15.9,15.9,0,0,1-3.2-5.7,22.8,22.8,0,0,1,0-14.6,15.9,15.9,0,0,1,3.2-5.7,15.4,15.4,0,0,1,4.9-3.9,15.4,15.4,0,0,1,12.4,0,15.4,15.4,0,0,1,4.9,3.9,15.9,15.9,0,0,1,3.2,5.7,22.8,22.8,0,0,1,0,14.6Zm36.9,0a15.9,15.9,0,0,1-3.2,5.7,13.8,13.8,0,0,1-4.9,3.8,14.4,14.4,0,0,1-12.4,0,13.8,13.8,0,0,1-4.9-3.8,15.9,15.9,0,0,1-3.2-5.7,22.8,22.8,0,0,1,0-14.6,15.9,15.9,0,0,1,3.2-5.7,15.4,15.4,0,0,1,4.9-3.9,15.4,15.4,0,0,1,12.4,0,15.4,15.4,0,0,1,4.9,3.9,15.9,15.9,0,0,1,3.2,5.7,22.8,22.8,0,0,1,0,14.6Z" fill="#ff8900"/><path d="M924.6,416.3a6.9,6.9,0,0,0-2.3-2.2,6,6,0,0,0-6,0,8.3,8.3,0,0,0-2.4,2.2,9.3,9.3,0,0,0-1.5,3.5,16.4,16.4,0,0,0,0,8.8,9.5,9.5,0,0,0,1.5,3.4,7.1,7.1,0,0,0,2.4,2.2,6,6,0,0,0,6,0,6,6,0,0,0,2.3-2.2,11.9,11.9,0,0,0,1.6-3.4,19.6,19.6,0,0,0,0-8.8A11.3,11.3,0,0,0,924.6,416.3Z" fill="#ff8900"/><path d="M887.7,416.3a6.9,6.9,0,0,0-2.3-2.2,6,6,0,0,0-6,0,8.3,8.3,0,0,0-2.4,2.2,9.3,9.3,0,0,0-1.5,3.5,16.4,16.4,0,0,0,0,8.8A9.5,9.5,0,0,0,877,432a7.1,7.1,0,0,0,2.4,2.2,6,6,0,0,0,6,0,6,6,0,0,0,2.3-2.2,11.9,11.9,0,0,0,1.6-3.4,19.6,19.6,0,0,0,0-8.8A11.3,11.3,0,0,0,887.7,416.3Z" fill="#ff8900"/><path d="M650.4,159.3a8,8,0,0,0-2.3-2.2,6.1,6.1,0,0,0-3-.8,6.8,6.8,0,0,0-3.1.8,6.9,6.9,0,0,0-2.3,2.2,11.3,11.3,0,0,0-1.6,3.5,19.6,19.6,0,0,0,0,8.8,11.9,11.9,0,0,0,1.6,3.4,6,6,0,0,0,2.3,2.2,6.8,6.8,0,0,0,3.1.8,6.1,6.1,0,0,0,3-.8,6.8,6.8,0,0,0,2.3-2.2,9.5,9.5,0,0,0,1.5-3.4,16.4,16.4,0,0,0,0-8.8A9.3,9.3,0,0,0,650.4,159.3Z" fill="#ff5000"/><path d="M572.1,149.4a3.1,3.1,0,0,0-2,.5,3,3,0,0,0-1.3,1.2,5.1,5.1,0,0,0-.7,1.7,6.9,6.9,0,0,0-.3,2V157h7.7v-3.9c0-.3.1-.7.1-1.1s.1-.7.2-1a3.1,3.1,0,0,0,.2-.8,6,6,0,0,0-1.9-.6A7.5,7.5,0,0,0,572.1,149.4Z" fill="#ff5000"/><path d="M687.3,159.3a8,8,0,0,0-2.3-2.2,6.1,6.1,0,0,0-3-.8,6.8,6.8,0,0,0-3.1.8,6.9,6.9,0,0,0-2.3,2.2,11.3,11.3,0,0,0-1.6,3.5,19.6,19.6,0,0,0,0,8.8,11.9,11.9,0,0,0,1.6,3.4,6,6,0,0,0,2.3,2.2,6.8,6.8,0,0,0,3.1.8,6.1,6.1,0,0,0,3-.8,6.8,6.8,0,0,0,2.3-2.2,9.5,9.5,0,0,0,1.5-3.4,16.4,16.4,0,0,0,0-8.8A9.3,9.3,0,0,0,687.3,159.3Z" fill="#ff5000"/><polygon points="527.6 167.6 534.8 167.6 536.7 159.3 529.5 159.3 527.6 167.6" fill="#ff5000"/><path d="M471,85V249H836V85Zm80.9,74.3h-8.7l-2,8.3H549v6h-9.3L537,184.8h-6.5l2.8-11.2h-7.2l-2.7,11.2h-6.5l2.8-11.2H513v-6h8.1l2-8.3h-7.3v-5.6h8.7l2.8-11.5h6.5l-2.9,11.5h7.2l2.8-11.5h6.5l-2.9,11.5h7.4Zm40.6-11-1.9-.8a8.8,8.8,0,0,0-2.4-.3,4.2,4.2,0,0,0-3.6,1.7,7.1,7.1,0,0,0-1.1,3.9V157h8.3v6.2h-8.3v21.6h-8V163.2h-7.7v21.6h-8V163.2h-4.1V157h4.1v-1.9a16.3,16.3,0,0,1,.7-5,13.9,13.9,0,0,1,2.1-4,9.3,9.3,0,0,1,3.3-2.6,11.5,11.5,0,0,1,4.6-1,17.4,17.4,0,0,1,3.9.5,24.3,24.3,0,0,1,3.8,1.3,10.9,10.9,0,0,1,3.5-2.9,10.5,10.5,0,0,1,4.9-1,13.1,13.1,0,0,1,4.1.6l3.5,1.2Zm31,36.9a12.5,12.5,0,0,1-3.3,4.5,14.8,14.8,0,0,1-5,3,17.9,17.9,0,0,1-6.2,1,16.8,16.8,0,0,1-8.4-2,13.3,13.3,0,0,1-5.6-5.4l4.6-4.8a15.1,15.1,0,0,0,4.2,3.8,10.8,10.8,0,0,0,5.2,1.3,7.2,7.2,0,0,0,5.3-1.9,6.7,6.7,0,0,0,2.1-5.2,6.5,6.5,0,0,0-1.9-5,6.9,6.9,0,0,0-5-2,7.4,7.4,0,0,0-6.4,3.4h-7c0-.1.1-.6.2-1.4a26,26,0,0,0,.6-3c.3-1.2.5-2.5.8-4l.9-4.6,2.4-12.4h21v7.3H606.8l-1.7,9.6a5.4,5.4,0,0,1,2.1-1.3,11.8,11.8,0,0,1,3.5-.5,16.3,16.3,0,0,1,5.5,1,13.7,13.7,0,0,1,4.5,2.8,12.6,12.6,0,0,1,2.9,4.3,14.7,14.7,0,0,1,1.1,5.6A14.1,14.1,0,0,1,623.5,185.2Zm35.9-10.7a19.6,19.6,0,0,1-3.2,5.7,14.2,14.2,0,0,1-5,3.8,14,14,0,0,1-6.1,1.4,14.4,14.4,0,0,1-6.2-1.4,13,13,0,0,1-4.9-3.8,17.8,17.8,0,0,1-3.3-5.7,24.8,24.8,0,0,1,0-14.6,17.8,17.8,0,0,1,3.3-5.7,13.7,13.7,0,0,1,11.1-5.2,13.9,13.9,0,0,1,6.1,1.3,15.8,15.8,0,0,1,5,3.9,19.6,19.6,0,0,1,3.2,5.7,22.8,22.8,0,0,1,0,14.6Zm36.9,0a19.6,19.6,0,0,1-3.2,5.7,14.2,14.2,0,0,1-5,3.8,14,14,0,0,1-6.1,1.4,14.4,14.4,0,0,1-6.2-1.4,13,13,0,0,1-4.9-3.8,17.8,17.8,0,0,1-3.3-5.7,24.8,24.8,0,0,1,0-14.6,17.8,17.8,0,0,1,3.3-5.7A13.7,13.7,0,0,1,682,149a13.9,13.9,0,0,1,6.1,1.3,15.8,15.8,0,0,1,5,3.9,19.6,19.6,0,0,1,3.2,5.7,22.8,22.8,0,0,1,0,14.6Zm36.9,0a19.6,19.6,0,0,1-3.2,5.7,14.2,14.2,0,0,1-5,3.8,14,14,0,0,1-6.1,1.4,14.4,14.4,0,0,1-6.2-1.4,13,13,0,0,1-4.9-3.8,17.8,17.8,0,0,1-3.3-5.7,24.8,24.8,0,0,1,0-14.6,17.8,17.8,0,0,1,3.3-5.7,13.7,13.7,0,0,1,11.1-5.2,13.9,13.9,0,0,1,6.1,1.3,15.8,15.8,0,0,1,5,3.9,19.6,19.6,0,0,1,3.2,5.7,22.8,22.8,0,0,1,0,14.6Z" fill="#ff5000"/><path d="M724.2,159.3a8,8,0,0,0-2.3-2.2,6.1,6.1,0,0,0-3-.8,6.8,6.8,0,0,0-3.1.8,6.9,6.9,0,0,0-2.3,2.2,11.3,11.3,0,0,0-1.6,3.5,19.6,19.6,0,0,0,0,8.8,11.9,11.9,0,0,0,1.6,3.4,6,6,0,0,0,2.3,2.2,6.8,6.8,0,0,0,3.1.8,6.1,6.1,0,0,0,3-.8,6.8,6.8,0,0,0,2.3-2.2,9.5,9.5,0,0,0,1.5-3.4,16.4,16.4,0,0,0,0-8.8A9.3,9.3,0,0,0,724.2,159.3Z" fill="#ff5000"/><path d="M1020.5,169.8a8.1,8.1,0,0,0-5.1,1.4,4.2,4.2,0,0,0-2,3.6,4.7,4.7,0,0,0,1.6,3.4,6,6,0,0,0,3.8,1.3,10,10,0,0,0,3.9-.7,7.7,7.7,0,0,0,2.9-1.9,3.2,3.2,0,0,0,1.3-2.3V171a15.8,15.8,0,0,0-3.1-.9Z" fill="#ffa600"/><path d="M983.1,149.4a3.1,3.1,0,0,0-2,.5,3,3,0,0,0-1.3,1.2,5.1,5.1,0,0,0-.7,1.7,6.9,6.9,0,0,0-.3,2V157h7.7v-3.9c0-.3.1-.7.1-1.1s.1-.7.2-1a3.1,3.1,0,0,0,.2-.8,6,6,0,0,0-1.9-.6A7.5,7.5,0,0,0,983.1,149.4Z" fill="#ffa600"/><path d="M1063,165a7.2,7.2,0,0,0-2.5-1.6,7.3,7.3,0,0,0-3-.6,8.1,8.1,0,0,0-5.6,2.2,13.8,13.8,0,0,0-1.7,2.5,8.1,8.1,0,0,0-.6,3.1,8.5,8.5,0,0,0,.6,3.1,8.8,8.8,0,0,0,1.8,2.5,8.1,8.1,0,0,0,2.4,1.7,6.7,6.7,0,0,0,3.1.7,7.3,7.3,0,0,0,3-.6,8.8,8.8,0,0,0,2.5-1.8,7.7,7.7,0,0,0,2.3-5.6,8.1,8.1,0,0,0-.6-3.1A10.1,10.1,0,0,0,1063,165Z" fill="#ffa600"/><path d="M1099.2,159.3a8,8,0,0,0-2.3-2.2,6.1,6.1,0,0,0-3-.8,6.8,6.8,0,0,0-3.1.8,6.9,6.9,0,0,0-2.3,2.2,11.3,11.3,0,0,0-1.6,3.5,19.6,19.6,0,0,0,0,8.8,11.9,11.9,0,0,0,1.6,3.4,6,6,0,0,0,2.3,2.2,6.8,6.8,0,0,0,3.1.8,6.1,6.1,0,0,0,3-.8,6.8,6.8,0,0,0,2.3-2.2,9.5,9.5,0,0,0,1.5-3.4,16.4,16.4,0,0,0,0-8.8A9.3,9.3,0,0,0,1099.2,159.3Z" fill="#ffa600"/><polygon points="938.6 167.6 945.8 167.6 947.7 159.3 940.5 159.3 938.6 167.6" fill="#ffa600"/><path d="M882,85V249h391V85Zm80.9,74.3h-8.7l-2,8.3H960v6h-9.3L948,184.8h-6.5l2.8-11.2h-7.2l-2.7,11.2h-6.5l2.8-11.2H924v-6h8.1l2-8.3h-7.3v-5.6h8.7l2.8-11.5h6.5l-2.9,11.5h7.2l2.8-11.5h6.5l-2.9,11.5h7.4Zm40.6-11-1.9-.8a8.8,8.8,0,0,0-2.4-.3,4.2,4.2,0,0,0-3.6,1.7,7.1,7.1,0,0,0-1.1,3.9V157h8.3v6.2h-8.3v21.6h-8V163.2h-7.7v21.6h-8V163.2h-4.1V157h4.1v-1.9a16.3,16.3,0,0,1,.7-5,13.9,13.9,0,0,1,2.1-4,9.3,9.3,0,0,1,3.3-2.6,11.5,11.5,0,0,1,4.6-1,17.4,17.4,0,0,1,3.9.5,24.3,24.3,0,0,1,3.8,1.3,10.9,10.9,0,0,1,3.5-2.9,10.5,10.5,0,0,1,4.9-1,13.1,13.1,0,0,1,4.1.6l3.5,1.2Zm33.6,36.5-2.2.3h-1.7a5.5,5.5,0,0,1-3.4-1,4.6,4.6,0,0,1-1.5-2.7l-.2-1.8a12.8,12.8,0,0,1-5.1,4.2,14.3,14.3,0,0,1-6.4,1.5,11.8,11.8,0,0,1-4.3-.8,9.8,9.8,0,0,1-3.4-2.1,10,10,0,0,1-2.3-3.1,10.2,10.2,0,0,1-.8-4,8.3,8.3,0,0,1,1-4.1,9.5,9.5,0,0,1,2.8-3.2,12.7,12.7,0,0,1,4.2-2.1,18.1,18.1,0,0,1,5.4-.7,27.3,27.3,0,0,1,4.1.3,18.9,18.9,0,0,1,3.6,1.1v-1.8a6.2,6.2,0,0,0-1.8-4.8c-1.2-1.2-2.9-1.7-5.2-1.7a14.3,14.3,0,0,0-5,.9,26,26,0,0,0-4.9,2.6l-2.4-5.1a22.9,22.9,0,0,1,13-4c4.6,0,8.1,1.1,10.6,3.3s3.7,5.5,3.7,9.7v9.7a2.6,2.6,0,0,0,.5,1.8,2.1,2.1,0,0,0,1.7.6Zm34.7-8.4a14.3,14.3,0,0,1-3.3,4.7,13.7,13.7,0,0,1-4.9,3.1,15.4,15.4,0,0,1-6.1,1.2,16.7,16.7,0,0,1-6.5-1.3,13.6,13.6,0,0,1-5-3.9,18.5,18.5,0,0,1-3.1-6.1,26.5,26.5,0,0,1-1.1-8.3,40.2,40.2,0,0,1,1.1-10.3,25.8,25.8,0,0,1,3.3-7.5,15.2,15.2,0,0,1,5.2-4.6,15.5,15.5,0,0,1,6.9-1.5,17.1,17.1,0,0,1,7.4,1.7,16.3,16.3,0,0,1,5.8,5l-4.7,5a9.6,9.6,0,0,0-3.7-3.5,10.6,10.6,0,0,0-5-1.3,7.8,7.8,0,0,0-6.4,3.2c-1.5,2.1-2.4,5.1-2.4,9a8.2,8.2,0,0,1,3.5-3.4,12,12,0,0,1,5.4-1.3,15.8,15.8,0,0,1,5.8,1.1,13.9,13.9,0,0,1,4.8,3,13.8,13.8,0,0,1,4.2,10.2A14.3,14.3,0,0,1,1071.8,176.4Zm36.4-1.9a19.6,19.6,0,0,1-3.2,5.7,14.2,14.2,0,0,1-5,3.8,14,14,0,0,1-6.1,1.4,14.4,14.4,0,0,1-6.2-1.4,13,13,0,0,1-4.9-3.8,17.8,17.8,0,0,1-3.3-5.7,24.8,24.8,0,0,1,0-14.6,17.8,17.8,0,0,1,3.3-5.7,13.7,13.7,0,0,1,11.1-5.2,13.9,13.9,0,0,1,6.1,1.3,15.8,15.8,0,0,1,5,3.9,19.6,19.6,0,0,1,3.2,5.7,22.8,22.8,0,0,1,0,14.6Zm36.9,0a19.6,19.6,0,0,1-3.2,5.7,14.2,14.2,0,0,1-5,3.8,14,14,0,0,1-6.1,1.4,14.4,14.4,0,0,1-6.2-1.4,13,13,0,0,1-4.9-3.8,17.8,17.8,0,0,1-3.3-5.7,24.8,24.8,0,0,1,0-14.6,17.8,17.8,0,0,1,3.3-5.7,13.7,13.7,0,0,1,11.1-5.2,13.9,13.9,0,0,1,6.1,1.3,15.8,15.8,0,0,1,5,3.9,19.6,19.6,0,0,1,3.2,5.7,22.8,22.8,0,0,1,0,14.6Z" fill="#ffa600"/><path d="M1136.1,159.3a8,8,0,0,0-2.3-2.2,6.1,6.1,0,0,0-3-.8,6.8,6.8,0,0,0-3.1.8,6.9,6.9,0,0,0-2.3,2.2,11.3,11.3,0,0,0-1.6,3.5,19.6,19.6,0,0,0,0,8.8,11.9,11.9,0,0,0,1.6,3.4,6,6,0,0,0,2.3,2.2,6.8,6.8,0,0,0,3.1.8,6.1,6.1,0,0,0,3-.8,6.8,6.8,0,0,0,2.3-2.2,9.5,9.5,0,0,0,1.5-3.4,16.4,16.4,0,0,0,0-8.8A9.3,9.3,0,0,0,1136.1,159.3Z" fill="#ffa600"/><path d="M243.3,159.3a6.9,6.9,0,0,0-2.3-2.2,6,6,0,0,0-6,0,8.3,8.3,0,0,0-2.4,2.2,9.3,9.3,0,0,0-1.5,3.5,16.4,16.4,0,0,0,0,8.8,9.5,9.5,0,0,0,1.5,3.4,7.1,7.1,0,0,0,2.4,2.2,6,6,0,0,0,6,0,6,6,0,0,0,2.3-2.2,11.9,11.9,0,0,0,1.6-3.4,19.6,19.6,0,0,0,0-8.8A11.3,11.3,0,0,0,243.3,159.3Z" fill="#e1001e"/><path d="M206.4,159.3a6.9,6.9,0,0,0-2.3-2.2,6,6,0,0,0-6,0,8.3,8.3,0,0,0-2.4,2.2,9.3,9.3,0,0,0-1.5,3.5,16.4,16.4,0,0,0,0,8.8,9.5,9.5,0,0,0,1.5,3.4,7.1,7.1,0,0,0,2.4,2.2,6,6,0,0,0,6,0,6,6,0,0,0,2.3-2.2,11.9,11.9,0,0,0,1.6-3.4,19.6,19.6,0,0,0,0-8.8A11.3,11.3,0,0,0,206.4,159.3Z" fill="#e1001e"/><path d="M135.3,158.6a7.3,7.3,0,0,0-3,.6,7.2,7.2,0,0,0-2.5,1.6,10.8,10.8,0,0,0-1.8,2.4,11.6,11.6,0,0,0-.8,3.2h16.3a8,8,0,0,0-2.6-5.6A7.6,7.6,0,0,0,135.3,158.6Z" fill="#e1001e"/><path d="M34,85V249H425V85Zm80.9,74.3h-8.7l-2,8.3H112v6h-9.3L100,184.8H93.5l2.8-11.2H89.1l-2.7,11.2H79.9l2.8-11.2H76v-6h8.1l2-8.3H78.8v-5.6h8.7l2.8-11.5h6.5l-2.9,11.5h7.2l2.8-11.5h6.5l-2.9,11.5h7.4Zm36.9,11.1a3.7,3.7,0,0,1-.2,1.2H127.3a13.1,13.1,0,0,0,.9,3.3,7.9,7.9,0,0,0,1.9,2.5,8.7,8.7,0,0,0,2.6,1.6,9.4,9.4,0,0,0,3,.5,8.9,8.9,0,0,0,4.5-1.2,6.2,6.2,0,0,0,2.9-3.1l6.9,2a14.1,14.1,0,0,1-5.5,5.9,17.8,17.8,0,0,1-9.1,2.3,19.3,19.3,0,0,1-6.9-1.3,17,17,0,0,1-5.2-3.5,16.5,16.5,0,0,1-3.3-5.2,15.9,15.9,0,0,1-1.2-6.2,16.8,16.8,0,0,1,1.2-6.3,13.6,13.6,0,0,1,3.3-5.2,15.1,15.1,0,0,1,5.2-3.6,17.3,17.3,0,0,1,6.9-1.3,16.7,16.7,0,0,1,6.9,1.3,17.3,17.3,0,0,1,5.2,3.6,14.2,14.2,0,0,1,3.2,5.1,18.3,18.3,0,0,1,1.1,6.1Zm29.5,14.4H156.9v-7.3h8.5V159.3a5.9,5.9,0,0,1-1.6,1.5,15.9,15.9,0,0,1-2.6,1.4,13.6,13.6,0,0,1-2.8,1.1,9.3,9.3,0,0,1-2.7.4v-7.5a6.7,6.7,0,0,0,2.7-.7,21.9,21.9,0,0,0,3-1.6l2.7-1.9a4,4,0,0,0,1.3-1.5h8.3v27h7.6Zm34.1-10.3a15.9,15.9,0,0,1-3.2,5.7,13.8,13.8,0,0,1-4.9,3.8,14.4,14.4,0,0,1-12.4,0,13.8,13.8,0,0,1-4.9-3.8,15.9,15.9,0,0,1-3.2-5.7,22.8,22.8,0,0,1,0-14.6,15.9,15.9,0,0,1,3.2-5.7,15.4,15.4,0,0,1,4.9-3.9,15.4,15.4,0,0,1,12.4,0,15.4,15.4,0,0,1,4.9,3.9,15.9,15.9,0,0,1,3.2,5.7,22.8,22.8,0,0,1,0,14.6Zm36.9,0a15.9,15.9,0,0,1-3.2,5.7,13.8,13.8,0,0,1-4.9,3.8,14.4,14.4,0,0,1-12.4,0,13.8,13.8,0,0,1-4.9-3.8,15.9,15.9,0,0,1-3.2-5.7,22.8,22.8,0,0,1,0-14.6,15.9,15.9,0,0,1,3.2-5.7,15.4,15.4,0,0,1,4.9-3.9,15.4,15.4,0,0,1,12.4,0,15.4,15.4,0,0,1,4.9,3.9,15.9,15.9,0,0,1,3.2,5.7,22.8,22.8,0,0,1,0,14.6Zm32.3,10.3H260.2v-7.3h8.6V159.3a8.6,8.6,0,0,1-1.7,1.5,20.1,20.1,0,0,1-2.5,1.4,17.2,17.2,0,0,1-2.9,1.1,9.3,9.3,0,0,1-2.7.4v-7.5a6.3,6.3,0,0,0,2.7-.7,21.9,21.9,0,0,0,3-1.6l2.7-1.9a6,6,0,0,0,1.4-1.5H277v27h7.6Zm36-14.4a4.1,4.1,0,0,1-.1,1.2H296.2a8,8,0,0,0,.9,3.3,9.4,9.4,0,0,0,1.8,2.5,10.1,10.1,0,0,0,2.6,1.6,10.5,10.5,0,0,0,3,.5,8.9,8.9,0,0,0,4.5-1.2,6.4,6.4,0,0,0,3-3.1l6.9,2a15,15,0,0,1-5.6,5.9,17.6,17.6,0,0,1-9.1,2.3,18.3,18.3,0,0,1-6.8-1.3,14.9,14.9,0,0,1-5.2-3.5,15.1,15.1,0,0,1-3.4-5.2,15.9,15.9,0,0,1-1.1-6.2,16.7,16.7,0,0,1,1.1-6.3,16.5,16.5,0,0,1,3.3-5.2,16.1,16.1,0,0,1,5.2-3.6,17.5,17.5,0,0,1,7-1.3,16.5,16.5,0,0,1,6.8,1.3,15.1,15.1,0,0,1,5.2,3.6,14.2,14.2,0,0,1,3.2,5.1,16.2,16.2,0,0,1,1.2,6.1C320.7,169.5,320.6,170,320.6,170.4Z" fill="#e1001e"/><path d="M304.2,158.6a8.1,8.1,0,0,0-3.1.6,9.6,9.6,0,0,0-2.5,1.6,8.1,8.1,0,0,0-1.7,2.4,7.2,7.2,0,0,0-.8,3.2h16.3a8.4,8.4,0,0,0-2.6-5.6A7.8,7.8,0,0,0,304.2,158.6Z" fill="#e1001e"/><polygon points="90.6 167.6 97.8 167.6 99.7 159.3 92.5 159.3 90.6 167.6" fill="#e1001e"/></svg>