<svg height="9in" viewBox="0 0 1459.2 645.9" width="20.3in" xmlns="http://www.w3.org/2000/svg" xmlns:xlink="http://www.w3.org/1999/xlink"><clipPath id="a"><rect height="116" rx="18.3" width="116" x="76.6" y="152.7"/></clipPath><clipPath id="b"><rect height="116" rx="18.3" width="116" x="300.9" y="152.7"/></clipPath><clipPath id="c"><rect height="116" rx="18.3" width="116" x="531.7" y="152.7"/></clipPath><g fill="#fff"><path d="m841.7 146.1a68 68 0 1 0 68 68 68.1 68.1 0 0 0 -68-68zm37 73.7h-6.8a31.8 31.8 0 0 1 -4.8 11.7l4.8 4.8-8.1 8-4.7-4.7a30.8 30.8 0 0 1 -11.8 4.9v6.6h-11.4v-6.6a31.8 31.8 0 0 1 -11.7-4.8l-4.7 4.6-8-8 4.6-4.7a30.8 30.8 0 0 1 -4.9-11.8h-6.5v-11.4h6.5a30.8 30.8 0 0 1 4.9-11.8l-4.6-4.6 8-8 4.7 4.6a31.8 31.8 0 0 1 11.7-4.8v-6.7h11.4v6.7a29.8 29.8 0 0 1 11.7 4.9l4.8-4.7 8.1 8-4.8 4.8a31.4 31.4 0 0 1 4.8 11.6h6.8z"/><path d="m839.6 193a22.3 22.3 0 1 0 24.1 24 22.4 22.4 0 0 0 -24.1-24z"/><path d="m1089.7 146.1a68 68 0 1 0 68 68 68 68 0 0 0 -68-68zm31.5 99.5h-63.1v-9.2h63.1zm0-17.9h-63.1v-9.2h63.1zm0-17.9h-63.1v-9.2h63.1zm0-17.9h-63.1v-9.2h63.1z"/><path d="m1343.6 146.1a68 68 0 1 0 68 68 68.1 68.1 0 0 0 -68-68zm29.7 63.5a6.3 6.3 0 0 1 -6.3 6.3h-8.1a13 13 0 0 1 -11.1 6.1h-1.5v20h14.4v5.3h-34.1v-5.3h14.4v-20h-1.5a13 13 0 0 1 -11.1-6.1h-8.2a6.3 6.3 0 0 1 -6.3-6.3v-16.2a6.4 6.4 0 0 1 6.3-6.4h6.3v-1.3a4.8 4.8 0 0 1 4.7-4.8h24.9a4.8 4.8 0 0 1 4.7 4.8v1.3h6.2a6.4 6.4 0 0 1 6.3 6.4z"/><path d="m1364.8 192.2h-4v16.8a9.7 9.7 0 0 1 -.1 1.7h4.1a3.4 3.4 0 0 0 3.4-3.4v-11.7a3.4 3.4 0 0 0 -3.4-3.4z"/><path d="m1326.5 192.2h-4.1a3.4 3.4 0 0 0 -3.3 3.4v11.7a3.4 3.4 0 0 0 3.3 3.4h4.2a9.7 9.7 0 0 1 -.1-1.7z"/><path d="m134.8 445.9a7 7 0 0 1 -7 7 7.1 7.1 0 0 1 -7-7.1c.1-6.1-3.2-7.1-5.1-7.1-.2 0-4.4-.1-4.5 3.5-.3 5.8-.5 13.9-.6 23.1h4.2a7 7 0 1 1 0 14h-4.3v23.7c0 12.6-10.4 20.1-20.4 20.1a17.9 17.9 0 0 1 -12.2-4.4 17.3 17.3 0 0 1 -5.7-13.3 7 7 0 0 1 14 0c0 2 .7 2.6.9 2.8a4.7 4.7 0 0 0 3 .9c2.2 0 6.4-1.3 6.4-6.1v-23.7h-4.8a7 7 0 0 1 0-14h4.9c.1-9.4.3-17.8.6-23.8.5-9.9 8.6-17.1 18.9-16.8s18.8 7 18.7 21.2z"/><ellipse cx="442.1" cy="469.8" rx="18" ry="17.4"/><ellipse cx="389.4" cy="495.5" rx="18" ry="17.4"/></g><path d="m401.4 495.2v-58h52.7v30.4" fill="none"/><path d="m406.4 495.2h-10v-63h62.7v35.4h-10v-25.4h-42.7z" fill="#fff"/><circle cx="1065" cy="482.2" fill="#fff" r="20.3"/><path d="m1076.6 492.8v-62.7h9v50.7c0 6.6-2.4 12-9 12z" fill="#fff"/><path d="m1392.2 429.9h-67.3a6.7 6.7 0 0 0 -6.7 6.7v68.2a6.7 6.7 0 0 0 6.7 6.7h67.3a6.7 6.7 0 0 0 6.7-6.7v-68.2a6.7 6.7 0 0 0 -6.7-6.7zm-6.1 71.3h-55.5v-27.3h55.5zm0-33.8h-55.5v-8.5h55.5zm0-16h-55.5v-8.5h55.5z" fill="#fff"/><path d="m740.7 473.8-3.1 5.4h-7l-.2-18.7h10.4c11.7-.2 15.1-4.1 15.1-9.7s-2.5-12.2-14.3-12.2-15 5.3-15 13.6h-12c0-16.8 4.4-25.5 27.1-25.5s27.6 9.3 27.6 23.6c0 18.9-18.1 23.3-28.6 23.5zm-6.6 27c-5.7 0-9.7-1.7-9.7-7.9s4-7.8 9.7-7.8 9.5 1.6 9.5 7.8-4 7.9-9.5 7.9z" fill="#fff"/><g clip-path="url(#a)"><path d="m63.1 140.9h153.2v173.28h-153.2z" fill="#bb033a"/><path d="m176.5 163.5c-.1 7.9-.2 35.2-.3 35.5l-6.2-3.7-20-11.7-6.2-3.7 30.8-17.5a1.2 1.2 0 0 1 1.9 1.1z" fill="#be612b"/><path d="m170.2 179.7-.2 15.6-20-11.7 13.7-7.7a4.3 4.3 0 0 1 6.5 3.8z" fill="#f4b984"/><path d="m91 162.2c0 7.9.2 35.3.3 35.6l6.2-3.7 20-11.8 6.1-3.6-30.8-17.5a1.2 1.2 0 0 0 -1.8 1z" fill="#be612b"/><path d="m97.2 178.5.3 15.6 20-11.8-13.7-7.7a4.5 4.5 0 0 0 -6.6 3.9z" fill="#f4b984"/><rect fill="#371a3e" height="21.34" rx="9.2" width="64.6" x="103.7" y="243.4"/><path d="m121.7 242.4h29v24.66h-29z" fill="#be612b"/><path d="m179.7 216.9c0 25.9-18.2 35.3-43.7 35.3s-48.6-10-48.6-35.9c0-32.1 20.7-42.5 46.1-42.5s46.2 11.7 46.2 43.1z" fill="#f17b36"/><path d="m139.9 280.9h-7.7a.4.4 0 0 1 -.4-.4l-5.5-17.3a.9.9 0 0 1 .8-.8h17.8a.9.9 0 0 1 .9.8l-5.6 17.3c0 .2-.1.4-.3.4z" fill="#bb033a"/><g fill="#200f20"><path d="m134.9 283.6-31.4-7.7c-.2 0-.3-.2-.3-.5l.6-25.4c0-.2.2-.4.4-.3l14.6 3.3c11 2.4 18.4 16 16.5 30.3 0 .2-.2.4-.4.3z"/><path d="m137.3 283.5 30.4-7.6a.7.7 0 0 0 .4-.7l.2-25.5a.5.5 0 0 0 -.5-.5l-14.4 3.2c-11.1 2.5-18.5 16.3-16.6 30.7 0 .3.3.5.5.4z"/><path d="m171.4 224a.5.5 0 0 1 .1-.8l10.5-9.5a.5.5 0 0 1 .7 0 .6.6 0 0 1 0 .8l-10.5 9.5a.6.6 0 0 1 -.8 0z"/><path d="m173.1 226.7a.6.6 0 0 1 .5-.6h14.2a.5.5 0 0 1 .5.5.5.5 0 0 1 -.5.5h-14.2a.5.5 0 0 1 -.5-.4z"/><path d="m172.5 229.5a.6.6 0 0 1 .8 0l9.5 10.5a.6.6 0 0 1 -.1.7.5.5 0 0 1 -.7 0l-9.5-10.5a.5.5 0 0 1 0-.7z"/><path d="m95.4 224.4a.6.6 0 0 0 0-.8l-10.6-9.5a.5.5 0 0 0 -.7 0 .6.6 0 0 0 0 .8l10.6 9.5a.5.5 0 0 0 .7 0z"/><path d="m93.7 227.1a.5.5 0 0 0 -.5-.6h-14.2a.5.5 0 0 0 -.5.5c0 .3.2.6.5.5h14.2a.5.5 0 0 0 .5-.4z"/><path d="m94.3 229.9a.5.5 0 0 0 -.7 0l-9.5 10.5a.5.5 0 0 0 0 .7.6.6 0 0 0 .8 0l9.5-10.5a.6.6 0 0 0 -.1-.7z"/><path d="m135.7 239.4c-4.5 0-7.8-1.1-9.7-3.4v-.2a1.1 1.1 0 0 1 .3-1.6 1.5 1.5 0 0 1 1.5.4c1.3 1.3 4.4 2.7 8 2.7 0 0 4.4.1 6.8-2.7a1.1 1.1 0 0 1 1.5-.2.9.9 0 0 1 .3 1.4c-3.3 3.8-8.7 3.6-8.7 3.6z"/></g><path d="m120.6 204.7a.5.5 0 0 1 -.6-.3c-1.2-2.1-2.7-3.1-4.3-3.2s-4.6 1.8-5.8 3.7a.7.7 0 0 1 -.9.2.7.7 0 0 1 -.1-.9c1.3-2 3.9-4.3 6.8-4.2s3.6.7 5.3 3.8a.7.7 0 0 1 -.2.9z"/><path d="m150 205h-.3a.7.7 0 0 1 -.1-.9c1.4-1.9 4-4.2 6.9-4s3.6.8 5.3 4a.7.7 0 0 1 -.3.8.5.5 0 0 1 -.8-.2c-1.2-2.2-2.6-3.3-4.2-3.4s-4.6 1.7-5.9 3.6c-.2.1-.4.2-.6.1z"/><path d="m172.4 205.5a3.3 3.3 0 1 1 3.3-3.3 3.3 3.3 0 0 1 -3.3 3.3zm0-5.1a1.8 1.8 0 0 0 -1.7 1.8 1.8 1.8 0 0 0 1.7 1.7 1.8 1.8 0 0 0 1.8-1.7 1.8 1.8 0 0 0 -1.8-1.8z" fill="#200f20"/><path d="m176.4 208.4a3.3 3.3 0 1 1 3.3-3.3 3.4 3.4 0 0 1 -3.3 3.3zm0-5a1.7 1.7 0 1 0 0 3.4 1.7 1.7 0 1 0 0-3.4z" fill="#200f20"/><path d="m179.3 212.4a3.3 3.3 0 0 1 -3.4-3.3 3.4 3.4 0 0 1 6.7 0 3.3 3.3 0 0 1 -3.3 3.3zm0-5a1.8 1.8 0 0 0 -1.8 1.7 1.8 1.8 0 0 0 1.8 1.8 1.8 1.8 0 0 0 1.7-1.8 1.8 1.8 0 0 0 -1.7-1.7z" fill="#200f20"/><circle cx="157" cy="199.4" fill="#5dbfcd" opacity=".5" r="13.3"/><path d="m157 214a14.6 14.6 0 1 1 14.5-14.6 14.6 14.6 0 0 1 -14.5 14.6zm0-26.7a12.1 12.1 0 1 0 12.1 12.1 12.2 12.2 0 0 0 -12.1-12.1z" fill="#200f20"/><path d="m109.5 226.1c.9-1.3-.9-2.7-.7-3.3a2.4 2.4 0 0 1 3-.8c2.2 1.2 6 3.9 6 3.9s.2.1.1.4a2 2 0 0 1 -.1.5h.4l.5-.3h.3l.4.3c.3.1 5.1 3.9 6.5 4s3.1-.6 4-2.6a3.8 3.8 0 0 0 .2-2.6c-.1-.5-1.5-2.2-2.3-1.1s.3 1.8.5 2 .8.8.7 1.4-1.1 2.7-6.1-.7l-2.5-1.8-.5-.3v-.1c-.1-.1 0-.4 0-.5s.1-.4 0-.4l-.5.3c-.3.3-.8-.2-3.1-1.9a9.3 9.3 0 0 0 -4-1.9c-1.6-.2-3.5.2-4.4 1.6a4.3 4.3 0 0 0 -.7 2.8c.4 1.4 1.7 2 2.3 1.1z" fill="#be612b"/><path d="m160.4 226.5c-.9-1.3.9-2.7.7-3.3a2.2 2.2 0 0 0 -3-.8 57.7 57.7 0 0 0 -6 3.9c-.1 0-.2.1-.1.3s.1.5.1.6-.2 0-.4-.1l-.5-.3h-.3l-.4.3c-.3.2-5.1 4-6.5 4s-3.1-.6-4-2.5a4.1 4.1 0 0 1 -.2-2.7c.1-.4 1.5-2.2 2.3-1a1.3 1.3 0 0 1 -.5 1.9c-.3.4-.8.9-.7 1.4s1.1 2.7 6.1-.7l2.5-1.7.5-.3v-.2c.1-.1 0-.4-.1-.6s0-.3.1-.4l.5.3c.3.4.8-.1 3.1-1.9a10.5 10.5 0 0 1 4-1.8c1.6-.2 3.5.1 4.4 1.6a4 4 0 0 1 .7 2.7c-.4 1.6-1.7 2.2-2.3 1.3z" fill="#be612b"/><path d="m134.9 225.6c-2.8 0-7.7-5.4-10.1-8.4a4.4 4.4 0 0 1 1.5-6.8 6.5 6.5 0 0 1 2.1-.4h11.8a5.1 5.1 0 0 1 4.8 3.2 3.4 3.4 0 0 1 -.4 3.1c-1.9 2.6-6.8 9.2-9.7 9.3z" fill="#0b0d14"/></g><g clip-path="url(#b)"><path d="m287.4 140.9h153.2v173.28h-153.2z" fill="#fff"/><path d="m400.8 163.5c-.1 7.9-.2 35.2-.3 35.5l-6.2-3.7-20-11.7-6.2-3.7 30.8-17.5a1.2 1.2 0 0 1 1.9 1.1z" stroke="#fff" stroke-miterlimit="10"/><path d="m394.5 179.7-.2 15.6-20-11.7 13.7-7.7a4.3 4.3 0 0 1 6.5 3.8z" fill="#fff" stroke="#000" stroke-miterlimit="10"/><path d="m315.3 162.2c0 7.9.2 35.3.3 35.6l6.2-3.7 20-11.8 6.1-3.6-30.8-17.5a1.2 1.2 0 0 0 -1.8 1z" stroke="#fff" stroke-miterlimit="10"/><path d="m321.5 178.5.3 15.6 20-11.8-13.7-7.7a4.5 4.5 0 0 0 -6.6 3.9z" fill="#fff" stroke="#000" stroke-miterlimit="10"/><rect height="21.34" rx="9.2" stroke="#fff" stroke-miterlimit="10" width="64.6" x="328" y="243.4"/><path d="m346 242.4h29v24.66h-29z" stroke="#fff" stroke-miterlimit="10"/><path d="m404 216.9c0 25.9-18.2 35.3-43.7 35.3s-48.6-10-48.6-35.9c0-32.1 20.7-42.5 46.1-42.5s46.2 11.7 46.2 43.1z"/><path d="m364.2 280.9h-7.7a.4.4 0 0 1 -.4-.4l-5.5-17.3a.9.9 0 0 1 .8-.8h17.9a.9.9 0 0 1 .8.8l-5.6 17.3c0 .2-.1.4-.3.4z" stroke="#fff" stroke-miterlimit="10"/><path d="m359.2 283.6-31.4-7.7c-.2 0-.3-.2-.3-.5l.6-25.4c0-.2.2-.4.4-.3l14.6 3.3c11 2.4 18.4 16 16.5 30.3 0 .2-.2.4-.4.3z" stroke="#fff" stroke-miterlimit="10"/><path d="m361.6 283.5 30.4-7.6a.7.7 0 0 0 .4-.7l.2-25.5a.5.5 0 0 0 -.5-.5l-14.4 3.2c-11.1 2.5-18.5 16.3-16.6 30.7 0 .3.3.5.5.4z" stroke="#fff" stroke-miterlimit="10"/><g fill="#fff"><path d="m395.7 224a.5.5 0 0 1 .1-.8l10.5-9.5a.5.5 0 0 1 .7 0 .6.6 0 0 1 0 .8l-10.5 9.5a.6.6 0 0 1 -.8 0z"/><path d="m397.4 226.7a.6.6 0 0 1 .5-.6h14.2a.5.5 0 0 1 .5.5.5.5 0 0 1 -.5.5h-14.2a.5.5 0 0 1 -.5-.4z"/><path d="m396.8 229.5a.6.6 0 0 1 .8 0l9.5 10.5a.6.6 0 0 1 -.1.7.5.5 0 0 1 -.7 0l-9.5-10.5a.5.5 0 0 1 0-.7z"/><path d="m319.7 224.4a.6.6 0 0 0 0-.8l-10.5-9.5a.6.6 0 0 0 -.8 0 .6.6 0 0 0 0 .8l10.6 9.5a.5.5 0 0 0 .7 0z"/><path d="m318 227.1a.5.5 0 0 0 -.5-.6h-14.2a.5.5 0 0 0 -.5.5c0 .3.2.6.5.5h14.2a.5.5 0 0 0 .5-.4z"/><path d="m318.6 229.9a.5.5 0 0 0 -.7 0l-9.5 10.5a.5.5 0 0 0 0 .7.6.6 0 0 0 .8 0l9.5-10.5a.6.6 0 0 0 -.1-.7z"/><path d="m360 239.4c-4.5 0-7.8-1.1-9.7-3.4v-.2a1.1 1.1 0 0 1 .3-1.6 1.5 1.5 0 0 1 1.5.4c1.3 1.3 4.4 2.7 8 2.7 0 0 4.4.1 6.9-2.7a1 1 0 0 1 1.4-.2.9.9 0 0 1 .3 1.4c-3.3 3.8-8.7 3.6-8.7 3.6z"/><path d="m344.9 204.7a.5.5 0 0 1 -.6-.3c-1.2-2.1-2.7-3.1-4.3-3.2s-4.6 1.8-5.8 3.7a.7.7 0 0 1 -.9.2.7.7 0 0 1 -.1-.9c1.3-2 3.9-4.3 6.8-4.2s3.6.7 5.3 3.8a.7.7 0 0 1 -.2.9z"/><path d="m374.3 205h-.3a.7.7 0 0 1 -.1-.9c1.4-1.9 4-4.2 6.9-4s3.6.8 5.3 4a.7.7 0 0 1 -.3.8.5.5 0 0 1 -.8-.2c-1.2-2.2-2.6-3.3-4.2-3.4s-4.6 1.7-5.9 3.6c-.2.1-.4.2-.6.1z"/><path d="m396.7 205.5a3.3 3.3 0 1 1 3.3-3.3 3.3 3.3 0 0 1 -3.3 3.3zm0-5.1a1.8 1.8 0 0 0 -1.7 1.8 1.8 1.8 0 0 0 1.7 1.7 1.8 1.8 0 0 0 1.8-1.7 1.8 1.8 0 0 0 -1.8-1.8z"/><path d="m400.7 208.4a3.3 3.3 0 1 1 3.3-3.3 3.4 3.4 0 0 1 -3.3 3.3zm0-5a1.7 1.7 0 1 0 0 3.4 1.7 1.7 0 1 0 0-3.4z"/><path d="m403.6 212.4a3.3 3.3 0 0 1 -3.4-3.3 3.4 3.4 0 0 1 6.7 0 3.3 3.3 0 0 1 -3.3 3.3zm0-5a1.8 1.8 0 0 0 -1.8 1.7 1.8 1.8 0 0 0 1.8 1.8 1.8 1.8 0 0 0 1.7-1.8 1.8 1.8 0 0 0 -1.7-1.7z"/><path d="m381.3 214a14.6 14.6 0 1 1 14.5-14.6 14.6 14.6 0 0 1 -14.5 14.6zm0-26.7a12.1 12.1 0 1 0 12.1 12.1 12.2 12.2 0 0 0 -12.1-12.1z"/><path d="m333.8 226.1c.9-1.3-.9-2.7-.7-3.3a2.4 2.4 0 0 1 3-.8c2.2 1.2 6 3.9 6 3.9s.2.1.1.4a2 2 0 0 1 -.1.5h.4l.5-.3h.3l.4.3c.3.1 5.1 3.9 6.5 4s3.1-.6 4-2.6a3.8 3.8 0 0 0 .2-2.6c-.1-.5-1.5-2.2-2.3-1.1s.3 1.8.5 2 .8.8.7 1.4-1.1 2.7-6.1-.7l-2.5-1.8-.5-.3v-.1c-.1-.1 0-.4.1-.5s0-.4-.1-.4l-.5.3c-.3.3-.8-.2-3.1-1.9a9.3 9.3 0 0 0 -4-1.9c-1.6-.2-3.5.2-4.4 1.6a4.3 4.3 0 0 0 -.7 2.8c.4 1.4 1.7 2 2.3 1.1z"/><path d="m384.7 226.5c-.9-1.3.9-2.7.7-3.3a2.2 2.2 0 0 0 -3-.8 57.7 57.7 0 0 0 -6 3.9c-.1 0-.2.1-.1.3s.1.5.1.6-.2 0-.4-.1l-.5-.3h-.3l-.4.3c-.3.2-5.1 4-6.5 4s-3.1-.6-4-2.5a4.1 4.1 0 0 1 -.2-2.7c.1-.4 1.5-2.2 2.3-1a1.3 1.3 0 0 1 -.5 1.9c-.3.4-.8.9-.7 1.4s1.1 2.7 6.1-.7l2.5-1.7.5-.3v-.2c.1-.1 0-.4-.1-.6s0-.3.1-.4l.5.3c.3.4.8-.1 3.1-1.9a10.5 10.5 0 0 1 4-1.8c1.6-.2 3.5.1 4.4 1.6a4 4 0 0 1 .7 2.7c-.4 1.6-1.7 2.2-2.3 1.3z"/><path d="m359.2 225.6c-2.8 0-7.7-5.4-10.1-8.4a4.4 4.4 0 0 1 1.5-6.8 6.5 6.5 0 0 1 2.1-.4h11.8a5.1 5.1 0 0 1 4.8 3.2 3.4 3.4 0 0 1 -.4 3.1c-1.9 2.6-6.8 9.2-9.7 9.3z"/></g></g><g clip-path="url(#c)"><path d="m518.1 140.9h153.2v173.28h-153.2z"/><path d="m631.6 163.5c-.1 7.9-.2 35.2-.3 35.5l-6.2-3.7-20-11.7-6.2-3.7 30.8-17.5a1.3 1.3 0 0 1 1.9 1.1z" fill="#fff"/><path d="m625.3 179.7-.2 15.6-20-11.7 13.7-7.7a4.3 4.3 0 0 1 6.5 3.8z"/><path d="m546.1 162.2c0 7.9.2 35.3.3 35.6l6.2-3.7 20-11.8 6.1-3.6-30.8-17.5a1.2 1.2 0 0 0 -1.8 1z" fill="#fff"/><path d="m552.3 178.5.3 15.6 20-11.8-13.8-7.7a4.4 4.4 0 0 0 -6.5 3.9z"/><rect height="21.34" rx="9.2" stroke="#fff" stroke-miterlimit="10" width="64.6" x="558.8" y="243.4"/><g fill="#fff"><path d="m576.8 242.4h29v24.66h-29z"/><path d="m634.7 216.9c0 25.9-18.1 35.3-43.6 35.3s-48.6-10-48.6-35.9c0-32.1 20.7-42.5 46.1-42.5s46.1 11.7 46.1 43.1z"/><path d="m595 280.9h-7.7a.4.4 0 0 1 -.4-.4l-5.6-17.3a.9.9 0 0 1 .9-.8h17.8a.9.9 0 0 1 .9.8l-5.6 17.3c0 .2-.1.4-.3.4z" stroke="#000" stroke-miterlimit="10"/></g><path d="m590 283.6-31.4-7.7c-.2 0-.3-.2-.3-.5l.5-25.4c.1-.2.3-.4.4-.3l14.7 3.3c11 2.4 18.4 16 16.5 30.3-.1.2-.2.4-.4.3z" stroke="#fff" stroke-miterlimit="10"/><path d="m592.4 283.5 30.4-7.6a.6.6 0 0 0 .3-.7l.3-25.5a.5.5 0 0 0 -.5-.5l-14.4 3.2c-11.1 2.5-18.5 16.3-16.6 30.7 0 .3.2.5.5.4z" stroke="#fff" stroke-miterlimit="10"/><path d="m626.5 224a.6.6 0 0 1 0-.8l10.6-9.5a.5.5 0 0 1 .7 0 .6.6 0 0 1 0 .8l-10.6 9.5a.5.5 0 0 1 -.7 0z"/><path d="m628.2 226.7a.6.6 0 0 1 .5-.6h14.2a.5.5 0 0 1 .5.5.5.5 0 0 1 -.5.5h-14.2a.5.5 0 0 1 -.5-.4z"/><path d="m627.6 229.5a.5.5 0 0 1 .7 0l9.5 10.5a.5.5 0 0 1 0 .7.5.5 0 0 1 -.7 0l-9.5-10.5a.5.5 0 0 1 0-.7z"/><path d="m550.5 224.4a.5.5 0 0 0 -.1-.8l-10.5-9.5a.5.5 0 0 0 -.7 0 .6.6 0 0 0 0 .8l10.5 9.5a.6.6 0 0 0 .8 0z"/><path d="m548.8 227.1a.6.6 0 0 0 -.5-.6h-14.2a.5.5 0 0 0 -.5.5c0 .3.2.6.5.5h14.2a.5.5 0 0 0 .5-.4z"/><path d="m549.4 229.9a.5.5 0 0 0 -.7 0l-9.5 10.5a.5.5 0 0 0 0 .7.5.5 0 0 0 .7 0l9.5-10.5a.5.5 0 0 0 0-.7z"/><path d="m590.8 239.4c-4.5 0-7.8-1.1-9.7-3.4l-.2-.2a1.3 1.3 0 0 1 .3-1.6 1.5 1.5 0 0 1 1.5.4 12.5 12.5 0 0 0 8.1 2.7s4.4.1 6.8-2.7a1.1 1.1 0 0 1 1.5-.2 1 1 0 0 1 .3 1.4c-3.2 3.8-8.6 3.6-8.6 3.6z"/><path d="m575.7 204.7a.5.5 0 0 1 -.6-.3c-1.2-2.1-2.7-3.1-4.4-3.2s-4.5 1.8-5.7 3.7a.7.7 0 0 1 -.9.2.8.8 0 0 1 -.2-.9c1.4-2 4-4.3 6.9-4.2s3.6.7 5.3 3.8a.7.7 0 0 1 -.2.9z"/><path d="m605 205h-.2a.6.6 0 0 1 -.1-.9c1.3-1.9 4-4.2 6.9-4s3.6.8 5.3 4a.7.7 0 0 1 -.3.8.5.5 0 0 1 -.8-.2c-1.2-2.2-2.6-3.3-4.3-3.4s-4.5 1.7-5.8 3.6a.6.6 0 0 1 -.7.1z"/><path d="m627.5 205.5a3.3 3.3 0 1 1 3.3-3.3 3.3 3.3 0 0 1 -3.3 3.3zm0-5.1a1.7 1.7 0 0 0 -1.7 1.8 1.7 1.7 0 1 0 3.4 0 1.7 1.7 0 0 0 -1.7-1.8z"/><path d="m631.4 208.4a3.3 3.3 0 1 1 3.4-3.3 3.3 3.3 0 0 1 -3.4 3.3zm0-5a1.7 1.7 0 1 0 0 3.4 1.7 1.7 0 1 0 0-3.4z"/><path d="m634.3 212.4a3.3 3.3 0 0 1 -3.3-3.3 3.4 3.4 0 0 1 6.7 0 3.3 3.3 0 0 1 -3.4 3.3zm0-5a1.8 1.8 0 0 0 -1.7 1.7 1.8 1.8 0 0 0 1.7 1.8 1.8 1.8 0 0 0 1.8-1.8 1.8 1.8 0 0 0 -1.8-1.7z"/><path d="m612 214a14.6 14.6 0 1 1 14.6-14.6 14.5 14.5 0 0 1 -14.6 14.6zm0-26.7a12.1 12.1 0 1 0 12.1 12.1 12.1 12.1 0 0 0 -12.1-12.1z"/><path d="m564.6 226.1c.9-1.3-.9-2.7-.7-3.3a2.4 2.4 0 0 1 3-.8c2.2 1.2 6 3.9 6 3.9s.2.1.1.4a2 2 0 0 1 -.1.5h.4l.5-.3h.2l.5.3c.3.1 5 3.9 6.5 4s3-.6 4-2.6a3.8 3.8 0 0 0 .2-2.6c-.2-.5-1.5-2.2-2.3-1.1s.3 1.8.5 2 .8.8.6 1.4-1 2.7-6-.7l-2.6-1.8-.4-.3-.2-.2v-.5c.1-.3.1-.4 0-.4l-.5.3c-.3.3-.8-.2-3.1-1.9a9.2 9.2 0 0 0 -4.1-1.9 4.4 4.4 0 0 0 -4.3 1.6 4.3 4.3 0 0 0 -.7 2.8c.6 1.5 1.9 2.1 2.5 1.2z"/><path d="m615.5 226.5c-.9-1.3.9-2.7.7-3.3a2.3 2.3 0 0 0 -3.1-.8c-2.1 1.1-6 3.9-6 3.9s-.1.1 0 .3.1.5.1.6-.2 0-.4-.1l-.5-.3h-.3l-.4.3c-.3.2-5.1 4-6.5 4s-3.1-.6-4-2.5a4.1 4.1 0 0 1 -.2-2.7c.1-.4 1.4-2.2 2.2-1a1.3 1.3 0 0 1 -.4 1.9c-.3.4-.8.9-.7 1.4s1.1 2.7 6.1-.7l2.5-1.7.4-.3.2-.2a1.5 1.5 0 0 0 -.1-.6c0-.2 0-.3.1-.4l.5.3c.3.4.8-.1 3.1-1.9a10.5 10.5 0 0 1 4-1.8c1.6-.2 3.4.1 4.3 1.6a3.1 3.1 0 0 1 .7 2.7c-.5 1.6-1.7 2.2-2.3 1.3z"/><path d="m590 225.6c-2.9 0-7.7-5.4-10.2-8.4a4.5 4.5 0 0 1 1.6-6.8 6.5 6.5 0 0 1 2-.4h11.9a5.3 5.3 0 0 1 4.8 3.2 3.4 3.4 0 0 1 -.4 3.1c-1.9 2.6-6.8 9.2-9.7 9.3z"/></g></svg>