<svg id="Layer_1" data-name="Layer 1" xmlns="http://www.w3.org/2000/svg" width="1300" height="546" viewBox="0 0 1300 546"><title>violinin-colour</title><rect x="58" y="93" width="292" height="66" fill="#fff"/><rect x="497" y="93" width="292" height="66"/><rect x="58" y="192" width="292" height="66" fill="#fff"/><rect x="49" y="383" width="292" height="88" fill="#fff"/><rect x="485" y="192" width="292" height="66" fill="#fff"/><rect x="909" y="93" width="311" height="66" fill="#fff"/><rect x="916" y="192" width="292" height="66" fill="#fff"/><path d="M42.5,60a6.6,6.6,0,0,1-3.2-.8,5.4,5.4,0,0,1-2.2-2.3v9.2h-4V44h3.5v2.7a5.8,5.8,0,0,1,2.2-2.2,6.9,6.9,0,0,1,3.2-.8,7.3,7.3,0,0,1,3,.6,8,8,0,0,1,2.3,1.8,9.3,9.3,0,0,1,1.5,2.6,7.8,7.8,0,0,1,.6,3.1,11.3,11.3,0,0,1-.5,3.2,9.3,9.3,0,0,1-1.5,2.6,6.5,6.5,0,0,1-2.2,1.8A6,6,0,0,1,42.5,60Zm-1.3-3.4a4.2,4.2,0,0,0,1.6-.4,3.5,3.5,0,0,0,1.3-1.1,3.8,3.8,0,0,0,.9-1.5,5.7,5.7,0,0,0,.3-1.8,4.1,4.1,0,0,0-.4-1.9,4.2,4.2,0,0,0-.9-1.4,2.8,2.8,0,0,0-1.4-1,3.3,3.3,0,0,0-1.7-.4l-1.2.2a3,3,0,0,0-1.1.6l-.9.8a2.4,2.4,0,0,0-.6,1.1v3.6a5.5,5.5,0,0,0,1.7,2.3A3.6,3.6,0,0,0,41.2,56.6Z" fill="#fff"/><path d="M61.4,47.4a11.4,11.4,0,0,0-3.3.7,4.5,4.5,0,0,0-2,2.1v9.5H52V44h3.7v3.3a9.2,9.2,0,0,1,2.1-2.6,5,5,0,0,1,2.8-1h.8Z" fill="#fff"/><path d="M63.7,41.8v-4h4v4Zm0,17.9V44h4V59.7Z" fill="#fff"/><path d="M95.7,59.7H91.6V50.9a5.1,5.1,0,0,0-.6-2.8,2.3,2.3,0,0,0-1.8-.9,3.3,3.3,0,0,0-2.2.9,6.1,6.1,0,0,0-1.5,2.4v9.2H81.4V50.9a5.1,5.1,0,0,0-.6-2.8,2,2,0,0,0-1.8-.9,3.3,3.3,0,0,0-2.2.9,4.9,4.9,0,0,0-1.5,2.4v9.2H71.2V44h3.7v2.9a6.2,6.2,0,0,1,2.4-2.4,7.4,7.4,0,0,1,3.4-.8,4.3,4.3,0,0,1,3.1,1A4.9,4.9,0,0,1,85.2,47a6.4,6.4,0,0,1,2.4-2.5,7.4,7.4,0,0,1,3.4-.8,5.2,5.2,0,0,1,2.3.5,6.7,6.7,0,0,1,1.5,1.4,11.8,11.8,0,0,1,.7,2,17.9,17.9,0,0,1,.2,2.3Z" fill="#fff"/><path d="M103.4,60a5.2,5.2,0,0,1-2.1-.4,4.8,4.8,0,0,1-1.7-1A4.2,4.2,0,0,1,98.5,57a4.5,4.5,0,0,1-.4-2,4.1,4.1,0,0,1,.5-2.1,4.8,4.8,0,0,1,1.3-1.6,9,9,0,0,1,2.2-1,11,11,0,0,1,2.7-.4l2,.2,1.8.5v-.9a3.2,3.2,0,0,0-.9-2.4,4,4,0,0,0-2.6-.8,6.9,6.9,0,0,0-2.5.4,10,10,0,0,0-2.4,1.4l-1.3-2.6a11.9,11.9,0,0,1,6.6-2,7.1,7.1,0,0,1,5.2,1.7,5.9,5.9,0,0,1,1.9,4.8v4.9a2,2,0,0,0,.2.9l.9.3v3.4h-1.9a3,3,0,0,1-1.8-.5,2.3,2.3,0,0,1-.7-1.4v-.8a7.5,7.5,0,0,1-2.6,2.1A8.3,8.3,0,0,1,103.4,60Zm1.2-3a6.3,6.3,0,0,0,1.9-.3,3.9,3.9,0,0,0,1.4-1,1.3,1.3,0,0,0,.7-1.1V52.8l-1.6-.5h-1.6a3.9,3.9,0,0,0-2.5.7,2.1,2.1,0,0,0-1,1.8,2,2,0,0,0,.8,1.7A2.9,2.9,0,0,0,104.6,57Z" fill="#fff"/><path d="M125.8,47.4a11.4,11.4,0,0,0-3.3.7,4.5,4.5,0,0,0-2,2.1v9.5h-4.1V44h3.7v3.3a8,8,0,0,1,2.2-2.6,4.5,4.5,0,0,1,2.7-1h.8Z" fill="#fff"/><path d="M128.3,62.7l1,.3h1.4l.6-.5.6-1a16.2,16.2,0,0,0,.6-1.7L126.3,44h4.1l4.3,12.2L138.5,44h3.7l-6.6,18.8a5.3,5.3,0,0,1-5.2,3.8,7.8,7.8,0,0,1-2.1-.4Z" fill="#fff"/><path d="M149.8,51.8a8.1,8.1,0,0,1,.6-3.1,7.3,7.3,0,0,1,1.7-2.6,6.9,6.9,0,0,1,2.6-1.7,7.4,7.4,0,0,1,3.4-.7,8.7,8.7,0,0,1,4.4,1.1,6.9,6.9,0,0,1,2.7,2.9l-3.9,1.2a2.9,2.9,0,0,0-1.4-1.3,3.5,3.5,0,0,0-1.8-.5,2.9,2.9,0,0,0-1.6.4,3,3,0,0,0-1.3.9,3.8,3.8,0,0,0-.9,1.5,5.8,5.8,0,0,0-.3,1.9,5.4,5.4,0,0,0,.3,1.9,3.8,3.8,0,0,0,.9,1.5,3.1,3.1,0,0,0,1.3,1,4.2,4.2,0,0,0,1.6.4,3.6,3.6,0,0,0,2-.6,3.3,3.3,0,0,0,1.3-1.3l3.9,1.2a5.8,5.8,0,0,1-2.7,2.9,7.9,7.9,0,0,1-4.5,1.2,7.7,7.7,0,0,1-3.4-.7,6.8,6.8,0,0,1-2.6-1.8,7.8,7.8,0,0,1-1.7-2.6A8.1,8.1,0,0,1,149.8,51.8Z" fill="#fff"/><path d="M174.8,60a7.4,7.4,0,0,1-3.4-.7,6.8,6.8,0,0,1-2.6-1.8,7.8,7.8,0,0,1-1.7-2.6,9.9,9.9,0,0,1-.5-3,11.3,11.3,0,0,1,.5-3.2,10.6,10.6,0,0,1,1.7-2.6,7.8,7.8,0,0,1,2.6-1.7,7.4,7.4,0,0,1,3.4-.7,7.8,7.8,0,0,1,3.5.7,7.4,7.4,0,0,1,2.5,1.7,8.3,8.3,0,0,1,1.7,2.6,8.6,8.6,0,0,1,.5,3.2,7.9,7.9,0,0,1-2.1,5.6,6.8,6.8,0,0,1-2.6,1.8A7.8,7.8,0,0,1,174.8,60Zm-4.1-8.1a5.8,5.8,0,0,0,.3,1.9,4.2,4.2,0,0,0,.9,1.4,3.1,3.1,0,0,0,1.3,1,3.4,3.4,0,0,0,3.2,0,3.3,3.3,0,0,0,1.4-1,5.3,5.3,0,0,0,.8-1.5,5.4,5.4,0,0,0,.3-1.9,5.8,5.8,0,0,0-.3-1.9,10.9,10.9,0,0,0-.8-1.5,4.2,4.2,0,0,0-1.4-.9,3.4,3.4,0,0,0-3.2,0,3.1,3.1,0,0,0-1.3,1A3.8,3.8,0,0,0,171,50,5.4,5.4,0,0,0,170.7,51.9Z" fill="#fff"/><path d="M185.7,37.8h4V54.5c0,1.2.5,1.8,1.6,1.8h.8l.8-.3.6,3.2a6,6,0,0,1-1.9.6,7.5,7.5,0,0,1-2,.2,3.9,3.9,0,0,1-2.9-1,3.7,3.7,0,0,1-1-2.8Z" fill="#fff"/><path d="M202.4,60a7.8,7.8,0,0,1-3.5-.7,6.8,6.8,0,0,1-2.6-1.8,8.7,8.7,0,0,1-2.2-5.6,8.7,8.7,0,0,1,.6-3.2,10.1,10.1,0,0,1,1.6-2.6,8.8,8.8,0,0,1,6.1-2.4,7.7,7.7,0,0,1,3.4.7,7.8,7.8,0,0,1,2.6,1.7,10.1,10.1,0,0,1,1.6,2.6,8.7,8.7,0,0,1,.6,3.2,8.7,8.7,0,0,1-2.2,5.6,6.8,6.8,0,0,1-2.6,1.8A7.7,7.7,0,0,1,202.4,60Zm-4.1-8.1a5.8,5.8,0,0,0,.3,1.9,6.4,6.4,0,0,0,.8,1.4,3.1,3.1,0,0,0,1.3,1,3.6,3.6,0,0,0,3.3,0,3.1,3.1,0,0,0,1.3-1,3.8,3.8,0,0,0,.9-1.5,5.4,5.4,0,0,0,.3-1.9,5.8,5.8,0,0,0-.3-1.9,6,6,0,0,0-.9-1.5,3.8,3.8,0,0,0-1.3-.9,3.2,3.2,0,0,0-1.6-.4,3.3,3.3,0,0,0-1.7.4,3.1,3.1,0,0,0-1.3,1,5.3,5.3,0,0,0-.8,1.5A5.4,5.4,0,0,0,198.3,51.9Z" fill="#fff"/><path d="M218,60a4.4,4.4,0,0,1-3.7-1.6,7.4,7.4,0,0,1-1.2-4.6V44h4v8.9c0,2.5.9,3.7,2.6,3.7a4.8,4.8,0,0,0,2.3-.7,5.8,5.8,0,0,0,1.8-2.2V44h4V55.1a2,2,0,0,0,.2.9l.9.3v3.4h-2a3.1,3.1,0,0,1-1.7-.5,2.1,2.1,0,0,1-.7-1.4V56.7a7.2,7.2,0,0,1-2.7,2.5A8.7,8.7,0,0,1,218,60Z" fill="#fff"/><path d="M241.2,47.4a10.1,10.1,0,0,0-3.2.7,4.3,4.3,0,0,0-2.1,2.1v9.5h-4V44h3.7v3.3a6.7,6.7,0,0,1,2.1-2.6,5,5,0,0,1,2.7-1h.8Z" fill="#fff"/><path d="M249.6,60l-1.9-.2-2.1-.4-1.9-.6-1.6-.9,1.7-2.7a10.5,10.5,0,0,0,5.8,1.9,3.4,3.4,0,0,0,1.9-.4,1.6,1.6,0,0,0,.8-1.3,1.4,1.4,0,0,0-.9-1.3,20.9,20.9,0,0,0-2.9-.9l-2.6-.7-1.7-.9a2.8,2.8,0,0,1-1-1.2,3.3,3.3,0,0,1-.3-1.5,4.7,4.7,0,0,1,1.8-3.8,7,7,0,0,1,2.1-1.1,10.9,10.9,0,0,1,5.8.2,12.3,12.3,0,0,1,3.1,1.4l-1.6,2.5a9.3,9.3,0,0,0-2.5-1.2,6.7,6.7,0,0,0-2.4-.4,4.8,4.8,0,0,0-1.8.4,1.5,1.5,0,0,0-.7,1.4,1.3,1.3,0,0,0,.7,1.2l2.5.8a17.1,17.1,0,0,1,2.9.8,8.5,8.5,0,0,1,1.9,1,2.5,2.5,0,0,1,1.1,1.2,4.3,4.3,0,0,1,.4,1.7,4.6,4.6,0,0,1-.5,2.1,4.7,4.7,0,0,1-1.3,1.5,5.1,5.1,0,0,1-2.1,1A7.7,7.7,0,0,1,249.6,60Z" fill="#fff"/><path d="M39.4,324a4.6,4.6,0,0,1-2.1-.4,4,4,0,0,1-1.7-1,6.1,6.1,0,0,1-1.2-1.6,6.5,6.5,0,0,1-.4-2,5.4,5.4,0,0,1,.5-2.1,7,7,0,0,1,1.4-1.6,10.2,10.2,0,0,1,2.1-1,11,11,0,0,1,2.7-.4l2.1.2,1.8.5v-.9a3.2,3.2,0,0,0-.9-2.4,4,4,0,0,0-2.6-.8,6.9,6.9,0,0,0-2.5.4,12.8,12.8,0,0,0-2.5,1.4l-1.2-2.6a11.8,11.8,0,0,1,6.5-2c2.3,0,4.1.5,5.3,1.7a5.9,5.9,0,0,1,1.9,4.8v4.9a2,2,0,0,0,.2.9l.9.3v3.4h-2a2.9,2.9,0,0,1-1.7-.5,2.3,2.3,0,0,1-.7-1.4v-.8a7.5,7.5,0,0,1-2.6,2.1A8.8,8.8,0,0,1,39.4,324Zm1.1-3a6.4,6.4,0,0,0,2-.3,3.9,3.9,0,0,0,1.4-1,1.5,1.5,0,0,0,.7-1.1v-1.8l-1.6-.5H41.4a4.2,4.2,0,0,0-2.6.7,2.4,2.4,0,0,0-1,1.8,2.3,2.3,0,0,0,.8,1.7A3.1,3.1,0,0,0,40.5,321Z" fill="#fff"/><path d="M51.5,315.8a10.6,10.6,0,0,1,.5-3.1,9,9,0,0,1,1.7-2.6,7.8,7.8,0,0,1,2.6-1.7,7.7,7.7,0,0,1,3.4-.7,8.4,8.4,0,0,1,4.4,1.1,7.1,7.1,0,0,1,2.8,2.9l-4,1.2a3.3,3.3,0,0,0-1.3-1.3,4.1,4.1,0,0,0-1.9-.5,2.9,2.9,0,0,0-1.6.4,3.8,3.8,0,0,0-1.3.9,3.8,3.8,0,0,0-.9,1.5,5.8,5.8,0,0,0-.3,1.9,4.8,4.8,0,0,0,1.2,3.4,3.1,3.1,0,0,0,1.3,1,4.7,4.7,0,0,0,1.6.4,3.6,3.6,0,0,0,2-.6,3.3,3.3,0,0,0,1.3-1.3l3.9,1.2a5.8,5.8,0,0,1-2.7,2.9,8.9,8.9,0,0,1-7.9.5,6.8,6.8,0,0,1-2.6-1.8,7.8,7.8,0,0,1-1.7-2.6A10.6,10.6,0,0,1,51.5,315.8Z" fill="#fff"/><path d="M68.4,315.8a8.1,8.1,0,0,1,.6-3.1,7.1,7.1,0,0,1,1.6-2.6,8.8,8.8,0,0,1,6.1-2.4,9,9,0,0,1,4.4,1.1,6.9,6.9,0,0,1,2.7,2.9l-4,1.2a2.7,2.7,0,0,0-1.3-1.3,4.1,4.1,0,0,0-1.9-.5,3.2,3.2,0,0,0-1.6.4,3.8,3.8,0,0,0-1.3.9,3.8,3.8,0,0,0-.9,1.5,5.8,5.8,0,0,0-.3,1.9,3.8,3.8,0,0,0,.4,1.9,5.3,5.3,0,0,0,.8,1.5,3.1,3.1,0,0,0,1.3,1,4.7,4.7,0,0,0,1.6.4,3.4,3.4,0,0,0,2-.6,2.7,2.7,0,0,0,1.3-1.3l3.9,1.2a6.1,6.1,0,0,1-2.6,2.9,8.4,8.4,0,0,1-4.5,1.2,8.1,8.1,0,0,1-3.5-.7,7.6,7.6,0,0,1-4.2-4.4A8.1,8.1,0,0,1,68.4,315.8Z" fill="#fff"/><path d="M93.6,324a7.4,7.4,0,0,1-3.4-.7,6.9,6.9,0,0,1-2.6-1.7,7.3,7.3,0,0,1-1.7-2.6,8.1,8.1,0,0,1-.6-3.1,8.7,8.7,0,0,1,.6-3.2,8,8,0,0,1,1.6-2.6,7.8,7.8,0,0,1,2.6-1.7,8.1,8.1,0,0,1,3.5-.7,7.4,7.4,0,0,1,3.4.7,6.9,6.9,0,0,1,2.6,1.7,7.1,7.1,0,0,1,1.6,2.6,8.1,8.1,0,0,1,.6,3.1v.7c0,.3,0,.5-.1.6H89.6a4.7,4.7,0,0,0,.4,1.7,5.4,5.4,0,0,0,.9,1.2l1.3.8a3.9,3.9,0,0,0,1.5.2,5.9,5.9,0,0,0,2.3-.5,3.3,3.3,0,0,0,1.5-1.6l3.4,1a6.5,6.5,0,0,1-2.8,2.9A8.2,8.2,0,0,1,93.6,324Zm4.1-9.5a4.3,4.3,0,0,0-1.3-2.8,4.2,4.2,0,0,0-4.4-.8,4.2,4.2,0,0,0-1.2.8,2.7,2.7,0,0,0-.9,1.2,4.2,4.2,0,0,0-.4,1.6Z" fill="#fff"/><path d="M118.9,323.7h-4v-8.8a5,5,0,0,0-.7-2.8,2.1,2.1,0,0,0-1.8-.9l-1.3.3-1.2.6-1,1.1a3.1,3.1,0,0,0-.6,1.3v9.2h-4V308h3.6v2.9a6.4,6.4,0,0,1,2.5-2.4,9.1,9.1,0,0,1,3.7-.8,5.4,5.4,0,0,1,2.4.5,5.1,5.1,0,0,1,1.5,1.4,11.8,11.8,0,0,1,.7,2,17.9,17.9,0,0,1,.2,2.3Z" fill="#fff"/><path d="M131.7,322.9l-2,.7a10.1,10.1,0,0,1-2.5.4,4,4,0,0,1-1.5-.3,2.6,2.6,0,0,1-1.3-.6,2.7,2.7,0,0,1-.9-1.2,4.8,4.8,0,0,1-.3-1.8v-9h-2.1V308h2.1v-5.1h4V308h3.3v3.1h-3.3v7.6c0,.6.1,1,.4,1.2a2.1,2.1,0,0,0,1.1.4l1.2-.2,1-.4Z" fill="#fff"/><path d="M139.9,315.8a8.1,8.1,0,0,1,.6-3.1,7.3,7.3,0,0,1,1.7-2.6,6.9,6.9,0,0,1,2.6-1.7,7.4,7.4,0,0,1,3.4-.7,8.7,8.7,0,0,1,4.4,1.1,6.9,6.9,0,0,1,2.7,2.9l-3.9,1.2a4,4,0,0,0-3.2-1.8,2.9,2.9,0,0,0-1.6.4,3,3,0,0,0-1.3.9,3.8,3.8,0,0,0-.9,1.5,5.8,5.8,0,0,0-.3,1.9,5.4,5.4,0,0,0,.3,1.9,3.8,3.8,0,0,0,.9,1.5,3.1,3.1,0,0,0,1.3,1,4.2,4.2,0,0,0,1.6.4,3.6,3.6,0,0,0,2-.6,2.5,2.5,0,0,0,1.2-1.3l4,1.2a6.9,6.9,0,0,1-2.7,2.9,7.9,7.9,0,0,1-4.5,1.2,7.7,7.7,0,0,1-3.4-.7,6.8,6.8,0,0,1-2.6-1.8,7.8,7.8,0,0,1-1.7-2.6A8.1,8.1,0,0,1,139.9,315.8Z" fill="#fff"/><path d="M164.9,324a7.4,7.4,0,0,1-3.4-.7,6.1,6.1,0,0,1-2.6-1.8,7.8,7.8,0,0,1-1.7-2.6,9.9,9.9,0,0,1-.5-3,11.3,11.3,0,0,1,.5-3.2,10.6,10.6,0,0,1,1.7-2.6,6.9,6.9,0,0,1,2.6-1.7,7.4,7.4,0,0,1,3.4-.7,8.1,8.1,0,0,1,3.5.7,7.4,7.4,0,0,1,2.5,1.7,10.6,10.6,0,0,1,1.7,2.6,11.3,11.3,0,0,1,.5,3.2,9.9,9.9,0,0,1-.5,3,7.8,7.8,0,0,1-1.7,2.6,6.4,6.4,0,0,1-2.5,1.8A8.1,8.1,0,0,1,164.9,324Zm-4.1-8.1a5.8,5.8,0,0,0,.3,1.9,4.2,4.2,0,0,0,.9,1.4,3.1,3.1,0,0,0,1.3,1,3.4,3.4,0,0,0,3.2,0,2.6,2.6,0,0,0,1.3-1,3.8,3.8,0,0,0,.9-1.5,5.4,5.4,0,0,0,.3-1.9,5.8,5.8,0,0,0-.3-1.9,6,6,0,0,0-.9-1.5,3,3,0,0,0-1.3-.9,3.4,3.4,0,0,0-3.2,0,3.1,3.1,0,0,0-1.3,1,3.8,3.8,0,0,0-.9,1.5A5.4,5.4,0,0,0,160.8,315.9Z" fill="#fff"/><path d="M175.8,301.8h4v16.7c0,1.2.5,1.8,1.6,1.8h.8l.8-.3.5,3.2a4.8,4.8,0,0,1-1.8.6,7.5,7.5,0,0,1-2,.2,3.8,3.8,0,0,1-2.9-1,3.7,3.7,0,0,1-1-2.8Z" fill="#fff"/><path d="M192.5,324a7.8,7.8,0,0,1-3.5-.7,6.8,6.8,0,0,1-2.6-1.8,8.7,8.7,0,0,1-2.2-5.6,8.7,8.7,0,0,1,.6-3.2,10.1,10.1,0,0,1,1.6-2.6,8.8,8.8,0,0,1,6.1-2.4,7.7,7.7,0,0,1,3.4.7,7.8,7.8,0,0,1,2.6,1.7,10.1,10.1,0,0,1,1.6,2.6,8.7,8.7,0,0,1,.6,3.2,8.7,8.7,0,0,1-2.2,5.6,6.8,6.8,0,0,1-2.6,1.8A7.7,7.7,0,0,1,192.5,324Zm-4.2-8.1a5.8,5.8,0,0,0,.4,1.9,6.4,6.4,0,0,0,.8,1.4,3.1,3.1,0,0,0,1.3,1,3.6,3.6,0,0,0,3.3,0,3.1,3.1,0,0,0,1.3-1,4.8,4.8,0,0,0,1.2-3.4,5.8,5.8,0,0,0-.3-1.9,11.9,11.9,0,0,0-.9-1.5,3.8,3.8,0,0,0-1.3-.9,3.2,3.2,0,0,0-1.6-.4,3.3,3.3,0,0,0-1.7.4,3.1,3.1,0,0,0-1.3,1,6.5,6.5,0,0,0-1.2,3.4Z" fill="#fff"/><path d="M208.1,324a4.4,4.4,0,0,1-3.7-1.6,7.4,7.4,0,0,1-1.2-4.6V308h4v8.9c0,2.5.9,3.7,2.6,3.7a4.8,4.8,0,0,0,2.3-.7,5.8,5.8,0,0,0,1.8-2.2V308h4v11.1a2,2,0,0,0,.2.9l.9.3v3.4h-2a2.9,2.9,0,0,1-1.7-.5,2.1,2.1,0,0,1-.7-1.4v-1.3a7.2,7.2,0,0,1-2.7,2.5A8.7,8.7,0,0,1,208.1,324Z" fill="#fff"/><path d="M231.3,311.4a10.1,10.1,0,0,0-3.2.7,4.3,4.3,0,0,0-2.1,2.1v9.5h-4V308h3.7v3.3a6.7,6.7,0,0,1,2.1-2.6,5,5,0,0,1,2.7-1h.8Z" fill="#fff"/><path d="M298.3,422a8.1,8.1,0,0,0-5.6-2.2,7.3,7.3,0,0,0-3,.6,7.2,7.2,0,0,0-2.5,1.6,10.1,10.1,0,0,0-1.7,2.5,8.1,8.1,0,0,0-.6,3.1,7.7,7.7,0,0,0,2.3,5.6,7.4,7.4,0,0,0,2.5,1.7,6,6,0,0,0,3,.7,7.3,7.3,0,0,0,3-.6,7.6,7.6,0,0,0,2.5-1.8,8.3,8.3,0,0,0,2.4-5.6,6.7,6.7,0,0,0-.7-3.1A9.6,9.6,0,0,0,298.3,422Z" fill="#f17b36"/><path d="M228.4,419.5a8.6,8.6,0,0,0-2.6-2.1,7.3,7.3,0,0,0-3.3-.8,7.4,7.4,0,0,0-4.9,1.8,10.9,10.9,0,0,0-3.2,4.4v7.5a4.5,4.5,0,0,0,1.2,2.1,7.3,7.3,0,0,0,1.8,1.7l2.2,1.1a9.9,9.9,0,0,0,2.4.3,8.1,8.1,0,0,0,3.5-.7,9,9,0,0,0,2.7-2,8.3,8.3,0,0,0,1.8-3,8.6,8.6,0,0,0,.7-3.6,10.9,10.9,0,0,0-.6-3.6A10.3,10.3,0,0,0,228.4,419.5Z" fill="#f17b36"/><path d="M32,341V505H1269V341Zm81.9,75.3h-8.7l-2,8.3H111v6h-9.3L99,441.8H92.5l2.8-11.2H88.1l-2.7,11.2H78.9l2.8-11.2H75v-6h8.1l2-8.3H77.8v-5.6h8.7l2.8-11.5h6.5l-2.9,11.5h7.2l2.8-11.5h6.5l-2.9,11.5h7.4Zm24.5-11a10.2,10.2,0,0,0-2.1-.8l-2.3-.3c-2.8,0-4.2,1.8-4.2,5.6V414h7.7v6.2h-7.7v21.6h-8V420.2h-4.1V414h4.1v-3.9c0-3.9.9-7,2.8-9.3a9.5,9.5,0,0,1,7.7-3.4,18.4,18.4,0,0,1,7.7,1.8Zm28.7,36.5H142.8v-7.3h8.5V416.3a6.5,6.5,0,0,1-1.7,1.5,14.8,14.8,0,0,1-2.5,1.4,14.5,14.5,0,0,1-2.9,1.1,9.2,9.2,0,0,1-2.6.4v-7.5a6,6,0,0,0,2.6-.7,18.2,18.2,0,0,0,3.1-1.6l2.6-1.9a4.5,4.5,0,0,0,1.4-1.5h8.2v27h7.6Zm14.3,7.6h-9.1l17.6-35.3H170.5v-7.3h32Zm56.4-16.9a17.9,17.9,0,0,1-3.1,5.2,14.5,14.5,0,0,1-4.7,3.4,12.7,12.7,0,0,1-5.8,1.3,13.5,13.5,0,0,1-6.4-1.6,12.1,12.1,0,0,1-4.5-4.5v5.5h-7V398h8.1v17.9a10.6,10.6,0,0,1,4.4-4.5,13,13,0,0,1,11.9-.3,13.9,13.9,0,0,1,4.4,3.6,16.2,16.2,0,0,1,2.8,5.2,18.9,18.9,0,0,1,1,6.3A18.1,18.1,0,0,1,237.8,432.5Zm33,10.9a10.5,10.5,0,0,1-3.1,3.9,14.9,14.9,0,0,1-4.9,2.4,21.5,21.5,0,0,1-6.4.9,21,21,0,0,1-8.2-1.5,15.5,15.5,0,0,1-5.8-4.3l4.6-5.7a9.9,9.9,0,0,0,3.7,3.1,12,12,0,0,0,5.4,1.1,9.1,9.1,0,0,0,5.6-1.5,5,5,0,0,0,1.9-4.4,5.5,5.5,0,0,0-2.2-4.8c-1.5-1.1-3.7-1.7-6.7-1.7H253v-6h1.9a9,9,0,0,0,5.7-1.6,5.4,5.4,0,0,0,2-4.3,4.2,4.2,0,0,0-1.7-3.6,7.1,7.1,0,0,0-4.3-1.2,10.6,10.6,0,0,0-5,1.2,11,11,0,0,0-3.5,3.6l-5.1-5.7a11.2,11.2,0,0,1,2.4-2.5,27.4,27.4,0,0,1,3.4-1.9,27.7,27.7,0,0,1,4.1-1.2,23.1,23.1,0,0,1,4.6-.5,19.9,19.9,0,0,1,5.6.8,11.7,11.7,0,0,1,4.3,2.2,9.9,9.9,0,0,1,2.8,3.3,10.1,10.1,0,0,1,1,4.3,10.3,10.3,0,0,1-.6,3.5,8.9,8.9,0,0,1-1.5,2.9,8.8,8.8,0,0,1-2.5,2.2,7.9,7.9,0,0,1-3,1.2,9.4,9.4,0,0,1,6,3.6,11.6,11.6,0,0,1,1.2,12.2Zm36.3-10a14.3,14.3,0,0,1-3.3,4.7,14.6,14.6,0,0,1-4.9,3.1,15.9,15.9,0,0,1-6.2,1.2,16.7,16.7,0,0,1-6.5-1.3,13.3,13.3,0,0,1-4.9-3.9,16.9,16.9,0,0,1-3.2-6.1,29.8,29.8,0,0,1-1.1-8.3,39.9,39.9,0,0,1,1.2-10.3,21.4,21.4,0,0,1,3.3-7.5,14.3,14.3,0,0,1,5.2-4.6,15.1,15.1,0,0,1,6.8-1.5,15.9,15.9,0,0,1,13.2,6.7l-4.6,5a10.3,10.3,0,0,0-3.7-3.5,10.9,10.9,0,0,0-5-1.3A7.6,7.6,0,0,0,287,409c-1.6,2.1-2.4,5.1-2.5,9a8.8,8.8,0,0,1,3.5-3.4,12,12,0,0,1,5.4-1.3,16.3,16.3,0,0,1,5.9,1.1,13.5,13.5,0,0,1,4.7,3,14.4,14.4,0,0,1,4.3,10.2A14.3,14.3,0,0,1,307.1,433.4Z" fill="#f17b36"/><polygon points="89.6 424.6 96.8 424.6 98.7 416.3 91.5 416.3 89.6 424.6" fill="#f17b36"/><path d="M174.1,121.2a7.6,7.6,0,0,0-2.5-1.8,7.8,7.8,0,0,0-6,0,7.4,7.4,0,0,0-2.5,1.7,9,9,0,0,0-1.7,2.6,6.7,6.7,0,0,0-.7,3.1,6,6,0,0,0,.7,3,7.2,7.2,0,0,0,1.6,2.5,8.5,8.5,0,0,0,2.5,1.7,8.3,8.3,0,0,0,6.2,0,8.1,8.1,0,0,0,2.4-1.7,8.3,8.3,0,0,0,2.4-5.5,8.2,8.2,0,0,0-.7-3.1A7.4,7.4,0,0,0,174.1,121.2Z" fill="#e90e4e"/><path d="M210.3,120.8a7.1,7.1,0,0,0-2.4-2.2,6,6,0,0,0-2.9-.8,6.2,6.2,0,0,0-3.1.8,7.1,7.1,0,0,0-2.4,2.2,15.2,15.2,0,0,0-1.5,3.4,16.4,16.4,0,0,0-.5,4.5,14.5,14.5,0,0,0,.5,4.3,14.2,14.2,0,0,0,1.5,3.5,8.3,8.3,0,0,0,2.4,2.2,6.2,6.2,0,0,0,3.1.8,6,6,0,0,0,2.9-.8,8.3,8.3,0,0,0,2.4-2.2,14.2,14.2,0,0,0,1.5-3.5,14.5,14.5,0,0,0,.5-4.3,16.4,16.4,0,0,0-.5-4.5A15.2,15.2,0,0,0,210.3,120.8Z" fill="#e90e4e"/><path d="M241.6,120.1a10.6,10.6,0,0,0-3.1.5,13.2,13.2,0,0,0-2.5,1.6,7.4,7.4,0,0,0-1.7,2.5,6.9,6.9,0,0,0-.8,3.2h16.3a8.5,8.5,0,0,0-2.6-5.7A8.1,8.1,0,0,0,241.6,120.1Z" fill="#e90e4e"/><polygon points="88.6 129 95.8 129 97.7 120.8 90.5 120.8 88.6 129" fill="#e90e4e"/><path d="M133.3,120.1a9.4,9.4,0,0,0-3,.5,8.9,8.9,0,0,0-2.5,1.6,9.4,9.4,0,0,0-1.8,2.5,10.7,10.7,0,0,0-.8,3.2h16.3a8.1,8.1,0,0,0-2.6-5.7A7.9,7.9,0,0,0,133.3,120.1Z" fill="#e90e4e"/><path d="M311.5,120.1a10.6,10.6,0,0,0-3.1.5,13.2,13.2,0,0,0-2.5,1.6,7.4,7.4,0,0,0-1.7,2.5,6.9,6.9,0,0,0-.8,3.2h16.3a8.5,8.5,0,0,0-2.6-5.7A8.1,8.1,0,0,0,311.5,120.1Z" fill="#e90e4e"/><path d="M32,85v82H423V85Zm80.9,35.8h-8.7l-2,8.2H110v6h-9.3L98,146.2H91.5L94.3,135H87.1l-2.7,11.2H77.9L80.7,135H74v-6h8.1l2-8.2H76.8v-5.6h8.7l2.8-11.6h6.5l-2.9,11.6h7.2l2.8-11.6h6.5l-2.9,11.6h7.4Zm36.9,11.1a3.7,3.7,0,0,1-.2,1.2H125.3a15.9,15.9,0,0,0,.9,3.3,7.9,7.9,0,0,0,1.9,2.5,8.4,8.4,0,0,0,2.6,1.5,7.3,7.3,0,0,0,3,.6,8.9,8.9,0,0,0,4.5-1.2,6.2,6.2,0,0,0,2.9-3.1l6.9,1.9a13.5,13.5,0,0,1-5.5,5.9,16.9,16.9,0,0,1-9.1,2.3,17.3,17.3,0,0,1-6.9-1.3,15.4,15.4,0,0,1-5.2-3.5,16,16,0,0,1-3.3-5.1,16.9,16.9,0,0,1,0-12.5,13.9,13.9,0,0,1,3.3-5.3,14.9,14.9,0,0,1,5.2-3.5,17.3,17.3,0,0,1,6.9-1.3,16.7,16.7,0,0,1,6.9,1.3,17,17,0,0,1,5.2,3.5,14.6,14.6,0,0,1,3.2,5.2,17.8,17.8,0,0,1,1.1,6.1Zm33.3,9.9a19.9,19.9,0,0,1-3.3,7.5,13.9,13.9,0,0,1-5.1,4.6,14.6,14.6,0,0,1-6.9,1.6,15.6,15.6,0,0,1-7.4-1.8,16,16,0,0,1-5.8-4.9l4.6-5.1a10.9,10.9,0,0,0,3.8,3.6,10.2,10.2,0,0,0,4.9,1.2,7.4,7.4,0,0,0,6.4-3.2c1.6-2.1,2.4-5.1,2.5-9a9.1,9.1,0,0,1-3.5,3.5,11.9,11.9,0,0,1-5.4,1.2,14.4,14.4,0,0,1-5.9-1.1,13.5,13.5,0,0,1-4.7-3,14.4,14.4,0,0,1-3.1-4.5,13,13,0,0,1-1.1-5.6,14.8,14.8,0,0,1,4.4-10.5,14.9,14.9,0,0,1,4.9-3.2,18,18,0,0,1,6.2-1.1,15.1,15.1,0,0,1,6.5,1.3,15.5,15.5,0,0,1,5,3.8,19,19,0,0,1,3.1,6.2,29.6,29.6,0,0,1,1.1,8.2A39.9,39.9,0,0,1,183.1,141.8Zm36.2-5.9a17.2,17.2,0,0,1-3.3,5.8,15.1,15.1,0,0,1-4.9,3.8,13.9,13.9,0,0,1-6.1,1.3,14.5,14.5,0,0,1-6.3-1.3,15.1,15.1,0,0,1-4.9-3.8,17.1,17.1,0,0,1-3.2-5.8,22.5,22.5,0,0,1,0-14.5,17.1,17.1,0,0,1,3.2-5.8,15.1,15.1,0,0,1,4.9-3.8,14.6,14.6,0,0,1,6.3-1.4,14,14,0,0,1,6.1,1.4,15.1,15.1,0,0,1,4.9,3.8,17.2,17.2,0,0,1,3.3,5.8,24.4,24.4,0,0,1,0,14.5Zm38.7-4a4.1,4.1,0,0,1-.1,1.2H233.6a9,9,0,0,0,.9,3.3,9.4,9.4,0,0,0,1.8,2.5,9.7,9.7,0,0,0,2.6,1.5,8,8,0,0,0,3,.6,8.9,8.9,0,0,0,4.5-1.2,6.4,6.4,0,0,0,3-3.1l6.9,1.9a14.4,14.4,0,0,1-5.6,5.9,18.8,18.8,0,0,1-15.9,1,13.7,13.7,0,0,1-5.2-3.5,14.7,14.7,0,0,1-3.4-5.1,16.2,16.2,0,0,1-1.1-6.2,16.4,16.4,0,0,1,1.1-6.3,16.9,16.9,0,0,1,3.3-5.3,15.9,15.9,0,0,1,5.2-3.5,17.5,17.5,0,0,1,7-1.3,16.5,16.5,0,0,1,6.8,1.3,14.9,14.9,0,0,1,5.2,3.5,14.6,14.6,0,0,1,3.2,5.2,15.8,15.8,0,0,1,1.2,6.1C258.1,130.9,258,131.4,258,131.9Zm33.5,13h-5.3v9h-8v-9H260.6v-7.1L280.7,112h5.5v25.7h5.3Zm36.4-13a4.1,4.1,0,0,1-.1,1.2H303.5a9,9,0,0,0,.9,3.3,9.4,9.4,0,0,0,1.8,2.5,9.7,9.7,0,0,0,2.6,1.5,8,8,0,0,0,3,.6,8.9,8.9,0,0,0,4.5-1.2,6.4,6.4,0,0,0,3-3.1l6.9,1.9a14.4,14.4,0,0,1-5.6,5.9,18.8,18.8,0,0,1-15.9,1,13.7,13.7,0,0,1-5.2-3.5,14.7,14.7,0,0,1-3.4-5.1,16.2,16.2,0,0,1-1.1-6.2,16.4,16.4,0,0,1,1.1-6.3,16.9,16.9,0,0,1,3.3-5.3,15.9,15.9,0,0,1,5.2-3.5,17.5,17.5,0,0,1,7-1.3,16.5,16.5,0,0,1,6.8,1.3,14.9,14.9,0,0,1,5.2,3.5,14.6,14.6,0,0,1,3.2,5.2,15.8,15.8,0,0,1,1.2,6.1C328,130.9,327.9,131.4,327.9,131.9Z" fill="#e90e4e"/><polygon points="279.1 137.7 279.1 124.2 268.7 137.7 279.1 137.7" fill="#e90e4e"/><path d="M167.5,216.1a10.6,10.6,0,0,0-3.1.5,13.2,13.2,0,0,0-2.5,1.6,7.4,7.4,0,0,0-1.7,2.5,6.9,6.9,0,0,0-.8,3.2h16.3a8.5,8.5,0,0,0-2.6-5.7A8.1,8.1,0,0,0,167.5,216.1Z" fill="#2e692e"/><path d="M209.3,222.5a7.4,7.4,0,0,0-2.5-1.7,7.7,7.7,0,0,0-3-.6,8.1,8.1,0,0,0-3.1.6,8.1,8.1,0,0,0-4.2,4.2,7.3,7.3,0,0,0-.6,3,8.1,8.1,0,0,0,.6,3.1,9,9,0,0,0,1.7,2.6,10.1,10.1,0,0,0,2.5,1.7,7,7,0,0,0,6.1,0,8.5,8.5,0,0,0,2.5-1.7,9,9,0,0,0,1.7-2.6,8.1,8.1,0,0,0,.6-3.1,7.3,7.3,0,0,0-.6-3A7.4,7.4,0,0,0,209.3,222.5Z" fill="#2e692e"/><path d="M244.7,217.2a8.8,8.8,0,0,0-2.5-1.8,8,8,0,0,0-3-.6,8.1,8.1,0,0,0-3.1.6,10.1,10.1,0,0,0-2.5,1.7,9,9,0,0,0-1.7,2.6,8.1,8.1,0,0,0-.6,3.1,7.3,7.3,0,0,0,.6,3,8.1,8.1,0,0,0,4.2,4.2,8.1,8.1,0,0,0,3.1.6,7.7,7.7,0,0,0,3-.6,8.1,8.1,0,0,0,4.2-4.2,7.3,7.3,0,0,0,.6-3,8.1,8.1,0,0,0-.6-3.1A7.4,7.4,0,0,0,244.7,217.2Z" fill="#2e692e"/><polygon points="88.6 225 95.8 225 97.7 216.8 90.5 216.8 88.6 225" fill="#2e692e"/><path d="M32,181v82H423V181Zm80.9,35.8h-8.7l-2,8.2H110v6h-9.3L98,242.2H91.5L94.3,231H87.1l-2.7,11.2H77.9L80.7,231H74v-6h8.1l2-8.2H76.8v-5.6h8.7l2.8-11.6h6.5l-2.9,11.6h7.2l2.8-11.6h6.5l-2.9,11.6h7.4Zm33.6,25.4H117.6a24.9,24.9,0,0,1,.4-4.9,13.8,13.8,0,0,1,1.5-4,15.4,15.4,0,0,1,2.9-3.5,26.1,26.1,0,0,1,4.6-3.2l4.3-2.3a22.8,22.8,0,0,0,3.2-1.8,8.1,8.1,0,0,0,1.9-1.7,3.1,3.1,0,0,0,.7-2,4.1,4.1,0,0,0-1.4-3.1,6,6,0,0,0-4.2-1.3,7.5,7.5,0,0,0-2.6.4,9.4,9.4,0,0,0-2.3,1l-1.9,1.5a12.9,12.9,0,0,0-1.6,1.7l-5.1-5.9a11.1,11.1,0,0,1,2.2-1.9,26.3,26.3,0,0,1,3.4-1.8,24.1,24.1,0,0,1,4.3-1.5,27.6,27.6,0,0,1,5.1-.5,18.1,18.1,0,0,1,5.4.7,12.2,12.2,0,0,1,4.1,2.1,9,9,0,0,1,2.5,3.3,9.1,9.1,0,0,1,.9,4.1,8.7,8.7,0,0,1-.8,3.7,11.5,11.5,0,0,1-2,2.9,27.5,27.5,0,0,1-2.6,2.2l-2.7,1.6-2.4,1.3-2.4,1.6-2.2,1.9a10.7,10.7,0,0,0-1.5,2.2h17.2Zm37.4-14.3a4.1,4.1,0,0,1-.1,1.2H159.5a9,9,0,0,0,.9,3.3,9.4,9.4,0,0,0,1.8,2.5,9.7,9.7,0,0,0,2.6,1.5,8,8,0,0,0,3,.6,8.9,8.9,0,0,0,4.5-1.2,6.4,6.4,0,0,0,3-3.1l6.9,1.9a14.4,14.4,0,0,1-5.6,5.9,18.8,18.8,0,0,1-15.9,1,13.7,13.7,0,0,1-5.2-3.5,14.7,14.7,0,0,1-3.4-5.1,16.2,16.2,0,0,1-1.1-6.2,16.4,16.4,0,0,1,1.1-6.3,16.9,16.9,0,0,1,3.3-5.3,15.9,15.9,0,0,1,5.2-3.5,17.5,17.5,0,0,1,7-1.3,16.5,16.5,0,0,1,6.8,1.3,14.9,14.9,0,0,1,5.2,3.5,14.6,14.6,0,0,1,3.2,5.2,15.8,15.8,0,0,1,1.2,6.1C184,226.9,183.9,227.4,183.9,227.9Zm34.2,5.9a14.3,14.3,0,0,1-3.3,4.7,14.9,14.9,0,0,1-4.9,3.2,15.4,15.4,0,0,1-6.1,1.1,15.9,15.9,0,0,1-6.6-1.3,13.8,13.8,0,0,1-4.9-3.8,19.1,19.1,0,0,1-3.2-6.2,29.1,29.1,0,0,1-1.1-8.2,39.9,39.9,0,0,1,1.2-10.3,23.6,23.6,0,0,1,3.3-7.5,14.2,14.2,0,0,1,5.2-4.6,15.1,15.1,0,0,1,6.8-1.6,16,16,0,0,1,7.5,1.8,14.4,14.4,0,0,1,5.7,5l-4.6,5a10.3,10.3,0,0,0-8.7-4.8,7.6,7.6,0,0,0-6.4,3.2c-1.6,2.1-2.4,5.1-2.5,9a7.9,7.9,0,0,1,3.6-3.4,10.3,10.3,0,0,1,5.4-1.3,15.8,15.8,0,0,1,5.8,1.1,13.5,13.5,0,0,1,4.7,3,14.2,14.2,0,0,1,3.2,4.5,14.7,14.7,0,0,1,1.1,5.6A14,14,0,0,1,218.1,233.8Zm35.6,4a23.6,23.6,0,0,1-3.3,7.5,13.5,13.5,0,0,1-5.2,4.6,13.9,13.9,0,0,1-6.8,1.6,16,16,0,0,1-7.5-1.8,15.7,15.7,0,0,1-5.7-4.9l4.6-5.1a11.6,11.6,0,0,0,3.7,3.6,10.6,10.6,0,0,0,5,1.2,7.4,7.4,0,0,0,6.4-3.2c1.6-2.1,2.4-5.1,2.5-9a8.7,8.7,0,0,1-3.6,3.5,11.3,11.3,0,0,1-5.4,1.2,14,14,0,0,1-5.8-1.1,13.5,13.5,0,0,1-4.7-3,12.9,12.9,0,0,1-3.1-4.5,13.1,13.1,0,0,1-1.2-5.6,14,14,0,0,1,1.2-5.8,14.3,14.3,0,0,1,3.3-4.7,14.9,14.9,0,0,1,4.9-3.2,18,18,0,0,1,6.2-1.1,15.4,15.4,0,0,1,6.5,1.3,14.1,14.1,0,0,1,4.9,3.8,19.1,19.1,0,0,1,3.2,6.2,29.6,29.6,0,0,1,1.1,8.2A39.9,39.9,0,0,1,253.7,237.8Zm34.7,4.4H259.5a24.9,24.9,0,0,1,.4-4.9,13.8,13.8,0,0,1,1.5-4,15.4,15.4,0,0,1,2.9-3.5,26.1,26.1,0,0,1,4.6-3.2l4.3-2.3a22.8,22.8,0,0,0,3.2-1.8,8.1,8.1,0,0,0,1.9-1.7,3.1,3.1,0,0,0,.7-2,4.1,4.1,0,0,0-1.4-3.1,6,6,0,0,0-4.2-1.3,7.5,7.5,0,0,0-2.6.4,9.4,9.4,0,0,0-2.3,1l-1.9,1.5A12.9,12.9,0,0,0,265,219l-5.1-5.9a11.1,11.1,0,0,1,2.2-1.9,26.3,26.3,0,0,1,3.4-1.8,24.1,24.1,0,0,1,4.3-1.5,27.6,27.6,0,0,1,5.1-.5,18.1,18.1,0,0,1,5.4.7,12.2,12.2,0,0,1,4.1,2.1,9,9,0,0,1,2.5,3.3,9.1,9.1,0,0,1,.9,4.1,8.7,8.7,0,0,1-.8,3.7,11.5,11.5,0,0,1-2,2.9,27.5,27.5,0,0,1-2.6,2.2l-2.7,1.6-2.4,1.3-2.4,1.6-2.2,1.9a10.7,10.7,0,0,0-1.5,2.2h17.2Zm37.4-14.3a4.1,4.1,0,0,1-.1,1.2H301.4a9,9,0,0,0,.9,3.3,9.4,9.4,0,0,0,1.8,2.5,9.7,9.7,0,0,0,2.6,1.5,8,8,0,0,0,3,.6,8.9,8.9,0,0,0,4.5-1.2,6.4,6.4,0,0,0,3-3.1l6.9,1.9a14.4,14.4,0,0,1-5.6,5.9,18.8,18.8,0,0,1-15.9,1,13.7,13.7,0,0,1-5.2-3.5,14.7,14.7,0,0,1-3.4-5.1,16.2,16.2,0,0,1-1.1-6.2,16.4,16.4,0,0,1,1.1-6.3,16.9,16.9,0,0,1,3.3-5.3,15.9,15.9,0,0,1,5.2-3.5,17.5,17.5,0,0,1,7-1.3,16.5,16.5,0,0,1,6.8,1.3,14.9,14.9,0,0,1,5.2,3.5,14.6,14.6,0,0,1,3.2,5.2,15.8,15.8,0,0,1,1.2,6.1C325.9,226.9,325.8,227.4,325.8,227.9Z" fill="#2e692e"/><path d="M309.4,216.1a10.6,10.6,0,0,0-3.1.5,13.2,13.2,0,0,0-2.5,1.6,7.4,7.4,0,0,0-1.7,2.5,6.9,6.9,0,0,0-.8,3.2h16.3a8.5,8.5,0,0,0-2.6-5.7A8.1,8.1,0,0,0,309.4,216.1Z" fill="#2e692e"/><polygon points="523.6 129 530.8 129 532.7 120.8 525.5 120.8 523.6 129" fill="#fcda5b"/><path d="M661.6,131.2a8.8,8.8,0,0,0-5.1,1.4,4.5,4.5,0,0,0-2,3.6,4.4,4.4,0,0,0,1.6,3.4,5.6,5.6,0,0,0,3.8,1.4,10.1,10.1,0,0,0,3.9-.8,6.7,6.7,0,0,0,2.9-1.9A3.1,3.1,0,0,0,668,136v-3.6l-3.1-.8A12.9,12.9,0,0,0,661.6,131.2Z" fill="#fcda5b"/><path d="M629.5,122.8a8,8,0,0,0-4.8-1.7,7.3,7.3,0,0,0-3.3.8,7.5,7.5,0,0,0-2.6,2.1,10.3,10.3,0,0,0-1.7,3.1,11.3,11.3,0,0,0-.6,3.6,9.4,9.4,0,0,0,.7,3.7,7.9,7.9,0,0,0,1.8,2.9,10.5,10.5,0,0,0,2.7,2,8.4,8.4,0,0,0,3.5.7,6.2,6.2,0,0,0,2.3-.4,9.7,9.7,0,0,0,2.3-1.1,9.6,9.6,0,0,0,1.8-1.7,5.7,5.7,0,0,0,1.3-2.1v-7.5A10.3,10.3,0,0,0,629.5,122.8Z" fill="#fcda5b"/><path d="M467,85v82H834V85Zm80.9,35.8h-8.7l-2,8.2H545v6h-9.3L533,146.2h-6.5l2.8-11.2h-7.2l-2.7,11.2h-6.5l2.8-11.2H509v-6h8.1l2-8.2h-7.3v-5.6h8.7l2.8-11.6h6.5l-2.9,11.6h7.2l2.8-11.6h6.5l-2.9,11.6h7.4Zm24.5-11a10.2,10.2,0,0,0-2.1-.9l-2.3-.3q-4.2,0-4.2,5.7v4.2h7.7v6.1h-7.7v21.6h-8V124.6h-4.1v-6.1h4.1v-3.9c0-4,.9-7.1,2.8-9.3a9.6,9.6,0,0,1,7.7-3.5,18.6,18.6,0,0,1,7.7,1.9Zm27.8,34.8a19,19,0,0,1-15.8.9,16.1,16.1,0,0,1-5.2-3.6,15.1,15.1,0,0,1-3.4-5.2,18.4,18.4,0,0,1-1.1-6.2,18,18,0,0,1,1.1-6.2,16.5,16.5,0,0,1,3.3-5.2,17,17,0,0,1,5.2-3.5,17.3,17.3,0,0,1,6.9-1.3,16.2,16.2,0,0,1,8.8,2.2,14.6,14.6,0,0,1,5.5,5.8l-7.9,2.4a7,7,0,0,0-2.7-2.7,7.8,7.8,0,0,0-3.7-.9,7.2,7.2,0,0,0-3.3.7,7.9,7.9,0,0,0-2.6,1.9,8.7,8.7,0,0,0-1.7,3,11.2,11.2,0,0,0-.6,3.8,12.3,12.3,0,0,0,.6,3.9,11.4,11.4,0,0,0,1.8,3,8.3,8.3,0,0,0,2.6,1.9,7.1,7.1,0,0,0,3.2.7,8.3,8.3,0,0,0,4-1.1,6.2,6.2,0,0,0,2.5-2.6l7.9,2.4A13.8,13.8,0,0,1,600.2,144.6Zm42.8,1.6a20.9,20.9,0,0,1-3.8.5,5.8,5.8,0,0,1-3.5-1.1,4,4,0,0,1-1.5-2.7l-.2-2.1a10.7,10.7,0,0,1-4.7,4.5,13.2,13.2,0,0,1-6.2,1.5,14.6,14.6,0,0,1-6-1.2,14.8,14.8,0,0,1-4.7-3.5,17.9,17.9,0,0,1-3.1-5.2,19.1,19.1,0,0,1-1.1-6.4,18.1,18.1,0,0,1,1.1-6.3,15.5,15.5,0,0,1,2.9-5.2,13.6,13.6,0,0,1,4.4-3.5,13.2,13.2,0,0,1,5.7-1.2,12.2,12.2,0,0,1,6.2,1.6,12.9,12.9,0,0,1,4.3,4.4V102.4h8.1V137a3,3,0,0,0,.4,1.8,2.2,2.2,0,0,0,1.7.6Zm35.2,0-2.2.4h-1.7a5.5,5.5,0,0,1-3.4-1.1,4.3,4.3,0,0,1-1.5-2.7l-.2-1.7a14.8,14.8,0,0,1-5.1,4.2,14.2,14.2,0,0,1-6.4,1.4,11.8,11.8,0,0,1-4.3-.7A9.8,9.8,0,0,1,650,144a10.4,10.4,0,0,1-2.3-3.2,10.1,10.1,0,0,1-.8-3.9,8,8,0,0,1,1-4.1,8.7,8.7,0,0,1,2.8-3.2,12.7,12.7,0,0,1,4.2-2.1,18,18,0,0,1,5.4-.8,27.1,27.1,0,0,1,4.1.4,18.9,18.9,0,0,1,3.6,1v-1.8a6.2,6.2,0,0,0-1.8-4.8,7.4,7.4,0,0,0-5.2-1.7,14.3,14.3,0,0,0-5,.9,21.9,21.9,0,0,0-4.9,2.7l-2.4-5.1a22.9,22.9,0,0,1,13-4c4.6,0,8.1,1.1,10.6,3.3s3.7,5.4,3.7,9.6V137a3,3,0,0,0,.5,1.8,2.1,2.1,0,0,0,1.7.6Zm32.1.5a14.5,14.5,0,0,1-3.3,4.5,16.4,16.4,0,0,1-5,2.9,18,18,0,0,1-6.2,1.1,17.4,17.4,0,0,1-8.4-2,13.3,13.3,0,0,1-5.6-5.4l4.6-4.8a13.4,13.4,0,0,0,4.2,3.7,11,11,0,0,0,5.2,1.4,7.4,7.4,0,0,0,5.3-2,6.6,6.6,0,0,0,2.1-5.1,6.9,6.9,0,0,0-2-5.1,6.6,6.6,0,0,0-4.9-1.9,7.8,7.8,0,0,0-3.7.9,7.2,7.2,0,0,0-2.7,2.5h-7a5.3,5.3,0,0,1,.2-1.4q.3-1.2.6-3c.2-1.2.5-2.6.8-4.1l.9-4.6c.7-3.6,1.5-7.8,2.4-12.3h21v7.3H693.6l-1.7,9.5a5.3,5.3,0,0,1,2.1-1.2,11.1,11.1,0,0,1,3.4-.5,14.7,14.7,0,0,1,5.6,1,12.6,12.6,0,0,1,7.4,7.1,15,15,0,0,1-.1,11.5Zm38.2-9.7a16.2,16.2,0,0,1-3.1,5.1,14.8,14.8,0,0,1-4.7,3.5,14,14,0,0,1-5.8,1.2,12.2,12.2,0,0,1-6.4-1.6,11.9,11.9,0,0,1-4.5-4.4v5.4h-7V102.4h8v17.9a11.5,11.5,0,0,1,10.8-6,11.8,11.8,0,0,1,5.6,1.3,14.8,14.8,0,0,1,4.4,3.5,17.3,17.3,0,0,1,2.8,5.2,21.9,21.9,0,0,1,1,6.3A19.1,19.1,0,0,1,748.5,137Z" fill="#fcda5b"/><path d="M739,124a7.5,7.5,0,0,0-2.6-2.1,7.3,7.3,0,0,0-3.3-.8,7.2,7.2,0,0,0-4.8,1.8,11.8,11.8,0,0,0-3.3,4.3v7.5a7.1,7.1,0,0,0,1.3,2.2,6.9,6.9,0,0,0,1.8,1.6,9.1,9.1,0,0,0,2.2,1.1,6.7,6.7,0,0,0,2.4.4,8.5,8.5,0,0,0,3.5-.8,8.6,8.6,0,0,0,2.7-2,7.9,7.9,0,0,0,1.8-2.9,10.5,10.5,0,0,0,.7-3.6,11.5,11.5,0,0,0-.6-3.7A9.2,9.2,0,0,0,739,124Z" fill="#fcda5b"/><path d="M733.8,216.1a9.4,9.4,0,0,0-3,.5,8.9,8.9,0,0,0-2.5,1.6,9.4,9.4,0,0,0-1.8,2.5,8.4,8.4,0,0,0-.8,3.2H742a8.5,8.5,0,0,0-2.6-5.7A7.9,7.9,0,0,0,733.8,216.1Z" fill="#371a3e"/><polygon points="523.6 225 530.8 225 532.7 216.8 525.5 216.8 523.6 225" fill="#371a3e"/><path d="M663.6,227.2a8.8,8.8,0,0,0-5.1,1.4,4.5,4.5,0,0,0-2,3.6,4.1,4.1,0,0,0,1.6,3.4,5.6,5.6,0,0,0,3.8,1.4,10.1,10.1,0,0,0,3.9-.8,5.8,5.8,0,0,0,2.8-1.9A2.9,2.9,0,0,0,670,232v-3.6l-3.2-.8A12.2,12.2,0,0,0,663.6,227.2Z" fill="#371a3e"/><path d="M467,181v82H834V181Zm80.9,35.8h-8.7l-2,8.2H545v6h-9.3L533,242.2h-6.5l2.8-11.2h-7.2l-2.7,11.2h-6.5l2.8-11.2H509v-6h8.1l2-8.2h-7.3v-5.6h8.7l2.8-11.6h6.5l-2.9,11.6h7.2l2.8-11.6h6.5l-2.9,11.6h7.4Zm32.4,27.1a10.7,10.7,0,0,1-3.2,3.8,14.2,14.2,0,0,1-4.9,2.5,21.1,21.1,0,0,1-6.4.9,20.2,20.2,0,0,1-8.1-1.5,14,14,0,0,1-5.8-4.3l4.5-5.7a13.6,13.6,0,0,0,3.7,3.1,12.1,12.1,0,0,0,5.4,1c2.4,0,4.3-.4,5.6-1.4a5.2,5.2,0,0,0,2-4.4,5.6,5.6,0,0,0-2.3-4.8c-1.4-1.2-3.7-1.7-6.7-1.7h-1.7v-6h1.9a9,9,0,0,0,5.7-1.7,5,5,0,0,0,2-4.2,4.3,4.3,0,0,0-1.6-3.7,7.4,7.4,0,0,0-4.4-1.2,9.9,9.9,0,0,0-4.9,1.3,9.3,9.3,0,0,0-3.6,3.5l-5-5.6a9.4,9.4,0,0,1,2.4-2.5,15.8,15.8,0,0,1,3.4-1.9,16.4,16.4,0,0,1,4.1-1.3,22.8,22.8,0,0,1,4.5-.4,16.5,16.5,0,0,1,5.6.8,13.3,13.3,0,0,1,4.3,2.1,8.8,8.8,0,0,1,2.8,3.3,9.2,9.2,0,0,1,1,4.4,12.7,12.7,0,0,1-.5,3.4,10.8,10.8,0,0,1-1.6,3,12.6,12.6,0,0,1-2.4,2.2,9.1,9.1,0,0,1-3.1,1.2,9.8,9.8,0,0,1,6.1,3.5,11.7,11.7,0,0,1,2.3,7.2A12.6,12.6,0,0,1,580.3,243.9Zm16.2,6h-9L605,214.6H585.7v-7.3h32Zm49.5-7.7H621.7V235h8.5V216.8a6.5,6.5,0,0,1-1.7,1.5l-2.5,1.4-2.9,1.1a15.1,15.1,0,0,1-2.6.4v-7.5a7.8,7.8,0,0,0,2.6-.7,23.8,23.8,0,0,0,3.1-1.7,17.4,17.4,0,0,0,2.6-1.9,5.8,5.8,0,0,0,1.4-1.4h8.2v27H646Zm34.2,0-2.2.4h-1.7a5.8,5.8,0,0,1-3.5-1.1,4.3,4.3,0,0,1-1.5-2.7v-1.7a14.8,14.8,0,0,1-5.1,4.2,14.4,14.4,0,0,1-6.5,1.4,11.6,11.6,0,0,1-4.2-.7A9.8,9.8,0,0,1,652,240a9,9,0,0,1-2.3-3.2,10.1,10.1,0,0,1-.8-3.9,8,8,0,0,1,1-4.1,8.4,8.4,0,0,1,2.7-3.2,13.3,13.3,0,0,1,4.3-2.1,18,18,0,0,1,5.4-.8,28.5,28.5,0,0,1,4.1.4,18.9,18.9,0,0,1,3.6,1v-1.8a6.2,6.2,0,0,0-1.8-4.8,7.5,7.5,0,0,0-5.3-1.7,14.1,14.1,0,0,0-4.9.9,21.9,21.9,0,0,0-4.9,2.7l-2.5-5.1a23.2,23.2,0,0,1,13.1-4q6.8,0,10.5,3.3c2.5,2.2,3.8,5.4,3.8,9.6V233a3,3,0,0,0,.5,1.8,2.1,2.1,0,0,0,1.7.6Zm32,1.7a10.4,10.4,0,0,1-3.1,3.8,15.1,15.1,0,0,1-4.9,2.5,22.2,22.2,0,0,1-6.5.9,20.5,20.5,0,0,1-8.1-1.5,14.7,14.7,0,0,1-5.8-4.3l4.6-5.7a11.2,11.2,0,0,0,3.7,3.1,11.9,11.9,0,0,0,5.3,1c2.5,0,4.3-.4,5.6-1.4a5.2,5.2,0,0,0,2-4.4,5.5,5.5,0,0,0-2.2-4.8c-1.5-1.2-3.7-1.7-6.7-1.7h-1.7v-6h1.8a8.6,8.6,0,0,0,5.7-1.7,5.1,5.1,0,0,0,2.1-4.2,4.4,4.4,0,0,0-1.7-3.7,7.1,7.1,0,0,0-4.3-1.2,10.3,10.3,0,0,0-5,1.3,9.8,9.8,0,0,0-3.5,3.5l-5.1-5.6a9.4,9.4,0,0,1,2.4-2.5,15.8,15.8,0,0,1,3.4-1.9,17.9,17.9,0,0,1,4.1-1.3,23.2,23.2,0,0,1,4.6-.4,16.9,16.9,0,0,1,5.6.8,14.4,14.4,0,0,1,4.3,2.1,9.9,9.9,0,0,1,2.8,3.3,10.5,10.5,0,0,1,1,4.4,9.7,9.7,0,0,1-.6,3.4,10.5,10.5,0,0,1-1.5,3,10.7,10.7,0,0,1-2.5,2.2,7.7,7.7,0,0,1-3.1,1.2,9.3,9.3,0,0,1,6.1,3.5,12.4,12.4,0,0,1,1.2,12.3Zm38.1-16c-.1.5-.1.9-.2,1.2H725.8a9,9,0,0,0,.9,3.3,7.9,7.9,0,0,0,1.9,2.5,7.4,7.4,0,0,0,2.6,1.5,7.3,7.3,0,0,0,3,.6,8.9,8.9,0,0,0,4.5-1.2,6.2,6.2,0,0,0,2.9-3.1l6.9,1.9a13.8,13.8,0,0,1-5.6,5.9,16.3,16.3,0,0,1-9,2.3,17,17,0,0,1-6.9-1.3,15.4,15.4,0,0,1-8.5-8.6,16.3,16.3,0,0,1-1.2-6.2,18.5,18.5,0,0,1,1.1-6.3,16.9,16.9,0,0,1,3.3-5.3,16.3,16.3,0,0,1,5.3-3.5,17,17,0,0,1,6.9-1.3,16.7,16.7,0,0,1,6.9,1.3,15.4,15.4,0,0,1,5.1,3.5,14.9,14.9,0,0,1,3.3,5.2,17.8,17.8,0,0,1,1.1,6.1Z" fill="#371a3e"/><path d="M1054,128.4a7.1,7.1,0,0,0-2.3-1.2,8.4,8.4,0,0,0-2.7-.4,8.6,8.6,0,0,0-2.8.4,10.5,10.5,0,0,0-2.3,1.3,7.4,7.4,0,0,0-1.6,2,6,6,0,0,0-.6,2.7,5.8,5.8,0,0,0,.6,2.6,7.9,7.9,0,0,0,1.7,2,7.3,7.3,0,0,0,2.3,1.3,8.6,8.6,0,0,0,2.8.4,6.5,6.5,0,0,0,2.7-.5,7.6,7.6,0,0,0,2.3-1.3,5.3,5.3,0,0,0,1.6-2,5.4,5.4,0,0,0,.6-2.5,6,6,0,0,0-.6-2.7A6.8,6.8,0,0,0,1054,128.4Z" fill="#3783a7"/><path d="M1116.9,131.2a8.8,8.8,0,0,0-5.1,1.4,4.5,4.5,0,0,0-2,3.6,4.4,4.4,0,0,0,1.6,3.4,5.6,5.6,0,0,0,3.8,1.4,10.1,10.1,0,0,0,3.9-.8,6.7,6.7,0,0,0,2.9-1.9,3.1,3.1,0,0,0,1.3-2.3v-3.6l-3.1-.8A12.9,12.9,0,0,0,1116.9,131.2Z" fill="#3783a7"/><path d="M1044.9,119.4a5.4,5.4,0,0,0,2,1,7.6,7.6,0,0,0,2.1.3l2.2-.3a5,5,0,0,0,1.9-1,4.3,4.3,0,0,0,1.4-1.6,3.8,3.8,0,0,0,.6-2.2,4.2,4.2,0,0,0-1.8-3.5,7.1,7.1,0,0,0-4.3-1.3,6.6,6.6,0,0,0-4.2,1.3,4.3,4.3,0,0,0-1.8,3.6,5.1,5.1,0,0,0,.5,2.2A6.7,6.7,0,0,0,1044.9,119.4Z" fill="#3783a7"/><path d="M880,85v82h391V85Zm80.9,35.8h-8.7l-2,8.2H958v6h-9.3L946,146.2h-6.5l2.8-11.2h-7.2l-2.7,11.2h-6.5l2.8-11.2H922v-6h8.1l2-8.2h-7.3v-5.6h8.7l2.8-11.6h6.5l-2.9,11.6h7.2l2.8-11.6h6.5l-2.9,11.6h7.4Zm32.4,27.1a10.7,10.7,0,0,1-3.2,3.8,14.2,14.2,0,0,1-4.9,2.5,21.1,21.1,0,0,1-6.4.9,20.2,20.2,0,0,1-8.1-1.5,14,14,0,0,1-5.8-4.3l4.5-5.7a13.6,13.6,0,0,0,3.7,3.1,12.1,12.1,0,0,0,5.4,1c2.4,0,4.3-.4,5.6-1.4a5.2,5.2,0,0,0,2-4.4,5.6,5.6,0,0,0-2.3-4.8c-1.4-1.2-3.7-1.7-6.7-1.7h-1.7v-6h1.9a9,9,0,0,0,5.7-1.7,5,5,0,0,0,2-4.2,4.3,4.3,0,0,0-1.6-3.7,7.4,7.4,0,0,0-4.4-1.2,9.9,9.9,0,0,0-4.9,1.3,9.3,9.3,0,0,0-3.6,3.5l-5-5.6a9.4,9.4,0,0,1,2.4-2.5,15.8,15.8,0,0,1,3.4-1.9,16.4,16.4,0,0,1,4.1-1.3,22.8,22.8,0,0,1,4.5-.4,16.5,16.5,0,0,1,5.6.8,13.3,13.3,0,0,1,4.3,2.1,8.8,8.8,0,0,1,2.8,3.3,9.2,9.2,0,0,1,1,4.4,12.7,12.7,0,0,1-.5,3.4,10.8,10.8,0,0,1-1.6,3,12.6,12.6,0,0,1-2.4,2.2,9.1,9.1,0,0,1-3.1,1.2,9.8,9.8,0,0,1,6.1,3.5,11.7,11.7,0,0,1,2.3,7.2A12.6,12.6,0,0,1,993.3,147.9Zm16.2,6h-9l17.5-35.3H998.7v-7.3h32Zm53.7-14.9a13.4,13.4,0,0,1-3.3,4.2,15.8,15.8,0,0,1-5,2.6,16.4,16.4,0,0,1-6,1,18.7,18.7,0,0,1-5.9-1,15.7,15.7,0,0,1-4.9-2.8,14.4,14.4,0,0,1-3.4-4.3,11.9,11.9,0,0,1-1.2-5.4,8.8,8.8,0,0,1,.6-3.3,11.2,11.2,0,0,1,1.6-2.8,11,11,0,0,1,2.1-2.2,16.7,16.7,0,0,1,2.4-1.6,9.8,9.8,0,0,1-3.8-3.2,8.1,8.1,0,0,1-1.6-4.7,10.1,10.1,0,0,1,1.3-5.1,12,12,0,0,1,3.4-3.7,16,16,0,0,1,4.5-2.3,16,16,0,0,1,10,0,15,15,0,0,1,4.6,2.2,12.9,12.9,0,0,1,3.3,3.7,9.7,9.7,0,0,1,1.3,5.1,7.9,7.9,0,0,1-1.6,4.8,8.3,8.3,0,0,1-3.8,3.2,17.7,17.7,0,0,1,2.4,1.7,8,8,0,0,1,2.2,2.3,12.5,12.5,0,0,1,1.5,2.8,9.7,9.7,0,0,1,.6,3.4A10.8,10.8,0,0,1,1063.2,139Zm34.1,8.9a10.4,10.4,0,0,1-3.1,3.8,15.1,15.1,0,0,1-4.9,2.5,22.2,22.2,0,0,1-6.5.9,20.5,20.5,0,0,1-8.1-1.5,14.7,14.7,0,0,1-5.8-4.3l4.6-5.7a11.2,11.2,0,0,0,3.7,3.1,11.9,11.9,0,0,0,5.3,1c2.5,0,4.3-.4,5.6-1.4a5.2,5.2,0,0,0,2-4.4,5.5,5.5,0,0,0-2.2-4.8c-1.5-1.2-3.7-1.7-6.7-1.7h-1.7v-6h1.8a8.6,8.6,0,0,0,5.7-1.7,5.1,5.1,0,0,0,2.1-4.2,4.4,4.4,0,0,0-1.7-3.7,7.1,7.1,0,0,0-4.3-1.2,10.3,10.3,0,0,0-5,1.3,9.8,9.8,0,0,0-3.5,3.5l-5.1-5.6a9.4,9.4,0,0,1,2.4-2.5,15.8,15.8,0,0,1,3.4-1.9,17.9,17.9,0,0,1,4.1-1.3,23.2,23.2,0,0,1,4.6-.4,16.9,16.9,0,0,1,5.6.8,14.4,14.4,0,0,1,4.3,2.1,9.9,9.9,0,0,1,2.8,3.3,10.5,10.5,0,0,1,1,4.4,9.7,9.7,0,0,1-.6,3.4,10.5,10.5,0,0,1-1.5,3,10.7,10.7,0,0,1-2.5,2.2,7.7,7.7,0,0,1-3.1,1.2,9.3,9.3,0,0,1,6.1,3.5,12.4,12.4,0,0,1,1.2,12.3Zm36.2-1.7-2.2.4h-1.7a5.5,5.5,0,0,1-3.4-1.1,4.3,4.3,0,0,1-1.5-2.7l-.2-1.7a14.8,14.8,0,0,1-5.1,4.2,14.2,14.2,0,0,1-6.4,1.4,11.8,11.8,0,0,1-4.3-.7,9.8,9.8,0,0,1-3.4-2.1,10.4,10.4,0,0,1-2.3-3.2,10.1,10.1,0,0,1-.8-3.9,8,8,0,0,1,1-4.1,8.7,8.7,0,0,1,2.8-3.2,12.7,12.7,0,0,1,4.2-2.1,18,18,0,0,1,5.4-.8,27.1,27.1,0,0,1,4.1.4,18.9,18.9,0,0,1,3.6,1v-1.8a6.2,6.2,0,0,0-1.8-4.8,7.4,7.4,0,0,0-5.2-1.7,14.3,14.3,0,0,0-5,.9,21.9,21.9,0,0,0-4.9,2.7l-2.4-5.1a22.9,22.9,0,0,1,13-4c4.6,0,8.1,1.1,10.6,3.3s3.7,5.4,3.7,9.6V137a3,3,0,0,0,.5,1.8,2.1,2.1,0,0,0,1.7.6Zm15,7.7h-9.1l17.6-35.3h-19.4v-7.3h32.1Z" fill="#3783a7"/><polygon points="936.6 129 943.8 129 945.7 120.8 938.5 120.8 936.6 129" fill="#3783a7"/><path d="M1058,216.8a7.1,7.1,0,0,0-2.4-2.2,6,6,0,0,0-2.9-.8,6.2,6.2,0,0,0-3.1.8,7.1,7.1,0,0,0-2.4,2.2,15.2,15.2,0,0,0-1.5,3.4,16.4,16.4,0,0,0-.5,4.5,14.5,14.5,0,0,0,.5,4.3,14.2,14.2,0,0,0,1.5,3.5,8.3,8.3,0,0,0,2.4,2.2,6.2,6.2,0,0,0,3.1.8,6,6,0,0,0,2.9-.8,8.3,8.3,0,0,0,2.4-2.2,14.2,14.2,0,0,0,1.5-3.5,14.5,14.5,0,0,0,.5-4.3,16.4,16.4,0,0,0-.5-4.5A15.2,15.2,0,0,0,1058,216.8Z" fill="#200f20"/><polygon points="936.6 225 943.8 225 945.7 216.8 938.5 216.8 936.6 225" fill="#200f20"/><path d="M1021.1,216.8a7.1,7.1,0,0,0-2.4-2.2,6,6,0,0,0-2.9-.8,6.2,6.2,0,0,0-3.1.8,7.1,7.1,0,0,0-2.4,2.2,15.2,15.2,0,0,0-1.5,3.4,16.4,16.4,0,0,0-.5,4.5,14.5,14.5,0,0,0,.5,4.3,14.2,14.2,0,0,0,1.5,3.5,8.3,8.3,0,0,0,2.4,2.2,6.2,6.2,0,0,0,3.1.8,6,6,0,0,0,2.9-.8,8.3,8.3,0,0,0,2.4-2.2,14.2,14.2,0,0,0,1.5-3.5,14.5,14.5,0,0,0,.5-4.3,16.4,16.4,0,0,0-.5-4.5A15.2,15.2,0,0,0,1021.1,216.8Z" fill="#200f20"/><path d="M880,181v82h391V181Zm80.9,35.8h-8.7l-2,8.2H958v6h-9.3L946,242.2h-6.5l2.8-11.2h-7.2l-2.7,11.2h-6.5l2.8-11.2H922v-6h8.1l2-8.2h-7.3v-5.6h8.7l2.8-11.6h6.5l-2.9,11.6h7.2l2.8-11.6h6.5l-2.9,11.6h7.4Zm33.6,25.4H965.6a24.9,24.9,0,0,1,.4-4.9,13.8,13.8,0,0,1,1.5-4,15.4,15.4,0,0,1,2.9-3.5,26.1,26.1,0,0,1,4.6-3.2l4.3-2.3a22.8,22.8,0,0,0,3.2-1.8,8.1,8.1,0,0,0,1.9-1.7,3.1,3.1,0,0,0,.7-2,4.1,4.1,0,0,0-1.4-3.1,6,6,0,0,0-4.2-1.3,7.5,7.5,0,0,0-2.6.4,9.4,9.4,0,0,0-2.3,1l-1.9,1.5a12.9,12.9,0,0,0-1.6,1.7l-5.1-5.9a11.1,11.1,0,0,1,2.2-1.9,26.3,26.3,0,0,1,3.4-1.8,24.1,24.1,0,0,1,4.3-1.5,27.6,27.6,0,0,1,5.1-.5,18.1,18.1,0,0,1,5.4.7,12.2,12.2,0,0,1,4.1,2.1,9,9,0,0,1,2.5,3.3,9.1,9.1,0,0,1,.9,4.1,8.7,8.7,0,0,1-.8,3.7,11.5,11.5,0,0,1-2,2.9,27.5,27.5,0,0,1-2.6,2.2l-2.7,1.6-2.4,1.3-2.4,1.6-2.2,1.9a10.7,10.7,0,0,0-1.5,2.2h17.2Zm35.6-10.3a17.2,17.2,0,0,1-3.3,5.8,15.1,15.1,0,0,1-4.9,3.8,13.9,13.9,0,0,1-6.1,1.3,14.5,14.5,0,0,1-6.3-1.3,15.1,15.1,0,0,1-4.9-3.8,17.1,17.1,0,0,1-3.2-5.8,22.5,22.5,0,0,1,0-14.5,17.1,17.1,0,0,1,3.2-5.8,15.1,15.1,0,0,1,4.9-3.8,14.6,14.6,0,0,1,6.3-1.4,14,14,0,0,1,6.1,1.4,15.1,15.1,0,0,1,4.9,3.8,17.2,17.2,0,0,1,3.3,5.8,24.4,24.4,0,0,1,0,14.5Zm36.9,0a17.2,17.2,0,0,1-3.3,5.8,15.1,15.1,0,0,1-4.9,3.8,13.9,13.9,0,0,1-6.1,1.3,14.5,14.5,0,0,1-6.3-1.3,15.1,15.1,0,0,1-4.9-3.8,17.1,17.1,0,0,1-3.2-5.8,22.5,22.5,0,0,1,0-14.5,17.1,17.1,0,0,1,3.2-5.8,15.1,15.1,0,0,1,4.9-3.8,14.6,14.6,0,0,1,6.3-1.4,14,14,0,0,1,6.1,1.4,15.1,15.1,0,0,1,4.9,3.8,17.2,17.2,0,0,1,3.3,5.8,24.4,24.4,0,0,1,0,14.5Zm26.3-26.1a10.2,10.2,0,0,0-2.1-.9l-2.2-.3q-4.2,0-4.2,5.7v4.2h7.6v6.1h-7.6v21.6h-8.1V220.6h-4.1v-6.1h4.1v-3.9c0-4,1-7.1,2.9-9.3a9.4,9.4,0,0,1,7.6-3.5,18.6,18.6,0,0,1,7.8,1.9Zm32,36.4h-28.9a24.9,24.9,0,0,1,.4-4.9,13.8,13.8,0,0,1,1.5-4,15.4,15.4,0,0,1,2.9-3.5,26.1,26.1,0,0,1,4.6-3.2l4.3-2.3a22.8,22.8,0,0,0,3.2-1.8,8.1,8.1,0,0,0,1.9-1.7,3.1,3.1,0,0,0,.7-2,4.1,4.1,0,0,0-1.4-3.1,6,6,0,0,0-4.2-1.3,7.5,7.5,0,0,0-2.6.4,9.4,9.4,0,0,0-2.3,1l-1.9,1.5a12.9,12.9,0,0,0-1.6,1.7l-5.1-5.9a11.1,11.1,0,0,1,2.2-1.9,26.3,26.3,0,0,1,3.4-1.8,24.1,24.1,0,0,1,4.3-1.5,27.6,27.6,0,0,1,5.1-.5,18.1,18.1,0,0,1,5.4.7,12.2,12.2,0,0,1,4.1,2.1,9,9,0,0,1,2.5,3.3,9.1,9.1,0,0,1,.9,4.1,8.7,8.7,0,0,1-.8,3.7,11.5,11.5,0,0,1-2,2.9,27.5,27.5,0,0,1-2.6,2.2l-2.7,1.6-2.4,1.3-2.4,1.6-2.2,1.9a10.7,10.7,0,0,0-1.5,2.2h17.2Zm35.6-10.3a17.2,17.2,0,0,1-3.3,5.8,15.1,15.1,0,0,1-4.9,3.8,13.9,13.9,0,0,1-6.1,1.3,14.5,14.5,0,0,1-6.3-1.3,15.1,15.1,0,0,1-4.9-3.8,17.1,17.1,0,0,1-3.2-5.8,22.5,22.5,0,0,1,0-14.5,17.1,17.1,0,0,1,3.2-5.8,15.1,15.1,0,0,1,4.9-3.8,14.6,14.6,0,0,1,6.3-1.4,14,14,0,0,1,6.1,1.4,15.1,15.1,0,0,1,4.9,3.8,17.2,17.2,0,0,1,3.3,5.8,24.4,24.4,0,0,1,0,14.5Z" fill="#200f20"/><path d="M1151.9,216.8a7.1,7.1,0,0,0-2.4-2.2,6,6,0,0,0-2.9-.8,6.2,6.2,0,0,0-3.1.8,7.1,7.1,0,0,0-2.4,2.2,15.2,15.2,0,0,0-1.5,3.4,16.4,16.4,0,0,0-.5,4.5,14.5,14.5,0,0,0,.5,4.3,14.2,14.2,0,0,0,1.5,3.5,8.3,8.3,0,0,0,2.4,2.2,6.2,6.2,0,0,0,3.1.8,6,6,0,0,0,2.9-.8,8.3,8.3,0,0,0,2.4-2.2,14.2,14.2,0,0,0,1.5-3.5,14.5,14.5,0,0,0,.5-4.3,16.4,16.4,0,0,0-.5-4.5A15.2,15.2,0,0,0,1151.9,216.8Z" fill="#200f20"/></svg>