<svg xmlns="http://www.w3.org/2000/svg" width="1300" height="422" viewBox="0 0 1300 422"><path fill="#fff" d="M43.5 59a6.6 6.6 0 0 1-3.2-.8 5.4 5.4 0 0 1-2.2-2.3v9.2h-4V43h3.5v2.7a5.8 5.8 0 0 1 2.2-2.2 6.9 6.9 0 0 1 3.2-.8 7.3 7.3 0 0 1 3 .6 8 8 0 0 1 2.3 1.8 9.3 9.3 0 0 1 1.5 2.6 7.8 7.8 0 0 1 .6 3.1 11.3 11.3 0 0 1-.5 3.2 9.3 9.3 0 0 1-1.5 2.6 6.5 6.5 0 0 1-2.2 1.8 6 6 0 0 1-2.7.6zm-1.3-3.4a4.2 4.2 0 0 0 1.6-.4 3.5 3.5 0 0 0 1.3-1.1 3.8 3.8 0 0 0 .9-1.5 5.7 5.7 0 0 0 .3-1.8 4.1 4.1 0 0 0-.4-1.9 4.2 4.2 0 0 0-.9-1.4 2.8 2.8 0 0 0-1.4-1 3.3 3.3 0 0 0-1.7-.4l-1.2.2a3 3 0 0 0-1.1.6l-.9.8a2.4 2.4 0 0 0-.6 1.1v3.6a5.5 5.5 0 0 0 1.7 2.3 3.6 3.6 0 0 0 2.4.9zm20.2-9.2a11.4 11.4 0 0 0-3.3.7 4.5 4.5 0 0 0-2 2.1v9.5H53V43h3.7v3.3a9.2 9.2 0 0 1 2.1-2.6 5 5 0 0 1 2.8-1h.8zm2.3-5.6v-4h4v4zm0 17.9V43h4v15.7zm32 0h-4.1v-8.8a5.1 5.1 0 0 0-.6-2.8 2.3 2.3 0 0 0-1.8-.9 3.3 3.3 0 0 0-2.2.9 6.1 6.1 0 0 0-1.5 2.4v9.2h-4.1v-8.8a5.1 5.1 0 0 0-.6-2.8 2 2 0 0 0-1.8-.9 3.3 3.3 0 0 0-2.2.9 4.9 4.9 0 0 0-1.5 2.4v9.2h-4.1V43h3.7v2.9a6.2 6.2 0 0 1 2.4-2.4 7.4 7.4 0 0 1 3.4-.8 4.3 4.3 0 0 1 3.1 1 4.9 4.9 0 0 1 1.4 2.3 6.4 6.4 0 0 1 2.4-2.5 7.4 7.4 0 0 1 3.4-.8 5.2 5.2 0 0 1 2.3.5 6.7 6.7 0 0 1 1.5 1.4 11.8 11.8 0 0 1 .7 2 17.9 17.9 0 0 1 .2 2.3zm7.7.3a5.2 5.2 0 0 1-2.1-.4 4.8 4.8 0 0 1-1.7-1 4.2 4.2 0 0 1-1.1-1.6 4.5 4.5 0 0 1-.4-2 4.1 4.1 0 0 1 .5-2.1 4.8 4.8 0 0 1 1.3-1.6 9 9 0 0 1 2.2-1 11 11 0 0 1 2.7-.4l2 .2 1.8.5v-.9a3.2 3.2 0 0 0-.9-2.4 4 4 0 0 0-2.6-.8 6.9 6.9 0 0 0-2.5.4 10 10 0 0 0-2.4 1.4l-1.3-2.6a11.9 11.9 0 0 1 6.6-2 7.1 7.1 0 0 1 5.2 1.7 5.9 5.9 0 0 1 1.9 4.8v4.9a2 2 0 0 0 .2.9l.9.3v3.4h-1.9a3 3 0 0 1-1.8-.5 2.3 2.3 0 0 1-.7-1.4V56a7.5 7.5 0 0 1-2.6 2.1 8.3 8.3 0 0 1-3.3.9zm1.2-3a6.3 6.3 0 0 0 1.9-.3 3.9 3.9 0 0 0 1.4-1 1.3 1.3 0 0 0 .7-1.1v-1.8l-1.6-.5h-1.6a3.9 3.9 0 0 0-2.5.7 2.1 2.1 0 0 0-1 1.8 2 2 0 0 0 .8 1.7 2.9 2.9 0 0 0 1.9.5zm21.2-9.6a11.4 11.4 0 0 0-3.3.7 4.5 4.5 0 0 0-2 2.1v9.5h-4.1V43h3.7v3.3a8 8 0 0 1 2.2-2.6 4.5 4.5 0 0 1 2.7-1h.8zm2.5 15.3l1 .3h1.4l.6-.5.6-1a16.2 16.2 0 0 0 .6-1.7L127.3 43h4.1l4.3 12.2 3.8-12.2h3.7l-6.6 18.8a5.3 5.3 0 0 1-5.2 3.8 7.8 7.8 0 0 1-2.1-.4zm21.5-10.9a8.1 8.1 0 0 1 .6-3.1 7.3 7.3 0 0 1 1.7-2.6 6.9 6.9 0 0 1 2.6-1.7 7.4 7.4 0 0 1 3.4-.7 8.7 8.7 0 0 1 4.4 1.1 6.9 6.9 0 0 1 2.7 2.9l-3.9 1.2a2.9 2.9 0 0 0-1.4-1.3 3.5 3.5 0 0 0-1.8-.5 2.9 2.9 0 0 0-1.6.4 3 3 0 0 0-1.3.9 3.8 3.8 0 0 0-.9 1.5 5.8 5.8 0 0 0-.3 1.9 5.4 5.4 0 0 0 .3 1.9 3.8 3.8 0 0 0 .9 1.5 3.1 3.1 0 0 0 1.3 1 4.2 4.2 0 0 0 1.6.4 3.6 3.6 0 0 0 2-.6 3.3 3.3 0 0 0 1.3-1.3l3.9 1.2a5.8 5.8 0 0 1-2.7 2.9 7.9 7.9 0 0 1-4.5 1.2 7.7 7.7 0 0 1-3.4-.7 6.8 6.8 0 0 1-2.6-1.8 7.8 7.8 0 0 1-1.7-2.6 8.1 8.1 0 0 1-.6-3.1zm25 8.2a7.4 7.4 0 0 1-3.4-.7 6.8 6.8 0 0 1-2.6-1.8 7.8 7.8 0 0 1-1.7-2.6 9.9 9.9 0 0 1-.5-3 11.3 11.3 0 0 1 .5-3.2 10.6 10.6 0 0 1 1.7-2.6 7.8 7.8 0 0 1 2.6-1.7 7.4 7.4 0 0 1 3.4-.7 7.8 7.8 0 0 1 3.5.7 7.4 7.4 0 0 1 2.5 1.7 8.3 8.3 0 0 1 1.7 2.6 8.6 8.6 0 0 1 .5 3.2 7.9 7.9 0 0 1-2.1 5.6 6.8 6.8 0 0 1-2.6 1.8 7.8 7.8 0 0 1-3.5.7zm-4.1-8.1a5.8 5.8 0 0 0 .3 1.9 4.2 4.2 0 0 0 .9 1.4 3.1 3.1 0 0 0 1.3 1 3.4 3.4 0 0 0 3.2 0 3.3 3.3 0 0 0 1.4-1 5.3 5.3 0 0 0 .8-1.5 5.4 5.4 0 0 0 .3-1.9 5.8 5.8 0 0 0-.3-1.9 10.9 10.9 0 0 0-.8-1.5 4.2 4.2 0 0 0-1.4-.9 3.4 3.4 0 0 0-3.2 0 3.1 3.1 0 0 0-1.3 1 3.8 3.8 0 0 0-.9 1.5 5.4 5.4 0 0 0-.3 1.9zm15-14.1h4v16.7c0 1.2.5 1.8 1.6 1.8h.8l.8-.3.6 3.2a6 6 0 0 1-1.9.6 7.5 7.5 0 0 1-2 .2 3.9 3.9 0 0 1-2.9-1 3.7 3.7 0 0 1-1-2.8zM203.4 59a7.8 7.8 0 0 1-3.5-.7 6.8 6.8 0 0 1-2.6-1.8 8.7 8.7 0 0 1-2.2-5.6 8.7 8.7 0 0 1 .6-3.2 10.1 10.1 0 0 1 1.6-2.6 8.8 8.8 0 0 1 6.1-2.4 7.7 7.7 0 0 1 3.4.7 7.8 7.8 0 0 1 2.6 1.7 10.1 10.1 0 0 1 1.6 2.6 8.7 8.7 0 0 1 .6 3.2 8.7 8.7 0 0 1-2.2 5.6 6.8 6.8 0 0 1-2.6 1.8 7.7 7.7 0 0 1-3.4.7zm-4.1-8.1a5.8 5.8 0 0 0 .3 1.9 6.4 6.4 0 0 0 .8 1.4 3.1 3.1 0 0 0 1.3 1 3.6 3.6 0 0 0 3.3 0 3.1 3.1 0 0 0 1.3-1 3.8 3.8 0 0 0 .9-1.5 5.4 5.4 0 0 0 .3-1.9 5.8 5.8 0 0 0-.3-1.9 6 6 0 0 0-.9-1.5 3.8 3.8 0 0 0-1.3-.9 3.2 3.2 0 0 0-1.6-.4 3.3 3.3 0 0 0-1.7.4 3.1 3.1 0 0 0-1.3 1 5.3 5.3 0 0 0-.8 1.5 5.4 5.4 0 0 0-.3 1.9zM219 59a4.4 4.4 0 0 1-3.7-1.6 7.4 7.4 0 0 1-1.2-4.6V43h4v8.9c0 2.5.9 3.7 2.6 3.7a4.8 4.8 0 0 0 2.3-.7 5.8 5.8 0 0 0 1.8-2.2V43h4v11.1a2 2 0 0 0 .2.9l.9.3v3.4h-2a3.1 3.1 0 0 1-1.7-.5 2.1 2.1 0 0 1-.7-1.4v-1.1a7.2 7.2 0 0 1-2.7 2.5 8.7 8.7 0 0 1-3.8.8zm23.2-12.6a10.1 10.1 0 0 0-3.2.7 4.3 4.3 0 0 0-2.1 2.1v9.5h-4V43h3.7v3.3a6.7 6.7 0 0 1 2.1-2.6 5 5 0 0 1 2.7-1h.8zm8.4 12.6l-1.9-.2-2.1-.4-1.9-.6-1.6-.9 1.7-2.7a10.5 10.5 0 0 0 5.8 1.9 3.4 3.4 0 0 0 1.9-.4 1.6 1.6 0 0 0 .8-1.3 1.4 1.4 0 0 0-.9-1.3 20.9 20.9 0 0 0-2.9-.9l-2.6-.7-1.7-.9a2.8 2.8 0 0 1-1-1.2 3.3 3.3 0 0 1-.3-1.5 4.7 4.7 0 0 1 1.8-3.8 7 7 0 0 1 2.1-1.1 10.9 10.9 0 0 1 5.8.2 12.3 12.3 0 0 1 3.1 1.4l-1.6 2.5a9.3 9.3 0 0 0-2.5-1.2 6.7 6.7 0 0 0-2.4-.4 4.8 4.8 0 0 0-1.8.4 1.5 1.5 0 0 0-.7 1.4 1.3 1.3 0 0 0 .7 1.2l2.5.8a17.1 17.1 0 0 1 2.9.8 8.5 8.5 0 0 1 1.9 1 2.5 2.5 0 0 1 1.1 1.2 4.3 4.3 0 0 1 .4 1.7 4.6 4.6 0 0 1-.5 2.1 4.7 4.7 0 0 1-1.3 1.5 5.1 5.1 0 0 1-2.1 1 7.7 7.7 0 0 1-2.7.4zM38.4 323a4.6 4.6 0 0 1-2.1-.4 4 4 0 0 1-1.7-1 6.1 6.1 0 0 1-1.2-1.6 6.5 6.5 0 0 1-.4-2 5.4 5.4 0 0 1 .5-2.1 7 7 0 0 1 1.4-1.6 10.2 10.2 0 0 1 2.1-1 11 11 0 0 1 2.7-.4l2.1.2 1.8.5v-.9a3.2 3.2 0 0 0-.9-2.4 4 4 0 0 0-2.6-.8 6.9 6.9 0 0 0-2.5.4 12.8 12.8 0 0 0-2.5 1.4l-1.2-2.6a11.8 11.8 0 0 1 6.5-2c2.3 0 4.1.5 5.3 1.7a5.9 5.9 0 0 1 1.9 4.8v4.9a2 2 0 0 0 .2.9l.9.3v3.4h-2a2.9 2.9 0 0 1-1.7-.5 2.3 2.3 0 0 1-.7-1.4v-.8a7.5 7.5 0 0 1-2.6 2.1 8.8 8.8 0 0 1-3.3.9zm1.1-3a6.4 6.4 0 0 0 2-.3 3.9 3.9 0 0 0 1.4-1 1.5 1.5 0 0 0 .7-1.1v-1.8l-1.6-.5h-1.6a4.2 4.2 0 0 0-2.6.7 2.4 2.4 0 0 0-1 1.8 2.3 2.3 0 0 0 .8 1.7 3.1 3.1 0 0 0 1.9.5zm11-5.2a10.6 10.6 0 0 1 .5-3.1 9 9 0 0 1 1.7-2.6 7.8 7.8 0 0 1 2.6-1.7 7.7 7.7 0 0 1 3.4-.7 8.4 8.4 0 0 1 4.4 1.1 7.1 7.1 0 0 1 2.8 2.9l-4 1.2a3.3 3.3 0 0 0-1.3-1.3 4.1 4.1 0 0 0-1.9-.5 2.9 2.9 0 0 0-1.6.4 3.8 3.8 0 0 0-1.3.9 3.8 3.8 0 0 0-.9 1.5 5.8 5.8 0 0 0-.3 1.9 4.8 4.8 0 0 0 1.2 3.4 3.1 3.1 0 0 0 1.3 1 4.7 4.7 0 0 0 1.6.4 3.6 3.6 0 0 0 2-.6 3.3 3.3 0 0 0 1.3-1.3l3.9 1.2a5.8 5.8 0 0 1-2.7 2.9 8.9 8.9 0 0 1-7.9.5 6.8 6.8 0 0 1-2.6-1.8 7.8 7.8 0 0 1-1.7-2.6 10.6 10.6 0 0 1-.5-3.1zm16.9 0a8.1 8.1 0 0 1 .6-3.1 7.1 7.1 0 0 1 1.6-2.6 8.8 8.8 0 0 1 6.1-2.4 9 9 0 0 1 4.4 1.1 6.9 6.9 0 0 1 2.7 2.9l-4 1.2a2.7 2.7 0 0 0-1.3-1.3 4.1 4.1 0 0 0-1.9-.5 3.2 3.2 0 0 0-1.6.4 3.8 3.8 0 0 0-1.3.9 3.8 3.8 0 0 0-.9 1.5 5.8 5.8 0 0 0-.3 1.9 3.8 3.8 0 0 0 .4 1.9 5.3 5.3 0 0 0 .8 1.5 3.1 3.1 0 0 0 1.3 1 4.7 4.7 0 0 0 1.6.4 3.4 3.4 0 0 0 2-.6 2.7 2.7 0 0 0 1.3-1.3l3.9 1.2a6.1 6.1 0 0 1-2.6 2.9 8.4 8.4 0 0 1-4.5 1.2 8.1 8.1 0 0 1-3.5-.7 7.6 7.6 0 0 1-4.2-4.4 8.1 8.1 0 0 1-.6-3.1zm25.2 8.2a7.4 7.4 0 0 1-3.4-.7 6.9 6.9 0 0 1-2.6-1.7 7.3 7.3 0 0 1-1.7-2.6 8.1 8.1 0 0 1-.6-3.1 8.7 8.7 0 0 1 .6-3.2 8 8 0 0 1 1.6-2.6 7.8 7.8 0 0 1 2.6-1.7 8.1 8.1 0 0 1 3.5-.7 7.4 7.4 0 0 1 3.4.7 6.9 6.9 0 0 1 2.6 1.7 7.1 7.1 0 0 1 1.6 2.6 8.1 8.1 0 0 1 .6 3.1v.7c0 .3 0 .5-.1.6H88.6a4.7 4.7 0 0 0 .4 1.7 5.4 5.4 0 0 0 .9 1.2l1.3.8a3.9 3.9 0 0 0 1.5.2 5.9 5.9 0 0 0 2.3-.5 3.3 3.3 0 0 0 1.5-1.6l3.4 1a6.5 6.5 0 0 1-2.8 2.9 8.2 8.2 0 0 1-4.5 1.2zm4.1-9.5a4.3 4.3 0 0 0-1.3-2.8 4.2 4.2 0 0 0-4.4-.8 4.2 4.2 0 0 0-1.2.8 2.7 2.7 0 0 0-.9 1.2 4.2 4.2 0 0 0-.4 1.6zm21.2 9.2h-4v-8.8a5 5 0 0 0-.7-2.8 2.1 2.1 0 0 0-1.8-.9l-1.3.3-1.2.6-1 1.1a3.1 3.1 0 0 0-.6 1.3v9.2h-4V307h3.6v2.9a6.4 6.4 0 0 1 2.5-2.4 9.1 9.1 0 0 1 3.7-.8 5.4 5.4 0 0 1 2.4.5 5.1 5.1 0 0 1 1.5 1.4 11.8 11.8 0 0 1 .7 2 17.9 17.9 0 0 1 .2 2.3zm12.8-.8l-2 .7a10.1 10.1 0 0 1-2.5.4 4 4 0 0 1-1.5-.3 2.6 2.6 0 0 1-1.3-.6 2.7 2.7 0 0 1-.9-1.2 4.8 4.8 0 0 1-.3-1.8v-9h-2.1V307h2.1v-5.1h4v5.1h3.3v3.1h-3.3v7.6c0 .6.1 1 .4 1.2a2.1 2.1 0 0 0 1.1.4l1.2-.2 1-.4zm8.2-7.1a8.1 8.1 0 0 1 .6-3.1 7.3 7.3 0 0 1 1.7-2.6 6.9 6.9 0 0 1 2.6-1.7 7.4 7.4 0 0 1 3.4-.7 8.7 8.7 0 0 1 4.4 1.1 6.9 6.9 0 0 1 2.7 2.9l-3.9 1.2a4 4 0 0 0-3.2-1.8 2.9 2.9 0 0 0-1.6.4 3 3 0 0 0-1.3.9 3.8 3.8 0 0 0-.9 1.5 5.8 5.8 0 0 0-.3 1.9 5.4 5.4 0 0 0 .3 1.9 3.8 3.8 0 0 0 .9 1.5 3.1 3.1 0 0 0 1.3 1 4.2 4.2 0 0 0 1.6.4 3.6 3.6 0 0 0 2-.6 2.5 2.5 0 0 0 1.2-1.3l4 1.2a6.9 6.9 0 0 1-2.7 2.9 7.9 7.9 0 0 1-4.5 1.2 7.7 7.7 0 0 1-3.4-.7 6.8 6.8 0 0 1-2.6-1.8 7.8 7.8 0 0 1-1.7-2.6 8.1 8.1 0 0 1-.6-3.1zm25 8.2a7.4 7.4 0 0 1-3.4-.7 6.1 6.1 0 0 1-2.6-1.8 7.8 7.8 0 0 1-1.7-2.6 9.9 9.9 0 0 1-.5-3 11.3 11.3 0 0 1 .5-3.2 10.6 10.6 0 0 1 1.7-2.6 6.9 6.9 0 0 1 2.6-1.7 7.4 7.4 0 0 1 3.4-.7 8.1 8.1 0 0 1 3.5.7 7.4 7.4 0 0 1 2.5 1.7 10.6 10.6 0 0 1 1.7 2.6 11.3 11.3 0 0 1 .5 3.2 9.9 9.9 0 0 1-.5 3 7.8 7.8 0 0 1-1.7 2.6 6.4 6.4 0 0 1-2.5 1.8 8.1 8.1 0 0 1-3.5.7zm-4.1-8.1a5.8 5.8 0 0 0 .3 1.9 4.2 4.2 0 0 0 .9 1.4 3.1 3.1 0 0 0 1.3 1 3.4 3.4 0 0 0 3.2 0 2.6 2.6 0 0 0 1.3-1 3.8 3.8 0 0 0 .9-1.5 5.4 5.4 0 0 0 .3-1.9 5.8 5.8 0 0 0-.3-1.9 6 6 0 0 0-.9-1.5 3 3 0 0 0-1.3-.9 3.4 3.4 0 0 0-3.2 0 3.1 3.1 0 0 0-1.3 1 3.8 3.8 0 0 0-.9 1.5 5.4 5.4 0 0 0-.3 1.9zm15-14.1h4v16.7c0 1.2.5 1.8 1.6 1.8h.8l.8-.3.5 3.2a4.8 4.8 0 0 1-1.8.6 7.5 7.5 0 0 1-2 .2 3.8 3.8 0 0 1-2.9-1 3.7 3.7 0 0 1-1-2.8zm16.7 22.2a7.8 7.8 0 0 1-3.5-.7 6.8 6.8 0 0 1-2.6-1.8 8.7 8.7 0 0 1-2.2-5.6 8.7 8.7 0 0 1 .6-3.2 10.1 10.1 0 0 1 1.6-2.6 8.8 8.8 0 0 1 6.1-2.4 7.7 7.7 0 0 1 3.4.7 7.8 7.8 0 0 1 2.6 1.7 10.1 10.1 0 0 1 1.6 2.6 8.7 8.7 0 0 1 .6 3.2 8.7 8.7 0 0 1-2.2 5.6 6.8 6.8 0 0 1-2.6 1.8 7.7 7.7 0 0 1-3.4.7zm-4.2-8.1a5.8 5.8 0 0 0 .4 1.9 6.4 6.4 0 0 0 .8 1.4 3.1 3.1 0 0 0 1.3 1 3.6 3.6 0 0 0 3.3 0 3.1 3.1 0 0 0 1.3-1 4.8 4.8 0 0 0 1.2-3.4 5.8 5.8 0 0 0-.3-1.9 11.9 11.9 0 0 0-.9-1.5 3.8 3.8 0 0 0-1.3-.9 3.2 3.2 0 0 0-1.6-.4 3.3 3.3 0 0 0-1.7.4 3.1 3.1 0 0 0-1.3 1 6.5 6.5 0 0 0-1.2 3.4zm19.8 8.1a4.4 4.4 0 0 1-3.7-1.6 7.4 7.4 0 0 1-1.2-4.6V307h4v8.9c0 2.5.9 3.7 2.6 3.7a4.8 4.8 0 0 0 2.3-.7 5.8 5.8 0 0 0 1.8-2.2V307h4v11.1a2 2 0 0 0 .2.9l.9.3v3.4h-2a2.9 2.9 0 0 1-1.7-.5 2.1 2.1 0 0 1-.7-1.4v-1.3a7.2 7.2 0 0 1-2.7 2.5 8.7 8.7 0 0 1-3.8 1zm23.2-12.6a10.1 10.1 0 0 0-3.2.7 4.3 4.3 0 0 0-2.1 2.1v9.5h-4V307h3.7v3.3a6.7 6.7 0 0 1 2.1-2.6 5 5 0 0 1 2.7-1h.8z"/><path fill="#e90e4e" d="M227.9 107.9h5.7l1.5-5.9h-5.7l-1.5 5.9zm80.6-4.9a5.7 5.7 0 0 0-1.8-1.2 5.4 5.4 0 0 0-2.2-.4 4.9 4.9 0 0 0-2.1.4 5.5 5.5 0 0 0-3 3 5.5 5.5 0 0 0-.6 2.2h11.5a4.6 4.6 0 0 0-.6-2.3 6.6 6.6 0 0 0-1.2-1.7zm-18.3-1.3a5 5 0 0 0-1.7-1.5 5.1 5.1 0 0 0-2.2-.5 5.4 5.4 0 0 0-2.2.5 5 5 0 0 0-1.7 1.5 7.1 7.1 0 0 0-1.2 2.3 10.7 10.7 0 0 0 0 5.8 7.1 7.1 0 0 0 1.2 2.3 5 5 0 0 0 1.7 1.5 5.4 5.4 0 0 0 2.2.5 5.1 5.1 0 0 0 2.2-.5 5 5 0 0 0 1.7-1.5 7.1 7.1 0 0 0 1.2-2.3 10.7 10.7 0 0 0 0-5.8 7.1 7.1 0 0 0-1.2-2.3zm-35.5 1.3a6.6 6.6 0 0 0-1.7-1.2 6.3 6.3 0 0 0-4.4 0 6.6 6.6 0 0 0-1.7 1.2 4.6 4.6 0 0 0-1.3 1.8 5.4 5.4 0 0 0-.5 2.2h11.5a8.6 8.6 0 0 0-.6-2.3 5.2 5.2 0 0 0-1.3-1.7zm17.3-1a5.7 5.7 0 0 0-1.8-1.2 5.2 5.2 0 0 0-2.1-.4 5.4 5.4 0 0 0-2.2.4 5.7 5.7 0 0 0-1.8 1.2 6.6 6.6 0 0 0-1.2 1.7 5.4 5.4 0 0 0 .1 4.3 4.4 4.4 0 0 0 1.2 1.8 5.2 5.2 0 0 0 1.7 1.2 6 6 0 0 0 4.3 0 5.5 5.5 0 0 0 3-3 5.2 5.2 0 0 0 .4-2.1 4.6 4.6 0 0 0-.4-2.1 5.7 5.7 0 0 0-1.2-1.8zm70.3 1a6.6 6.6 0 0 0-1.7-1.2 6.2 6.2 0 0 0-4.4 0 6.6 6.6 0 0 0-1.7 1.2 4.6 4.6 0 0 0-1.3 1.8 5.4 5.4 0 0 0-.5 2.2h11.5a8.6 8.6 0 0 0-.6-2.3 5.2 5.2 0 0 0-1.3-1.7z"/><path fill="#e90e4e" d="M32 84v42h606V84zm208.6 18h-3.9l-1.4 5.9h4v1.6h-4.4l-1.5 6.2h-1.7l1.5-6.2h-5.6l-1.5 6.2h-1.8l1.6-6.2h-3.4v-1.6h3.7l1.5-5.9h-4v-1.6h4.4l1.4-6h1.7l-1.5 6h5.7l1.5-6h1.7l-1.5 6h3.5zm17.9 6.3v.3h-13.4a8.6 8.6 0 0 0 .6 2.3 6.4 6.4 0 0 0 1.3 1.9 6.6 6.6 0 0 0 1.7 1.2 5.4 5.4 0 0 0 2.2.4 3.9 3.9 0 0 0 1.5-.2 3.5 3.5 0 0 0 1.4-.6l1.1-.8a4.2 4.2 0 0 0 .8-1.2l1.8.5a5.7 5.7 0 0 1-1.1 1.6l-1.5 1.2-1.9.8a7.8 7.8 0 0 1-2.2.3 6.4 6.4 0 0 1-3.1-.7 7.4 7.4 0 0 1-2.5-1.7 7.1 7.1 0 0 1-1.6-2.6 8.7 8.7 0 0 1-.6-3.2 8.1 8.1 0 0 1 .6-3.1 6 6 0 0 1 1.6-2.5 7.6 7.6 0 0 1 2.5-1.8 8.3 8.3 0 0 1 6.2 0 7.6 7.6 0 0 1 2.5 1.8 8.2 8.2 0 0 1 1.6 2.5 8.1 8.1 0 0 1 .5 3.1zm16.7 4.8a15.1 15.1 0 0 1-1.6 4 7.1 7.1 0 0 1-2.5 2.4 6.9 6.9 0 0 1-3.2.8 6.7 6.7 0 0 1-6.4-4l1.4-1.2a4.8 4.8 0 0 0 1.9 2.5 5.9 5.9 0 0 0 3.1.9 4.8 4.8 0 0 0 2.4-.6 6.2 6.2 0 0 0 1.8-1.8 6.8 6.8 0 0 0 1.2-3 14.8 14.8 0 0 0 .5-3.9 5.8 5.8 0 0 1-2.3 2.8 6.6 6.6 0 0 1-3.6 1.1 7.2 7.2 0 0 1-2.9-.6 7.6 7.6 0 0 1-2.3-1.5 7.3 7.3 0 0 1-1.6-2.3 6.6 6.6 0 0 1-.5-2.8 7.1 7.1 0 0 1 .5-2.9 7.9 7.9 0 0 1 1.6-2.3 7.8 7.8 0 0 1 2.4-1.6 7.3 7.3 0 0 1 3-.5 8.1 8.1 0 0 1 3.1.6 8.1 8.1 0 0 1 2.4 1.7 8.5 8.5 0 0 1 1.6 2.8 14.6 14.6 0 0 1 .5 3.8 30.6 30.6 0 0 1-.5 5.6zm18.1-2.6a9 9 0 0 1-1.6 2.9 7.2 7.2 0 0 1-2.4 1.9 6.8 6.8 0 0 1-6 0 7.2 7.2 0 0 1-2.4-1.9 8.9 8.9 0 0 1-1.5-2.9 10.5 10.5 0 0 1-.6-3.6 11.5 11.5 0 0 1 .6-3.7 8.4 8.4 0 0 1 1.5-2.8 7.2 7.2 0 0 1 2.4-1.9 6.8 6.8 0 0 1 6 0 7.2 7.2 0 0 1 2.4 1.9 8.5 8.5 0 0 1 1.6 2.8 11.5 11.5 0 0 1 .6 3.7 10.5 10.5 0 0 1-.6 3.6zm19-2.2a.4.4 0 0 0-.1.3h-13.3a5.9 5.9 0 0 0 .5 2.3 9.1 9.1 0 0 0 1.3 1.9 5.7 5.7 0 0 0 1.8 1.2 4.9 4.9 0 0 0 2.1.4 4.4 4.4 0 0 0 1.6-.2 3.1 3.1 0 0 0 1.3-.6 5 5 0 0 0 1.2-.8 7.5 7.5 0 0 0 .7-1.2l1.8.5a5.4 5.4 0 0 1-1 1.6l-1.6 1.2-1.9.8a7.6 7.6 0 0 1-2.1.3 6.8 6.8 0 0 1-3.2-.7 8.5 8.5 0 0 1-2.5-1.7 8.7 8.7 0 0 1-2.2-5.8 8.1 8.1 0 0 1 .6-3.1 7.2 7.2 0 0 1 1.6-2.5 7.6 7.6 0 0 1 2.5-1.8 7.8 7.8 0 0 1 3.1-.6 8.3 8.3 0 0 1 3.2.6 8.4 8.4 0 0 1 2.4 1.8 8.1 8.1 0 0 1 2.2 5.6zm16.2 5.9h-2.7v5.3h-2v-5.3h-10v-1.8l10.6-13.8h1.4v13.7h2.7zm17.6-5.9v.3h-13.4a8.6 8.6 0 0 0 .6 2.3 6.4 6.4 0 0 0 1.3 1.9 6.6 6.6 0 0 0 1.7 1.2 5.4 5.4 0 0 0 2.2.4 3.9 3.9 0 0 0 1.5-.2 3.5 3.5 0 0 0 1.4-.6l1.1-.8a4.2 4.2 0 0 0 .8-1.2l1.8.5a5.7 5.7 0 0 1-1.1 1.6l-1.5 1.2-1.9.8a7.8 7.8 0 0 1-2.2.3 6.4 6.4 0 0 1-3.1-.7 7.4 7.4 0 0 1-2.5-1.7 7.1 7.1 0 0 1-1.6-2.6 8.7 8.7 0 0 1-.6-3.2 8.1 8.1 0 0 1 .6-3.1 6 6 0 0 1 1.6-2.5 7.6 7.6 0 0 1 2.5-1.8 8.3 8.3 0 0 1 6.2 0 7.6 7.6 0 0 1 2.5 1.8 8.2 8.2 0 0 1 1.6 2.5 10.6 10.6 0 0 1 .5 3.1z"/><path fill="#e90e4e" d="M324 112.3v-10.5l-8.1 10.5h8.1z"/><path fill="#fcda5b" d="M280.5 159.7l-1.5-.8a5.1 5.1 0 0 0-1.7-.3 5.9 5.9 0 0 0-2.3.5 7.9 7.9 0 0 0-1.7 1.4 7.2 7.2 0 0 0-1.2 2.1 8.5 8.5 0 0 0-.4 2.3 6 6 0 0 0 .5 2.4 6 6 0 0 0 3.1 3.4 5.6 5.6 0 0 0 2.3.5l1.6-.3 1.6-.8 1.3-1.3a3.4 3.4 0 0 0 .6-1.5v-4.8a3.8 3.8 0 0 0-.9-1.5zm14.5 5a6.3 6.3 0 0 0-3.5.9 2.8 2.8 0 0 0-1.4 2.4 5.1 5.1 0 0 0 .2 1.3 4.4 4.4 0 0 0 2 1.8 4.3 4.3 0 0 0 1.7.3 6.6 6.6 0 0 0 2.7-.6 4.9 4.9 0 0 0 2.1-1.6 1.5 1.5 0 0 0 .4-.6 1.1 1.1 0 0 0 .1-.5v-2.6l-2.1-.6zm-67.1.2h5.7l1.5-5.9h-5.7l-1.5 5.9z"/><path fill="#fcda5b" d="M32 143v42h606v-42zm208.6 16h-3.9l-1.4 5.9h4v1.6h-4.4l-1.5 6.2h-1.7l1.5-6.2h-5.6l-1.5 6.2h-1.8l1.6-6.2h-3.4v-1.6h3.7l1.5-5.9h-4v-1.6h4.4l1.4-6h1.7l-1.5 6h5.7l1.5-6h1.7l-1.5 6h3.5zm11.5-6.1l-1-.5h-1.3a2.4 2.4 0 0 0-2.2 1.1 5.6 5.6 0 0 0-.7 3.2v2.3h4.3v1.6h-4.3v12.2h-2.1v-12.3h-2.1v-1.6h2.1v-2.3a6.9 6.9 0 0 1 1.3-4.5 3.9 3.9 0 0 1 3.4-1.6 5.1 5.1 0 0 1 1.7.3 3.5 3.5 0 0 1 1.5.7zm14.6 17.8l-1.5 1.2-1.9.8a7.6 7.6 0 0 1-2.1.3 6.8 6.8 0 0 1-3.2-.7 8.5 8.5 0 0 1-2.5-1.7 8.7 8.7 0 0 1-2.2-5.8 8.1 8.1 0 0 1 .6-3.1 8.7 8.7 0 0 1 1.6-2.6 7.4 7.4 0 0 1 2.5-1.7 7.9 7.9 0 0 1 3.2-.6 7 7 0 0 1 3.8 1 6.5 6.5 0 0 1 2.5 2.7l-2 .6a3.9 3.9 0 0 0-1.8-1.8 4.6 4.6 0 0 0-2.6-.7 4 4 0 0 0-2.2.5 4.6 4.6 0 0 0-1.8 1.3 3.9 3.9 0 0 0-1.2 1.9 6.5 6.5 0 0 0 0 5 5.6 5.6 0 0 0 1.2 2 4.9 4.9 0 0 0 1.8 1.4 5.4 5.4 0 0 0 2.2.5l1.5-.2 1.4-.6a4.8 4.8 0 0 0 1.1-.9 2.1 2.1 0 0 0 .6-1l2 .6a8.6 8.6 0 0 1-1 1.6zm18.8 2h-.8a2.1 2.1 0 0 1-1.3-.5 1.3 1.3 0 0 1-.4-1v-1.6a7.5 7.5 0 0 1-2.6 2.4 6.3 6.3 0 0 1-3.3.9 6.6 6.6 0 0 1-3-.7 5.8 5.8 0 0 1-2.3-1.8 8.3 8.3 0 0 1-1.6-8.7 6.1 6.1 0 0 1 1.5-2.6 6.5 6.5 0 0 1 2.2-1.8 6.8 6.8 0 0 1 2.9-.6 6 6 0 0 1 3.5 1 8.2 8.2 0 0 1 2.4 2.5v-9.5h2.1V170c0 .6.2.9.7.9zm16.6 0h-.8a2 2 0 0 1-1.1-.3 1.3 1.3 0 0 1-.6-1.1v-1.2a6.1 6.1 0 0 1-2.6 2.1 8.4 8.4 0 0 1-3.4.8 5.4 5.4 0 0 1-2.2-.4 4.8 4.8 0 0 1-1.7-1 5.7 5.7 0 0 1-1.1-1.6 3.4 3.4 0 0 1-.4-1.8 4.6 4.6 0 0 1 .5-2 8.7 8.7 0 0 1 1.3-1.5 6.7 6.7 0 0 1 2.1-.9 7.7 7.7 0 0 1 2.7-.4l2.4.2 2.2.6v-1.4a4.5 4.5 0 0 0-1.2-3.3 4.2 4.2 0 0 0-3.2-1.2 7.9 7.9 0 0 0-2.5.5 12.8 12.8 0 0 0-2.5 1.4l-.7-1.4a11.5 11.5 0 0 1 2.9-1.5 10.5 10.5 0 0 1 3-.5 6.5 6.5 0 0 1 4.6 1.6 6.3 6.3 0 0 1 1.6 4.6v7c0 .6.3.9.8.9zm16.3.3a6 6 0 0 1-1.6 2.2 7.2 7.2 0 0 1-2.4 1.4 6.8 6.8 0 0 1-2.9.6l-2.1-.3a5.6 5.6 0 0 1-1.9-.9 6.1 6.1 0 0 1-1.6-1.2 6.6 6.6 0 0 1-1.2-1.7l1.4-1a6.3 6.3 0 0 0 2.3 2.3 5.9 5.9 0 0 0 3.2.9 4.5 4.5 0 0 0 2-.4 4.8 4.8 0 0 0 1.7-1 5.2 5.2 0 0 0 1.2-1.7 6.5 6.5 0 0 0 .4-2.1 6.5 6.5 0 0 0-.4-2 9.1 9.1 0 0 0-1.1-1.6l-1.6-1a6.4 6.4 0 0 0-2-.3 6 6 0 0 0-2.7.6 4.9 4.9 0 0 0-2 1.8h-1.9a7.8 7.8 0 0 0 .1-.9l.3-1.5a9 9 0 0 0 .4-1.9 15.5 15.5 0 0 0 .4-2.1c.4-1.7.8-3.6 1.2-5.6h10.2v1.8h-8.7l-1.5 7.7a5 5 0 0 1 1.9-1.3 7 7 0 0 1 2.5-.5 7.6 7.6 0 0 1 2.7.5 5.5 5.5 0 0 1 2.2 1.4 4.8 4.8 0 0 1 1.5 2.2 6 6 0 0 1 .6 2.7 6.8 6.8 0 0 1-.6 2.9zm18.4-5a7.4 7.4 0 0 1-1.5 2.6 8.1 8.1 0 0 1-2.4 1.7 5.9 5.9 0 0 1-2.9.7 6.4 6.4 0 0 1-3.4-.9 8.2 8.2 0 0 1-2.5-2.4v3h-1.8v-21.9h2.1v9.5a8.5 8.5 0 0 1 2.5-2.5 5.7 5.7 0 0 1 3.4-1 6 6 0 0 1 3 .7 6.3 6.3 0 0 1 2.2 1.8 9.4 9.4 0 0 1 1.4 2.6 10.5 10.5 0 0 1 .5 3 7.8 7.8 0 0 1-.6 3.1z"/><path fill="#fcda5b" d="M333.8 160.5a6.2 6.2 0 0 0-1.8-1.4 5.4 5.4 0 0 0-2.2-.5 5.2 5.2 0 0 0-1.8.3 6 6 0 0 0-1.5.9 4.6 4.6 0 0 0-1.2 1.2 6 6 0 0 0-.9 1.5v4.8a3.1 3.1 0 0 0 .6 1.6l1.3 1.2 1.6.8a4.5 4.5 0 0 0 1.6.3 5.9 5.9 0 0 0 2.3-.5 5.8 5.8 0 0 0 1.9-1.5 5.6 5.6 0 0 0 1.2-2 5.9 5.9 0 0 0 .4-2.3 6.7 6.7 0 0 0-.4-2.4 7.8 7.8 0 0 0-1.1-2z"/><path fill="#3783a7" d="M32 202v42h606v-42zm208.6 14h-3.9l-1.4 5.9h4v1.6h-4.4l-1.5 6.2h-1.7l1.5-6.2h-5.6l-1.5 6.2h-1.8l1.6-6.2h-3.4v-1.6h3.7l1.5-5.9h-4v-1.6h4.4l1.4-6h1.7l-1.5 6h5.7l1.5-6h1.7l-1.5 6h3.5zm15.4 14.5a5.5 5.5 0 0 1-1.4 1.9 6.1 6.1 0 0 1-2.2 1.3 12.7 12.7 0 0 1-2.9.4 8 8 0 0 1-3.9-.9 5.9 5.9 0 0 1-2.6-2.6l1.4-1.2a5.4 5.4 0 0 0 1.9 2.1 6.3 6.3 0 0 0 3.2.7 5.2 5.2 0 0 0 3.6-1.1 3.9 3.9 0 0 0 1.3-3.1 4.2 4.2 0 0 0-1.4-3.3 5.7 5.7 0 0 0-3.9-1.2h-.7v-1.7h.8a5.2 5.2 0 0 0 3.5-1.1 3.6 3.6 0 0 0 1.3-2.8 4.2 4.2 0 0 0-.4-1.6 3.1 3.1 0 0 0-.9-1.1 4.6 4.6 0 0 0-1.4-.7 4.7 4.7 0 0 0-1.7-.2 6 6 0 0 0-3 .7 5.1 5.1 0 0 0-2 2.1l-1.3-1.2a4.5 4.5 0 0 1 1-1.4 7.2 7.2 0 0 1 1.5-1.1 6.2 6.2 0 0 1 1.9-.7l2.1-.3a6.9 6.9 0 0 1 2.5.4 5.5 5.5 0 0 1 2 1.1 4.3 4.3 0 0 1 1.3 1.7 5 5 0 0 1 .2 3.9 5.5 5.5 0 0 1-.8 1.5 2.9 2.9 0 0 1-1.2 1 4.9 4.9 0 0 1-1.7.6 4.9 4.9 0 0 1 3.2 1.8 5.6 5.6 0 0 1 1.2 3.6 6.6 6.6 0 0 1-.5 2.5zm7 3h-2.4l9.9-19.4H259v-1.9h14.7zm26.8-7.2a4.9 4.9 0 0 1-1.6 1.9 7 7 0 0 1-2.4 1.3 8.6 8.6 0 0 1-2.8.4 8.2 8.2 0 0 1-5.3-1.8 5.5 5.5 0 0 1-1.5-2 4.9 4.9 0 0 1-.2-4.3 6.2 6.2 0 0 1 2.4-2.8l1.5-.7a5.7 5.7 0 0 1-1.3-.8 3.8 3.8 0 0 1-1.2-1 4.7 4.7 0 0 1-.7-1.2 4 4 0 0 1-.3-1.5 4.4 4.4 0 0 1 .6-2.3 6.1 6.1 0 0 1 1.5-1.7 9.1 9.1 0 0 1 2.2-1.1 9.3 9.3 0 0 1 2.4-.3 7.2 7.2 0 0 1 4.5 1.4 5 5 0 0 1 1.5 1.7 4.4 4.4 0 0 1 .6 2.3 4 4 0 0 1-.3 1.5 4.2 4.2 0 0 1-.8 1.2 3.5 3.5 0 0 1-1.1 1l-1.4.8 1.7.8 1.4 1.2a8.3 8.3 0 0 1 .9 1.6 5.8 5.8 0 0 1 .3 1.9 5.1 5.1 0 0 1-.6 2.5zm16.4 4.2a5.5 5.5 0 0 1-1.4 1.9 7.1 7.1 0 0 1-2.2 1.3 12.7 12.7 0 0 1-2.9.4 8.7 8.7 0 0 1-4-.9 5.7 5.7 0 0 1-2.5-2.6l1.4-1.2a5.4 5.4 0 0 0 1.9 2.1 6.3 6.3 0 0 0 3.2.7 5.2 5.2 0 0 0 3.6-1.1 3.9 3.9 0 0 0 1.3-3.1 4.2 4.2 0 0 0-1.4-3.3 5.7 5.7 0 0 0-3.9-1.2h-.7v-1.7h.8a5.2 5.2 0 0 0 3.5-1.1 3.5 3.5 0 0 0 1.2-2.8 4.1 4.1 0 0 0-.3-1.6 3.1 3.1 0 0 0-.9-1.1l-1.4-.7a4.7 4.7 0 0 0-1.7-.2 5.8 5.8 0 0 0-3 .7 4.5 4.5 0 0 0-2 2.1l-1.3-1.2a4.5 4.5 0 0 1 1-1.4 7.2 7.2 0 0 1 1.5-1.1 6.2 6.2 0 0 1 1.9-.7 7.1 7.1 0 0 1 2.1-.3 6.9 6.9 0 0 1 2.5.4 6.4 6.4 0 0 1 2 1.1 4.3 4.3 0 0 1 1.3 1.7 5 5 0 0 1 .2 3.9 5.5 5.5 0 0 1-.8 1.5 2.9 2.9 0 0 1-1.2 1 4.9 4.9 0 0 1-1.7.6 4.9 4.9 0 0 1 3.2 1.8 5.6 5.6 0 0 1 1.2 3.6 6.6 6.6 0 0 1-.5 2.5zm16.8-.8h-.8a2 2 0 0 1-1.1-.3 1.5 1.5 0 0 1-.6-1.1v-1.2a7.1 7.1 0 0 1-2.7 2.1 8.4 8.4 0 0 1-3.4.8 5.4 5.4 0 0 1-2.2-.4 5.9 5.9 0 0 1-1.7-1 5.7 5.7 0 0 1-1.1-1.6 4.8 4.8 0 0 1-.4-1.8 4.6 4.6 0 0 1 .5-2 6.4 6.4 0 0 1 1.4-1.5 5.3 5.3 0 0 1 2-.9 8.4 8.4 0 0 1 2.7-.4l2.4.2 2.2.6v-1.4a4.5 4.5 0 0 0-1.2-3.3 4.2 4.2 0 0 0-3.2-1.2 7.9 7.9 0 0 0-2.5.5 12.8 12.8 0 0 0-2.5 1.4l-.7-1.4a10.5 10.5 0 0 1 3-1.5 9.4 9.4 0 0 1 3-.5 6.1 6.1 0 0 1 4.5 1.6 6.4 6.4 0 0 1 1.7 4.6v7c0 .6.2.9.7.9zm6.8 3.8h-2.3l9.9-19.4h-11.5v-1.9h14.7z"/><path fill="#3783a7" d="M315.9 221.7a6.3 6.3 0 0 0-3.5.9 2.8 2.8 0 0 0-1.4 2.4 5.1 5.1 0 0 0 .2 1.3 3.9 3.9 0 0 0 .8 1 2.5 2.5 0 0 0 1.2.8 4.3 4.3 0 0 0 1.7.3 6.6 6.6 0 0 0 2.7-.6 4.9 4.9 0 0 0 2.1-1.6 1.5 1.5 0 0 0 .4-.6 1.1 1.1 0 0 0 .1-.5v-2.6l-2.1-.6zm-34.5-4.4a5 5 0 0 0 1.7.2 4.7 4.7 0 0 0 1.6-.2l1.4-.7a3.2 3.2 0 0 0 1.1-1.2 2.9 2.9 0 0 0 .4-1.6 4 4 0 0 0-.3-1.5 5.7 5.7 0 0 0-1.1-1.1 3.5 3.5 0 0 0-1.5-.7 5 5 0 0 0-3.4 0l-1.5.7a4 4 0 0 0-1 1.2 3.3 3.3 0 0 0-.3 1.5 2.4 2.4 0 0 0 .4 1.5 3.2 3.2 0 0 0 1.1 1.2 6.1 6.1 0 0 0 1.4.7zm5.2 3a4.5 4.5 0 0 0-1.7-.8 6.2 6.2 0 0 0-3.8 0 5.6 5.6 0 0 0-1.7.9 4.1 4.1 0 0 0-1.2 1.4 4.1 4.1 0 0 0-.5 1.9 3.5 3.5 0 0 0 .5 1.8 4.4 4.4 0 0 0 1.3 1.4 4.6 4.6 0 0 0 1.7.9 5.8 5.8 0 0 0 1.9.3 6.3 6.3 0 0 0 1.9-.3 5.6 5.6 0 0 0 1.7-.9 5.3 5.3 0 0 0 1.2-1.4 3.9 3.9 0 0 0 0-3.8 5.7 5.7 0 0 0-1.3-1.4zm-58.7 1.6h5.7l1.5-5.9h-5.7l-1.5 5.9z"/><path fill="#2e692e" d="M934.1 102a6.6 6.6 0 0 0-1.7-1.2 5.4 5.4 0 0 0-2.2-.4 4.9 4.9 0 0 0-2.1.4 5.7 5.7 0 0 0-1.8 1.2 6.6 6.6 0 0 0-1.2 1.7 5.4 5.4 0 0 0-.4 2.2 5.2 5.2 0 0 0 .4 2.1 5.5 5.5 0 0 0 3 3 7.1 7.1 0 0 0 2.1.4 7.8 7.8 0 0 0 2.2-.4 5.5 5.5 0 0 0 3-3 5.2 5.2 0 0 0 .4-2.1 3.6 3.6 0 0 0-.5-2.1 4.4 4.4 0 0 0-1.2-1.8zm-35.4 1a6.6 6.6 0 0 0-1.7-1.2 6.3 6.3 0 0 0-4.4 0 9.4 9.4 0 0 0-1.8 1.2 5.7 5.7 0 0 0-1.2 1.8 5.4 5.4 0 0 0-.5 2.2h11.5a8.6 8.6 0 0 0-.6-2.3 7 7 0 0 0-1.3-1.7zm17.9 1.8a6.6 6.6 0 0 0-1.7-1.2 5.4 5.4 0 0 0-2.2-.5 5 5 0 0 0-2.1.5 5.7 5.7 0 0 0-1.8 1.2 5.2 5.2 0 0 0-1.2 1.7 5.4 5.4 0 0 0-.4 2.2 5 5 0 0 0 1.6 3.8 3.6 3.6 0 0 0 1.8 1.2 5.4 5.4 0 0 0 2.1.5 5.4 5.4 0 0 0 2.2-.5 4.5 4.5 0 0 0 1.7-1.1 3.6 3.6 0 0 0 1.2-1.8 5.4 5.4 0 0 0 .5-2.1 5.4 5.4 0 0 0-.5-2.2 5.2 5.2 0 0 0-1.2-1.7zm-60.7 3.1h5.7l1.5-5.9h-5.7l-1.5 5.9z"/><path fill="#2e692e" d="M660 84v42h606V84zm208.6 18h-3.9l-1.4 5.9h4v1.6h-4.4l-1.5 6.2h-1.7l1.5-6.2h-5.6l-1.5 6.2h-1.8l1.6-6.2h-3.4v-1.6h3.7l1.5-5.9h-4v-1.6h4.4l1.4-6h1.7l-1.5 6h5.7l1.5-6h1.7l-1.5 6h3.5zm15.6 13.7h-12.9a15 15 0 0 1 .2-2.2 7 7 0 0 1 .8-2 8.7 8.7 0 0 1 1.5-2 18 18 0 0 1 2.5-1.7l1.8-.8a9.5 9.5 0 0 0 1.7-1 8.7 8.7 0 0 0 1.4-1.2 2.8 2.8 0 0 0 .5-1.6 2.6 2.6 0 0 0-.3-1.1 2.3 2.3 0 0 0-.7-1 3.3 3.3 0 0 0-1.3-.7 3.8 3.8 0 0 0-1.6-.3 4.8 4.8 0 0 0-1.8.3l-1.4.6a4.5 4.5 0 0 0-1 .9l-.6.7-1.4-1.5a4.3 4.3 0 0 0 .7-.7l1.3-.9 2-.9a9.5 9.5 0 0 1 2.5-.3 8.8 8.8 0 0 1 2.4.3 5.4 5.4 0 0 1 1.8 1.1 4.4 4.4 0 0 1 1.2 1.5 5.3 5.3 0 0 1 .4 1.8 4 4 0 0 1-.6 2.2 6.7 6.7 0 0 1-1.4 1.5 8.7 8.7 0 0 1-1.8 1.1l-1.4.7-2.3 1.2a5.8 5.8 0 0 0-1.4 1.2 3.8 3.8 0 0 0-.9 1.3 7.5 7.5 0 0 0-.4 1.6h10.5zm18.3-7.4v.3h-13.4a8.6 8.6 0 0 0 .6 2.3 6.4 6.4 0 0 0 1.3 1.9 6.6 6.6 0 0 0 1.7 1.2 5.4 5.4 0 0 0 2.2.4 3.9 3.9 0 0 0 1.5-.2 3.5 3.5 0 0 0 1.4-.6l1.1-.8.8-1.2 1.8.5a5.7 5.7 0 0 1-1.1 1.6l-1.5 1.2-1.9.8a7.8 7.8 0 0 1-2.2.3 6.4 6.4 0 0 1-3.1-.7 7.4 7.4 0 0 1-2.5-1.7 9 9 0 0 1-1.7-2.6 11.3 11.3 0 0 1-.5-3.2 10.6 10.6 0 0 1 .5-3.1 7.4 7.4 0 0 1 1.7-2.5 7.6 7.6 0 0 1 2.5-1.8 8.3 8.3 0 0 1 6.2 0 7.6 7.6 0 0 1 2.5 1.8 8.2 8.2 0 0 1 1.6 2.5 10.6 10.6 0 0 1 .5 3.1zm17.1 3.2a7.5 7.5 0 0 1-1.5 2.4 9.7 9.7 0 0 1-2.4 1.5 7.3 7.3 0 0 1-3 .6 8.1 8.1 0 0 1-3.1-.6 6.9 6.9 0 0 1-2.4-1.8 7.6 7.6 0 0 1-1.6-2.8 10.7 10.7 0 0 1-.5-3.7 24.2 24.2 0 0 1 .5-5.7 13.4 13.4 0 0 1 1.6-4 6.4 6.4 0 0 1 2.5-2.4 6.9 6.9 0 0 1 3.2-.8 7 7 0 0 1 3.8 1.1 6.4 6.4 0 0 1 2.5 2.9l-1.3 1.2a5.3 5.3 0 0 0-5-3.4 4 4 0 0 0-2.4.7 5.4 5.4 0 0 0-1.9 1.8 9.7 9.7 0 0 0-1.2 2.9 16.1 16.1 0 0 0-.4 3.9 5.7 5.7 0 0 1 2.3-2.8 6.3 6.3 0 0 1 3.6-1 7.1 7.1 0 0 1 2.9.5 9.1 9.1 0 0 1 2.3 1.5 8.7 8.7 0 0 1 1.6 2.3 9.3 9.3 0 0 1 .5 2.9 6.7 6.7 0 0 1-.6 2.8zm17.7 1.6a12.4 12.4 0 0 1-1.6 4 6.4 6.4 0 0 1-2.5 2.4 7.1 7.1 0 0 1-6.9-.2 6.4 6.4 0 0 1-2.6-3l1.3-1.2a5 5 0 0 0 2 2.5 5.4 5.4 0 0 0 3.1.9 5 5 0 0 0 2.4-.6 6.2 6.2 0 0 0 1.8-1.8 10.4 10.4 0 0 0 1.2-3 14.8 14.8 0 0 0 .5-3.9 5.8 5.8 0 0 1-2.3 2.8 6.8 6.8 0 0 1-6.5.5 9.7 9.7 0 0 1-2.4-1.5 9.1 9.1 0 0 1-1.5-2.3 6.7 6.7 0 0 1-.6-2.8 7.2 7.2 0 0 1 .6-2.9 6.3 6.3 0 0 1 1.6-2.3 7.8 7.8 0 0 1 2.4-1.6 7.1 7.1 0 0 1 2.9-.5 7.7 7.7 0 0 1 5.6 2.3 10.6 10.6 0 0 1 1.5 2.8 11.2 11.2 0 0 1 .6 3.8 23.4 23.4 0 0 1-.6 5.6zm16.3 2.6h-12.8a7.8 7.8 0 0 1 .2-2.2 6.8 6.8 0 0 1 .7-2 9.4 9.4 0 0 1 1.6-2 10.8 10.8 0 0 1 2.5-1.7l1.7-.8 1.8-1a7.7 7.7 0 0 0 1.3-1.2 2.2 2.2 0 0 0 .5-1.6 5.2 5.2 0 0 0-.2-1.1 2.5 2.5 0 0 0-.8-1 2.4 2.4 0 0 0-1.2-.7 4.7 4.7 0 0 0-1.7-.3 4.8 4.8 0 0 0-1.8.3l-1.4.6-1 .9-.6.7-1.4-1.5a2.2 2.2 0 0 0 .7-.7l1.4-.9 1.9-.9a10.3 10.3 0 0 1 2.6-.3 8.8 8.8 0 0 1 2.4.3 5.4 5.4 0 0 1 1.8 1.1 3.3 3.3 0 0 1 1.1 1.5 3.7 3.7 0 0 1 .4 1.8 4 4 0 0 1-.6 2.2 5 5 0 0 1-1.4 1.5 6.2 6.2 0 0 1-1.7 1.1l-1.5.7-2.2 1.2-1.5 1.2a2.6 2.6 0 0 0-.8 1.3 7.5 7.5 0 0 0-.5 1.6h10.5zm18.4-7.4c0 .1-.1.2-.1.3h-13.3a4.6 4.6 0 0 0 .6 2.3 6.2 6.2 0 0 0 1.2 1.9 5.7 5.7 0 0 0 1.8 1.2 5.2 5.2 0 0 0 2.1.4 4.4 4.4 0 0 0 1.6-.2 3.1 3.1 0 0 0 1.3-.6 5 5 0 0 0 1.2-.8 7.5 7.5 0 0 0 .7-1.2l1.8.5a5.4 5.4 0 0 1-1 1.6l-1.6 1.2-1.9.8a7.6 7.6 0 0 1-2.1.3 6.8 6.8 0 0 1-3.2-.7 8.5 8.5 0 0 1-2.5-1.7 8.7 8.7 0 0 1-2.2-5.8 8.1 8.1 0 0 1 .6-3.1 7.2 7.2 0 0 1 1.6-2.5 8.8 8.8 0 0 1 2.5-1.8 8.1 8.1 0 0 1 3.1-.6 8.3 8.3 0 0 1 3.2.6 8.4 8.4 0 0 1 2.4 1.8 8.1 8.1 0 0 1 2.2 5.6z"/><path fill="#2e692e" d="M968.2 103a5.7 5.7 0 0 0-1.8-1.2 5.4 5.4 0 0 0-2.2-.4 5.2 5.2 0 0 0-2.1.4 5.5 5.5 0 0 0-3 3 7.9 7.9 0 0 0-.6 2.2H970a4.6 4.6 0 0 0-.6-2.3 6.6 6.6 0 0 0-1.2-1.7z"/><path fill="#371a3e" d="M922.8 164.7a6.3 6.3 0 0 0-3.5.9 2.6 2.6 0 0 0-1.4 2.4 5.1 5.1 0 0 0 .2 1.3 4.4 4.4 0 0 0 2 1.8 4.3 4.3 0 0 0 1.7.3 6.6 6.6 0 0 0 2.7-.6 4.9 4.9 0 0 0 2.1-1.6 1.5 1.5 0 0 0 .4-.6 1.1 1.1 0 0 0 .1-.5v-2.6l-2.1-.6zm-66.9.2h5.7l1.5-5.9h-5.7l-1.5 5.9zm104.5-4.9a5.7 5.7 0 0 0-1.8-1.2 4.9 4.9 0 0 0-2.1-.4 5.4 5.4 0 0 0-2.2.4 5.5 5.5 0 0 0-3 3 7.9 7.9 0 0 0-.6 2.2h11.6a8.6 8.6 0 0 0-.6-2.3 10.9 10.9 0 0 0-1.3-1.7z"/><path fill="#371a3e" d="M660 143v42h606v-42zm208.6 16h-3.9l-1.4 5.9h4v1.6h-4.4l-1.5 6.2h-1.7l1.5-6.2h-5.6l-1.5 6.2h-1.8l1.6-6.2h-3.4v-1.6h3.7l1.5-5.9h-4v-1.6h4.4l1.4-6h1.7l-1.5 6h5.7l1.5-6h1.7l-1.5 6h3.5zm15.4 14.5a5.5 5.5 0 0 1-1.4 1.9 6.1 6.1 0 0 1-2.2 1.3 12.7 12.7 0 0 1-2.9.4 8 8 0 0 1-3.9-.9 5.9 5.9 0 0 1-2.6-2.6l1.4-1.2a5.4 5.4 0 0 0 1.9 2.1 6.3 6.3 0 0 0 3.2.7 5.2 5.2 0 0 0 3.6-1.1 3.9 3.9 0 0 0 1.3-3.1 4.2 4.2 0 0 0-1.4-3.3 5.7 5.7 0 0 0-3.9-1.2h-.7v-1.7h.8a5.2 5.2 0 0 0 3.5-1.1 3.6 3.6 0 0 0 1.3-2.8 4.2 4.2 0 0 0-.4-1.6 3.1 3.1 0 0 0-.9-1.1l-1.4-.7a4.7 4.7 0 0 0-1.7-.2 6 6 0 0 0-3 .7 5.1 5.1 0 0 0-2 2.1l-1.3-1.2a4.5 4.5 0 0 1 1-1.4 7.2 7.2 0 0 1 1.5-1.1 6.2 6.2 0 0 1 1.9-.7l2.1-.3a6.9 6.9 0 0 1 2.5.4 5.5 5.5 0 0 1 2 1.1 4.3 4.3 0 0 1 1.3 1.7 5 5 0 0 1 .2 3.9 5.5 5.5 0 0 1-.8 1.5 2.9 2.9 0 0 1-1.2 1 4.9 4.9 0 0 1-1.7.6 4.9 4.9 0 0 1 3.2 1.8 5.6 5.6 0 0 1 1.2 3.6 6.6 6.6 0 0 1-.5 2.5zm7 3h-2.4l9.9-19.4H887v-1.9h14.7zm23.3-3.8h-10.2v-1.9h4.3V158l-.9.8-1.2.7a4.7 4.7 0 0 1-1.5.6l-1.3.3v-2a2.8 2.8 0 0 0 1.5-.4 5.1 5.1 0 0 0 1.6-.9l1.2-.9a3.1 3.1 0 0 0 .6-.6h2.1v15.2h3.8zm15.6 0h-.8a2 2 0 0 1-1.1-.3 1.3 1.3 0 0 1-.6-1.1v-1.2a6.1 6.1 0 0 1-2.6 2.1 8.8 8.8 0 0 1-3.4.8 5.4 5.4 0 0 1-2.2-.4 4.8 4.8 0 0 1-1.7-1 5.7 5.7 0 0 1-1.1-1.6 3.4 3.4 0 0 1-.4-1.8 4.6 4.6 0 0 1 .5-2 8.7 8.7 0 0 1 1.3-1.5 6.7 6.7 0 0 1 2.1-.9 7.7 7.7 0 0 1 2.7-.4l2.4.2 2.2.6v-1.4a4.5 4.5 0 0 0-1.2-3.3 4.2 4.2 0 0 0-3.2-1.2 7.4 7.4 0 0 0-2.5.5 10.5 10.5 0 0 0-2.5 1.4l-.7-1.4a11.5 11.5 0 0 1 2.9-1.5 10.5 10.5 0 0 1 3-.5 6.5 6.5 0 0 1 4.6 1.6 6.3 6.3 0 0 1 1.6 4.6v7c0 .6.3.9.8.9zm15.7.8a5.5 5.5 0 0 1-1.4 1.9 7.1 7.1 0 0 1-2.2 1.3 12.7 12.7 0 0 1-2.9.4 8.7 8.7 0 0 1-4-.9 5.7 5.7 0 0 1-2.5-2.6l1.4-1.2a5.4 5.4 0 0 0 1.9 2.1 6.3 6.3 0 0 0 3.2.7 5.2 5.2 0 0 0 3.6-1.1 3.9 3.9 0 0 0 1.3-3.1 4.2 4.2 0 0 0-1.4-3.3 5.7 5.7 0 0 0-3.9-1.2h-.7v-1.7h.8a5.2 5.2 0 0 0 3.5-1.1 3.5 3.5 0 0 0 1.2-2.8 4.1 4.1 0 0 0-.3-1.6 3.1 3.1 0 0 0-.9-1.1l-1.4-.7a4.7 4.7 0 0 0-1.7-.2 5.8 5.8 0 0 0-3 .7 5.1 5.1 0 0 0-2 2.1l-1.3-1.2a4.5 4.5 0 0 1 1-1.4 4.2 4.2 0 0 1 1.5-1.1 6.2 6.2 0 0 1 1.9-.7 7.1 7.1 0 0 1 2.1-.3 6.9 6.9 0 0 1 2.5.4 6.4 6.4 0 0 1 2 1.1 4.3 4.3 0 0 1 1.3 1.7 5 5 0 0 1 .2 3.9 5.5 5.5 0 0 1-.8 1.5 2.9 2.9 0 0 1-1.2 1 4.9 4.9 0 0 1-1.7.6 4.9 4.9 0 0 1 3.2 1.8 5.6 5.6 0 0 1 1.2 3.6 6.6 6.6 0 0 1-.5 2.5zm18.6-8.2v.3h-13.4a8.6 8.6 0 0 0 .6 2.3 6.2 6.2 0 0 0 1.2 1.9 7.1 7.1 0 0 0 1.8 1.2 5.4 5.4 0 0 0 2.2.4 3.9 3.9 0 0 0 1.5-.2 3.5 3.5 0 0 0 1.4-.6l1.1-.8a8.3 8.3 0 0 0 .8-1.2l1.7.5a5.4 5.4 0 0 1-1 1.6l-1.5 1.2-1.9.8a8.3 8.3 0 0 1-2.2.3 7.1 7.1 0 0 1-3.2-.7 8.1 8.1 0 0 1-2.4-1.7 9 9 0 0 1-1.7-2.6 8.7 8.7 0 0 1-.6-3.2 8.1 8.1 0 0 1 .6-3.1 7.4 7.4 0 0 1 1.7-2.5 8.4 8.4 0 0 1 2.4-1.8 8.3 8.3 0 0 1 3.2-.6 7.8 7.8 0 0 1 3.1.6 7.6 7.6 0 0 1 2.5 1.8 7.9 7.9 0 0 1 1.5 2.5 8.1 8.1 0 0 1 .6 3.1z"/><path fill="#200f20" d="M917.4 215.7a6.1 6.1 0 0 0-1.7-1.5 5.4 5.4 0 0 0-2.2-.5 5.9 5.9 0 0 0-2.3.5 8 8 0 0 0-1.7 1.5 7 7 0 0 0-1.1 2.3 10.7 10.7 0 0 0 0 5.8 7 7 0 0 0 1.1 2.3 8 8 0 0 0 1.7 1.5 5.9 5.9 0 0 0 2.3.5 5.4 5.4 0 0 0 2.2-.5 6.1 6.1 0 0 0 1.7-1.5 5.5 5.5 0 0 0 1.1-2.3 10.7 10.7 0 0 0 0-5.8 5.5 5.5 0 0 0-1.1-2.3z"/><path fill="#200f20" d="M660 202v42h606v-42zm208.6 14h-3.9l-1.4 5.9h4v1.6h-4.4l-1.5 6.2h-1.7l1.5-6.2h-5.6l-1.5 6.2h-1.8l1.6-6.2h-3.4v-1.6h3.7l1.5-5.9h-4v-1.6h4.4l1.4-6h1.7l-1.5 6h5.7l1.5-6h1.7l-1.5 6h3.5zm15.6 13.7h-12.9a15 15 0 0 1 .2-2.2 7 7 0 0 1 .8-2 8.7 8.7 0 0 1 1.5-2 18 18 0 0 1 2.5-1.7l1.8-.8a9.5 9.5 0 0 0 1.7-1 8.7 8.7 0 0 0 1.4-1.2 2.8 2.8 0 0 0 .5-1.6 2.6 2.6 0 0 0-.3-1.1 2.3 2.3 0 0 0-.7-1 3.3 3.3 0 0 0-1.3-.7 3.8 3.8 0 0 0-1.6-.3 4.8 4.8 0 0 0-1.8.3l-1.4.6a4.5 4.5 0 0 0-1 .9l-.6.7-1.4-1.5a4.3 4.3 0 0 0 .7-.7l1.3-.9 2-.9a9.5 9.5 0 0 1 2.5-.3 8.8 8.8 0 0 1 2.4.3 5.4 5.4 0 0 1 1.8 1.1 4.4 4.4 0 0 1 1.2 1.5 5.3 5.3 0 0 1 .4 1.8 4 4 0 0 1-.6 2.2 6.7 6.7 0 0 1-1.4 1.5 8.7 8.7 0 0 1-1.8 1.1l-1.4.7-2.3 1.2a5.8 5.8 0 0 0-1.4 1.2 3.8 3.8 0 0 0-.9 1.3 7.5 7.5 0 0 0-.4 1.6h10.5zm17.8-5.2a9 9 0 0 1-1.6 2.9 6.3 6.3 0 0 1-2.4 1.9 6 6 0 0 1-3 .7 6.6 6.6 0 0 1-3-.7 7.2 7.2 0 0 1-2.4-1.9 11.3 11.3 0 0 1-1.5-2.9 10.5 10.5 0 0 1-.6-3.6 11.5 11.5 0 0 1 .6-3.7 10.6 10.6 0 0 1 1.5-2.8 7.2 7.2 0 0 1 2.4-1.9 6.6 6.6 0 0 1 3-.7 6 6 0 0 1 3 .7 6.3 6.3 0 0 1 2.4 1.9 8.5 8.5 0 0 1 1.6 2.8 11.5 11.5 0 0 1 .6 3.7 10.5 10.5 0 0 1-.6 3.6zm18.4 0a8.9 8.9 0 0 1-1.5 2.9 7.2 7.2 0 0 1-2.4 1.9 6.8 6.8 0 0 1-6 0 7.2 7.2 0 0 1-2.4-1.9 9 9 0 0 1-1.6-2.9 10.5 10.5 0 0 1-.5-3.6 11.4 11.4 0 0 1 .5-3.7 8.5 8.5 0 0 1 1.6-2.8 7.2 7.2 0 0 1 2.4-1.9 6.8 6.8 0 0 1 6 0 7.2 7.2 0 0 1 2.4 1.9 8.4 8.4 0 0 1 1.5 2.8 11.5 11.5 0 0 1 .6 3.7 10.5 10.5 0 0 1-.6 3.6zm12.6-14.6l-1.1-.5h-1.2a2.4 2.4 0 0 0-2.2 1.1 5.6 5.6 0 0 0-.7 3.2v2.3h4.3v1.6h-4.3v12.2h-2.1v-12.3h-2.1v-1.6h2.1v-2.3a7.5 7.5 0 0 1 1.2-4.5 4.1 4.1 0 0 1 3.4-1.6 5.7 5.7 0 0 1 1.8.3 3.5 3.5 0 0 1 1.5.7zm14.4 19.8h-12.8a7.8 7.8 0 0 1 .2-2.2 4.8 4.8 0 0 1 .7-2 13 13 0 0 1 1.5-2 18 18 0 0 1 2.5-1.7l1.8-.8 1.8-1 1.3-1.2a2.8 2.8 0 0 0 .5-1.6 5.2 5.2 0 0 0-.2-1.1 3.9 3.9 0 0 0-.8-1 2.4 2.4 0 0 0-1.2-.7 4.7 4.7 0 0 0-1.7-.3 4.8 4.8 0 0 0-1.8.3l-1.4.6-1 .9-.6.7-1.4-1.5a2.2 2.2 0 0 0 .7-.7l1.4-.9 1.9-.9a10.1 10.1 0 0 1 2.5-.3 9.5 9.5 0 0 1 2.5.3 5.4 5.4 0 0 1 1.8 1.1 3.3 3.3 0 0 1 1.1 1.5 3.7 3.7 0 0 1 .4 1.8 4 4 0 0 1-.6 2.2 5 5 0 0 1-1.4 1.5 8.2 8.2 0 0 1-1.7 1.1l-1.5.7-2.2 1.2-1.5 1.2a3.8 3.8 0 0 0-.9 1.3c-.1.5-.3 1-.4 1.6h10.5zm17.8-5.2a11.3 11.3 0 0 1-1.5 2.9 7.2 7.2 0 0 1-2.4 1.9 6.6 6.6 0 0 1-3 .7 6 6 0 0 1-3-.7 6.3 6.3 0 0 1-2.4-1.9 9 9 0 0 1-1.6-2.9 10.5 10.5 0 0 1-.6-3.6 11.5 11.5 0 0 1 .6-3.7 8.5 8.5 0 0 1 1.6-2.8 6.3 6.3 0 0 1 2.4-1.9 6 6 0 0 1 3-.7 6.6 6.6 0 0 1 3 .7 7.2 7.2 0 0 1 2.4 1.9 10.6 10.6 0 0 1 1.5 2.8 11.5 11.5 0 0 1 .6 3.7 10.5 10.5 0 0 1-.6 3.6z"/><path fill="#200f20" d="M899 215.7a6.5 6.5 0 0 0-1.8-1.5 5.1 5.1 0 0 0-2.2-.5 5.4 5.4 0 0 0-2.2.5 6.1 6.1 0 0 0-1.7 1.5 7.1 7.1 0 0 0-1.2 2.3 10.7 10.7 0 0 0 0 5.8 7.1 7.1 0 0 0 1.2 2.3 6.1 6.1 0 0 0 1.7 1.5 5.4 5.4 0 0 0 2.2.5 5.1 5.1 0 0 0 2.2-.5 6.5 6.5 0 0 0 1.8-1.5 9.9 9.9 0 0 0 1.1-2.3 10.7 10.7 0 0 0 0-5.8 9.9 9.9 0 0 0-1.1-2.3zm63.2 0a8 8 0 0 0-1.7-1.5 5.4 5.4 0 0 0-2.2-.5 5.6 5.6 0 0 0-2.3.5 8 8 0 0 0-1.7 1.5 7 7 0 0 0-1.1 2.3 10.7 10.7 0 0 0 0 5.8 7 7 0 0 0 1.1 2.3 8 8 0 0 0 1.7 1.5 5.6 5.6 0 0 0 2.3.5 5.4 5.4 0 0 0 2.2-.5 8 8 0 0 0 1.7-1.5 5.5 5.5 0 0 0 1.1-2.3 10.7 10.7 0 0 0 0-5.8 5.5 5.5 0 0 0-1.1-2.3zm-106.3 6.2h5.7l1.5-5.9h-5.7l-1.5 5.9z"/><path fill="#f17b36" d="M294.8 364.5a5.8 5.8 0 0 0-1.7-1.4 5.9 5.9 0 0 0-2.3-.5 4.7 4.7 0 0 0-1.7.3 3.8 3.8 0 0 0-1.5.9 4.9 4.9 0 0 0-1.3 1.2l-.9 1.5v4.8a3.3 3.3 0 0 0 .7 1.6 6.8 6.8 0 0 0 1.2 1.2l1.6.8 1.6.3a6 6 0 0 0 2.4-.5 6.5 6.5 0 0 0 1.8-1.5 5.6 5.6 0 0 0 1.2-2 5.9 5.9 0 0 0 .5-2.3 10 10 0 0 0-.4-2.4 8.2 8.2 0 0 0-1.2-2zm-66.9 4.4h5.7l1.5-5.9h-5.7l-1.5 5.9z"/><path fill="#f17b36" d="M32 347v42h1234v-42zm208.6 16h-3.9l-1.4 5.9h4v1.6h-4.4l-1.5 6.2h-1.7l1.5-6.2h-5.6l-1.5 6.2h-1.8l1.6-6.2h-3.4v-1.6h3.7l1.5-5.9h-4v-1.6h4.4l1.4-6h1.7l-1.5 6h5.7l1.5-6h1.7l-1.5 6h3.5zm11.5-6.1l-1-.5h-1.3a2.4 2.4 0 0 0-2.2 1.1 5.6 5.6 0 0 0-.7 3.2v2.3h4.3v1.6h-4.3v12.2h-2.1v-12.3h-2.1v-1.6h2.1v-2.3a6.9 6.9 0 0 1 1.3-4.5 3.9 3.9 0 0 1 3.4-1.6 5.1 5.1 0 0 1 1.7.3 3.5 3.5 0 0 1 1.5.7zm12.2 19.8h-10.1v-1.9h4.2V362a5.9 5.9 0 0 1-.8.8l-1.3.7-1.4.6-1.4.3v-2a2.8 2.8 0 0 0 1.5-.4 5.1 5.1 0 0 0 1.6-.9l1.3-.9.5-.6h2.1v15.2h3.8zm5.7 3.8h-2.3l9.9-19.4h-11.5v-1.9h14.7zm27.9-8.5a7.6 7.6 0 0 1-1.6 2.6 6.6 6.6 0 0 1-2.3 1.7 6.3 6.3 0 0 1-3 .7 6.9 6.9 0 0 1-3.4-.9 9.1 9.1 0 0 1-2.4-2.4v3h-1.8v-21.9h2v9.5a9.9 9.9 0 0 1 2.5-2.5 6 6 0 0 1 3.5-1 5.7 5.7 0 0 1 2.9.7 5.8 5.8 0 0 1 2.3 1.8 13 13 0 0 1 1.4 2.6 10.5 10.5 0 0 1 .5 3 7.8 7.8 0 0 1-.6 3.1zm15.9 5.5a4.5 4.5 0 0 1-1.4 1.9 5.4 5.4 0 0 1-2.2 1.3 11.8 11.8 0 0 1-2.8.4 8.7 8.7 0 0 1-4-.9 6.5 6.5 0 0 1-2.6-2.6l1.4-1.2a6.6 6.6 0 0 0 2 2.1 6.1 6.1 0 0 0 3.2.7 4.8 4.8 0 0 0 3.5-1.1 3.6 3.6 0 0 0 1.3-3.1 4.2 4.2 0 0 0-1.3-3.3 5.7 5.7 0 0 0-3.9-1.2h-.8v-1.7h.8a5.3 5.3 0 0 0 3.6-1.1 3.5 3.5 0 0 0 1.2-2.8 4.1 4.1 0 0 0-.3-1.6 3.1 3.1 0 0 0-.9-1.1 6.1 6.1 0 0 0-1.4-.7 4.7 4.7 0 0 0-1.7-.2 5.6 5.6 0 0 0-3 .7 4.5 4.5 0 0 0-2 2.1l-1.3-1.2a4.5 4.5 0 0 1 1-1.4 4.2 4.2 0 0 1 1.5-1.1 5.6 5.6 0 0 1 1.8-.7 7.8 7.8 0 0 1 2.2-.3 6.9 6.9 0 0 1 2.5.4 6.4 6.4 0 0 1 2 1.1 5.5 5.5 0 0 1 1.3 1.7 5.1 5.1 0 0 1 .4 2.2 5 5 0 0 1-.2 1.7 10.9 10.9 0 0 1-.8 1.5 3.8 3.8 0 0 1-1.2 1 4.9 4.9 0 0 1-1.7.6 4.9 4.9 0 0 1 3.2 1.8 6.1 6.1 0 0 1 1.1 3.6 5.1 5.1 0 0 1-.5 2.5zm18.2-5a7.8 7.8 0 0 1-1.6 2.4 9.7 9.7 0 0 1-2.4 1.5 7.8 7.8 0 0 1-6 0 6.4 6.4 0 0 1-2.5-1.8 6.3 6.3 0 0 1-1.5-2.8 10.6 10.6 0 0 1-.6-3.7 23.7 23.7 0 0 1 .6-5.7 11.2 11.2 0 0 1 1.6-4 6.9 6.9 0 0 1 2.4-2.4 7.3 7.3 0 0 1 3.3-.8 6.7 6.7 0 0 1 3.7 1.1 6.6 6.6 0 0 1 2.6 2.9l-1.3 1.2a6 6 0 0 0-2-2.5 5.6 5.6 0 0 0-3.1-.9 4 4 0 0 0-2.4.7 5.2 5.2 0 0 0-1.8 1.8 9.7 9.7 0 0 0-1.2 2.9 16 16 0 0 0-.5 3.9 6.2 6.2 0 0 1 2.3-2.8 7.6 7.6 0 0 1 6.5-.5 9.7 9.7 0 0 1 2.4 1.5 11.4 11.4 0 0 1 1.5 2.3 7.2 7.2 0 0 1 .6 2.9 6.7 6.7 0 0 1-.6 2.8z"/><path fill="#f17b36" d="M329 365.8a5.7 5.7 0 0 0-1.8-1.2 5.4 5.4 0 0 0-2.1-.5 5.4 5.4 0 0 0-2.2.5 5.7 5.7 0 0 0-1.8 1.2 5.2 5.2 0 0 0-1.2 1.7 5.4 5.4 0 0 0 .1 4.3 4.1 4.1 0 0 0 1.2 1.7 3.8 3.8 0 0 0 1.7 1.2 5.4 5.4 0 0 0 2.2.5 5 5 0 0 0 2.1-.5 4.2 4.2 0 0 0 1.8-1.1 5.7 5.7 0 0 0 1.2-1.8 5.2 5.2 0 0 0 .4-2.1 5.4 5.4 0 0 0-.4-2.2 5.2 5.2 0 0 0-1.2-1.7z"/></svg>