<svg xmlns="http://www.w3.org/2000/svg" width="1300" height="422" viewBox="0 0 1300 422"><path fill="#fff" d="M33.8 53.8a4 4 0 0 0 .7 2 4.2 4.2 0 0 0 3.5 1.3 5.3 5.3 0 0 0 2.6-.7 2.1 2.1 0 0 0 1.2-2 1.9 1.9 0 0 0-1-1.5 6.9 6.9 0 0 0-2.2-.7l-2.2-.6a11.2 11.2 0 0 1-3-1.1 3.4 3.4 0 0 1-1.7-2.9 4.4 4.4 0 0 1 1.6-3.6 6.3 6.3 0 0 1 4.4-1.4c2.4 0 4.1.7 5.2 2.1a4.1 4.1 0 0 1 .9 2.8h-2.5a2.5 2.5 0 0 0-.6-1.6 4.1 4.1 0 0 0-3.2-1 3.7 3.7 0 0 0-2.3.5 1.7 1.7 0 0 0-.8 1.5 1.9 1.9 0 0 0 1 1.7l1.8.6 1.7.4a11.5 11.5 0 0 1 3.9 1.4 3.5 3.5 0 0 1 1.6 3.1 5.1 5.1 0 0 1-1.7 3.7c-1 1-2.7 1.5-4.9 1.5s-4-.5-5-1.6a6.2 6.2 0 0 1-1.6-3.9zm21.8-4.6a1.4 1.4 0 0 0 1.2-.8c.2-.2.2-.5.2-1a2.4 2.4 0 0 0-.9-2 5.5 5.5 0 0 0-2.8-.6 3.3 3.3 0 0 0-2.9 1.2 3.8 3.8 0 0 0-.6 1.8h-2.5c.1-1.9.7-3.3 1.9-4a7.4 7.4 0 0 1 4.2-1.2 8.8 8.8 0 0 1 4.5 1.1 3.6 3.6 0 0 1 1.7 3.2V56c0 .3 0 .5.1.6a1 1 0 0 0 .8.3h.8v2l-.9.2h-.9a2.3 2.3 0 0 1-2-.9 5.4 5.4 0 0 1-.4-1.5 7.1 7.1 0 0 1-2.3 1.8 6.6 6.6 0 0 1-3.4.8 4.8 4.8 0 0 1-3.5-1.3 4.2 4.2 0 0 1-1.4-3.3 4.2 4.2 0 0 1 1.3-3.4 6.9 6.9 0 0 1 3.6-1.5zm-5.5 7.1a3.2 3.2 0 0 0 1.9.7 5 5 0 0 0 2.7-.7 3.6 3.6 0 0 0 2.2-3.5v-2.1a3.3 3.3 0 0 1-1.2.5 4 4 0 0 1-1.5.3l-1.6.2a4.8 4.8 0 0 0-2.1.6 2.3 2.3 0 0 0-1.3 2.2 2 2 0 0 0 .9 1.8zM63.9 43h2.5v2.2a6.4 6.4 0 0 1 2.4-2 6 6 0 0 1 2.7-.6q3.4 0 4.5 2.4a7 7 0 0 1 .7 3.6v10.1H74v-9.9a5 5 0 0 0-.4-2.3A2.6 2.6 0 0 0 71 45l-1.5.2a3.5 3.5 0 0 0-1.9 1.3 5.1 5.1 0 0 0-.9 1.6 12.5 12.5 0 0 0-.2 2.4v8.2h-2.6zm26.2-4.8c.7-.9 1.9-1.3 3.6-1.3h1.1v2.4h-.9q-1.2 0-1.5.6a17.3 17.3 0 0 0-.2 3.2h2.6v2h-2.6v13.6h-2.6V45.1h-2.2v-2h2.2v-2.5a4.8 4.8 0 0 1 .5-2.4zm7.2 4.8h2.5v2.7a5.5 5.5 0 0 1 1.5-1.9 3.9 3.9 0 0 1 2.8-1.2h.9v2.8h-.9a4.1 4.1 0 0 0-3.1 1.3 4.5 4.5 0 0 0-1 3v9h-2.7zm18.4 6.2a1.4 1.4 0 0 0 1.2-.8 2.5 2.5 0 0 0 .1-1 2.4 2.4 0 0 0-.9-2 5.5 5.5 0 0 0-2.8-.6 3.4 3.4 0 0 0-2.9 1.2 3.8 3.8 0 0 0-.6 1.8h-2.5c.1-1.9.7-3.3 1.9-4a7.4 7.4 0 0 1 4.2-1.2 8.8 8.8 0 0 1 4.5 1.1 3.6 3.6 0 0 1 1.7 3.2V56a.8.8 0 0 0 .2.6c.1.2.3.3.7.3h.9v2l-1 .2h-.9a2.1 2.1 0 0 1-1.9-.9 3.3 3.3 0 0 1-.5-1.5 7.5 7.5 0 0 1-5.6 2.6 4.8 4.8 0 0 1-3.6-1.3 4.5 4.5 0 0 1-1.4-3.3 4.3 4.3 0 0 1 1.4-3.4 6.6 6.6 0 0 1 3.5-1.5zm-5.6 7.1a3.5 3.5 0 0 0 2 .7 5.4 5.4 0 0 0 2.7-.7 3.7 3.7 0 0 0 2.2-3.5v-2.1l-1.3.5a4 4 0 0 1-1.5.3l-1.6.2a5.3 5.3 0 0 0-2.1.6 2.4 2.4 0 0 0-1.2 2.2 1.9 1.9 0 0 0 .8 1.8zM123.9 43h2.5v2.2a8.5 8.5 0 0 1 2.4-2 6.1 6.1 0 0 1 2.8-.6q3.3 0 4.5 2.4a8.4 8.4 0 0 1 .6 3.6v10.1H134v-9.9a5 5 0 0 0-.4-2.3 2.6 2.6 0 0 0-2.5-1.5l-1.6.2a3.8 3.8 0 0 0-1.9 1.3 3.5 3.5 0 0 0-.8 1.6 7.6 7.6 0 0 0-.2 2.4v8.2h-2.7zm27.1.8a6.3 6.3 0 0 1 2 4.5h-2.6a3.8 3.8 0 0 0-1.1-2.4 3 3 0 0 0-2.6-1 3.6 3.6 0 0 0-3.6 2.5 8.8 8.8 0 0 0-.7 3.9 7.2 7.2 0 0 0 1 4 3.5 3.5 0 0 0 3.1 1.6 3.8 3.8 0 0 0 2.6-1 5.6 5.6 0 0 0 1.3-2.8h2.6a6.9 6.9 0 0 1-2.2 4.6 6.7 6.7 0 0 1-4.5 1.4 5.9 5.9 0 0 1-4.9-2.2 8.8 8.8 0 0 1-1.9-5.6 9.4 9.4 0 0 1 2.1-6.5 6.5 6.5 0 0 1 5.1-2.3 7.3 7.3 0 0 1 4.3 1.3zm4.6-6.6h2.7v3h-2.7zm0 5.9h2.7v15.6h-2.7zm8.2 10.7a4 4 0 0 0 .7 2 4.5 4.5 0 0 0 3.5 1.3 6 6 0 0 0 2.7-.7 2.2 2.2 0 0 0 1.1-2 1.8 1.8 0 0 0-.9-1.5 7.8 7.8 0 0 0-2.3-.7l-2.1-.6a9 9 0 0 1-3-1.1 3.2 3.2 0 0 1-1.7-2.9 4.4 4.4 0 0 1 1.6-3.6 6 6 0 0 1 4.3-1.4c2.4 0 4.2.7 5.2 2.1a4.2 4.2 0 0 1 1 2.8h-2.5a3.1 3.1 0 0 0-.6-1.6 4.4 4.4 0 0 0-3.3-1 3.7 3.7 0 0 0-2.3.5 1.9 1.9 0 0 0-.8 1.5 2 2 0 0 0 1.1 1.7l1.7.6 1.8.4a13.6 13.6 0 0 1 3.9 1.4 3.4 3.4 0 0 1 1.5 3.1 5 5 0 0 1-1.6 3.7 7 7 0 0 1-4.9 1.5c-2.4 0-4-.5-5-1.6a6.2 6.2 0 0 1-1.6-3.9zm23.8-10c1.2.9 1.8 2.4 2 4.5h-2.5a4.5 4.5 0 0 0-1.1-2.4 3.1 3.1 0 0 0-2.7-1 3.6 3.6 0 0 0-3.6 2.5 10.5 10.5 0 0 0-.7 3.9 8.2 8.2 0 0 0 1 4 3.6 3.6 0 0 0 3.2 1.6 4 4 0 0 0 2.6-1 6.6 6.6 0 0 0 1.3-2.8h2.5a6.9 6.9 0 0 1-2.2 4.6 6.4 6.4 0 0 1-4.5 1.4 6.1 6.1 0 0 1-4.9-2.2 8.7 8.7 0 0 1-1.8-5.6 9.9 9.9 0 0 1 2-6.5 6.8 6.8 0 0 1 5.1-2.3 7.1 7.1 0 0 1 4.3 1.3zm16 .8c1.4 1.3 2.1 3.3 2.1 5.9a10.7 10.7 0 0 1-1.8 6.3q-1.8 2.4-5.7 2.4a6.6 6.6 0 0 1-5.1-2.1 8.7 8.7 0 0 1-1.9-5.9 9.3 9.3 0 0 1 2-6.3 7.1 7.1 0 0 1 10.4-.3zM202 55a9.2 9.2 0 0 0 1-4.4 8.8 8.8 0 0 0-.7-3.6 4.1 4.1 0 0 0-3.8-2.2 3.8 3.8 0 0 0-3.5 1.9 8.7 8.7 0 0 0-1.1 4.4 7.7 7.7 0 0 0 1.1 4.2 3.9 3.9 0 0 0 3.5 1.7 3.5 3.5 0 0 0 3.5-2zM37.5 168.7v-72h6v27.4a37.5 37.5 0 0 1 7.4-6.2 17.4 17.4 0 0 1 9.3-2.4 23.8 23.8 0 0 1 8.9 1.6 15.2 15.2 0 0 1 6.9 5.8 13 13 0 0 1 2.2 5.7 41.2 41.2 0 0 1 .4 6.2v33.9h-6v-33.8c0-4.7-1.1-8.2-3.1-10.5s-5.5-3.5-10.3-3.5a16 16 0 0 0-5.1.8 15.5 15.5 0 0 0-4.2 2.3 13.4 13.4 0 0 0-3.1 3.2 11.6 11.6 0 0 0-2 3.8 16.7 16.7 0 0 0-1.1 4.8 39.4 39.4 0 0 0-.2 5v27.9zm59.3-24.5a25.6 25.6 0 0 0 1.1 7.9 18.8 18.8 0 0 0 3.2 6.5 15.8 15.8 0 0 0 5.5 4.4 16.7 16.7 0 0 0 7.6 1.7 17.1 17.1 0 0 0 10.1-3.1 15.4 15.4 0 0 0 5.6-8.8h6.7a37.6 37.6 0 0 1-2.9 6.8 20.2 20.2 0 0 1-10.9 9.2 28.3 28.3 0 0 1-8.6 1.3 24.9 24.9 0 0 1-10.7-2.1 19.4 19.4 0 0 1-7.4-5.8 22.5 22.5 0 0 1-4.3-8.6 36.2 36.2 0 0 1-1.4-10.6 33.8 33.8 0 0 1 1.6-10.7 27.4 27.4 0 0 1 4.7-8.8 22.9 22.9 0 0 1 7.5-5.9 22.6 22.6 0 0 1 10-2.1c7.1 0 12.7 2.4 16.8 7.3s6 12 6 21.4zm33.8-5a24.1 24.1 0 0 0-1.1-7.2 17.1 17.1 0 0 0-3.1-5.8 15.4 15.4 0 0 0-5.1-3.9 18 18 0 0 0-7.1-1.4 16.1 16.1 0 0 0-7.1 1.5 16.8 16.8 0 0 0-5.2 4 18.5 18.5 0 0 0-3.4 5.8 23.2 23.2 0 0 0-1.7 7zm41.9-.7l4-.6a21 21 0 0 0 3.9-1.1 3.2 3.2 0 0 0 1.8-2.4 11.3 11.3 0 0 0 .4-3 10.2 10.2 0 0 0-3-7.6c-1.9-1.9-5.3-2.9-9.9-2.9a32.7 32.7 0 0 0-5.7.5 12.7 12.7 0 0 0-4.6 1.9 11.2 11.2 0 0 0-3.2 3.6 14.8 14.8 0 0 0-1.6 5.7h-6.1a18.8 18.8 0 0 1 2.1-7.9 16.8 16.8 0 0 1 4.6-5.3 22.2 22.2 0 0 1 6.6-3 34.4 34.4 0 0 1 8-.9 34 34 0 0 1 7.3.8 18.3 18.3 0 0 1 6 2.7 12.4 12.4 0 0 1 4 5 17.2 17.2 0 0 1 1.5 7.6v28.2c0 2.3.4 3.8 1.2 4.4s2.5.5 5.1-.4v4.7l-2.1.6a12.7 12.7 0 0 1-2.6.4 11.2 11.2 0 0 1-2.7-.3 5.3 5.3 0 0 1-2.4-1 6.5 6.5 0 0 1-1.5-1.8 7.8 7.8 0 0 1-.7-2.3 11 11 0 0 1-.2-2.6 28 28 0 0 1-8.7 6.4 26.8 26.8 0 0 1-10.6 2.2 23.9 23.9 0 0 1-6.6-.9 16.8 16.8 0 0 1-5.5-2.8 13.7 13.7 0 0 1-5.2-11.2c0-8.8 6-14 18.1-15.6zm10.1 3a36.8 36.8 0 0 1-7.7 2.1l-7.8.8c-4.6.3-8.2 1.3-10.8 3.1s-3.8 4.3-3.8 7.9a8.6 8.6 0 0 0 .9 4.1 8.9 8.9 0 0 0 2.5 2.9 9.9 9.9 0 0 0 3.6 1.7 15.2 15.2 0 0 0 4.2.6 27.4 27.4 0 0 0 7-.9 17.4 17.4 0 0 0 6-2.8 13.9 13.9 0 0 0 4.3-4.7 14.1 14.1 0 0 0 1.6-6.7zm61.7-44.8h6v72h-6v-9.1h-.2a16.7 16.7 0 0 1-3.4 4.5 18.7 18.7 0 0 1-4.5 3.3 30.7 30.7 0 0 1-5 2 24 24 0 0 1-5.1.7 24.6 24.6 0 0 1-10.7-2.1 19 19 0 0 1-7.3-5.8 22.2 22.2 0 0 1-4.1-8.6 41.3 41.3 0 0 1-1.3-10.7 35.8 35.8 0 0 1 1.4-10.4 24.8 24.8 0 0 1 4.2-8.8 21.1 21.1 0 0 1 7.2-6 22 22 0 0 1 10.3-2.2 24.1 24.1 0 0 1 10.5 2.4 19.4 19.4 0 0 1 8 7.3zm0 45.9a28.9 28.9 0 0 0-1.2-8.4 22.4 22.4 0 0 0-3.5-6.9 17.9 17.9 0 0 0-5.5-4.7 15.7 15.7 0 0 0-7.3-1.7 16.7 16.7 0 0 0-8.1 1.8 15.3 15.3 0 0 0-5.6 5.1 19.8 19.8 0 0 0-3.2 7.4 30.7 30.7 0 0 0-.8 9.2 25.5 25.5 0 0 0 1.3 8.6 19.4 19.4 0 0 0 3.8 6.4 15.7 15.7 0 0 0 5.6 3.9 17.5 17.5 0 0 0 7 1.4 15.6 15.6 0 0 0 13-6.4 20.6 20.6 0 0 0 3.3-7 30.5 30.5 0 0 0 1.2-8.7zm21.7-37v-8.9h6.6v8.9zm.3 63.1v-51.8h6v51.8zm27.3 0h-6v-51.8h6v7.2a37.5 37.5 0 0 1 7.4-6.2 17.4 17.4 0 0 1 9.3-2.4 23.8 23.8 0 0 1 8.9 1.6 15.2 15.2 0 0 1 6.9 5.8 13 13 0 0 1 2.2 5.7 41.2 41.2 0 0 1 .4 6.2v33.9h-6v-33.8c0-4.7-1.1-8.2-3.1-10.5s-5.5-3.5-10.3-3.5a16 16 0 0 0-5.1.8 15.5 15.5 0 0 0-4.2 2.3 13.4 13.4 0 0 0-3.1 3.2 11.6 11.6 0 0 0-2 3.8 16.7 16.7 0 0 0-1.1 4.8 39.4 39.4 0 0 0-.2 5zm89.6-51.8h6v46.8a45.5 45.5 0 0 1-1.1 9.9 21.4 21.4 0 0 1-3.7 8.4 18.6 18.6 0 0 1-7.4 5.7c-3.2 1.5-7.2 2.2-12.1 2.2a28.4 28.4 0 0 1-9.8-1.5 20.1 20.1 0 0 1-6.7-3.6 15.2 15.2 0 0 1-4-4.9 10.8 10.8 0 0 1-1.4-4.9h6.4a10.8 10.8 0 0 0 2.2 4.7 10.7 10.7 0 0 0 3.5 2.9 16.6 16.6 0 0 0 4.6 1.5 42.2 42.2 0 0 0 5.2.4 20.1 20.1 0 0 0 9.8-2.1 15.6 15.6 0 0 0 5.6-5.5 21.7 21.7 0 0 0 2.4-7.7 64 64 0 0 0 .5-8.8 18.6 18.6 0 0 1-8 7.2 22.9 22.9 0 0 1-10.5 2.5 22.1 22.1 0 0 1-10.3-2.3 21.1 21.1 0 0 1-7.2-6 25.1 25.1 0 0 1-4.2-8.7 36.3 36.3 0 0 1-1.4-10.4 40.8 40.8 0 0 1 1.3-10.7 22.6 22.6 0 0 1 4.1-8.7 19.8 19.8 0 0 1 7.3-5.7 24.6 24.6 0 0 1 10.7-2.1 18.9 18.9 0 0 1 5.1.7 19.4 19.4 0 0 1 5 2 14.5 14.5 0 0 1 4.5 3.3 16.7 16.7 0 0 1 3.4 4.5h.2zm0 26.1a30.7 30.7 0 0 0-1.2-8.8 21.6 21.6 0 0 0-3.3-7 16.3 16.3 0 0 0-5.5-4.6 15.4 15.4 0 0 0-7.5-1.7 17.5 17.5 0 0 0-7 1.3 14.8 14.8 0 0 0-5.6 4 18 18 0 0 0-3.8 6.3 25.7 25.7 0 0 0-1.3 8.7 30 30 0 0 0 .8 9.1 20.3 20.3 0 0 0 3.2 7.5 15 15 0 0 0 5.6 5 15.7 15.7 0 0 0 8.1 1.9 14.6 14.6 0 0 0 7.3-1.8 15.5 15.5 0 0 0 5.5-4.7 20.4 20.4 0 0 0 3.5-6.9 28.2 28.2 0 0 0 1.2-8.3zm69.5 27.1a28.6 28.6 0 0 1-9.4-1.8 23.1 23.1 0 0 1-7.6-5.1 24.7 24.7 0 0 1-5.1-8.5 33.4 33.4 0 0 1-1.9-11.9 36.9 36.9 0 0 1 1.5-10.7 24.3 24.3 0 0 1 4.5-8.6 21.9 21.9 0 0 1 7.5-5.9 24.6 24.6 0 0 1 10.5-2.1 25.1 25.1 0 0 1 10.6 2.1 21.8 21.8 0 0 1 11.9 14.5 36.9 36.9 0 0 1 1.5 10.7A36 36 0 0 1 475 154a26.8 26.8 0 0 1-4.9 8.6 20.9 20.9 0 0 1-7.6 5.5 23.8 23.8 0 0 1-9.8 2zm17.6-27.3a38.3 38.3 0 0 0-1-8.6 21.3 21.3 0 0 0-3.1-7 15.1 15.1 0 0 0-5.4-4.6 16.7 16.7 0 0 0-8.1-1.7 15.2 15.2 0 0 0-13.5 6.7 21.1 21.1 0 0 0-3.1 7 32.3 32.3 0 0 0-1 8.2 34.8 34.8 0 0 0 1.1 8.8 21.7 21.7 0 0 0 3.4 7 15.2 15.2 0 0 0 5.5 4.5 18.1 18.1 0 0 0 7.6 1.6 15.5 15.5 0 0 0 8-1.9 15.3 15.3 0 0 0 5.5-4.9 23.3 23.3 0 0 0 3.1-7 35.9 35.9 0 0 0 1-8.1zm23.4 25.9h-6v-51.8h6v7.2a37.5 37.5 0 0 1 7.4-6.2 17.4 17.4 0 0 1 9.3-2.4 23.8 23.8 0 0 1 8.9 1.6 15.2 15.2 0 0 1 6.9 5.8 13 13 0 0 1 2.2 5.7 41.2 41.2 0 0 1 .4 6.2v33.9h-6v-33.8c0-4.7-1.1-8.2-3.1-10.5s-5.5-3.5-10.3-3.5a16 16 0 0 0-5.1.8 15.5 15.5 0 0 0-4.2 2.3 13.4 13.4 0 0 0-3.1 3.2 11.6 11.6 0 0 0-2 3.8 16.7 16.7 0 0 0-1.1 4.8 39.4 39.4 0 0 0-.2 5zm53.3-24.5a25.6 25.6 0 0 0 1.1 7.9 18.8 18.8 0 0 0 3.2 6.5 15.8 15.8 0 0 0 5.5 4.4 16.7 16.7 0 0 0 7.6 1.7 17.1 17.1 0 0 0 10.1-3.1 15.4 15.4 0 0 0 5.6-8.8h6.7a37.6 37.6 0 0 1-2.9 6.8 20.2 20.2 0 0 1-10.9 9.2 28.3 28.3 0 0 1-8.6 1.3 24.9 24.9 0 0 1-10.7-2.1 19.4 19.4 0 0 1-7.4-5.8 22.5 22.5 0 0 1-4.3-8.6 36.2 36.2 0 0 1-1.4-10.6 33.8 33.8 0 0 1 1.6-10.7 27.4 27.4 0 0 1 4.7-8.8 22.9 22.9 0 0 1 7.5-5.9 22.6 22.6 0 0 1 10-2.1c7.1 0 12.7 2.4 16.8 7.3s6 12 6 21.4zm33.8-5a24.1 24.1 0 0 0-1.1-7.2 17.1 17.1 0 0 0-3.1-5.8 15.4 15.4 0 0 0-5.1-3.9 18 18 0 0 0-7.1-1.4 16.1 16.1 0 0 0-7.1 1.5 16.8 16.8 0 0 0-5.2 4 18.5 18.5 0 0 0-3.4 5.8 23.2 23.2 0 0 0-1.7 7zM66.1 226.3a12.6 12.6 0 0 1 5.2 4.2 11.3 11.3 0 0 1 2.2 4.9 73.8 73.8 0 0 1 .4 8.3v25H62.5v-25.9a11.3 11.3 0 0 0-1.2-5.6q-1.5-3-5.7-3a7.7 7.7 0 0 0-6.6 3c-1.6 1.9-2.3 4.8-2.3 8.4v23.1H35.6v-57.4h11.1v20.3a13.7 13.7 0 0 1 5.6-5.2 16.6 16.6 0 0 1 6.6-1.4 18.5 18.5 0 0 1 7.2 1.3zm46 .7a16.4 16.4 0 0 1 7.3 6.3 19.6 19.6 0 0 1 3.4 8.8 47.5 47.5 0 0 1 .4 8.4h-31c.2 4.3 1.7 7.3 4.4 9a11.2 11.2 0 0 0 6.2 1.6 9.6 9.6 0 0 0 6.2-1.9 12.4 12.4 0 0 0 2.3-3h11.3c-.3 2.5-1.7 5.1-4.1 7.7-3.8 4.2-9.2 6.2-16 6.2a23 23 0 0 1-15-5.2c-4.3-3.5-6.5-9.2-6.5-17.1s1.9-13 5.8-16.9 9-5.9 15.3-5.9a23.2 23.2 0 0 1 10 2zm-16.7 9.6a11.9 11.9 0 0 0-2.9 6.6h19.1c-.2-3-1.1-5.2-2.9-6.8a9.9 9.9 0 0 0-6.6-2.2 9 9 0 0 0-6.7 2.4zm50.3 6.2a16.9 16.9 0 0 0 4.4-1c1.6-.7 2.4-1.7 2.4-3.2a3.8 3.8 0 0 0-1.8-3.6 12.3 12.3 0 0 0-5.4-1c-2.7 0-4.6.7-5.7 2a7.6 7.6 0 0 0-1.5 3.9h-10.8a15.9 15.9 0 0 1 3.2-9.2c2.9-3.7 8-5.6 15.2-5.6a26.1 26.1 0 0 1 12.4 2.8c3.7 1.8 5.5 5.3 5.5 10.4v19.6c0 1.3 0 3 .1 4.9a8.6 8.6 0 0 0 .6 3 4.3 4.3 0 0 0 1.7 1.2v1.7h-12.1a9 9 0 0 1-.7-2.4 10.9 10.9 0 0 1-.3-2.6 24.5 24.5 0 0 1-5.4 4.2 15.9 15.9 0 0 1-8.2 2.1 14.4 14.4 0 0 1-9.6-3.3c-2.5-2.2-3.8-5.3-3.8-9.3s2.1-9.1 6.1-11.4q3.5-2 9.9-2.7zm6.8 5.2a15.1 15.1 0 0 1-2.2 1.1l-2.9.7-2.6.5a15.6 15.6 0 0 0-5.1 1.5 5.9 5.9 0 0 0-1 8.9 6.5 6.5 0 0 0 3.9 1.2 11.6 11.6 0 0 0 6.7-2.1c2.1-1.4 3.1-4 3.2-7.7zm43.4-21.2a13.8 13.8 0 0 1 4.9 4.7v-20.3h11.3v57.5h-10.8v-5.9a16 16 0 0 1-5.5 5.5 15.5 15.5 0 0 1-7.6 1.7 15.9 15.9 0 0 1-12.5-6c-3.4-4-5.1-9.2-5.1-15.5s1.7-13 5-17.2a16.5 16.5 0 0 1 13.4-6.2 14.1 14.1 0 0 1 6.9 1.7zm2.7 30.3c1.7-2.3 2.5-5.4 2.5-9.1s-1.3-8.9-3.9-11.2a9 9 0 0 0-5.7-2c-3.2 0-5.6 1.2-7.1 3.7a16.5 16.5 0 0 0-2.3 9.2 17.4 17.4 0 0 0 2.3 9.4c1.6 2.4 3.9 3.5 7.1 3.5a7.9 7.9 0 0 0 7.1-3.5zm35-36.1h-11.2v-10.2h11.2zm-11.2 5.1h11.2v42.6h-11.2zm56.4 2.4c2.7 2.3 4.1 6.2 4.1 11.5v28.7h-11.4v-25.9a11.8 11.8 0 0 0-.9-5.2c-1-2.2-3.1-3.3-6.2-3.3s-6.3 1.6-7.7 4.9a16.4 16.4 0 0 0-1.1 6.4v23.1h-11.1v-42.5h10.8v6.2a18.2 18.2 0 0 1 4-4.7 13.6 13.6 0 0 1 8.7-2.6c4.4 0 8 1.1 10.8 3.4zm35.6-2.4a13.2 13.2 0 0 1 6.5 6.1v-6.1h10.9v40.4c0 5.5-1 9.6-2.8 12.4q-4.8 7.2-18.3 7.2c-5.4 0-9.9-1.1-13.3-3.2a11.9 11.9 0 0 1-5.7-9.6h12.1a4.7 4.7 0 0 0 1.5 2.8c1.2 1.1 3.2 1.6 6.1 1.6s6.7-1.4 8-4.1 1.4-4.6 1.4-8.6v-2.8a13.4 13.4 0 0 1-3.5 4.1 13.8 13.8 0 0 1-8.6 2.6c-5.5 0-9.9-1.9-13.1-5.8s-4.9-9-4.9-15.6 1.5-11.6 4.7-15.9 7.6-6.5 13.4-6.5a14 14 0 0 1 5.6 1zm3.7 30.5c1.8-2 2.7-5.1 2.7-9.4s-.8-7.1-2.5-9.2a8.4 8.4 0 0 0-6.8-3.2 8.2 8.2 0 0 0-8.1 5.5 19.4 19.4 0 0 0-1.2 7.2 16 16 0 0 0 1.3 6.7 8.8 8.8 0 0 0 14.6 2.4zm41.9-22.2v-7.9h5.9v-11.9H377v11.9h6.9v7.9H377v22.5q0 2.7.6 3.3c.5.4 1.8.6 4.1.6h2.2v8.3l-5.3.2c-5.3.1-8.9-.8-10.8-2.8s-1.9-3.2-1.9-5.9v-26.2zm51.1-8.3h11.3l6.5 30.7 6.6-30.7h11.6l-12.3 42.6h-11.5l-6.7-31-6.7 31h-11.6l-11.9-42.6h11.9l6.7 30.6zm77.7 37.4c-3.6 4.4-9.1 6.6-16.4 6.6s-12.8-2.2-16.4-6.6a26.4 26.4 0 0 1 0-32c3.6-4.5 9.1-6.8 16.4-6.8s12.8 2.3 16.4 6.8a26.8 26.8 0 0 1 0 32zm-8.9-6.2c1.7-2.3 2.6-5.6 2.6-9.8s-.9-7.6-2.6-9.9a10.1 10.1 0 0 0-15.1 0c-1.7 2.3-2.6 5.6-2.6 9.9s.9 7.5 2.6 9.8a9.9 9.9 0 0 0 15.1 0zM33.5 302.7h4.4v13.4a12.2 12.2 0 0 1 2.8-2.8 9.7 9.7 0 0 1 5.3-1.4c3.8 0 6.4 1.3 7.7 4a12.4 12.4 0 0 1 1.1 6v16.8h-4.5v-16.5a9.1 9.1 0 0 0-.7-4.2c-.8-1.5-2.3-2.2-4.5-2.2a8 8 0 0 0-5 1.9c-1.5 1.3-2.2 3.6-2.2 7.1v13.9h-4.4zm44 10.6a9.8 9.8 0 0 1 3.9 3.3 12.3 12.3 0 0 1 1.8 4.6 38 38 0 0 1 .4 5.8H64.5a11 11 0 0 0 1.9 6.4 6.3 6.3 0 0 0 5.4 2.4 6.8 6.8 0 0 0 5.5-2.3 9.6 9.6 0 0 0 1.6-3h4.3a10.1 10.1 0 0 1-1.1 3.2 13.8 13.8 0 0 1-2.2 2.9 9.7 9.7 0 0 1-4.9 2.6 13.7 13.7 0 0 1-3.6.4 11 11 0 0 1-8.2-3.5c-2.3-2.4-3.4-5.7-3.4-10a15.3 15.3 0 0 1 3.4-10.2 11.3 11.3 0 0 1 8.9-4 12.1 12.1 0 0 1 5.4 1.4zm1.5 10.2a10.5 10.5 0 0 0-1.2-4.5c-1.2-2.2-3.2-3.2-6-3.2a6.3 6.3 0 0 0-5 2.2 8.1 8.1 0 0 0-2.2 5.5zm24.1-.6a2.9 2.9 0 0 0 2.1-1.3 4 4 0 0 0 .3-1.7 3.8 3.8 0 0 0-1.6-3.3 8.5 8.5 0 0 0-4.6-1c-2.3 0-3.9.6-4.9 1.9a5.9 5.9 0 0 0-1 3h-4.1c0-3.2 1.1-5.4 3.1-6.7a12.5 12.5 0 0 1 7-1.9 13.9 13.9 0 0 1 7.5 1.8 5.8 5.8 0 0 1 2.8 5.4v15.1a2 2 0 0 0 .3 1.1c.2.3.6.4 1.2.4h1.4v3.2l-1.5.4h-1.5a3.6 3.6 0 0 1-3.3-1.6 5.6 5.6 0 0 1-.8-2.4 10.1 10.1 0 0 1-3.8 3.1 12.7 12.7 0 0 1-5.5 1.3 8.5 8.5 0 0 1-6-2.2 7.7 7.7 0 0 1-2.3-5.6 7.1 7.1 0 0 1 2.3-5.6 11 11 0 0 1 5.9-2.5zm-9.2 11.8a4.7 4.7 0 0 0 3.3 1.1 10.5 10.5 0 0 0 4.5-1 6.2 6.2 0 0 0 3.6-5.9v-3.5a7.6 7.6 0 0 1-2 .8 12.3 12.3 0 0 1-2.5.5l-2.7.4a9.2 9.2 0 0 0-3.6 1 3.9 3.9 0 0 0-2 3.6 3.6 3.6 0 0 0 1.4 3zm37.4-21.4a10.6 10.6 0 0 1 2.6 2.6v-13.2h4.3v36h-4V335a8.6 8.6 0 0 1-3.6 3.5 10 10 0 0 1-12.3-2.6c-2.2-2.4-3.2-5.7-3.2-9.7a16.1 16.1 0 0 1 2.9-9.9 9.4 9.4 0 0 1 8.3-4.2 9.7 9.7 0 0 1 5 1.2zm-9.8 19.6a6.3 6.3 0 0 0 5.7 2.9 6.1 6.1 0 0 0 5-2.6c1.3-1.8 1.9-4.3 1.9-7.6s-.7-5.7-2-7.3a6.2 6.2 0 0 0-5-2.4 6.6 6.6 0 0 0-5.3 2.5q-2.1 2.6-2.1 7.5a12.5 12.5 0 0 0 1.8 7zm23.2-30.1h4.5v5h-4.5zm0 9.9h4.5v26h-4.5zm11.1-.2h4.2v3.7a14.3 14.3 0 0 1 3.9-3.3 12 12 0 0 1 4.7-1q5.6 0 7.5 3.9a14.1 14.1 0 0 1 1.1 6.1v16.8h-4.5v-16.5a8.8 8.8 0 0 0-.7-3.9 4.4 4.4 0 0 0-4.3-2.4 8.5 8.5 0 0 0-2.5.3 6.9 6.9 0 0 0-3.2 2.2 6 6 0 0 0-1.4 2.6 14.5 14.5 0 0 0-.4 4v13.7h-4.4zm42.4 1.1a11.8 11.8 0 0 1 2.5 2.5v-3.3h4.1v23.8a16.9 16.9 0 0 1-1.5 7.8c-1.8 3.6-5.2 5.3-10.3 5.3a12.3 12.3 0 0 1-7.1-1.9c-1.9-1.2-2.9-3.2-3.2-5.9h4.5a4.3 4.3 0 0 0 1.3 2.7c.9 1 2.5 1.5 4.6 1.5s5.6-1.2 6.6-3.6.9-3.9.8-7.5a7.4 7.4 0 0 1-3.1 3 9.9 9.9 0 0 1-4.9 1 10.4 10.4 0 0 1-7.4-3c-2.1-2-3.2-5.4-3.2-10s1.1-7.8 3.2-10.2a9.7 9.7 0 0 1 7.7-3.7 9.5 9.5 0 0 1 5.4 1.5zm.5 4.7a6.2 6.2 0 0 0-5.1-2.3 6.3 6.3 0 0 0-6.3 4.3 17.1 17.1 0 0 0-.9 6.1c0 2.9.6 5.2 1.8 6.7a5.9 5.9 0 0 0 4.8 2.3 6.5 6.5 0 0 0 6.6-4.3 12.5 12.5 0 0 0 1.1-5.6c0-3.2-.6-5.6-2-7.2zm27.5-13.1h4.5v7.3h4.1v3.6h-4.1v17.1a1.8 1.8 0 0 0 .9 1.8 3.4 3.4 0 0 0 1.7.3h1.5v3.5l-1.5.3h-1.8c-2 0-3.4-.5-4.2-1.6a7.1 7.1 0 0 1-1.1-4.1v-17.3h-3.5v-3.6h3.5zm13-2.5h4.4v13.4a14.5 14.5 0 0 1 2.8-2.8 10 10 0 0 1 5.3-1.4c3.8 0 6.4 1.3 7.8 4a13.7 13.7 0 0 1 1.1 6v16.8H256v-16.5a9.1 9.1 0 0 0-.7-4.2c-.8-1.5-2.3-2.2-4.5-2.2a7.5 7.5 0 0 0-4.9 1.9c-1.5 1.3-2.3 3.6-2.3 7.1v13.9h-4.4zm28 9.8h4.1v4.6a10.7 10.7 0 0 1 2.6-3.3 6.6 6.6 0 0 1 4.6-1.9h1.4v4.6h-1.4a6.4 6.4 0 0 0-5.2 2.1 7.9 7.9 0 0 0-1.7 4.9v15.1h-4.4zm32.6.8a9.5 9.5 0 0 1 4 3.3 12.3 12.3 0 0 1 1.8 4.6 41 41 0 0 1 .3 5.8h-19a11 11 0 0 0 1.9 6.4 6.3 6.3 0 0 0 5.4 2.4 6.5 6.5 0 0 0 5.4-2.3 8.1 8.1 0 0 0 1.7-3h4.3a8.5 8.5 0 0 1-1.2 3.2 10.8 10.8 0 0 1-2.1 2.9 9.7 9.7 0 0 1-4.9 2.6 13.7 13.7 0 0 1-3.6.4 11 11 0 0 1-8.2-3.5c-2.3-2.4-3.4-5.7-3.4-10s1.1-7.6 3.4-10.2a11.5 11.5 0 0 1 14.2-2.6zm1.6 10.2a12.2 12.2 0 0 0-1.2-4.5c-1.2-2.2-3.2-3.2-6-3.2a6.3 6.3 0 0 0-5 2.2 8.1 8.1 0 0 0-2.2 5.5zm26.3-10.2a9.8 9.8 0 0 1 3.9 3.3 12.3 12.3 0 0 1 1.8 4.6 41 41 0 0 1 .3 5.8h-19a11 11 0 0 0 1.9 6.4 6.3 6.3 0 0 0 5.4 2.4 6.5 6.5 0 0 0 5.4-2.3 8.1 8.1 0 0 0 1.7-3h4.3a8.5 8.5 0 0 1-1.2 3.2 10.8 10.8 0 0 1-2.1 2.9 9.7 9.7 0 0 1-4.9 2.6 13.7 13.7 0 0 1-3.6.4 11 11 0 0 1-8.2-3.5c-2.3-2.4-3.4-5.7-3.4-10a15.3 15.3 0 0 1 3.4-10.2 11.3 11.3 0 0 1 8.9-4 12.1 12.1 0 0 1 5.4 1.4zm1.5 10.2a10.5 10.5 0 0 0-1.2-4.5c-1.2-2.2-3.2-3.2-6-3.2a6.3 6.3 0 0 0-5 2.2 8.1 8.1 0 0 0-2.2 5.5zM32.6 359.9H36v10.4a8.3 8.3 0 0 1 2.7-2.3 8.5 8.5 0 0 1 3.5-.8 8.1 8.1 0 0 1 6.4 2.7c1.6 1.8 2.4 4.4 2.4 7.9a13.8 13.8 0 0 1-2.4 8.3 7.7 7.7 0 0 1-6.7 3.2 6.7 6.7 0 0 1-4-1.1 15.2 15.2 0 0 1-2.1-2.2v2.7h-3.2zM46 384a10.7 10.7 0 0 0 1.4-6 9.6 9.6 0 0 0-1.4-5.5 4.6 4.6 0 0 0-4.2-2.1 6.1 6.1 0 0 0-4.2 1.7c-1.2 1.2-1.8 3.2-1.8 5.9a12.8 12.8 0 0 0 .7 4.8 5.2 5.2 0 0 0 5.2 3.4A4.7 4.7 0 0 0 46 384zm24.3-14.1c1.8 1.7 2.7 4.4 2.7 7.9a13.8 13.8 0 0 1-2.4 8.3c-1.6 2.2-4.2 3.3-7.6 3.3a8.4 8.4 0 0 1-6.8-2.9c-1.7-1.9-2.5-4.5-2.5-7.8a13 13 0 0 1 2.6-8.4 9 9 0 0 1 7.2-3.1 9.4 9.4 0 0 1 6.8 2.7zm-2.2 13.9a14.5 14.5 0 0 0 1.3-5.9 9.5 9.5 0 0 0-1-4.8 5.1 5.1 0 0 0-5-2.9 5.1 5.1 0 0 0-4.7 2.5 12 12 0 0 0-1.4 5.9 10.8 10.8 0 0 0 1.4 5.6 5.1 5.1 0 0 0 4.6 2.2 5 5 0 0 0 4.8-2.6zm20.7-15.4a8.4 8.4 0 0 1 2.2 2.1v-10.6h3.3v28.8h-3.1v-2.9a7.7 7.7 0 0 1-2.9 2.8 9.3 9.3 0 0 1-3.9.8 7.9 7.9 0 0 1-6-2.9 11.6 11.6 0 0 1-2.5-7.8 13.5 13.5 0 0 1 2.3-8 7.6 7.6 0 0 1 6.6-3.3 7 7 0 0 1 4 1zM81 384.1a5 5 0 0 0 4.5 2.3 4.6 4.6 0 0 0 4-2.1c1.1-1.4 1.6-3.5 1.6-6.1s-.5-4.6-1.6-5.8a5 5 0 0 0-4-1.9 5.1 5.1 0 0 0-4.3 2c-1.1 1.3-1.6 3.3-1.6 6a10.8 10.8 0 0 0 1.4 5.6zm31.7-16.3h3.9l-3.3 9.1-3.2 8.8c-2.1 5.4-3.5 8.6-4.3 9.8a5 5 0 0 1-4.3 1.8h-1.2l-1-.2v-3.2l1.4.3h.7a2.6 2.6 0 0 0 1.4-.4 2 2 0 0 0 .8-.8 9.9 9.9 0 0 0 .7-1.6l.9-2.1-7.8-21.5h4l5.6 17z"/></svg>