<svg id="Layer_1" data-name="Layer 1" xmlns="http://www.w3.org/2000/svg" width="1070" height="422" viewBox="0 0 1070 422"><title>violinin-type</title><path d="M69.5,61.8a3.9,3.9,0,0,0,.6,2,4.6,4.6,0,0,0,3.6,1.3,5.6,5.6,0,0,0,2.6-.7,2.2,2.2,0,0,0,1.1-2,1.8,1.8,0,0,0-.9-1.5,7.8,7.8,0,0,0-2.3-.7l-2.1-.6a9,9,0,0,1-3-1.1,3.2,3.2,0,0,1-1.7-2.9A4.4,4.4,0,0,1,69,52a6.1,6.1,0,0,1,4.4-1.4q3.6,0,5.1,2.1a4.2,4.2,0,0,1,1,2.8H77a2.5,2.5,0,0,0-.6-1.6c-.6-.7-1.7-1-3.3-1a3.9,3.9,0,0,0-2.3.5,1.9,1.9,0,0,0-.8,1.5,2,2,0,0,0,1.1,1.7l1.7.6,1.8.4A13.6,13.6,0,0,1,78.5,59,3.4,3.4,0,0,1,80,62.1a5,5,0,0,1-1.6,3.7c-1,1-2.7,1.5-4.9,1.5s-4-.5-5-1.6a6.2,6.2,0,0,1-1.6-3.9Z" fill="#fff"/><path d="M91.3,57.2a1.4,1.4,0,0,0,1.2-.8,2.2,2.2,0,0,0,.2-1,2.2,2.2,0,0,0-1-2,4.9,4.9,0,0,0-2.7-.6A3.2,3.2,0,0,0,86.1,54a3,3,0,0,0-.7,1.8H83a4.4,4.4,0,0,1,1.9-4A7.3,7.3,0,0,1,89,50.6a8.3,8.3,0,0,1,4.5,1.1,3.5,3.5,0,0,1,1.8,3.2V64c0,.3,0,.5.1.6a.8.8,0,0,0,.7.3H97v2l-.9.2h-.9a2.3,2.3,0,0,1-2-.9,5.3,5.3,0,0,1-.5-1.5,7.5,7.5,0,0,1-5.6,2.6,5.2,5.2,0,0,1-3.6-1.3,4.4,4.4,0,0,1-1.3-3.3,4.2,4.2,0,0,1,1.3-3.4,6.6,6.6,0,0,1,3.6-1.5Zm-5.6,7.1a3.7,3.7,0,0,0,2,.7,5.2,5.2,0,0,0,2.7-.7,3.6,3.6,0,0,0,2.2-3.5V58.7a3.3,3.3,0,0,1-1.2.5,4,4,0,0,1-1.5.3l-1.6.2a5.3,5.3,0,0,0-2.2.6,2.4,2.4,0,0,0-1.2,2.2A2.2,2.2,0,0,0,85.7,64.3Z" fill="#fff"/><path d="M99.6,51h2.5v2.2a7,7,0,0,1,2.3-2,6.7,6.7,0,0,1,2.8-.6q3.3,0,4.5,2.4a8.2,8.2,0,0,1,.7,3.6V66.7h-2.7V56.8a6.8,6.8,0,0,0-.4-2.3,2.7,2.7,0,0,0-2.6-1.5l-1.5.2a3.1,3.1,0,0,0-1.9,1.3,2.9,2.9,0,0,0-.9,1.6,12.5,12.5,0,0,0-.2,2.4v8.2H99.6Z" fill="#fff"/><path d="M125.8,46.2c.6-.9,1.8-1.3,3.6-1.3h1.1v2.4h-1c-.8,0-1.2.2-1.4.6a11.2,11.2,0,0,0-.2,3.2h2.6v2h-2.6V66.7h-2.6V53.1h-2.2v-2h2.2V48.6A4.8,4.8,0,0,1,125.8,46.2Z" fill="#fff"/><path d="M133,51h2.5v2.7a5.5,5.5,0,0,1,1.5-1.9,3.8,3.8,0,0,1,2.8-1.2h.8v2.8h-.8a3.9,3.9,0,0,0-3.1,1.3,4.6,4.6,0,0,0-1.1,3v9H133Z" fill="#fff"/><path d="M151.3,57.2a1.4,1.4,0,0,0,1.2-.8c.2-.2.2-.5.2-1a2.4,2.4,0,0,0-.9-2,5.5,5.5,0,0,0-2.8-.6,3.3,3.3,0,0,0-2.9,1.2,3.8,3.8,0,0,0-.6,1.8H143c.1-1.9.7-3.3,1.9-4a7.4,7.4,0,0,1,4.2-1.2,8.8,8.8,0,0,1,4.5,1.1,3.6,3.6,0,0,1,1.7,3.2V64c0,.3,0,.5.2.6s.3.3.7.3h.8v2l-.9.2h-.9a2.3,2.3,0,0,1-2-.9,5.4,5.4,0,0,1-.4-1.5,7.1,7.1,0,0,1-2.3,1.8,6.6,6.6,0,0,1-3.4.8,4.8,4.8,0,0,1-3.5-1.3,4.2,4.2,0,0,1-1.4-3.3,4.2,4.2,0,0,1,1.3-3.4,6.9,6.9,0,0,1,3.6-1.5Zm-5.5,7.1a3.2,3.2,0,0,0,2,.7,4.8,4.8,0,0,0,2.6-.7,3.6,3.6,0,0,0,2.2-3.5V58.7a3.3,3.3,0,0,1-1.2.5,4,4,0,0,1-1.5.3l-1.6.2a4.8,4.8,0,0,0-2.1.6,2.3,2.3,0,0,0-1.3,2.2A2,2,0,0,0,145.8,64.3Z" fill="#fff"/><path d="M159.6,51h2.5v2.2a7.3,7.3,0,0,1,2.4-2,6,6,0,0,1,2.7-.6q3.5,0,4.5,2.4a7,7,0,0,1,.7,3.6V66.7h-2.7V56.8a5,5,0,0,0-.4-2.3,2.6,2.6,0,0,0-2.6-1.5l-1.5.2a3.5,3.5,0,0,0-1.9,1.3,5.1,5.1,0,0,0-.9,1.6,12.5,12.5,0,0,0-.2,2.4v8.2h-2.6Z" fill="#fff"/><path d="M177.9,61.8a3.9,3.9,0,0,0,.6,2,4.6,4.6,0,0,0,3.6,1.3,5.6,5.6,0,0,0,2.6-.7,2.2,2.2,0,0,0,1.1-2,1.8,1.8,0,0,0-.9-1.5,7.8,7.8,0,0,0-2.3-.7l-2.1-.6a9,9,0,0,1-3-1.1,3.2,3.2,0,0,1-1.7-2.9,4.4,4.4,0,0,1,1.6-3.6,6.1,6.1,0,0,1,4.4-1.4q3.6,0,5.1,2.1a4.2,4.2,0,0,1,1,2.8h-2.5a3.1,3.1,0,0,0-.6-1.6,4.4,4.4,0,0,0-3.3-1,3.9,3.9,0,0,0-2.3.5,1.9,1.9,0,0,0-.8,1.5,2,2,0,0,0,1.1,1.7l1.7.6,1.8.4a13.6,13.6,0,0,1,3.9,1.4,3.4,3.4,0,0,1,1.5,3.1,5,5,0,0,1-1.6,3.7c-1,1-2.7,1.5-4.9,1.5s-4-.5-5-1.6a6.2,6.2,0,0,1-1.6-3.9Z" fill="#fff"/><path d="M201.7,51.8c1.1.9,1.7,2.4,2,4.5h-2.6a4.5,4.5,0,0,0-1.1-2.4,3.1,3.1,0,0,0-2.7-1,3.8,3.8,0,0,0-3.6,2.5,10.5,10.5,0,0,0-.7,3.9,8.2,8.2,0,0,0,1,4,3.6,3.6,0,0,0,3.2,1.6,3.8,3.8,0,0,0,2.6-1,6.6,6.6,0,0,0,1.3-2.8h2.6a7.4,7.4,0,0,1-2.2,4.6,6.7,6.7,0,0,1-4.5,1.4,6.2,6.2,0,0,1-5-2.2,8.7,8.7,0,0,1-1.8-5.6,9.9,9.9,0,0,1,2-6.5,6.8,6.8,0,0,1,5.1-2.3A7.6,7.6,0,0,1,201.7,51.8Z" fill="#fff"/><path d="M206.3,45.2H209v3h-2.7Zm0,5.9H209V66.7h-2.7Z" fill="#fff"/><path d="M214.5,61.8a4,4,0,0,0,.7,2,4.4,4.4,0,0,0,3.5,1.3,6,6,0,0,0,2.7-.7,2.2,2.2,0,0,0,1.1-2,1.8,1.8,0,0,0-.9-1.5,9.1,9.1,0,0,0-2.3-.7l-2.1-.6a9,9,0,0,1-3-1.1,3.3,3.3,0,0,1-1.8-2.9,4.5,4.5,0,0,1,1.7-3.6,5.9,5.9,0,0,1,4.3-1.4c2.4,0,4.1.7,5.2,2.1a4.2,4.2,0,0,1,1,2.8h-2.5a3.3,3.3,0,0,0-.7-1.6,4.1,4.1,0,0,0-3.2-1,3.7,3.7,0,0,0-2.3.5,1.9,1.9,0,0,0-.8,1.5,2.1,2.1,0,0,0,1,1.7l1.8.6,1.8.4a13.6,13.6,0,0,1,3.9,1.4,3.4,3.4,0,0,1,1.5,3.1,5,5,0,0,1-1.6,3.7,7,7,0,0,1-4.9,1.5c-2.4,0-4.1-.5-5-1.6a6.2,6.2,0,0,1-1.6-3.9Z" fill="#fff"/><path d="M238.3,51.8a6.3,6.3,0,0,1,2,4.5h-2.5a5.3,5.3,0,0,0-1.1-2.4,3.3,3.3,0,0,0-2.7-1,3.6,3.6,0,0,0-3.6,2.5,8.8,8.8,0,0,0-.7,3.9,7.2,7.2,0,0,0,1,4,3.6,3.6,0,0,0,3.1,1.6,3.6,3.6,0,0,0,2.6-1,5.7,5.7,0,0,0,1.4-2.8h2.5a6.9,6.9,0,0,1-2.2,4.6,6.7,6.7,0,0,1-4.5,1.4,6,6,0,0,1-4.9-2.2,8.7,8.7,0,0,1-1.8-5.6,9.9,9.9,0,0,1,2-6.5,6.5,6.5,0,0,1,5.1-2.3A7.1,7.1,0,0,1,238.3,51.8Z" fill="#fff"/><path d="M254.3,52.6c1.4,1.3,2.1,3.3,2.1,5.9a10.7,10.7,0,0,1-1.8,6.3,6.9,6.9,0,0,1-5.7,2.4,6.4,6.4,0,0,1-5.1-2.1,8.7,8.7,0,0,1-1.9-5.9c0-2.7.6-4.8,2-6.3a6.5,6.5,0,0,1,5.3-2.4A6.9,6.9,0,0,1,254.3,52.6ZM252.7,63a10.5,10.5,0,0,0,.9-4.4A9,9,0,0,0,253,55a4.1,4.1,0,0,0-3.8-2.2,3.8,3.8,0,0,0-3.5,1.9,8.7,8.7,0,0,0-1.1,4.4,7.7,7.7,0,0,0,1.1,4.2,3.8,3.8,0,0,0,3.4,1.7A3.7,3.7,0,0,0,252.7,63Z" fill="#fff"/><path d="M36.5,166.7V44.3H46.7V90.9A64.4,64.4,0,0,1,59.4,80.3a29.1,29.1,0,0,1,15.7-4.1A41,41,0,0,1,90.2,79,26.4,26.4,0,0,1,102,88.8a23,23,0,0,1,3.8,9.8,87.4,87.4,0,0,1,.6,10.5v57.6H96.2V109.2c0-7.9-1.8-13.9-5.3-17.8s-9.3-6-17.5-6a24.1,24.1,0,0,0-8.7,1.5,24.9,24.9,0,0,0-7,3.8,27.6,27.6,0,0,0-5.4,5.4,28.8,28.8,0,0,0-3.4,6.5,31,31,0,0,0-1.8,8.2,74.6,74.6,0,0,0-.4,8.5v47.4Z" fill="#fff"/><path d="M137.3,125a48.9,48.9,0,0,0,1.9,13.5,32.1,32.1,0,0,0,5.5,11.1,28.5,28.5,0,0,0,9.3,7.5,29.2,29.2,0,0,0,12.9,2.8,28.4,28.4,0,0,0,17.2-5.3,25.7,25.7,0,0,0,9.5-14.9H205a63.1,63.1,0,0,1-4.9,11.6,34.8,34.8,0,0,1-7.7,9.3,32.5,32.5,0,0,1-10.9,6.3,45.8,45.8,0,0,1-14.6,2.2,42.5,42.5,0,0,1-18.2-3.6,34.1,34.1,0,0,1-12.6-9.8,42.6,42.6,0,0,1-7.3-14.6,65.5,65.5,0,0,1-2.3-18.1,56.9,56.9,0,0,1,2.8-18.2,46.2,46.2,0,0,1,7.9-14.9,37.6,37.6,0,0,1,12.7-10,38.9,38.9,0,0,1,17-3.7c12.1,0,21.7,4.2,28.6,12.5s10.3,20.5,10.2,36.3Zm57.5-8.5a39.8,39.8,0,0,0-1.8-12.1,27.7,27.7,0,0,0-5.3-9.9,24,24,0,0,0-8.7-6.6,27.6,27.6,0,0,0-12.1-2.5,27.1,27.1,0,0,0-12,2.6,26.7,26.7,0,0,0-8.8,6.8,33.3,33.3,0,0,0-5.9,9.8,47.1,47.1,0,0,0-2.9,11.9Z" fill="#fff"/><path d="M266,115.3c1.9-.2,4.2-.5,6.9-1a28.1,28.1,0,0,0,6.6-1.8,5.5,5.5,0,0,0,3.1-4,25.2,25.2,0,0,0,.6-5.2,17.8,17.8,0,0,0-5-12.9c-3.4-3.3-9-5-16.9-5a41.3,41.3,0,0,0-9.7,1,21,21,0,0,0-7.8,3.2,17.8,17.8,0,0,0-5.4,6.1,25.9,25.9,0,0,0-2.8,9.6H225.2A32.9,32.9,0,0,1,228.8,92a26.5,26.5,0,0,1,7.9-9,30.2,30.2,0,0,1,11.2-5.1,54.3,54.3,0,0,1,13.5-1.7,49.8,49.8,0,0,1,12.5,1.5,29.8,29.8,0,0,1,10.2,4.6,20.9,20.9,0,0,1,6.8,8.4,29.4,29.4,0,0,1,2.5,12.9v48q0,5.8,2.1,7.5c1.4,1.1,4.3.8,8.6-.7v7.9l-3.5,1.1a19.1,19.1,0,0,1-9.1.1,7.6,7.6,0,0,1-4.1-1.6,9.9,9.9,0,0,1-2.4-3,12.5,12.5,0,0,1-1.3-4,31.9,31.9,0,0,1-.3-4.5,44.4,44.4,0,0,1-14.8,10.9,43.7,43.7,0,0,1-18,3.8,37.9,37.9,0,0,1-11.2-1.6,26.8,26.8,0,0,1-9.4-4.7,24.8,24.8,0,0,1-6.5-7.9,24.4,24.4,0,0,1-2.4-11.2c0-14.9,10.3-23.8,30.8-26.5Zm17.2,5.1a48.3,48.3,0,0,1-13.1,3.6c-4.4.6-8.8,1-13.3,1.4-7.8.5-13.9,2.3-18.2,5.2s-6.6,7.5-6.6,13.5a15.4,15.4,0,0,0,1.6,7,14.9,14.9,0,0,0,4.3,5,17.1,17.1,0,0,0,6.1,2.8,24.4,24.4,0,0,0,7.1,1,47.9,47.9,0,0,0,11.9-1.5,34,34,0,0,0,10.2-4.7,24.3,24.3,0,0,0,7.3-8,23.3,23.3,0,0,0,2.7-11.5Z" fill="#fff"/><path d="M388.1,44.3h10.2V166.7H388.1V151.2h-.4a24.1,24.1,0,0,1-5.7,7.7,31.8,31.8,0,0,1-7.6,5.6,45.3,45.3,0,0,1-8.6,3.4,32.6,32.6,0,0,1-8.7,1.2c-7.1,0-13.2-1.2-18.1-3.6a34.2,34.2,0,0,1-12.4-9.8,38.6,38.6,0,0,1-7-14.7,70.9,70.9,0,0,1-2.2-18.2,69.3,69.3,0,0,1,2.3-17.7A42.7,42.7,0,0,1,327,90.3a34.6,34.6,0,0,1,12.2-10.2,36.6,36.6,0,0,1,17.4-3.9,40.6,40.6,0,0,1,18,4.2,32.1,32.1,0,0,1,13.5,12.3Zm0,78a47.4,47.4,0,0,0-2.1-14.2,35.6,35.6,0,0,0-5.8-11.7,28.9,28.9,0,0,0-9.4-8,25.7,25.7,0,0,0-12.5-3,28,28,0,0,0-13.7,3.2,26.4,26.4,0,0,0-9.6,8.6,35.9,35.9,0,0,0-5.4,12.6,60,60,0,0,0-1.4,15.6,44.5,44.5,0,0,0,2.3,14.7,34,34,0,0,0,6.4,10.8,27.4,27.4,0,0,0,9.5,6.7,31.1,31.1,0,0,0,11.9,2.3,28,28,0,0,0,12.8-2.9,27.3,27.3,0,0,0,9.3-7.9,36.5,36.5,0,0,0,5.7-11.9A54.8,54.8,0,0,0,388.1,122.3Z" fill="#fff"/><path d="M425,59.4V44.3h11.2V59.4Zm.5,107.3V78.6h10.2v88.1Z" fill="#fff"/><path d="M471.9,166.7H461.7V78.6h10.2V90.9a64.4,64.4,0,0,1,12.7-10.6,29.1,29.1,0,0,1,15.7-4.1A41.4,41.4,0,0,1,515.4,79a25.6,25.6,0,0,1,11.7,9.8,22,22,0,0,1,3.9,9.8,87.4,87.4,0,0,1,.6,10.5v57.6H521.4V109.2c0-7.9-1.8-13.9-5.3-17.8s-9.4-6-17.5-6a24.1,24.1,0,0,0-8.7,1.5,23.6,23.6,0,0,0-7,3.8,27.6,27.6,0,0,0-5.4,5.4,25.3,25.3,0,0,0-3.4,6.5,35.9,35.9,0,0,0-1.9,8.2c-.2,2.6-.3,5.4-.3,8.5Z" fill="#fff"/><path d="M624.2,78.6h10.2v79.6a77.5,77.5,0,0,1-1.8,16.9,36.1,36.1,0,0,1-6.4,14.2,31.9,31.9,0,0,1-12.5,9.8c-5.4,2.4-12.2,3.6-20.6,3.6a51.7,51.7,0,0,1-16.7-2.4,40.8,40.8,0,0,1-11.4-6.2,28.8,28.8,0,0,1-6.7-8.3,20.7,20.7,0,0,1-2.4-8.4h10.8a20.3,20.3,0,0,0,3.8,8.1,18.8,18.8,0,0,0,6,4.9,26.4,26.4,0,0,0,7.8,2.5,61.9,61.9,0,0,0,8.8.6c6.9,0,12.5-1.1,16.7-3.5a25.2,25.2,0,0,0,9.5-9.4,36,36,0,0,0,4.1-13.1,91.2,91.2,0,0,0,.8-14.9,32.1,32.1,0,0,1-13.5,12.3,40.2,40.2,0,0,1-17.9,4.2,37.3,37.3,0,0,1-17.5-3.9A34.6,34.6,0,0,1,563.1,155a44.4,44.4,0,0,1-7.2-14.8,65.2,65.2,0,0,1-2.4-17.7,70.9,70.9,0,0,1,2.2-18.2,38.7,38.7,0,0,1,7.1-14.7,34.1,34.1,0,0,1,12.3-9.8c5-2.4,11-3.6,18.2-3.6a32.4,32.4,0,0,1,8.6,1.2,45.3,45.3,0,0,1,8.6,3.4,37.9,37.9,0,0,1,7.7,5.6,32.7,32.7,0,0,1,5.7,7.7h.3Zm0,44.4a54.8,54.8,0,0,0-1.9-14.9,41.1,41.1,0,0,0-5.7-11.9,26.9,26.9,0,0,0-22.1-10.8,30.4,30.4,0,0,0-11.9,2.3,27.8,27.8,0,0,0-9.6,6.7,32,32,0,0,0-6.3,10.8,42,42,0,0,0-2.3,14.7,56.1,56.1,0,0,0,1.3,15.6,39.4,39.4,0,0,0,5.5,12.7,26.8,26.8,0,0,0,9.5,8.5,28.2,28.2,0,0,0,13.8,3.2,26,26,0,0,0,12.5-3,28.5,28.5,0,0,0,9.3-8,35.8,35.8,0,0,0,5.9-11.7A50.8,50.8,0,0,0,624.2,123Z" fill="#fff"/><path d="M742.4,169.1a48.3,48.3,0,0,1-15.9-3.1,34.6,34.6,0,0,1-13-8.7,41.1,41.1,0,0,1-8.7-14.4c-2.2-5.8-3.2-12.5-3.2-20.2a63,63,0,0,1,2.5-18.2,43,43,0,0,1,7.7-14.7,35.5,35.5,0,0,1,12.7-9.9,45.4,45.4,0,0,1,35.9,0,35.5,35.5,0,0,1,12.7,9.9,41,41,0,0,1,7.6,14.7,66.2,66.2,0,0,1,2.5,18.2,59.7,59.7,0,0,1-2.9,19,43.5,43.5,0,0,1-8.3,14.6,35.6,35.6,0,0,1-12.9,9.4A39.6,39.6,0,0,1,742.4,169.1Zm29.9-46.4a62.4,62.4,0,0,0-1.7-14.7,36.4,36.4,0,0,0-5.3-11.8,25.2,25.2,0,0,0-9.2-7.9,29.8,29.8,0,0,0-13.7-2.9,27.8,27.8,0,0,0-13.7,3.2,26.6,26.6,0,0,0-9.3,8.3,37.9,37.9,0,0,0-5.3,11.9,58.1,58.1,0,0,0-1.7,13.9,55,55,0,0,0,2,15,35,35,0,0,0,5.7,11.8,25.7,25.7,0,0,0,9.3,7.7,29.9,29.9,0,0,0,13,2.7,27.6,27.6,0,0,0,13.6-3.2,26.8,26.8,0,0,0,9.3-8.4,38.9,38.9,0,0,0,5.3-11.9A56.5,56.5,0,0,0,772.3,122.7Z" fill="#fff"/><path d="M812.1,166.7H801.9V78.6h10.2V90.9a63.9,63.9,0,0,1,12.6-10.6,29.4,29.4,0,0,1,15.7-4.1A41.9,41.9,0,0,1,855.6,79a26.7,26.7,0,0,1,11.7,9.8,21.8,21.8,0,0,1,3.8,9.8,87.4,87.4,0,0,1,.6,10.5v57.6H861.5V109.2c0-7.9-1.7-13.9-5.2-17.8s-9.4-6-17.6-6a23.9,23.9,0,0,0-8.6,1.5,25.5,25.5,0,0,0-7.1,3.8,24.6,24.6,0,0,0-5.3,5.4,25.3,25.3,0,0,0-3.4,6.5,27.8,27.8,0,0,0-1.9,8.2c-.2,2.6-.3,5.4-.3,8.5Z" fill="#fff"/><path d="M902.7,125a48.9,48.9,0,0,0,1.8,13.5,32.2,32.2,0,0,0,5.6,11.1,27.1,27.1,0,0,0,9.2,7.5,29.8,29.8,0,0,0,12.9,2.8,28.2,28.2,0,0,0,17.2-5.3c4.8-3.5,7.9-8.5,9.5-14.9h11.4a56.9,56.9,0,0,1-4.9,11.6,33,33,0,0,1-7.7,9.3,32,32,0,0,1-10.8,6.3,46.4,46.4,0,0,1-14.7,2.2,42,42,0,0,1-18.1-3.6,34.1,34.1,0,0,1-12.6-9.8,40.9,40.9,0,0,1-7.3-14.6,65.5,65.5,0,0,1-2.4-18.1,56.9,56.9,0,0,1,2.8-18.2,46.4,46.4,0,0,1,8-14.9,37.3,37.3,0,0,1,12.6-10,38.9,38.9,0,0,1,17-3.7c12.2,0,21.7,4.2,28.6,12.5S971.1,109.2,971,125Zm57.4-8.5a39.8,39.8,0,0,0-1.8-12.1,27.6,27.6,0,0,0-5.2-9.9,25.2,25.2,0,0,0-8.8-6.6,27.3,27.3,0,0,0-12.1-2.5A26.4,26.4,0,0,0,920.3,88a27.1,27.1,0,0,0-8.9,6.8,33,33,0,0,0-5.8,9.8,43.2,43.2,0,0,0-2.9,11.9Z" fill="#fff"/><path d="M69,213.8a14.7,14.7,0,0,1,6.6,5.2,13.2,13.2,0,0,1,2.7,6.1,79.3,79.3,0,0,1,.5,10.3v31.3H64.6V234.3a14.3,14.3,0,0,0-1.5-7c-1.3-2.4-3.6-3.7-7.2-3.7s-6.4,1.2-8.3,3.7-2.8,6-2.8,10.5v28.9H30.9V195H44.8v25.3a16.9,16.9,0,0,1,7-6.4,19.8,19.8,0,0,1,8.3-1.9A21.1,21.1,0,0,1,69,213.8Z" fill="#fff"/><path d="M126.5,214.5a21.3,21.3,0,0,1,9.2,7.9,26.7,26.7,0,0,1,4.3,11,63.5,63.5,0,0,1,.4,10.6H101.7c.2,5.3,2,9.1,5.5,11.2a14.7,14.7,0,0,0,7.7,2,11.6,11.6,0,0,0,7.7-2.4,11.1,11.1,0,0,0,2.9-3.7h14.2q-.6,4.8-5.1,9.6-7.2,7.8-20.1,7.8a28.7,28.7,0,0,1-18.7-6.6q-8.1-6.4-8.1-21.3c0-9.2,2.4-16.3,7.3-21.2s11.2-7.4,19-7.4A31,31,0,0,1,126.5,214.5Zm-20.8,12.1a14.5,14.5,0,0,0-3.7,8.2h24c-.3-3.7-1.5-6.5-3.7-8.4a12.3,12.3,0,0,0-8.3-2.9C110.5,223.5,107.7,224.5,105.7,226.6Z" fill="#fff"/><path d="M168.6,234.3a20.8,20.8,0,0,0,5.5-1.2c2-.9,3-2.2,3-4a4.8,4.8,0,0,0-2.3-4.5,14.9,14.9,0,0,0-6.7-1.2c-3.4,0-5.7.8-7.1,2.4a9.6,9.6,0,0,0-2,4.9H145.6a20.5,20.5,0,0,1,3.9-11.5c3.7-4.7,10-7,19-7a32.6,32.6,0,0,1,15.6,3.5c4.6,2.3,6.8,6.6,6.8,13v24.5c0,1.6.1,3.7.1,6.1a7,7,0,0,0,.9,3.7,4.1,4.1,0,0,0,2,1.6v2.1H178.8a14.2,14.2,0,0,1-.9-3,29.8,29.8,0,0,1-.4-3.3,29.4,29.4,0,0,1-6.7,5.4,20.3,20.3,0,0,1-10.2,2.5c-4.8,0-8.8-1.3-12-4.1s-4.7-6.6-4.7-11.7,2.5-11.3,7.6-14.2c2.8-1.6,6.9-2.7,12.3-3.4Zm8.5,6.5a11.1,11.1,0,0,1-2.7,1.3,18.5,18.5,0,0,1-3.8,1l-3.1.6a18.8,18.8,0,0,0-6.4,1.9,6.3,6.3,0,0,0-3.3,5.9c0,2.4.6,4.1,2,5.1a7.4,7.4,0,0,0,4.9,1.6,14.4,14.4,0,0,0,8.4-2.6c2.5-1.8,3.9-5,4-9.6Z" fill="#fff"/><path d="M231.3,214.3a16.4,16.4,0,0,1,6.1,5.9V194.8h14.1v71.9H238v-7.4a18.7,18.7,0,0,1-6.8,6.9,19.4,19.4,0,0,1-9.5,2.1c-6.2,0-11.4-2.5-15.7-7.5s-6.3-11.5-6.3-19.4,2.1-16.2,6.2-21.4,9.8-7.8,16.8-7.8A17.4,17.4,0,0,1,231.3,214.3Zm3.4,37.9c2.1-2.9,3.1-6.7,3.1-11.3,0-6.6-1.6-11.2-4.9-14a10.7,10.7,0,0,0-7.1-2.6,9.8,9.8,0,0,0-8.9,4.7,21.2,21.2,0,0,0-2.9,11.4c0,4.9,1,8.9,2.9,11.8s4.9,4.4,8.8,4.4S232.7,255.2,234.7,252.2Z" fill="#fff"/><path d="M278.5,207.1H264.4V194.3h14.1Zm-14.1,6.4h14.1v53.2H264.4Z" fill="#fff"/><path d="M334.9,216.5c3.5,2.9,5.2,7.7,5.2,14.3v35.9H325.8V234.3c0-2.8-.3-4.9-1.1-6.4s-3.9-4.1-7.7-4.1-7.9,2-9.7,6a20.8,20.8,0,0,0-1.3,8.1v28.8H292.1V213.6h13.4v7.7a24.2,24.2,0,0,1,5.1-5.9,17.7,17.7,0,0,1,10.8-3.2C326.9,212.2,331.4,213.6,334.9,216.5Z" fill="#fff"/><path d="M379.4,213.4a16.9,16.9,0,0,1,8.2,7.7v-7.6h13.5v50.4c0,6.9-1.1,12.1-3.4,15.6-4,6-11.6,9-22.9,9-6.8,0-12.3-1.4-16.6-4a15.1,15.1,0,0,1-7.2-12h15.2a6.2,6.2,0,0,0,1.9,3.5c1.5,1.3,4,1.9,7.5,1.9,5.1,0,8.4-1.7,10.1-5s1.7-5.8,1.7-10.9v-3.4a19.5,19.5,0,0,1-4.3,5.2c-2.8,2.1-6.4,3.1-10.8,3.1-6.9,0-12.3-2.4-16.4-7.2s-6.1-11.3-6.1-19.5,1.9-14.5,5.9-19.9,9.5-8.1,16.7-8.1A18.6,18.6,0,0,1,379.4,213.4Zm4.7,38.2c2.2-2.5,3.4-6.4,3.4-11.8s-1.1-8.9-3.2-11.5a10.6,10.6,0,0,0-8.6-4c-4.8,0-8.2,2.3-10,6.9a24.4,24.4,0,0,0-1.5,9.1,19.4,19.4,0,0,0,1.6,8.2c1.9,4.5,5.2,6.8,10.1,6.8A10.9,10.9,0,0,0,384.1,251.6Z" fill="#fff"/><path d="M436.4,223.9v-10h7.5V199.1h13.7v14.8h8.7v10h-8.7V252c0,2.2.3,3.5.9,4.1s2.2.8,5,.8h2.8v10.4l-6.6.2c-6.6.2-11.1-.9-13.5-3.4s-2.3-4.1-2.3-7.4V223.9Z" fill="#fff"/><path d="M500.3,213.5h14.1l8.1,38.3,8.3-38.3h14.5l-15.4,53.2H515.6l-8.4-38.8-8.4,38.8H484.3l-14.9-53.2h14.9l8.3,38.1Z" fill="#fff"/><path d="M597.4,260.2c-4.5,5.5-11.3,8.3-20.5,8.3s-15.9-2.8-20.4-8.3a32.8,32.8,0,0,1,0-40q6.8-8.4,20.4-8.4c9.2,0,16,2.8,20.5,8.4a30.9,30.9,0,0,1,6.7,19.9C604.1,248,601.9,254.6,597.4,260.2Zm-11.2-7.7c2.2-2.9,3.3-7,3.3-12.4s-1.1-9.4-3.3-12.3a11.1,11.1,0,0,0-9.3-4.3,11.3,11.3,0,0,0-9.4,4.3q-3.3,4.3-3.3,12.3c0,5.4,1.1,9.5,3.3,12.4s5.3,4.3,9.4,4.3S584.1,255.4,586.2,252.5Z" fill="#fff"/><path d="M27.5,300.7h4.4v13.4a12.2,12.2,0,0,1,2.8-2.8,9.7,9.7,0,0,1,5.3-1.4c3.8,0,6.4,1.3,7.7,4a12.4,12.4,0,0,1,1.1,6v16.8H44.3V320.2a9.1,9.1,0,0,0-.7-4.2c-.8-1.5-2.3-2.2-4.5-2.2a8,8,0,0,0-5,1.9c-1.5,1.3-2.2,3.6-2.2,7.1v13.9H27.5Z" fill="#fff"/><path d="M71.5,311.3a9.8,9.8,0,0,1,3.9,3.3,12.3,12.3,0,0,1,1.8,4.6,38,38,0,0,1,.4,5.8H58.5a11,11,0,0,0,1.9,6.4,6.3,6.3,0,0,0,5.4,2.4,6.8,6.8,0,0,0,5.5-2.3,9.6,9.6,0,0,0,1.6-3h4.3a10.1,10.1,0,0,1-1.1,3.2,13.8,13.8,0,0,1-2.2,2.9,9.7,9.7,0,0,1-4.9,2.6,13.7,13.7,0,0,1-3.6.4,11,11,0,0,1-8.2-3.5c-2.3-2.4-3.4-5.7-3.4-10a15.3,15.3,0,0,1,3.4-10.2,11.3,11.3,0,0,1,8.9-4A12.1,12.1,0,0,1,71.5,311.3ZM73,321.5a10.5,10.5,0,0,0-1.2-4.5c-1.2-2.2-3.2-3.2-6-3.2a6.3,6.3,0,0,0-5,2.2,8.1,8.1,0,0,0-2.2,5.5Z" fill="#fff"/><path d="M97.1,320.9a2.9,2.9,0,0,0,2.1-1.3,4,4,0,0,0,.3-1.7,3.8,3.8,0,0,0-1.6-3.3,8.5,8.5,0,0,0-4.6-1c-2.3,0-3.9.6-4.9,1.9a5.9,5.9,0,0,0-1,3H83.3c0-3.2,1.1-5.4,3.1-6.7a12.5,12.5,0,0,1,7-1.9,13.9,13.9,0,0,1,7.5,1.8,5.8,5.8,0,0,1,2.8,5.4v15.1a2,2,0,0,0,.3,1.1c.2.3.6.4,1.2.4h1.4v3.2l-1.5.4h-1.5a3.6,3.6,0,0,1-3.3-1.6,5.6,5.6,0,0,1-.8-2.4,10.1,10.1,0,0,1-3.8,3.1,12.7,12.7,0,0,1-5.5,1.3,8.5,8.5,0,0,1-6-2.2,7.7,7.7,0,0,1-2.3-5.6,7.1,7.1,0,0,1,2.3-5.6,11,11,0,0,1,5.9-2.5Zm-9.2,11.8a4.7,4.7,0,0,0,3.3,1.1,10.5,10.5,0,0,0,4.5-1,6.2,6.2,0,0,0,3.6-5.9v-3.5a7.6,7.6,0,0,1-2,.8,12.3,12.3,0,0,1-2.5.5l-2.7.4a9.2,9.2,0,0,0-3.6,1,3.9,3.9,0,0,0-2,3.6A3.6,3.6,0,0,0,87.9,332.7Z" fill="#fff"/><path d="M125.3,311.3a10.6,10.6,0,0,1,2.6,2.6V300.7h4.3v36h-4V333a8.6,8.6,0,0,1-3.6,3.5,10,10,0,0,1-12.3-2.6c-2.2-2.4-3.2-5.7-3.2-9.7a16.1,16.1,0,0,1,2.9-9.9,9.4,9.4,0,0,1,8.3-4.2A9.7,9.7,0,0,1,125.3,311.3Zm-9.8,19.6a6.3,6.3,0,0,0,5.7,2.9,6.1,6.1,0,0,0,5-2.6c1.3-1.8,1.9-4.3,1.9-7.6s-.7-5.7-2-7.3a6.2,6.2,0,0,0-5-2.4,6.6,6.6,0,0,0-5.3,2.5q-2.1,2.6-2.1,7.5A12.5,12.5,0,0,0,115.5,330.9Z" fill="#fff"/><path d="M138.7,300.8h4.5v5h-4.5Zm0,9.9h4.5v26h-4.5Z" fill="#fff"/><path d="M149.8,310.5H154v3.7a14.3,14.3,0,0,1,3.9-3.3,12,12,0,0,1,4.7-1q5.6,0,7.5,3.9a14.1,14.1,0,0,1,1.1,6.1v16.8h-4.5V320.2a8.8,8.8,0,0,0-.7-3.9,4.4,4.4,0,0,0-4.3-2.4,8.5,8.5,0,0,0-2.5.3,6.9,6.9,0,0,0-3.2,2.2,6,6,0,0,0-1.4,2.6,14.5,14.5,0,0,0-.4,4v13.7h-4.4Z" fill="#fff"/><path d="M192.2,311.6a11.8,11.8,0,0,1,2.5,2.5v-3.3h4.1v23.8a16.9,16.9,0,0,1-1.5,7.8c-1.8,3.6-5.2,5.3-10.3,5.3a12.3,12.3,0,0,1-7.1-1.9c-1.9-1.2-2.9-3.2-3.2-5.9h4.5a4.3,4.3,0,0,0,1.3,2.7c.9,1,2.5,1.5,4.6,1.5s5.6-1.2,6.6-3.6.9-3.9.8-7.5a7.4,7.4,0,0,1-3.1,3,9.9,9.9,0,0,1-4.9,1,10.4,10.4,0,0,1-7.4-3c-2.1-2-3.2-5.4-3.2-10s1.1-7.8,3.2-10.2a9.7,9.7,0,0,1,7.7-3.7A9.5,9.5,0,0,1,192.2,311.6Zm.5,4.7a6.2,6.2,0,0,0-5.1-2.3,6.3,6.3,0,0,0-6.3,4.3,17.1,17.1,0,0,0-.9,6.1c0,2.9.6,5.2,1.8,6.7a5.9,5.9,0,0,0,4.8,2.3,6.5,6.5,0,0,0,6.6-4.3,12.5,12.5,0,0,0,1.1-5.6C194.7,320.3,194.1,317.9,192.7,316.3Z" fill="#fff"/><path d="M220.2,303.2h4.5v7.3h4.1v3.6h-4.1v17.1a1.8,1.8,0,0,0,.9,1.8,3.4,3.4,0,0,0,1.7.3h1.5v3.5l-1.5.3h-1.8c-2,0-3.4-.5-4.2-1.6a7.1,7.1,0,0,1-1.1-4.1V314.1h-3.5v-3.6h3.5Z" fill="#fff"/><path d="M233.2,300.7h4.4v13.4a14.5,14.5,0,0,1,2.8-2.8,10,10,0,0,1,5.3-1.4c3.8,0,6.4,1.3,7.8,4a13.7,13.7,0,0,1,1.1,6v16.8H250V320.2a9.1,9.1,0,0,0-.7-4.2c-.8-1.5-2.3-2.2-4.5-2.2a7.5,7.5,0,0,0-4.9,1.9c-1.5,1.3-2.3,3.6-2.3,7.1v13.9h-4.4Z" fill="#fff"/><path d="M261.2,310.5h4.1v4.6a10.7,10.7,0,0,1,2.6-3.3,6.6,6.6,0,0,1,4.6-1.9h1.4v4.6h-1.4a6.4,6.4,0,0,0-5.2,2.1,7.9,7.9,0,0,0-1.7,4.9v15.1h-4.4Z" fill="#fff"/><path d="M293.8,311.3a9.5,9.5,0,0,1,4,3.3,12.3,12.3,0,0,1,1.8,4.6,41,41,0,0,1,.3,5.8h-19a11,11,0,0,0,1.9,6.4,6.3,6.3,0,0,0,5.4,2.4,6.5,6.5,0,0,0,5.4-2.3,8.1,8.1,0,0,0,1.7-3h4.3a8.5,8.5,0,0,1-1.2,3.2,10.8,10.8,0,0,1-2.1,2.9,9.7,9.7,0,0,1-4.9,2.6,13.7,13.7,0,0,1-3.6.4,11,11,0,0,1-8.2-3.5c-2.3-2.4-3.4-5.7-3.4-10s1.1-7.6,3.4-10.2a11.5,11.5,0,0,1,14.2-2.6Zm1.6,10.2a12.2,12.2,0,0,0-1.2-4.5c-1.2-2.2-3.2-3.2-6-3.2a6.3,6.3,0,0,0-5,2.2,8.1,8.1,0,0,0-2.2,5.5Z" fill="#fff"/><path d="M321.7,311.3a9.8,9.8,0,0,1,3.9,3.3,12.3,12.3,0,0,1,1.8,4.6,41,41,0,0,1,.3,5.8h-19a11,11,0,0,0,1.9,6.4,6.3,6.3,0,0,0,5.4,2.4,6.5,6.5,0,0,0,5.4-2.3,8.1,8.1,0,0,0,1.7-3h4.3a8.5,8.5,0,0,1-1.2,3.2,10.8,10.8,0,0,1-2.1,2.9,9.7,9.7,0,0,1-4.9,2.6,13.7,13.7,0,0,1-3.6.4,11,11,0,0,1-8.2-3.5c-2.3-2.4-3.4-5.7-3.4-10a15.3,15.3,0,0,1,3.4-10.2,11.3,11.3,0,0,1,8.9-4A12.1,12.1,0,0,1,321.7,311.3Zm1.5,10.2A10.5,10.5,0,0,0,322,317c-1.2-2.2-3.2-3.2-6-3.2a6.3,6.3,0,0,0-5,2.2,8.1,8.1,0,0,0-2.2,5.5Z" fill="#fff"/><path d="M26.6,357.9H30v10.4a8.3,8.3,0,0,1,2.7-2.3,8.5,8.5,0,0,1,3.5-.8,8.1,8.1,0,0,1,6.4,2.7c1.6,1.8,2.4,4.4,2.4,7.9a13.8,13.8,0,0,1-2.4,8.3,7.7,7.7,0,0,1-6.7,3.2,6.7,6.7,0,0,1-4-1.1,15.2,15.2,0,0,1-2.1-2.2v2.7H26.6ZM40,382a10.7,10.7,0,0,0,1.4-6,9.6,9.6,0,0,0-1.4-5.5,4.6,4.6,0,0,0-4.2-2.1,6.1,6.1,0,0,0-4.2,1.7c-1.2,1.2-1.8,3.2-1.8,5.9a12.8,12.8,0,0,0,.7,4.8,5.2,5.2,0,0,0,5.2,3.4A4.7,4.7,0,0,0,40,382Z" fill="#fff"/><path d="M64.3,367.9c1.8,1.7,2.7,4.4,2.7,7.9a13.8,13.8,0,0,1-2.4,8.3c-1.6,2.2-4.2,3.3-7.6,3.3a8.4,8.4,0,0,1-6.8-2.9c-1.7-1.9-2.5-4.5-2.5-7.8a13,13,0,0,1,2.6-8.4,9,9,0,0,1,7.2-3.1A9.4,9.4,0,0,1,64.3,367.9Zm-2.2,13.9a14.5,14.5,0,0,0,1.3-5.9,9.5,9.5,0,0,0-1-4.8,5.1,5.1,0,0,0-5-2.9,5.1,5.1,0,0,0-4.7,2.5,12,12,0,0,0-1.4,5.9,10.8,10.8,0,0,0,1.4,5.6,5.1,5.1,0,0,0,4.6,2.2A5,5,0,0,0,62.1,381.8Z" fill="#fff"/><path d="M82.8,366.4a8.4,8.4,0,0,1,2.2,2.1V357.9h3.3v28.8H85.2v-2.9a7.7,7.7,0,0,1-2.9,2.8,9.3,9.3,0,0,1-3.9.8,7.9,7.9,0,0,1-6-2.9,11.6,11.6,0,0,1-2.5-7.8,13.5,13.5,0,0,1,2.3-8,7.6,7.6,0,0,1,6.6-3.3A7,7,0,0,1,82.8,366.4ZM75,382.1a5,5,0,0,0,4.5,2.3,4.6,4.6,0,0,0,4-2.1c1.1-1.4,1.6-3.5,1.6-6.1s-.5-4.6-1.6-5.8a5,5,0,0,0-4-1.9,5.1,5.1,0,0,0-4.3,2c-1.1,1.3-1.6,3.3-1.6,6A10.8,10.8,0,0,0,75,382.1Z" fill="#fff"/><path d="M106.7,365.8h3.9l-3.3,9.1-3.2,8.8c-2.1,5.4-3.5,8.6-4.3,9.8a5,5,0,0,1-4.3,1.8H94.3l-1-.2v-3.2l1.4.3h.7a2.6,2.6,0,0,0,1.4-.4,2,2,0,0,0,.8-.8,9.9,9.9,0,0,0,.7-1.6l.9-2.1-7.8-21.5h4l5.6,17Z" fill="#fff"/></svg>